<svg width="161" height="48" viewBox="0 0 161 48" fill="none" xmlns="http://www.w3.org/2000/svg">
<path d="M20.706 37.8303C21.4509 38.6608 22.1956 39.4915 23.0398 40.2732C27.0618 44.0352 32.2258 46.7711 38.0354 47.8948V44.5237C33.2189 43.4488 28.9486 41.1037 25.5721 37.928C24.4797 36.9508 23.5363 35.8271 22.6425 34.7034C22.146 35.6806 21.5501 36.6089 20.9542 37.5371L21.004 37.586L20.9542 37.5371C20.855 37.6349 20.8053 37.7325 20.706 37.8303ZM15.4923 34.5569C14.5985 35.7783 13.5558 36.902 12.4633 37.928C9.08688 41.1037 4.8166 43.4488 0.00012207 44.5237V47.8948C5.76003 46.7223 10.9241 44.0352 14.9958 40.2732C15.8398 39.4425 16.684 38.612 17.4289 37.7325L17.2799 37.5371L17.2302 37.586L17.2799 37.5371C16.6343 36.56 16.0385 35.5829 15.4923 34.5569ZM0.00012207 42.374C4.07178 41.2991 7.69655 39.2471 10.6262 36.5112C12.811 34.4591 14.5985 32.0163 15.8398 29.3292C16.6343 31.5278 17.7267 33.6286 19.0674 35.5829C20.3584 33.9217 21.3515 31.6744 22.295 29.3292C23.5363 32.0163 25.3239 34.4591 27.5087 36.5112C30.4383 39.2471 34.063 41.2503 38.0851 42.374V38.9052C35.0065 37.928 32.2258 36.3157 29.9914 34.2149C26.168 30.6483 23.7846 25.8115 23.7846 20.4373V5.58472H20.2591V20.4373C20.2591 23.0266 19.8122 26.1046 19.0178 28.4498C18.2233 26.0558 17.7764 23.0266 17.7764 20.4373V5.58472H14.2509V20.4373C14.2509 25.8115 11.9172 30.6971 8.14345 34.2149C5.85934 36.3157 3.0787 37.928 0.00012207 38.9052V42.374ZM25.9197 19.5578V16.7729H29.4452V19.5578V19.7532V20.0953C29.4452 24.0038 31.1334 27.5703 33.9141 30.1109C35.1058 31.2346 36.4961 32.1629 38.0354 32.8469V36.4623C35.503 35.5829 33.2686 34.2149 31.3817 32.4561C28.0052 29.2803 25.8701 24.8832 25.8701 20.0953V19.7532V19.5578H25.9197ZM8.59034 19.5578V16.7729H12.1158V19.5578V19.7532V20.0953C12.1158 24.932 10.0303 29.2803 6.60415 32.4561C4.76695 34.2149 2.48284 35.5829 0.00012207 36.4623V32.8469C1.5394 32.1629 2.92973 31.2346 4.12144 30.1109C6.85242 27.5215 8.59034 24.0038 8.59034 20.0953V19.7532V19.5578Z" fill="#EB3333"/>
<path d="M87.7389 25.1777H84.71V5.53716H87.7389V13.2077H88.2354C89.874 13.2077 90.4202 11.4488 90.4202 10.1297V5.53716H93.4492V10.032C93.4492 12.084 92.6547 13.6474 91.165 14.6734C92.8037 15.7971 93.4492 17.214 93.4492 19.3148V25.2265H90.4202V19.1682C90.4202 17.8979 89.8243 16.3345 88.2354 16.3834H87.6893V25.1777H87.7389ZM139.529 25.1777V5.53716H142.259V17.0186L145.387 5.53716H148.764V25.1777H146.033V11.4977L142.309 25.1777H139.529ZM150.899 25.1777V5.53716H153.63V17.0186L156.759 5.53716H160.135V25.1777H157.404V11.4977L153.68 25.1777H150.899ZM158.893 0.895752V3.19203H152.19V0.895752H158.893ZM131.733 25.1777H128.704V5.53716H131.733V13.2077H132.229C133.868 13.2077 134.414 11.4488 134.414 10.1297V5.53716H137.443V10.032C137.443 12.084 136.648 13.6474 135.159 14.6734C136.797 15.7971 137.443 17.214 137.443 19.3148V25.2265H134.414V19.1682C134.414 17.8979 133.819 16.3345 132.229 16.3834H131.683V25.1777H131.733ZM76.517 25.1288H73.4881V5.53716H76.517H79.3969H82.5251V13.4032H79.3969V8.322H76.517V22.344H79.3969V17.2628H82.5251V25.1288H79.3969H76.517ZM120.511 25.1288H117.482V5.53716H120.511H123.391H126.519V13.4032H123.391V8.322H120.511V22.344H123.391V17.2628H126.519V25.1288H123.391H120.511ZM68.2247 8.322H65.3944C65.3944 13.0611 65.3944 17.6048 65.3944 22.344H68.2247C68.2247 17.6048 68.2247 13.0611 68.2247 8.322ZM65.2951 25.1288H62.2662C62.2662 18.582 62.2662 12.0352 62.2662 5.4883H65.2951H68.1751H71.3033C71.3033 12.0352 71.3033 18.582 71.3033 25.1288H68.1751H65.2951ZM101.592 8.322H98.7621C98.7621 13.0611 98.7621 17.6048 98.7621 22.344H101.592C101.592 17.6048 101.592 13.0611 101.592 8.322ZM98.7125 25.1288H95.6836C95.6836 18.582 95.6836 12.0352 95.6836 5.4883H98.7125H101.592H104.721C104.721 12.0352 104.721 18.582 104.721 25.1288H101.592H98.7125ZM109.885 8.322V13.5986C111.027 13.6474 112.418 13.5986 112.418 11.5954V9.78771V8.322H109.885ZM109.885 16.3834V22.344H112.418C112.418 21.0737 112.418 19.8034 112.418 18.5331C112.418 16.53 111.027 16.3345 109.885 16.3834ZM115.446 8.95715V9.78771V11.4C115.446 12.9634 114.801 14.0871 113.758 14.82C114.9 15.6994 115.446 17.0674 115.446 18.7286C115.446 20.8782 115.446 23.0279 115.446 25.1288C113.609 25.1288 111.722 25.1288 109.885 25.1288H106.856V5.53716H109.885C111.722 5.53716 113.609 5.53716 115.446 5.53716V8.95715ZM53.676 18.6796C54.4704 14.4779 55.5132 9.78771 56.0097 5.58602H60.1311V25.2265H57.4498V17.4094L57.7477 10.374C57.3504 12.6215 55.8607 20.9271 53.9739 24.9333H53.676H53.378C51.4912 20.9271 49.9519 12.6215 49.6043 10.374L49.9023 17.4094V25.1777H47.2209V5.53716H51.3422C51.8387 9.78771 52.8815 14.4779 53.676 18.6796Z" fill="#EB3333"/>
<path d="M83.8154 31.0893V39.8347C84.9574 39.8836 86.3478 39.6881 86.3478 37.6851V35.8773V31.0405H83.8154V31.0893ZM89.3767 35.0956V35.9261V37.5385C89.3767 40.5676 87.7877 42.6684 84.8085 42.6684H83.8154V47.945H80.7865V28.2556C83.6665 28.2556 86.5463 28.2556 89.3767 28.2556V35.0956ZM90.2208 28.2556H99.6552V31.0405H96.4772V47.8473H93.4484V31.0893H90.2704V28.2556H90.2208ZM75.6224 31.0893H72.7922C72.7922 35.8285 72.7922 40.3722 72.7922 45.1113H75.6224C75.6224 40.3722 75.6224 35.7796 75.6224 31.0893ZM72.6928 47.8961H69.6639C69.6639 41.3493 69.6639 34.8025 69.6639 28.2556H72.6928H75.5727H78.701C78.701 34.8025 78.701 41.3493 78.701 47.8961H75.5727H72.6928ZM50.2986 47.8961H47.2698V28.2556H50.2986H53.1786H56.3068V36.1217H53.1786V31.0893H50.2986V45.1113H53.1786V40.0301H56.3068V47.8961H53.1786H50.2986ZM61.5206 47.8961H58.4916V28.2556H67.5287V47.8961H64.4005V31.0893H61.5206V47.8961Z" fill="#EB3333"/>
</svg>
