<svg width="25" height="25" viewBox="0 0 25 25" fill="none" xmlns="http://www.w3.org/2000/svg">
<path fill-rule="evenodd" clip-rule="evenodd" d="M6 0C2.68629 0 0 2.6863 0 6.00001V18.9999C0 22.3136 2.6863 24.9999 6.00001 24.9999H18.9999C22.3136 24.9999 24.9999 22.3136 24.9999 18.9999V6C24.9999 2.68629 22.3136 0 18.9999 0H6ZM8.00011 7.00656V17.9833V17.9848H10.5995V16.1382V14.2566C10.7809 14.2566 10.9605 14.2564 11.1385 14.2562C11.8043 14.2554 12.4494 14.2547 13.0946 14.2647C13.1611 14.2657 13.2517 14.3699 13.2881 14.4474C13.8119 15.5562 14.3318 16.6675 14.8438 17.7824C14.9113 17.9297 14.9792 17.997 15.1496 17.9954C15.7446 17.9899 16.3395 17.9933 16.9345 17.9967C17.1509 17.9979 17.3672 17.9992 17.5836 18H18.0001C17.9791 17.9556 17.9605 17.9151 17.9432 17.8775C17.9081 17.8011 17.8783 17.7363 17.845 17.6736C17.7502 17.4938 17.6554 17.314 17.5607 17.1342C16.9669 16.0079 16.3734 14.8819 15.7743 13.7586C15.701 13.6204 15.6872 13.5379 15.8176 13.4226C17.2247 12.1776 17.1883 10.1113 16.6221 8.93572C15.9969 7.63713 14.9078 7.03338 13.519 7.01162C12.5214 6.99578 11.5235 6.99953 10.5255 7.00328C10.0889 7.00492 9.65229 7.00656 9.21565 7.00656H8.00011ZM11.052 11.9946C10.9097 11.9943 10.7661 11.9939 10.6207 11.9939V9.38359C10.6444 9.38155 10.667 9.37921 10.6887 9.37696C10.7368 9.37196 10.7808 9.3674 10.8245 9.3674C11.0027 9.36714 11.1809 9.36667 11.3591 9.36619C11.8939 9.36477 12.4289 9.36335 12.9637 9.3679C13.6889 9.37397 14.2811 9.96304 14.29 10.6756C14.2988 11.4028 13.7657 11.9322 12.9957 11.96C12.9045 11.9633 12.8134 11.9671 12.7222 11.9708C12.4943 11.9802 12.2665 11.9895 12.0386 11.9924C11.7121 11.9963 11.3856 11.9955 11.052 11.9946Z" fill="#C4C4C4"/>
</svg>
