<svg width="25" height="25" viewBox="0 0 25 25" fill="none" xmlns="http://www.w3.org/2000/svg">
<path d="M18.9999 0H6C2.68629 0 0 2.68629 0 6V18.9999C0 22.3136 2.68629 24.9999 6 24.9999H18.9999C22.3136 24.9999 24.9999 22.3136 24.9999 18.9999V6C24.9999 2.68629 22.3136 0 18.9999 0Z" fill="#C4C4C4"/>
<path fill-rule="evenodd" clip-rule="evenodd" d="M6.8972 12.3049C10.1184 10.8937 12.2664 9.96333 13.3412 9.51383C16.4098 8.23039 17.0474 8.00744 17.463 8.00008C17.5544 7.99846 17.7588 8.02124 17.8912 8.12926C18.003 8.22047 18.0337 8.34368 18.0485 8.43016C18.0632 8.51664 18.0815 8.71364 18.0669 8.86757C17.9006 10.6245 17.1811 14.8881 16.8151 16.8559C16.6602 17.6885 16.3552 17.9677 16.0599 17.995C15.4182 18.0544 14.931 17.5686 14.3095 17.159C13.3369 16.5179 12.7875 16.1189 11.8435 15.4933C10.7526 14.7704 11.4598 14.3731 12.0815 13.7237C12.2442 13.5538 15.0715 10.9679 15.1262 10.7333C15.1331 10.704 15.1394 10.5946 15.0748 10.5369C15.0102 10.4792 14.9148 10.4989 14.846 10.5146C14.7485 10.5369 13.1949 11.5695 10.1852 13.6124C9.7442 13.9169 9.34476 14.0652 8.98689 14.0574C8.59235 14.0489 7.83343 13.8331 7.26925 13.6487C6.57726 13.4225 6.02728 13.3029 6.07517 12.9188C6.10012 12.7187 6.37413 12.5141 6.8972 12.3049Z" fill="white"/>
</svg>
