<svg width="60" height="60" viewBox="0 0 60 60" fill="none" xmlns="http://www.w3.org/2000/svg">
<path d="M60 0H0V60H60V0Z" fill="#CD303D"/>
<path d="M51.2488 17.9683H8.75098V19.7097H51.2488V17.9683Z" fill="white"/>
<path d="M43.5355 39.1908V22.9023H48.1177V39.1908H50.3429V22.9023H51.2224V21.1433H8.75098V22.9023H9.63048V39.1908H11.8645V22.9023H16.4116V39.1908H18.6278V22.9023H23.3245V39.1908H25.576V28.1354C25.5473 27.4728 25.6124 26.8096 25.7694 26.1653C26.042 25.0378 26.7059 24.0436 27.6428 23.3596C28.3431 22.9583 29.1403 22.7575 29.9471 22.7792C30.6421 22.7622 31.3315 22.9067 31.9612 23.2013C33.0117 23.841 33.7744 24.862 34.0896 26.0509C34.2729 26.7298 34.3501 27.4329 34.3183 28.1354V39.1908H36.561V22.9023H41.2576V39.1908H43.5355Z" fill="white"/>
<path d="M12.0581 14.9341L10.7652 13.1926L9.45471 14.9341L10.7652 16.6755L12.0581 14.9341Z" fill="white"/>
<path d="M15.2594 46.0951V46.0247C15.6758 45.7728 16.0111 45.4066 16.2254 44.9696C16.4398 44.5327 16.5241 44.0434 16.4685 43.5599C16.4129 43.0764 16.2197 42.619 15.9118 42.2421C15.6039 41.8652 15.1944 41.5847 14.7317 41.4337C14.2274 41.3169 13.71 41.2666 13.1926 41.2842H9.34033V51.2402H12.9727C13.6062 51.2705 14.2407 51.2053 14.8549 51.0468C15.4167 50.8653 15.9013 50.5006 16.2313 50.0111C16.5614 49.5216 16.7178 48.9355 16.6754 48.3467C16.6887 47.8734 16.5613 47.4067 16.3092 47.0059C16.0571 46.6051 15.6917 46.2882 15.2594 46.0951ZM10.9147 42.5771H13.1926C13.4909 42.5618 13.7894 42.6036 14.0721 42.7002C14.3275 42.8 14.5435 42.98 14.6878 43.2131C14.8321 43.4463 14.897 43.72 14.8725 43.9931C14.8995 44.2613 14.8512 44.5317 14.7331 44.7741C14.615 45.0164 14.4319 45.2211 14.204 45.3651C13.9136 45.5234 13.5843 45.5965 13.2541 45.5762H10.9059L10.9147 42.5771ZM14.1864 49.7978C13.921 49.8756 13.6449 49.9113 13.3684 49.9033H10.9147V46.9042H13.3948C13.6944 46.8928 13.9933 46.9406 14.2744 47.0449C14.5238 47.153 14.7329 47.337 14.8718 47.5706C15.0108 47.8043 15.0726 48.0759 15.0483 48.3467C15.0886 48.6504 15.03 48.959 14.8811 49.2267C14.7321 49.4944 14.5008 49.7071 14.2215 49.833L14.1864 49.7978Z" fill="white"/>
<path d="M18.6984 16.5435L17.8716 14.8549C18.0415 14.7999 18.1891 14.6913 18.2921 14.5454C18.3952 14.3996 18.4482 14.2243 18.4433 14.0458C18.4433 13.8125 18.3507 13.5888 18.1857 13.4239C18.0208 13.2589 17.797 13.1663 17.5638 13.1663C17.3305 13.1663 17.1068 13.2589 16.9418 13.4239C16.7769 13.5888 16.6843 13.8125 16.6843 14.0458C16.6868 14.2261 16.7447 14.4012 16.8501 14.5475C16.9555 14.6938 17.1033 14.8042 17.2736 14.8637L16.4468 16.5435H18.6984Z" fill="white"/>
<path d="M27.0361 41.2927H23.7115L18.2937 51.2488H28.285L29.3492 49.7888L27.0361 49.8328V41.2927ZM25.4881 49.8943H20.5365L24.4767 42.5064H25.5145L25.4881 49.8943Z" fill="white"/>
<path d="M36.6137 14.802H23.3771V16.5434H36.6137V14.802Z" fill="white"/>
<path d="M32.6737 11.6094H27.3087V13.3508H32.6737V11.6094Z" fill="white"/>
<path d="M31.9616 5.40894H28.0126V7.14156H31.9616V5.40894Z" fill="white"/>
<path d="M31.4511 8.49609H28.5311L29.9911 10.4574L31.4511 8.49609Z" fill="white"/>
<path d="M38.1795 45.2681H33.1223V41.2927H31.5568V51.2487H33.1223V46.6313H38.1795V51.2487H39.7538V41.2927H38.1795V45.2681Z" fill="white"/>
<path d="M43.5266 16.5435L42.6471 14.8637C42.8173 14.8042 42.9651 14.6938 43.0705 14.5475C43.1759 14.4012 43.2339 14.2261 43.2364 14.0458C43.2364 13.8125 43.1437 13.5888 42.9787 13.4239C42.8138 13.2589 42.5901 13.1663 42.3569 13.1663C42.1236 13.1663 41.8999 13.2589 41.7349 13.4239C41.57 13.5888 41.4774 13.8125 41.4774 14.0458C41.4804 14.2225 41.5365 14.3942 41.6384 14.5385C41.7404 14.6828 41.8834 14.7931 42.049 14.8549L41.2223 16.5435H43.5266Z" fill="white"/>
<path d="M47.7485 45.8662L50.8971 41.2927H49.3668L47.0097 44.8108L44.5295 41.2927H42.6385L46.0422 46.1124L42.4802 51.2487H44.0545L46.7898 47.1942L49.6482 51.2487H51.5304L47.7485 45.8662Z" fill="white"/>
<path d="M50.5367 14.9341L49.235 13.1926L47.9421 14.9341L49.235 16.6755L50.5367 14.9341Z" fill="white"/>
</svg>
