<svg width="25" height="25" viewBox="0 0 25 25" fill="none" xmlns="http://www.w3.org/2000/svg">
<path d="M18.9999 0H6C2.68629 0 0 2.68629 0 6V18.9999C0 22.3136 2.68629 24.9999 6 24.9999H18.9999C22.3136 24.9999 24.9999 22.3136 24.9999 18.9999V6C24.9999 2.68629 22.3136 0 18.9999 0Z" fill="#C4C4C4"/>
<path d="M13.1698 17C8.04493 17 5.1218 13.6216 5 8H7.56715C7.65147 12.1261 9.54399 13.8739 11.0431 14.2342V8H13.4604V11.5586C14.9407 11.4054 16.4958 9.78378 17.0205 8H19.4378C19.0349 10.1982 17.3484 11.8198 16.1492 12.4865C17.3484 13.027 19.2692 14.4414 20 17H17.3391C16.7676 15.2883 15.3436 13.964 13.4604 13.7838V17H13.1698Z" fill="white"/>
</svg>
