<svg id="Слой_1" data-name="Слой 1" xmlns="http://www.w3.org/2000/svg" viewBox="0 0 408.18895 226.77164">
  <defs>
    <style>
      .cls-1, .cls-22 {
        fill: #fff;
      }

      .cls-12, .cls-2 {
        fill: #bcf7f7;
      }

      .cls-13, .cls-3 {
        fill: #ffd4cc;
      }

      .cls-21, .cls-4 {
        fill: #ffe1b5;
      }

      .cls-5 {
        fill: #fcf9d3;
      }

      .cls-16, .cls-6 {
        fill: #ff9ef6;
      }

      .cls-7 {
        fill: #39175f;
      }

      .cls-18, .cls-8 {
        fill: #ffe8e5;
      }

      .cls-20, .cls-9 {
        fill: #cecedb;
      }

      .cls-10, .cls-15 {
        fill: #ed553b;
      }

      .cls-11 {
        fill: #f95;
      }

      .cls-12, .cls-13, .cls-14, .cls-15, .cls-16, .cls-17, .cls-18, .cls-19, .cls-20, .cls-21, .cls-22 {
        fill-rule: evenodd;
      }

      .cls-14, .cls-25 {
        fill: #f5ffff;
      }

      .cls-17, .cls-26 {
        fill: #08e6e7;
      }

      .cls-19 {
        fill: #173f5f;
      }

      .cls-23 {
        fill: #fffef8;
      }

      .cls-24 {
        fill: #ff9a00;
      }

      .cls-27 {
        fill: #fea49c;
      }

      .cls-28 {
        fill: #31313e;
      }
    </style>
  </defs>
  <g>
    <rect class="cls-1" width="408.18895" height="226.77164"/>
    <path class="cls-2" d="M58.70551,82.063a129.39658,129.39658,0,0,1-15.5622.53857A131.9626,131.9626,0,0,1,0,74.15433V58.2236a117.09941,117.09941,0,0,0,42.7748,9.29764A115.05976,115.05976,0,0,0,62.7874,66.274ZM86.11653,0h21.85512L97.65354,10.3181c-15.137,15.137-35.40472,22.39369-55.87086,21.88347A83.0109,83.0109,0,0,1,8.75905,24.37794L20.06929,13.0677a67.96932,67.96932,0,0,0,21.34488,4.0819A61.466,61.466,0,0,0,86.11653,0Zm34.95118,0h21.85511L114.15117,28.77164c-8.16378,8.16378-16.38425,19.10551-21.34487,29.02678,9.9496-4.9323,20.89133-13.15276,29.05511-21.31655L158.34329,0h20.32442l.76535.76535L132.77479,47.39526c-16.83779,16.8378-24.88818,39.42992-24.32125,62.19213a92.77775,92.77775,0,0,0,10.20472,39.85511l-10.85669,10.88505a108.29789,108.29789,0,0,1-14.42835-51.10866,101.95438,101.95438,0,0,1,6.463-38.5512C89.65983,75.1181,79.5685,78.91652,70.3559,80.27716c1.36063-9.21262,5.13071-19.30395,9.60945-29.48032a101.37968,101.37968,0,0,1-38.55118,6.43464A107.92262,107.92262,0,0,1,0,47.79211V33.137l1.19055-1.19055A92.41187,92.41187,0,0,0,41.04567,42.1795c22.7622.56694,45.326-7.48346,62.19212-24.32125ZM68.57007,91.92755a129.12685,129.12685,0,0,0-.53858,15.53385A133.64586,133.64586,0,0,0,90.34016,177.789l10.65826-10.65827a117.669,117.669,0,0,1-17.88661-59.27244,112.3464,112.3464,0,0,1,1.24724-20.01259ZM151.22833,63.8929a61.5311,61.5311,0,0,0-17.74487,45.326,67.79776,67.79776,0,0,0,4.08189,21.31653L126.25511,141.874a83.01069,83.01069,0,0,1-7.82362-33.02364c-.51023-20.46612,6.71811-40.73385,21.85511-55.87085L150.80314,42.463l10.94173,10.91339Z"/>
    <path class="cls-2" d="M0,87.44881,20.43779,107.8866l1.89922-1.8992L0,83.65039Zm0-7.6252V76.02518l26.16378,26.13543-1.92756,1.92756Zm0-7.59685V68.4L29.9622,98.36218,28.063,100.26141Zm0-7.6252V60.80313L33.76063,94.56377,31.86141,96.463Zm0-7.59685V53.178l37.55905,37.5874-1.89921,1.8992Zm0-7.62519V45.55273L41.38582,86.93857l-1.89921,1.89921Zm0-7.6252V37.95589L45.18425,83.14014,43.285,85.03935Zm0-7.59685V33.137l1.41732-1.389,47.56535,47.5937-1.89921,1.89922Zm3.31654-4.337L50.91023,77.41415l1.89922-1.8992L5.21575,27.92125ZM7.115,26.022l47.5937,47.59371,1.89921-1.89922L9.01417,24.12282Zm3.79842-3.79843,47.5937,47.59371,1.89921-1.89922L12.8126,20.3244Zm3.82678-3.79841L62.33385,65.99054l1.89922-1.89922-47.5937-47.5937Zm3.79842-3.82677,47.5937,47.59369,1.89921-1.8992L20.43779,12.6992Z"/>
    <path class="cls-3" d="M4.47874,199.5307a129.40027,129.40027,0,0,0,15.5622.56693A133.63,133.63,0,0,0,90.34016,177.789L79.68188,167.13069A117.66908,117.66908,0,0,1,20.40945,185.0173a115.05871,115.05871,0,0,1-20.0126-1.24723ZM0,172.99841V157.4362a89.36232,89.36232,0,0,0,22.16693,2.23938A92.39359,92.39359,0,0,0,61.9937,149.4425l10.885,10.88505a107.93817,107.93817,0,0,1-51.10866,14.4A103.562,103.562,0,0,1,0,172.99841Zm0-25.68188V131.41415a63.67982,63.67982,0,0,0,21.77008,3.20316A66.40416,66.40416,0,0,0,43.115,130.53542L54.42519,141.874a83.01079,83.01079,0,0,1-33.02362,7.82361A79.87508,79.87508,0,0,1,0,147.31653Z"/>
    <path class="cls-3" d="M0,182.6362l42.74645,42.74646,1.89922-1.92755L0,178.80943ZM0,175.011v-2.06931l.85039-.87874,47.5937,47.59371-1.89921,1.89921Zm2.778-4.84725,47.5937,47.59369,1.89921-1.89921L4.67716,168.26456Zm3.79843-3.79843,47.5937,47.59371,1.89921-1.92757L8.47559,164.46613Zm3.79842-3.79843,47.5937,47.56535,1.89921-1.8992L12.274,160.63936Zm3.82677-3.82677,47.5937,47.59371,1.89922-1.89922-47.5937-47.5937ZM18,154.94171l47.5937,47.59371,1.89921-1.89922-47.5937-47.59369Zm3.79842-3.79841,47.5937,47.56535,1.89921-1.89922-47.59369-47.5937Zm3.82677-3.82677,47.5937,47.59369,1.89921-1.8992L27.52441,145.41731Zm3.79843-3.79843,47.5937,47.5937,1.89921-1.89921-47.5937-47.59371Zm3.79842-3.79843L80.81574,187.285l1.89922-1.8992-47.5937-47.59371Zm3.82678-3.82677,47.56534,47.5937,1.92756-1.89921L38.948,133.99368Zm3.79842-3.79843,47.5937,47.5937,1.89922-1.89921L42.74645,130.19527Z"/>
    <path class="cls-4" d="M100.03464,226.77164a118.97421,118.97421,0,0,0-13.35119-29.84882l10.65828-10.65826a134.53017,134.53017,0,0,1,18.11338,40.50708Zm-10.23307,0H74.211a91.10653,91.10653,0,0,0-5.1874-12.16063l10.885-10.885a108.27557,108.27557,0,0,1,9.89291,23.04567Zm-26.39055,0H56.83464l4.59213-4.59212c.70866,1.5307,1.389,3.06142,1.98425,4.59212Z"/>
    <path class="cls-5" d="M209.99054,96.88818C202.45038,89.348,201.6,77.95274,208.09132,71.43306a19.33241,19.33241,0,0,0,27.35433,27.326c-6.51969,6.51969-17.915,5.6693-25.45511-1.87085Z"/>
    <path class="cls-6" d="M233.54645,73.33228c7.56849,7.54016,8.39054,18.93542,1.8992,25.42675-6.51969,6.51969-17.915,5.6693-25.45511-1.87085S201.6,77.95274,208.09132,71.43306c6.51969-6.5197,17.915-5.6693,25.45513,1.89922Z"/>
    <path class="cls-1" d="M227.93384,78.94487a8.69908,8.69908,0,1,1-12.30236,0,8.69116,8.69116,0,0,1,12.30236,0Z"/>
    <path class="cls-7" d="M216.11337,79.45511a7.99755,7.99755,0,1,0,11.31024,0,8.00687,8.00687,0,0,0-11.31024,0Zm12.30237,12.30237a9.40063,9.40063,0,1,1,0-13.2945,9.427,9.427,0,0,1,0,13.2945Z"/>
    <path class="cls-1" d="M209.99054,96.88818C202.45038,89.348,201.6,77.95274,208.09132,71.43306a19.33241,19.33241,0,0,0,27.35433,27.326c-6.51969,6.51969-17.915,5.6693-25.45511-1.87085Z"/>
    <path class="cls-8" d="M233.54645,73.33228c7.56849,7.54016,8.39054,18.93542,1.8992,25.42675-6.51969,6.51969-17.915,5.6693-25.45511-1.87085S201.6,77.95274,208.09132,71.43306c6.51969-6.5197,17.915-5.6693,25.45513,1.89922Z"/>
    <path class="cls-1" d="M227.93384,78.94487a8.69908,8.69908,0,1,1-12.30236,0,8.69116,8.69116,0,0,1,12.30236,0Z"/>
    <path class="cls-9" d="M216.11337,79.45511a7.99755,7.99755,0,1,0,11.31024,0,8.00687,8.00687,0,0,0-11.31024,0Zm12.30237,12.30237a9.40063,9.40063,0,1,1,0-13.2945,9.427,9.427,0,0,1,0,13.2945Z"/>
    <polygon class="cls-1" points="250.044 85.096 278.362 56.778 250.044 28.431 221.698 56.778 250.044 85.096"/>
    <polygon class="cls-10" points="221.698 56.778 250.044 28.431 250.044 85.096 221.698 56.778"/>
    <polygon class="cls-6" points="264.217 42.605 250.044 56.778 250.044 28.431 264.217 42.605"/>
    <polygon class="cls-11" points="264.217 42.605 250.044 56.778 278.362 56.778 264.217 42.605"/>
    <path class="cls-7" d="M277.65352,49.60629a1.16255,1.16255,0,1,1,0,1.64409,1.16338,1.16338,0,0,1,0-1.64409Zm3.94015,3.94016a4.39693,4.39693,0,0,0,0-6.23622,4.40967,4.40967,0,1,0,0,6.23622Z"/>
    <path class="cls-7" d="M284.99525,42.29291a1.14251,1.14251,0,1,1,0,1.61574,1.12932,1.12932,0,0,1,0-1.61574Zm3.91181,3.9118a4.38962,4.38962,0,1,0-6.20786,0,4.36294,4.36294,0,0,0,6.20786,0Z"/>
    <path class="cls-7" d="M292.30864,34.95117a1.16255,1.16255,0,1,1,0,1.64409,1.16338,1.16338,0,0,1,0-1.64409Zm3.94015,3.94016a4.40967,4.40967,0,1,0-6.2362,0,4.44878,4.44878,0,0,0,6.2362,0Z"/>
    <path class="cls-7" d="M299.65037,27.63779a1.1293,1.1293,0,0,1,1.61576,0,1.16337,1.16337,0,0,1,0,1.64409,1.12935,1.12935,0,0,1-1.61576,0,1.16337,1.16337,0,0,1,0-1.64409Zm3.91181,3.94015a4.39966,4.39966,0,1,0-6.20786,0,4.397,4.397,0,0,0,6.20786,0Z"/>
    <path class="cls-6" d="M271.81416,22.73384h0a2.26259,2.26259,0,0,1,.3685-3.20314l.4252-.34016L277.2,15.56219a2.29382,2.29382,0,0,1,3.20312.3685h0a2.2951,2.2951,0,0,1-.39685,3.20316L275.13069,22.989l-.14172.11339a2.28273,2.28273,0,0,1-3.17481-.36852Z"/>
    <path class="cls-6" d="M276.29289,52.63936a3.11685,3.11685,0,0,0,4.39371-4.422,3.09666,3.09666,0,0,0-4.39371,0,3.13087,3.13087,0,0,0,0,4.422Z"/>
    <path class="cls-6" d="M283.60628,45.29762a3.10681,3.10681,0,1,0,0-4.39369,3.09669,3.09669,0,0,0,0,4.39369Z"/>
    <path class="cls-6" d="M290.91966,37.98424a3.11685,3.11685,0,1,0,0-4.39369,3.13089,3.13089,0,0,0,0,4.39369Z"/>
    <path class="cls-6" d="M298.2614,30.6425a3.10681,3.10681,0,1,0,0-4.39369,3.09671,3.09671,0,0,0,0,4.39369Z"/>
    <polygon class="cls-1" points="250.044 85.096 278.362 56.778 250.044 28.431 221.698 56.778 250.044 85.096"/>
    <polygon class="cls-2" points="278.362 56.778 306.709 28.431 278.362 0.113 250.044 28.431 278.362 56.778"/>
    <polygon class="cls-3" points="221.698 56.778 250.044 28.431 250.044 85.096 221.698 56.778"/>
    <polygon class="cls-8" points="264.217 42.605 250.044 56.778 250.044 28.431 264.217 42.605"/>
    <polygon class="cls-4" points="264.217 42.605 250.044 56.778 278.362 56.778 264.217 42.605"/>
    <path class="cls-9" d="M277.65352,49.60629a1.16255,1.16255,0,1,1,0,1.64409,1.16338,1.16338,0,0,1,0-1.64409Zm3.94015,3.94016a4.39693,4.39693,0,0,0,0-6.23622,4.40967,4.40967,0,1,0,0,6.23622Z"/>
    <path class="cls-9" d="M284.99525,42.29291a1.14251,1.14251,0,1,1,0,1.61574,1.12932,1.12932,0,0,1,0-1.61574Zm3.91181,3.9118a4.38962,4.38962,0,1,0-6.20786,0,4.36294,4.36294,0,0,0,6.20786,0Z"/>
    <path class="cls-9" d="M292.30864,34.95117a1.16255,1.16255,0,1,1,0,1.64409,1.16338,1.16338,0,0,1,0-1.64409Zm3.94015,3.94016a4.40967,4.40967,0,1,0-6.2362,0,4.44878,4.44878,0,0,0,6.2362,0Z"/>
    <path class="cls-9" d="M299.65037,27.63779a1.1293,1.1293,0,0,1,1.61576,0,1.16337,1.16337,0,0,1,0,1.64409,1.12935,1.12935,0,0,1-1.61576,0,1.16337,1.16337,0,0,1,0-1.64409Zm3.91181,3.94015a4.39966,4.39966,0,1,0-6.20786,0,4.397,4.397,0,0,0,6.20786,0Z"/>
    <path class="cls-1" d="M272.72124,40.252c1.41732-4.19528,4.337-14.3433,4.337-14.3433L275.61259,23.726l4.87558-3.85512a3.17938,3.17938,0,0,0,.6803-4.337,3.14489,3.14489,0,0,0-4.50708-.652l-4.53543,3.6L268.66771,14.485a1.85611,1.85611,0,0,1-.19843-1.75749,16.30392,16.30392,0,0,1,7.37006-8.10709,1.80607,1.80607,0,0,1,1.81418.11339c2.4378,1.6441,12.33072,9.49606,15.90237,12.86929a16.81464,16.81464,0,0,1,3.4299,4.22362,2.4258,2.4258,0,0,1-.28344,2.46616c-1.55906,1.92755-20.52283,21.0614-20.55118,21.0614a2.67835,2.67835,0,0,1-3.00473-1.33228,4.42459,4.42459,0,0,1-.4252-3.77008Z"/>
    <path class="cls-9" d="M272.15431,40.11023c1.24725-3.71339,3.71338-12.274,4.22363-14.00316l-1.6441-2.46614,5.38583-4.252a2.49293,2.49293,0,0,0,.96378-1.61575,2.4634,2.4634,0,0,0-.39685-1.75748l-.08505-.085a2.42135,2.42135,0,0,0-3.31653-.48188c-.02835.02835-.0567.02835-.11338.05668l-5.074,4.02521L268.21416,15.052l-.05671-.085a2.2456,2.2456,0,0,1-.4252-1.19055,3.23524,3.23524,0,0,1,.17011-1.24726,16.36272,16.36272,0,0,1,3.0614-4.81889,17.59968,17.59968,0,0,1,4.62048-3.62834,3.006,3.006,0,0,1,1.30393-.28346,2.43618,2.43618,0,0,1,1.24725.42518c1.36063.93544,4.989,3.74175,8.56061,6.63307,2.91971,2.35277,5.811,4.79056,7.42679,6.32126a28.09881,28.09881,0,0,1,2.35275,2.5512A10.176,10.176,0,0,1,297.69447,21.6a3.13056,3.13056,0,0,1,.28345,1.67244,2.94047,2.94047,0,0,1-.65195,1.5307c-.5386.68031-3.1748,3.42993-6.378,6.71811C284.82518,37.78581,276.40629,46.148,276.37794,46.148a3.43456,3.43456,0,0,1-2.32443-.3118,3.64164,3.64164,0,0,1-1.4173-1.36062,4.89759,4.89759,0,0,1-.737-2.126,5.07278,5.07278,0,0,1,.25513-2.23936Zm5.66928-13.94647c0,.0567-2.91968,10.17639-4.337,14.4a3.65627,3.65627,0,0,0-.19843,1.64409,3.98044,3.98044,0,0,0,.53861,1.50236,2.37549,2.37549,0,0,0,.87872.87874,2.00565,2.00565,0,0,0,1.389.17007c.02835,0,7.85195-8.07873,13.83306-14.22992,3.17481-3.25984,5.78269-5.95274,6.29291-6.60472a1.80179,1.80179,0,0,0,.3685-.822,1.62926,1.62926,0,0,0-.17007-.87876,8.8108,8.8108,0,0,0-1.0488-1.61574,22.49321,22.49321,0,0,0-2.23938-2.40945c-1.55905-1.50237-4.42206-3.88347-7.31339-6.23622-3.5433-2.89134-7.14331-5.6693-8.47558-6.57637a1.20316,1.20316,0,0,0-.53858-.17009,1.22834,1.22834,0,0,0-.5386.11339,15.66185,15.66185,0,0,0-4.252,3.31654,14.39755,14.39755,0,0,0-2.778,4.422,1.09431,1.09431,0,0,0-.085.59528.91457.91457,0,0,0,.17007.51024l2.97638,3.42991L276.29289,14.4a.593.593,0,0,0,.17008-.11338h0a3.8526,3.8526,0,0,1,2.7496-.652,3.64528,3.64528,0,0,1,2.49451,1.41733.61808.61808,0,0,1,.11337.14174,3.885,3.885,0,0,1-.822,5.30078L276.633,23.95274l1.2756,1.89922Z"/>
    <path class="cls-8" d="M271.92753,22.84723h0a2.26263,2.26263,0,0,1,.3685-3.20316l.42521-.34015,4.59213-3.62834a2.29384,2.29384,0,0,1,3.20315.3685h0a2.29507,2.29507,0,0,1-.39685,3.20314l-4.87561,3.85514-.14172.11337a2.28274,2.28274,0,0,1-3.17481-.3685Z"/>
    <path class="cls-8" d="M276.29289,52.63936a3.11685,3.11685,0,0,0,4.39371-4.422,3.09666,3.09666,0,0,0-4.39371,0,3.13087,3.13087,0,0,0,0,4.422Z"/>
    <path class="cls-8" d="M283.60628,45.29762a3.10681,3.10681,0,1,0,0-4.39369,3.09669,3.09669,0,0,0,0,4.39369Z"/>
    <path class="cls-8" d="M290.91966,37.98424a3.11685,3.11685,0,1,0,0-4.39369,3.13089,3.13089,0,0,0,0,4.39369Z"/>
    <path class="cls-8" d="M298.2614,30.6425a3.10681,3.10681,0,1,0,0-4.39369,3.09671,3.09671,0,0,0,0,4.39369Z"/>
    <polygon class="cls-1" points="306.709 85.096 335.027 56.778 306.709 28.431 278.362 56.778 306.709 85.096"/>
    <path class="cls-12" d="M313.76692,35.71652a9.99147,9.99147,0,1,1-7.05829-2.91968,10.00032,10.00032,0,0,1,7.05829,2.91968Z"/>
    <polygon class="cls-8" points="306.709 85.096 335.027 56.778 320.939 42.661 292.592 71.008 306.709 85.096"/>
    <path class="cls-13" d="M299.65037,49.83305a9.99217,9.99217,0,1,1-14.08819,0,9.95729,9.95729,0,0,1,14.08819,0Z"/>
    <path class="cls-14" d="M285.3354,100.28975c1.44568,1.44566.652,4.59212-1.78583,7.02992s-5.58422,3.23151-7.0299,1.78583l-15.76062-15.789c-1.474-1.44568-.68033-4.59213,1.75747-7.02994s5.58426-3.23148,7.05826-1.78583Z"/>
    <path class="cls-7" d="M285.7606,99.86456a3.80407,3.80407,0,0,1,.737,3.71338,9.64813,9.64813,0,0,1-2.52282,4.16693,9.01546,9.01546,0,0,1-4.16694,2.49448,3.79949,3.79949,0,0,1-3.71337-.70865l-15.76062-15.789a3.73758,3.73758,0,0,1-.737-3.71339,9.41275,9.41275,0,0,1,2.49447-4.16694h0a9.30226,9.30226,0,0,1,4.16693-2.49449A3.80028,3.80028,0,0,1,270,84.07558Zm-.45352,3.4299a2.62029,2.62029,0,0,0-.39685-2.57952L269.14958,84.926a2.63464,2.63464,0,0,0-2.57953-.39685,8.13783,8.13783,0,0,0-3.62832,2.18268h0a8.32606,8.32606,0,0,0-2.18268,3.6,2.69058,2.69058,0,0,0,.4252,2.57953l15.76062,15.789a2.62023,2.62023,0,0,0,2.57953.39685,8.84261,8.84261,0,0,0,5.78268-5.78269Z"/>
    <path class="cls-15" d="M260.75905,93.31653c-1.44568-1.474-.652-4.62049,1.78582-7.05827s5.58423-3.2315,7.02991-1.7575c1.44568,1.44568.652,4.59214-1.78583,7.02994-2.40945,2.43779-5.58425,3.23149-7.0299,1.78583Z"/>
    <path class="cls-7" d="M260.33385,93.74173A3.80028,3.80028,0,0,1,259.62517,90a9.30252,9.30252,0,0,1,2.4945-4.16693,9.41314,9.41314,0,0,1,4.16693-2.49449A3.405,3.405,0,0,1,270.737,87.789a9.3807,9.3807,0,0,1-2.52282,4.16693,9.01561,9.01561,0,0,1-4.16694,2.49448,3.79947,3.79947,0,0,1-3.71337-.70865Zm.45355-3.42993a2.63445,2.63445,0,0,0,.39685,2.57953,2.69123,2.69123,0,0,0,2.5795.39685,7.9142,7.9142,0,0,0,3.6-2.18268,8.1409,8.1409,0,0,0,2.211-3.6,2.24335,2.24335,0,0,0-3.00473-3.00473,8.32677,8.32677,0,0,0-3.6,2.18268,8.13768,8.13768,0,0,0-2.18265,3.62836Z"/>
    <path class="cls-14" d="M302.88188,82.71494c1.44565,1.474.65195,4.62048-1.78583,7.05828-2.40945,2.43778-5.58426,3.23148-7.02994,1.75748L278.30549,75.77007c-1.44567-1.44567-.652-4.59212,1.78583-7.02993,2.40946-2.4378,5.58426-3.2315,7.02991-1.78582Z"/>
    <path class="cls-7" d="M303.30705,82.28975a3.80546,3.80546,0,0,1,.737,3.74173,9.56785,9.56785,0,0,1-2.49451,4.16693h0a9.49343,9.49343,0,0,1-4.19525,2.49449,3.7995,3.7995,0,0,1-3.71341-.70866l-15.76062-15.789a3.73769,3.73769,0,0,1-.737-3.71338,9.26354,9.26354,0,0,1,2.49448-4.16693,9.57122,9.57122,0,0,1,4.19528-2.52283,3.80423,3.80423,0,0,1,3.71338.737Zm-.85037.87874L286.696,67.37952a2.62017,2.62017,0,0,0-2.5795-.39685,7.91394,7.91394,0,0,0-3.6,2.18267,8.14079,8.14079,0,0,0-2.211,3.6,2.69069,2.69069,0,0,0,.42521,2.57953L294.49132,91.1055a2.69071,2.69071,0,0,0,2.57953.4252,8.16947,8.16947,0,0,0,3.6-2.18268h0a8.06816,8.06816,0,0,0,2.211-3.62835,2.63512,2.63512,0,0,0-.4252-2.55118Z"/>
    <path class="cls-16" d="M278.30549,75.74173c-1.44567-1.44568-.652-4.59213,1.78583-7.02994s5.58426-3.23149,7.02991-1.78583c1.474,1.474.68033,4.62049-1.75748,7.05828s-5.58426,3.23149-7.05826,1.75749Z"/>
    <path class="cls-7" d="M277.88029,76.16692a3.79952,3.79952,0,0,1-.70865-3.7134,9.30257,9.30257,0,0,1,2.49448-4.16693h0a9.30241,9.30241,0,0,1,4.16693-2.49448,3.39277,3.39277,0,0,1,4.45038,4.4504,9.97212,9.97212,0,0,1-6.66141,6.66142,3.80551,3.80551,0,0,1-3.74173-.737Zm.45356-3.42992a2.22483,2.22483,0,0,0,2.97637,3.00473,8.76946,8.76946,0,0,0,5.811-5.811,2.22482,2.22482,0,0,0-3.0047-2.97637,8.06026,8.06026,0,0,0-3.6,2.18267h0a8.06,8.06,0,0,0-2.18267,3.6Z"/>
    <path class="cls-14" d="M265.09605,88.611c-1.44568,1.474-4.59213.70866-7.00158-1.72914-2.43781-2.40944-3.20314-5.5559-1.75748-7.02991l15.874-15.874c1.474-1.44567,4.62046-.68032,7.02991,1.75747,2.40945,2.40946,3.20315,5.55591,1.72913,7.02994Z"/>
    <path class="cls-7" d="M265.54957,89.03621a3.81124,3.81124,0,0,1-3.74173.76535,9.079,9.079,0,0,1-4.13858-2.49449h0a9.07892,9.07892,0,0,1-2.49447-4.13858,3.8739,3.8739,0,0,1,.737-3.74173l15.874-15.874a3.82015,3.82015,0,0,1,3.71338-.737,10.00707,10.00707,0,0,1,6.66141,6.63308,3.87944,3.87944,0,0,1-.76535,3.74173Zm-3.45825-.4252a2.62021,2.62021,0,0,0,2.57953-.42519l15.874-15.84567a2.68975,2.68975,0,0,0,.42518-2.60788,7.90408,7.90408,0,0,0-2.15433-3.57166,8.16939,8.16939,0,0,0-3.6-2.18267,2.63642,2.63642,0,0,0-2.57953.45355l-15.874,15.84567a2.70652,2.70652,0,0,0-.4252,2.57953,7.91427,7.91427,0,0,0,2.18268,3.6h0a7.90424,7.90424,0,0,0,3.57165,2.15433Z"/>
    <path class="cls-17" d="M272.23936,64.00629c1.44565-1.44568,4.59211-.68032,7.02991,1.72912,2.40945,2.43781,3.1748,5.58426,1.72913,7.02994-1.474,1.474-4.62046.6803-7.02991-1.72914s-3.20316-5.55591-1.72913-7.02992Z"/>
    <path class="cls-7" d="M271.81416,63.58109a3.80418,3.80418,0,0,1,3.71338-.737,9.74725,9.74725,0,0,1,6.63306,6.63305,3.42633,3.42633,0,0,1-4.45038,4.47876,9.972,9.972,0,0,1-6.66141-6.66144,3.80942,3.80942,0,0,1,.76535-3.71337Zm3.4299.4252a2.69068,2.69068,0,0,0-2.57953.4252,2.63508,2.63508,0,0,0-.42517,2.57953,7.8379,7.8379,0,0,0,2.15433,3.6,7.98118,7.98118,0,0,0,3.6,2.15434,2.63507,2.63507,0,0,0,2.57949-.4252,2.6906,2.6906,0,0,0,.42521-2.57953,8.609,8.609,0,0,0-5.75434-5.75433Z"/>
    <polygon class="cls-9" points="278.362 113.443 306.709 85.096 278.362 56.778 250.044 85.096 278.362 113.443"/>
    <path class="cls-14" d="M285.3354,100.28975c1.44568,1.44566.652,4.59212-1.78583,7.02992s-5.58422,3.23151-7.0299,1.78583l-15.76062-15.789c-1.474-1.44568-.68033-4.59213,1.75747-7.02994s5.58426-3.23148,7.05826-1.78583Z"/>
    <path class="cls-9" d="M285.7606,99.86456a3.80407,3.80407,0,0,1,.737,3.71338,9.64813,9.64813,0,0,1-2.52282,4.16693,9.01546,9.01546,0,0,1-4.16694,2.49448,3.79949,3.79949,0,0,1-3.71337-.70865l-15.76062-15.789a3.73758,3.73758,0,0,1-.737-3.71339,9.41275,9.41275,0,0,1,2.49447-4.16694h0a9.30226,9.30226,0,0,1,4.16693-2.49449A3.80028,3.80028,0,0,1,270,84.07558Zm-.45352,3.4299a2.62029,2.62029,0,0,0-.39685-2.57952L269.14958,84.926a2.63464,2.63464,0,0,0-2.57953-.39685,8.13783,8.13783,0,0,0-3.62832,2.18268h0a8.32606,8.32606,0,0,0-2.18268,3.6,2.69058,2.69058,0,0,0,.4252,2.57953l15.76062,15.789a2.62023,2.62023,0,0,0,2.57953.39685,8.84261,8.84261,0,0,0,5.78268-5.78269Z"/>
    <path class="cls-13" d="M260.75905,93.31653c-1.44568-1.474-.652-4.62049,1.78582-7.05827s5.58423-3.2315,7.02991-1.7575c1.44568,1.44568.652,4.59214-1.78583,7.02994-2.40945,2.43779-5.58425,3.23149-7.0299,1.78583Z"/>
    <path class="cls-9" d="M260.33385,93.74173A3.80028,3.80028,0,0,1,259.62517,90a9.30252,9.30252,0,0,1,2.4945-4.16693,9.41314,9.41314,0,0,1,4.16693-2.49449A3.405,3.405,0,0,1,270.737,87.789a9.568,9.568,0,0,1-2.49447,4.16693,9.23508,9.23508,0,0,1-4.19529,2.49448,3.79947,3.79947,0,0,1-3.71337-.70865Zm.45355-3.42993a2.63445,2.63445,0,0,0,.39685,2.57953,2.69123,2.69123,0,0,0,2.5795.39685,7.9142,7.9142,0,0,0,3.6-2.18268,8.1409,8.1409,0,0,0,2.211-3.6,2.24335,2.24335,0,0,0-3.00473-3.00473,8.32677,8.32677,0,0,0-3.6,2.18268,8.13768,8.13768,0,0,0-2.18265,3.62836Z"/>
    <path class="cls-14" d="M302.88188,82.71494c1.44565,1.474.65195,4.62048-1.78583,7.05828-2.40945,2.43778-5.58426,3.23148-7.02994,1.75748L278.30549,75.77007c-1.44567-1.44567-.652-4.59212,1.78583-7.02993,2.40946-2.4378,5.58426-3.2315,7.02991-1.78582Z"/>
    <path class="cls-9" d="M303.30705,82.28975a3.80546,3.80546,0,0,1,.737,3.74173,9.56785,9.56785,0,0,1-2.49451,4.16693h0a9.49343,9.49343,0,0,1-4.19525,2.49449,3.7995,3.7995,0,0,1-3.71341-.70866l-15.76062-15.789a3.73769,3.73769,0,0,1-.737-3.71338,9.26354,9.26354,0,0,1,2.49448-4.16693,9.57122,9.57122,0,0,1,4.19528-2.52283,3.80423,3.80423,0,0,1,3.71338.737Zm-.85037.87874L286.696,67.37952a2.62017,2.62017,0,0,0-2.5795-.39685,7.91394,7.91394,0,0,0-3.6,2.18267,8.14079,8.14079,0,0,0-2.211,3.6,2.69069,2.69069,0,0,0,.42521,2.57953L294.49132,91.1055a2.69071,2.69071,0,0,0,2.57953.4252,8.16947,8.16947,0,0,0,3.6-2.18268h0a8.06816,8.06816,0,0,0,2.211-3.62835,2.63512,2.63512,0,0,0-.4252-2.55118Z"/>
    <path class="cls-18" d="M278.30549,75.74173c-1.44567-1.44568-.652-4.59213,1.78583-7.02994s5.58426-3.23149,7.02991-1.78583c1.474,1.474.68033,4.62049-1.75748,7.05828s-5.58426,3.23149-7.05826,1.75749Z"/>
    <path class="cls-9" d="M277.88029,76.16692a3.79952,3.79952,0,0,1-.70865-3.7134,9.30257,9.30257,0,0,1,2.49448-4.16693h0a9.30241,9.30241,0,0,1,4.16693-2.49448,3.39277,3.39277,0,0,1,4.45038,4.4504,9.56742,9.56742,0,0,1-2.49448,4.16691h0a9.5676,9.5676,0,0,1-4.16693,2.49451,3.80551,3.80551,0,0,1-3.74173-.737Zm.45356-3.42992a2.22483,2.22483,0,0,0,2.97637,3.00473,8.76946,8.76946,0,0,0,5.811-5.811,2.22482,2.22482,0,0,0-3.0047-2.97637,8.06026,8.06026,0,0,0-3.6,2.18267h0a8.06,8.06,0,0,0-2.18267,3.6Z"/>
    <path class="cls-14" d="M265.09605,88.611c-1.44568,1.474-4.59213.70866-7.00158-1.72914-2.43781-2.40944-3.20314-5.5559-1.75748-7.02991l15.874-15.874c1.474-1.44567,4.62046-.68032,7.02991,1.75747,2.40945,2.40946,3.20315,5.55591,1.72913,7.02994Z"/>
    <path class="cls-9" d="M265.54957,89.03621a3.81124,3.81124,0,0,1-3.74173.76535,9.079,9.079,0,0,1-4.13858-2.49449h0a9.07892,9.07892,0,0,1-2.49447-4.13858,3.8739,3.8739,0,0,1,.737-3.74173l15.874-15.874a3.82015,3.82015,0,0,1,3.71338-.737,10.00707,10.00707,0,0,1,6.66141,6.63308,3.87944,3.87944,0,0,1-.76535,3.74173Zm-3.45825-.4252a2.62021,2.62021,0,0,0,2.57953-.42519l15.874-15.84567a2.68975,2.68975,0,0,0,.42518-2.60788,7.90408,7.90408,0,0,0-2.15433-3.57166,8.16939,8.16939,0,0,0-3.6-2.18267,2.63642,2.63642,0,0,0-2.57953.45355l-15.874,15.84567a2.70652,2.70652,0,0,0-.4252,2.57953,7.91427,7.91427,0,0,0,2.18268,3.6h0a7.90424,7.90424,0,0,0,3.57165,2.15433Z"/>
    <path class="cls-12" d="M272.23936,64.00629c1.44565-1.44568,4.59211-.68032,7.02991,1.72912,2.40945,2.43781,3.1748,5.58426,1.72913,7.02994-1.474,1.474-4.62046.6803-7.02991-1.72914s-3.20316-5.55591-1.72913-7.02992Z"/>
    <path class="cls-9" d="M271.81416,63.58109a3.80418,3.80418,0,0,1,3.71338-.737,9.74725,9.74725,0,0,1,6.63306,6.63305,3.42633,3.42633,0,0,1-4.45038,4.47876,9.972,9.972,0,0,1-6.66141-6.66144,3.80942,3.80942,0,0,1,.76535-3.71337Zm3.4299.4252a2.69068,2.69068,0,0,0-2.57953.4252,2.63508,2.63508,0,0,0-.42517,2.57953,7.8379,7.8379,0,0,0,2.15433,3.6,7.98118,7.98118,0,0,0,3.6,2.15434,2.63507,2.63507,0,0,0,2.57949-.4252,2.6906,2.6906,0,0,0,.42521-2.57953,8.609,8.609,0,0,0-5.75434-5.75433Z"/>
    <path class="cls-2" d="M222.00943,113.159v.56693l1.5874,1.61575v-3.77008Zm3.20315-3.20314v6.97322L226.8,118.54486V108.34015Zm3.20316-3.20315v13.37951l1.61574,1.61576V105.137Zm3.20314-3.20316v19.78583l1.61575,1.61575V101.93384Zm3.20316-3.20315v26.19213l1.61573,1.61574V98.7307Zm3.20314-3.20314v32.62677l1.61575,1.5874V95.52754Zm3.20315-3.20316v39.03308l1.61575,1.5874V92.3244Zm3.20316-3.20314v45.43936l1.61573,1.5874V89.12125Zm3.20314-3.23151v51.874l1.61575,1.5874V85.91809Zm3.23149-1.5874v55.04883l1.5874-1.5874v-51.874Zm3.20315,3.20316v48.64251l1.58739-1.5874V90.737Zm3.20314,3.20315v42.23622l1.58741-1.5874V93.94014Zm3.20316,3.20314v35.82993l1.5874-1.5874V97.1433Zm3.20315,3.20316v29.42361l1.58741-1.61574V100.34644Zm3.20316,3.20314v23.01733l1.5874-1.61575V103.54959ZM270.085,105.137v16.611l1.61572-1.61576V106.75275Zm3.20312,3.20316v10.20471l1.61575-1.61574V109.9559Zm3.20316,3.23149v3.77008l1.61575-1.61575V113.159Z"/>
    <polygon class="cls-2" points="250.044 141.789 278.391 113.443 221.726 113.443 250.044 141.789"/>
    <path class="cls-3" d="M233.43306,73.44565c-7.56851-7.54016-18.96378-8.39054-25.45513-1.87085a19.32239,19.32239,0,0,1,27.326,27.326c6.51969-6.51968,5.6693-17.915-1.87086-25.45512Z"/>
    <path class="cls-9" d="M208.28975,72.19841a18.63087,18.63087,0,1,0,26.33386,0,18.68274,18.68274,0,0,0-26.33386,0Zm27.326,27.35432a20.05132,20.05132,0,1,1,5.8677-14.17321,19.92541,19.92541,0,0,1-5.8677,14.17321Z"/>
    <path class="cls-10" d="M320.88188,70.95117a20.0171,20.0171,0,0,1,0,28.31812L306.70863,85.096Z"/>
    <path class="cls-10" d="M325.89918,84.21732a2.98129,2.98129,0,0,0-3.03305-.05671,1.04943,1.04943,0,0,0-.28347-.737,1.09658,1.09658,0,0,0-1.50235,0,1.04414,1.04414,0,0,0,0,1.50235,1.08,1.08,0,0,0,.737.31182,2.9184,2.9184,0,0,0,.05671,3.03306,1.73241,1.73241,0,0,1-.34018.14174,1.12043,1.12043,0,0,1-.62363-.085.60254.60254,0,0,0-.53857.02835c-.11338.05668-.22678.14172-.34015.19842a.18973.18973,0,0,0,.02835.34015c1.474.56693,5.074,2.09764,5.074,2.09764l.90708.85039-.19843,1.53071,2.40946.45354,6.49133,7.65355-.14172,1.61574,2.041,4.30867-.45355,1.13386,1.10553,1.07715,9.97793-9.97793L346.22359,98.589l-1.07715.17007-4.42206-1.72912-1.55905.085-7.71024-6.463-.48187-2.40944-1.44568.05668-.8504-.87873-2.211-4.989a.17486.17486,0,0,0-.3118,0c-.0567.085-.1134.17007-.19842.3118a.52277.52277,0,0,0-.02836.53859,1.05839,1.05839,0,0,1,.08506.59527,1.59789,1.59789,0,0,1-.11341.34017Z"/>
    <path class="cls-19" d="M325.89918,84.21732a2.98129,2.98129,0,0,0-3.03305-.05671,1.04943,1.04943,0,0,0-.28347-.737,1.09658,1.09658,0,0,0-1.50235,0,1.04414,1.04414,0,0,0,0,1.50235,1.08,1.08,0,0,0,.737.31182,2.9184,2.9184,0,0,0,.05671,3.03306,1.73241,1.73241,0,0,1-.34018.14174,1.12043,1.12043,0,0,1-.62363-.085.60254.60254,0,0,0-.53857.02835c-.11338.05668-.22678.14172-.34015.19842a.18973.18973,0,0,0,.02835.34015c1.474.56693,5.074,2.09764,5.074,2.09764l.90708.85039-.19843,1.53071,2.40946.45354,6.49133,7.65355-.14172,1.61574,2.041,4.30867-.45355,1.13386,1.10553,1.07715,9.97793-9.97793L346.22359,98.589l-1.07715.17007-4.42206-1.72912-1.55905.085-7.71024-6.463-.48187-2.40944-1.44568.05668-.8504-.87873-2.211-4.989a.17486.17486,0,0,0-.3118,0c-.0567.085-.1134.17007-.19842.3118a.52277.52277,0,0,0-.02836.53859,1.05839,1.05839,0,0,1,.08506.59527,1.59789,1.59789,0,0,1-.11341.34017Zm-1.50235-1.474c.17008.02835.3118.02835.48188.0567a1.70992,1.70992,0,0,1,.1701-.53858l.02832-.0567.19843-.31181a1.25948,1.25948,0,0,1,.5386-.48189h0a1.195,1.195,0,0,1,.53858-.085,1.29011,1.29011,0,0,1,.56692.14174h0a1.35969,1.35969,0,0,1,.4819.56693h0l2.126,4.81889.4252.42519.96378-.02834a1.0134,1.0134,0,0,1,1.04883.7937l.39685,2.06929,7.14328,5.98111,1.19055-.0567a1.03289,1.03289,0,0,1,.39685.0567l4.16693,1.61574.7937-.11339a1.01539,1.01539,0,0,1,.90711.28348l1.04879,1.02046a1.02655,1.02655,0,0,1,0,1.44567l-10.00628,10.00631a1.02656,1.02656,0,0,1-1.44568,0l-1.07715-1.10553a.96194.96194,0,0,1-.22678-1.07715l.28345-.737-1.81415-3.85512a.90647.90647,0,0,1-.14175-.53859l.1134-1.21888-5.98111-7.08663-1.98425-.3685a1.01289,1.01289,0,0,1-.90707-1.10551l.14172-1.02048-.39685-.39685c-.737-.3118-3.62836-1.5307-4.87558-2.01259a1.16939,1.16939,0,0,1-.62363-.53859.95544.95544,0,0,1-.14175-.48189.87306.87306,0,0,1,.08505-.53859,1.14346,1.14346,0,0,1,.51022-.59527c.11341-.05669.22678-.14173.34018-.19843a1.34839,1.34839,0,0,1,.59528-.19842,3.12305,3.12305,0,0,1-.0567-.51023,3.95051,3.95051,0,0,1,.11337-.99212.34182.34182,0,0,1-.14172-.14174,1.99429,1.99429,0,0,1-.62363-1.474A1.92861,1.92861,0,0,1,320.2866,82.8l.085-.085a1.97806,1.97806,0,0,1,1.44567-.62362,2.13261,2.13261,0,0,1,1.389.53859l.085.085.14176.14175a5.5846,5.5846,0,0,1,.96377-.1134Z"/>
    <path class="cls-6" d="M349.05824,97.852c-.3118-.34016-1.07715-1.10552-1.07715-1.10552l.45352-1.13386-2.04092-4.337.11337-1.61575-8.50393-9.69449-2.40946-.42518.19843-1.53072-.90708-.87874-5.4992-2.26771,2.6929-2.66457L330.633,70.75275l-1.55905,1.559-1.41733-1.41733,1.55905-1.5307-1.24722-1.24725,1.41733-1.41733,1.24722,1.24725,1.53073-1.559,1.4173,1.41733-1.5307,1.559,1.41733,1.41733,2.60788-2.57953,2.3811,5.35748.85037.87872,1.44568-.05668.4819,2.40944,9.72281,8.4756,1.5874-.085,4.42206,1.72913,1.1055-.17008,1.04883,1.04883s-2.23935,2.23937-10.063,10.063Z"/>
    <path class="cls-19" d="M348.34959,98.56061l-1.5874-1.559.56693-1.36063L345.34486,91.474,345.45824,90l-7.99369-9.09921-3.00473-.53859.25513-1.98425-.39685-.3685L327.6,75.23148l1.474-1.474-2.863-2.863,1.55905-1.5307-1.24725-1.24725,2.863-2.863,1.24722,1.24722,1.53073-1.559,2.863,2.863,1.36062-1.389,2.91968,6.548.39685.42518,1.87088-.05668.59528,2.91967,9.15591,7.96537,1.389-.05671,4.36536,1.70079,1.36062-.19842,2.126,2.126L349.05824,99.29762Zm.70865-.70865-1.07715-1.10552.45352-1.13386-2.04092-4.337.11337-1.61575-8.50393-9.69449-2.40946-.42518.19843-1.53072-.90708-.87874-5.4992-2.26771,2.6929-2.66457L330.633,70.75275l-1.55905,1.559-1.41733-1.41733,1.55905-1.5307-1.24722-1.24725,1.41733-1.41733,1.24722,1.24725,1.53073-1.559,1.4173,1.41733-1.5307,1.559,1.41733,1.41733,2.60788-2.57953,2.3811,5.35748.85037.87872,1.44568-.05668.4819,2.40944,9.72281,8.4756,1.5874-.085,4.42206,1.72913,1.1055-.17008,1.04883,1.04883Z"/>
    <path class="cls-9" d="M335.02675,113.4425,363.37321,85.096l-28.34646-28.3181-14.0882-14.11653a19.94865,19.94865,0,0,0,0,28.20471L306.70863,85.096l14.17325,14.17325a20.05124,20.05124,0,0,0,0,28.34645l14.14487-14.17324Z"/>
    <path class="cls-3" d="M320.88188,70.95117a20.0171,20.0171,0,0,1,0,28.31812L306.70863,85.096Z"/>
    <path class="cls-3" d="M325.44566,83.73541a2.98152,2.98152,0,0,0-3.03308-.02835,1.02933,1.02933,0,0,0-.31183-.737,1.04229,1.04229,0,1,0-1.474,1.474.92751.92751,0,0,0,.737.3118,2.91686,2.91686,0,0,0,.02835,3.03308.62239.62239,0,0,1-.34015.14172.94221.94221,0,0,1-.62362-.085.48213.48213,0,0,0-.51026.05668,2.11667,2.11667,0,0,0-.34014.19843.16331.16331,0,0,0,.02835.31181c1.474.59528,5.04568,2.126,5.04568,2.126l.90707.85039-.17007,1.53072,2.3811.4252,6.49134,7.65353-.11341,1.64411,2.041,4.30865-.45355,1.13385,1.07717,1.07718,10.00629-10.00632-1.0488-1.02046-1.07718.14174-4.422-1.70081-1.58741.08506-7.71023-6.463-.4819-2.40944-1.41733.05669-.8504-.87874-2.211-4.989a.19948.19948,0,0,0-.34018-.02836c-.05667.11341-.11338.19843-.17008.31183a.57783.57783,0,0,0-.05667.56693.844.844,0,0,1,.11337.59527,1.01593,1.01593,0,0,1-.11337.3118Z"/>
    <path class="cls-20" d="M325.44566,83.73541a2.98152,2.98152,0,0,0-3.03308-.02835,1.02933,1.02933,0,0,0-.31183-.737,1.04229,1.04229,0,1,0-1.474,1.474.92751.92751,0,0,0,.737.3118,2.91686,2.91686,0,0,0,.02835,3.03308.62239.62239,0,0,1-.34015.14172.94221.94221,0,0,1-.62362-.085.48213.48213,0,0,0-.51026.05668,2.11667,2.11667,0,0,0-.34014.19843.16331.16331,0,0,0,.02835.31181c1.474.59528,5.04568,2.126,5.04568,2.126l.90707.85039-.17007,1.53072,2.3811.4252,6.49134,7.65353-.11341,1.64411,2.041,4.30865-.45355,1.13385,1.07717,1.07718,10.00629-10.00632-1.0488-1.02046-1.07718.14174-4.422-1.70081-1.58741.08506-7.71023-6.463-.4819-2.40944-1.41733.05669-.8504-.87874-2.211-4.989a.19948.19948,0,0,0-.34018-.02836c-.05667.11341-.11338.19843-.17008.31183a.57783.57783,0,0,0-.05667.56693.844.844,0,0,1,.11337.59527,1.01593,1.01593,0,0,1-.11337.3118Zm-1.50238-2.04094h.02835c.02835-.05668.02835-.11338.0567-.14174.02835-.05668.05668-.085.085-.14172l.17007-.28346a1.7215,1.7215,0,0,1,.822-.737h0a1.7418,1.7418,0,0,1,.822-.14172,1.626,1.626,0,0,1,.82206.22678h0a1.8042,1.8042,0,0,1,.737.85038h0l2.09765,4.70551.14173.14174h.70864a1.64641,1.64641,0,0,1,1.67246,1.30392l.3685,1.84253,6.77481,5.66928.93542-.02833a1.27379,1.27379,0,0,1,.652.11339l4.02518,1.5307.59528-.085a1.69732,1.69732,0,0,1,1.474.45354l1.04883,1.04882a1.64286,1.64286,0,0,1,0,2.29607l-10.00631,10.0063a1.6427,1.6427,0,0,1-2.29606,0l-1.10553-1.10551a1.59312,1.59312,0,0,1-.34014-1.75749l.17007-.45354-1.70077-3.6a1.8223,1.8223,0,0,1-.19843-.87876l.085-.99212-5.66928-6.68976-1.72913-.31181a1.62431,1.62431,0,0,1-1.41732-1.81417l.085-.737-.085-.085c-.87876-.3685-3.57166-1.474-4.76221-1.9559a1.86425,1.86425,0,0,1-.93542-.7937,1.972,1.972,0,0,1-.22678-.76535,1.79616,1.79616,0,0,1,.93542-1.72914,3.095,3.095,0,0,1,.31183-.17009h0a.56974.56974,0,0,1,.22675-.11338v-.0567a7.46936,7.46936,0,0,1,.0567-.7937,2.62,2.62,0,0,1-.70865-1.81418,2.75524,2.75524,0,0,1,.65195-1.75748l.14175-.14172a2.73318,2.73318,0,0,1,1.8992-.7937,2.63773,2.63773,0,0,1,1.75748.68031l.0567.02835a3.46254,3.46254,0,0,1,.76535-.02835Z"/>
    <path class="cls-8" d="M348.60469,97.39841c-.34015-.34015-1.07715-1.1055-1.07715-1.1055l.45355-1.13387-2.0693-4.337.14172-1.64409-8.50394-9.66615-2.40945-.45354.1701-1.53072-.9071-.85039-5.47086-2.26773,2.66456-2.66455-1.44565-1.44568-1.53073,1.55906-1.4173-1.41732,1.559-1.55906L327.51494,67.663l1.41732-1.41731,1.21891,1.21888,1.55905-1.53071,1.41733,1.41733-1.55905,1.5307,1.44564,1.44568,2.60788-2.60788,2.38111,5.38583.822.8504,1.44568-.02835.51022,2.40944,9.72284,8.4756,1.55905-.085,4.45038,1.72914,1.10553-.17009,1.0488,1.04883s-2.23935,2.23938-10.063,10.063Z"/>
    <path class="cls-20" d="M347.44249,98.53227l-1.07715-1.07716a1.61875,1.61875,0,0,1-.34018-1.84253l.17011-.39685-1.75751-3.685a1.74179,1.74179,0,0,1-.14173-.822h0l.05671-.96378-7.65354-8.73071-1.87088-.34015a1.63158,1.63158,0,0,1-1.30392-1.81418h0l.085-.70866-.11337-.085-5.18741-2.15433a1.628,1.628,0,0,1-.87876-2.126,2.15681,2.15681,0,0,1,.34018-.53859h0a1.2582,1.2582,0,0,1-.31182-.22676l-.085-.11339-1.3323-1.30394a1.67785,1.67785,0,0,1,0-2.32441h0l.39685-.39685-.085-.085a1.64281,1.64281,0,0,1,0-2.29608l.085-.085,1.3323-1.33229a1.64281,1.64281,0,0,1,2.296,0h.02836l.0567.085.39685-.39685a1.62565,1.62565,0,0,1,2.3244,0l1.41733,1.41732a3.014,3.014,0,0,1,.25509.3118,1.59376,1.59376,0,0,1,2.211.08506,1.24107,1.24107,0,0,1,.39685.62362l2.211,4.96063.14173.14173.70868-.02835a1.61113,1.61113,0,0,1,1.67242,1.389l.3685,1.78583,8.81577,7.68189.93542-.02835a1.49615,1.49615,0,0,1,.70868.1134l3.9685,1.559.6803-.11339a1.61409,1.61409,0,0,1,1.389.45354l1.07718,1.04883a1.67786,1.67786,0,0,1,0,2.3244l-10.063,10.03465a1.62566,1.62566,0,0,1-2.3244,0Zm1.1622-1.13386-1.07715-1.1055.45355-1.13387-2.0693-4.337.14172-1.64409-8.50394-9.66615-2.40945-.45354.1701-1.53072-.9071-.85039-5.47086-2.26773,2.66456-2.66455-1.44565-1.44568-1.53073,1.55906-1.4173-1.41732,1.559-1.55906L327.51494,67.663l1.41732-1.41731,1.21891,1.21888,1.55905-1.53071,1.41733,1.41733-1.55905,1.5307,1.44564,1.44568,2.60788-2.60788,2.38111,5.38583.822.8504,1.44568-.02835.51022,2.40944,9.72284,8.4756,1.55905-.085,4.45038,1.72914,1.10553-.17009,1.0488,1.04883Z"/>
    <polygon class="cls-9" points="250.044 198.454 278.391 170.107 250.044 141.789 221.726 170.107 250.044 198.454"/>
    <path class="cls-13" d="M257.13069,148.87558a10.0063,10.0063,0,1,1-14.17323,0,9.99146,9.99146,0,0,1,14.17323,0Z"/>
    <path class="cls-21" d="M242.95746,163.02046a10.02568,10.02568,0,1,1-7.05826-2.91969,9.9746,9.9746,0,0,1,7.05826,2.91969Z"/>
    <path class="cls-12" d="M257.13069,177.19368a10.00632,10.00632,0,1,1-14.17323,0,10.26832,10.26832,0,0,1,7.08662-2.948,10.04387,10.04387,0,0,1,7.08661,2.948Z"/>
    <path class="cls-18" d="M271.30391,163.02046a10.00631,10.00631,0,1,1-14.17322,0,10.0256,10.0256,0,0,1,14.17322,0Z"/>
    <polygon class="cls-4" points="193.38 141.789 221.726 113.443 193.38 85.124 165.061 113.443 193.38 141.789"/>
    <path class="cls-22" d="M184.87558,110.60785a3.99879,3.99879,0,1,1-5.641,5.66931,3.91984,3.91984,0,0,1-1.19055-2.83466,4.01106,4.01106,0,0,1,6.8315-2.83465Z"/>
    <path class="cls-22" d="M196.21416,99.26929a4.00879,4.00879,0,1,1-5.66929,0,4.111,4.111,0,0,1,2.83465-1.16222,4.0097,4.0097,0,0,1,2.83464,1.16222Z"/>
    <path class="cls-22" d="M196.21416,121.94644a3.99689,3.99689,0,0,1-2.83464,6.8315,3.96837,3.96837,0,0,1-3.99686-3.99684,3.99689,3.99689,0,0,1,6.8315-2.83466Z"/>
    <path class="cls-22" d="M207.55275,110.60785a3.98844,3.98844,0,0,1,1.1622,2.83465,3.894,3.894,0,0,1-1.1622,2.83466,4.0088,4.0088,0,1,1-5.6693-5.66931,4.111,4.111,0,0,1,2.83464-1.1622,4.00983,4.00983,0,0,1,2.83466,1.1622Z"/>
    <path class="cls-3" d="M306.70863,141.76062l14.17325-14.14488a20.05124,20.05124,0,0,1,0-28.34645l14.14487,14.17321L306.70863,85.096,278.3622,113.4425Z"/>
    <path class="cls-3" d="M266.6551,153.5244c-7.56851-7.56851-8.41891-18.93544-1.92755-25.42677a19.32238,19.32238,0,1,0,27.326,27.326c-6.49133,6.49134-17.85824,5.641-25.39841-1.89921Z"/>
    <path class="cls-2" d="M290.15431,129.99684c7.54016,7.5685,8.39056,18.93543,1.8992,25.42677s-17.85824,5.641-25.39841-1.89921c-7.56851-7.56851-8.41891-18.93544-1.92755-25.42677s17.85825-5.641,25.42676,1.89921Z"/>
    <polygon class="cls-23" points="272.636 135.978 272.041 135.383 270.198 146.948 280.63 152.249 282.416 150.463 271.984 145.162 272.636 135.978"/>
    <path class="cls-9" d="M265.20943,128.60786a18.62085,18.62085,0,1,0,26.33386,0,18.64844,18.64844,0,0,0-26.33386,0Zm27.35433,27.326a20.01706,20.01706,0,1,1,5.86771-14.14488,19.87325,19.87325,0,0,1-5.86771,14.14488Z"/>
    <rect class="cls-9" x="267.69687" y="126.58054" width="1.40308" height="10.26251" transform="translate(-14.52223 228.36383) rotate(-45)"/>
    <polygon class="cls-9" points="270.539 147.543 261.893 151.965 261.241 150.718 269.915 146.296 270.539 147.543"/>
    <polygon class="cls-9" points="282.671 160.696 281.282 160.923 279.921 152.334 281.31 152.107 282.671 160.696"/>
    <polygon class="cls-9" points="284.117 133.965 282.869 133.313 287.291 124.668 288.539 125.32 284.117 133.965"/>
    <polygon class="cls-9" points="297.269 146.069 288.709 144.709 288.907 143.348 297.496 144.68 297.269 146.069"/>
    <path class="cls-9" d="M280.34645,151.39841l7.54013-7.54015-4.84723-9.52441-10.54489,1.67244L270.822,146.55116Zm8.90079-6.91654-8.27719,8.27718a.68614.68614,0,0,1-.79371.11337l-10.43148-5.30078a.66642.66642,0,0,1-.3685-.737l1.81417-11.537a.72242.72242,0,0,1,.59528-.59527l11.537-1.84252a.72417.72417,0,0,1,.737.39685l5.32913,10.40316a.69213.69213,0,0,1-.14172.822Z"/>
    <path class="cls-5" d="M346.76219,130.05353c-7.56851-7.54016-18.93546-8.4189-25.39844-1.9559A19.34243,19.34243,0,1,1,348.71809,155.452c6.463-6.49133,5.58426-17.85826-1.9559-25.39842Z"/>
    <path class="cls-24" d="M323.31965,153.49605c7.54017,7.54016,18.90711,8.4189,25.39844,1.9559,6.463-6.49133,5.58426-17.85826-1.9559-25.39842-7.56851-7.54016-18.93546-8.4189-25.39844-1.9559s-5.58426,17.82992,1.9559,25.39842Z"/>
    <path class="cls-25" d="M321.874,128.60786a18.62084,18.62084,0,1,1,0,26.33385,18.597,18.597,0,0,1,0-26.33385ZM349.2,155.93384a20.017,20.017,0,1,0-14.14486,5.86772A19.82488,19.82488,0,0,0,349.2,155.93384Z"/>
    <path class="cls-25" d="M354.33067,146.6362l-.90707-1.07716a9.60914,9.60914,0,0,1-7.59687,2.69291c-5.0173-.59527-9.01416-5.35748-9.97793-6.60472a17.7755,17.7755,0,0,0-.28348-14.05984,16.59031,16.59031,0,0,0-3.82675-5.3008l-.9071,1.04883a16.42852,16.42852,0,0,1,3.48663,4.90393,16.24964,16.24964,0,0,1,.05667,13.26614.72856.72856,0,0,0,.085.68032c.19843.25512,4.84723,6.68977,11.19684,7.45512a10.92041,10.92041,0,0,0,8.674-3.00473Z"/>
    <path class="cls-25" d="M334.97005,142.24251l-.28345-1.36063a30.91293,30.91293,0,0,0-7.56851,2.778c-5.10236,2.66456-7.82361,6.20787-7.90866,10.3181l1.389.02835c.085-3.6,2.49448-6.66143,7.14331-9.09922a31.88879,31.88879,0,0,1,7.22834-2.66456Z"/>
    <path class="cls-1" d="M343.30391,159.95905l-.085-1.389c-4.45041.31181-8.78742-1.70079-12.84095-5.98111a31.38488,31.38488,0,0,1-4.84726-6.71811l-1.24725.62363a33.27334,33.27334,0,0,0,5.04569,7.02992,23.56655,23.56655,0,0,0,5.9811,4.67715,14.77208,14.77208,0,0,0,7.99369,1.7575Z"/>
    <path class="cls-1" d="M335.99052,131.21573l-.22677-1.389a39.1084,39.1084,0,0,0-8.64566,2.63623,27.98339,27.98339,0,0,0-6.88819,4.16693,16.94771,16.94771,0,0,0-5.074,6.85984L316.45982,144c2.041-5.32913,7.22833-8.50393,11.22519-10.23306a37.0488,37.0488,0,0,1,8.30551-2.55119Z"/>
    <path class="cls-25" d="M344.49446,148.90392a22.67049,22.67049,0,0,0,2.77795-8.05039,22.20023,22.20023,0,0,0-.25512-8.22047,23.20338,23.20338,0,0,0-4.59211-9.38268l-1.10553.87874a20.58811,20.58811,0,0,1,4.56379,16.46928,21.7709,21.7709,0,0,1-2.57953,7.56852Z"/>
    <polygon class="cls-2" points="335.027 170.107 363.373 141.761 335.027 113.443 306.709 141.761 335.027 170.107"/>
    <path class="cls-13" d="M349.2,127.61574a20.05124,20.05124,0,1,1-14.17321-5.86772A20.11028,20.11028,0,0,1,349.2,127.61574Z"/>
    <path class="cls-2" d="M346.76219,130.05353c-7.56851-7.54016-18.93546-8.4189-25.39844-1.9559A19.34243,19.34243,0,1,1,348.71809,155.452c6.463-6.49133,5.58426-17.85826-1.9559-25.39842Z"/>
    <path class="cls-4" d="M323.31965,153.49605c7.54017,7.54016,18.90711,8.4189,25.39844,1.9559,6.463-6.49133,5.58426-17.85826-1.9559-25.39842-7.56851-7.54016-18.93546-8.4189-25.39844-1.9559s-5.58426,17.82992,1.9559,25.39842Z"/>
    <path class="cls-1" d="M321.874,128.60786a18.62084,18.62084,0,1,1,0,26.33385,18.597,18.597,0,0,1,0-26.33385ZM349.2,155.93384a20.017,20.017,0,1,0-14.14486,5.86772A19.82488,19.82488,0,0,0,349.2,155.93384Z"/>
    <path class="cls-25" d="M354.33067,146.6362l-.90707-1.07716a9.60914,9.60914,0,0,1-7.59687,2.69291c-5.0173-.59527-9.01416-5.35748-9.97793-6.60472a17.7755,17.7755,0,0,0-.28348-14.05984,16.59031,16.59031,0,0,0-3.82675-5.3008l-.9071,1.04883a16.42852,16.42852,0,0,1,3.48663,4.90393,16.24964,16.24964,0,0,1,.05667,13.26614.72856.72856,0,0,0,.085.68032c.19843.25512,4.84723,6.68977,11.19684,7.45512a10.92041,10.92041,0,0,0,8.674-3.00473Z"/>
    <path class="cls-25" d="M334.97005,142.24251l-.28345-1.36063a30.91293,30.91293,0,0,0-7.56851,2.778c-5.10236,2.66456-7.82361,6.20787-7.90866,10.3181l1.389.02835c.085-3.6,2.49448-6.66143,7.14331-9.09922a31.88879,31.88879,0,0,1,7.22834-2.66456Z"/>
    <path class="cls-1" d="M343.30391,159.95905l-.085-1.389c-4.45041.31181-8.78742-1.70079-12.84095-5.98111a31.38488,31.38488,0,0,1-4.84726-6.71811l-1.24725.62363a33.27334,33.27334,0,0,0,5.04569,7.02992,23.56655,23.56655,0,0,0,5.9811,4.67715,14.77208,14.77208,0,0,0,7.99369,1.7575Z"/>
    <path class="cls-1" d="M335.99052,131.21573l-.22677-1.389a39.1084,39.1084,0,0,0-8.64566,2.63623,27.98339,27.98339,0,0,0-6.88819,4.16693,16.94771,16.94771,0,0,0-5.074,6.85984L316.45982,144c2.041-5.32913,7.22833-8.50393,11.22519-10.23306a37.0488,37.0488,0,0,1,8.30551-2.55119Z"/>
    <path class="cls-1" d="M344.49446,148.90392a22.67049,22.67049,0,0,0,2.77795-8.05039,22.20023,22.20023,0,0,0-.25512-8.22047,23.20338,23.20338,0,0,0-4.59211-9.38268l-1.10553.87874a20.58811,20.58811,0,0,1,4.56379,16.46928,21.7709,21.7709,0,0,1-2.57953,7.56852Z"/>
    <polygon class="cls-9" points="363.373 141.761 391.691 113.443 363.373 85.096 335.027 113.443 363.373 141.761"/>
    <path class="cls-4" d="M349.2,99.26929a20.05134,20.05134,0,0,0,28.34647,0L363.37321,85.096Z"/>
    <path class="cls-3" d="M349.2,99.26929a20.05122,20.05122,0,0,1,0,28.34645L335.02675,113.4425Z"/>
    <path class="cls-2" d="M377.54643,127.61574a20.05129,20.05129,0,0,1,0-28.34645L391.6913,113.4425Z"/>
    <path class="cls-8" d="M377.54643,127.61574a20.05129,20.05129,0,0,0-28.34647,0l14.17325,14.14488Z"/>
    <path class="cls-1" d="M363.08974,85.37952h.56692l1.61575,1.61575H361.474Zm-3.20316,3.20315h6.97324l1.61575,1.61574H358.27083Zm-3.20313,3.20314H370.063l1.61575,1.61574h-16.611ZM353.4803,95.0173h19.78583l1.61572,1.58741h-23.0173Zm-3.20316,3.20316h26.19211l1.61576,1.5874H348.66139Zm-3.20315,3.20315h32.59842l1.61575,1.58741H345.45824Zm-3.23151,3.20314h39.03308l1.61576,1.58741H342.25508Zm-3.20312,3.20316h45.46771l1.5874,1.5874H339.05195Zm-3.20316,3.20314h51.874l1.58741,1.5874H335.8488Zm-1.5874,3.20316h55.0488l-1.58741,1.61575h-51.874Zm3.20315,3.20315h48.64252l-1.5874,1.61575H340.63936Zm3.20313,3.20314h42.23624l-1.61576,1.61576H343.84248Zm3.20316,3.20316h35.82992l-1.61575,1.61574H347.04564Zm3.20315,3.20314H378.085l-1.61576,1.61575H350.27714Zm3.20316,3.20315h23.0173l-1.61572,1.61576H353.4803Zm3.20315,3.20316h16.611l-1.61575,1.61574H356.68345Zm3.20313,3.23149h10.20474l-1.61575,1.5874h-6.97324Zm3.20315,3.20316h3.79843l-1.61575,1.5874h-.56692Z"/>
    <path class="cls-10" d="M221.4425,113.726h.56693l1.5874,1.61575h-3.77008Zm-3.20315,3.20315h6.97323L226.8,118.54486H216.62361Zm-3.20314,3.20314h13.37953l1.61574,1.61576h-16.611Zm-3.23149,3.20316h19.81416l1.61575,1.61575H210.21731Zm-3.20316,3.20315H234.822l1.61573,1.61574H207.01416Zm-3.20315,3.2315h32.62677l1.61575,1.5874H203.811Zm-3.20314,3.20315h39.03306l1.61575,1.5874H200.60786Zm-3.20316,3.20314h45.43938l1.61573,1.5874H197.40471Zm-3.20314,3.20316h51.84566l1.61575,1.5874H194.20157Zm-1.5874,3.20314h55.04881l-1.61575,1.5874H195.789Zm3.20314,3.20315h48.64251l-1.61573,1.5874-45.43938.02836Zm3.20315,3.20316h42.23622l-1.61575,1.61574H202.19527Zm3.20314,3.20314h35.82993l-1.61575,1.61575H205.39841Zm3.20316,3.20315h29.42361L234.822,157.011H208.60156Zm3.20315,3.20314h23.01732l-1.61575,1.61576H211.83305Zm3.20314,3.20316h16.611l-1.61574,1.61575H215.03621Zm3.20316,3.20315H226.8l-1.58741,1.61574h-6.97323Zm3.20314,3.2315h3.77008l-1.5874,1.5874h-.56693Z"/>
    <path class="cls-3" d="M221.4425,113.726h.56693l1.5874,1.61575h-3.77008Zm-3.20315,3.20315h6.97323L226.8,118.54486H216.62361Zm-3.20314,3.20314h13.37953l1.61574,1.61576h-16.611Zm-3.23149,3.20316h19.81416l1.61575,1.61575H210.21731Zm-3.20316,3.20315H234.822l1.61573,1.61574H207.01416Zm-3.20315,3.2315h32.62677l1.61575,1.5874H203.811Zm-3.20314,3.20315h39.03306l1.61575,1.5874H200.60786Zm-3.20316,3.20314h45.43938l1.61573,1.5874H197.40471Zm-3.20314,3.20316h51.84566l1.61575,1.5874H194.20157Zm-1.5874,3.20314h55.04881l-1.61575,1.5874H195.789Zm3.20314,3.20315h48.64251l-1.61573,1.5874-45.43938.02836Zm3.20315,3.20316h42.23622l-1.61575,1.61574H202.19527Zm3.20314,3.20314h35.82993l-1.61575,1.61575H205.39841Zm3.20316,3.20315h29.42361L234.822,157.011H208.60156Zm3.20315,3.20314h23.01732l-1.61575,1.61576H211.83305Zm3.20314,3.20316h16.611l-1.61574,1.61575H215.03621Zm3.20316,3.20315H226.8l-1.58741,1.61574h-6.97323Zm3.20314,3.2315h3.77008l-1.5874,1.5874h-.56693Z"/>
    <polygon class="cls-3" points="250.328 141.789 222.009 170.107 222.009 113.443 250.328 141.789"/>
    <path class="cls-9" d="M232.526,125.4614a.56152.56152,0,0,0-.31181.31182l-1.72913,6.49134-1.53072-1.53072a3.57572,3.57572,0,0,0-5.04567,0l-3.1181,3.11812a5.94979,5.94979,0,1,0-9.72284,1.98425,6.03547,6.03547,0,0,0,6.463,1.30393l-4.22363,4.22363a4.34964,4.34964,0,1,0-2.778,2.778l-2.29605,2.26772a3.61012,3.61012,0,0,0,0,5.074l.14172.11339-1.81416,1.81418a.44487.44487,0,0,0,0,.62363l7.45511,7.45511a.40108.40108,0,0,0,.62363,0l1.81418-1.81417.14172.14173a3.57574,3.57574,0,0,0,5.04567,0l15.67558-15.67559a3.57572,3.57572,0,0,0,0-5.04567l-1.5307-1.53071,6.49133-1.72913a.43432.43432,0,0,0,.31182-.31181.454.454,0,0,0-.11339-.4252l-9.5244-9.5244a.454.454,0,0,0-.4252-.1134Z"/>
    <path class="cls-1" d="M231.874,125.12125h0a1.204,1.204,0,0,1,.48188-.28347h.02834a.87423.87423,0,0,1,.53859,0,1.13386,1.13386,0,0,1,.51024.28347l9.49606,9.49606h0a1.13388,1.13388,0,0,1,.28346.51024.96489.96489,0,0,1,0,.56692,1.00724,1.00724,0,0,1-.11338.25511h0a1.00219,1.00219,0,0,1-.39685.39686,1.006,1.006,0,0,1-.25512.11338l-5.38583,1.44568.70866.70867v.02833a4.175,4.175,0,0,1,0,5.95276h0l-15.67559,15.70393a4.18115,4.18115,0,0,1-2.97637,1.21891,4.24329,4.24329,0,0,1-2.66456-.93544l-1.36065,1.389h0a1.205,1.205,0,0,1-.76535.31182,1.21822,1.21822,0,0,1-.7937-.31182l-7.45512-7.4551a1.2182,1.2182,0,0,1-.3118-.79371,1.205,1.205,0,0,1,.3118-.76535l1.389-1.36064a4.25231,4.25231,0,0,1,.28347-5.64094l.99213-.96378a3.63258,3.63258,0,0,1-.76537-.14174,5.21156,5.21156,0,0,1-2.3811-1.30392,5.00322,5.00322,0,0,1,3.54332-8.56064h.45354a6.51334,6.51334,0,0,1-.93544-3.37323h0a6.61374,6.61374,0,0,1,13.09607-1.30393,6.967,6.967,0,0,1,.11338,1.53071l1.58741-1.55906h0a4.211,4.211,0,0,1,2.97638-1.24725h0a4.27585,4.27585,0,0,1,3.00471,1.24725h0l.70867.70867,1.44566-5.38584a1.20411,1.20411,0,0,1,.28348-.48188Zm.87874,1.19055-1.92757,7.2-2.3244-2.32441h0a2.89371,2.89371,0,0,0-2.06929-.8504h0a2.99142,2.99142,0,0,0-2.06929.8504h.02833L208.6866,146.89133a2.90838,2.90838,0,0,0,0,4.11023l.59527.59527-2.126,2.126,7.17164,7.17165,2.126-2.126.59527.59528h0a2.90838,2.90838,0,0,0,4.11023,0l15.70393-15.6756h0a2.94184,2.94184,0,0,0,.85039-2.06929,2.89373,2.89373,0,0,0-.85039-2.06929h0l-2.3244-2.3244,7.2-1.92757Zm-13.40789,9.38267.85041-2.06929a5.40388,5.40388,0,0,0,.28346-3.06141,5.24439,5.24439,0,0,0-1.44568-2.69292,5.29961,5.29961,0,0,0-3.77007-1.559,5.2357,5.2357,0,0,0-3.74174,1.559,5.30559,5.30559,0,0,0-1.55905,3.74173h0a5.30554,5.30554,0,0,0,1.55905,3.74173A5.24443,5.24443,0,0,0,214.21416,136.8a5.14919,5.14919,0,0,0,3.06141-.28346Zm-5.38582,2.38111-.17009-.02835a7.81243,7.81243,0,0,1,.22678.76536,3.6328,3.6328,0,0,1,.14174.76535l1.36063-1.36062a5.71174,5.71174,0,0,1-1.55906-.14174Zm-1.87086,4.84724.59527-1.75748a4.15613,4.15613,0,0,0,.085-2.04095,3.77829,3.77829,0,0,0-.99212-1.75748h0a3.70816,3.70816,0,0,0-5.2441,5.2441,3.77821,3.77821,0,0,0,1.75748.99212,4.02979,4.02979,0,0,0,2.0126-.085Z"/>
    <path class="cls-3" d="M278.674,169.82361v.56692l1.61576,1.61576v-3.77008Zm3.20316-3.20316V173.622l1.61575,1.5874V165.03305Zm3.20316-3.20314v13.40787l1.61572,1.5874V161.82991Zm3.20312-3.20315v19.81418l1.61575,1.5874v-22.989Zm3.20316-3.20314v26.22046l1.61575,1.5874V155.42361Zm3.20315-3.20316v32.62677l1.61575,1.5874V152.19211Zm3.23151-3.20315v39.03308l1.5874,1.5874V148.989Zm3.20315-3.20314v45.43936l1.58738,1.61575V145.78581Zm3.20313-3.20316v51.84567l1.5874,1.61574V142.58266Zm3.20315-1.61575v55.07716l1.58741-1.61574V144.19841Zm3.20316,3.20315v48.67087l1.5874-1.61575V147.40157ZM313.937,148.989v42.26455l1.58741-1.61573V150.60471Zm3.20316,3.20314V188.022l1.61572-1.5874V153.80786Zm3.20313,3.2315v29.39527l1.61575-1.5874V157.011Zm3.20315,3.20314v22.989l1.61575-1.5874V160.21416Zm3.20316,3.20316v16.58267l1.61575-1.5874V163.41731Zm3.20315,3.20314v10.17639l1.61576-1.5874v-7.00159Zm3.20316,3.20316v3.77008l1.61572-1.61576v-.56692Z"/>
    <polygon class="cls-3" points="306.709 198.454 335.055 170.107 278.391 170.107 306.709 198.454"/>
    <polygon class="cls-4" points="278.391 226.772 306.709 198.454 278.391 170.107 250.044 198.454 278.391 226.772"/>
    <path class="cls-12" d="M292.56376,184.2803a20.034,20.034,0,0,1-28.34646,28.3181,20.034,20.034,0,0,1,28.34646-28.3181Z"/>
    <path class="cls-10" d="M313.05824,0h13.663a70.64844,70.64844,0,0,1,.93542,13.40787,73.2469,73.2469,0,0,1-6.88818,29.1118l-9.97794-9.97795a59.20843,59.20843,0,0,0,3.6-18.7937A57.29277,57.29277,0,0,0,313.05824,0ZM335.537,0h13.52127a92.69639,92.69639,0,0,1,.68033,13.748,95.519,95.519,0,0,1-12.69922,45.01417l-9.60947-9.5811a81.52238,81.52238,0,0,0,9.01419-35.09291A77.93978,77.93978,0,0,0,335.537,0Zm22.79056,0H371.7354c.31182,4.05353.4252,8.13542.34018,12.21732a117.48025,117.48025,0,0,1-19.67246,61.937l-9.38266-9.38269a103.74075,103.74075,0,0,0,15.76062-52.24253A97.26469,97.26469,0,0,0,358.32753,0Z"/>
    <path class="cls-10" d="M394.35588,32.2299,352.40312,74.15433l-1.67242-1.67246,41.95272-41.92441ZM342.70863,0h3.34488L312.15117,33.90234l-1.67246-1.67244Zm6.68976,0h3.37323L315.49605,37.24722l-1.67246-1.67242Zm6.71811,0h3.34488l-40.5921,40.62045L317.16847,38.948Zm34.86615,28.85667L349.05824,70.80943,347.38582,69.137l41.92437-41.95276Zm-3.34488-3.34487L345.71336,67.46455l-1.70077-1.67244,41.95273-41.95275Zm-3.34488-3.34488-41.95276,41.9244-1.67242-1.67244,41.95273-41.9244Zm-3.37323-3.37323L338.99525,60.74644,337.3228,59.074l41.92441-41.95276Zm-3.34488-3.34488L335.622,57.40157l-1.67245-1.70079,41.95276-41.92441Zm-3.34488-3.34488L332.27714,54.02834l-1.67245-1.67244,41.95276-41.92441ZM370.85667,8.7307,328.93226,50.68346,327.25981,49.011,369.18422,7.05826Zm-3.34488-3.34488L325.559,47.31023l-1.67245-1.67244L365.83934,3.71338Zm-3.34488-3.3449L322.21416,43.96533l-1.67246-1.67242L362.46611.34015Z"/>
    <path class="cls-24" d="M351.35429,210.07558a109.86261,109.86261,0,0,0-13.663-.45354,116.79417,116.79417,0,0,0-57.91184,17.1496h31.97483a102.81709,102.81709,0,0,1,25.59683-3.94016A101.1536,101.1536,0,0,1,354.926,223.937ZM408.189,163.44565v49.35118a68.80778,68.80778,0,0,1-4.42206-26.22046,72.71585,72.71585,0,0,1,4.42206-23.13072Zm-2.57953,63.326H365.64091A78.17655,78.17655,0,0,1,361.559,211.663c8.07874,1.1622,16.95118,4.50708,25.88031,8.4189a89.3155,89.3155,0,0,1-5.66928-33.84567,94.83394,94.83394,0,0,1,12.67087-44.8441l9.52439,9.55276a81.14557,81.14557,0,0,0-8.95746,34.95117,75.15819,75.15819,0,0,0,10.60156,40.8756ZM360,201.4299a115.641,115.641,0,0,1-.4819-13.663,117.12019,117.12019,0,0,1,19.5874-61.71025l9.35434,9.35434a103.24951,103.24951,0,0,0-15.70395,52.0441,100.83033,100.83033,0,0,0,1.10553,17.54645Z"/>
    <path class="cls-24" d="M278.39052,226.77164l39.34488-39.37323,1.67245,1.67244-37.67242,37.70079Zm76.84726,0h-3.31653l2.57953-2.60787,1.67242,1.67244Zm-6.66141,0h-3.34491l5.92441-5.92441,1.67245,1.67244Zm-6.68979,0H338.5417l9.29764-9.26929,1.6441,1.67244Zm-6.68976,0h-3.34488l12.64252-12.61417,1.67245,1.67244Zm-6.68976,0h-3.34488l15.9874-15.959L342.822,212.485Zm-6.68976,0h-3.31652L337.8047,207.4677l1.67246,1.67244Zm-6.6614,0H311.811l22.64883-22.64882,1.67243,1.67244Zm-6.68979,0h-3.34488l25.99371-25.9937,1.67243,1.67244Zm-6.68976,0h-3.34488l29.33859-29.33858,1.67243,1.67244Zm-6.68976,0h-3.34488l32.68347-32.68346,1.67243,1.67244Zm-6.68976,0h-3.31652l36-36.02835,1.67242,1.67245Z"/>
    <path class="cls-26" d="M408.189,103.18109a119.48259,119.48259,0,0,1-44.81574-18.085L372.86928,75.6A105.76722,105.76722,0,0,0,408.189,89.60313Zm0-59.32913V57.65668a73.15363,73.15363,0,0,1-12.75589-4.62047l10.09131-10.09134c.87875.31181,1.78582.62361,2.66458.90709Zm0,23.074V80.53227a96.87281,96.87281,0,0,1-29.22519-10.99843l9.69449-9.72284a82.92389,82.92389,0,0,0,19.5307,7.115Z"/>
    <rect class="cls-10" x="221.72597" y="56.77794" width="113.30078" height="113.30078"/>
    <path class="cls-5" d="M231.25038,113.4425c0-30.21731,21.08977-54.68031,47.14014-54.68031a54.66614,54.66614,0,1,0,0,109.33228c-26.05037,0-47.14014-24.463-47.14014-54.652Z"/>
    <path class="cls-6" d="M325.50233,113.4425c0,30.189-21.08975,54.652-47.11181,54.652-26.05037,0-47.14014-24.463-47.14014-54.652,0-30.21731,21.08977-54.68031,47.14014-54.68031,26.02206,0,47.11181,24.463,47.11181,54.68031Z"/>
    <path class="cls-7" d="M278.39052,60.74644a52.6819,52.6819,0,1,0,52.66772,52.69606,52.75779,52.75779,0,0,0-52.66772-52.69606Zm0,109.33228a56.61681,56.61681,0,1,1,40.05355-16.58267,56.39764,56.39764,0,0,1-40.05355,16.58267Z"/>
    <path class="cls-1" d="M302.99525,113.4425a24.60474,24.60474,0,1,1-24.60473-24.63307,24.61864,24.61864,0,0,1,24.60473,24.63307Z"/>
    <path class="cls-7" d="M278.39052,90.79369A22.63464,22.63464,0,1,0,301.011,113.4425a22.6528,22.6528,0,0,0-22.62048-22.64881Zm0,49.23779a26.60315,26.60315,0,1,1,26.589-26.589,26.65119,26.65119,0,0,1-26.589,26.589Z"/>
    <path class="cls-1" d="M231.25038,113.4425c0-30.21731,21.08977-54.68031,47.14014-54.68031a54.66614,54.66614,0,1,0,0,109.33228c-26.05037,0-47.14014-24.463-47.14014-54.652Z"/>
    <path class="cls-27" d="M325.50233,113.4425c0,30.189-21.08975,54.652-47.11181,54.652-26.05037,0-47.14014-24.463-47.14014-54.652,0-30.21731,21.08977-54.68031,47.14014-54.68031,26.02206,0,47.11181,24.463,47.11181,54.68031Z"/>
    <path class="cls-1" d="M302.99525,113.4425a24.60474,24.60474,0,1,1-24.60473-24.63307,24.61864,24.61864,0,0,1,24.60473,24.63307Z"/>
    <path class="cls-28" d="M278.39052,90.79369A22.63464,22.63464,0,1,0,301.011,113.4425a22.6528,22.6528,0,0,0-22.62048-22.64881Zm0,49.23779a26.60315,26.60315,0,1,1,26.589-26.589,26.65119,26.65119,0,0,1-26.589,26.589Z"/>
    <path class="cls-10" d="M324.99211,113.4425c0-30.21731-21.08978-54.68031-47.14017-54.68031a54.66614,54.66614,0,1,1,0,109.33228c26.05039,0,47.14017-24.463,47.14017-54.652Z"/>
    <path class="cls-28" d="M278.39052,60.74644a52.6819,52.6819,0,1,0,52.66772,52.69606,52.75779,52.75779,0,0,0-52.66772-52.69606Zm0,109.33228a56.61681,56.61681,0,1,1,40.05355-16.58267,56.39764,56.39764,0,0,1-40.05355,16.58267Z"/>
  </g>
</svg>
