<svg width="1440" height="808" viewBox="0 0 1440 808" fill="none" xmlns="http://www.w3.org/2000/svg">
<g clip-path="url(#clip0_361_1238)" filter="url(#filter0_d_361_1238)">
<g clip-path="url(#clip1_361_1238)">
<path d="M80.5609 96.0279L-97.1858 -81.7188L-274.909 96.0042L-97.162 273.751L80.5609 96.0279Z" fill="white"/>
<path d="M-97.1807 -81.7193L80.5611 96.0328L-274.908 95.9995L-97.1807 -81.7193Z" fill="#ED553B"/>
<path d="M-8.30305 184.892L-97.1739 96.0157L80.5611 96.0328L-8.30305 184.892Z" fill="#FF9EF6"/>
<path d="M-6.28088 315.27C-5.26677 316.287 -4.57676 317.582 -4.29803 318.99C-4.0193 320.399 -4.16435 321.859 -4.71483 323.186C-5.2653 324.512 -6.19652 325.645 -7.39088 326.443C-8.58524 327.24 -9.98916 327.666 -11.4253 327.665C-12.8614 327.665 -14.2654 327.239 -15.4598 326.442C-16.6542 325.644 -17.5856 324.511 -18.1361 323.184C-18.6867 321.858 -18.8319 320.398 -18.5533 318.989C-18.2746 317.58 -17.5847 316.286 -16.5707 315.269C-15.8968 314.59 -15.0952 314.052 -14.2122 313.684C-13.3293 313.317 -12.3823 313.128 -11.4259 313.128C-10.4695 313.128 -9.52249 313.317 -8.63948 313.685C-7.75647 314.053 -6.95489 314.591 -6.28088 315.27ZM-30.9523 339.911C-27.09 343.773 -22.1692 346.404 -16.8122 347.47C-11.4552 348.536 -5.90255 347.99 -0.856463 345.9C4.18962 343.81 8.50251 340.271 11.5368 335.73C14.5711 331.189 16.1906 325.85 16.1904 320.388C16.1901 314.926 14.5703 309.586 11.5356 305.045C8.50096 300.503 4.18779 296.963 -0.858463 294.872C-5.90471 292.782 -11.4574 292.234 -16.8143 293.299C-22.1713 294.364 -27.0919 296.994 -30.9539 300.856C-33.5186 303.42 -35.5531 306.464 -36.9411 309.814C-38.329 313.165 -39.0434 316.756 -39.0432 320.382C-39.0431 324.009 -38.3285 327.6 -36.9402 330.951C-35.552 334.302 -33.5173 337.346 -30.9523 339.911L-30.9523 339.911Z" fill="#39175F"/>
<path d="M39.675 361.199C40.6926 362.217 41.3856 363.513 41.6664 364.925C41.9472 366.336 41.8032 367.799 41.2526 369.129C40.7019 370.458 39.7693 371.594 38.5728 372.394C37.3763 373.193 35.9696 373.62 34.5305 373.62C33.0914 373.619 31.6846 373.193 30.488 372.393C29.2914 371.593 28.3588 370.457 27.8081 369.127C27.2573 367.798 27.1131 366.335 27.3938 364.923C27.6745 363.512 28.3674 362.215 29.385 361.198C30.7509 359.836 32.601 359.072 34.5299 359.072C36.4588 359.072 38.309 359.837 39.675 361.199ZM15.0035 385.869C18.8659 389.732 23.7866 392.362 29.1436 393.428C34.5007 394.494 40.0533 393.948 45.0994 391.858C50.1455 389.769 54.4583 386.229 57.4926 381.688C60.5269 377.147 62.1463 371.808 62.1461 366.346C62.1459 360.884 60.5261 355.545 57.4914 351.003C54.4568 346.461 50.1436 342.921 45.0973 340.831C40.0511 338.74 34.4984 338.192 29.1415 339.258C23.7846 340.323 18.864 342.952 15.002 346.814C12.4372 349.378 10.4028 352.422 9.01478 355.772C7.62679 359.123 6.91246 362.714 6.9126 366.341C6.91274 369.968 7.62734 373.559 9.0156 376.909C10.4039 380.26 12.4386 383.305 15.0035 385.869Z" fill="#39175F"/>
<path d="M85.6306 407.157C86.6482 408.175 87.3413 409.471 87.6221 410.883C87.9029 412.294 87.7589 413.757 87.2082 415.087C86.6575 416.416 85.725 417.553 84.5285 418.352C83.332 419.151 81.9252 419.578 80.4862 419.578C79.0471 419.578 77.6404 419.151 76.4438 418.351C75.2472 417.552 74.3146 416.415 73.7638 415.086C73.2131 413.756 73.069 412.293 73.3497 410.882C73.6303 409.47 74.3233 408.174 75.3408 407.156C76.7066 405.794 78.5567 405.03 80.4856 405.03C82.4145 405.03 84.2647 405.795 85.6306 407.157ZM60.9593 431.827C64.8216 435.69 69.7424 438.321 75.0994 439.387C80.4564 440.453 86.0091 439.906 91.0551 437.817C96.1012 435.727 100.414 432.188 103.448 427.647C106.483 423.105 108.102 417.766 108.102 412.304C108.102 406.842 106.482 401.503 103.447 396.961C100.413 392.42 96.0994 388.88 91.0531 386.789C86.0069 384.698 80.4543 384.151 75.0973 385.216C69.7404 386.281 64.8198 388.911 60.9578 392.773C55.7911 397.957 52.8901 404.979 52.8904 412.299C52.8907 419.619 55.7922 426.642 60.9593 431.827Z" fill="#39175F"/>
<path d="M116.376 232.553C119.353 230.224 123.129 229.163 126.883 229.601C130.638 230.039 134.069 231.941 136.43 234.893L138.505 237.554L161.367 266.409C163.695 269.386 164.756 273.162 164.318 276.916C163.881 280.671 161.98 284.101 159.029 286.462C156.052 288.791 152.276 289.852 148.521 289.414C144.767 288.975 141.336 287.074 138.975 284.122L114.711 253.425L114.038 252.606C111.709 249.629 110.649 245.853 111.086 242.099C111.524 238.344 113.425 234.914 116.376 232.553Z" fill="#FF9EF6"/>
<path d="M-25.224 306.586C-27.9529 309.315 -29.8112 312.791 -30.5639 316.577C-31.3167 320.362 -30.9301 324.285 -29.4531 327.851C-27.976 331.417 -25.4749 334.464 -22.2659 336.609C-19.0569 338.753 -15.2842 339.898 -11.4249 339.898C-7.56556 339.899 -3.79296 338.755 -0.584135 336.611C2.62469 334.467 5.12563 331.42 6.60239 327.854C8.07914 324.289 8.46541 320.365 7.71234 316.58C6.95927 312.795 5.10068 309.318 2.37162 306.589C0.560726 304.774 -1.59005 303.335 -3.95768 302.353C-6.32531 301.371 -8.86333 300.865 -11.4265 300.865C-13.9896 300.865 -16.5275 301.37 -18.895 302.352C-21.2626 303.333 -23.4133 304.772 -25.224 306.586Z" fill="#FF9EF6"/>
<path d="M20.7317 352.544C18.0029 355.273 16.1446 358.75 15.3918 362.535C14.6391 366.32 15.0257 370.244 16.5027 373.809C17.9798 377.375 20.4809 380.423 23.6899 382.567C26.8989 384.712 30.6716 385.856 34.531 385.857C38.3903 385.857 42.1629 384.713 45.3718 382.569C48.5806 380.425 51.0815 377.378 52.5582 373.813C54.035 370.247 54.4213 366.324 53.6682 362.539C52.9152 358.753 51.0566 355.276 48.3275 352.547C46.5166 350.733 44.3658 349.294 41.9982 348.311C39.6306 347.329 37.0926 346.824 34.5294 346.823C31.9663 346.823 29.4283 347.328 27.0607 348.31C24.6932 349.292 22.5425 350.731 20.7317 352.544Z" fill="#FF9EF6"/>
<path d="M66.6868 398.502C63.958 401.231 62.0997 404.707 61.3469 408.493C60.5942 412.278 60.9808 416.201 62.4578 419.767C63.9349 423.333 66.436 426.38 69.645 428.525C72.854 430.669 76.6267 431.814 80.486 431.814C84.3453 431.815 88.1179 430.671 91.3268 428.527C94.5356 426.383 97.0365 423.336 98.5133 419.77C99.99 416.205 100.376 412.281 99.6232 408.496C98.8702 404.711 97.0116 401.234 94.2825 398.505C92.4716 396.69 90.3208 395.251 87.9532 394.269C85.5856 393.287 83.0476 392.781 80.4844 392.781C77.9213 392.781 75.3834 393.286 73.0158 394.268C70.6483 395.249 68.4976 396.688 66.6868 398.502Z" fill="#FF9EF6"/>
<path d="M80.5609 96.0279L-97.1858 -81.7188L-274.909 96.0042L-97.162 273.751L80.5609 96.0279Z" fill="white"/>
<path d="M258.303 273.779L80.5559 96.0327L-97.167 273.756L80.5797 451.502L258.303 273.779Z" fill="#08E6E7"/>
<path d="M-97.1807 -81.7193L80.5611 96.0328L-274.908 95.9995L-97.1807 -81.7193Z" fill="#ED553B"/>
<path d="M-8.30305 184.892L-97.1739 96.0157L80.5611 96.0328L-8.30305 184.892Z" fill="#FEA59C"/>
<path d="M-6.28088 315.27C-5.26677 316.287 -4.57676 317.582 -4.29803 318.99C-4.0193 320.399 -4.16435 321.859 -4.71483 323.186C-5.2653 324.512 -6.19652 325.645 -7.39088 326.443C-8.58524 327.24 -9.98916 327.666 -11.4253 327.665C-12.8614 327.665 -14.2654 327.239 -15.4598 326.442C-16.6542 325.644 -17.5856 324.511 -18.1361 323.184C-18.6867 321.858 -18.8319 320.398 -18.5533 318.989C-18.2746 317.58 -17.5847 316.286 -16.5707 315.269C-15.8968 314.59 -15.0952 314.052 -14.2122 313.684C-13.3293 313.317 -12.3823 313.128 -11.4259 313.128C-10.4695 313.128 -9.52249 313.317 -8.63948 313.685C-7.75647 314.053 -6.95489 314.591 -6.28088 315.27ZM-30.9523 339.911C-27.09 343.773 -22.1692 346.404 -16.8122 347.47C-11.4552 348.536 -5.90255 347.99 -0.856463 345.9C4.18962 343.81 8.50251 340.271 11.5368 335.73C14.5711 331.189 16.1906 325.85 16.1904 320.388C16.1901 314.926 14.5703 309.586 11.5356 305.045C8.50096 300.503 4.18779 296.963 -0.858463 294.872C-5.90471 292.782 -11.4574 292.234 -16.8143 293.299C-22.1713 294.364 -27.0919 296.994 -30.9539 300.856C-33.5186 303.42 -35.5531 306.464 -36.9411 309.814C-38.329 313.165 -39.0434 316.756 -39.0432 320.382C-39.0431 324.009 -38.3285 327.6 -36.9402 330.951C-35.552 334.302 -33.5173 337.346 -30.9523 339.911L-30.9523 339.911Z" fill="#31313E"/>
<path d="M39.675 361.199C40.6926 362.217 41.3856 363.513 41.6664 364.925C41.9472 366.336 41.8032 367.799 41.2526 369.129C40.7019 370.458 39.7693 371.594 38.5728 372.394C37.3763 373.193 35.9696 373.62 34.5305 373.62C33.0914 373.619 31.6846 373.193 30.488 372.393C29.2914 371.593 28.3588 370.457 27.8081 369.127C27.2573 367.798 27.1131 366.335 27.3938 364.923C27.6745 363.512 28.3674 362.215 29.385 361.198C30.7509 359.836 32.601 359.072 34.5299 359.072C36.4588 359.072 38.309 359.837 39.675 361.199ZM15.0035 385.869C18.8659 389.732 23.7866 392.362 29.1436 393.428C34.5007 394.494 40.0533 393.948 45.0994 391.858C50.1455 389.769 54.4583 386.229 57.4926 381.688C60.5269 377.147 62.1463 371.808 62.1461 366.346C62.1459 360.884 60.5261 355.545 57.4914 351.003C54.4568 346.461 50.1436 342.921 45.0973 340.831C40.0511 338.74 34.4984 338.192 29.1415 339.258C23.7846 340.323 18.864 342.952 15.002 346.814C12.4372 349.378 10.4028 352.422 9.01478 355.772C7.62679 359.123 6.91246 362.714 6.9126 366.341C6.91274 369.968 7.62734 373.559 9.0156 376.909C10.4039 380.26 12.4386 383.305 15.0035 385.869Z" fill="#31313E"/>
<path d="M85.6306 407.157C86.6482 408.175 87.3413 409.471 87.6221 410.883C87.9029 412.294 87.7589 413.757 87.2082 415.087C86.6575 416.416 85.725 417.553 84.5285 418.352C83.332 419.151 81.9252 419.578 80.4862 419.578C79.0471 419.578 77.6404 419.151 76.4438 418.351C75.2472 417.552 74.3146 416.415 73.7638 415.086C73.2131 413.756 73.069 412.293 73.3497 410.882C73.6303 409.47 74.3233 408.174 75.3408 407.156C76.7066 405.794 78.5567 405.03 80.4856 405.03C82.4145 405.03 84.2647 405.795 85.6306 407.157ZM60.9593 431.827C64.8216 435.69 69.7424 438.321 75.0994 439.387C80.4564 440.453 86.0091 439.906 91.0551 437.817C96.1012 435.727 100.414 432.188 103.448 427.647C106.483 423.105 108.102 417.766 108.102 412.304C108.102 406.842 106.482 401.503 103.447 396.961C100.413 392.42 96.0994 388.88 91.0531 386.789C86.0069 384.698 80.4543 384.151 75.0973 385.216C69.7404 386.281 64.8198 388.911 60.9578 392.773C55.7911 397.957 52.8901 404.979 52.8904 412.299C52.8907 419.619 55.7922 426.642 60.9593 431.827Z" fill="#31313E"/>
<path d="M6.52024 238.36C32.7131 247.161 96.5288 265.555 96.5288 265.555L110.18 256.465L134.357 287.015C140.934 295.347 152.978 297.453 161.602 291.286C163.774 289.737 165.608 287.763 166.993 285.484C168.379 283.204 169.286 280.667 169.661 278.026C170.035 275.385 169.869 272.695 169.172 270.12C168.475 267.545 167.261 265.139 165.605 263.047L143.037 234.514L168.001 212.855C169.629 211.77 171.498 211.101 173.446 210.907C175.393 210.714 177.357 211.002 179.168 211.745C208.781 223.675 224.07 246.858 229.917 257.908C230.86 259.687 231.299 261.689 231.185 263.699C231.072 265.708 230.411 267.648 229.275 269.309C218.898 284.626 169.731 346.595 148.509 368.956C136.611 381.496 127.929 387.575 121.995 390.469C119.53 391.666 116.775 392.136 114.052 391.826C111.329 391.515 108.751 390.435 106.619 388.713C94.5455 379.007 -25.5764 260.047 -25.6056 259.872C-27.4477 250.371 -22.8291 244.525 -17.1289 240.93C-13.6226 238.779 -9.68275 237.433 -5.59332 236.989C-1.5039 236.544 2.63336 237.013 6.52026 238.36L6.52024 238.36Z" fill="white"/>
<path d="M7.3968 234.706C30.7247 242.542 84.2796 258.07 95.242 261.257L110.56 251.027L137.309 284.794C139.825 288 143.458 290.141 147.482 290.787C151.342 291.419 155.295 290.494 158.473 288.216C158.691 288.09 158.897 287.943 159.087 287.778C162.151 285.341 164.167 281.825 164.721 277.95C165.276 274.074 164.326 270.133 162.068 266.935C161.951 266.789 161.805 266.584 161.6 266.321L136.401 234.484L164.58 210.048L165.018 209.698C167.236 208.212 169.787 207.298 172.443 207.038C175.106 206.779 177.792 207.16 180.278 208.15C191.46 212.677 201.745 219.162 210.651 227.3C219.784 235.654 227.444 245.488 233.308 256.389C234.615 258.882 235.221 261.684 235.062 264.495C234.902 267.305 233.983 270.02 232.402 272.35C226.615 280.856 209.017 303.597 190.836 326.046C176.044 344.286 160.815 362.38 151.168 372.552C146.219 377.857 140.895 382.8 135.237 387.342C131.573 390.283 127.616 392.84 123.428 394.971C120.205 396.538 116.602 397.156 113.04 396.752C109.479 396.348 106.106 394.938 103.315 392.688C99.0765 389.297 81.887 372.808 61.248 352.665C21.8408 314.279 -30.4586 261.479 -30.4878 261.246C-31.6055 256.318 -30.9537 251.154 -28.6467 246.659C-26.617 242.972 -23.6401 239.895 -20.0235 237.744C-16.012 235.213 -11.4702 233.643 -6.75194 233.155C-1.97918 232.634 2.84992 233.163 7.39676 234.706L7.3968 234.706ZM94.7456 270.349C94.5701 270.29 30.9298 251.955 4.56145 243.095C1.2265 241.964 -2.31526 241.574 -5.8162 241.954C-9.18531 242.292 -12.4287 243.413 -15.2874 245.228C-17.5877 246.558 -19.4941 248.474 -20.8122 250.781C-22.1597 253.498 -22.5113 256.601 -21.8056 259.551C-21.8057 259.58 28.8857 308.813 67.4158 346.351C87.8503 366.231 104.777 382.516 108.869 385.819C110.362 386.998 112.154 387.738 114.044 387.954C115.918 388.184 117.819 387.859 119.51 387.019C123.148 385.179 126.578 382.955 129.741 380.384C135.086 376.112 140.108 371.452 144.766 366.441C154.179 356.532 169.233 338.585 183.966 320.462C202.001 298.189 219.423 275.71 225.094 267.35C225.777 266.357 226.172 265.193 226.234 263.989C226.316 262.79 226.052 261.592 225.474 260.539C220.11 250.519 213.081 241.483 204.688 233.818C196.555 226.407 187.172 220.497 176.975 216.364C175.828 215.895 174.581 215.724 173.35 215.866C172.206 215.959 171.102 216.33 170.135 216.948L148.62 235.625L168.558 260.826C168.808 261.125 169.042 261.437 169.259 261.761L169.259 261.791C172.86 266.825 174.386 273.051 173.52 279.179C172.655 285.307 169.466 290.867 164.612 294.706C164.32 294.94 163.999 295.174 163.648 295.437C158.561 299.039 152.262 300.497 146.108 299.499C139.893 298.517 134.271 295.242 130.352 290.318L108.689 262.954L96.7333 270.904L94.7456 270.349Z" fill="#31313E"/>
<path d="M115.674 233.284C118.646 230.941 122.425 229.873 126.184 230.311C129.943 230.75 133.375 232.66 135.728 235.624L137.804 238.255L160.636 267.11C162.979 270.082 164.049 273.862 163.61 277.62C163.172 281.379 161.262 284.811 158.298 287.163C155.326 289.493 151.555 290.553 147.804 290.115C144.054 289.677 140.628 287.775 138.273 284.823L113.98 254.126L113.337 253.308C110.994 250.341 109.924 246.566 110.362 242.811C110.8 239.057 112.711 235.63 115.674 233.283L115.674 233.284Z" fill="#FEA49C"/>
<path d="M-25.224 306.586C-27.9529 309.315 -29.8112 312.791 -30.5639 316.577C-31.3167 320.362 -30.9301 324.285 -29.4531 327.851C-27.976 331.417 -25.4749 334.464 -22.2659 336.609C-19.0569 338.753 -15.2842 339.898 -11.4249 339.898C-7.56556 339.899 -3.79296 338.755 -0.584135 336.611C2.62469 334.467 5.12563 331.42 6.60239 327.854C8.07914 324.289 8.46541 320.365 7.71234 316.58C6.95927 312.795 5.10068 309.318 2.37162 306.589C0.560726 304.774 -1.59005 303.335 -3.95768 302.353C-6.32531 301.371 -8.86333 300.865 -11.4265 300.865C-13.9896 300.865 -16.5275 301.37 -18.895 302.352C-21.2626 303.333 -23.4133 304.772 -25.224 306.586Z" fill="#FEA49C"/>
<path d="M20.7317 352.544C18.0029 355.273 16.1446 358.75 15.3918 362.535C14.6391 366.32 15.0257 370.244 16.5027 373.809C17.9798 377.375 20.4809 380.423 23.6899 382.567C26.8989 384.712 30.6716 385.856 34.531 385.857C38.3903 385.857 42.1629 384.713 45.3718 382.569C48.5806 380.425 51.0815 377.378 52.5582 373.813C54.035 370.247 54.4213 366.324 53.6682 362.539C52.9152 358.753 51.0566 355.276 48.3275 352.547C46.5166 350.733 44.3658 349.294 41.9982 348.311C39.6306 347.329 37.0926 346.824 34.5294 346.823C31.9663 346.823 29.4283 347.328 27.0607 348.31C24.6932 349.292 22.5425 350.731 20.7317 352.544Z" fill="#FEA49C"/>
<path d="M66.6868 398.502C63.958 401.231 62.0997 404.707 61.3469 408.493C60.5942 412.278 60.9808 416.201 62.4578 419.767C63.9349 423.333 66.436 426.38 69.645 428.525C72.854 430.669 76.6267 431.814 80.486 431.814C84.3453 431.815 88.1179 430.671 91.3268 428.527C94.5356 426.383 97.0365 423.336 98.5133 419.77C99.99 416.205 100.376 412.281 99.6232 408.496C98.8702 404.711 97.0116 401.234 94.2825 398.505C92.4716 396.69 90.3208 395.251 87.9532 394.269C85.5856 393.287 83.0476 392.781 80.4844 392.781C77.9213 392.781 75.3834 393.286 73.0158 394.268C70.6483 395.249 68.4976 396.688 66.6868 398.502Z" fill="#FEA49C"/>
<path d="M258.136 629.059L80.3894 451.312L-97.3335 629.035L80.4132 806.782L258.136 629.059Z" fill="white"/>
<path fill-rule="evenodd" clip-rule="evenodd" d="M213.178 674.107C202.94 684.324 189.476 690.676 175.08 692.079C160.683 693.482 146.245 689.85 134.224 681.802C122.204 673.755 113.344 661.789 109.156 647.943C104.967 634.097 105.709 619.228 111.253 605.869C116.798 592.509 126.803 581.486 139.564 574.677C152.326 567.868 167.053 565.694 181.239 568.526C195.424 571.358 208.19 579.02 217.361 590.207C226.532 601.395 231.541 615.415 231.535 629.88C231.537 638.098 229.916 646.235 226.766 653.824C223.616 661.414 218.998 668.307 213.178 674.107Z" fill="#08E6E7"/>
<path fill-rule="evenodd" clip-rule="evenodd" d="M125.564 586.488C116.812 595.231 105.663 601.182 93.528 603.589C81.3929 605.996 68.8161 604.75 57.3879 600.01C45.9597 595.269 36.1932 587.247 29.3233 576.957C22.4534 566.667 18.7885 554.571 18.7921 542.199C18.7957 529.828 22.4676 517.735 29.3435 507.451C36.2194 497.167 45.9906 489.153 57.4216 484.422C68.8526 479.691 81.43 478.456 93.5637 480.873C105.697 483.29 116.843 489.251 125.59 498.001C131.399 503.813 136.007 510.713 139.149 518.305C142.292 525.898 143.908 534.035 143.906 542.253C143.903 550.47 142.282 558.605 139.135 566.195C135.988 573.786 131.377 580.681 125.564 586.488L125.564 586.488Z" fill="#ED553B"/>
<path fill-rule="evenodd" clip-rule="evenodd" d="M212.417 673.347C202.182 683.579 188.716 689.946 174.312 691.362C159.908 692.779 145.458 689.157 133.424 681.115C121.389 673.072 112.515 661.106 108.313 647.256C104.11 633.405 104.84 618.527 110.377 605.155C115.915 591.784 125.917 580.746 138.681 573.923C151.444 567.1 166.179 564.914 180.375 567.737C194.571 570.56 207.35 578.217 216.534 589.404C225.719 600.592 230.741 614.617 230.745 629.09C230.738 645.688 224.146 661.604 212.417 673.347Z" fill="#08E6E7"/>
<path d="M168.893 718.299L-8.85352 540.552L-97.3349 629.034L80.4118 806.78L168.893 718.299Z" fill="#FEA49C"/>
<path fill-rule="evenodd" clip-rule="evenodd" d="M123.927 584.822C115.177 593.573 104.027 599.531 91.8894 601.945C79.7515 604.359 67.1699 603.119 55.7357 598.382C44.3016 593.645 34.5285 585.624 27.6523 575.333C20.776 565.042 17.1056 552.944 17.1051 540.568C17.1046 528.192 20.7741 516.095 27.6495 505.805C34.5249 495.516 44.2975 487.496 55.7313 482.762C67.165 478.027 79.7465 476.789 91.8847 479.205C104.023 481.621 115.172 487.582 123.923 496.335C135.653 508.072 142.243 523.987 142.243 540.58C142.244 557.173 135.656 573.086 123.927 584.822Z" fill="#ED553B"/>
<path d="M-82.4256 605.09C-91.5458 614.21 -111.307 609.209 -126.597 593.919C-141.857 578.658 -146.856 558.896 -137.736 549.777L-38.8164 450.833C-29.6961 441.743 -9.93458 446.743 5.35468 462.004C20.6148 477.294 25.6143 497.056 16.494 506.147L-82.4256 605.09Z" fill="#F5FFFF"/>
<path d="M-79.7655 607.75C-85.3487 613.333 -93.8553 614.648 -103.151 612.308L-101.252 605C-94.5574 606.696 -88.6523 605.966 -85.1152 602.429L-79.7655 607.75ZM-103.151 612.308C-111.746 610.144 -121.13 604.735 -129.257 596.579L-123.908 591.259C-116.774 598.392 -108.648 603.129 -101.252 605L-103.151 612.308ZM-129.257 596.608L-123.908 591.259L-129.257 596.608ZM-129.257 596.608L-123.908 591.259L-129.257 596.608ZM-129.257 596.608C-137.384 588.48 -142.792 579.096 -144.956 570.502L-137.648 568.602C-135.806 575.969 -131.07 584.096 -123.908 591.259L-129.257 596.608ZM-144.956 570.502C-147.295 561.205 -145.98 552.67 -140.426 547.116L-135.076 552.437C-138.613 556.003 -139.344 561.908 -137.648 568.602L-144.956 570.502ZM-140.426 547.116L-41.477 448.173L-36.1271 453.523L-135.076 552.437L-140.426 547.116ZM-41.477 448.173C-35.8938 442.619 -27.387 441.275 -18.0909 443.644L-19.9908 450.923C-26.6851 449.256 -32.59 449.957 -36.1271 453.523L-41.477 448.173ZM-18.0909 443.644C-9.4964 445.808 -0.112582 451.217 8.01448 459.344L2.66515 464.693C-4.49722 457.531 -12.624 452.794 -19.9908 450.923L-18.0909 443.644ZM8.01448 459.344C16.1414 467.472 21.5499 476.856 23.7135 485.451L16.4053 487.35C14.5342 479.954 9.8274 471.827 2.66517 464.664L8.01448 459.344ZM23.7135 485.451C26.0524 494.718 24.7374 503.253 19.1833 508.807L13.8336 503.486C17.3706 499.949 18.1012 494.044 16.4053 487.35L23.7135 485.451ZM19.1833 508.807L-79.7655 607.75L-85.1152 602.429L13.8336 503.486L19.1833 508.807Z" fill="#39175F"/>
<path d="M-38.6997 450.95C-29.5794 441.86 -9.81803 446.86 5.44207 462.121C20.7314 477.411 25.731 497.173 16.6107 506.263C7.51965 515.383 -12.2417 510.383 -27.531 495.092C-42.7911 479.832 -47.7908 460.07 -38.6997 450.95Z" fill="#FF9EF6" stroke="#39175F" stroke-width="6.51968" stroke-miterlimit="10"/>
<path d="M-119.414 368.097C-128.594 358.946 -123.713 339.215 -108.542 324.015C-93.3412 308.845 -73.6093 303.965 -64.4591 313.145L35.0822 412.692C44.2615 421.842 39.3805 441.574 24.2094 456.773C9.00887 471.944 -10.7229 476.824 -19.8732 467.644L-119.414 368.097Z" fill="#F5FFFF"/>
<path d="M-122.104 370.786C-127.687 365.202 -129.032 356.695 -126.753 347.429L-119.444 349.213C-121.11 355.907 -120.35 361.841 -116.754 365.437L-122.104 370.786ZM-126.753 347.429C-124.619 338.805 -119.27 329.422 -111.202 321.355L-105.881 326.676C-112.984 333.808 -117.661 341.875 -119.444 349.213L-126.753 347.429ZM-111.202 321.355C-103.134 313.287 -93.7504 307.938 -85.1268 305.805L-83.3433 313.114C-90.6806 314.896 -98.7487 319.573 -105.881 326.676L-111.202 321.355ZM-85.1268 305.805C-75.8601 303.526 -67.3533 304.872 -61.7697 310.456L-67.119 315.805C-70.7149 312.209 -76.6491 311.448 -83.3433 313.114L-85.1268 305.805ZM-61.7697 310.456L37.7715 410.002L32.4222 415.351L-67.119 315.805L-61.7697 310.456ZM37.7715 410.002C43.3552 415.586 44.7003 424.093 42.4204 433.36L35.1415 431.576C36.7782 424.882 36.0179 418.947 32.4222 415.351L37.7715 410.002ZM42.4204 433.36C40.2869 441.983 34.9375 451.366 26.8696 459.434L21.5491 454.113C28.6523 446.981 33.3292 438.913 35.1415 431.576L42.4204 433.36ZM26.8696 459.434C18.8017 467.501 9.41834 472.85 0.794676 474.983L-0.988811 467.704C6.34856 465.892 14.4166 461.216 21.549 454.113L26.8696 459.434ZM0.794676 474.983C-8.472 477.262 -16.9788 475.917 -22.5624 470.333L-17.2131 464.984C-13.6172 468.58 -7.68303 469.34 -0.988768 467.704L0.794676 474.983ZM-22.5624 470.333L-122.104 370.786L-116.754 365.437L-17.2131 464.984L-22.5624 470.333Z" fill="#39175F"/>
<path d="M34.9945 412.809C44.1448 421.959 39.2637 441.691 24.0925 456.89C8.92138 472.061 -10.8398 476.941 -19.99 467.761C-29.1402 458.61 -24.2884 438.878 -9.08792 423.708C6.08324 408.509 25.8152 403.628 34.9945 412.809L34.9945 412.809Z" fill="#08E6E7" stroke="#39175F" stroke-width="6.51968" stroke-miterlimit="10"/>
<path d="M80.3944 451.307L-97.3523 273.561L-275.075 451.284L-97.3285 629.03L80.3944 451.307Z" fill="#31313E"/>
<path d="M-82.4256 605.09C-91.5458 614.21 -111.307 609.209 -126.597 593.919C-141.857 578.658 -146.856 558.896 -137.736 549.777L-38.8164 450.833C-29.6961 441.743 -9.93458 446.743 5.35468 462.004C20.6148 477.294 25.6143 497.056 16.494 506.147L-82.4256 605.09Z" fill="#F5FFFF"/>
<path d="M-79.7655 607.75C-85.3487 613.333 -93.8553 614.648 -103.151 612.308L-101.252 605C-94.5574 606.696 -88.6523 605.966 -85.1152 602.429L-79.7655 607.75ZM-103.151 612.308C-111.746 610.144 -121.13 604.735 -129.257 596.579L-123.908 591.259C-116.774 598.392 -108.648 603.129 -101.252 605L-103.151 612.308ZM-129.257 596.608L-123.908 591.259L-129.257 596.608ZM-129.257 596.608L-123.908 591.259L-129.257 596.608ZM-129.257 596.608C-137.384 588.48 -142.792 579.096 -144.956 570.502L-137.648 568.602C-135.806 575.969 -131.07 584.096 -123.908 591.259L-129.257 596.608ZM-144.956 570.502C-147.295 561.205 -145.98 552.67 -140.426 547.116L-135.076 552.437C-138.613 556.003 -139.344 561.908 -137.648 568.602L-144.956 570.502ZM-140.426 547.116L-41.477 448.173L-36.1271 453.523L-135.076 552.437L-140.426 547.116ZM-41.477 448.173C-35.8938 442.619 -27.387 441.275 -18.0909 443.644L-19.9908 450.923C-26.6851 449.256 -32.59 449.957 -36.1271 453.523L-41.477 448.173ZM-18.0909 443.644C-9.4964 445.808 -0.112582 451.217 8.01448 459.344L2.66515 464.693C-4.49722 457.531 -12.624 452.794 -19.9908 450.923L-18.0909 443.644ZM8.01448 459.344C16.1414 467.472 21.5499 476.856 23.7135 485.451L16.4053 487.35C14.5342 479.954 9.8274 471.827 2.66517 464.664L8.01448 459.344ZM23.7135 485.451C26.0524 494.718 24.7374 503.253 19.1833 508.807L13.8336 503.486C17.3706 499.949 18.1012 494.044 16.4053 487.35L23.7135 485.451ZM19.1833 508.807L-79.7655 607.75L-85.1152 602.429L13.8336 503.486L19.1833 508.807Z" fill="#31313E"/>
<path d="M-38.6999 450.95C-29.5796 441.86 -9.81823 446.86 5.47107 462.121C20.7312 477.411 25.7308 497.173 16.6105 506.263C7.51944 515.383 -12.2419 510.383 -27.5312 495.093C-42.7913 479.832 -47.791 460.07 -38.6999 450.95Z" fill="#FEA49C" stroke="#31313E" stroke-width="11.3953" stroke-miterlimit="10"/>
<path d="M-119.414 368.097C-128.594 358.946 -123.713 339.215 -108.542 324.015C-93.3412 308.845 -73.6093 303.965 -64.4591 313.145L35.0822 412.692C44.2615 421.842 39.3805 441.574 24.2094 456.773C9.00887 471.944 -10.7229 476.824 -19.8732 467.644L-119.414 368.097Z" fill="#F5FFFF"/>
<path d="M-122.104 370.786C-127.687 365.202 -129.032 356.695 -126.753 347.429L-119.444 349.213C-121.11 355.907 -120.35 361.841 -116.754 365.437L-122.104 370.786ZM-126.753 347.429C-124.619 338.805 -119.27 329.422 -111.202 321.355L-105.881 326.676C-112.984 333.808 -117.661 341.875 -119.444 349.213L-126.753 347.429ZM-111.202 321.355C-103.134 313.287 -93.7504 307.938 -85.1268 305.805L-83.3433 313.114C-90.6806 314.896 -98.7487 319.573 -105.881 326.676L-111.202 321.355ZM-85.1268 305.805C-75.8601 303.526 -67.3533 304.872 -61.7697 310.456L-67.119 315.805C-70.7149 312.209 -76.6491 311.448 -83.3433 313.114L-85.1268 305.805ZM-61.7697 310.456L37.7715 410.002L32.4222 415.351L-67.119 315.805L-61.7697 310.456ZM37.7715 410.002C43.3552 415.586 44.7003 424.093 42.4204 433.36L35.1415 431.576C36.7782 424.882 36.0179 418.947 32.4222 415.351L37.7715 410.002ZM42.4204 433.36C40.2869 441.983 34.9375 451.366 26.8696 459.434L21.5491 454.113C28.6523 446.981 33.3292 438.913 35.1415 431.576L42.4204 433.36ZM26.8696 459.434C18.8017 467.501 9.41834 472.85 0.794676 474.983L-0.988811 467.704C6.34856 465.892 14.4166 461.216 21.549 454.113L26.8696 459.434ZM0.794676 474.983C-8.472 477.262 -16.9788 475.917 -22.5624 470.333L-17.2131 464.984C-13.6172 468.58 -7.68303 469.34 -0.988768 467.704L0.794676 474.983ZM-22.5624 470.333L-122.104 370.786L-116.754 365.437L-17.2131 464.984L-22.5624 470.333Z" fill="#31313E"/>
<path d="M34.9945 412.809C44.1448 421.959 39.2637 441.691 24.0925 456.89C8.92138 472.061 -10.8398 476.941 -19.99 467.761C-29.1402 458.61 -24.2884 438.878 -9.08792 423.708C6.08324 408.509 25.8152 403.628 34.9945 412.809L34.9945 412.809Z" fill="#08E6E7" stroke="#31313E" stroke-width="11.3953" stroke-miterlimit="10"/>
<path d="M168.892 718.303C145.419 694.829 113.583 681.64 80.3888 681.637C47.1943 681.633 15.3598 694.817 -8.11177 718.286L80.4084 806.782L168.892 718.303Z" fill="#31313E"/>
<path d="M185.276 377.042C232.631 329.69 304.134 324.405 344.945 365.218C322.201 342.472 291.353 329.692 259.189 329.689C227.025 329.686 196.179 342.46 173.437 365.202C150.694 387.943 137.918 418.788 137.919 450.953C137.921 483.117 150.699 513.964 173.443 536.71C132.633 495.897 137.921 424.395 185.276 377.042L185.276 377.042Z" fill="#FCF9D3"/>
<path d="M333.141 524.915C285.786 572.268 214.283 577.552 173.444 536.71C132.633 495.897 137.922 424.395 185.277 377.042C232.632 329.69 304.135 324.405 344.945 365.218C385.785 406.06 380.497 477.563 333.141 524.915Z" fill="#FF9EF6"/>
<path d="M341.846 368.346C325.501 351.999 304.676 340.866 282.005 336.355C259.334 331.843 235.835 334.155 214.48 342.999C193.124 351.843 174.872 366.821 162.031 386.039C149.19 405.257 142.336 427.853 142.337 450.968C142.338 474.083 149.193 496.679 162.036 515.9C174.879 535.121 193.132 550.102 214.488 558.95C235.844 567.798 259.343 570.114 282.014 565.607C304.685 561.1 325.509 549.971 341.853 533.627C363.74 511.696 376.031 481.976 376.03 450.99C376.029 420.003 363.735 390.281 341.846 368.346ZM170.345 539.838C152.767 522.261 140.796 499.866 135.945 475.487C131.094 451.107 133.582 425.838 143.094 402.874C152.605 379.911 168.713 360.284 189.381 346.477C210.048 332.671 234.347 325.303 259.204 325.307C275.708 325.308 292.051 328.559 307.299 334.876C322.548 341.192 336.403 350.45 348.074 362.121C359.745 373.792 369.003 387.647 375.32 402.895C381.636 418.144 384.888 434.487 384.889 450.991C384.889 467.495 381.639 483.837 375.324 499.084C369.008 514.331 359.751 528.185 348.081 539.853C336.411 551.522 322.556 560.777 307.308 567.091C292.06 573.405 275.718 576.653 259.214 576.65C242.703 576.694 226.348 573.463 211.094 567.144C195.839 560.825 181.989 551.544 170.345 539.838L170.345 539.838Z" fill="#39175F"/>
<path d="M297.798 489.569C290.164 497.196 280.441 502.389 269.857 504.49C259.272 506.591 248.302 505.507 238.333 501.375C228.363 497.242 219.843 490.247 213.848 481.273C207.853 472.299 204.653 461.75 204.653 450.959C204.653 440.168 207.852 429.619 213.846 420.646C219.84 411.674 228.36 404.68 238.329 400.549C248.298 396.419 259.268 395.337 269.852 397.44C280.437 399.543 290.161 404.738 297.794 412.366C302.869 417.433 306.896 423.45 309.643 430.074C312.39 436.698 313.804 443.798 313.805 450.969C313.805 458.14 312.391 465.24 309.645 471.864C306.898 478.487 302.872 484.504 297.798 489.569Z" fill="white"/>
<path d="M294.696 415.493C287.677 408.474 278.734 403.693 268.998 401.756C259.263 399.818 249.171 400.811 240.001 404.609C230.83 408.407 222.992 414.839 217.478 423.092C211.963 431.344 209.02 441.048 209.021 450.974C209.021 460.9 211.965 470.604 217.48 478.858C222.995 487.112 230.834 493.545 240.004 497.345C249.175 501.144 259.267 502.139 269.002 500.204C278.738 498.268 287.68 493.489 294.699 486.471C304.091 477.049 309.365 464.288 309.365 450.983C309.364 437.679 304.089 424.917 294.696 415.493ZM217.496 492.69C209.245 484.438 203.626 473.926 201.349 462.482C199.072 451.038 200.24 439.177 204.705 428.397C209.169 417.618 216.73 408.405 226.432 401.924C236.133 395.442 247.539 391.983 259.207 391.985C270.875 391.986 282.281 395.447 291.982 401.93C301.684 408.413 309.246 417.628 313.711 428.408C318.177 439.188 319.346 451.05 317.07 462.493C314.794 473.937 309.176 484.448 300.926 492.698C289.855 503.746 274.853 509.95 259.211 509.948C243.57 509.947 228.567 503.74 217.496 492.69Z" fill="#39175F"/>
<path d="M185.276 377.042C232.631 329.69 304.134 324.405 344.945 365.218C322.201 342.472 291.353 329.692 259.189 329.689C227.025 329.686 196.179 342.46 173.437 365.202C150.694 387.943 137.918 418.788 137.919 450.953C137.921 483.117 150.699 513.964 173.443 536.71C132.633 495.897 137.921 424.395 185.276 377.042L185.276 377.042Z" fill="white"/>
<path d="M333.141 524.915C285.786 572.268 214.283 577.552 173.444 536.71C132.633 495.897 137.922 424.395 185.277 377.042C232.632 329.69 304.135 324.405 344.945 365.218C385.785 406.06 380.497 477.563 333.141 524.915Z" fill="#FEA49C"/>
<path d="M297.798 489.569C290.164 497.196 280.441 502.389 269.857 504.49C259.272 506.591 248.302 505.507 238.333 501.375C228.363 497.242 219.843 490.247 213.848 481.273C207.853 472.299 204.653 461.75 204.653 450.959C204.653 440.168 207.852 429.619 213.846 420.646C219.84 411.674 228.36 404.68 238.329 400.549C248.298 396.419 259.268 395.337 269.852 397.44C280.437 399.543 290.161 404.738 297.794 412.366C302.869 417.433 306.896 423.45 309.643 430.074C312.39 436.698 313.804 443.798 313.805 450.969C313.805 458.14 312.391 465.24 309.645 471.864C306.898 478.487 302.872 484.504 297.798 489.569Z" fill="white"/>
<path d="M294.696 415.493C287.677 408.474 278.734 403.693 268.998 401.756C259.263 399.818 249.171 400.811 240.001 404.609C230.83 408.407 222.992 414.839 217.478 423.092C211.963 431.344 209.02 441.048 209.021 450.974C209.021 460.9 211.965 470.604 217.48 478.858C222.995 487.112 230.834 493.545 240.004 497.345C249.175 501.144 259.267 502.139 269.002 500.204C278.738 498.268 287.68 493.489 294.699 486.471C304.091 477.049 309.365 464.288 309.365 450.983C309.364 437.679 304.089 424.917 294.696 415.493ZM217.496 492.69C209.245 484.438 203.626 473.926 201.349 462.482C199.072 451.038 200.24 439.177 204.705 428.397C209.169 417.618 216.73 408.405 226.432 401.924C236.133 395.442 247.539 391.983 259.207 391.985C270.875 391.986 282.281 395.447 291.982 401.93C301.684 408.413 309.246 417.628 313.711 428.408C318.177 439.188 319.346 451.05 317.07 462.493C314.794 473.937 309.176 484.448 300.926 492.698C289.855 503.746 274.853 509.95 259.211 509.948C243.57 509.947 228.567 503.74 217.496 492.69Z" fill="#31313E"/>
<path d="M332.322 524.096C379.678 476.744 384.966 405.241 344.155 364.429C366.9 387.174 379.678 418.022 379.679 450.186C379.681 482.35 366.905 513.196 344.162 535.937C321.42 558.678 290.573 571.452 258.409 571.449C226.245 571.446 195.398 558.666 172.654 535.921C213.464 576.733 284.967 571.449 332.322 524.096L332.322 524.096Z" fill="#ED553B"/>
<path d="M341.846 368.346C325.501 351.999 304.676 340.866 282.005 336.355C259.334 331.843 235.835 334.155 214.48 342.999C193.124 351.843 174.872 366.821 162.031 386.039C149.19 405.257 142.336 427.853 142.337 450.968C142.338 474.083 149.193 496.679 162.036 515.9C174.879 535.121 193.132 550.102 214.488 558.95C235.844 567.798 259.343 570.114 282.014 565.607C304.685 561.1 325.509 549.971 341.853 533.627C363.74 511.696 376.031 481.976 376.03 450.99C376.029 420.003 363.735 390.281 341.846 368.346ZM170.345 539.838C152.767 522.261 140.796 499.866 135.945 475.487C131.094 451.107 133.582 425.838 143.094 402.874C152.605 379.911 168.713 360.284 189.381 346.477C210.048 332.671 234.347 325.303 259.204 325.307C275.708 325.308 292.051 328.559 307.299 334.876C322.548 341.192 336.403 350.45 348.074 362.121C359.745 373.792 369.003 387.647 375.32 402.895C381.636 418.144 384.888 434.487 384.889 450.991C384.889 467.495 381.639 483.837 375.324 499.084C369.008 514.331 359.751 528.185 348.081 539.853C336.411 551.522 322.556 560.777 307.308 567.091C292.06 573.405 275.718 576.653 259.214 576.65C242.703 576.694 226.348 573.463 211.094 567.144C195.839 560.825 181.989 551.544 170.345 539.838L170.345 539.838Z" fill="#31313E"/>
<path d="M80.2592 807.08L-97.4875 629.333L-275.21 807.056L-97.4637 984.803L80.2592 807.08Z" fill="#39175F"/>
<path d="M-177.453 895.109C-175.319 893.004 -170.584 888.24 -170.584 888.24L-163.451 891.164L-136.265 878.216L-125.975 879.007L-65.2901 825.721L-62.4842 810.579L-52.8959 811.749L-47.4882 806.079L-33.3116 771.673L-16.5606 788.425L-7.52806 779.422L-17.2629 769.687L-8.40572 760.83L1.32909 770.536L9.10469 762.79L17.9626 771.649L10.2162 779.424L19.9219 789.13L11.0646 798.016L1.32979 788.28L-7.70276 797.312L8.58051 813.597L-25.0365 828.502L-30.532 833.822L-30.2102 842.884L-45.411 845.952L-98.4952 906.926L-98.0563 916.836L-108.842 944.723L-107.76 951.593L-114.367 958.17C-114.367 958.17 -128.37 944.195 -177.453 895.109Z" fill="#FF9EF6"/>
<path fill-rule="evenodd" clip-rule="evenodd" d="M-181.955 890.578L-175.115 883.738L-172.104 880.727L-168.158 882.335L-163.685 884.148L-139.042 872.457L-137.493 871.697L-135.768 871.844L-128.197 872.429L-71.1951 822.359L-68.7986 809.409L-67.6879 803.504L-61.7244 804.236L-55.2932 804.996L-52.9547 802.541L-39.2458 769.246L-35.5628 760.331L-28.7806 767.142L-26.2665 769.657L-21.794 765.155L-12.9076 756.299L-8.37675 751.768L-3.84554 756.27L1.32885 761.474L4.54438 758.259L9.07525 753.728L13.6065 758.26L22.4936 767.147L26.9956 771.649L22.4939 776.18L19.2491 779.395L24.482 784.599L28.9841 789.131L24.4532 793.662L15.5961 802.518L11.0943 807.02L13.1407 809.037L19.7184 815.644L11.1825 819.443L-21.4114 833.911L-24.013 836.424L-23.8081 842.651L-23.6033 848.088L-28.9236 849.14L-41.9904 851.799L-91.9762 909.237L-91.6543 916.574L-91.5958 917.948L-92.0634 919.176L-102.235 945.455L-101.446 950.6L-100.949 953.845L-103.229 956.125L-109.835 962.731L-114.366 967.261L-118.897 962.73L-181.984 899.64L-186.515 895.137L-181.955 890.578ZM-177.453 895.109C-175.319 893.004 -170.584 888.24 -170.584 888.24L-163.451 891.164L-136.265 878.216L-125.975 879.007L-65.29 825.721L-62.4842 810.579L-52.8958 811.749L-47.4881 806.079L-33.3116 771.673L-16.5605 788.425L-7.528 779.422L-17.2628 769.687L-8.40565 760.83L1.32915 770.536L9.10475 762.79L17.9626 771.649L10.2163 779.424L19.922 789.13L11.0647 798.016L1.32985 788.281L-7.7027 797.313L8.58056 813.597L-25.0364 828.502L-30.5319 833.822L-30.2101 842.884L-45.4109 845.952L-98.4951 906.926L-98.0563 916.836L-108.842 944.723L-107.76 951.593L-114.367 958.17C-114.367 958.17 -128.369 944.195 -177.453 895.109Z" fill="#173F5F"/>
<path d="M80.2592 807.08L-97.4875 629.333L-275.21 807.056L-97.4637 984.803L80.2592 807.08Z" fill="#31313E"/>
<path d="M-177.453 895.109C-175.319 893.004 -170.584 888.24 -170.584 888.24L-163.451 891.164L-136.265 878.216L-125.975 879.007L-65.2901 825.721L-62.4842 810.579L-52.8959 811.749L-47.4882 806.079L-33.3116 771.673L-16.5606 788.425L-7.52806 779.422L-17.2629 769.687L-8.40572 760.83L1.32909 770.536L9.10469 762.79L17.9626 771.649L10.2162 779.424L19.9219 789.13L11.0646 798.016L1.32979 788.28L-7.70276 797.312L8.58051 813.597L-25.0365 828.502L-30.532 833.822L-30.2102 842.884L-45.411 845.952L-98.4952 906.926L-98.0563 916.836L-108.842 944.723L-107.76 951.593L-114.367 958.17C-114.367 958.17 -128.37 944.195 -177.453 895.109Z" fill="#FEA49C"/>
<path fill-rule="evenodd" clip-rule="evenodd" d="M-182.101 890.46L-175.232 883.591L-172.134 880.493L-168.099 882.159L-163.685 883.943L-139.13 872.282L-137.522 871.522L-135.768 871.639L-128.255 872.224L-71.3707 822.271L-68.9741 809.379L-67.8635 803.299L-61.6953 804.031L-55.381 804.791L-53.1302 802.424L-39.4214 769.158L-35.6507 760.009L-28.6346 766.996L-26.2666 769.364L-21.9112 765.038L-13.054 756.152L-8.37695 751.475L-3.72879 756.153L1.32865 761.181L4.42723 758.112L9.07506 753.465L13.7524 758.142L22.6103 767.001L27.2877 771.649L22.6107 776.326L19.5413 779.395L24.5988 784.453L29.2762 789.13L24.5992 793.807L15.7127 802.664L11.3864 807.019L13.2574 808.919L20.0689 815.702L11.2701 819.618L-21.2946 834.056L-23.8085 836.512L-23.6037 842.65L-23.3988 848.234L-28.8944 849.344L-41.903 851.974L-91.8009 909.295L-91.4499 916.544L-91.3913 918.006L-91.8883 919.234L-102.031 945.484L-101.241 950.57L-100.744 953.903L-103.083 956.271L-109.689 962.847L-114.366 967.524L-119.044 962.846L-182.13 899.785L-186.779 895.137L-182.101 890.46ZM-177.453 895.109C-175.319 893.004 -170.584 888.24 -170.584 888.24L-163.451 891.164L-136.265 878.216L-125.975 879.006L-65.2901 825.721L-62.4843 810.579L-52.896 811.749L-47.4882 806.078L-33.3117 771.673L-16.5607 788.425L-7.52812 779.422L-17.263 769.686L-8.40577 760.83L1.32903 770.536L9.10463 762.79L17.9625 771.648L10.2162 779.423L19.9219 789.13L11.0646 798.016L1.32973 788.28L-7.70282 797.312L8.58043 813.596L-25.0366 828.502L-30.5321 833.822L-30.2103 842.884L-45.411 845.952L-98.4953 906.926L-98.0564 916.836L-108.842 944.723L-107.76 951.593L-114.367 958.17C-114.367 958.17 -128.37 944.195 -177.453 895.109Z" fill="#31313E"/>
<path opacity="0.6" d="M437 451L-96 -82L-808 630L-275 1163L437 451Z" fill="white"/>
</g>
</g>
<defs>
<filter id="filter0_d_361_1238" x="-4" y="0" width="1448" height="808" filterUnits="userSpaceOnUse" color-interpolation-filters="sRGB">
<feFlood flood-opacity="0" result="BackgroundImageFix"/>
<feColorMatrix in="SourceAlpha" type="matrix" values="0 0 0 0 0 0 0 0 0 0 0 0 0 0 0 0 0 0 127 0" result="hardAlpha"/>
<feOffset dy="4"/>
<feGaussianBlur stdDeviation="2"/>
<feComposite in2="hardAlpha" operator="out"/>
<feColorMatrix type="matrix" values="0 0 0 0 0 0 0 0 0 0 0 0 0 0 0 0 0 0 0.25 0"/>
<feBlend mode="normal" in2="BackgroundImageFix" result="effect1_dropShadow_361_1238"/>
<feBlend mode="normal" in="SourceGraphic" in2="effect1_dropShadow_361_1238" result="shape"/>
</filter>
<clipPath id="clip0_361_1238">
<rect width="1440" height="800" fill="white"/>
</clipPath>
<clipPath id="clip1_361_1238">
<rect width="754.042" height="1006.45" fill="white" transform="translate(-96.3345 -82) rotate(45)"/>
</clipPath>
</defs>
</svg>
