<svg width="1440" height="800" viewBox="0 0 1440 800" fill="none" xmlns="http://www.w3.org/2000/svg">
<g clip-path="url(#clip0_206_1387)">
<g clip-path="url(#clip1_206_1387)">
<path d="M152.189 872.015L-25.5576 694.269L-203.281 871.992L-25.5338 1049.74L152.189 872.015Z" fill="#08E6E7"/>
<path d="M-99.5933 836.596C-73.4004 845.397 -9.58475 863.791 -9.58475 863.791L4.06649 854.701L28.2433 885.251C34.8209 893.583 46.8649 895.689 55.4882 889.522C57.6601 887.973 59.4944 885.999 60.8798 883.72C62.2652 881.441 63.1726 878.903 63.5471 876.262C63.9216 873.621 63.7552 870.931 63.0581 868.356C62.361 865.782 61.1477 863.375 59.4919 861.283L36.9233 832.75L61.8871 811.091C63.5152 810.006 65.3849 809.337 67.332 809.144C69.2791 808.95 71.244 809.238 73.054 809.981C102.667 821.911 117.957 845.094 123.804 856.145C124.747 857.923 125.185 859.925 125.072 861.935C124.959 863.944 124.298 865.884 123.161 867.545C112.784 882.862 63.6171 944.831 42.3951 967.192C30.4979 979.732 21.8159 985.811 15.8819 988.705C13.4167 989.902 10.6617 990.373 7.9388 990.062C5.21588 989.751 2.6376 988.671 0.505371 986.949C-11.5681 977.243 -131.69 858.284 -131.719 858.108C-133.561 848.607 -128.943 842.761 -123.242 839.166C-119.736 837.016 -115.796 835.669 -111.707 835.225C-107.617 834.781 -103.48 835.249 -99.5933 836.596L-99.5933 836.596Z" fill="white"/>
<path d="M-98.7165 832.942C-75.3886 840.778 -21.8337 856.306 -10.8712 859.493L4.44626 849.263L31.1955 883.03C33.7119 886.236 37.3445 888.377 41.3688 889.023C45.2287 889.655 49.1814 888.73 52.3601 886.452C52.5782 886.326 52.7838 886.179 52.9741 886.014C56.0381 883.577 58.0539 880.061 58.6082 876.185C59.1624 872.31 58.2131 868.369 55.9549 865.171C55.838 865.025 55.6917 864.82 55.4872 864.557L30.2872 832.72L58.4667 808.284L58.9051 807.934C61.1227 806.448 63.6735 805.534 66.3301 805.274C68.9928 805.015 71.6789 805.396 74.1646 806.386C85.3466 810.913 95.6321 817.398 104.538 825.536C113.671 833.89 121.331 843.724 127.195 854.625C128.502 857.118 129.108 859.92 128.948 862.731C128.789 865.541 127.87 868.256 126.289 870.586C120.501 879.092 102.904 901.833 84.7223 924.282C69.9311 942.522 54.7017 960.616 45.0551 970.788C40.1058 976.093 34.7818 981.036 29.124 985.578C25.4598 988.519 21.5024 991.076 17.3144 993.207C14.0913 994.774 10.4885 995.392 6.92706 994.988C3.36562 994.584 -0.007405 993.174 -2.7979 990.924C-7.03676 987.533 -24.2263 971.044 -44.8653 950.901C-84.2725 912.515 -136.572 859.715 -136.601 859.482C-137.719 854.554 -137.067 849.39 -134.76 844.895C-132.73 841.208 -129.753 838.131 -126.137 835.98C-122.125 833.449 -117.583 831.878 -112.865 831.391C-108.092 830.87 -103.263 831.399 -98.7165 832.942L-98.7165 832.942ZM-11.3677 868.585C-11.5432 868.526 -75.1835 850.191 -101.552 841.331C-104.887 840.2 -108.429 839.81 -111.929 840.19C-115.299 840.528 -118.542 841.649 -121.401 843.463C-123.701 844.794 -125.607 846.71 -126.926 849.017C-128.273 851.734 -128.625 854.837 -127.919 857.787C-127.919 857.816 -77.2276 907.049 -38.6975 944.587C-18.263 964.467 -1.3366 980.752 2.75611 984.055C4.24871 985.234 6.04063 985.973 7.93027 986.19C9.80478 986.42 11.7056 986.095 13.3969 985.255C17.0346 983.415 20.4646 981.191 23.6281 978.62C28.9725 974.348 33.9944 969.688 38.6531 964.677C48.0656 954.768 63.1198 936.821 77.8523 918.698C95.888 896.425 113.31 873.946 118.981 865.586C119.664 864.593 120.059 863.429 120.121 862.224C120.202 861.026 119.939 859.828 119.36 858.775C113.996 848.755 106.968 839.719 98.5749 832.054C90.4422 824.643 81.059 818.733 70.8617 814.6C69.7145 814.131 68.4677 813.96 67.2369 814.102C66.0927 814.195 64.9886 814.566 64.0212 815.184L42.5067 833.861L62.4443 859.062C62.6946 859.361 62.9289 859.673 63.1461 859.997L63.146 860.027C66.7465 865.061 68.2723 871.287 67.4072 877.415C66.5421 883.543 63.3524 889.103 58.4992 892.942C58.2069 893.176 57.8853 893.41 57.5346 893.673C52.4474 897.275 46.1484 898.733 39.9952 897.735C33.7795 896.753 28.1573 893.478 24.2383 888.554L2.57591 861.19L-9.38 869.14L-11.3677 868.585Z" fill="#31313E"/>
<path d="M507.934 522.062L330.188 344.315L152.465 522.038L330.211 699.785L507.934 522.062Z" fill="#39175F"/>
<path d="M419.063 433.191C407.393 444.861 393.539 454.117 378.292 460.432C363.044 466.746 346.701 469.996 330.197 469.994C313.693 469.992 297.35 466.74 282.102 460.423C266.854 454.105 252.999 444.846 241.328 433.174L330.192 344.315L419.063 433.191Z" fill="#ED553B"/>
<path d="M335.81 464.755C337.559 461.909 338.505 458.642 338.546 455.301C338.587 451.96 337.722 448.671 336.043 445.783C337.131 445.78 338.202 445.51 339.161 444.994C340.119 444.479 340.936 443.736 341.539 442.829C342.141 441.923 342.511 440.882 342.615 439.799C342.719 438.715 342.554 437.623 342.135 436.618C341.716 435.614 341.056 434.728 340.213 434.04C339.37 433.351 338.37 432.882 337.302 432.672C336.234 432.462 335.131 432.519 334.09 432.838C333.049 433.156 332.103 433.727 331.336 434.498C330.723 435.107 330.237 435.831 329.905 436.629C329.574 437.427 329.405 438.282 329.407 439.146C326.507 437.464 323.206 436.6 319.855 436.646C316.504 436.692 313.228 437.646 310.376 439.407C309.963 438.766 309.675 438.052 309.528 437.303C309.248 435.975 309.434 434.592 310.055 433.386C310.294 432.858 310.396 432.278 310.349 431.7C310.303 431.122 310.111 430.565 309.791 430.082C309.382 429.381 308.943 428.65 308.534 427.919C308.427 427.729 308.269 427.573 308.077 427.469C307.885 427.366 307.668 427.319 307.45 427.334C307.233 427.35 307.024 427.426 306.848 427.556C306.673 427.685 306.538 427.862 306.459 428.065C302.805 437.39 293.276 459.898 293.276 459.898L287.897 465.539L278.338 464.369L275.562 479.424L227.505 520.14L217.273 519.35L190.263 532.181L183.188 529.315L176.348 536.126L239.055 598.836L245.603 592.259L244.579 585.448L255.277 557.736L254.838 547.885L295.324 499.538L310.437 496.499L310.115 487.466L315.581 482.205L346.889 468.322C347.083 468.233 347.25 468.092 347.37 467.916C347.491 467.739 347.561 467.533 347.573 467.32C347.585 467.106 347.538 466.893 347.438 466.704C347.339 466.515 347.189 466.357 347.006 466.246C346.45 465.925 345.807 465.545 345.047 465.077C344.543 464.751 343.963 464.561 343.364 464.525C342.765 464.489 342.167 464.609 341.627 464.872C340.723 465.332 339.718 465.562 338.704 465.542C337.689 465.521 336.695 465.251 335.81 464.755L335.81 464.755Z" fill="#ED553B"/>
<path fill-rule="evenodd" clip-rule="evenodd" d="M335.809 464.755C337.559 461.909 338.505 458.642 338.546 455.301C338.587 451.96 337.722 448.671 336.042 445.783C337.131 445.78 338.202 445.51 339.16 444.994C340.119 444.479 340.936 443.736 341.538 442.829C342.141 441.923 342.511 440.882 342.615 439.799C342.719 438.715 342.554 437.623 342.135 436.618C341.716 435.614 341.056 434.728 340.212 434.04C339.369 433.351 338.37 432.881 337.302 432.672C336.234 432.462 335.13 432.519 334.09 432.838C333.049 433.156 332.103 433.727 331.336 434.498C330.722 435.107 330.236 435.831 329.905 436.629C329.574 437.427 329.404 438.282 329.406 439.146C326.507 437.464 323.206 436.6 319.855 436.646C316.503 436.692 313.227 437.646 310.376 439.407C309.962 438.766 309.675 438.052 309.528 437.303C309.248 435.975 309.434 434.592 310.054 433.386C310.294 432.858 310.395 432.278 310.349 431.7C310.303 431.122 310.111 430.565 309.791 430.082C309.382 429.381 308.943 428.65 308.534 427.919C308.427 427.729 308.268 427.573 308.076 427.469C307.885 427.366 307.667 427.319 307.45 427.334C307.232 427.35 307.023 427.426 306.848 427.556C306.672 427.685 306.537 427.862 306.458 428.065C302.804 437.39 293.276 459.898 293.276 459.898L287.897 465.539L278.338 464.369L275.561 479.424L227.504 520.14L217.273 519.35L190.262 532.181L183.188 529.315L176.348 536.126L239.054 598.836L245.602 592.259L244.579 585.448L255.277 557.736L254.838 547.885L295.323 499.538L310.436 496.499L310.115 487.466L315.581 482.205L346.889 468.322C347.083 468.233 347.249 468.092 347.37 467.916C347.49 467.739 347.56 467.533 347.572 467.32C347.584 467.106 347.538 466.893 347.438 466.704C347.338 466.515 347.189 466.357 347.005 466.246C346.45 465.925 345.807 465.545 345.047 465.077C344.543 464.751 343.963 464.561 343.364 464.525C342.764 464.489 342.166 464.609 341.627 464.872C340.722 465.332 339.718 465.562 338.703 465.542C337.689 465.521 336.695 465.251 335.809 464.755L335.809 464.755ZM344.929 455.401C344.9 456.366 344.842 457.33 344.725 458.266C346.031 458.496 347.281 458.972 348.408 459.669C348.788 459.903 349.11 460.108 349.373 460.254L350.221 460.751C351.578 461.553 352.651 462.759 353.29 464.201C353.78 465.288 354 466.477 353.934 467.667C353.868 468.858 353.517 470.015 352.911 471.041C352.246 472.198 351.275 473.149 350.104 473.789C349.896 473.917 349.682 474.034 349.461 474.14L319.177 487.584L316.575 490.068L316.809 496.149C316.89 497.672 316.42 499.174 315.487 500.381C314.554 501.588 313.218 502.42 311.723 502.725L298.802 505.355L261.298 550.107L261.62 556.918C261.74 557.976 261.61 559.048 261.24 560.046L251.127 586.179L251.916 591.295L251.887 591.295C252.047 592.282 251.969 593.294 251.659 594.244C251.348 595.195 250.815 596.058 250.104 596.761L243.556 603.338C242.362 604.531 240.743 605.201 239.054 605.201C237.366 605.201 235.747 604.531 234.552 603.337L172.255 541.007C172.105 540.896 171.968 540.769 171.846 540.627C170.653 539.433 169.982 537.813 169.982 536.125C169.982 534.437 170.652 532.818 171.846 531.623L178.657 524.784L178.686 524.813C179.57 523.926 180.696 523.32 181.923 523.07C183.151 522.821 184.424 522.939 185.585 523.41L190.057 525.252L214.525 513.591C215.533 513.104 216.655 512.902 217.769 513.007L225.37 513.592L269.714 476.032L272.082 463.228C272.366 461.632 273.252 460.205 274.558 459.242C275.863 458.28 277.488 457.855 279.097 458.055L285.47 458.845L287.838 456.389C289.767 451.829 297.484 433.472 300.524 425.755C301.031 424.425 301.909 423.269 303.055 422.424C304.2 421.58 305.564 421.082 306.984 420.99C308.108 420.907 309.237 421.077 310.287 421.488C311.906 422.103 313.253 423.274 314.088 424.791C314.322 425.201 314.526 425.551 314.672 425.785C314.702 425.873 314.935 426.224 315.257 426.809C315.941 427.948 316.397 429.208 316.602 430.521C317.648 430.371 318.703 430.293 319.759 430.288C321.835 430.248 323.908 430.474 325.927 430.961C326.22 430.61 326.512 430.288 326.834 429.967L326.834 429.996C328.038 428.785 329.469 427.823 331.045 427.166C332.622 426.509 334.312 426.17 336.02 426.167C337.728 426.165 339.42 426.5 340.998 427.152C342.577 427.805 344.011 428.763 345.219 429.971C346.427 431.178 347.384 432.613 348.037 434.191C348.689 435.769 349.024 437.461 349.021 439.169C349.019 440.877 348.679 442.568 348.022 444.144C347.365 445.721 346.404 447.152 345.192 448.356L345.221 448.356C344.9 448.677 344.578 448.969 344.228 449.262C344.709 451.272 344.945 453.334 344.929 455.401L344.929 455.401Z" fill="#173F5F"/>
<path d="M250.222 610.091C252.356 607.987 257.091 603.222 257.091 603.222L264.224 606.146L291.41 593.199L301.7 593.989L362.385 540.703L365.191 525.561L374.779 526.731L380.187 521.061L394.363 486.655L411.114 503.407L420.147 494.404L410.412 484.669L419.269 475.812L429.004 485.518L436.78 477.772L445.638 486.631L437.891 494.406L447.597 504.112L438.74 512.998L429.005 503.263L419.972 512.295L436.256 528.579L402.639 543.484L397.143 548.804L397.465 557.866L382.264 560.934L329.18 621.909L329.619 631.819L318.833 659.706L319.915 666.576L313.308 673.152C313.308 673.152 299.305 659.178 250.222 610.091Z" fill="#FF9EF6"/>
<path fill-rule="evenodd" clip-rule="evenodd" d="M245.72 605.56L252.56 598.72L255.571 595.709L259.517 597.318L263.99 599.13L288.633 587.44L290.182 586.68L291.907 586.826L299.478 587.412L356.48 537.341L358.876 524.391L359.987 518.487L365.951 519.218L372.382 519.979L374.72 517.523L388.429 484.229L392.112 475.313L398.894 482.125L401.409 484.639L405.881 480.138L414.767 471.281L419.298 466.75L423.83 471.253L429.004 476.456L432.219 473.241L436.75 468.711L441.282 473.242L450.169 482.13L454.671 486.632L450.169 491.163L446.924 494.378L452.157 499.582L456.659 504.113L452.128 508.644L443.271 517.5L438.769 522.002L440.816 524.019L447.393 530.626L438.858 534.426L406.264 548.893L403.662 551.407L403.867 557.633L404.072 563.071L398.751 564.122L385.685 566.781L335.699 624.219L336.021 631.556L336.079 632.93L335.612 634.158L325.44 660.437L326.229 665.582L326.726 668.827L324.446 671.107L317.84 677.713L313.309 682.244L308.778 677.712L245.691 614.622L241.16 610.12L245.72 605.56ZM250.222 610.091C252.356 607.987 257.091 603.222 257.091 603.222L264.224 606.146L291.41 593.199L301.7 593.989L362.385 540.704L365.191 525.561L374.779 526.732L380.187 521.061L394.363 486.655L411.114 503.407L420.147 494.404L410.412 484.669L419.269 475.812L429.004 485.519L436.78 477.773L445.638 486.631L437.891 494.406L447.597 504.112L438.74 512.998L429.005 503.263L419.972 512.295L436.256 528.579L402.639 543.485L397.143 548.804L397.465 557.866L382.264 560.935L329.18 621.909L329.619 631.819L318.833 659.706L319.915 666.576L313.308 673.152C313.308 673.152 299.306 659.178 250.222 610.091Z" fill="#173F5F"/>
<path d="M507.934 522.062L330.188 344.315L152.465 522.038L330.211 699.785L507.934 522.062Z" fill="#31313E"/>
<path d="M419.063 433.191C407.393 444.861 393.539 454.117 378.292 460.432C363.044 466.746 346.701 469.996 330.197 469.994C313.693 469.992 297.35 466.74 282.102 460.423C266.854 454.105 252.999 444.846 241.328 433.174L330.192 344.315L419.063 433.191Z" fill="#ED553B"/>
<path d="M335.81 464.755C337.559 461.909 338.505 458.642 338.546 455.301C338.587 451.96 337.722 448.671 336.043 445.783C337.131 445.78 338.202 445.51 339.161 444.994C340.119 444.479 340.936 443.736 341.539 442.829C342.141 441.923 342.511 440.882 342.615 439.799C342.719 438.715 342.554 437.623 342.135 436.618C341.716 435.614 341.056 434.728 340.213 434.04C339.37 433.351 338.37 432.882 337.302 432.672C336.234 432.462 335.131 432.519 334.09 432.838C333.049 433.156 332.103 433.727 331.336 434.498C330.723 435.107 330.237 435.831 329.905 436.629C329.574 437.427 329.405 438.282 329.407 439.146C326.507 437.464 323.206 436.6 319.855 436.646C316.504 436.692 313.228 437.646 310.376 439.407C309.963 438.766 309.675 438.052 309.528 437.303C309.248 435.975 309.434 434.592 310.055 433.386C310.294 432.858 310.396 432.278 310.349 431.7C310.303 431.122 310.111 430.565 309.791 430.082C309.382 429.381 308.943 428.65 308.534 427.919C308.427 427.729 308.269 427.573 308.077 427.469C307.885 427.366 307.668 427.319 307.45 427.334C307.233 427.35 307.024 427.426 306.848 427.556C306.673 427.685 306.538 427.862 306.459 428.065C302.805 437.39 293.276 459.898 293.276 459.898L287.897 465.539L278.338 464.369L275.562 479.424L227.505 520.14L217.273 519.35L190.263 532.181L183.188 529.315L176.348 536.126L239.055 598.836L245.603 592.259L244.579 585.448L255.277 557.736L254.838 547.885L295.324 499.538L310.437 496.499L310.115 487.466L315.581 482.205L346.889 468.322C347.083 468.233 347.25 468.092 347.37 467.916C347.491 467.739 347.561 467.533 347.573 467.32C347.585 467.106 347.538 466.893 347.438 466.704C347.339 466.515 347.189 466.357 347.006 466.246C346.45 465.925 345.807 465.545 345.047 465.077C344.543 464.751 343.963 464.561 343.364 464.525C342.765 464.489 342.167 464.609 341.627 464.872C340.723 465.332 339.718 465.562 338.704 465.542C337.689 465.521 336.695 465.251 335.81 464.755L335.81 464.755Z" fill="#ED553B"/>
<path fill-rule="evenodd" clip-rule="evenodd" d="M335.809 464.754C337.559 461.909 338.505 458.642 338.546 455.301C338.587 451.96 337.722 448.671 336.042 445.782C337.131 445.78 338.202 445.509 339.16 444.994C340.119 444.479 340.936 443.735 341.538 442.829C342.141 441.923 342.511 440.882 342.615 439.799C342.719 438.715 342.554 437.623 342.135 436.618C341.716 435.614 341.056 434.728 340.213 434.04C339.369 433.351 338.37 432.881 337.302 432.672C336.234 432.462 335.13 432.519 334.09 432.838C333.049 433.156 332.103 433.727 331.336 434.498C330.722 435.107 330.236 435.831 329.905 436.629C329.574 437.427 329.404 438.282 329.406 439.146C326.507 437.464 323.206 436.6 319.855 436.646C316.503 436.692 313.227 437.646 310.376 439.407C309.962 438.766 309.675 438.051 309.528 437.302C309.248 435.975 309.434 434.592 310.054 433.385C310.294 432.858 310.395 432.278 310.349 431.7C310.303 431.122 310.111 430.565 309.791 430.082C309.382 429.38 308.943 428.65 308.534 427.919C308.427 427.729 308.268 427.573 308.077 427.469C307.885 427.366 307.667 427.319 307.45 427.334C307.232 427.349 307.024 427.426 306.848 427.556C306.672 427.685 306.537 427.861 306.458 428.065C302.805 437.39 293.276 459.898 293.276 459.898L287.897 465.539L278.338 464.369L275.561 479.424L227.504 520.14L217.273 519.35L190.262 532.18L183.188 529.315L176.348 536.126L239.054 598.836L245.602 592.259L244.579 585.448L255.277 557.736L254.838 547.885L295.323 499.538L310.437 496.499L310.115 487.466L315.581 482.204L346.889 468.322C347.083 468.233 347.249 468.092 347.37 467.916C347.49 467.739 347.56 467.533 347.572 467.319C347.584 467.106 347.538 466.893 347.438 466.704C347.338 466.515 347.189 466.357 347.005 466.246C346.45 465.925 345.807 465.545 345.047 465.077C344.543 464.751 343.963 464.561 343.364 464.525C342.764 464.489 342.166 464.609 341.627 464.872C340.722 465.332 339.718 465.562 338.703 465.542C337.689 465.521 336.695 465.251 335.809 464.754L335.809 464.754ZM345.134 455.401C345.134 456.3 345.076 457.199 344.959 458.09C346.23 458.329 347.448 458.794 348.555 459.465C348.905 459.698 349.227 459.903 349.49 460.049L350.338 460.546C351.74 461.373 352.845 462.621 353.495 464.113C353.984 465.236 354.204 466.458 354.138 467.681C354.072 468.904 353.722 470.094 353.115 471.158C352.429 472.351 351.428 473.332 350.221 473.993C350.013 474.139 349.787 474.257 349.549 474.344L319.323 487.759L316.838 490.156L317.043 496.149C317.121 497.729 316.63 499.285 315.66 500.534C314.689 501.784 313.303 502.644 311.752 502.959L298.919 505.56L261.532 550.195L261.854 556.889C261.981 557.988 261.84 559.101 261.445 560.134L251.361 586.208L252.15 591.266H252.121C252.287 592.289 252.207 593.338 251.887 594.324C251.566 595.31 251.016 596.206 250.28 596.937L243.703 603.484C243.093 604.096 242.368 604.581 241.571 604.912C240.773 605.243 239.918 605.413 239.055 605.413C238.191 605.413 237.336 605.242 236.538 604.911C235.741 604.58 235.016 604.095 234.407 603.483L172.109 541.212C171.963 541.065 171.817 540.949 171.671 540.802C170.435 539.559 169.741 537.878 169.741 536.125C169.741 534.372 170.435 532.691 171.67 531.448L178.511 524.637C179.433 523.723 180.603 523.101 181.876 522.846C183.15 522.592 184.47 522.717 185.673 523.206L190.028 524.989L214.437 513.386C215.478 512.87 216.643 512.658 217.799 512.773L225.282 513.329L269.51 475.886L271.848 463.199C272.149 461.545 273.069 460.067 274.422 459.068C275.774 458.068 277.457 457.622 279.127 457.821L285.412 458.582L287.634 456.243C289.592 451.654 297.309 433.355 300.319 425.667C300.958 423.998 302.157 422.603 303.71 421.721C304.721 421.172 305.837 420.843 306.984 420.757C308.137 420.673 309.295 420.843 310.375 421.254C312.035 421.91 313.418 423.118 314.293 424.674C314.526 425.084 314.731 425.435 314.877 425.668C314.906 425.756 315.111 426.107 315.462 426.692C316.115 427.793 316.57 429 316.807 430.258C317.786 430.131 318.772 430.063 319.759 430.054C321.805 430.019 323.847 430.235 325.84 430.698C326.097 430.391 326.37 430.099 326.658 429.82L326.687 429.82C327.913 428.59 329.369 427.613 330.973 426.946C332.576 426.278 334.296 425.934 336.033 425.932C337.77 425.931 339.49 426.272 341.095 426.936C342.701 427.6 344.159 428.574 345.387 429.802C346.616 431.03 347.59 432.489 348.253 434.094C348.917 435.699 349.258 437.42 349.256 439.157C349.255 440.894 348.91 442.613 348.243 444.217C347.576 445.82 346.599 447.277 345.368 448.502L345.397 448.531C345.109 448.819 344.807 449.092 344.491 449.35C344.953 451.333 345.169 453.365 345.134 455.401L345.134 455.401Z" fill="#31313E"/>
<path d="M250.222 610.091C252.356 607.987 257.091 603.222 257.091 603.222L264.224 606.146L291.41 593.199L301.7 593.989L362.385 540.703L365.191 525.561L374.779 526.731L380.187 521.061L394.363 486.655L411.114 503.407L420.147 494.404L410.412 484.669L419.269 475.812L429.004 485.518L436.78 477.772L445.638 486.631L437.891 494.406L447.597 504.112L438.74 512.998L429.005 503.263L419.972 512.295L436.256 528.579L402.639 543.484L397.143 548.804L397.465 557.866L382.264 560.934L329.18 621.909L329.619 631.819L318.833 659.706L319.915 666.576L313.308 673.152C313.308 673.152 299.305 659.178 250.222 610.091Z" fill="#FEA49C"/>
<path fill-rule="evenodd" clip-rule="evenodd" d="M245.573 605.443L252.443 598.574L255.541 595.475L259.576 597.142L263.99 598.925L288.545 587.264L290.152 586.504L291.906 586.621L299.419 587.206L356.304 537.253L358.701 524.362L359.811 518.282L365.979 519.013L372.294 519.773L374.545 517.406L388.253 484.14L392.024 474.991L399.04 481.978L401.408 484.346L405.764 480.02L414.621 471.134L419.298 466.458L423.946 471.135L429.003 476.164L432.102 473.095L436.75 468.447L441.427 473.125L450.285 481.983L454.962 486.631L450.285 491.308L447.216 494.377L452.274 499.435L456.951 504.113L452.274 508.79L443.387 517.646L439.061 522.001L440.932 523.902L447.744 530.684L438.945 534.601L406.38 549.039L403.866 551.494L404.071 557.633L404.276 563.216L398.78 564.327L385.772 566.957L335.874 624.277L336.225 631.527L336.283 632.988L335.787 634.216L325.644 660.466L326.433 665.553L326.93 668.885L324.592 671.253L317.986 677.83L313.308 682.506L308.631 677.829L245.544 614.768L240.896 610.119L245.573 605.443ZM250.221 610.091C252.355 607.986 257.091 603.222 257.091 603.222L264.224 606.146L291.41 593.198L301.7 593.989L362.385 540.703L365.191 525.561L374.779 526.731L380.187 521.061L394.363 486.655L411.114 503.407L420.147 494.404L410.412 484.669L419.269 475.812L429.004 485.518L436.779 477.772L445.637 486.631L437.891 494.406L447.597 504.112L438.739 512.998L429.005 503.263L419.972 512.295L436.255 528.579L402.638 543.484L397.143 548.804L397.465 557.866L382.264 560.934L329.18 621.908L329.618 631.818L318.833 659.705L319.915 666.575L313.308 673.152C313.308 673.152 299.305 659.177 250.221 610.091Z" fill="#31313E"/>
<path d="M330.921 345.04L153.175 167.293L-24.5484 345.016L153.198 522.762L330.921 345.04Z" fill="#ED553B"/>
<path d="M65.0518 434.616C76.7214 422.947 90.5756 413.69 105.823 407.376C121.071 401.061 137.414 397.812 153.918 397.813C170.422 397.815 186.765 401.067 202.013 407.385C217.261 413.702 231.116 422.961 242.787 434.633L153.923 523.492L65.0518 434.616Z" fill="#31313E"/>
<path d="M-98.9538 92.961C-51.5987 45.6085 19.7873 40.2364 60.51 80.9322C37.7657 58.1866 6.91851 45.4066 -25.2455 45.4036C-57.4096 45.4005 -88.2557 58.1747 -110.998 80.916C-133.741 103.657 -146.517 134.503 -146.515 166.667C-146.514 198.831 -133.736 229.679 -110.991 252.424C-151.714 211.728 -146.309 140.314 -98.9539 92.9611L-98.9538 92.961Z" fill="#ED553B"/>
<path d="M48.4726 240.425C1.1175 287.777 -70.2686 293.149 -110.991 252.425C-151.714 211.729 -146.309 140.314 -98.9536 92.9613C-51.5985 45.6088 19.7875 40.2367 60.5102 80.9324C101.233 121.658 95.8277 193.043 48.4726 240.425Z" fill="#08E6E7"/>
<path d="M10.934 130.507L14.6753 126.765L-57.7933 115.269L-91.1155 180.66L-79.8899 191.857L-46.5962 126.496L10.934 130.507Z" fill="#FFFEF8"/>
<path d="M57.4118 84.0602C41.0693 67.7109 20.2462 56.5743 -2.42404 52.0586C-25.0943 47.5429 -48.5937 49.8509 -69.9504 58.6909C-91.3072 67.5308 -109.562 82.5056 -122.407 101.722C-135.252 120.938 -142.109 143.532 -142.112 166.647C-142.115 189.762 -135.264 212.36 -122.425 231.583C-109.585 250.805 -91.3346 265.79 -69.9803 274.642C-48.626 283.493 -25.1273 285.814 -2.45575 281.311C20.2158 276.807 41.0419 265.682 57.389 249.342C79.2798 227.414 91.5764 197.697 91.5807 166.71C91.585 135.724 79.2966 106 57.4118 84.0602ZM-114.09 255.552C-134.647 234.994 -147.441 207.945 -150.292 179.014C-153.143 150.083 -145.875 121.06 -129.725 96.8893C-113.576 72.7188 -89.5453 54.8966 -61.727 46.4591C-33.9086 38.0217 -4.02403 39.4911 22.835 50.6169C49.6941 61.7428 71.8658 81.8368 85.5726 107.475C99.2794 133.114 103.673 162.71 98.0053 191.223C92.3375 219.735 76.9588 245.398 54.4894 263.841C32.0199 282.284 3.84995 292.364 -25.2209 292.364C-41.731 292.407 -58.086 289.175 -73.34 282.856C-88.594 276.537 -102.444 267.257 -114.09 255.552Z" fill="#31313E"/>
<path d="M-85.7371 179.813L-38.3783 227.174L21.3137 196.778L10.8459 130.623L-55.3374 120.122L-85.7371 179.813ZM-42.3244 235.681L-94.2144 183.788C-94.8674 183.127 -95.2974 182.278 -95.4442 181.361C-95.591 180.444 -95.4473 179.503 -95.0331 178.672L-61.7104 113.281C-61.2962 112.452 -60.6268 111.777 -59.8008 111.357C-58.9747 110.936 -58.0355 110.791 -57.1209 110.943L15.3765 122.409C16.295 122.562 17.1421 123.001 17.7979 123.662C18.4537 124.323 18.885 125.173 19.0307 126.093L30.5221 198.562C30.6592 199.483 30.5045 200.423 30.0799 201.251C29.6552 202.08 28.9819 202.754 28.1544 203.18L-37.2086 236.47C-38.035 236.897 -38.9757 237.051 -39.8951 236.909C-40.8144 236.767 -41.6651 236.337 -42.3243 235.681L-42.3244 235.681Z" fill="#563F42"/>
<path d="M63.6376 84.3523L57.4106 78.1254L11.8692 123.667L18.0962 129.894L63.6376 84.3523Z" fill="#31313E"/>
<path d="M23.6816 202.653L27.6866 194.791L81.9719 222.479L77.9676 230.313L23.6816 202.653Z" fill="#31313E"/>
<path d="M-85.7371 179.813L-38.3783 227.174L21.3137 196.778L10.8459 130.623L-55.3374 120.122L-85.7371 179.813ZM-42.3244 235.681L-94.2144 183.788C-94.8674 183.127 -95.2974 182.278 -95.4442 181.361C-95.591 180.444 -95.4473 179.503 -95.0331 178.672L-61.7104 113.281C-61.2962 112.452 -60.6268 111.777 -59.8008 111.357C-58.9747 110.936 -58.0355 110.791 -57.1209 110.943L15.3765 122.409C16.295 122.562 17.1421 123.001 17.7979 123.662C18.4537 124.323 18.885 125.173 19.0307 126.093L30.5221 198.562C30.6592 199.483 30.5045 200.423 30.0799 201.251C29.6552 202.08 28.9819 202.754 28.1544 203.18L-37.2086 236.47C-38.035 236.897 -38.9757 237.051 -39.8951 236.909C-40.8144 236.767 -41.6651 236.337 -42.3243 235.681L-42.3244 235.681Z" fill="#31313E"/>
<path d="M48.223 595.543C95.5781 548.191 101.071 476.893 60.4653 436.285C83.2096 459.031 95.9879 489.878 95.9892 522.043C95.9904 554.207 83.2145 585.052 60.4719 607.793C37.7294 630.535 6.88318 643.309 -25.2809 643.306C-57.4449 643.303 -88.2921 630.523 -111.036 607.777C-70.4305 648.385 0.867795 642.896 48.2229 595.544L48.223 595.543Z" fill="#FCF9D3"/>
<path d="M-98.7937 448.548C-146.149 495.9 -151.642 567.198 -111.036 607.777C-70.4301 648.385 0.868187 642.896 48.2233 595.544C95.5785 548.191 101.071 476.893 60.4656 436.285C19.8597 395.706 -51.4386 401.166 -98.7937 448.548Z" fill="#FF9A00"/>
<path d="M57.367 439.413C73.7153 455.756 84.8508 476.58 89.3652 499.25C93.8797 521.921 91.5703 545.42 82.7291 566.776C73.888 588.133 58.9122 606.387 39.6955 619.23C20.4788 632.074 -2.11571 638.93 -25.2308 638.932C-48.3458 638.934 -70.9433 632.081 -90.1655 619.241C-109.388 606.401 -124.371 588.149 -133.222 566.794C-142.072 545.439 -144.392 521.94 -139.887 499.269C-135.382 476.598 -124.256 455.772 -107.915 439.426C-85.987 417.534 -56.2683 405.238 -25.2812 405.235C5.70593 405.233 35.4298 417.525 57.367 439.413ZM-114.134 610.905C-93.5776 631.463 -66.5294 644.258 -37.5986 647.111C-8.66773 649.963 20.3559 642.697 44.5271 626.549C68.6984 610.401 86.522 586.371 94.9609 558.553C103.4 530.735 101.932 500.851 90.8076 473.991C79.6832 447.132 59.5905 424.959 33.9528 411.251C8.31519 397.543 -21.2812 393.147 -49.7936 398.813C-78.306 404.48 -103.97 419.857 -122.414 442.325C-140.858 464.794 -150.94 492.963 -150.942 522.034C-150.995 538.545 -147.768 554.903 -141.45 570.159C-135.131 585.415 -125.847 599.264 -114.134 610.905Z" fill="#F5FFFF"/>
<path d="M-55.7558 643.125L-49.1202 637.337C-62.1878 622.34 -67.8303 606.319 -65.8724 589.745C-62.1609 558.291 -32.3738 533.124 -24.5982 527.045C13.7849 541.606 44.479 534.184 63.626 525.27C84.7901 515.391 96.5119 501.857 97.0088 501.302L90.3143 495.572C90.2266 495.689 79.1187 508.404 59.5623 517.435C33.5458 529.447 5.54086 529.62 -23.6338 517.953C-24.321 517.677 -25.0665 517.577 -25.802 517.664C-26.5376 517.751 -27.2395 518.021 -27.8434 518.45C-29.5388 519.677 -69.8788 548.731 -74.6129 588.691C-76.8922 607.839 -70.5481 626.168 -55.7558 643.125L-55.7558 643.125Z" fill="#F5FFFF"/>
<path d="M-28.2816 521.578L-19.6581 519.766C-23.4822 503.291 -29.3351 487.354 -37.0827 472.32C-53.805 440.396 -76.1687 423.263 -101.806 422.705L-101.981 431.505C-79.5009 431.974 -60.3237 447.031 -44.9754 476.236C-37.6029 490.622 -31.9976 505.846 -28.2816 521.577L-28.2816 521.578Z" fill="#F5FFFF"/>
<path d="M40.8834 528.016L49.5947 526.672C46.1998 507.978 40.6468 489.741 33.047 472.326C25.7382 455.517 16.9677 441.017 7.02809 429.177C-5.54255 414.208 -20.0716 403.478 -36.1206 397.309L-39.2774 405.523C-5.92236 418.33 14.074 450.839 24.9788 475.834C32.2555 492.563 37.5919 510.072 40.8834 528.016Z" fill="white"/>
<path d="M-70.1111 581.384C-69.2634 581.91 -49.3846 594.131 -19.567 598.724C-2.41116 601.43 15.0996 600.896 32.0578 597.15C52.9006 592.504 72.72 582.771 90.9313 568.303L85.4353 561.403C54.3619 586.102 19.6047 595.746 -17.8719 590.071C-46.0231 585.8 -65.2587 574.018 -65.4341 573.901L-70.1111 581.384Z" fill="#F5FFFF"/>
<path d="M152.435 522.028L-25.312 344.281L-203.035 522.004L-25.2882 699.751L152.435 522.028Z" fill="#08E6E7"/>
<path d="M63.5125 610.834C42.9541 631.372 15.9095 644.147 -13.0136 646.981C-41.9368 649.814 -70.9491 642.532 -95.1076 626.374C-119.266 610.216 -137.076 586.183 -145.503 558.368C-153.931 530.554 -152.454 500.679 -141.324 473.834C-130.194 446.989 -110.101 424.835 -84.4665 411.145C-58.8323 397.456 -29.2435 393.079 -0.741291 398.759C27.7609 404.44 53.4132 419.827 71.845 442.299C90.2768 464.771 100.348 492.937 100.342 521.999C100.31 555.32 87.0657 587.267 63.5125 610.834Z" fill="#ED553B"/>
<path d="M48.223 595.543C95.5781 548.191 101.071 476.893 60.4653 436.285C83.2096 459.031 95.9879 489.878 95.9892 522.043C95.9904 554.207 83.2145 585.052 60.4719 607.793C37.7294 630.535 6.88318 643.309 -25.2809 643.306C-57.4449 643.303 -88.2921 630.523 -111.036 607.777C-70.4305 648.385 0.867795 642.896 48.2229 595.544L48.223 595.543Z" fill="#08E6E7"/>
<path d="M-98.7937 448.548C-146.149 495.9 -151.642 567.198 -111.036 607.777C-70.4301 648.385 0.868187 642.896 48.2233 595.544C95.5785 548.191 101.071 476.893 60.4656 436.285C19.8597 395.706 -51.4386 401.166 -98.7937 448.548Z" fill="#FF9A00"/>
<path d="M57.367 439.413C73.7153 455.756 84.8508 476.58 89.3652 499.25C93.8797 521.921 91.5703 545.42 82.7291 566.776C73.888 588.133 58.9122 606.387 39.6955 619.23C20.4788 632.074 -2.11571 638.93 -25.2308 638.932C-48.3458 638.934 -70.9433 632.081 -90.1655 619.241C-109.388 606.401 -124.371 588.149 -133.222 566.794C-142.072 545.439 -144.392 521.94 -139.887 499.269C-135.382 476.598 -124.256 455.772 -107.915 439.426C-85.987 417.534 -56.2683 405.238 -25.2812 405.235C5.70593 405.233 35.4298 417.525 57.367 439.413ZM-114.134 610.905C-93.5776 631.463 -66.5294 644.258 -37.5986 647.111C-8.66773 649.963 20.3559 642.697 44.5271 626.549C68.6984 610.401 86.522 586.371 94.9609 558.553C103.4 530.735 101.932 500.851 90.8076 473.991C79.6832 447.132 59.5905 424.959 33.9528 411.251C8.31519 397.543 -21.2812 393.147 -49.7936 398.813C-78.306 404.48 -103.97 419.857 -122.414 442.325C-140.858 464.794 -150.94 492.963 -150.942 522.034C-150.995 538.545 -147.768 554.903 -141.45 570.159C-135.131 585.415 -125.847 599.264 -114.134 610.905Z" fill="white"/>
<path d="M-55.7558 643.125L-49.1202 637.337C-62.1878 622.34 -67.8303 606.319 -65.8724 589.745C-62.1609 558.291 -32.3738 533.124 -24.5982 527.045C13.7849 541.606 44.479 534.184 63.626 525.27C84.7901 515.391 96.5119 501.857 97.0088 501.302L90.3143 495.572C90.2266 495.689 79.1187 508.404 59.5623 517.435C33.5458 529.447 5.54086 529.62 -23.6338 517.953C-24.321 517.677 -25.0665 517.577 -25.802 517.664C-26.5376 517.751 -27.2395 518.021 -27.8434 518.45C-29.5388 519.677 -69.8788 548.731 -74.6129 588.691C-76.8922 607.839 -70.5481 626.168 -55.7558 643.125L-55.7558 643.125Z" fill="#F5FFFF"/>
<path d="M-28.2816 521.578L-19.6581 519.766C-23.4822 503.291 -29.3351 487.354 -37.0827 472.32C-53.805 440.396 -76.1687 423.263 -101.806 422.705L-101.981 431.505C-79.5009 431.974 -60.3237 447.031 -44.9754 476.236C-37.6029 490.622 -31.9976 505.846 -28.2816 521.577L-28.2816 521.578Z" fill="#F5FFFF"/>
<path d="M40.8834 528.016L49.5947 526.672C46.1998 507.978 40.6468 489.741 33.047 472.326C25.7382 455.517 16.9677 441.017 7.02809 429.177C-5.54255 414.208 -20.0716 403.478 -36.1206 397.309L-39.2774 405.523C-5.92236 418.33 14.074 450.839 24.9788 475.834C32.2555 492.563 37.5919 510.072 40.8834 528.016Z" fill="white"/>
<path d="M-70.1111 581.384C-69.2634 581.91 -49.3846 594.131 -19.567 598.724C-2.41116 601.43 15.0996 600.896 32.0578 597.15C52.9006 592.504 72.72 582.771 90.9313 568.303L85.4353 561.403C54.3619 586.102 19.6047 595.746 -17.8719 590.071C-46.0231 585.8 -65.2587 574.018 -65.4341 573.901L-70.1111 581.384Z" fill="white"/>
<path d="M330.206 699.809L152.459 522.063L-25.2635 699.786L152.483 877.532L330.206 699.809Z" fill="#31313E"/>
<path d="M241.335 610.939C217.771 634.507 204.533 666.472 204.535 699.802C204.536 733.133 217.776 765.1 241.342 788.673L330.206 699.814L241.335 610.939Z" fill="#FE9900"/>
<path d="M241.335 610.938C217.765 634.502 185.8 647.737 152.469 647.734C119.139 647.731 87.1724 634.489 63.6005 610.922L152.464 522.063L241.335 610.938Z" fill="#ED553B"/>
<path d="M63.6075 788.657C75.2771 776.987 89.1312 767.731 104.379 761.416C119.627 755.102 135.969 751.852 152.474 751.854C168.978 751.855 185.321 755.108 200.569 761.425C215.817 767.743 229.672 777.002 241.342 788.673L152.478 877.533L63.6075 788.657Z" fill="#08E6E7"/>
<path d="M63.607 788.656C87.1716 765.087 100.409 733.123 100.408 699.792C100.406 666.462 87.1666 634.495 63.6001 610.921L-25.2638 699.78L63.607 788.656Z" fill="#FEA59C"/>
<path d="M328.423 698.031L328.423 701.597L318.367 711.652L318.366 687.974L328.423 698.031ZM308.31 677.917L308.311 721.707L298.256 731.762L298.253 667.86L308.31 677.917ZM288.197 657.803L288.2 741.788L278.144 751.843L278.14 647.746L288.197 657.803ZM268.084 637.689L268.089 761.898L258.033 771.954L258.027 627.632L268.084 637.689ZM247.971 617.575L247.978 782.009L237.922 792.064L237.915 607.518L247.971 617.575ZM227.858 597.461L227.866 802.119L217.811 812.174L217.802 587.404L227.858 597.461ZM207.745 577.347L207.755 822.229L197.729 832.284L197.718 567.29L207.745 577.347ZM187.662 557.233L187.673 842.339L177.617 852.394L177.605 547.205L187.662 557.233ZM167.549 537.148L167.561 862.449L157.506 872.504L157.492 527.091L167.549 537.148ZM147.436 527.09L147.45 872.503L137.393 862.447L137.381 537.145L147.436 527.09ZM127.325 547.171L127.337 852.39L117.28 842.332L117.269 557.226L127.325 547.171ZM107.214 567.281L107.224 832.276L97.1676 822.219L97.158 577.336L107.214 567.281ZM87.1023 587.391L87.1111 812.162L77.0546 802.105L77.0467 597.446L87.1023 587.391ZM66.9911 607.502L66.9983 792.048L56.9418 781.991L56.9354 617.557L66.9911 607.502ZM46.8797 627.612L46.8854 771.934L36.829 761.877L36.8241 637.667L46.8797 627.612ZM26.7976 647.722L26.8017 751.819L16.7454 741.763L16.7421 657.777L26.7976 647.722ZM6.68636 667.832L6.68883 731.735L-3.36765 721.678L-3.36933 677.887L6.68636 667.832ZM-13.4249 687.942L-13.424 711.621L-23.4805 701.564L-23.4806 697.997L-13.4249 687.942Z" fill="white"/>
<path opacity="0.6" d="M513.901 515.742L-26.5876 -24.7468L-746 694.666L-205.511 1235.15L513.901 515.742Z" fill="white"/>
</g>
</g>
<defs>
<clipPath id="clip0_206_1387">
<rect width="1440" height="800" fill="white"/>
</clipPath>
<clipPath id="clip1_206_1387">
<rect width="754.042" height="1006.45" fill="white" transform="translate(-24.3345 -17) rotate(45)"/>
</clipPath>
</defs>
</svg>
