<svg id="Слой_1" data-name="Слой 1" xmlns="http://www.w3.org/2000/svg" viewBox="0 0 136.06299 136.06299">
  <defs>
    <style>
      .cls-1, .cls-22 {
        fill: #fff;
      }

      .cls-2 {
        fill: #fcf9d3;
      }

      .cls-16, .cls-3 {
        fill: #ff9ef6;
      }

      .cls-4 {
        fill: #39175f;
      }

      .cls-18, .cls-5 {
        fill: #ffe8e5;
      }

      .cls-20, .cls-6 {
        fill: #cecedb;
      }

      .cls-15, .cls-7 {
        fill: #ed553b;
      }

      .cls-8 {
        fill: #f95;
      }

      .cls-12, .cls-9 {
        fill: #bcf7f7;
      }

      .cls-10, .cls-13 {
        fill: #ffd4cc;
      }

      .cls-11, .cls-21 {
        fill: #ffe1b5;
      }

      .cls-12, .cls-13, .cls-14, .cls-15, .cls-16, .cls-17, .cls-18, .cls-19, .cls-20, .cls-21, .cls-22, .cls-30 {
        fill-rule: evenodd;
      }

      .cls-14, .cls-25 {
        fill: #f5ffff;
      }

      .cls-17, .cls-27 {
        fill: #08e6e7;
      }

      .cls-19 {
        fill: #173f5f;
      }

      .cls-23 {
        fill: #fffef8;
      }

      .cls-24 {
        fill: #ff9a00;
      }

      .cls-26 {
        fill: #e8e8e8;
      }

      .cls-28, .cls-30 {
        fill: #fea49c;
      }

      .cls-29 {
        fill: #31313e;
      }
    </style>
  </defs>
  <g>
    <rect class="cls-1" width="136.06299" height="136.06299"/>
    <path class="cls-2" d="M66.274,56.57953c-2.89134-2.91969-3.23149-7.285-.737-9.77953A7.4263,7.4263,0,0,0,76.05354,57.28819c-2.49449,2.49449-6.88819,2.18268-9.77953-.70866Z"/>
    <path class="cls-3" d="M75.31653,47.50867c2.91968,2.91967,3.2315,7.285.737,9.77952s-6.88819,2.18268-9.77953-.70866c-2.89134-2.91969-3.23149-7.285-.737-9.77953,2.52284-2.49449,6.88819-2.18268,9.77953.70867Z"/>
    <path class="cls-1" d="M73.1622,49.69135a3.31908,3.31908,0,0,1,0,4.7055,3.3533,3.3533,0,0,1-4.73386,0,3.31908,3.31908,0,0,1,0-4.7055,3.3533,3.3533,0,0,1,4.73386,0Z"/>
    <path class="cls-4" d="M68.62677,49.86142a3.11418,3.11418,0,0,0,0,4.36536,3.07677,3.07677,0,1,0,0-4.36536Zm4.73385,4.73386a3.60791,3.60791,0,1,1,0-5.10236,3.64475,3.64475,0,0,1,0,5.10236Z"/>
    <path class="cls-1" d="M66.274,56.57953c-2.89134-2.91969-3.23149-7.285-.737-9.77953A7.4263,7.4263,0,0,0,76.05354,57.28819c-2.49449,2.49449-6.88819,2.18268-9.77953-.70866Z"/>
    <path class="cls-5" d="M75.31653,47.50867c2.91968,2.91967,3.2315,7.285.737,9.77952s-6.88819,2.18268-9.77953-.70866c-2.89134-2.91969-3.23149-7.285-.737-9.77953,2.52284-2.49449,6.88819-2.18268,9.77953.70867Z"/>
    <path class="cls-1" d="M73.1622,49.69135a3.31908,3.31908,0,0,1,0,4.7055,3.3533,3.3533,0,0,1-4.73386,0,3.31908,3.31908,0,0,1,0-4.7055,3.3533,3.3533,0,0,1,4.73386,0Z"/>
    <path class="cls-6" d="M68.62677,49.86142a3.11418,3.11418,0,0,0,0,4.36536,3.07677,3.07677,0,1,0,0-4.36536Zm4.73385,4.73386a3.60791,3.60791,0,1,1,0-5.10236,3.64475,3.64475,0,0,1,0,5.10236Z"/>
    <rect class="cls-1" x="73.96925" y="33.46217" width="15.39377" height="15.39377" transform="translate(-5.18439 69.80189) rotate(-45)"/>
    <polygon class="cls-7" points="70.781 41.159 81.666 30.274 81.666 52.044 70.781 41.159"/>
    <polygon class="cls-3" points="87.109 35.717 81.666 41.159 81.666 30.274 87.109 35.717"/>
    <polygon class="cls-8" points="87.109 35.717 81.666 41.159 92.551 41.159 87.109 35.717"/>
    <path class="cls-4" d="M92.26771,38.40945a.441.441,0,1,1,0,.62362.44488.44488,0,0,1,0-.62362Zm1.50236,1.50236a1.68369,1.68369,0,1,0-2.3811,0,1.64408,1.64408,0,0,0,2.3811,0Z"/>
    <path class="cls-4" d="M95.074,35.60315a.441.441,0,1,1,0,.62363.44488.44488,0,0,1,0-.62363Zm1.50236,1.50236a1.68369,1.68369,0,0,0-2.3811-2.3811,1.68369,1.68369,0,0,0,2.3811,2.3811Z"/>
    <path class="cls-4" d="M97.88031,32.76851a.461.461,0,1,1,0,.652.48031.48031,0,0,1,0-.652Zm1.53071,1.5307a1.70373,1.70373,0,1,0-2.40945,0,1.72847,1.72847,0,0,0,2.40945,0Z"/>
    <path class="cls-4" d="M100.715,29.9622a.441.441,0,1,1,.62362.62363.40106.40106,0,0,1-.62362,0,.44487.44487,0,0,1,0-.62363Zm1.50235,1.53072a1.72848,1.72848,0,0,0,0-2.40945,1.69374,1.69374,0,1,0,0,2.40945Z"/>
    <path class="cls-3" d="M90,28.09134h0a.899.899,0,0,1,.17008-1.24724l.14173-.11339,1.78583-1.389a.83958.83958,0,0,1,1.2189.14172h0a.88988.88988,0,0,1-.14173,1.2189l-1.87087,1.474-.05669.05669A.92546.92546,0,0,1,90,28.09134Z"/>
    <path class="cls-3" d="M91.72912,39.57166a1.20264,1.20264,0,1,0,0-1.7008,1.23308,1.23308,0,0,0,0,1.7008Z"/>
    <path class="cls-3" d="M94.53543,36.76535a1.20263,1.20263,0,1,0,0-1.70078,1.23293,1.23293,0,0,0,0,1.70078Z"/>
    <path class="cls-3" d="M97.37007,33.93071a1.18259,1.18259,0,1,0,0-1.67244,1.1481,1.1481,0,0,0,0,1.67244Z"/>
    <path class="cls-3" d="M100.17637,31.12441a1.18107,1.18107,0,0,0,1.70079,0,1.19794,1.19794,0,0,0,0-1.67244,1.18107,1.18107,0,0,0-1.70079,0,1.1481,1.1481,0,0,0,0,1.67244Z"/>
    <rect class="cls-1" x="73.96925" y="33.46217" width="15.39377" height="15.39377" transform="translate(-5.18439 69.80189) rotate(-45)"/>
    <polygon class="cls-9" points="92.551 41.159 103.408 30.274 92.551 19.389 81.666 30.274 92.551 41.159"/>
    <polygon class="cls-10" points="70.781 41.159 81.666 30.274 81.666 52.044 70.781 41.159"/>
    <polygon class="cls-5" points="87.109 35.717 81.666 41.159 81.666 30.274 87.109 35.717"/>
    <polygon class="cls-11" points="87.109 35.717 81.666 41.159 92.551 41.159 87.109 35.717"/>
    <path class="cls-6" d="M92.26771,38.40945a.441.441,0,1,1,0,.62362.44488.44488,0,0,1,0-.62362Zm1.50236,1.50236a1.68369,1.68369,0,1,0-2.3811,0,1.64408,1.64408,0,0,0,2.3811,0Z"/>
    <path class="cls-6" d="M95.074,35.60315a.441.441,0,1,1,0,.62363.44488.44488,0,0,1,0-.62363Zm1.50236,1.50236a1.68369,1.68369,0,0,0-2.3811-2.3811,1.68369,1.68369,0,0,0,2.3811,2.3811Z"/>
    <path class="cls-6" d="M97.88031,32.76851a.461.461,0,1,1,0,.652.48031.48031,0,0,1,0-.652Zm1.53071,1.5307a1.70373,1.70373,0,1,0-2.40945,0,1.72847,1.72847,0,0,0,2.40945,0Z"/>
    <path class="cls-6" d="M100.715,29.9622a.441.441,0,1,1,.62362.62363.40106.40106,0,0,1-.62362,0,.44487.44487,0,0,1,0-.62363Zm1.50235,1.53072a1.72848,1.72848,0,0,0,0-2.40945,1.69374,1.69374,0,1,0,0,2.40945Z"/>
    <path class="cls-1" d="M90.3685,34.80945c.53858-1.5874,1.67244-5.49921,1.67244-5.49921l-.56693-.85039,1.87087-1.474a1.21329,1.21329,0,1,0-1.474-1.92755l-1.72913,1.389-1.33229-1.53072a.72845.72845,0,0,1-.085-.68031,6.08405,6.08405,0,0,1,2.83465-3.08977.6428.6428,0,0,1,.70866.02835c.93544.62363,4.73386,3.6567,6.09449,4.93229a6.83194,6.83194,0,0,1,1.33228,1.64409.939.939,0,0,1-.11338.93543c-.59528.737-7.88032,8.07874-7.90866,8.07874a1.01239,1.01239,0,0,1-1.13387-.51023,1.631,1.631,0,0,1-.17007-1.44567Z"/>
    <path class="cls-6" d="M90.14173,34.75276c.48189-1.41733,1.44566-4.70552,1.61575-5.38583l-.62363-.93543,2.0693-1.61575a1.02935,1.02935,0,0,0,.3685-.62363.93691.93691,0,0,0-.14174-.68031l-.02834-.02835a.95753.95753,0,0,0-.62363-.3685.91317.91317,0,0,0-.652.17009c-.02835,0-.02835.02834-.05669.02834l-1.92756,1.55905-1.50237-1.72913L88.611,25.115a1.48184,1.48184,0,0,1-.17007-.45354,1.324,1.324,0,0,1,.085-.48189,6.59687,6.59687,0,0,1,1.16221-1.87086,6.94679,6.94679,0,0,1,1.78582-1.389.93159.93159,0,0,1,.48189-.11339,1.39546,1.39546,0,0,1,.48189.17008c.53858.3685,1.92756,1.44566,3.28819,2.55118,1.13386.90709,2.23937,1.84253,2.863,2.4378a8.82534,8.82534,0,0,1,.90708.96378,3.23971,3.23971,0,0,1,.45355.737.95375.95375,0,0,1,.11339.62361,1.12845,1.12845,0,0,1-.25512.59528c-.19843.25512-1.2189,1.30394-2.4378,2.57953-2.35275,2.40945-5.58425,5.61259-5.61259,5.61259a1.27163,1.27163,0,0,1-.87874-.11338,1.23594,1.23594,0,0,1-.53858-.53858,1.58077,1.58077,0,0,1-.28348-.7937,2.32293,2.32293,0,0,1,.085-.87874Zm2.18267-5.32914s-1.13386,3.88346-1.67244,5.49922a1.70084,1.70084,0,0,0-.05669.652,1.35871,1.35871,0,0,0,.19842.56693.97735.97735,0,0,0,.34016.34015.67492.67492,0,0,0,.53859.0567s3.00472-3.08977,5.30078-5.44252c1.2189-1.2756,2.211-2.29607,2.40945-2.55119a.45516.45516,0,0,0,.14173-.31181.4879.4879,0,0,0-.05669-.34016,3.58627,3.58627,0,0,0-.39685-.62362c-.22678-.25511-.48189-.56693-.85039-.93543-.62362-.56692-1.7008-1.474-2.83465-2.3811-1.36063-1.10552-2.72126-2.18268-3.23149-2.52284a.74117.74117,0,0,0-.22678-.085.52555.52555,0,0,0-.19843.0567A6.44533,6.44533,0,0,0,90.085,22.67717,5.26135,5.26135,0,0,0,89.03622,24.378a.30536.30536,0,0,0-.0567.22676c.02834.0567.02834.14174.085.19843l1.13386,1.30394,1.55906-1.21889a.09894.09894,0,0,1,.05669-.02835h0a1.42263,1.42263,0,0,1,2.0126.28346.099.099,0,0,1,.02834.05669,1.468,1.468,0,0,1,.25512,1.07716,1.5539,1.5539,0,0,1-.56693.96379l-1.67244,1.30393.48189.737Z"/>
    <path class="cls-5" d="M90.05668,28.11969h0a.88989.88989,0,0,1,.14174-1.2189l.17008-.11339L92.126,25.37009a.88673.88673,0,0,1,1.2189.14172h0a.86972.86972,0,0,1-.14173,1.24724l-1.87088,1.474-.05668.02835a.83959.83959,0,0,1-1.21891-.14173Z"/>
    <path class="cls-5" d="M91.72912,39.57166a1.20264,1.20264,0,1,0,0-1.7008,1.23308,1.23308,0,0,0,0,1.7008Z"/>
    <path class="cls-5" d="M94.53543,36.76535a1.20263,1.20263,0,1,0,0-1.70078,1.23293,1.23293,0,0,0,0,1.70078Z"/>
    <path class="cls-5" d="M97.37007,33.93071a1.18259,1.18259,0,1,0,0-1.67244,1.1481,1.1481,0,0,0,0,1.67244Z"/>
    <path class="cls-5" d="M100.17637,31.12441a1.18107,1.18107,0,0,0,1.70079,0,1.19794,1.19794,0,0,0,0-1.67244,1.18107,1.18107,0,0,0-1.70079,0,1.1481,1.1481,0,0,0,0,1.67244Z"/>
    <polygon class="cls-1" points="103.408 52.044 114.293 41.159 103.408 30.274 92.551 41.159 103.408 52.044"/>
    <path class="cls-12" d="M106.12913,33.08031a3.79847,3.79847,0,1,1-2.72126-1.13385,3.87222,3.87222,0,0,1,2.72126,1.13385Z"/>
    <rect class="cls-5" x="98.44642" y="40.06609" width="15.39377" height="7.6568" transform="translate(0.05056 87.91105) rotate(-45)"/>
    <path class="cls-13" d="M100.715,38.49449a3.81531,3.81531,0,0,1,0,5.41417,3.77013,3.77013,0,0,1-2.72126,1.13387,3.70614,3.70614,0,0,1-2.69292-1.13387,3.79844,3.79844,0,0,1,0-5.41417,3.81531,3.81531,0,0,1,5.41418,0Z"/>
    <path class="cls-14" d="M95.21574,57.88347c.56693.53858.25512,1.75748-.68031,2.69291s-2.15434,1.24724-2.72126.68032l-6.0378-6.06615c-.56693-.53858-.25512-1.75748.68032-2.69292s2.126-1.24723,2.69291-.68031Z"/>
    <path class="cls-4" d="M95.38582,57.71339a1.37114,1.37114,0,0,1,.25512,1.41732,3.53645,3.53645,0,0,1-.93544,1.61575,3.89164,3.89164,0,0,1-1.61574.96378,1.43876,1.43876,0,0,1-1.41732-.28347l-6.06615-6.06614a1.43876,1.43876,0,0,1-.28346-1.41732,3.61167,3.61167,0,0,1,.96378-1.61575h0a3.98858,3.98858,0,0,1,1.5874-.96378,1.47608,1.47608,0,0,1,1.44567.28347Zm-.17008,1.30393a1.06149,1.06149,0,0,0-.17008-.99212l-6.06614-6.0378a.96232.96232,0,0,0-.99213-.17008,3.00874,3.00874,0,0,0-1.36062.8504h0a2.943,2.943,0,0,0-.8504,1.389,1.061,1.061,0,0,0,.14173.99213l6.06614,6.0378a1.06154,1.06154,0,0,0,.99213.17008,2.943,2.943,0,0,0,1.389-.8504,3.18975,3.18975,0,0,0,.85039-1.389Z"/>
    <path class="cls-15" d="M85.77637,55.19055c-.56693-.56692-.25512-1.75748.68032-2.69292s2.15432-1.24723,2.69291-.68031c.56693.53859.25511,1.75749-.68032,2.69292s-2.126,1.24724-2.69291.68031Z"/>
    <path class="cls-4" d="M85.60629,55.36063a1.49212,1.49212,0,0,1-.28346-1.44567,3.80666,3.80666,0,0,1,.96378-1.5874,3.61167,3.61167,0,0,1,1.61575-.96378,1.30286,1.30286,0,0,1,1.70078,1.70079,3.61165,3.61165,0,0,1-.96378,1.61574,3.80663,3.80663,0,0,1-1.5874.96379,1.49213,1.49213,0,0,1-1.44567-.28347Zm.17008-1.33228a.87156.87156,0,0,0,1.1622,1.1622,3.36214,3.36214,0,0,0,2.211-2.23936.83517.83517,0,0,0-1.13385-1.13387,3.36217,3.36217,0,0,0-2.23938,2.211Z"/>
    <path class="cls-14" d="M101.96219,51.137c.53859.53858.25512,1.75748-.68031,2.69292s-2.15433,1.24723-2.72126.68031l-6.03779-6.06615c-.56693-.53857-.25512-1.75748.68032-2.69291s2.126-1.24724,2.69291-.68031Z"/>
    <path class="cls-4" d="M102.10393,50.96693a1.43876,1.43876,0,0,1,.28347,1.41732A3.37068,3.37068,0,0,1,101.42361,54h0a3.641,3.641,0,0,1-1.5874.96378,1.49208,1.49208,0,0,1-1.44566-.28347l-6.0378-6.06614a1.43873,1.43873,0,0,1-.28346-1.41732,3.61174,3.61174,0,0,1,.96377-1.61575,3.80679,3.80679,0,0,1,1.58741-.96378,1.49213,1.49213,0,0,1,1.44567.28347Zm-.31181.34015L95.726,45.241a1.02811,1.02811,0,0,0-.99213-.17008,3.36214,3.36214,0,0,0-2.211,2.23937,1.061,1.061,0,0,0,.14173.99213l6.06614,6.03779a.97664.97664,0,0,0,.99213.17008,3.08246,3.08246,0,0,0,1.389-.8504h0a3.11227,3.11227,0,0,0,.822-1.389.92477.92477,0,0,0-.14173-.96379Z"/>
    <path class="cls-16" d="M92.52283,48.44409c-.56693-.53857-.25512-1.75748.68032-2.69291s2.15432-1.24724,2.69291-.68031c.56693.53858.25511,1.75748-.68032,2.69291s-2.15433,1.24724-2.69291.68031Z"/>
    <path class="cls-4" d="M92.35275,48.61417a1.43873,1.43873,0,0,1-.28346-1.41732,3.89164,3.89164,0,0,1,.96377-1.61575h0a3.89173,3.89173,0,0,1,1.61575-.96378,1.30286,1.30286,0,0,1,1.70079,1.7008,3.83887,3.83887,0,0,1-2.57953,2.57952,1.43877,1.43877,0,0,1-1.41732-.28347Zm.17008-1.30393a.85329.85329,0,0,0,1.13385,1.13385,3.48239,3.48239,0,0,0,2.23938-2.23936.8533.8533,0,0,0-1.13386-1.13386,2.94287,2.94287,0,0,0-1.389.85039h0a2.943,2.943,0,0,0-.85039,1.389Z"/>
    <path class="cls-14" d="M87.44881,53.40472c-.56693.53859-1.78582.25512-2.69291-.68031-.93544-.93543-1.24724-2.126-.68032-2.69292L90.17007,43.937c.56693-.56693,1.78583-.25512,2.69291.652.93544.93544,1.24725,2.15434.68032,2.72127Z"/>
    <path class="cls-4" d="M87.61889,53.54646a1.49215,1.49215,0,0,1-1.44567.28347,3.45773,3.45773,0,0,1-1.5874-.93544h0a3.68757,3.68757,0,0,1-.96378-1.58741,1.49211,1.49211,0,0,1,.28347-1.44566L90,43.76693a1.49214,1.49214,0,0,1,1.44567-.28346,3.53306,3.53306,0,0,1,1.5874.96378,3.39167,3.39167,0,0,1,.96379,1.5874,1.43878,1.43878,0,0,1-.28347,1.41732Zm-1.33228-.14174a1.06152,1.06152,0,0,0,.99212-.17007l6.09449-6.09449a1.0615,1.0615,0,0,0,.17008-.99213,3.24915,3.24915,0,0,0-2.211-2.211.97661.97661,0,0,0-.99211.17008l-6.0945,6.09449a.96231.96231,0,0,0-.17008.99212,3.0327,3.0327,0,0,0,.82205,1.36064h0a3.08243,3.08243,0,0,0,1.389.85038Z"/>
    <path class="cls-17" d="M90.17007,43.937c.56693-.56693,1.78583-.25512,2.72126.68031.90709.90709,1.2189,2.126.652,2.69292s-1.75748.25511-2.69291-.68032c-.93544-.90708-1.2189-2.126-.68032-2.69291Z"/>
    <path class="cls-4" d="M90.02834,43.76693a1.43877,1.43877,0,0,1,1.41732-.28346,3.39157,3.39157,0,0,1,1.5874.96378,3.53323,3.53323,0,0,1,.96379,1.5874,1.32046,1.32046,0,0,1-1.72914,1.72913A3.68744,3.68744,0,0,1,90.68031,46.8a3.8066,3.8066,0,0,1-.96378-1.5874,1.57112,1.57112,0,0,1,.31181-1.44567Zm1.30393.17008a1.06148,1.06148,0,0,0-.99211.17008,1.04493,1.04493,0,0,0-.17009.99212,3.08235,3.08235,0,0,0,.8504,1.389,3.03264,3.03264,0,0,0,1.36062.822,1.02813,1.02813,0,0,0,.99213-.17008.97664.97664,0,0,0,.17008-.99213,3.24915,3.24915,0,0,0-2.211-2.211Z"/>
    <polygon class="cls-6" points="92.551 62.929 103.408 52.044 92.551 41.159 81.666 52.044 92.551 62.929"/>
    <path class="cls-14" d="M95.21574,57.88347c.56693.53858.25512,1.75748-.68031,2.69291s-2.15434,1.24724-2.72126.68032l-6.0378-6.06615c-.56693-.53858-.25512-1.75748.68032-2.69292s2.126-1.24723,2.69291-.68031Z"/>
    <path class="cls-6" d="M95.38582,57.71339a1.37114,1.37114,0,0,1,.25512,1.41732,3.53645,3.53645,0,0,1-.93544,1.61575,3.89164,3.89164,0,0,1-1.61574.96378,1.43876,1.43876,0,0,1-1.41732-.28347l-6.06615-6.06614a1.43876,1.43876,0,0,1-.28346-1.41732,3.61167,3.61167,0,0,1,.96378-1.61575h0a3.98858,3.98858,0,0,1,1.5874-.96378,1.47608,1.47608,0,0,1,1.44567.28347Zm-.17008,1.30393a1.06149,1.06149,0,0,0-.17008-.99212l-6.06614-6.0378a.96232.96232,0,0,0-.99213-.17008,3.00874,3.00874,0,0,0-1.36062.8504h0a2.943,2.943,0,0,0-.8504,1.389,1.061,1.061,0,0,0,.14173.99213l6.06614,6.0378a1.06154,1.06154,0,0,0,.99213.17008,2.943,2.943,0,0,0,1.389-.8504,3.18975,3.18975,0,0,0,.85039-1.389Z"/>
    <path class="cls-13" d="M85.77637,55.19055c-.56693-.56692-.25512-1.75748.68032-2.69292s2.15432-1.24723,2.69291-.68031c.56693.53859.25511,1.75749-.68032,2.69292s-2.126,1.24724-2.69291.68031Z"/>
    <path class="cls-6" d="M85.60629,55.36063a1.49212,1.49212,0,0,1-.28346-1.44567,3.80666,3.80666,0,0,1,.96378-1.5874,3.61167,3.61167,0,0,1,1.61575-.96378,1.30286,1.30286,0,0,1,1.70078,1.70079,3.61165,3.61165,0,0,1-.96378,1.61574,3.80663,3.80663,0,0,1-1.5874.96379,1.49213,1.49213,0,0,1-1.44567-.28347Zm.17008-1.33228a.87156.87156,0,0,0,1.1622,1.1622,3.36214,3.36214,0,0,0,2.211-2.23936.83517.83517,0,0,0-1.13385-1.13387,3.36217,3.36217,0,0,0-2.23938,2.211Z"/>
    <path class="cls-14" d="M101.96219,51.137c.53859.53858.25512,1.75748-.68031,2.69292s-2.15433,1.24723-2.72126.68031l-6.03779-6.06615c-.56693-.53857-.25512-1.75748.68032-2.69291s2.126-1.24724,2.69291-.68031Z"/>
    <path class="cls-6" d="M102.10393,50.96693a1.43876,1.43876,0,0,1,.28347,1.41732A3.37068,3.37068,0,0,1,101.42361,54h0a3.641,3.641,0,0,1-1.5874.96378,1.49208,1.49208,0,0,1-1.44566-.28347l-6.0378-6.06614a1.43873,1.43873,0,0,1-.28346-1.41732,3.61174,3.61174,0,0,1,.96377-1.61575,3.80679,3.80679,0,0,1,1.58741-.96378,1.49213,1.49213,0,0,1,1.44567.28347Zm-.31181.34015L95.726,45.241a1.02811,1.02811,0,0,0-.99213-.17008,3.36214,3.36214,0,0,0-2.211,2.23937,1.061,1.061,0,0,0,.14173.99213l6.06614,6.03779a.97664.97664,0,0,0,.99213.17008,3.08246,3.08246,0,0,0,1.389-.8504h0a3.11227,3.11227,0,0,0,.822-1.389.92477.92477,0,0,0-.14173-.96379Z"/>
    <path class="cls-18" d="M92.52283,48.44409c-.56693-.53857-.25512-1.75748.68032-2.69291s2.15432-1.24724,2.69291-.68031c.56693.53858.25511,1.75748-.68032,2.69291s-2.15433,1.24724-2.69291.68031Z"/>
    <path class="cls-6" d="M92.35275,48.61417a1.43873,1.43873,0,0,1-.28346-1.41732,3.89164,3.89164,0,0,1,.96377-1.61575h0a3.89173,3.89173,0,0,1,1.61575-.96378,1.30286,1.30286,0,0,1,1.70079,1.7008,3.89166,3.89166,0,0,1-.96378,1.61574h0a3.89156,3.89156,0,0,1-1.61575.96378,1.43877,1.43877,0,0,1-1.41732-.28347Zm.17008-1.30393a.85329.85329,0,0,0,1.13385,1.13385,3.48239,3.48239,0,0,0,2.23938-2.23936.8533.8533,0,0,0-1.13386-1.13386,2.94287,2.94287,0,0,0-1.389.85039h0a2.943,2.943,0,0,0-.85039,1.389Z"/>
    <path class="cls-14" d="M87.44881,53.40472c-.56693.53859-1.78582.25512-2.69291-.68031-.93544-.93543-1.24724-2.126-.68032-2.69292L90.17007,43.937c.56693-.56693,1.78583-.25512,2.69291.652.93544.93544,1.24725,2.15434.68032,2.72127Z"/>
    <path class="cls-6" d="M87.61889,53.54646a1.49215,1.49215,0,0,1-1.44567.28347,3.45773,3.45773,0,0,1-1.5874-.93544h0a3.68757,3.68757,0,0,1-.96378-1.58741,1.49211,1.49211,0,0,1,.28347-1.44566L90,43.76693a1.49214,1.49214,0,0,1,1.44567-.28346,3.53306,3.53306,0,0,1,1.5874.96378,3.39167,3.39167,0,0,1,.96379,1.5874,1.43878,1.43878,0,0,1-.28347,1.41732Zm-1.33228-.14174a1.06152,1.06152,0,0,0,.99212-.17007l6.09449-6.09449a1.0615,1.0615,0,0,0,.17008-.99213,3.24915,3.24915,0,0,0-2.211-2.211.97661.97661,0,0,0-.99211.17008l-6.0945,6.09449a.96231.96231,0,0,0-.17008.99212,3.0327,3.0327,0,0,0,.82205,1.36064h0a3.08243,3.08243,0,0,0,1.389.85038Z"/>
    <path class="cls-12" d="M90.17007,43.937c.56693-.56693,1.78583-.25512,2.72126.68031.90709.90709,1.2189,2.126.652,2.69292s-1.75748.25511-2.69291-.68032c-.93544-.90708-1.2189-2.126-.68032-2.69291Z"/>
    <path class="cls-6" d="M90.02834,43.76693a1.43877,1.43877,0,0,1,1.41732-.28346,3.39157,3.39157,0,0,1,1.5874.96378,3.53323,3.53323,0,0,1,.96379,1.5874,1.32046,1.32046,0,0,1-1.72914,1.72913A3.68744,3.68744,0,0,1,90.68031,46.8a3.8066,3.8066,0,0,1-.96378-1.5874,1.57112,1.57112,0,0,1,.31181-1.44567Zm1.30393.17008a1.06148,1.06148,0,0,0-.99211.17008,1.04493,1.04493,0,0,0-.17009.99212,3.08235,3.08235,0,0,0,.8504,1.389,3.03264,3.03264,0,0,0,1.36062.822,1.02813,1.02813,0,0,0,.99213-.17008.97664.97664,0,0,0,.17008-.99213,3.24915,3.24915,0,0,0-2.211-2.211Z"/>
    <path class="cls-9" d="M70.89448,62.81575v.22677l.59528.62363v-1.474Zm1.2189-1.2189v2.66457l.62363.62362V60.97323Zm1.24724-1.24724v5.15905l.59528.59528V59.75433Zm1.2189-1.2189v7.59685l.62363.62362V58.50709Zm1.2189-1.24724V67.97481l.62362.59527V57.28819Zm1.24724-1.2189V69.1937l.62363.62362V56.041Zm1.2189-1.2189V70.4126l.62362.62362V54.82205Zm1.24725-1.24724V71.65984l.59527.62362V53.57481Zm1.21889-1.2189V72.87874l.62362.62363V52.35591Zm1.24725-.62362V73.50237l.59528-.62363V52.97953Zm1.21889,1.2189V72.28346l.62362-.62362V54.19843Zm1.24725,1.24724-.02835,16.21417.62363-.62362V55.44567ZM85.663,56.041V69.81732l.62362-.62362V56.66457Zm1.21889,1.24724V68.57008l.62363-.59527V57.88347Zm1.24725,1.2189v8.84409l.59527-.62362.02835-7.59685Zm1.2189,1.24724v6.34961l.62362-.59528V60.34961Zm1.24724,1.2189V64.885l.59527-.62362V61.59685Zm1.2189,1.21889v1.474l.62362-.62363v-.22677Z"/>
    <polygon class="cls-9" points="81.666 73.814 92.551 62.929 70.781 62.929 81.666 73.814"/>
    <path class="cls-10" d="M75.28818,47.56535c-2.91968-2.89133-7.285-3.23149-9.77952-.737A7.4263,7.4263,0,1,1,75.99685,57.34488c2.49448-2.49448,2.18268-6.88818-.70867-9.77953Z"/>
    <path class="cls-6" d="M65.62205,47.08347a7.1557,7.1557,0,1,0,10.11968,0,7.13436,7.13436,0,0,0-10.11968,0ZM76.11023,57.6a7.62908,7.62908,0,0,1-5.44251,2.23936,7.646,7.646,0,0,1-7.6819-7.68188,7.69408,7.69408,0,0,1,7.6819-7.71024A7.74271,7.74271,0,0,1,78.378,52.15749,7.636,7.636,0,0,1,76.11023,57.6Z"/>
    <path class="cls-7" d="M108.85039,46.60158a7.69888,7.69888,0,0,1,0,10.885l-5.44252-5.44252Z"/>
    <path class="cls-7" d="M110.80629,51.70393a1.1406,1.1406,0,0,0-1.1622-.02834.45113.45113,0,0,0-.14173-.28346.40088.40088,0,1,0-.56694.56693.4511.4511,0,0,0,.28347.14172,1.1406,1.1406,0,0,0,.02835,1.16221c-.0567.02835-.085.02835-.14173.0567a.30541.30541,0,0,1-.22678-.0567.249.249,0,0,0-.19843.02835c-.05668.02835-.085.0567-.14173.085a.05905.05905,0,0,0,0,.11338c.56694.22678,1.95591.82205,1.95591.82205l.34016.31182-.0567.59527.90709.17008,2.49449,2.948-.0567.62362.79371,1.64409-.17008.4252.42519.4252,3.82678-3.82677-.39685-.39685-.4252.05669-1.70079-.652-.59527.02835-2.948-2.49449-.19842-.90709h-.53858l-.34016-.3118-.8504-1.92757a.05905.05905,0,0,0-.11338,0,.39129.39129,0,0,0-.085.11339.24209.24209,0,0,0,0,.19842.379.379,0,0,1,.02835.25512c0,.02835-.02835.0567-.02835.11338Z"/>
    <path class="cls-19" d="M110.80629,51.70393a1.1406,1.1406,0,0,0-1.1622-.02834.45113.45113,0,0,0-.14173-.28346.40088.40088,0,1,0-.56694.56693.4511.4511,0,0,0,.28347.14172,1.1406,1.1406,0,0,0,.02835,1.16221c-.0567.02835-.085.02835-.14173.0567a.30541.30541,0,0,1-.22678-.0567.249.249,0,0,0-.19843.02835c-.05668.02835-.085.0567-.14173.085a.05905.05905,0,0,0,0,.11338c.56694.22678,1.95591.82205,1.95591.82205l.34016.31182-.0567.59527.90709.17008,2.49449,2.948-.0567.62362.79371,1.64409-.17008.4252.42519.4252,3.82678-3.82677-.39685-.39685-.4252.05669-1.70079-.652-.59527.02835-2.948-2.49449-.19842-.90709h-.53858l-.34016-.3118-.8504-1.92757a.05905.05905,0,0,0-.11338,0,.39129.39129,0,0,0-.085.11339.24209.24209,0,0,0,0,.19842.379.379,0,0,1,.02835.25512c0,.02835-.02835.0567-.02835.11338ZM110.211,51.137a.55334.55334,0,0,1,.19843.02835.40974.40974,0,0,1,.05669-.19843l.02835-.02835.0567-.11338a.44655.44655,0,0,1,.19842-.19843h0a.62427.62427,0,0,1,.22677-.02834.52553.52553,0,0,1,.19843.05669h0a.66232.66232,0,0,1,.19842.19843h0l.822,1.87086.14173.14173h.39685a.41721.41721,0,0,1,.39685.31182l.14174.7937,2.7496,2.29606.45354-.02835a.21243.21243,0,0,1,.14174.02835l1.61574.62362.28346-.05669a.44639.44639,0,0,1,.36851.11338l.39685.39685a.43071.43071,0,0,1,0,.56693l-3.85512,3.82678a.39425.39425,0,0,1-.53858,0l-.4252-.4252a.38526.38526,0,0,1-.085-.4252l.11339-.25512-.70866-1.50236a.42028.42028,0,0,1-.02835-.19843l.02835-.48189-2.29606-2.69291-.76536-.14173a.41268.41268,0,0,1-.34016-.45355l.0567-.39685-.17008-.14172c-.28347-.11339-1.389-.56694-1.87087-.76536a.50417.50417,0,0,1-.22677-.19843.52543.52543,0,0,1-.05669-.19842.48252.48252,0,0,1,.02834-.19843.50429.50429,0,0,1,.19843-.22677c.05669-.02835.085-.05669.14173-.085a1.95333,1.95333,0,0,1,.22677-.085.42023.42023,0,0,1-.02835-.19842.83716.83716,0,0,1,.0567-.36851c-.02835,0-.0567-.02834-.085-.05669a.7915.7915,0,0,1-.22677-.56693.883.883,0,0,1,.19843-.51023c.02834-.02835.02834-.02835.02834-.0567a.90026.90026,0,0,1,.56693-.22677.77447.77447,0,0,1,.53859.22677h.02834c.02835.02835.02835.0567.05669.085a1.65943,1.65943,0,0,1,.3685-.05669Z"/>
    <path class="cls-3" d="M119.67873,56.948c-.11339-.14173-.39685-.4252-.39685-.4252l.17008-.45354-.7937-1.64409.05669-.62363-3.25984-3.74173-.93544-.17007.0567-.56693-.34016-.34016-2.09764-.87874,1.02048-1.02047-.53858-.53859-.59528.59528-.56693-.53858.59527-.62363L111.6,45.52441l.53858-.53859.4819.45356.59527-.59528.53858.53858-.59527.59527.53858.56693.99213-.99212.93543,2.04094.31181.34016h.56693l.17008.90708,3.74173,3.25984.59528-.02834,1.72913.652.39685-.05669.42519.39685L119.67873,56.948Z"/>
    <path class="cls-19" d="M119.42361,57.20316,118.8,56.60788l.22677-.51024-.76535-1.61575.02835-.56693-3.06142-3.48662-1.13386-.19842.085-.76535-.17008-.14173-2.57953-1.07717.56693-.56693-1.07716-1.10551.59527-.59528-.48189-.45354,1.10551-1.10551.4819.48189.59527-.59528,1.07717,1.07717.53858-.51024,1.10551,2.52284.17008.14173.70866-.02834.22677,1.13385,3.515,3.06141.53858-.02834,1.67244.652.51024-.085.82205.82205-4.422,4.422Zm.25512-.25513-.39685-.4252.17008-.45354-.7937-1.64409.05669-.62363-3.25984-3.74173-.93544-.17007.0567-.56693-.34016-.34016-2.09764-.87874,1.02048-1.02047-.53858-.53859-.59528.59528-.56693-.53858.59527-.62363L111.6,45.52441l.53858-.53859.4819.45356.59527-.59528.53858.53858-.59527.59527.53858.56693.99213-.99212.93543,2.04094.31181.34016h.56693l.17008.90708,3.74173,3.25984.59528-.02834,1.72913.652.39685-.05669.42519.39685Z"/>
    <path class="cls-6" d="M114.29291,62.92914l10.885-10.885-10.885-10.885-5.41418-5.41417a7.66466,7.66466,0,0,0,0,10.82834l-5.47086,5.47087,5.44252,5.44252a7.69886,7.69886,0,0,0,0,10.885l5.44252-5.44252Z"/>
    <path class="cls-10" d="M108.85039,46.60158a7.69888,7.69888,0,0,1,0,10.885l-5.44252-5.44252Z"/>
    <path class="cls-10" d="M110.60786,51.53386a1.13779,1.13779,0,0,0-1.1622-.02835.36388.36388,0,0,0-.11339-.28346.40088.40088,0,0,0-.56692.56693.36391.36391,0,0,0,.28346.11338,1.13788,1.13788,0,0,0,.02834,1.16221c-.05668.02834-.085.05669-.14173.05669a.30116.30116,0,0,1-.22677-.02835.222.222,0,0,0-.22677.02835.21487.21487,0,0,1-.11338.0567.08031.08031,0,0,0,0,.14173c.56692.22677,1.9559.7937,1.9559.7937l.34016.34015-.085.59528.93543.17008,2.49449,2.91968-.05669.652.7937,1.64409-.17008.4252.39685.42519,3.85512-3.82677-.39685-.4252-.4252.085-1.70079-.68031-.59527.02834L112.73385,54l-.17008-.93543-.56693.02834-.31181-.34015-.85039-1.89921c-.02835-.0567-.085-.0567-.14173-.02835,0,.05669-.02835.085-.0567.14173a.249.249,0,0,0-.02835.19843.30538.30538,0,0,1,.0567.22677c0,.05669-.02835.085-.0567.14173Z"/>
    <path class="cls-20" d="M110.60786,51.53386a1.13779,1.13779,0,0,0-1.1622-.02835.36388.36388,0,0,0-.11339-.28346.40088.40088,0,0,0-.56692.56693.36391.36391,0,0,0,.28346.11338,1.13788,1.13788,0,0,0,.02834,1.16221c-.05668.02834-.085.05669-.14173.05669a.30116.30116,0,0,1-.22677-.02835.222.222,0,0,0-.22677.02835.21487.21487,0,0,1-.11338.0567.08031.08031,0,0,0,0,.14173c.56692.22677,1.9559.7937,1.9559.7937l.34016.34015-.085.59528.93543.17008,2.49449,2.91968-.05669.652.7937,1.64409-.17008.4252.39685.42519,3.85512-3.82677-.39685-.4252-.4252.085-1.70079-.68031-.59527.02834L112.73385,54l-.17008-.93543-.56693.02834-.31181-.34015-.85039-1.89921c-.02835-.0567-.085-.0567-.14173-.02835,0,.05669-.02835.085-.0567.14173a.249.249,0,0,0-.02835.19843.30538.30538,0,0,1,.0567.22677c0,.05669-.02835.085-.0567.14173Zm-.56692-.7937h0a.0878.0878,0,0,0,.02834-.05669c.02835-.02835.02835-.02835.02835-.0567l.0567-.11339a.662.662,0,0,1,.34015-.28346h0a1.01926,1.01926,0,0,1,.31181-.05669.57143.57143,0,0,1,.31181.085h0a.83322.83322,0,0,1,.28346.34016h0l.79371,1.81417.05669.05669.28346-.02834a.61271.61271,0,0,1,.62363.51024l.14173.70865,2.60787,2.18268.36851-.02834a.82791.82791,0,0,1,.25512.05668l1.53071.59528.25511-.02834a.49936.49936,0,0,1,.53859.17008l.42519.39685a.65232.65232,0,0,1,0,.87874l-3.85512,3.85512a.65232.65232,0,0,1-.87873,0l-.42521-.4252a.665.665,0,0,1-.14173-.68032l.085-.17007-.652-1.389a.75473.75473,0,0,1-.085-.34016l.02835-.3685-2.18267-2.57953-.652-.11339a.67774.67774,0,0,1-.56693-.70866l.05669-.28347-.05669-.02834c-.31181-.14173-1.36063-.56693-1.81418-.737a1.02353,1.02353,0,0,1-.3685-.31181c-.02835-.11339-.05669-.19843-.085-.31181a1.00738,1.00738,0,0,1,.05668-.28347.78383.78383,0,0,1,.31181-.3685c.02836-.02835.085-.02835.11339-.05669h0a.1473.1473,0,0,1,.11338-.05669l-.02834-.02836c0-.085.02834-.19842.02834-.28346a1.08865,1.08865,0,0,1-.25511-.70866,1.0706,1.0706,0,0,1,.25511-.68031.099.099,0,0,0,.02835-.05669,1.0494,1.0494,0,0,1,.737-.28346,1.07054,1.07054,0,0,1,.68031.25511h.31182Z"/>
    <path class="cls-5" d="M119.50865,56.7496c-.11338-.11338-.42519-.39685-.42519-.39685l.19842-.45353-.7937-1.67244.02834-.62363-3.25984-3.71338-.90708-.17008.05669-.59528-.34016-.31181-2.09763-.87874,1.02047-1.02047-.56693-.56693-.59527.59527-.53859-.53858.59528-.59527-.4819-.48189.56694-.53859.45354.48189.59528-.59527.53858.53858-.59528.59528.56693.56692.99212-.99212.90709,2.04094.34016.34016.53858-.02834.19843.93543,3.74173,3.25984.59527-.02835,1.70079.652.4252-.05671.39685.39686s-.85039.8504-3.85512,3.85511Z"/>
    <path class="cls-20" d="M119.08346,57.20316l-.4252-.42521a.61707.61707,0,0,1-.14174-.70866l.085-.14173-.68031-1.41732a.41533.41533,0,0,1-.0567-.31181h0l.02834-.3685-2.948-3.37323-.70867-.11339a.6002.6002,0,0,1-.51024-.68032h0l.02835-.28346-.02835-.05669-2.01259-.822a.633.633,0,0,1-.19843-1.02047h0a.39161.39161,0,0,1-.11339-.085l-.05668-.02835-.4819-.51024a.62558.62558,0,0,1-.02834-.87874h0l.17007-.17007-.02834-.02835a.59993.59993,0,0,1,0-.87874l.02834-.02835.51024-.51023a.59993.59993,0,0,1,.87874,0h0l.02835.02834.17008-.17008a.65232.65232,0,0,1,.87874,0l.53858.56693c.02835.02835.085.0567.085.11339a.65333.65333,0,0,1,.87874.02835.548.548,0,0,1,.14173.25511l.8504,1.89922.05669.05669.28346-.02834a.63744.63744,0,0,1,.62363.53857l.14173.68032,3.40157,2.948h.34016a.46616.46616,0,0,1,.28346.05669l1.53071.56693.25512-.02834a.62675.62675,0,0,1,.53858.17008l.39685.42519a.59994.59994,0,0,1,0,.87875l-3.85512,3.85512a.59993.59993,0,0,1-.87873,0Zm.42519-.45356-.42519-.39685.19842-.45353-.7937-1.67244.02834-.62363-3.25984-3.71338-.90708-.17008.05669-.59528-.34016-.31181-2.09763-.87874,1.02047-1.02047-.56693-.56693-.59527.59527-.53859-.53858.59528-.59527-.4819-.48189.56694-.53859.45354.48189.59528-.59527.53858.53858-.59528.59528.56693.56692.99212-.99212.90709,2.04094.34016.34016.53858-.02834.19843.93543,3.74173,3.25984.59527-.02835,1.70079.652.4252-.05671.39685.39686Z"/>
    <rect class="cls-6" x="73.96925" y="77.00233" width="15.39377" height="15.39377" transform="translate(-35.97193 82.5545) rotate(-45)"/>
    <path class="cls-13" d="M84.3874,76.53543a3.84944,3.84944,0,0,1,0,5.44252,3.939,3.939,0,0,1-2.72126,1.13386A3.88757,3.88757,0,0,1,78.94488,81.978,3.818,3.818,0,0,1,77.811,79.25669a3.77014,3.77014,0,0,1,1.13386-2.72126,3.84944,3.84944,0,0,1,5.44252,0Z"/>
    <path class="cls-21" d="M78.94488,81.978a3.88757,3.88757,0,0,1,1.13385,2.72126A3.823,3.823,0,0,1,76.22362,88.526a3.86091,3.86091,0,0,1-2.72126-1.10552,3.818,3.818,0,0,1-1.13386-2.72126,3.87136,3.87136,0,0,1,3.85512-3.85512A3.818,3.818,0,0,1,78.94488,81.978Z"/>
    <path class="cls-12" d="M84.3874,87.42047a3.88758,3.88758,0,0,1,1.13385,2.72126,3.823,3.823,0,0,1-3.85511,3.82678A3.86091,3.86091,0,0,1,78.94488,92.863,3.818,3.818,0,0,1,77.811,90.14173a3.87136,3.87136,0,0,1,3.85512-3.85512,3.818,3.818,0,0,1,2.72126,1.13386Z"/>
    <path class="cls-18" d="M89.82992,81.978a3.84946,3.84946,0,0,1,0,5.44252A3.911,3.911,0,0,1,87.10866,88.526a3.86091,3.86091,0,0,1-2.72126-1.10552,3.818,3.818,0,0,1-1.13386-2.72126A3.77014,3.77014,0,0,1,84.3874,81.978a3.84944,3.84944,0,0,1,5.44252,0Z"/>
    <rect class="cls-11" x="52.19917" y="55.23225" width="15.39377" height="15.39377" transform="translate(-26.95447 60.78441) rotate(-44.99999)"/>
    <path class="cls-22" d="M56.63622,61.852a1.52268,1.52268,0,0,1,0,2.15433,1.50709,1.50709,0,0,1-2.18268,0,1.50589,1.50589,0,0,1,0-2.15433,1.50709,1.50709,0,0,1,2.18268,0Z"/>
    <path class="cls-22" d="M60.97322,57.48662a1.50708,1.50708,0,0,1,0,2.18268,1.52268,1.52268,0,0,1-2.15433,0,1.50709,1.50709,0,0,1,0-2.18268,1.50589,1.50589,0,0,1,2.15433,0Z"/>
    <path class="cls-22" d="M60.97322,66.189a1.50708,1.50708,0,0,1,0,2.18268,1.50591,1.50591,0,0,1-2.15433,0,1.43607,1.43607,0,0,1-.45354-1.07717,1.45464,1.45464,0,0,1,.45354-1.10551,1.52266,1.52266,0,0,1,2.15433,0Z"/>
    <path class="cls-22" d="M65.33858,61.852a1.50591,1.50591,0,0,1,0,2.15433,1.50709,1.50709,0,0,1-2.18268,0,1.52268,1.52268,0,0,1,0-2.15433,1.45468,1.45468,0,0,1,1.10551-.45355,1.43608,1.43608,0,0,1,1.07717.45355Z"/>
    <path class="cls-10" d="M103.40787,73.81417l5.44252-5.44251a7.69886,7.69886,0,0,1,0-10.885l5.44252,5.44252-10.885-10.885-10.85669,10.885Z"/>
    <path class="cls-10" d="M88.04409,78.32126c-2.91969-2.89134-3.2315-7.285-.737-9.77953A7.4263,7.4263,0,0,0,97.79527,79.05827c-2.49449,2.49449-6.85985,2.15433-9.75118-.737Z"/>
    <path class="cls-9" d="M97.05826,69.27874c2.89134,2.91969,3.2315,7.285.737,9.77953s-6.85985,2.15433-9.75118-.737c-2.91969-2.89134-3.2315-7.285-.737-9.77953s6.85984-2.15432,9.75118.737Z"/>
    <polygon class="cls-23" points="90.34 71.575 90.113 71.348 89.405 75.798 93.402 77.839 94.082 77.159 90.085 75.118 90.34 71.575"/>
    <path class="cls-6" d="M87.47716,68.74016a7.1557,7.1557,0,1,0,10.11969,0,7.18581,7.18581,0,0,0-10.11969,0ZM97.9937,79.25669a7.727,7.727,0,0,1-5.44252,2.23937,7.69407,7.69407,0,0,1-7.71024-7.68189,7.54025,7.54025,0,0,1,2.26772-5.44251,7.6557,7.6557,0,0,1,5.44252-2.26772,7.75494,7.75494,0,0,1,5.44252,2.26772,7.73339,7.73339,0,0,1,0,10.885Z"/>
    <polygon class="cls-6" points="89.915 71.518 90.283 71.15 87.506 68.372 87.109 68.74 89.915 71.518"/>
    <polygon class="cls-6" points="89.518 76.025 86.202 77.726 85.946 77.244 89.291 75.543 89.518 76.025"/>
    <polygon class="cls-6" points="94.195 81.071 93.657 81.156 93.118 77.868 93.657 77.783 94.195 81.071"/>
    <polygon class="cls-6" points="94.734 70.809 94.28 70.554 95.953 67.238 96.435 67.493 94.734 70.809"/>
    <polygon class="cls-6" points="99.808 75.458 96.491 74.948 96.576 74.409 99.893 74.92 99.808 75.458"/>
    <path class="cls-6" d="M93.28818,77.49921l2.91969-2.89134L94.337,70.95118l-4.05354.652-.652,4.05354ZM96.7181,74.863,93.5433,78.0378a.25783.25783,0,0,1-.31181.02835L89.23464,76.0252a.28458.28458,0,0,1-.17008-.28346l.70866-4.422A.30761.30761,0,0,1,90,71.09292l4.45039-.70867a.34888.34888,0,0,1,.28347.14174l2.04094,3.99684a.30145.30145,0,0,1-.05669.34016Z"/>
    <path class="cls-2" d="M118.8,69.30709c-2.89134-2.89134-7.25669-3.2315-9.75118-.737a7.42632,7.42632,0,0,1,10.51653,10.48819c2.46614-2.49449,2.126-6.85984-.76535-9.75118Z"/>
    <path class="cls-24" d="M109.81417,78.29292c2.89133,2.91968,7.25669,3.25984,9.75117.76535,2.46614-2.49449,2.126-6.85984-.76535-9.75118s-7.25669-3.2315-9.75118-.737c-2.49449,2.46614-2.15433,6.83149.76536,9.72284Z"/>
    <path class="cls-25" d="M109.24724,68.74016a7.15569,7.15569,0,1,1,0,10.11968,7.18579,7.18579,0,0,1,0-10.11968Zm10.48819,10.51653a7.71026,7.71026,0,0,0-5.44252-13.15275,7.75489,7.75489,0,0,0-5.44252,2.26772,7.629,7.629,0,0,0-2.23938,5.44251,7.646,7.646,0,0,0,7.6819,7.68189,7.62907,7.62907,0,0,0,5.44252-2.23937Z"/>
    <path class="cls-25" d="M121.71968,75.685l-.36851-.4252a3.60288,3.60288,0,0,1-2.89133,1.02048,6.60632,6.60632,0,0,1-3.85512-2.52284,6.58154,6.58154,0,0,0-.11339-5.38582,5.7899,5.7899,0,0,0-1.474-2.041l-.34016.39685a5.82406,5.82406,0,0,1,1.33228,1.87087,6.26464,6.26464,0,0,1,.05669,5.10236.211.211,0,0,0,.02835.25512c.05669.11338,1.84252,2.57952,4.28031,2.863a4.19076,4.19076,0,0,0,3.34489-1.13386Z"/>
    <path class="cls-25" d="M114.26456,73.98425l-.11339-.51024a12.36771,12.36771,0,0,0-2.89134,1.04882c-1.9559,1.02048-3.00472,2.40945-3.03306,3.96851h.53858c.02834-1.36063.93543-2.55118,2.72126-3.48662a13.31006,13.31006,0,0,1,2.778-1.02047Z"/>
    <path class="cls-1" d="M117.46771,80.7874l-.02835-.53858a6.15258,6.15258,0,0,1-4.93228-2.29606,12.76982,12.76982,0,0,1-1.87087-2.57953l-.48188.25512a12.43945,12.43945,0,0,0,1.9559,2.69291,9.339,9.339,0,0,0,2.29606,1.78583,5.4433,5.4433,0,0,0,3.06142.68031Z"/>
    <path class="cls-1" d="M114.66141,69.76063l-.085-.53858a14.20644,14.20644,0,0,0-3.31654,1.02047,10.3346,10.3346,0,0,0-2.63621,1.58741,6.18665,6.18665,0,0,0-1.95591,2.63621l.51024.19843c.76535-2.04094,2.778-3.25985,4.30866-3.94016a13.968,13.968,0,0,1,3.1748-.96378Z"/>
    <path class="cls-25" d="M117.9496,76.56378a9.29816,9.29816,0,0,0,1.04882-3.11811,8.3664,8.3664,0,0,0-.085-3.14645,8.95158,8.95158,0,0,0-1.78582-3.6l-.4252.34016a7.7729,7.7729,0,0,1,1.75749,6.32126,7.49635,7.49635,0,0,1-.99213,2.89134Z"/>
    <rect class="cls-9" x="106.59602" y="66.11729" width="15.39377" height="15.39377" transform="translate(-18.71888 102.43696) rotate(-45)"/>
    <path class="cls-13" d="M119.73543,68.37166a7.66487,7.66487,0,1,1-5.44252-2.26772,7.705,7.705,0,0,1,5.44252,2.26772Z"/>
    <path class="cls-9" d="M118.8,69.30709c-2.89134-2.89134-7.25669-3.2315-9.75118-.737a7.42632,7.42632,0,0,1,10.51653,10.48819c2.46614-2.49449,2.126-6.85984-.76535-9.75118Z"/>
    <path class="cls-11" d="M109.81417,78.29292c2.89133,2.91968,7.25669,3.25984,9.75117.76535,2.46614-2.49449,2.126-6.85984-.76535-9.75118s-7.25669-3.2315-9.75118-.737c-2.49449,2.46614-2.15433,6.83149.76536,9.72284Z"/>
    <path class="cls-1" d="M109.24724,68.74016a7.15569,7.15569,0,1,1,0,10.11968,7.18579,7.18579,0,0,1,0-10.11968Zm10.48819,10.51653a7.71026,7.71026,0,0,0-5.44252-13.15275,7.75489,7.75489,0,0,0-5.44252,2.26772,7.629,7.629,0,0,0-2.23938,5.44251,7.646,7.646,0,0,0,7.6819,7.68189,7.62907,7.62907,0,0,0,5.44252-2.23937Z"/>
    <path class="cls-25" d="M121.71968,75.685l-.36851-.4252a3.60288,3.60288,0,0,1-2.89133,1.02048,6.60632,6.60632,0,0,1-3.85512-2.52284,6.58154,6.58154,0,0,0-.11339-5.38582,5.7899,5.7899,0,0,0-1.474-2.041l-.34016.39685a5.82406,5.82406,0,0,1,1.33228,1.87087,6.26464,6.26464,0,0,1,.05669,5.10236.211.211,0,0,0,.02835.25512c.05669.11338,1.84252,2.57952,4.28031,2.863a4.19076,4.19076,0,0,0,3.34489-1.13386Z"/>
    <path class="cls-25" d="M114.26456,73.98425l-.11339-.51024a12.36771,12.36771,0,0,0-2.89134,1.04882c-1.9559,1.02048-3.00472,2.40945-3.03306,3.96851h.53858c.02834-1.36063.93543-2.55118,2.72126-3.48662a13.31006,13.31006,0,0,1,2.778-1.02047Z"/>
    <path class="cls-1" d="M117.46771,80.7874l-.02835-.53858a6.15258,6.15258,0,0,1-4.93228-2.29606,12.76982,12.76982,0,0,1-1.87087-2.57953l-.48188.25512a12.43945,12.43945,0,0,0,1.9559,2.69291,9.339,9.339,0,0,0,2.29606,1.78583,5.4433,5.4433,0,0,0,3.06142.68031Z"/>
    <path class="cls-1" d="M114.66141,69.76063l-.085-.53858a14.20644,14.20644,0,0,0-3.31654,1.02047,10.3346,10.3346,0,0,0-2.63621,1.58741,6.18665,6.18665,0,0,0-1.95591,2.63621l.51024.19843c.76535-2.04094,2.778-3.25985,4.30866-3.94016a13.968,13.968,0,0,1,3.1748-.96378Z"/>
    <path class="cls-1" d="M117.9496,76.56378a9.29816,9.29816,0,0,0,1.04882-3.11811,8.3664,8.3664,0,0,0-.085-3.14645,8.95158,8.95158,0,0,0-1.78582-3.6l-.4252.34016a7.7729,7.7729,0,0,1,1.75749,6.32126,7.49635,7.49635,0,0,1-.99213,2.89134Z"/>
    <rect class="cls-6" x="117.48106" y="55.23225" width="15.39377" height="15.39377" transform="translate(-7.83386 106.94565) rotate(-44.99998)"/>
    <path class="cls-11" d="M119.73543,57.48662a7.73341,7.73341,0,0,0,10.885,0L125.178,52.0441Z"/>
    <path class="cls-10" d="M119.73543,57.48662a7.6649,7.6649,0,0,1,0,10.885l-5.44252-5.44252Z"/>
    <path class="cls-9" d="M130.62047,68.37166a7.69886,7.69886,0,0,1,0-10.885l5.44252,5.44252Z"/>
    <path class="cls-5" d="M130.62047,68.37166a7.66487,7.66487,0,0,0-10.885,0l5.44252,5.44251Z"/>
    <path class="cls-1" d="M125.06456,52.15749h.22677l.62362.62362h-1.44567Zm-1.2189,1.21889h2.66457L127.13385,54H123.222Zm-1.24724,1.24725h5.15906l.62361.59527h-6.37795Zm-1.2189,1.21889h7.59684l.62363.62362H120.7559Zm-1.2189,1.24725h10.063l.62361.59527H119.537Zm-1.24725,1.21889H131.4425l.62363.62362H118.28976Zm-1.21889,1.2189h14.99528l.59527.62362H117.07086Zm-1.24725,1.24724h17.46143l.62361.62362H115.852Zm-1.21889,1.2189H135.1559l.59527.62362H114.60472Zm-.62362,1.24724h21.14645l-.59527.59528H115.22834Zm1.24724,1.21891h18.68031l-.62361.62362H116.44723Zm1.2189,1.24723H133.285l-.59527.59528H117.69448Zm1.2189,1.21891h13.77637l-.62363.62362H118.91337Zm1.24724,1.21889h11.31023l-.62361.62363h-10.063Zm1.2189,1.24725H129.6l-.62363.62362h-7.59684Zm1.24724,1.21889h6.37795l-.62361.62363h-5.15906Zm1.2189,1.24725h3.91181l-.62362.59527h-2.66457Zm1.24724,1.21889H125.915l-.62362.62363h-.22677Z"/>
    <path class="cls-7" d="M70.66772,63.04252h.22676l.59528.62363H70.04409Zm-1.21891,1.2189h2.66457l.62363.62362H68.82519Zm-1.24724,1.24724h5.159l.59528.59528H67.578Zm-1.2189,1.2189h7.59685l.62363.62362h-8.8441Zm-1.24724,1.24725h10.063l.62362.59527H65.14015Zm-1.2189,1.21889H77.04566l.62363.62362H63.89291Zm-1.24724,1.2189H78.26456l.62362.62362H62.674Zm-1.2189,1.24724H79.51181l.59527.62362H61.42677Zm-1.2189,1.2189H80.7307l.62362.62363H60.20787ZM60.20787,74.126H81.35432l-.62362.59528H60.83149Zm1.2189,1.21891H80.10708l-.59527.62362H62.05039ZM62.674,76.59212H78.88818l-.62362.59528H63.26929Zm1.2189,1.21891H77.66929l-.62363.62362H64.51653Zm1.24724,1.21889H76.422l-.62362.62362h-10.063Zm1.2189,1.24725h8.8441l-.62363.62362H66.98267Zm1.2189,1.21889H73.9559l-.59528.62363h-5.159Zm1.24724,1.24725H72.737l-.62363.59527H69.44881Zm1.2189,1.21889h1.44567l-.59528.62363h-.22676Z"/>
    <path class="cls-10" d="M70.66772,63.04252h.22676l.59528.62363H70.04409Zm-1.21891,1.2189h2.66457l.62363.62362H68.82519Zm-1.24724,1.24724h5.159l.59528.59528H67.578Zm-1.2189,1.2189h7.59685l.62363.62362h-8.8441Zm-1.24724,1.24725h10.063l.62362.59527H65.14015Zm-1.2189,1.21889H77.04566l.62363.62362H63.89291Zm-1.24724,1.2189H78.26456l.62362.62362H62.674Zm-1.2189,1.24724H79.51181l.59527.62362H61.42677Zm-1.2189,1.2189H80.7307l.62362.62363H60.20787ZM60.20787,74.126H81.35432l-.62362.59528H60.83149Zm1.2189,1.21891H80.10708l-.59527.62362H62.05039ZM62.674,76.59212H78.88818l-.62362.59528H63.26929Zm1.2189,1.21891H77.66929l-.62363.62362H64.51653Zm1.24724,1.21889H76.422l-.62362.62362h-10.063Zm1.2189,1.24725h8.8441l-.62363.62362H66.98267Zm1.2189,1.21889H73.9559l-.59528.62363h-5.159Zm1.24724,1.24725H72.737l-.62363.59527H69.44881Zm1.2189,1.21889h1.44567l-.59528.62363h-.22676Z"/>
    <polygon class="cls-10" points="81.78 73.814 70.894 84.699 70.894 62.929 81.78 73.814"/>
    <path class="cls-6" d="M74.91968,67.54961c-.05669,0-.085.05669-.11338.11338l-.652,2.49449-.59528-.59528a1.35165,1.35165,0,0,0-1.92756,0L70.4126,70.78111a2.29171,2.29171,0,1,0-3.74174.737,2.29385,2.29385,0,0,0,2.49449.51024L67.5496,73.6441a1.66383,1.66383,0,1,0-1.07717,1.07716L65.5937,75.6a1.35173,1.35173,0,0,0,0,1.92756l.05669.05669-.70866.70867a.17241.17241,0,0,0,0,.22676l2.863,2.863a.21261.21261,0,0,0,.25512,0l.68032-.68032.05668.02835a1.38582,1.38582,0,0,0,1.95591,0l6.00945-6.00945a1.3858,1.3858,0,0,0,0-1.9559l-.56693-.56693,2.46614-.68032c.02835,0,.0567-.02835.085-.02835.02834-.02834.02834-.05669.05669-.085a.20826.20826,0,0,0-.05669-.17007L75.08976,67.578a.15884.15884,0,0,0-.17008-.02835Z"/>
    <path class="cls-1" d="M74.69291,67.40788h0c.02834-.0567.11339-.085.17008-.11339h.22677c.05669.02835.14173.05669.17008.11339l3.65669,3.65669h0a.45685.45685,0,0,1,.11338.19842.24211.24211,0,0,1,0,.19843c0,.02834-.02834.085-.02834.11339h0l-.085.085c-.02835.02835-.05669.0567-.085.0567-.02835.02834-.0567.02834-.085.05669l-2.06929.53858.28346.28347h0a1.62621,1.62621,0,0,1,.45355,1.1622,1.60762,1.60762,0,0,1-.45355,1.13386h0l-6.03779,6.0378a1.66968,1.66968,0,0,1-2.15433.11338l-.53858.51024h0a.38295.38295,0,0,1-.59528,0l-2.863-2.863a.364.364,0,0,1-.11339-.28347.4263.4263,0,0,1,.11339-.31181l.53858-.51024a1.56161,1.56161,0,0,1-.3685-1.02047,1.58906,1.58906,0,0,1,.48189-1.13386l.3685-.39685c-.085,0-.19842-.02835-.28346-.02835a1.93641,1.93641,0,0,1-.90709-.51023,1.88744,1.88744,0,0,1-.56693-1.36063A1.93568,1.93568,0,0,1,65.9622,71.2063h.17008a2.39436,2.39436,0,0,1-.3685-1.30393h0a2.54567,2.54567,0,0,1,4.337-1.78583,2.45337,2.45337,0,0,1,.68032,1.27559,2.12243,2.12243,0,0,1,.05669.59527l.59528-.59527h0a1.70492,1.70492,0,0,1,1.1622-.48189h0a1.63892,1.63892,0,0,1,1.13386.48189h0l.28346.28346.56693-2.06929a.28688.28688,0,0,1,.11339-.19842Zm.31181.45354-.737,2.778-.87874-.90709h0a1.21822,1.21822,0,0,0-.7937-.31181h0a1.21822,1.21822,0,0,0-.7937.31181h0l-6.03779,6.0378a1.166,1.166,0,0,0,0,1.5874l.22677.22677-.79371.82205,2.74962,2.74961.7937-.82205.22677.22677h.02834a1.01235,1.01235,0,0,0,.76536.34016,1.02937,1.02937,0,0,0,.7937-.34016l6.03779-6.00944h0a1.11935,1.11935,0,0,0,.34016-.79371,1.02937,1.02937,0,0,0-.34016-.7937h0l-.87874-.90709,2.74961-.737Zm-5.13071,3.6.31181-.7937a2.01994,2.01994,0,0,0-.45354-2.211,2.01872,2.01872,0,0,0-2.863,0,2.0626,2.0626,0,0,0-.59527,1.44567h0a2.01441,2.01441,0,0,0,.59527,1.44566,2.155,2.155,0,0,0,1.02048.56693,2.4501,2.4501,0,0,0,1.19055-.11339Zm-2.06929.93543-.085-.02834a1.382,1.382,0,0,1,.11339.3118c0,.085.02834.19843.02834.28347L68.4,72.45354a4.22838,4.22838,0,0,1-.59527-.05669Zm-.737,1.84252.22678-.68031a1.175,1.175,0,0,0,.02834-.76536,1.34411,1.34411,0,0,0-.3685-.68031h0a1.42382,1.42382,0,0,0-.99213-.4252,1.45177,1.45177,0,0,0-1.44567,1.44567,1.42376,1.42376,0,0,0,.4252.99212,1.344,1.344,0,0,0,.68032.36851,1.17481,1.17481,0,0,0,.76535-.02835Z"/>
    <path class="cls-10" d="M92.66456,84.58583v.22677l.59527.59528V83.9622Zm1.2189-1.2189v2.66456l.62362.62363V82.74331Zm1.21889-1.24724v5.159l.62363.59528v-6.378Zm1.24725-1.2189v7.59685l.62362.62362V80.27717Zm1.2189-1.24725v10.063l.62362.62362V79.05827Zm1.24724-1.21889V90.96378l.59528.62362V77.811Zm1.2189-1.24725V92.18268l.62362.62362V76.59212Zm1.24724-1.21889V93.42992l.59528.59528V75.34489Zm1.2189-1.2189V94.64882l.62362.62363V74.126Zm1.2189-.62363V95.27245l.62362-.62363V74.74961Zm1.24725,1.21891V94.0252l.62361-.59528V75.96851Zm1.21889,1.24723V92.8063l.62362-.62362V77.1874Zm1.24725,1.21891V91.5874l.62361-.62362V78.43465Zm1.21889,1.24724V90.34016l.62362-.62362v-10.063Zm1.24725,1.2189v8.84409l.59527-.62362V80.90079Zm1.21889,1.21889v6.378l.62363-.59528v-5.159Zm1.24725,1.24725v3.91181l.59527-.62363V83.36693Zm1.21889,1.21889v1.44568l.62363-.59528v-.22677Z"/>
    <polygon class="cls-10" points="103.436 95.584 114.321 84.699 92.551 84.699 103.436 95.584"/>
    <rect class="cls-11" x="84.85429" y="87.88737" width="15.39377" height="15.39377" transform="translate(-40.48066 93.43954) rotate(-45)"/>
    <path class="cls-12" d="M97.9937,90.14173a7.73341,7.73341,0,0,1,0,10.885,7.73338,7.73338,0,0,1-10.885,0,7.69691,7.69691,0,1,1,10.885-10.885Z"/>
    <path class="cls-9" d="M12.0189,46.063a40.76671,40.76671,0,0,1-4.93229.19842A45.95632,45.95632,0,0,1,0,45.46771V40.62048a38.3863,38.3863,0,0,0,6.94488.822,36.72822,36.72822,0,0,0,6.37795-.39685ZM0,37.36063V32.48505a28.85956,28.85956,0,0,0,6.4063.90708A26.99112,26.99112,0,0,0,26.22047,25.6252L41.074,10.77165l3.45827,3.48662L29.67874,29.11182a37.80147,37.80147,0,0,0-6.77481,9.24093,37.92309,37.92309,0,0,0,9.241-6.80314L46.99842,16.69606,50.485,20.18268,35.63149,35.03622A26.8361,26.8361,0,0,0,27.86457,54.8504a29.20133,29.20133,0,0,0,3.25984,12.67086l-3.45827,3.48661A34.40341,34.40341,0,0,1,23.074,54.737,32.45178,32.45178,0,0,1,25.115,42.43465a36.897,36.897,0,0,1-9.38268,3.06141,38.82968,38.82968,0,0,1,3.06142-9.38267,32.891,32.891,0,0,1-12.274,2.06929A33.91625,33.91625,0,0,1,0,37.36063ZM0,29.1685V24.20787a21.67461,21.67461,0,0,0,6.51968,1.19055A19.48818,19.48818,0,0,0,20.948,19.75748l3.34488-3.34488,3.48662,3.48662-3.34489,3.34487A24.09809,24.09809,0,0,1,6.63307,30.189,26.69259,26.69259,0,0,1,0,29.1685ZM15.16535,49.20945a48.34783,48.34783,0,0,0-.17008,4.96063,42.56754,42.56754,0,0,0,7.115,22.3937l3.37322-3.40157a37.52553,37.52553,0,0,1-5.69763-18.87875,36.5966,36.5966,0,0,1,.42519-6.3496Zm26.33386-8.92913A19.55153,19.55153,0,0,0,35.85826,54.737a21.69634,21.69634,0,0,0,1.2756,6.7748l-3.6,3.6a26.4716,26.4716,0,0,1-2.49449-10.51653,24.216,24.216,0,0,1,6.97322-17.77323l3.34489-3.34488,3.48661,3.45827Z"/>
    <path class="cls-9" d="M0,54.14174l.45354-.45355L0,53.23465ZM0,52.0441V50.8252l1.67244,1.64409-.62362.62362Zm0-2.4378V48.38741l2.863,2.89133-.59527.59528Zm0-2.40945V45.978l4.08189,4.08189-.59528.59528Zm0-2.43779v-1.2189l5.30079,5.30078-.59528.62363Zm0-2.4378V41.13071l6.51968,6.49134-.62362.62362Zm0-2.40945V38.69292L7.73858,46.4315l-.62362.59527ZM0,37.474V36.28346L8.92913,45.2126l-.59527.59528Zm0-2.40944v-1.2189l10.148,10.148-.59527.59527Zm0-2.4378V31.43622L11.36693,42.7748l-.62362.62362Zm0-2.40945V28.99843L12.58583,41.55591l-.62363.62362Zm0-2.43779V26.56062L13.77638,40.36536l-.59528.59527Zm0-2.40944V24.15118L14.99527,39.14645,14.4,39.74173Z"/>
    <path class="cls-10" d="M0,83.6504a42.59817,42.59817,0,0,0,22.11024-7.08662l-3.40158-3.40157A37.48608,37.48608,0,0,1,0,78.85984ZM0,75.6V70.80945a1.87185,1.87185,0,0,0,.39685-.02834,29.166,29.166,0,0,0,12.67087-3.2315l3.48661,3.45826A34.49405,34.49405,0,0,1,.28346,75.6Zm0-7.9937V62.81575H.28346a20.955,20.955,0,0,0,6.77481-1.30394l3.6,3.6A25.99957,25.99957,0,0,1,.14173,67.6063Z"/>
    <path class="cls-10" d="M0,84.78426l6.94488,6.94487.59528-.62362L0,83.56535Zm0-2.4378v-1.2189l8.75905,8.75905-.59527.62363Zm0-2.4378V78.71811l9.978,9.978-.59527.59527Zm0-2.40945V76.28032L11.19685,87.47717l-.62362.59527Zm0-2.43779V73.87086L12.41575,86.25827l-.62362.59528ZM0,72.652v-1.2189l13.6063,13.6063L13.011,85.663Zm0-2.4378V69.02362l14.8252,14.8252-.59528.59528Zm.28346-2.15433,15.137,15.16536.62362-.59528L.87874,67.46457Zm1.2189-1.19055,15.137,15.137L17.263,81.411,2.09764,66.24567ZM2.69291,65.6504,17.85827,80.81575l.59527-.62362-15.137-15.137Zm1.2189-1.2189L19.07716,79.59686l.59528-.62363-15.137-15.137Zm1.2189-1.2189L20.29606,78.378l.59528-.59527L5.726,62.61732Zm1.2189-1.19055,15.137,15.137.62363-.59528L6.94488,61.39842Z"/>
    <path class="cls-11" d="M34.4126,109.75748a41.23829,41.23829,0,0,1,4.96062-.19842,42.473,42.473,0,0,1,22.36536,7.115l-3.37323,3.40157A37.52548,37.52548,0,0,0,39.48661,114.378a36.90315,36.90315,0,0,0-6.37795.39685ZM25.48346,136.063H18.7937l-.14173-.14173,3.34488-3.34487a24.09809,24.09809,0,0,1,17.80157-6.94489A25.99941,25.99941,0,0,1,50.315,128.126l-3.6,3.6a20.97785,20.97785,0,0,0-6.80315-1.30394,19.53112,19.53112,0,0,0-14.42835,5.641Zm-11.11181,0H7.39842l9.35433-9.35433a38.1204,38.1204,0,0,0,6.80315-9.24094,37.53184,37.53184,0,0,0-9.26929,6.80315L2.49449,136.063H0v-4.4504l10.82835-10.82833a26.80991,26.80991,0,0,0,7.73858-19.81418,29.20147,29.20147,0,0,0-3.25984-12.67086l3.45826-3.48662a34.40343,34.40343,0,0,1,4.59213,16.27087,32.452,32.452,0,0,1-2.04095,12.30236,37.25872,37.25872,0,0,1,9.38268-3.06142,38.82925,38.82925,0,0,1-3.06142,9.38267,32.89121,32.89121,0,0,1,12.274-2.06929,34.40354,34.40354,0,0,1,16.27086,4.59213l-3.45826,3.45827a29.28577,29.28577,0,0,0-12.69922-3.23149,26.7894,26.7894,0,0,0-19.78582,7.73858Zm16.89449-29.452a36.12285,36.12285,0,0,0,.17008-4.96062A42.785,42.785,0,0,0,24.3496,79.25669L20.948,82.65827A37.52551,37.52551,0,0,1,26.64567,101.537a37.07883,37.07883,0,0,1-.39685,6.37795ZM4.96063,115.54016a19.77611,19.77611,0,0,0,5.64094-14.45669,21.73883,21.73883,0,0,0-1.30393-6.77481l3.6-3.6a26.47159,26.47159,0,0,1,2.49448,10.51654A24.061,24.061,0,0,1,8.4189,118.99843L5.074,122.34331,1.5874,118.885Z"/>
    <path class="cls-11" d="M9.18425,94.42205,24.3496,109.5874l.59528-.62362L9.77953,93.79842Zm1.2189-1.2189,15.137,15.16536.62362-.62363-15.16536-15.137Zm1.19055-1.2189L26.75905,107.1496l.59528-.59527L12.21732,91.389Zm1.2189-1.19055,15.16535,15.137.59528-.59528-15.137-15.16535Zm1.2189-1.21889,15.16535,15.137.59527-.59527L14.62677,88.95118Zm1.21889-1.21891,15.137,15.16536.62362-.62362-15.16535-15.137Zm1.2189-1.21889,15.137,15.16535.62362-.62362-15.16535-15.137Zm1.19055-1.2189,15.16535,15.16536.59528-.59528-15.137-15.16535Zm1.2189-1.19055,15.16535,15.137.59528-.59528L19.474,84.10394Zm1.2189-1.2189L35.23464,98.674l.62362-.62363-15.16535-15.137Zm1.21889-1.2189,15.137,15.16536.62362-.62362-15.16535-15.137Zm1.19055-1.21889L37.67244,96.23622l.59527-.59527-15.137-15.16536Zm1.2189-1.19055,15.16536,15.137.59527-.59528L24.3496,79.25669Z"/>
    <path class="cls-26" d="M0,0H9.38268a23.32465,23.32465,0,0,1,5.24409,3.94016L17.97165,7.285l-3.45826,3.48662L11.1685,7.42677A19.499,19.499,0,0,0,0,1.9559ZM14.71181,0h7.08661L34.75275,12.926,31.26614,16.4126,16.4126,1.55905A22.17093,22.17093,0,0,0,14.71181,0Zm12.0189,0h6.94488l7.00157,7.00157-3.48661,3.48662Z"/>
    <path class="cls-7" d="M105.64724,136.063h-4.96063c0-.28346,0-.56693-.02835-.87874a38.81991,38.81991,0,0,0-5.86772-19.50236l3.48662-3.48662a43.89406,43.89406,0,0,1,7.34173,23.13072c0,.22676.02835.48189.02835.737Zm-8.36221,0H92.3244a12.2973,12.2973,0,0,0,0-1.44567,30.31627,30.31627,0,0,0-3.34488-13.09606l3.57166-3.6A35.66258,35.66258,0,0,1,97.285,134.73071c0,.45354.02835.90709,0,1.33228Zm-8.22047,0h-4.989c.02835-.42519.02835-.87874.02835-1.33228a21.46906,21.46906,0,0,0-1.36063-7.00157l3.74174-3.71339a27.17371,27.17371,0,0,1,2.55118,10.85669c.02834.39685.02834.7937.02834,1.19055Z"/>
    <path class="cls-7" d="M113.95275,127.84251,98.27716,112.19527l-.62362.62363,15.67558,15.64724Zm-9.326,8.22048h-1.24724l-14.485-14.485.62362-.62363Zm-2.49448,0H100.885L87.64724,122.8252l.62362-.62362Zm-2.49449,0H98.3622L86.4,124.10079l.62363-.652Zm-2.52284,0H95.86771l-10.715-10.715.62362-.62362Zm-2.49448,0H93.37322l-9.49606-9.46771.62362-.62362Zm-2.52284,0H90.85039l-8.22048-8.22048.62363-.62361Zm20.57953-6.97322L97.02991,113.44252l-.62362.62362,15.64724,15.64725Zm-1.24725,1.24724L95.78267,114.68977l-.62362.62362L110.80629,130.989Zm-1.24724,1.27558L94.53543,115.937l-.62363.62362,15.64725,15.67559Zm-1.24725,1.24726L93.28818,117.2126l-.62362.62362,15.64724,15.64724Zm-1.24723,1.24724L92.04094,118.45985l-.652.62362,15.67559,15.64724Zm-1.24725,1.24723L90.76535,119.70708l-.62362.62363L105.789,135.978Z"/>
    <path class="cls-24" d="M120.78425,99.29764A42.91085,42.91085,0,0,0,92.55118,106.441l3.48661,3.515a38.85528,38.85528,0,0,1,19.50236-5.89607,36.29476,36.29476,0,0,1,6.57638.4252ZM136.063,75.14646v34.55433a32.6862,32.6862,0,0,0-4.05355-2.4378,37.63336,37.63336,0,0,0,4.05355,6.23622v7.54016l-.62363-.62362a27.8208,27.8208,0,0,0-20.46614-8.02205,30.35267,30.35267,0,0,0-13.09606,3.37323l-3.6-3.57166a35.66255,35.66255,0,0,1,16.80945-4.73385,33.973,33.973,0,0,1,12.6992,2.09764,39.829,39.829,0,0,1-3.1748-9.69449,39.8285,39.8285,0,0,1,9.6945,3.1748,33.29358,33.29358,0,0,1-2.126-12.67086,35.95207,35.95207,0,0,1,3.88347-15.222Zm0,50.20157v1.98426l-2.60788,2.60787-3.45827-3.45827a20.10813,20.10813,0,0,0-14.91023-5.83937,22.19708,22.19708,0,0,0-7.00157,1.33229l-3.71339-3.71339a27.21047,27.21047,0,0,1,10.85669-2.57953,24.89234,24.89234,0,0,1,18.36851,7.2ZM124.04409,96.0378a42.91089,42.91089,0,0,1,7.1433-28.23307l3.515,3.515a38.39452,38.39452,0,0,0-5.89607,19.474,36.77449,36.77449,0,0,0,.4252,6.60473Z"/>
    <path class="cls-24" d="M123.84566,106.441,108.19842,90.7937l-.62362.62363L123.222,107.06457Zm-1.24724,1.24724L106.95117,92.041l-.62362.62362,15.64724,15.67559Zm-1.24725,1.27559L105.70393,93.28819l-.62362.62362,15.64724,15.67559Zm-1.24724,1.24724L104.42834,94.56378l-.62362.62362,15.67559,15.64725Zm-1.27559,1.24725L103.1811,95.811l-.62363.62362,15.64725,15.64724Zm-1.24725,1.24724L101.93385,97.05827l-.62362.62362,15.64724,15.64724Zm-1.24724,1.24725L100.68661,98.30551l-.62362.62363,15.64724,15.64724Zm-1.24724,1.27559L99.43936,99.55276l-.62362.62362L114.463,115.852Zm-1.24725,1.24724L98.19212,100.8l-.652.652,15.67559,15.64724Zm-1.24724,1.24725L96.91653,102.07559l-.62362.62362,15.67559,15.64725Zm-1.27559,1.24724L95.66929,103.32284l-.62363.62362,15.64725,15.64724Zm-1.24725,1.24724L94.422,104.57008l-.62362.62362,15.64724,15.64724Zm-1.24724,1.24725L93.1748,105.81732l-.62362.62363,15.64724,15.64724Z"/>
    <path class="cls-27" d="M136.063,43.00157a32.14334,32.14334,0,0,1-4.05355.08505,43.85935,43.85935,0,0,1-23.13071-7.31339l3.515-3.515a38.75518,38.75518,0,0,0,19.474,5.89606,41.21291,41.21291,0,0,0,4.19529-.14173Zm0-21.82677v5.074a26.56508,26.56508,0,0,1-4.5071.28346,27.696,27.696,0,0,1-10.85669-2.57953l3.71339-3.7134a22.2182,22.2182,0,0,0,7.02991,1.3323,21.06546,21.06546,0,0,0,4.62049-.39686Zm0,8.36221v5.01733a31.51181,31.51181,0,0,1-4.62049.19842,35.48184,35.48184,0,0,1-16.80944-4.73386l3.57166-3.57165a30.31655,30.31655,0,0,0,13.09606,3.34488A26.69423,26.69423,0,0,0,136.063,29.537Z"/>
    <path class="cls-27" d="M108.87873,35.77323,124.526,51.42047l.62362-.62362L109.50236,35.12126ZM136.063,31.63464V32.8819L123.90235,20.72127l.62363-.62363Zm0,2.52285v1.24723L122.65511,21.99686l.62362-.652Zm0,2.49448v1.24725L121.40787,23.24409l.62361-.62362Zm0,2.49448v.737l-.25513.25511L120.16062,24.49135l.62363-.62363Zm-25.937-4.64882,15.64724,15.6756.652-.652L110.7496,33.874Zm1.24724-1.24723,15.67559,15.64724.62363-.62362-15.6756-15.64725Zm1.27559-1.24725,15.64724,15.64724.62363-.62362L113.27244,31.37953Zm1.24725-1.24724L129.5433,46.40315l.62361-.62362L114.51967,30.13229Zm1.24724-1.24724,15.64724,15.64724.62363-.62362L115.76692,28.885Zm1.24724-1.2756,15.64724,15.67559.62363-.62362L117.01417,27.60945Zm1.24725-1.24725L133.285,42.66142l.652-.652L118.26141,26.3622Zm1.24724-1.24723,15.67559,15.64724.62363-.62362L119.537,25.115Z"/>
    <path class="cls-28" d="M104.42834,0h4.84724l-2.40945,2.43779Zm9.1559,0H121.663a40.19291,40.19291,0,0,0-5.2441,4.39371L101.02676,19.78583l-3.6-3.6L112.81889.7937c.25512-.25511.51023-.51024.76535-.7937Zm10.91339,0H136.063V3.20316a27.35007,27.35007,0,0,0-13.49292,7.34172L107.178,25.937l-3.6-3.6L118.94173,6.94489A39.30674,39.30674,0,0,0,124.49763,0ZM136.063,6.51968v5.2441a19.45363,19.45363,0,0,0-8.0504,4.87559L124.526,20.09764l-3.6-3.6,3.45827-3.45826A24.66274,24.66274,0,0,1,136.063,6.51968Z"/>
    <path class="cls-14" d="M86.22992,79.937c0,2.23937-3.03308,4.02519-6.77481,4.02519s-6.7748-1.78582-6.7748-4.02519V55.70079c0-2.23937,3.03307-4.0252,6.7748-4.0252s6.77481,1.78583,6.77481,4.0252Z"/>
    <path class="cls-4" d="M86.88188,79.937a4.06706,4.06706,0,0,1-2.29606,3.40157,10.746,10.746,0,0,1-10.26141,0A4.067,4.067,0,0,1,72.02834,79.937V55.70079a4.10336,4.10336,0,0,1,2.29607-3.40158,10.18067,10.18067,0,0,1,5.1307-1.27559h0a10.18068,10.18068,0,0,1,5.13071,1.27559,4.10337,4.10337,0,0,1,2.29606,3.40158Zm-2.97637,2.29606A2.91509,2.91509,0,0,0,85.578,79.937V55.70079a2.95627,2.95627,0,0,0-1.67244-2.29607,8.75723,8.75723,0,0,0-4.4504-1.07716h0a8.75719,8.75719,0,0,0-4.45039,1.07716,2.95624,2.95624,0,0,0-1.67244,2.29607V79.937a2.91507,2.91507,0,0,0,1.67244,2.29606,9.73221,9.73221,0,0,0,8.90079,0Z"/>
    <path class="cls-15" d="M72.70865,55.70079c0-2.23937,3.03308-4.0252,6.77481-4.0252s6.7748,1.78583,6.7748,4.0252-3.03307,4.05354-6.7748,4.05354-6.77481-1.81417-6.77481-4.05354Z"/>
    <path class="cls-4" d="M72.05668,55.70079a4.10338,4.10338,0,0,1,2.29607-3.40158,10.95621,10.95621,0,0,1,10.26141,0,4.10336,4.10336,0,0,1,2.29607,3.40158,4.1445,4.1445,0,0,1-2.29607,3.42992,10.95621,10.95621,0,0,1-10.26141,0,4.14452,4.14452,0,0,1-2.29607-3.42992Zm2.97638-2.29607a2.95627,2.95627,0,0,0-1.67244,2.29607,2.91512,2.91512,0,0,0,1.67244,2.29607,9.51069,9.51069,0,0,0,8.90079,0,2.91512,2.91512,0,0,0,1.67244-2.29607,2.95627,2.95627,0,0,0-1.67244-2.29607,9.73221,9.73221,0,0,0-8.90079,0Z"/>
    <path class="cls-14" d="M113.18739,79.937c0,2.23937-3.03306,4.02519-6.7748,4.02519s-6.7748-1.78582-6.7748-4.02519V55.70079c0-2.23937,3.03307-4.0252,6.7748-4.0252s6.7748,1.78583,6.7748,4.0252Z"/>
    <path class="cls-4" d="M113.83936,79.937a4.06706,4.06706,0,0,1-2.29606,3.40157,10.02789,10.02789,0,0,1-5.13071,1.27559v.02835a9.99617,9.99617,0,0,1-5.10236-1.30394A4.0442,4.0442,0,0,1,98.98582,79.937V55.70079a4.07985,4.07985,0,0,1,2.32441-3.40158,10.89922,10.89922,0,0,1,10.23307,0,4.10337,4.10337,0,0,1,2.29606,3.40158Zm-1.30394,0V55.70079a2.89354,2.89354,0,0,0-1.67244-2.29607,8.97422,8.97422,0,0,0-4.45039-1.07716,9.13558,9.13558,0,0,0-4.4504,1.07716,2.9158,2.9158,0,0,0-1.64408,2.29607V79.937a2.8759,2.8759,0,0,0,1.64408,2.29606,8.83294,8.83294,0,0,0,4.4504,1.07716h0a8.68235,8.68235,0,0,0,4.45039-1.07716,2.85462,2.85462,0,0,0,1.67244-2.29606Z"/>
    <path class="cls-16" d="M99.66614,55.70079c0-2.23937,3.03306-4.0252,6.7748-4.0252s6.7748,1.78583,6.7748,4.0252-3.03307,4.05354-6.7748,4.05354-6.7748-1.81417-6.7748-4.05354Z"/>
    <path class="cls-4" d="M99.01417,55.70079a4.07983,4.07983,0,0,1,2.32441-3.40158,9.9944,9.9944,0,0,1,5.10236-1.27559h0a10.10394,10.10394,0,0,1,5.13071,1.27559,4.10337,4.10337,0,0,1,2.29606,3.40158,4.14451,4.14451,0,0,1-2.29606,3.42992,10.89922,10.89922,0,0,1-10.23307,0,4.12021,4.12021,0,0,1-2.32441-3.42992Zm2.97638-2.29607a2.91578,2.91578,0,0,0-1.6441,2.29607,2.87591,2.87591,0,0,0,1.6441,2.29607,8.83293,8.83293,0,0,0,4.45039,1.1055,8.67963,8.67963,0,0,0,4.45039-1.1055,2.85465,2.85465,0,0,0,1.67244-2.29607,2.89354,2.89354,0,0,0-1.67244-2.29607,8.68238,8.68238,0,0,0-4.45039-1.07716h0a8.8329,8.8329,0,0,0-4.45039,1.07716Z"/>
    <path class="cls-14" d="M79.65354,55.44567c-2.23937,0-4.05354-3.00472-4.05354-6.71811,0-3.74174,1.81417-6.74646,4.05354-6.74646h24.37795c2.23937,0,4.05355,3.00472,4.05355,6.74646,0,3.71339-1.81418,6.71811-4.05355,6.71811Z"/>
    <path class="cls-4" d="M79.65354,56.09764a4.1445,4.1445,0,0,1-3.42992-2.29607,9.96457,9.96457,0,0,1-1.30394-5.074h0a9.9962,9.9962,0,0,1,1.30394-5.10236,4.1445,4.1445,0,0,1,3.42992-2.29607h24.37795a4.14452,4.14452,0,0,1,3.42992,2.29607,10.78582,10.78582,0,0,1,0,10.17637,4.14452,4.14452,0,0,1-3.42992,2.29607Zm-2.32441-2.948a2.91541,2.91541,0,0,0,2.32441,1.64409h24.37795a2.83726,2.83726,0,0,0,2.29606-1.64409,8.7224,8.7224,0,0,0,1.10552-4.42205,8.5703,8.5703,0,0,0-1.10552-4.422,2.87524,2.87524,0,0,0-2.29606-1.67244H79.65354a2.95451,2.95451,0,0,0-2.32441,1.67244,8.57276,8.57276,0,0,0-1.07716,4.422h0a8.7221,8.7221,0,0,0,1.07716,4.42205Z"/>
    <path class="cls-17" d="M104.03149,42.00945c2.23937,0,4.05355,3.00473,4.05355,6.74646,0,3.71338-1.81418,6.7181-4.05355,6.7181S99.978,52.46929,99.978,48.75591c0-3.74173,1.81417-6.74646,4.05354-6.74646Z"/>
    <path class="cls-4" d="M104.03149,41.35748a4.14452,4.14452,0,0,1,3.42992,2.29607,10.78584,10.78584,0,0,1,0,10.17638,3.70989,3.70989,0,0,1-6.85984,0,10.57938,10.57938,0,0,1,0-10.17638,4.1445,4.1445,0,0,1,3.42992-2.29607Zm2.29606,2.97638a2.87524,2.87524,0,0,0-2.29606-1.67244,2.95452,2.95452,0,0,0-2.32441,1.67244,8.57266,8.57266,0,0,0-1.07717,4.422,8.722,8.722,0,0,0,1.07717,4.422,2.91542,2.91542,0,0,0,2.32441,1.64409,2.83726,2.83726,0,0,0,2.29606-1.64409,8.7224,8.7224,0,0,0,1.10552-4.422,8.5703,8.5703,0,0,0-1.10552-4.422Z"/>
    <rect class="cls-29" x="70.7811" y="41.15906" width="43.51181" height="43.54015"/>
    <path class="cls-14" d="M86.22992,79.937c0,2.23937-3.03308,4.02519-6.77481,4.02519s-6.7748-1.78582-6.7748-4.02519V55.70079c0-2.23937,3.03307-4.0252,6.7748-4.0252s6.77481,1.78583,6.77481,4.0252Z"/>
    <path class="cls-29" d="M86.88188,79.937a4.06706,4.06706,0,0,1-2.29606,3.40157,10.746,10.746,0,0,1-10.26141,0A4.067,4.067,0,0,1,72.02834,79.937V55.70079a4.10336,4.10336,0,0,1,2.29607-3.40158,10.18067,10.18067,0,0,1,5.1307-1.27559h0a10.18068,10.18068,0,0,1,5.13071,1.27559,4.10337,4.10337,0,0,1,2.29606,3.40158Zm-2.97637,2.29606A2.91509,2.91509,0,0,0,85.578,79.937V55.70079a2.95627,2.95627,0,0,0-1.67244-2.29607,8.75723,8.75723,0,0,0-4.4504-1.07716h0a8.75719,8.75719,0,0,0-4.45039,1.07716,2.95624,2.95624,0,0,0-1.67244,2.29607V79.937a2.91507,2.91507,0,0,0,1.67244,2.29606,9.73221,9.73221,0,0,0,8.90079,0Z"/>
    <path class="cls-15" d="M72.70865,55.70079c0-2.23937,3.03308-4.0252,6.77481-4.0252s6.7748,1.78583,6.7748,4.0252-3.03307,4.05354-6.7748,4.05354-6.77481-1.81417-6.77481-4.05354Z"/>
    <path class="cls-29" d="M72.05668,55.70079a4.10338,4.10338,0,0,1,2.29607-3.40158,10.95621,10.95621,0,0,1,10.26141,0,4.10336,4.10336,0,0,1,2.29607,3.40158,4.1445,4.1445,0,0,1-2.29607,3.42992,10.95621,10.95621,0,0,1-10.26141,0,4.14452,4.14452,0,0,1-2.29607-3.42992Zm2.97638-2.29607a2.95627,2.95627,0,0,0-1.67244,2.29607,2.91512,2.91512,0,0,0,1.67244,2.29607,9.51069,9.51069,0,0,0,8.90079,0,2.91512,2.91512,0,0,0,1.67244-2.29607,2.95627,2.95627,0,0,0-1.67244-2.29607,9.73221,9.73221,0,0,0-8.90079,0Z"/>
    <path class="cls-14" d="M113.18739,79.937c0,2.23937-3.03306,4.02519-6.7748,4.02519s-6.7748-1.78582-6.7748-4.02519V55.70079c0-2.23937,3.03307-4.0252,6.7748-4.0252s6.7748,1.78583,6.7748,4.0252Z"/>
    <path class="cls-29" d="M113.83936,79.937a4.06706,4.06706,0,0,1-2.29606,3.40157,10.02789,10.02789,0,0,1-5.13071,1.27559v.02835a9.99617,9.99617,0,0,1-5.10236-1.30394A4.0442,4.0442,0,0,1,98.98582,79.937V55.70079a4.07985,4.07985,0,0,1,2.32441-3.40158,10.89922,10.89922,0,0,1,10.23307,0,4.10337,4.10337,0,0,1,2.29606,3.40158Zm-1.30394,0V55.70079a2.89354,2.89354,0,0,0-1.67244-2.29607,8.97422,8.97422,0,0,0-4.45039-1.07716,9.13558,9.13558,0,0,0-4.4504,1.07716,2.9158,2.9158,0,0,0-1.64408,2.29607V79.937a2.8759,2.8759,0,0,0,1.64408,2.29606,8.83294,8.83294,0,0,0,4.4504,1.07716h0a8.68235,8.68235,0,0,0,4.45039-1.07716,2.85462,2.85462,0,0,0,1.67244-2.29606Z"/>
    <path class="cls-30" d="M99.66614,55.70079c0-2.23937,3.03306-4.0252,6.7748-4.0252s6.7748,1.78583,6.7748,4.0252-3.03307,4.05354-6.7748,4.05354-6.7748-1.81417-6.7748-4.05354Z"/>
    <path class="cls-29" d="M99.01417,55.70079a4.07983,4.07983,0,0,1,2.32441-3.40158,9.9944,9.9944,0,0,1,5.10236-1.27559h0a10.028,10.028,0,0,1,5.13071,1.27559,4.10337,4.10337,0,0,1,2.29606,3.40158,4.14451,4.14451,0,0,1-2.29606,3.42992,10.318,10.318,0,0,1-5.13071,1.27559h0a9.9944,9.9944,0,0,1-5.10236-1.27559,4.12021,4.12021,0,0,1-2.32441-3.42992Zm2.97638-2.29607a2.91578,2.91578,0,0,0-1.6441,2.29607,2.87591,2.87591,0,0,0,1.6441,2.29607,8.83293,8.83293,0,0,0,4.45039,1.1055,8.67963,8.67963,0,0,0,4.45039-1.1055,2.85465,2.85465,0,0,0,1.67244-2.29607,2.89354,2.89354,0,0,0-1.67244-2.29607,8.97425,8.97425,0,0,0-4.45039-1.07716h0a8.8329,8.8329,0,0,0-4.45039,1.07716Z"/>
    <path class="cls-14" d="M79.65354,55.44567c-2.23937,0-4.05354-3.00472-4.05354-6.71811,0-3.74174,1.81417-6.74646,4.05354-6.74646h24.37795c2.23937,0,4.05355,3.00472,4.05355,6.74646,0,3.71339-1.81418,6.71811-4.05355,6.71811Z"/>
    <path class="cls-29" d="M79.65354,56.09764a4.1445,4.1445,0,0,1-3.42992-2.29607,9.96457,9.96457,0,0,1-1.30394-5.074h0a9.9962,9.9962,0,0,1,1.30394-5.10236,4.1445,4.1445,0,0,1,3.42992-2.29607h24.37795a4.14452,4.14452,0,0,1,3.42992,2.29607,10.78582,10.78582,0,0,1,0,10.17637,4.14452,4.14452,0,0,1-3.42992,2.29607Zm-2.32441-2.948a2.91541,2.91541,0,0,0,2.32441,1.64409h24.37795a2.83726,2.83726,0,0,0,2.29606-1.64409,8.7224,8.7224,0,0,0,1.10552-4.42205,8.5703,8.5703,0,0,0-1.10552-4.422,2.87524,2.87524,0,0,0-2.29606-1.67244H79.65354a2.95451,2.95451,0,0,0-2.32441,1.67244,8.57276,8.57276,0,0,0-1.07716,4.422h0a8.7221,8.7221,0,0,0,1.07716,4.42205Z"/>
    <path class="cls-17" d="M104.03149,42.00945c2.23937,0,4.05355,3.00473,4.05355,6.74646,0,3.71338-1.81418,6.7181-4.05355,6.7181S99.978,52.46929,99.978,48.75591c0-3.74173,1.81417-6.74646,4.05354-6.74646Z"/>
    <path class="cls-29" d="M104.03149,41.35748a4.14452,4.14452,0,0,1,3.42992,2.29607,10.78584,10.78584,0,0,1,0,10.17638,3.70989,3.70989,0,0,1-6.85984,0,10.57938,10.57938,0,0,1,0-10.17638,4.1445,4.1445,0,0,1,3.42992-2.29607Zm2.29606,2.97638a2.87524,2.87524,0,0,0-2.29606-1.67244,2.95452,2.95452,0,0,0-2.32441,1.67244,8.57266,8.57266,0,0,0-1.07717,4.422,8.722,8.722,0,0,0,1.07717,4.422,2.91542,2.91542,0,0,0,2.32441,1.64409,2.83726,2.83726,0,0,0,2.29606-1.64409,8.7224,8.7224,0,0,0,1.10552-4.422,8.5703,8.5703,0,0,0-1.10552-4.422Z"/>
  </g>
</svg>
