<svg width="1439" height="800" viewBox="0 0 1439 800" fill="none" xmlns="http://www.w3.org/2000/svg">
<g clip-path="url(#clip0_195_163)">
<path d="M1439 0H0V800H1439V0Z" fill="white"/>
<path d="M206.956 289.5C188.724 291.235 170.403 291.869 152.094 291.4C100.088 290.047 48.6764 279.974 0 261.6L0 205.4C47.758 225.721 98.9167 236.849 150.795 238.2C174.395 238.791 198.002 237.318 221.346 233.8L206.956 289.5ZM303.589 0H380.635L344.261 36.4C290.898 89.7999 219.448 115.4 147.298 113.6C107.006 112.521 67.3714 103.125 30.8785 86L70.7508 46.0999C94.8993 54.9074 120.307 59.7696 145.999 60.5C174.975 61.4787 203.853 56.6284 230.923 46.2363C257.992 35.8442 282.702 20.1217 303.589 0V0ZM426.803 0H503.85L402.42 101.5C373.64 130.3 344.66 168.9 327.173 203.9C362.248 186.5 400.821 157.5 429.601 128.7L558.212 0H629.862L632.56 2.69999L468.075 167.2C408.716 226.6 380.336 306.3 382.334 386.6C383.66 435.57 395.954 483.618 418.309 527.2L380.036 565.6C348.39 510.656 330.91 448.693 329.171 385.3C327.929 338.92 335.666 292.738 351.955 249.3C316.08 265 280.505 278.4 248.028 283.2C252.824 250.7 266.115 215.1 281.904 179.2C238.502 195.516 192.343 203.226 145.999 201.9C95.6085 200.588 45.9813 189.269 0 168.6L0 116.9L4.19708 112.7C47.7248 135.147 95.7493 147.486 144.699 148.8C224.944 150.8 304.488 122.4 363.947 62.9999L426.803 0ZM241.732 324.3C240 342.512 239.366 360.812 239.833 379.1C242.265 467.546 269.519 553.523 318.479 627.2L356.053 589.6C316.758 526.782 294.986 454.583 292.996 380.5C292.356 356.883 293.828 333.255 297.393 309.9L241.732 324.3ZM533.13 225.4C512.383 246.394 496.135 271.403 485.379 298.897C474.623 326.39 469.585 355.791 470.573 385.3C471.303 410.977 476.162 436.369 484.963 460.5L445.091 500.5C427.978 463.982 418.588 424.32 417.51 384C415.711 311.8 441.193 240.3 494.556 186.9L531.631 149.8L570.204 188.3L533.13 225.4Z" fill="#BCF7F7"/>
<path d="M0 308.5L72.0499 380.6L78.7453 373.9L0 295.1V308.5ZM0 281.6V268.2L92.2359 360.4L85.4406 367.2L0 281.6ZM0 254.8V241.3L105.627 347L98.9313 353.7L0 254.8ZM0 227.9V214.5L119.017 333.6L112.322 340.3L0 227.9ZM0 201.1V187.6L132.408 320.2L125.713 326.9L0 201.1ZM0 174.2V160.7L145.899 306.7L139.203 313.4L0 174.2ZM0 147.3V133.9L159.289 293.3L152.594 300L0 147.3ZM0 120.5V116.9L4.99652 112L172.68 279.9L165.985 286.6L0 120.5ZM11.6919 105.2L179.475 273.1L186.171 266.4L18.3872 98.4999L11.6919 105.2ZM25.0827 91.7998L192.866 259.7L199.561 253L31.7779 85.0999L25.0827 91.7998ZM38.4734 78.3998L206.257 246.3L212.952 239.6L45.1686 71.6999L38.4734 78.3998ZM51.964 64.9998L219.747 232.8L226.443 226.1L58.6592 58.1999L51.964 64.9998ZM65.3547 51.4998L233.138 219.4L239.833 212.7L72.0499 44.7999L65.3547 51.4998Z" fill="#BCF7F7"/>
<path d="M15.789 703.9C34.0196 705.668 52.3401 706.336 70.6509 705.9C159.002 703.451 244.883 676.179 318.479 627.2L280.905 589.6C218.131 628.922 145.982 650.709 71.95 652.7C48.3499 653.291 24.7433 651.818 1.39903 648.3L15.789 703.9ZM0 610.3V555.4C25.6172 561.285 51.8698 563.939 78.1457 563.3C127.062 561.974 175.051 549.635 218.548 527.2L256.921 565.6C202.027 597.282 140.095 614.744 76.7465 616.4C51.021 617.079 25.2958 615.034 0 610.3H0ZM0 519.7V463.6C24.7331 471.795 50.703 475.618 76.7467 474.9C102.449 474.268 127.872 469.402 151.995 460.5L191.867 500.5C155.374 517.625 115.739 527.021 75.4476 528.1C50.0348 528.721 24.655 525.895 0 519.7H0Z" fill="#FFD4CC"/>
<path d="M0 644.3L150.695 795.1L157.391 788.3L0 630.8V644.3ZM0 617.4V610.1L2.9979 607L170.781 774.9L164.086 781.6L0 617.4ZM9.79336 600.3L177.577 768.2L184.272 761.5L16.4885 593.6L9.79336 600.3ZM23.1841 586.9L190.967 754.8L197.663 748L29.8792 580.2L23.1841 586.9ZM36.5748 573.5L204.358 741.3L211.053 734.6L43.2699 566.7L36.5748 573.5ZM50.0654 560L217.849 727.9L224.544 721.2L56.7607 553.3L50.0654 560ZM63.4559 546.6L231.239 714.5L237.935 707.8L70.1512 539.9L63.4559 546.6ZM76.8466 533.2L244.63 701L251.325 694.3L83.542 526.4L76.8466 533.2ZM90.3372 519.7L258.121 687.6L264.816 680.9L97.0326 513L90.3372 519.7ZM103.728 506.3L271.511 674.2L278.207 667.5L110.423 499.6L103.728 506.3ZM117.119 492.9L284.902 660.7L291.597 654L123.814 486.1L117.119 492.9ZM130.609 479.4L298.293 647.3L305.088 640.6L137.304 472.7L130.609 479.4ZM144 466L311.783 633.9L318.479 627.2L150.695 459.3L144 466Z" fill="#FFD4CC"/>
<path d="M352.655 800C341.884 762.9 326.045 727.465 305.588 694.7L343.161 657.1C372.204 700.868 393.783 749.158 407.017 800H352.655ZM316.58 800H261.618C256.569 785.276 250.457 770.938 243.331 757.1L281.704 718.7C296.437 744.357 308.141 771.64 316.58 800L316.58 800ZM223.545 800H200.361L216.549 783.8C219.048 789.2 221.446 794.6 223.545 800Z" fill="#FFE1B5"/>
<path d="M740.286 341.8C713.704 315.2 710.706 275 733.59 252C720.816 264.797 713.644 282.147 713.654 300.235C713.663 318.323 720.852 335.667 733.64 348.45C746.428 361.233 763.767 368.41 781.842 368.401C799.917 368.391 817.249 361.197 830.023 348.4C807.039 371.4 766.867 368.4 740.286 341.8V341.8Z" fill="#FCF9D3"/>
<path d="M823.328 258.7C850.009 285.3 852.907 325.5 830.023 348.4C807.039 371.4 766.867 368.4 740.286 341.8C713.704 315.2 710.706 275 733.59 252C756.574 229 796.746 232 823.328 258.7Z" fill="#FF9EF6"/>
<path d="M803.541 278.5C807.83 282.792 810.751 288.26 811.934 294.213C813.118 300.166 812.51 306.336 810.189 311.944C807.868 317.552 803.937 322.344 798.894 325.717C793.851 329.089 787.922 330.888 781.857 330.888C775.791 330.888 769.862 329.089 764.819 325.717C759.776 322.344 755.845 317.552 753.524 311.944C751.203 306.336 750.595 300.166 751.779 294.213C752.962 288.26 755.883 282.792 760.172 278.5C763.017 275.647 766.398 273.384 770.119 271.839C773.84 270.295 777.828 269.5 781.857 269.5C785.885 269.5 789.874 270.295 793.595 271.839C797.316 273.384 800.696 275.647 803.541 278.5Z" fill="white"/>
<path d="M761.871 280.3C757.928 284.246 755.242 289.273 754.154 294.746C753.067 300.219 753.625 305.892 755.759 311.047C757.893 316.202 761.506 320.609 766.143 323.709C770.779 326.809 776.23 328.464 781.807 328.464C787.383 328.464 792.834 326.809 797.47 323.709C802.107 320.609 805.721 316.202 807.855 311.047C809.988 305.892 810.547 300.219 809.459 294.746C808.371 289.273 805.686 284.246 801.743 280.3C796.451 275.017 789.282 272.05 781.807 272.05C774.332 272.05 767.162 275.017 761.871 280.3ZM805.24 323.7C800.606 328.338 794.701 331.497 788.272 332.776C781.843 334.056 775.18 333.399 769.124 330.889C763.069 328.379 757.893 324.128 754.252 318.675C750.61 313.221 748.666 306.809 748.666 300.25C748.666 293.691 750.61 287.279 754.252 281.825C757.893 276.372 763.069 272.121 769.124 269.611C775.18 267.101 781.843 266.444 788.272 267.724C794.701 269.004 800.606 272.162 805.24 276.8C811.433 283.031 814.909 291.462 814.909 300.25C814.909 309.038 811.433 317.469 805.24 323.7Z" fill="#39175F"/>
<path d="M740.286 341.8C713.704 315.2 710.706 275 733.59 252C720.816 264.797 713.644 282.147 713.654 300.235C713.663 318.323 720.852 335.667 733.64 348.45C746.428 361.233 763.767 368.41 781.842 368.401C799.917 368.391 817.249 361.197 830.023 348.4C807.039 371.4 766.867 368.4 740.286 341.8V341.8Z" fill="white"/>
<path d="M823.328 258.7C850.009 285.3 852.907 325.5 830.023 348.4C807.039 371.4 766.867 368.4 740.286 341.8C713.704 315.2 710.706 275 733.59 252C756.574 229 796.746 232 823.328 258.7Z" fill="#FEA49C"/>
<path d="M803.541 278.5C807.83 282.792 810.751 288.26 811.934 294.213C813.118 300.166 812.51 306.336 810.189 311.944C807.868 317.552 803.937 322.344 798.894 325.717C793.851 329.089 787.922 330.888 781.857 330.888C775.791 330.888 769.862 329.089 764.819 325.717C759.776 322.344 755.845 317.552 753.524 311.944C751.203 306.336 750.595 300.166 751.779 294.213C752.962 288.26 755.883 282.792 760.172 278.5C763.017 275.647 766.398 273.384 770.119 271.839C773.84 270.295 777.828 269.5 781.857 269.5C785.885 269.5 789.874 270.295 793.595 271.839C797.316 273.384 800.696 275.647 803.541 278.5Z" fill="white"/>
<path d="M761.871 280.3C757.928 284.246 755.242 289.273 754.154 294.746C753.067 300.219 753.625 305.892 755.759 311.047C757.893 316.202 761.506 320.609 766.143 323.709C770.779 326.809 776.23 328.464 781.807 328.464C787.383 328.464 792.834 326.809 797.47 323.709C802.107 320.609 805.721 316.202 807.855 311.047C809.988 305.892 810.547 300.219 809.459 294.746C808.371 289.273 805.686 284.246 801.743 280.3C796.451 275.017 789.282 272.05 781.807 272.05C774.332 272.05 767.162 275.017 761.871 280.3ZM805.24 323.7C800.606 328.338 794.701 331.497 788.272 332.776C781.843 334.056 775.18 333.399 769.124 330.889C763.069 328.379 757.893 324.128 754.252 318.675C750.61 313.221 748.666 306.809 748.666 300.25C748.666 293.691 750.61 287.279 754.252 281.825C757.893 276.372 763.069 272.121 769.124 269.611C775.18 267.101 781.843 266.444 788.272 267.724C794.701 269.004 800.606 272.162 805.24 276.8C811.433 283.031 814.909 291.462 814.909 300.25C814.909 309.038 811.433 317.469 805.24 323.7Z" fill="#31313E"/>
<path d="M881.487 300.2L981.317 200.3L881.487 100.298L781.558 200.3L881.487 300.2Z" fill="white"/>
<path d="M781.558 200.3L881.487 100.298V300.2L781.558 200.3Z" fill="#ED553B"/>
<path d="M931.452 150.301L881.487 200.3V100.298L931.452 150.301Z" fill="#FF9EF6"/>
<path d="M931.452 150.301L881.487 200.3H981.317L931.452 150.301Z" fill="#FF9955"/>
<path d="M978.82 175C979.393 174.426 980.123 174.036 980.918 173.878C981.713 173.719 982.537 173.801 983.286 174.111C984.035 174.421 984.675 174.947 985.125 175.621C985.576 176.296 985.816 177.089 985.816 177.9C985.816 178.711 985.576 179.504 985.125 180.178C984.675 180.853 984.035 181.379 983.286 181.689C982.537 181.999 981.713 182.081 980.918 181.922C980.123 181.764 979.393 181.374 978.82 180.8C978.052 180.03 977.621 178.987 977.621 177.9C977.621 176.812 978.052 175.769 978.82 175ZM992.71 188.9C994.159 187.458 995.309 185.745 996.093 183.857C996.878 181.969 997.282 179.945 997.282 177.9C997.282 175.855 996.878 173.831 996.093 171.943C995.309 170.055 994.159 168.341 992.71 166.9C990.536 164.724 987.766 163.243 984.75 162.643C981.735 162.042 978.609 162.35 975.769 163.528C972.928 164.705 970.5 166.699 968.792 169.257C967.084 171.816 966.172 174.823 966.172 177.9C966.172 180.977 967.084 183.984 968.792 186.543C970.5 189.101 972.928 191.095 975.769 192.272C978.609 193.45 981.735 193.758 984.75 193.157C987.766 192.557 990.536 191.076 992.71 188.9Z" fill="#39175F"/>
<path d="M1004.7 149.2C1005.27 148.636 1005.98 148.252 1006.76 148.097C1007.55 147.941 1008.36 148.021 1009.09 148.326C1009.83 148.631 1010.46 149.148 1010.9 149.811C1011.34 150.474 1011.58 151.253 1011.58 152.05C1011.58 152.847 1011.34 153.626 1010.9 154.289C1010.46 154.952 1009.83 155.469 1009.09 155.774C1008.36 156.079 1007.55 156.159 1006.76 156.003C1005.98 155.847 1005.27 155.464 1004.7 154.9C1004.32 154.529 1004.02 154.086 1003.81 153.596C1003.61 153.107 1003.5 152.581 1003.5 152.05C1003.5 151.519 1003.61 150.993 1003.81 150.504C1004.02 150.014 1004.32 149.571 1004.7 149.2ZM1018.49 163C1020.66 160.834 1022.13 158.075 1022.73 155.071C1023.32 152.067 1023.02 148.953 1021.85 146.124C1020.68 143.294 1018.69 140.876 1016.15 139.174C1013.6 137.473 1010.61 136.564 1007.55 136.564C1004.49 136.564 1001.5 137.473 998.952 139.174C996.408 140.876 994.424 143.294 993.253 146.124C992.082 148.953 991.775 152.067 992.372 155.071C992.969 158.075 994.443 160.834 996.607 163C998.038 164.449 999.742 165.6 1001.62 166.385C1003.5 167.171 1005.51 167.575 1007.55 167.575C1009.59 167.575 1011.6 167.171 1013.48 166.385C1015.36 165.6 1017.06 164.449 1018.49 163Z" fill="#39175F"/>
<path d="M1030.48 123.3C1031.06 122.726 1031.79 122.336 1032.58 122.178C1033.38 122.019 1034.2 122.101 1034.95 122.411C1035.7 122.721 1036.34 123.247 1036.79 123.921C1037.24 124.596 1037.48 125.389 1037.48 126.2C1037.48 127.011 1037.24 127.804 1036.79 128.479C1036.34 129.153 1035.7 129.679 1034.95 129.989C1034.2 130.299 1033.38 130.381 1032.58 130.222C1031.79 130.064 1031.06 129.674 1030.48 129.1C1029.72 128.331 1029.28 127.287 1029.28 126.2C1029.28 125.113 1029.72 124.07 1030.48 123.3ZM1044.37 137.2C1046.55 135.024 1048.03 132.253 1048.63 129.235C1049.23 126.217 1048.92 123.089 1047.74 120.247C1046.57 117.404 1044.57 114.975 1042.02 113.265C1039.46 111.556 1036.46 110.644 1033.38 110.644C1030.31 110.644 1027.3 111.556 1024.75 113.265C1022.19 114.975 1020.2 117.404 1019.02 120.247C1017.84 123.089 1017.54 126.217 1018.14 129.235C1018.73 132.253 1020.22 135.024 1022.39 137.2C1025.32 140.084 1029.27 141.7 1033.38 141.7C1037.49 141.7 1041.44 140.084 1044.37 137.2Z" fill="#39175F"/>
<path d="M1056.37 97.5C1056.74 97.1201 1057.18 96.8182 1057.67 96.612C1058.16 96.4059 1058.68 96.2997 1059.21 96.2997C1059.74 96.2997 1060.27 96.4059 1060.76 96.612C1061.25 96.8182 1061.69 97.1201 1062.06 97.5C1062.83 98.2695 1063.26 99.3125 1063.26 100.4C1063.26 101.487 1062.83 102.53 1062.06 103.3C1061.69 103.68 1061.25 103.982 1060.76 104.188C1060.27 104.394 1059.74 104.5 1059.21 104.5C1058.68 104.5 1058.16 104.394 1057.67 104.188C1057.18 103.982 1056.74 103.68 1056.37 103.3C1055.6 102.53 1055.17 101.487 1055.17 100.4C1055.17 99.3125 1055.6 98.2695 1056.37 97.5ZM1070.16 111.4C1072.33 109.232 1073.82 106.467 1074.42 103.454C1075.03 100.441 1074.72 97.3169 1073.55 94.4766C1072.38 91.6364 1070.39 89.2082 1067.84 87.4996C1065.29 85.791 1062.28 84.8789 1059.21 84.8789C1056.14 84.8789 1053.14 85.791 1050.59 87.4996C1048.04 89.2082 1046.05 91.6364 1044.88 94.4766C1043.71 97.3169 1043.4 100.441 1044.01 103.454C1044.61 106.467 1046.1 109.232 1048.27 111.4C1051.18 114.298 1055.11 115.925 1059.21 115.925C1063.32 115.925 1067.25 114.298 1070.16 111.4Z" fill="#39175F"/>
<path d="M958.234 80.2C957.57 79.3759 957.077 78.4279 956.782 77.4112C956.488 76.3945 956.399 75.3294 956.519 74.2778C956.64 73.2262 956.969 72.2092 957.486 71.2859C958.004 70.3627 958.7 69.5516 959.533 68.9L961.032 67.7L977.221 54.9C978.896 53.5865 981.02 52.9863 983.134 53.2297C985.247 53.473 987.18 54.5402 988.513 56.1999C989.813 57.8885 990.396 60.0221 990.134 62.1376C989.872 64.2532 988.787 66.1801 987.114 67.5L969.926 81.1001L969.426 81.5001C967.762 82.7925 965.657 83.3803 963.565 83.1373C961.472 82.8942 959.558 81.8396 958.234 80.2001V80.2Z" fill="#FF9EF6"/>
<path d="M974.023 185.7C976.092 187.747 978.888 188.889 981.797 188.876C984.707 188.863 987.492 187.696 989.543 185.631C991.593 183.565 992.742 180.771 992.736 177.859C992.73 174.948 991.571 172.157 989.512 170.1C988.498 169.078 987.291 168.267 985.962 167.713C984.633 167.16 983.207 166.875 981.768 166.875C980.328 166.875 978.903 167.16 977.574 167.713C976.244 168.267 975.038 169.078 974.023 170.1C971.959 172.171 970.8 174.976 970.8 177.9C970.8 180.824 971.959 183.629 974.023 185.7Z" fill="#FF9EF6"/>
<path d="M999.805 159.8C1001.34 161.333 1003.29 162.377 1005.41 162.8C1007.54 163.222 1009.74 163.005 1011.74 162.176C1013.74 161.346 1015.45 159.941 1016.66 158.139C1017.86 156.337 1018.5 154.218 1018.5 152.05C1018.5 149.882 1017.86 147.763 1016.66 145.961C1015.45 144.158 1013.74 142.754 1011.74 141.924C1009.74 141.095 1007.54 140.878 1005.41 141.3C1003.29 141.723 1001.34 142.767 999.805 144.3C998.784 145.315 997.973 146.523 997.42 147.853C996.867 149.183 996.582 150.609 996.582 152.05C996.582 153.491 996.867 154.917 997.42 156.247C997.973 157.577 998.784 158.785 999.805 159.8Z" fill="#FF9EF6"/>
<path d="M1025.59 134C1027.12 135.545 1029.08 136.599 1031.21 137.029C1033.35 137.459 1035.56 137.245 1037.57 136.415C1039.58 135.585 1041.3 134.176 1042.51 132.366C1043.72 130.556 1044.37 128.428 1044.37 126.25C1044.37 124.072 1043.72 121.944 1042.51 120.134C1041.3 118.324 1039.58 116.915 1037.57 116.085C1035.56 115.254 1033.35 115.041 1031.21 115.471C1029.08 115.901 1027.12 116.955 1025.59 118.5C1023.55 120.566 1022.41 123.35 1022.41 126.25C1022.41 129.15 1023.55 131.934 1025.59 134Z" fill="#FF9EF6"/>
<path d="M1051.47 108.1C1053 109.633 1054.95 110.677 1057.08 111.099C1059.2 111.522 1061.4 111.305 1063.41 110.476C1065.41 109.646 1067.12 108.241 1068.32 106.439C1069.52 104.637 1070.17 102.518 1070.17 100.35C1070.17 98.1822 1069.52 96.0632 1068.32 94.2608C1067.12 92.4584 1065.41 91.0536 1063.41 90.2241C1061.4 89.3945 1059.2 89.1775 1057.08 89.6004C1054.95 90.0233 1053 91.0671 1051.47 92.5999C1050.45 93.6153 1049.64 94.8227 1049.08 96.1528C1048.53 97.4829 1048.25 98.9093 1048.25 100.35C1048.25 101.791 1048.53 103.217 1049.08 104.547C1049.64 105.877 1050.45 107.085 1051.47 108.1Z" fill="#FF9EF6"/>
<path d="M881.487 300.2L981.317 200.3L881.487 100.298L781.558 200.3L881.487 300.2Z" fill="white"/>
<path d="M981.317 200.3L1081.25 100.298L981.317 0.398682L881.487 100.298L981.317 200.3Z" fill="#08E6E7"/>
<path d="M781.558 200.3L881.487 100.298V300.2L781.558 200.3Z" fill="#ED553B"/>
<path d="M931.452 150.301L881.487 200.3V100.298L931.452 150.301Z" fill="#FEA59C"/>
<path d="M931.452 150.301L881.487 200.3H981.317L931.452 150.301Z" fill="#FF9A00"/>
<path d="M978.82 175C979.393 174.426 980.123 174.036 980.918 173.878C981.713 173.719 982.537 173.801 983.286 174.111C984.035 174.421 984.675 174.947 985.125 175.621C985.576 176.296 985.816 177.089 985.816 177.9C985.816 178.711 985.576 179.504 985.125 180.178C984.675 180.853 984.035 181.379 983.286 181.689C982.537 181.999 981.713 182.081 980.918 181.922C980.123 181.764 979.393 181.374 978.82 180.8C978.052 180.03 977.621 178.987 977.621 177.9C977.621 176.812 978.052 175.769 978.82 175ZM992.71 188.9C994.159 187.458 995.309 185.745 996.093 183.857C996.878 181.969 997.282 179.945 997.282 177.9C997.282 175.855 996.878 173.831 996.093 171.943C995.309 170.055 994.159 168.341 992.71 166.9C990.536 164.724 987.766 163.243 984.75 162.643C981.735 162.042 978.609 162.35 975.769 163.528C972.928 164.705 970.5 166.699 968.792 169.257C967.084 171.816 966.172 174.823 966.172 177.9C966.172 180.977 967.084 183.984 968.792 186.543C970.5 189.101 972.928 191.095 975.769 192.272C978.609 193.45 981.735 193.758 984.75 193.157C987.766 192.557 990.536 191.076 992.71 188.9Z" fill="#31313E"/>
<path d="M1004.7 149.2C1005.27 148.636 1005.98 148.252 1006.76 148.097C1007.55 147.941 1008.36 148.021 1009.09 148.326C1009.83 148.631 1010.46 149.148 1010.9 149.811C1011.34 150.474 1011.58 151.253 1011.58 152.05C1011.58 152.847 1011.34 153.626 1010.9 154.289C1010.46 154.952 1009.83 155.469 1009.09 155.774C1008.36 156.079 1007.55 156.159 1006.76 156.003C1005.98 155.847 1005.27 155.464 1004.7 154.9C1004.32 154.529 1004.02 154.086 1003.81 153.596C1003.61 153.107 1003.5 152.581 1003.5 152.05C1003.5 151.519 1003.61 150.993 1003.81 150.504C1004.02 150.014 1004.32 149.571 1004.7 149.2ZM1018.49 163C1020.66 160.834 1022.13 158.075 1022.73 155.071C1023.32 152.067 1023.02 148.953 1021.85 146.124C1020.68 143.294 1018.69 140.876 1016.15 139.174C1013.6 137.473 1010.61 136.564 1007.55 136.564C1004.49 136.564 1001.5 137.473 998.952 139.174C996.408 140.876 994.424 143.294 993.253 146.124C992.082 148.953 991.775 152.067 992.372 155.071C992.969 158.075 994.443 160.834 996.607 163C998.038 164.449 999.742 165.6 1001.62 166.385C1003.5 167.171 1005.51 167.575 1007.55 167.575C1009.59 167.575 1011.6 167.171 1013.48 166.385C1015.36 165.6 1017.06 164.449 1018.49 163Z" fill="#31313E"/>
<path d="M1030.48 123.3C1031.06 122.726 1031.79 122.336 1032.58 122.178C1033.38 122.019 1034.2 122.101 1034.95 122.411C1035.7 122.721 1036.34 123.247 1036.79 123.921C1037.24 124.596 1037.48 125.389 1037.48 126.2C1037.48 127.011 1037.24 127.804 1036.79 128.479C1036.34 129.153 1035.7 129.679 1034.95 129.989C1034.2 130.299 1033.38 130.381 1032.58 130.222C1031.79 130.064 1031.06 129.674 1030.48 129.1C1029.72 128.331 1029.28 127.287 1029.28 126.2C1029.28 125.113 1029.72 124.07 1030.48 123.3ZM1044.37 137.2C1046.55 135.024 1048.03 132.253 1048.63 129.235C1049.23 126.217 1048.92 123.089 1047.74 120.247C1046.57 117.404 1044.57 114.975 1042.02 113.265C1039.46 111.556 1036.46 110.644 1033.38 110.644C1030.31 110.644 1027.3 111.556 1024.75 113.265C1022.19 114.975 1020.2 117.404 1019.02 120.247C1017.84 123.089 1017.54 126.217 1018.14 129.235C1018.73 132.253 1020.22 135.024 1022.39 137.2C1025.32 140.084 1029.27 141.7 1033.38 141.7C1037.49 141.7 1041.44 140.084 1044.37 137.2Z" fill="#31313E"/>
<path d="M1056.37 97.5C1056.74 97.1201 1057.18 96.8182 1057.67 96.612C1058.16 96.4059 1058.68 96.2997 1059.21 96.2997C1059.74 96.2997 1060.27 96.4059 1060.76 96.612C1061.25 96.8182 1061.69 97.1201 1062.06 97.5C1062.83 98.2695 1063.26 99.3125 1063.26 100.4C1063.26 101.487 1062.83 102.53 1062.06 103.3C1061.69 103.68 1061.25 103.982 1060.76 104.188C1060.27 104.394 1059.74 104.5 1059.21 104.5C1058.68 104.5 1058.16 104.394 1057.67 104.188C1057.18 103.982 1056.74 103.68 1056.37 103.3C1055.6 102.53 1055.17 101.487 1055.17 100.4C1055.17 99.3125 1055.6 98.2695 1056.37 97.5ZM1070.16 111.4C1072.33 109.232 1073.82 106.467 1074.42 103.454C1075.03 100.441 1074.72 97.3169 1073.55 94.4766C1072.38 91.6364 1070.39 89.2082 1067.84 87.4996C1065.29 85.791 1062.28 84.8789 1059.21 84.8789C1056.14 84.8789 1053.14 85.791 1050.59 87.4996C1048.04 89.2082 1046.05 91.6364 1044.88 94.4766C1043.71 97.3169 1043.4 100.441 1044.01 103.454C1044.61 106.467 1046.1 109.232 1048.27 111.4C1051.18 114.298 1055.11 115.925 1059.21 115.925C1063.32 115.925 1067.25 114.298 1070.16 111.4Z" fill="#31313E"/>
<path d="M961.432 142C966.428 127.2 976.721 91.4001 976.721 91.4001L971.625 83.7L988.813 70.1C991.102 68.3474 992.628 65.7799 993.074 62.9307C993.521 60.0816 992.854 57.1698 991.211 54.8C990.342 53.5753 989.233 52.5399 987.952 51.7566C986.671 50.9734 985.245 50.4586 983.759 50.2436C982.273 50.0285 980.76 50.1176 979.309 50.5055C977.859 50.8933 976.503 51.5718 975.322 52.4999L959.333 65.1999L947.142 51.0998C946.519 50.2062 946.129 49.1712 946.007 48.0885C945.885 47.0059 946.034 45.9099 946.442 44.8998C951.547 32.6527 960.726 22.5485 972.424 16.2998C973.43 15.7947 974.552 15.5657 975.676 15.6359C976.799 15.7062 977.884 16.0733 978.82 16.6998C987.414 22.4998 1022.29 50.1998 1034.88 62.0998C1039.69 66.3766 1043.78 71.4092 1046.97 76.9998C1047.6 78.4056 1047.84 79.956 1047.67 81.4874C1047.49 83.0188 1046.91 84.4742 1045.97 85.6998C1040.48 92.4998 973.623 160 973.524 160C971.487 160.506 969.34 160.318 967.422 159.467C965.504 158.616 963.924 157.15 962.931 155.3C961.711 153.333 960.944 151.119 960.685 148.819C960.425 146.518 960.681 144.189 961.432 142V142Z" fill="white"/>
<path d="M959.433 141.5C963.83 128.4 972.524 98.2001 974.323 92.1L968.527 83.4L987.514 68.3999C989.347 67.0168 990.566 64.971 990.911 62.6999C991.244 60.5305 990.744 58.3156 989.512 56.4999L989.213 56.2C987.859 54.4625 985.887 53.3156 983.708 52.9988C981.529 52.682 979.313 53.2199 977.521 54.5C977.421 54.6 977.321 54.6 977.121 54.7L959.233 68.9L945.543 53.1001L945.343 52.8003C944.452 51.5728 943.931 50.115 943.844 48.6003C943.754 47.1084 943.958 45.6135 944.444 44.2002C947.018 37.9445 950.671 32.1902 955.236 27.2002C959.911 22.0505 965.417 17.7236 971.525 14.4003C972.963 13.7265 974.534 13.3848 976.122 13.4003C977.697 13.4866 979.218 14.0055 980.519 14.9002C985.315 18.2003 998.107 28.1003 1010.7 38.3002C1020.99 46.6003 1031.18 55.2003 1036.88 60.6002C1039.83 63.4264 1042.6 66.4321 1045.17 69.6003C1046.84 71.6358 1048.28 73.849 1049.47 76.2C1050.34 78.0372 1050.69 80.0788 1050.47 82.1C1050.24 84.0839 1049.44 85.9589 1048.17 87.5C1046.27 89.9 1036.98 99.6 1025.69 111.2C1004.1 133.3 974.423 162.8 974.323 162.8C971.547 163.407 968.646 163.017 966.128 161.7C964.055 160.588 962.327 158.928 961.132 156.9C959.696 154.636 958.807 152.068 958.534 149.4C958.238 146.732 958.545 144.033 959.433 141.5L959.433 141.5ZM979.419 92.2999C979.419 92.5 969.127 128.2 964.13 143.1C963.457 144.954 963.217 146.939 963.43 148.9C963.699 150.777 964.345 152.58 965.329 154.2C966.069 155.49 967.138 156.56 968.427 157.3C969.934 158.082 971.672 158.295 973.324 157.9C973.424 157.9 1001 129.4 1022.09 107.7C1033.28 96.1999 1042.48 86.7 1044.27 84.3999C1044.95 83.559 1045.39 82.5612 1045.57 81.5001C1045.67 80.431 1045.46 79.3571 1044.97 78.4C1043.95 76.3705 1042.71 74.4591 1041.28 72.7C1038.86 69.6777 1036.22 66.8368 1033.38 64.2C1027.89 58.9 1017.79 50.5 1007.6 42.2C995.109 32 982.417 22.2 977.721 19.0001C977.144 18.6521 976.493 18.4465 975.822 18.4C975.167 18.3879 974.518 18.5247 973.923 18.8C968.288 21.8035 963.217 25.7621 958.934 30.5001C954.746 35.0591 951.427 40.346 949.14 46.0999C948.846 46.7582 948.742 47.4856 948.841 48.1999C948.856 48.8465 949.064 49.4736 949.44 49.9999L959.933 62.0999L974.023 50.8C974.245 50.7024 974.447 50.5671 974.623 50.4C977.446 48.4324 980.91 47.6103 984.316 48.0999C986.043 48.2948 987.714 48.8383 989.225 49.6978C990.737 50.5572 992.058 51.7146 993.11 53.1C993.267 53.246 993.402 53.4145 993.51 53.6C995.522 56.4921 996.343 60.0485 995.803 63.5308C995.264 67.013 993.404 70.1535 990.612 72.3L975.222 84.5L979.719 91.2L979.419 92.2999Z" fill="#31313E"/>
<path d="M958.634 80.6C957.97 79.7759 957.476 78.828 957.182 77.8113C956.888 76.7945 956.798 75.7294 956.919 74.6778C957.04 73.6262 957.369 72.6092 957.886 71.686C958.404 70.7627 959.099 69.9516 959.933 69.3L961.432 68.1L977.621 55.3C979.295 53.9865 981.42 53.3864 983.533 53.6297C985.647 53.8731 987.58 54.9403 988.913 56.6C990.213 58.2885 990.795 60.4221 990.534 62.5377C990.272 64.6532 989.186 66.58 987.514 67.9L970.326 81.5L969.826 81.9C968.162 83.1924 966.057 83.7802 963.965 83.5371C961.872 83.2941 959.958 82.2396 958.634 80.6Z" fill="#FEA49C"/>
<path d="M974.023 185.7C976.092 187.747 978.888 188.889 981.797 188.876C984.707 188.863 987.492 187.696 989.543 185.631C991.593 183.565 992.742 180.771 992.736 177.859C992.73 174.948 991.571 172.157 989.512 170.1C988.498 169.078 987.291 168.267 985.962 167.713C984.633 167.16 983.207 166.875 981.768 166.875C980.328 166.875 978.903 167.16 977.574 167.713C976.244 168.267 975.038 169.078 974.023 170.1C971.959 172.171 970.8 174.976 970.8 177.9C970.8 180.824 971.959 183.629 974.023 185.7Z" fill="#FEA49C"/>
<path d="M999.805 159.8C1001.34 161.333 1003.29 162.377 1005.41 162.8C1007.54 163.222 1009.74 163.005 1011.74 162.176C1013.74 161.346 1015.45 159.941 1016.66 158.139C1017.86 156.337 1018.5 154.218 1018.5 152.05C1018.5 149.882 1017.86 147.763 1016.66 145.961C1015.45 144.158 1013.74 142.754 1011.74 141.924C1009.74 141.095 1007.54 140.878 1005.41 141.3C1003.29 141.723 1001.34 142.767 999.805 144.3C998.784 145.315 997.973 146.523 997.42 147.853C996.867 149.183 996.582 150.609 996.582 152.05C996.582 153.491 996.867 154.917 997.42 156.247C997.973 157.577 998.784 158.785 999.805 159.8Z" fill="#FEA49C"/>
<path d="M1025.59 134C1027.12 135.545 1029.08 136.599 1031.21 137.029C1033.35 137.459 1035.56 137.245 1037.57 136.415C1039.58 135.585 1041.3 134.176 1042.51 132.366C1043.72 130.556 1044.37 128.428 1044.37 126.25C1044.37 124.072 1043.72 121.944 1042.51 120.134C1041.3 118.324 1039.58 116.915 1037.57 116.085C1035.56 115.254 1033.35 115.041 1031.21 115.471C1029.08 115.901 1027.12 116.955 1025.59 118.5C1023.55 120.566 1022.41 123.35 1022.41 126.25C1022.41 129.15 1023.55 131.934 1025.59 134Z" fill="#FEA49C"/>
<path d="M1051.47 108.1C1053 109.633 1054.95 110.677 1057.08 111.099C1059.2 111.522 1061.4 111.305 1063.41 110.476C1065.41 109.646 1067.12 108.241 1068.32 106.439C1069.52 104.637 1070.17 102.518 1070.17 100.35C1070.17 98.1822 1069.52 96.0632 1068.32 94.2608C1067.12 92.4584 1065.41 91.0536 1063.41 90.2241C1061.4 89.3945 1059.2 89.1775 1057.08 89.6004C1054.95 90.0233 1053 91.0671 1051.47 92.5999C1050.45 93.6153 1049.64 94.8227 1049.08 96.1528C1048.53 97.4829 1048.25 98.9093 1048.25 100.35C1048.25 101.791 1048.53 103.217 1049.08 104.547C1049.64 105.877 1050.45 107.085 1051.47 108.1Z" fill="#FEA49C"/>
<path d="M1081.25 300.2L1181.08 200.3L1081.25 100.298L981.317 200.3L1081.25 300.2Z" fill="white"/>
<path fill-rule="evenodd" clip-rule="evenodd" d="M1106.53 125.6C1112.27 131.347 1115.84 138.907 1116.63 146.992C1117.43 155.077 1115.4 163.187 1110.89 169.942C1106.37 176.697 1099.66 181.678 1091.9 184.039C1084.13 186.399 1075.78 185.992 1068.28 182.886C1060.78 179.781 1054.58 174.17 1050.75 167.008C1046.92 159.846 1045.69 151.576 1047.26 143.607C1048.84 135.637 1053.13 128.461 1059.4 123.3C1065.67 118.139 1073.53 115.312 1081.65 115.3C1086.27 115.292 1090.85 116.198 1095.12 117.966C1099.39 119.733 1103.27 122.328 1106.53 125.6Z" fill="#08E6E7"/>
<path fill-rule="evenodd" clip-rule="evenodd" d="M1057.37 174.9C1062.28 179.824 1065.63 186.096 1066.98 192.923C1068.34 199.751 1067.64 206.827 1064.98 213.257C1062.31 219.688 1057.81 225.184 1052.02 229.05C1046.24 232.917 1039.44 234.981 1032.48 234.981C1025.53 234.981 1018.73 232.917 1012.94 229.05C1007.16 225.184 1002.65 219.688 999.987 213.257C997.324 206.827 996.626 199.751 997.981 192.923C999.336 186.096 1002.68 179.824 1007.6 174.9C1010.87 171.627 1014.74 169.03 1019.01 167.259C1023.28 165.487 1027.86 164.575 1032.48 164.575C1037.1 164.575 1041.68 165.487 1045.95 167.259C1050.22 169.03 1054.1 171.627 1057.37 174.9Z" fill="#ED553B"/>
<path fill-rule="evenodd" clip-rule="evenodd" d="M1106.13 126C1111.9 131.762 1115.49 139.347 1116.3 147.463C1117.11 155.58 1115.07 163.724 1110.55 170.509C1106.03 177.294 1099.29 182.299 1091.49 184.671C1083.7 187.044 1075.32 186.636 1067.78 183.519C1060.25 180.401 1054.04 174.766 1050.19 167.574C1046.35 160.383 1045.11 152.079 1046.7 144.079C1048.29 136.08 1052.6 128.878 1058.9 123.703C1065.2 118.529 1073.1 115.7 1081.25 115.7C1090.58 115.703 1099.53 119.407 1106.13 126Z" fill="#08E6E7"/>
<path d="M1081.25 300.2L1181.08 200.3L1131.42 150.499L1031.48 250.5L1081.25 300.2Z" fill="#FEA49C"/>
<path fill-rule="evenodd" clip-rule="evenodd" d="M1056.37 175.8C1061.31 180.721 1064.69 187.002 1066.07 193.845C1067.44 200.689 1066.76 207.788 1064.1 214.241C1061.44 220.695 1056.92 226.213 1051.13 230.095C1045.33 233.978 1038.51 236.051 1031.53 236.051C1024.56 236.051 1017.74 233.978 1011.94 230.095C1006.14 226.213 1001.63 220.695 998.968 214.241C996.309 207.788 995.623 200.689 997 193.845C998.376 187.002 1001.75 180.721 1006.7 175.8C1009.96 172.535 1013.83 169.944 1018.09 168.177C1022.35 166.41 1026.92 165.5 1031.53 165.5C1036.15 165.5 1040.71 166.41 1044.97 168.177C1049.23 169.944 1053.11 172.535 1056.37 175.8Z" fill="#ED553B"/>
<path fill-rule="evenodd" clip-rule="evenodd" d="M1005.9 353.8C1011 358.9 1008.2 370 999.605 378.6C991.011 387.2 979.919 390 974.823 384.9L919.261 329.2C914.065 324.1 916.863 313 925.457 304.4C934.051 295.8 945.143 293 950.34 298.1L1005.9 353.8Z" fill="#F5FFFF"/>
<path d="M1007.4 352.3C1008.94 354.067 1009.99 356.205 1010.44 358.504C1010.9 360.802 1010.75 363.18 1010 365.4C1008.34 370.981 1005.28 376.042 1001.1 380.1C997.104 384.323 992.023 387.367 986.414 388.9C984.204 389.663 981.833 389.833 979.536 389.395C977.239 388.956 975.098 387.924 973.324 386.4L917.762 330.7C916.203 328.946 915.14 326.806 914.683 324.503C914.226 322.201 914.392 319.817 915.164 317.6C916.76 312.015 919.792 306.946 923.958 302.9C927.989 298.717 933.059 295.68 938.648 294.1C940.872 293.319 943.263 293.138 945.579 293.577C947.895 294.016 950.054 295.059 951.838 296.6L1007.4 352.3ZM1005.8 364.4C1006.38 362.893 1006.56 361.26 1006.31 359.663C1006.07 358.067 1005.41 356.562 1004.4 355.3L948.84 299.6C947.577 298.597 946.074 297.94 944.479 297.694C942.884 297.449 941.253 297.623 939.747 298.2C934.879 299.592 930.466 302.249 926.956 305.9C923.346 309.404 920.696 313.777 919.261 318.6C918.717 320.119 918.57 321.752 918.832 323.345C919.094 324.937 919.758 326.436 920.76 327.7L976.321 383.4C977.583 384.408 979.086 385.068 980.682 385.314C982.277 385.559 983.909 385.382 985.415 384.8C990.203 383.293 994.557 380.652 998.106 377.1C1001.66 373.549 1004.3 369.192 1005.8 364.4V364.4Z" fill="#39175F"/>
<path fill-rule="evenodd" clip-rule="evenodd" d="M919.261 329.2C914.165 324 916.963 312.9 925.557 304.3C934.151 295.7 945.243 292.9 950.339 298.1C955.436 303.2 952.638 314.3 944.044 322.9C935.55 331.5 924.358 334.3 919.261 329.2Z" fill="#ED553B"/>
<path d="M917.762 330.7C916.222 328.914 915.18 326.753 914.742 324.436C914.303 322.118 914.483 319.726 915.264 317.5C916.843 311.907 919.878 306.834 924.058 302.8C928.101 298.631 933.166 295.597 938.748 294C940.942 293.088 943.357 292.849 945.688 293.312C948.018 293.774 950.159 294.919 951.839 296.6C953.519 298.281 954.662 300.423 955.125 302.755C955.587 305.087 955.348 307.504 954.437 309.7C952.817 315.298 949.749 320.369 945.543 324.4C941.543 328.623 936.462 331.667 930.853 333.2C928.643 333.963 926.272 334.134 923.975 333.695C921.678 333.256 919.537 332.224 917.762 330.7V330.7ZM919.361 318.6C918.784 320.108 918.61 321.74 918.855 323.336C919.101 324.931 919.757 326.435 920.76 327.7C922.033 328.686 923.535 329.332 925.126 329.577C926.717 329.822 928.344 329.658 929.854 329.1C934.701 327.727 939.087 325.066 942.545 321.4C946.215 317.927 948.903 313.546 950.339 308.7C951.071 307.217 951.32 305.541 951.052 303.909C950.783 302.277 950.009 300.77 948.84 299.6C947.672 298.43 946.166 297.656 944.535 297.387C942.903 297.118 941.229 297.368 939.747 298.1C934.927 299.536 930.557 302.188 927.056 305.8C923.407 309.312 920.752 313.729 919.361 318.6L919.361 318.6Z" fill="#39175F"/>
<path fill-rule="evenodd" clip-rule="evenodd" d="M1067.76 291.8C1072.85 297 1070.06 308.1 1061.46 316.7C1052.97 325.3 1041.78 328.1 1036.68 322.9L981.118 267.3C976.022 262.2 978.82 251.1 987.414 242.5C995.908 233.9 1007.1 231.1 1012.2 236.2L1067.76 291.8Z" fill="#F5FFFF"/>
<path d="M1069.26 290.3C1070.81 292.077 1071.87 294.233 1072.33 296.551C1072.78 298.868 1072.62 301.265 1071.86 303.5C1070.24 309.075 1067.21 314.138 1063.06 318.2C1058.98 322.373 1053.88 325.407 1048.27 327C1046.06 327.763 1043.69 327.933 1041.39 327.495C1039.1 327.056 1036.95 326.024 1035.18 324.5L979.619 268.8C978.06 267.045 976.997 264.906 976.54 262.603C976.083 260.3 976.249 257.917 977.021 255.7C978.594 250.104 981.629 245.03 985.815 241C989.89 236.8 994.987 233.733 1000.6 232.1C1002.82 231.352 1005.2 231.198 1007.5 231.655C1009.79 232.111 1011.93 233.161 1013.7 234.7L1069.26 290.3ZM1066.26 293.4L1010.7 237.7C1009.44 236.692 1007.93 236.032 1006.34 235.786C1004.74 235.541 1003.11 235.718 1001.6 236.3C996.756 237.673 992.371 240.334 988.913 244C985.243 247.473 982.554 251.854 981.118 256.7C980.575 258.219 980.427 259.852 980.689 261.444C980.951 263.037 981.615 264.536 982.617 265.8L1038.18 321.4C1039.44 322.403 1040.94 323.067 1042.53 323.329C1044.12 323.592 1045.75 323.444 1047.27 322.9C1052.1 321.487 1056.48 318.832 1059.96 315.2C1063.66 311.707 1066.35 307.287 1067.76 302.4C1068.3 300.897 1068.45 299.28 1068.19 297.703C1067.93 296.127 1067.26 294.645 1066.26 293.4Z" fill="#39175F"/>
<path fill-rule="evenodd" clip-rule="evenodd" d="M981.118 267.2C976.022 262.1 978.82 251 987.414 242.4C996.008 233.8 1007.1 231 1012.2 236.1C1017.39 241.3 1014.59 252.4 1006 261C997.407 269.6 986.314 272.4 981.118 267.2Z" fill="#FF9EF6"/>
<path d="M979.619 268.7C978.096 266.925 977.065 264.781 976.626 262.483C976.188 260.185 976.359 257.812 977.121 255.6C978.7 250.007 981.734 244.934 985.915 240.9C989.946 236.717 995.016 233.68 1000.6 232.1C1002.8 231.165 1005.22 230.909 1007.56 231.363C1009.91 231.817 1012.06 232.962 1013.75 234.65C1015.43 236.338 1016.58 238.492 1017.03 240.835C1017.48 243.178 1017.23 245.604 1016.29 247.8C1014.62 253.35 1011.6 258.4 1007.5 262.5C1003.4 266.6 998.356 269.623 992.81 271.3C990.577 272.066 988.182 272.229 985.866 271.773C983.55 271.316 981.395 270.256 979.619 268.7V268.7ZM981.218 256.6C980.463 258.072 980.192 259.746 980.445 261.382C980.697 263.017 981.46 264.531 982.624 265.707C983.788 266.883 985.293 267.66 986.925 267.928C988.557 268.197 990.232 267.942 991.711 267.2C996.539 265.717 1000.93 263.074 1004.5 259.5C1008.07 255.926 1010.71 251.532 1012.2 246.7C1012.94 245.221 1013.19 243.544 1012.92 241.911C1012.66 240.278 1011.88 238.772 1010.7 237.607C1009.53 236.442 1008.02 235.679 1006.38 235.426C1004.75 235.174 1003.08 235.445 1001.6 236.2C996.767 237.596 992.387 240.254 988.913 243.9C985.269 247.377 982.613 251.759 981.218 256.6V256.6Z" fill="#39175F"/>
<path fill-rule="evenodd" clip-rule="evenodd" d="M934.55 312.6C929.454 317.8 918.362 315.1 909.868 306.5C901.274 298 898.575 286.9 903.672 281.7L959.633 225.7C964.829 220.6 975.922 223.3 984.416 231.9C992.91 240.4 995.708 251.5 990.511 256.7L934.55 312.6Z" fill="#F5FFFF"/>
<path d="M936.149 314.1C934.382 315.671 932.232 316.749 929.916 317.223C927.6 317.697 925.2 317.551 922.958 316.8C917.39 315.239 912.348 312.198 908.369 308C904.173 304.018 901.134 298.972 899.575 293.4C898.833 291.162 898.683 288.771 899.138 286.458C899.594 284.145 900.639 281.989 902.173 280.2L958.134 224.2C959.902 222.666 962.039 221.619 964.335 221.163C966.631 220.707 969.005 220.858 971.225 221.6C976.755 223.277 981.789 226.289 985.883 230.369C989.978 234.449 993.009 239.473 994.709 245C995.435 247.246 995.568 249.642 995.095 251.955C994.622 254.268 993.56 256.42 992.01 258.2L936.149 314.1ZM923.958 312.6C925.472 313.168 927.109 313.329 928.705 313.066C930.301 312.803 931.8 312.125 933.051 311.1L989.013 255.2C990.032 253.925 990.706 252.409 990.969 250.797C991.231 249.185 991.074 247.533 990.511 246C989.153 241.195 986.53 236.844 982.917 233.4C979.431 229.768 975.056 227.113 970.226 225.7C968.702 225.151 967.061 225.009 965.466 225.29C963.871 225.571 962.377 226.264 961.132 227.3L905.171 283.2C904.173 284.467 903.513 285.966 903.251 287.557C902.988 289.148 903.133 290.78 903.672 292.3C905.044 297.151 907.703 301.539 911.367 305C914.808 308.616 919.156 311.24 923.958 312.6V312.6Z" fill="#39175F"/>
<path fill-rule="evenodd" clip-rule="evenodd" d="M959.733 225.8C964.829 220.7 975.922 223.4 984.516 231.9C993.01 240.5 995.708 251.6 990.612 256.7C985.415 261.9 974.323 259.1 965.829 250.6C957.335 242.1 954.537 231 959.733 225.8Z" fill="#08E6E7"/>
<path d="M958.234 224.3C959.999 222.761 962.137 221.711 964.433 221.255C966.73 220.799 969.106 220.952 971.325 221.7C976.875 223.317 981.927 226.31 986.015 230.4C990.102 234.49 993.092 239.546 994.709 245.1C995.611 247.299 995.844 249.716 995.381 252.047C994.917 254.379 993.777 256.522 992.102 258.208C990.428 259.895 988.293 261.05 985.966 261.528C983.64 262.007 981.223 261.788 979.02 260.9C973.473 259.223 968.427 256.2 964.33 252.1C960.233 248 957.212 242.95 955.536 237.4C954.804 235.171 954.667 232.788 955.141 230.49C955.614 228.192 956.681 226.058 958.234 224.3ZM970.326 225.8C968.807 225.256 967.176 225.108 965.584 225.37C963.993 225.633 962.495 226.297 961.232 227.3C960.212 228.555 959.538 230.055 959.275 231.651C959.012 233.247 959.17 234.884 959.733 236.4C961.064 241.245 963.69 245.636 967.328 249.1C970.805 252.721 975.187 255.345 980.019 256.7C981.534 257.263 983.17 257.421 984.765 257.158C986.359 256.895 987.858 256.22 989.112 255.2C990.115 253.936 990.778 252.437 991.041 250.844C991.303 249.252 991.155 247.619 990.611 246.1C989.165 241.305 986.556 236.942 983.017 233.4C979.477 229.858 975.118 227.247 970.326 225.8V225.8Z" fill="#39175F"/>
<path d="M981.317 400.202L1081.25 300.2L981.317 200.3L881.487 300.2L981.317 400.202Z" fill="#31313E"/>
<path fill-rule="evenodd" clip-rule="evenodd" d="M1005.9 353.8C1011 358.9 1008.2 370 999.605 378.6C991.011 387.2 979.919 390 974.823 384.9L919.261 329.2C914.065 324.1 916.863 313 925.457 304.4C934.051 295.8 945.143 293 950.34 298.1L1005.9 353.8Z" fill="#F5FFFF"/>
<path d="M1007.4 352.3C1008.94 354.067 1009.99 356.205 1010.44 358.504C1010.9 360.802 1010.75 363.18 1010 365.4C1008.34 370.981 1005.28 376.042 1001.1 380.1C997.104 384.323 992.023 387.367 986.414 388.9C984.204 389.663 981.833 389.833 979.536 389.395C977.239 388.956 975.098 387.924 973.324 386.4L917.762 330.7C916.203 328.946 915.14 326.806 914.683 324.503C914.226 322.201 914.392 319.817 915.164 317.6C916.76 312.015 919.792 306.946 923.958 302.9C927.989 298.717 933.059 295.68 938.648 294.1C940.872 293.319 943.263 293.138 945.579 293.577C947.895 294.016 950.054 295.059 951.838 296.6L1007.4 352.3ZM1005.8 364.4C1006.38 362.893 1006.56 361.26 1006.31 359.663C1006.07 358.067 1005.41 356.562 1004.4 355.3L948.84 299.6C947.577 298.597 946.074 297.94 944.479 297.694C942.884 297.449 941.253 297.623 939.747 298.2C934.879 299.592 930.466 302.249 926.956 305.9C923.346 309.404 920.696 313.777 919.261 318.6C918.717 320.119 918.57 321.752 918.832 323.345C919.094 324.937 919.758 326.436 920.76 327.7L976.321 383.4C977.583 384.408 979.086 385.068 980.682 385.314C982.277 385.559 983.909 385.382 985.415 384.8C990.203 383.293 994.557 380.652 998.106 377.1C1001.66 373.549 1004.3 369.192 1005.8 364.4V364.4Z" fill="#31313E"/>
<path fill-rule="evenodd" clip-rule="evenodd" d="M919.261 329.2C914.165 324 916.963 312.9 925.557 304.3C934.151 295.7 945.243 292.9 950.339 298.1C955.436 303.2 952.638 314.3 944.044 322.9C935.55 331.5 924.358 334.3 919.261 329.2Z" fill="#ED553B"/>
<path d="M917.762 330.7C916.222 328.914 915.18 326.753 914.742 324.436C914.303 322.118 914.483 319.726 915.264 317.5C916.843 311.907 919.878 306.834 924.058 302.8C928.101 298.631 933.166 295.597 938.748 294C940.942 293.088 943.357 292.849 945.688 293.312C948.018 293.774 950.159 294.919 951.839 296.6C953.519 298.281 954.662 300.423 955.125 302.755C955.587 305.087 955.348 307.504 954.437 309.7C952.818 315.275 949.789 320.339 945.643 324.4C941.591 328.608 936.483 331.647 930.853 333.2C928.643 333.963 926.272 334.134 923.975 333.695C921.678 333.256 919.537 332.224 917.762 330.7V330.7ZM919.361 318.6C918.784 320.108 918.61 321.74 918.855 323.336C919.101 324.931 919.757 326.435 920.76 327.7C922.033 328.686 923.535 329.332 925.126 329.577C926.717 329.822 928.344 329.658 929.854 329.1C934.701 327.727 939.087 325.066 942.545 321.4C946.215 317.927 948.903 313.546 950.339 308.7C951.071 307.217 951.32 305.541 951.052 303.909C950.783 302.277 950.009 300.77 948.84 299.6C947.672 298.43 946.166 297.656 944.535 297.387C942.903 297.118 941.229 297.368 939.747 298.1C934.927 299.536 930.557 302.188 927.056 305.8C923.407 309.312 920.752 313.729 919.361 318.6L919.361 318.6Z" fill="#31313E"/>
<path fill-rule="evenodd" clip-rule="evenodd" d="M1067.76 291.8C1072.85 297 1070.06 308.1 1061.46 316.7C1052.97 325.3 1041.78 328.1 1036.68 322.9L981.118 267.3C976.022 262.2 978.82 251.1 987.414 242.5C995.908 233.9 1007.1 231.1 1012.2 236.2L1067.76 291.8Z" fill="#F5FFFF"/>
<path d="M1069.26 290.3C1070.81 292.077 1071.87 294.233 1072.33 296.551C1072.78 298.868 1072.62 301.265 1071.86 303.5C1070.24 309.075 1067.21 314.138 1063.06 318.2C1058.98 322.373 1053.88 325.407 1048.27 327C1046.06 327.763 1043.69 327.933 1041.39 327.495C1039.1 327.056 1036.95 326.024 1035.18 324.5L979.619 268.8C978.06 267.045 976.997 264.906 976.54 262.603C976.083 260.3 976.249 257.917 977.021 255.7C978.594 250.104 981.629 245.03 985.815 241C989.89 236.8 994.987 233.733 1000.6 232.1C1002.82 231.352 1005.2 231.198 1007.5 231.655C1009.79 232.111 1011.93 233.161 1013.7 234.7L1069.26 290.3ZM1066.26 293.4L1010.7 237.7C1009.44 236.692 1007.93 236.032 1006.34 235.786C1004.74 235.541 1003.11 235.718 1001.6 236.3C996.756 237.673 992.371 240.334 988.913 244C985.243 247.473 982.554 251.854 981.118 256.7C980.575 258.219 980.427 259.852 980.689 261.444C980.951 263.037 981.615 264.536 982.617 265.8L1038.18 321.4C1039.44 322.403 1040.94 323.067 1042.53 323.329C1044.12 323.592 1045.75 323.444 1047.27 322.9C1052.1 321.487 1056.48 318.832 1059.96 315.2C1063.66 311.707 1066.35 307.287 1067.76 302.4C1068.3 300.897 1068.45 299.28 1068.19 297.703C1067.93 296.127 1067.26 294.645 1066.26 293.4Z" fill="#31313E"/>
<path fill-rule="evenodd" clip-rule="evenodd" d="M981.118 267.2C976.022 262.1 978.82 251 987.414 242.4C996.008 233.8 1007.1 231 1012.2 236.1C1017.39 241.3 1014.59 252.4 1006 261C997.407 269.6 986.314 272.4 981.118 267.2Z" fill="#FEA49C"/>
<path d="M979.619 268.7C978.096 266.925 977.065 264.781 976.626 262.483C976.188 260.185 976.359 257.812 977.121 255.6C978.7 250.007 981.734 244.934 985.915 240.9C989.946 236.717 995.016 233.68 1000.6 232.1C1002.8 231.165 1005.22 230.909 1007.56 231.363C1009.91 231.817 1012.06 232.962 1013.75 234.65C1015.43 236.338 1016.58 238.492 1017.03 240.835C1017.48 243.178 1017.23 245.604 1016.29 247.8C1014.67 253.375 1011.65 258.438 1007.5 262.5C1003.44 266.649 998.381 269.68 992.81 271.3C990.577 272.066 988.182 272.229 985.866 271.773C983.55 271.316 981.395 270.256 979.619 268.7V268.7ZM981.218 256.6C980.463 258.072 980.192 259.746 980.445 261.382C980.697 263.017 981.46 264.531 982.624 265.707C983.788 266.883 985.293 267.66 986.925 267.928C988.557 268.197 990.232 267.942 991.711 267.2C996.539 265.717 1000.93 263.074 1004.5 259.5C1008.07 255.926 1010.71 251.532 1012.2 246.7C1012.94 245.221 1013.19 243.544 1012.92 241.911C1012.66 240.278 1011.88 238.772 1010.7 237.607C1009.53 236.442 1008.02 235.679 1006.38 235.426C1004.75 235.174 1003.08 235.445 1001.6 236.2C996.767 237.596 992.387 240.254 988.913 243.9C985.269 247.377 982.613 251.759 981.218 256.6V256.6Z" fill="#31313E"/>
<path fill-rule="evenodd" clip-rule="evenodd" d="M934.55 312.6C929.454 317.8 918.362 315.1 909.868 306.5C901.274 298 898.575 286.9 903.672 281.7L959.633 225.7C964.829 220.6 975.922 223.3 984.416 231.9C992.91 240.4 995.708 251.5 990.511 256.7L934.55 312.6Z" fill="#F5FFFF"/>
<path d="M936.149 314.1C934.382 315.671 932.232 316.749 929.916 317.223C927.6 317.697 925.2 317.551 922.958 316.8C917.39 315.239 912.348 312.198 908.369 308C904.173 304.018 901.134 298.972 899.575 293.4C898.833 291.162 898.683 288.771 899.138 286.458C899.594 284.145 900.639 281.989 902.173 280.2L958.134 224.2C959.902 222.666 962.039 221.619 964.335 221.163C966.631 220.707 969.005 220.858 971.225 221.6C976.755 223.277 981.789 226.289 985.883 230.369C989.978 234.449 993.009 239.473 994.709 245C995.435 247.246 995.568 249.642 995.095 251.955C994.622 254.268 993.56 256.42 992.01 258.2L936.149 314.1ZM923.958 312.6C925.472 313.168 927.109 313.329 928.705 313.066C930.301 312.803 931.8 312.125 933.051 311.1L989.013 255.2C990.032 253.925 990.706 252.409 990.969 250.797C991.231 249.185 991.074 247.533 990.511 246C989.153 241.195 986.53 236.844 982.917 233.4C979.431 229.768 975.056 227.113 970.226 225.7C968.702 225.151 967.061 225.009 965.466 225.29C963.871 225.571 962.377 226.264 961.132 227.3L905.171 283.2C904.173 284.467 903.513 285.966 903.251 287.557C902.988 289.148 903.133 290.78 903.672 292.3C905.044 297.151 907.703 301.539 911.367 305C914.808 308.616 919.156 311.24 923.958 312.6V312.6Z" fill="#31313E"/>
<path fill-rule="evenodd" clip-rule="evenodd" d="M959.733 225.8C964.829 220.7 975.922 223.4 984.516 231.9C993.01 240.5 995.708 251.6 990.612 256.7C985.415 261.9 974.323 259.1 965.829 250.6C957.335 242.1 954.537 231 959.733 225.8Z" fill="#08E6E7"/>
<path d="M958.234 224.3C959.999 222.761 962.137 221.711 964.433 221.255C966.73 220.799 969.106 220.952 971.325 221.7C976.875 223.317 981.927 226.31 986.015 230.4C990.102 234.49 993.092 239.546 994.709 245.1C995.611 247.299 995.844 249.716 995.381 252.047C994.917 254.379 993.777 256.522 992.102 258.208C990.428 259.895 988.293 261.05 985.966 261.528C983.64 262.007 981.223 261.788 979.02 260.9C973.473 259.223 968.427 256.2 964.33 252.1C960.233 248 957.212 242.95 955.536 237.4C954.804 235.171 954.667 232.788 955.141 230.49C955.614 228.192 956.681 226.058 958.234 224.3ZM970.326 225.8C968.807 225.256 967.176 225.108 965.584 225.37C963.993 225.633 962.495 226.297 961.232 227.3C960.212 228.555 959.538 230.055 959.275 231.651C959.012 233.247 959.17 234.884 959.733 236.4C961.064 241.245 963.69 245.636 967.328 249.1C970.805 252.721 975.187 255.345 980.019 256.7C981.534 257.263 983.17 257.421 984.765 257.158C986.359 256.895 987.858 256.22 989.112 255.2C990.115 253.936 990.778 252.437 991.041 250.844C991.303 249.252 991.155 247.619 990.611 246.1C989.165 241.305 986.556 236.942 983.017 233.4C979.477 229.858 975.118 227.247 970.326 225.8V225.8Z" fill="#31313E"/>
<path d="M782.656 399.2V401.2L788.252 406.9V393.6L782.656 399.2ZM793.948 387.9V412.5L799.544 418.2V382.2L793.948 387.9ZM805.24 376.6V423.8L810.936 429.5V370.9L805.24 376.6ZM816.532 365.3V435.1L822.229 440.8V359.6L816.532 365.3ZM827.825 354V446.4L833.521 452.1V348.3L827.825 354ZM839.117 342.7V457.8L844.813 463.4V337L839.117 342.7ZM850.409 331.4V469.1L856.105 474.7V325.7L850.409 331.4ZM861.701 320.1V480.4L867.397 486V314.4L861.701 320.1ZM872.993 308.7V491.7L878.689 497.3V303.1L872.993 308.7ZM884.385 303.1V497.3L889.981 491.7V308.7L884.385 303.1ZM895.677 314.4V486L901.274 480.4V320.1L895.677 314.4ZM906.97 325.7V474.7L912.566 469.1V331.4L906.97 325.7ZM918.262 337V463.4L923.858 457.8V342.7L918.262 337ZM929.554 348.3V452.1L935.15 446.4V354L929.554 348.3ZM940.846 359.6V440.8L946.442 435.1V365.3L940.846 359.6ZM952.138 370.9V429.5L957.834 423.8V376.6L952.138 370.9ZM963.43 382.2V418.2L969.126 412.5V387.9L963.43 382.2ZM974.722 393.6V406.9L980.418 401.2V399.2L974.722 393.6Z" fill="#08E6E7"/>
<path d="M881.487 500.2L981.42 400.202H781.657L881.487 500.2Z" fill="#08E6E7"/>
<path d="M822.928 259.1C796.247 232.5 756.075 229.5 733.19 252.5C745.965 239.717 763.291 232.535 781.357 232.535C799.423 232.535 816.749 239.717 829.523 252.5C842.298 265.283 849.475 282.622 849.475 300.7C849.475 318.779 842.298 336.117 829.523 348.9C852.508 325.9 849.51 285.7 822.928 259.1L822.928 259.1Z" fill="#ED553B"/>
<path d="M734.29 254.7C725.097 263.889 718.835 275.6 716.295 288.351C713.755 301.103 715.051 314.322 720.02 326.336C724.989 338.35 733.408 348.619 744.21 355.844C755.013 363.069 767.714 366.925 780.707 366.925C793.701 366.925 806.402 363.069 817.205 355.844C828.007 348.619 836.425 338.35 841.394 326.336C846.364 314.322 847.66 301.103 845.12 288.351C842.58 275.6 836.318 263.889 827.125 254.7C814.786 242.434 798.1 235.55 780.707 235.55C763.315 235.55 746.629 242.434 734.29 254.7ZM830.623 351.2C819.062 362.777 803.848 369.984 787.572 371.594C771.296 373.203 754.966 369.115 741.365 360.026C727.764 350.937 717.733 337.41 712.982 321.749C708.231 306.089 709.053 289.264 715.309 274.142C721.565 259.02 732.868 246.537 747.29 238.82C761.713 231.103 778.364 228.63 794.405 231.821C810.446 235.013 824.885 243.672 835.261 256.323C845.637 268.973 851.308 284.834 851.308 301.2C851.333 310.488 849.517 319.69 845.966 328.272C842.416 336.854 837.201 344.647 830.623 351.2Z" fill="#31313E"/>
<path d="M1131.21 250.3C1137.77 256.858 1142.97 264.645 1146.52 273.215C1150.07 281.786 1151.9 290.972 1151.9 300.25C1151.9 309.527 1150.07 318.714 1146.52 327.285C1142.97 335.855 1137.77 343.642 1131.21 350.2L1081.25 300.2L1131.21 250.3Z" fill="#ED553B"/>
<path d="M1148.9 297.1C1147.3 296.112 1145.46 295.572 1143.58 295.537C1141.7 295.502 1139.85 295.973 1138.21 296.9C1138.23 295.936 1137.87 295.003 1137.21 294.3C1136.49 293.625 1135.55 293.25 1134.56 293.25C1133.58 293.25 1132.63 293.625 1131.91 294.3C1131.56 294.644 1131.28 295.055 1131.08 295.511C1130.89 295.966 1130.79 296.455 1130.79 296.95C1130.79 297.445 1130.89 297.934 1131.08 298.389C1131.28 298.845 1131.56 299.256 1131.91 299.6C1132.61 300.286 1133.54 300.68 1134.51 300.7C1133.56 302.33 1133.08 304.191 1133.11 306.078C1133.15 307.965 1133.7 309.806 1134.71 311.4C1134.33 311.609 1133.93 311.776 1133.51 311.9C1132.77 312.012 1132 311.908 1131.31 311.6C1131.01 311.468 1130.68 311.408 1130.35 311.426C1130.02 311.443 1129.7 311.537 1129.42 311.7C1129.02 311.9 1128.62 312.2 1128.22 312.4C1128.11 312.464 1128.02 312.557 1127.96 312.669C1127.91 312.781 1127.88 312.906 1127.89 313.031C1127.9 313.157 1127.95 313.276 1128.02 313.377C1128.1 313.477 1128.2 313.555 1128.32 313.6C1133.51 315.6 1146.2 321 1146.2 321L1149.4 324L1148.7 329.4L1157.2 331L1180.08 358L1179.58 363.7L1186.78 378.9L1185.18 382.9L1189.07 386.7L1224.25 351.5L1220.55 347.8L1216.75 348.4L1201.17 342.3L1195.67 342.6L1168.49 319.8L1166.79 311.3L1161.69 311.5L1158.69 308.4L1150.9 290.8C1150.85 290.698 1150.77 290.613 1150.67 290.554C1150.58 290.494 1150.46 290.462 1150.35 290.462C1150.24 290.462 1150.13 290.494 1150.03 290.554C1149.93 290.613 1149.85 290.698 1149.8 290.8C1149.6 291.1 1149.4 291.4 1149.1 291.9C1148.91 292.178 1148.81 292.501 1148.79 292.836C1148.77 293.171 1148.84 293.504 1149 293.8C1149.3 294.456 1149.41 295.186 1149.3 295.9C1149.21 296.314 1149.08 296.716 1148.9 297.1L1148.9 297.1Z" fill="#ED553B"/>
<path fill-rule="evenodd" clip-rule="evenodd" d="M1148.9 297.1C1147.3 296.112 1145.46 295.572 1143.58 295.537C1141.7 295.502 1139.85 295.973 1138.21 296.9C1138.23 295.936 1137.87 295.003 1137.21 294.3C1136.49 293.625 1135.55 293.25 1134.56 293.25C1133.58 293.25 1132.63 293.625 1131.91 294.3C1131.56 294.644 1131.28 295.055 1131.08 295.511C1130.89 295.966 1130.79 296.455 1130.79 296.95C1130.79 297.445 1130.89 297.934 1131.08 298.389C1131.28 298.845 1131.56 299.256 1131.91 299.6C1132.61 300.286 1133.54 300.68 1134.51 300.7C1133.56 302.33 1133.08 304.191 1133.11 306.078C1133.15 307.965 1133.7 309.806 1134.71 311.4C1134.33 311.609 1133.93 311.776 1133.51 311.9C1132.77 312.012 1132 311.908 1131.31 311.6C1131.01 311.468 1130.68 311.408 1130.35 311.426C1130.02 311.443 1129.7 311.537 1129.42 311.7C1129.02 311.9 1128.62 312.2 1128.22 312.4C1128.11 312.464 1128.02 312.557 1127.96 312.669C1127.91 312.781 1127.88 312.906 1127.89 313.031C1127.9 313.157 1127.95 313.276 1128.02 313.377C1128.1 313.477 1128.2 313.555 1128.32 313.6C1133.51 315.6 1146.2 321 1146.2 321L1149.4 324L1148.7 329.4L1157.2 331L1180.08 358L1179.58 363.7L1186.78 378.9L1185.18 382.9L1189.07 386.7L1224.25 351.5L1220.55 347.8L1216.75 348.4L1201.17 342.3L1195.67 342.6L1168.49 319.8L1166.79 311.3L1161.69 311.5L1158.69 308.4L1150.9 290.8C1150.85 290.698 1150.77 290.613 1150.67 290.553C1150.58 290.494 1150.46 290.462 1150.35 290.462C1150.24 290.462 1150.13 290.494 1150.03 290.553C1149.93 290.613 1149.85 290.698 1149.8 290.8C1149.6 291.1 1149.4 291.4 1149.1 291.9C1148.91 292.178 1148.81 292.501 1148.79 292.836C1148.77 293.171 1148.84 293.504 1149 293.8C1149.3 294.456 1149.41 295.186 1149.3 295.9C1149.21 296.314 1149.08 296.716 1148.9 297.1L1148.9 297.1ZM1143.61 291.9C1144.2 292 1144.7 292 1145.3 292.1C1145.4 291.438 1145.6 290.796 1145.9 290.2L1146 290L1146.7 288.9C1147.16 288.16 1147.82 287.569 1148.6 287.2C1149.2 286.955 1149.85 286.852 1150.5 286.9C1151.2 286.912 1151.88 287.083 1152.5 287.4C1153.24 287.896 1153.83 288.588 1154.2 289.4L1161.69 306.4L1163.19 307.9L1166.59 307.8C1167.44 307.751 1168.28 308.005 1168.95 308.518C1169.63 309.032 1170.1 309.77 1170.29 310.6L1171.69 317.9L1196.87 339L1201.07 338.8C1201.54 338.775 1202.02 338.843 1202.46 339L1217.15 344.7L1219.95 344.3C1220.53 344.193 1221.12 344.228 1221.68 344.403C1222.23 344.577 1222.74 344.885 1223.15 345.3L1226.85 348.9C1227.52 349.578 1227.9 350.495 1227.9 351.45C1227.9 352.405 1227.52 353.322 1226.85 354L1191.57 389.3C1190.89 389.973 1189.98 390.35 1189.02 390.35C1188.07 390.35 1187.15 389.973 1186.48 389.3L1182.68 385.4C1182.17 384.925 1181.82 384.305 1181.68 383.626C1181.54 382.946 1181.61 382.239 1181.88 381.6L1182.88 379L1176.48 365.4C1176.12 364.835 1175.95 364.17 1175.98 363.5L1176.38 359.2L1155.3 334.2L1148.3 332.9C1147.36 332.806 1146.5 332.342 1145.9 331.611C1145.3 330.88 1145.01 329.941 1145.1 329L1145.6 325.4L1144.2 324C1141.61 322.9 1131.41 318.6 1127.02 316.9C1126.08 316.555 1125.3 315.88 1124.82 315C1124.5 314.488 1124.33 313.901 1124.32 313.3C1124.21 312.651 1124.32 311.985 1124.62 311.4C1124.95 310.51 1125.59 309.766 1126.42 309.3C1126.82 309.1 1127.22 308.8 1127.62 308.6C1128.25 308.205 1128.97 307.965 1129.72 307.9C1129.6 307.307 1129.53 306.705 1129.52 306.1C1129.5 304.921 1129.63 303.745 1129.91 302.6C1129.7 302.487 1129.53 302.313 1129.42 302.1C1128.71 301.432 1128.15 300.626 1127.77 299.731C1127.39 298.836 1127.2 297.872 1127.22 296.9C1127.19 295.113 1127.88 293.388 1129.12 292.1L1129.42 291.8C1130.07 291.104 1130.86 290.549 1131.74 290.171C1132.61 289.792 1133.56 289.598 1134.51 289.6C1136.32 289.624 1138.06 290.298 1139.41 291.5L1139.71 291.8L1140.21 292.3C1141.33 292.068 1142.46 291.934 1143.61 291.9H1143.61Z" fill="#173F5F"/>
<path d="M1230.54 345.2C1229.45 344 1226.75 341.3 1226.75 341.3L1228.35 337.3L1221.15 322L1221.55 316.3L1191.57 282.1L1183.08 280.6L1183.78 275.2L1180.58 272.1L1161.19 264.1L1170.69 254.7L1165.59 249.6L1160.09 255.1L1155.1 250.1L1160.59 244.7L1156.2 240.3L1161.19 235.3L1165.59 239.7L1170.99 234.2L1175.98 239.2L1170.59 244.7L1175.58 249.7L1184.78 240.6L1193.17 259.5L1196.17 262.6L1201.27 262.4L1202.96 270.9L1237.24 300.8L1242.84 300.5L1258.43 306.6L1262.32 306L1266.02 309.7C1266.02 309.7 1258.13 317.6 1230.54 345.2L1230.54 345.2Z" fill="#FF9EF6"/>
<path fill-rule="evenodd" clip-rule="evenodd" d="M1228.05 347.7L1222.45 342.2L1224.45 337.4L1217.45 322.7L1217.85 317.5L1189.67 285.4L1179.08 283.5L1179.98 276.5L1178.58 275.2L1154.9 265.4L1160.09 260.2L1150 250.1L1155.5 244.7L1151.1 240.3L1161.19 230.2L1165.59 234.6L1170.99 229.1L1181.08 239.2L1185.88 234.3L1196.17 257.4L1197.57 258.9L1204.16 258.7L1206.26 269L1238.54 297.1L1243.44 296.9L1258.83 302.9L1263.62 302.2L1271.12 309.7L1230.54 350.3L1228.05 347.7ZM1230.54 345.2L1226.75 341.3L1228.35 337.3L1221.15 322L1221.55 316.3L1191.57 282.1L1183.08 280.6L1183.78 275.2L1180.58 272.1L1161.19 264.1L1170.69 254.7L1165.59 249.6L1160.09 255.1L1155.1 250.1L1160.59 244.7L1156.2 240.3L1161.19 235.3L1165.59 239.7L1170.99 234.2L1175.98 239.2L1170.59 244.7L1175.58 249.7L1184.78 240.6L1193.17 259.5L1196.17 262.6L1201.26 262.4L1202.96 270.9L1237.24 300.8L1242.84 300.5L1258.43 306.6L1262.32 306L1266.02 309.7L1230.54 345.2Z" fill="#173F5F"/>
<path d="M1181.08 400.2L1281.01 300.2L1181.08 200.3L1131.41 150.5C1118.23 163.697 1110.83 181.591 1110.83 200.25C1110.83 218.908 1118.23 236.803 1131.41 250L1081.25 300.2L1131.21 350.2C1117.97 363.464 1110.53 381.448 1110.53 400.2C1110.53 418.951 1117.97 436.936 1131.21 450.2L1181.08 400.2V400.2Z" fill="#31313E"/>
<path d="M1131.21 250.3C1137.77 256.858 1142.97 264.645 1146.52 273.215C1150.07 281.786 1151.9 290.972 1151.9 300.25C1151.9 309.527 1150.07 318.714 1146.52 327.285C1142.97 335.855 1137.77 343.642 1131.21 350.2L1081.25 300.2L1131.21 250.3Z" fill="#ED553B"/>
<path d="M1147.3 295.4C1145.69 294.427 1143.85 293.905 1141.97 293.888C1140.09 293.87 1138.24 294.358 1136.61 295.3C1136.61 294.815 1136.51 294.335 1136.32 293.889C1136.13 293.442 1135.86 293.038 1135.51 292.7C1135.17 292.356 1134.77 292.082 1134.32 291.895C1133.87 291.708 1133.39 291.611 1132.91 291.609C1132.42 291.608 1131.94 291.702 1131.5 291.887C1131.05 292.072 1130.64 292.344 1130.3 292.686C1129.96 293.029 1129.69 293.436 1129.5 293.884C1129.32 294.331 1129.22 294.811 1129.22 295.296C1129.23 295.78 1129.32 296.26 1129.51 296.707C1129.7 297.154 1129.97 297.559 1130.31 297.9C1130.64 298.266 1131.04 298.554 1131.49 298.745C1131.94 298.935 1132.42 299.022 1132.91 299C1131.95 300.621 1131.45 302.477 1131.46 304.364C1131.48 306.251 1132.02 308.097 1133.01 309.7C1132.67 309.984 1132.25 310.158 1131.81 310.2C1131.07 310.355 1130.29 310.249 1129.62 309.9C1129.33 309.76 1129.01 309.705 1128.69 309.74C1128.37 309.776 1128.07 309.9 1127.82 310.1C1127.4 310.296 1126.99 310.53 1126.62 310.8C1126.5 310.846 1126.4 310.928 1126.34 311.034C1126.27 311.14 1126.25 311.264 1126.26 311.387C1126.27 311.511 1126.32 311.628 1126.4 311.72C1126.48 311.812 1126.6 311.876 1126.72 311.9C1131.91 314 1144.5 319.4 1144.5 319.4L1147.7 322.4L1147.1 327.8L1155.5 329.3L1178.38 356.3L1177.98 362.1L1185.18 377.3L1183.58 381.3L1187.38 385.1L1222.65 349.8L1218.95 346.2L1215.16 346.7L1199.57 340.7L1193.97 341L1166.79 318.2L1165.09 309.7L1160.09 309.9L1157.1 306.8L1149.3 289.2C1149.25 289.092 1149.17 288.999 1149.07 288.931C1148.97 288.863 1148.85 288.822 1148.73 288.812C1148.61 288.802 1148.49 288.823 1148.38 288.873C1148.27 288.924 1148.17 289.002 1148.1 289.1C1147.9 289.5 1147.7 289.8 1147.5 290.2C1147.3 290.488 1147.17 290.823 1147.14 291.174C1147.1 291.524 1147.16 291.878 1147.3 292.2C1147.69 292.826 1147.83 293.575 1147.7 294.3C1147.63 294.686 1147.5 295.058 1147.3 295.4L1147.3 295.4Z" fill="#ED553B"/>
<path fill-rule="evenodd" clip-rule="evenodd" d="M1147.3 295.4C1145.69 294.427 1143.85 293.905 1141.97 293.888C1140.09 293.87 1138.24 294.358 1136.61 295.3C1136.61 294.815 1136.51 294.335 1136.32 293.889C1136.13 293.442 1135.86 293.038 1135.51 292.7C1135.17 292.356 1134.77 292.082 1134.32 291.895C1133.87 291.708 1133.39 291.611 1132.91 291.609C1132.42 291.608 1131.94 291.702 1131.5 291.887C1131.05 292.072 1130.64 292.344 1130.3 292.686C1129.96 293.029 1129.69 293.436 1129.5 293.884C1129.32 294.331 1129.22 294.811 1129.22 295.296C1129.23 295.78 1129.32 296.26 1129.51 296.707C1129.7 297.154 1129.97 297.559 1130.31 297.9C1130.64 298.266 1131.04 298.554 1131.49 298.745C1131.94 298.935 1132.42 299.022 1132.91 299C1131.95 300.621 1131.45 302.477 1131.46 304.364C1131.48 306.251 1132.02 308.097 1133.01 309.7C1132.67 309.984 1132.25 310.158 1131.81 310.2C1131.07 310.355 1130.29 310.249 1129.62 309.9C1129.33 309.76 1129.01 309.705 1128.69 309.74C1128.37 309.776 1128.07 309.9 1127.82 310.1C1127.4 310.296 1126.99 310.53 1126.62 310.8C1126.5 310.846 1126.4 310.928 1126.34 311.034C1126.27 311.14 1126.25 311.264 1126.26 311.387C1126.27 311.511 1126.32 311.628 1126.4 311.72C1126.48 311.812 1126.6 311.876 1126.72 311.9C1131.91 314 1144.5 319.4 1144.5 319.4L1147.7 322.4L1147.1 327.8L1155.5 329.3L1178.38 356.3L1177.98 362.1L1185.18 377.3L1183.58 381.3L1187.37 385.1L1222.65 349.8L1218.95 346.2L1215.16 346.7L1199.57 340.7L1193.97 341L1166.79 318.2L1165.09 309.7L1160.09 309.9L1157.1 306.8L1149.3 289.2C1149.25 289.092 1149.17 288.999 1149.07 288.931C1148.97 288.863 1148.85 288.822 1148.73 288.812C1148.61 288.802 1148.49 288.823 1148.38 288.873C1148.27 288.924 1148.17 289.002 1148.1 289.1C1147.9 289.5 1147.7 289.8 1147.5 290.2C1147.3 290.488 1147.17 290.823 1147.14 291.174C1147.1 291.524 1147.16 291.878 1147.3 292.2C1147.69 292.826 1147.83 293.575 1147.7 294.3C1147.63 294.686 1147.5 295.058 1147.3 295.4L1147.3 295.4ZM1142.01 288.2H1142.11C1142.21 288 1142.21 287.8 1142.31 287.7C1142.41 287.5 1142.51 287.4 1142.61 287.2L1143.21 286.2C1143.86 285.039 1144.88 284.125 1146.1 283.6C1147.01 283.201 1148.01 283.029 1149 283.1C1150.02 283.104 1151.02 283.38 1151.9 283.9C1153.06 284.597 1153.97 285.648 1154.5 286.9L1161.89 303.5L1162.39 304H1164.89C1166.26 303.949 1167.6 304.382 1168.68 305.224C1169.76 306.065 1170.5 307.261 1170.79 308.6L1172.08 315.1L1195.97 335.1L1199.27 335C1200.05 334.928 1200.85 335.066 1201.56 335.4L1215.75 340.8L1217.85 340.5C1218.78 340.337 1219.74 340.397 1220.64 340.676C1221.55 340.954 1222.37 341.442 1223.05 342.1L1226.75 345.8C1227.8 346.883 1228.4 348.337 1228.4 349.85C1228.4 351.364 1227.8 352.818 1226.75 353.9L1191.47 389.2C1190.39 390.258 1188.94 390.85 1187.42 390.85C1185.91 390.85 1184.46 390.258 1183.38 389.2L1179.48 385.3C1178.68 384.506 1178.14 383.49 1177.93 382.385C1177.71 381.279 1177.84 380.135 1178.28 379.1L1178.88 377.5L1172.88 364.8C1172.4 363.842 1172.16 362.776 1172.18 361.7L1172.48 358.2L1152.5 334.6L1146.4 333.5C1145.65 333.41 1144.93 333.172 1144.27 332.802C1143.62 332.431 1143.04 331.934 1142.58 331.339C1142.11 330.744 1141.77 330.064 1141.57 329.336C1141.37 328.609 1141.31 327.849 1141.41 327.1L1141.71 324.5L1141.41 324.2C1138.31 322.9 1128.82 319 1124.62 317.3C1123.23 316.766 1122.07 315.779 1121.32 314.5C1120.87 313.664 1120.6 312.746 1120.52 311.8C1120.42 310.573 1120.68 309.342 1121.26 308.259C1121.85 307.175 1122.74 306.286 1123.82 305.7C1124.17 305.479 1124.54 305.279 1124.92 305.1C1125.15 304.909 1125.42 304.772 1125.72 304.7V304.5C1125.73 303.564 1125.8 302.629 1125.92 301.7C1124.29 299.968 1123.4 297.676 1123.42 295.3C1123.44 293.028 1124.25 290.835 1125.72 289.1L1126.22 288.6C1128 286.83 1130.4 285.825 1132.91 285.8C1135.2 285.81 1137.41 286.664 1139.11 288.2L1139.31 288.3C1140.2 288.167 1141.11 288.134 1142.01 288.2L1142.01 288.2Z" fill="#31313E"/>
<path d="M1228.95 343.6C1227.75 342.4 1225.15 339.7 1225.15 339.7L1226.75 335.7L1219.45 320.4L1219.95 314.6L1189.97 280.5L1181.48 278.9L1182.08 273.5L1178.88 270.5L1159.59 262.5L1168.99 253.1L1163.89 248L1158.49 253.5L1153.5 248.5L1158.99 243L1154.6 238.7L1159.59 233.7L1163.89 238L1169.39 232.6L1174.38 237.6L1168.89 243L1173.98 248.1L1183.18 238.9L1191.57 257.9L1194.47 260.9L1199.57 260.8L1201.36 269.3L1235.64 299.2L1241.14 298.9L1256.83 305L1260.72 304.4L1264.42 308.1C1264.42 308.1 1256.53 316 1228.95 343.6L1228.95 343.6Z" fill="#FEA49C"/>
<path fill-rule="evenodd" clip-rule="evenodd" d="M1224.85 347.6L1221.05 343.8C1220.2 342.975 1219.63 341.906 1219.42 340.741C1219.2 339.577 1219.35 338.374 1219.85 337.3L1220.45 335.9L1214.26 322.9C1213.86 321.988 1213.69 320.993 1213.76 320L1213.96 316.6L1186.98 285.8L1180.38 284.6C1178.94 284.319 1177.67 283.5 1176.81 282.311C1175.96 281.122 1175.59 279.652 1175.78 278.2L1176.08 275.7L1175.68 275.4L1157.4 267.8C1155.99 267.216 1154.88 266.098 1154.3 264.692C1153.72 263.285 1153.72 261.706 1154.3 260.3C1154.6 259.611 1155.01 258.971 1155.5 258.4C1155.09 258.192 1154.72 257.922 1154.4 257.6L1154.1 257.2L1149.4 252.6C1148.34 251.498 1147.75 250.029 1147.75 248.5C1147.75 246.972 1148.34 245.503 1149.4 244.4L1150.8 243L1150.5 242.7C1149.44 241.618 1148.85 240.164 1148.85 238.65C1148.85 237.137 1149.44 235.683 1150.5 234.6L1150.8 234.301L1155.5 229.601C1156.58 228.543 1158.03 227.951 1159.54 227.951C1161.06 227.951 1162.51 228.543 1163.59 229.601H1163.69L1163.89 229.9L1165.29 228.5C1165.82 227.954 1166.46 227.52 1167.16 227.224C1167.87 226.928 1168.62 226.775 1169.39 226.775C1170.15 226.775 1170.91 226.928 1171.61 227.224C1172.31 227.52 1172.95 227.954 1173.48 228.5L1178.48 233.5C1178.8 233.847 1179.11 234.214 1179.38 234.6C1180.47 233.631 1181.88 233.12 1183.34 233.176C1184.79 233.232 1186.17 233.85 1187.17 234.9C1187.85 235.475 1188.34 236.242 1188.57 237.1L1196.37 254.6L1196.87 255.1L1199.37 255C1200.78 254.933 1202.17 255.399 1203.26 256.305C1204.36 257.212 1205.07 258.495 1205.26 259.9L1206.56 266.2L1237.64 293.3L1240.94 293.2C1241.79 293.129 1242.65 293.266 1243.44 293.601L1257.43 299.1L1259.82 298.7C1260.71 298.563 1261.61 298.636 1262.46 298.914C1263.31 299.192 1264.09 299.667 1264.72 300.3L1268.52 304C1269.58 305.103 1270.17 306.572 1270.17 308.1C1270.17 309.629 1269.58 311.098 1268.52 312.2L1233.04 347.6C1232.51 348.146 1231.87 348.58 1231.17 348.876C1230.46 349.173 1229.71 349.325 1228.95 349.325C1228.18 349.325 1227.43 349.173 1226.72 348.876C1226.02 348.58 1225.38 348.146 1224.85 347.6L1224.85 347.6ZM1228.95 343.6L1225.15 339.7L1226.75 335.7L1219.45 320.4L1219.95 314.6L1189.97 280.5L1181.48 278.9L1182.08 273.5L1178.88 270.5L1159.59 262.5L1168.99 253.1L1163.89 248L1158.49 253.5L1153.5 248.5L1158.99 243L1154.6 238.7L1159.59 233.7L1163.89 238L1169.39 232.6L1174.38 237.6L1168.89 243L1173.98 248.1L1183.18 238.9L1191.57 257.9L1194.47 260.9L1199.57 260.8L1201.36 269.3L1235.64 299.2L1241.14 298.9L1256.83 305L1260.72 304.4L1264.42 308.1L1228.95 343.6Z" fill="#31313E"/>
<path d="M881.487 700.102L981.42 600.1L881.487 500.2L781.657 600.1L881.487 700.102Z" fill="#31313E"/>
<path fill-rule="evenodd" clip-rule="evenodd" d="M906.47 525.2C911.392 530.141 914.741 536.431 916.093 543.276C917.445 550.12 916.74 557.212 914.067 563.656C911.394 570.1 906.873 575.606 901.074 579.48C895.275 583.354 888.46 585.422 881.487 585.422C874.515 585.422 867.7 583.354 861.901 579.48C856.102 575.606 851.581 570.1 848.908 563.656C846.235 557.212 845.53 550.12 846.882 543.276C848.234 536.431 851.582 530.141 856.505 525.2C859.778 521.904 863.671 519.288 867.958 517.504C872.246 515.719 876.844 514.8 881.487 514.8C886.131 514.8 890.729 515.719 895.017 517.504C899.304 519.288 903.197 521.904 906.47 525.2Z" fill="#ED553B"/>
<path fill-rule="evenodd" clip-rule="evenodd" d="M856.505 575.1C862.305 580.876 865.922 588.488 866.739 596.635C867.557 604.782 865.524 612.961 860.987 619.776C856.451 626.591 849.692 631.62 841.864 634.004C834.036 636.388 825.624 635.981 818.062 632.851C810.501 629.721 804.259 624.062 800.402 616.841C796.544 609.619 795.311 601.282 796.911 593.252C798.511 585.222 802.846 577.996 809.176 572.807C815.506 567.618 823.439 564.788 831.622 564.8C836.242 564.797 840.818 565.705 845.088 567.472C849.357 569.239 853.237 571.831 856.505 575.1Z" fill="#FF9A00"/>
<path fill-rule="evenodd" clip-rule="evenodd" d="M906.47 625.1C911.392 630.041 914.741 636.331 916.093 643.176C917.445 650.02 916.74 657.112 914.067 663.556C911.394 670 906.873 675.506 901.074 679.38C895.275 683.254 888.46 685.322 881.487 685.322C874.515 685.322 867.7 683.254 861.901 679.38C856.102 675.506 851.581 670 848.908 663.556C846.235 657.112 845.53 650.02 846.882 643.176C848.234 636.331 851.583 630.041 856.505 625.1C863.176 618.532 872.13 614.805 881.487 614.7C890.862 614.72 899.847 618.46 906.47 625.1Z" fill="#08E6E7"/>
<path fill-rule="evenodd" clip-rule="evenodd" d="M956.435 575.1C961.358 580.041 964.706 586.331 966.058 593.176C967.411 600.02 966.706 607.112 964.032 613.556C961.359 620 956.838 625.506 951.039 629.38C945.241 633.254 938.425 635.322 931.453 635.322C924.48 635.322 917.665 633.254 911.866 629.38C906.067 625.506 901.546 620 898.873 613.556C896.2 607.112 895.495 600.02 896.847 593.176C898.199 586.331 901.548 580.041 906.47 575.1C913.097 568.473 922.083 564.75 931.453 564.75C940.822 564.75 949.808 568.473 956.435 575.1Z" fill="#FEA59C"/>
<path d="M681.728 500.2L781.657 400.202L681.728 300.299L581.894 400.202L681.728 500.2Z" fill="#FE9900"/>
<path fill-rule="evenodd" clip-rule="evenodd" d="M651.747 390.2C653.059 391.507 654.102 393.059 654.814 394.769C655.527 396.479 655.896 398.312 655.901 400.165C655.906 402.017 655.545 403.853 654.841 405.566C654.137 407.279 653.103 408.837 651.797 410.15C650.491 411.463 648.94 412.506 647.231 413.22C645.523 413.933 643.69 414.302 641.839 414.307C639.988 414.312 638.154 413.951 636.442 413.247C634.73 412.542 633.173 411.507 631.861 410.2C630.524 408.902 629.463 407.348 628.741 405.629C628.02 403.911 627.654 402.064 627.664 400.2C627.676 397.413 628.51 394.692 630.061 392.378C631.612 390.064 633.812 388.259 636.384 387.191C638.957 386.123 641.787 385.839 644.52 386.374C647.253 386.91 649.767 388.24 651.747 390.2H651.747Z" fill="white"/>
<path fill-rule="evenodd" clip-rule="evenodd" d="M691.719 350.2C693.696 352.178 695.042 354.698 695.587 357.441C696.132 360.184 695.853 363.028 694.783 365.612C693.713 368.196 691.902 370.405 689.578 371.959C687.254 373.513 684.521 374.342 681.726 374.342C678.931 374.342 676.199 373.513 673.875 371.959C671.551 370.405 669.739 368.196 668.67 365.612C667.6 363.028 667.32 360.184 667.866 357.441C668.411 354.698 669.757 352.178 671.733 350.2C674.412 347.596 677.992 346.127 681.726 346.1C685.468 346.089 689.062 347.564 691.719 350.2Z" fill="white"/>
<path fill-rule="evenodd" clip-rule="evenodd" d="M691.719 430.2C693.702 432.172 695.053 434.69 695.602 437.433C696.151 440.176 695.871 443.02 694.8 445.604C693.729 448.188 691.914 450.394 689.585 451.943C687.257 453.491 684.522 454.312 681.726 454.3C679.872 454.313 678.034 453.958 676.318 453.254C674.603 452.55 673.044 451.512 671.733 450.2C670.422 448.888 669.385 447.328 668.681 445.612C667.978 443.895 667.623 442.055 667.636 440.2C667.624 437.403 668.444 434.665 669.992 432.335C671.539 430.006 673.744 428.189 676.326 427.117C678.908 426.045 681.75 425.766 684.491 426.315C687.232 426.864 689.748 428.216 691.719 430.2Z" fill="white"/>
<path fill-rule="evenodd" clip-rule="evenodd" d="M731.691 390.2C732.999 391.514 734.035 393.074 734.738 394.791C735.441 396.507 735.798 398.345 735.789 400.2C735.817 402.057 735.468 403.901 734.764 405.62C734.06 407.339 733.015 408.897 731.691 410.2C730.379 411.513 728.821 412.555 727.107 413.266C725.392 413.976 723.554 414.342 721.698 414.342C719.843 414.342 718.005 413.976 716.29 413.266C714.576 412.555 713.018 411.513 711.705 410.2C710.393 408.887 709.352 407.328 708.642 405.612C707.932 403.896 707.566 402.057 707.566 400.2C707.566 398.343 707.932 396.504 708.642 394.788C709.352 393.072 710.393 391.513 711.705 390.2C714.384 387.596 717.964 386.127 721.698 386.1C725.44 386.089 729.034 387.564 731.691 390.2Z" fill="white"/>
<path d="M1081.25 500.1L1131.21 450.2C1117.97 436.936 1110.53 418.952 1110.53 400.2C1110.53 381.448 1117.97 363.464 1131.21 350.2L1181.08 400.2L1081.25 300.2L981.318 400.2L1081.25 500.1Z" fill="#ED553B"/>
<path d="M940.047 541.6C913.365 514.9 910.367 474.8 933.251 451.9C926.926 458.23 921.909 465.744 918.485 474.014C915.062 482.285 913.3 491.149 913.3 500.1C913.3 509.052 915.062 517.916 918.485 526.186C921.909 534.456 926.926 541.97 933.251 548.3C939.577 554.63 947.086 559.651 955.35 563.076C963.615 566.502 972.473 568.265 981.418 568.265C990.363 568.265 999.221 566.502 1007.49 563.076C1015.75 559.651 1023.26 554.63 1029.58 548.3C1006.7 571.2 966.628 568.2 940.047 541.6L940.047 541.6Z" fill="#ED553B"/>
<path d="M1022.89 458.6C1049.47 485.3 1052.47 525.4 1029.58 548.3C1006.7 571.2 966.628 568.2 940.047 541.6C913.365 514.9 910.367 474.8 933.251 451.9C956.136 429 996.208 432 1022.89 458.6Z" fill="#08E6E7"/>
<path d="M961.131 479.7L959.034 477.601L952.537 518.4L989.313 537.101L995.609 530.8L958.833 512.099L961.131 479.7Z" fill="#FFFEF8"/>
<path d="M934.95 453.7C925.77 462.887 919.518 474.592 916.985 487.334C914.452 500.077 915.752 513.285 920.72 525.289C925.689 537.292 934.103 547.551 944.898 554.769C955.693 561.988 968.385 565.84 981.368 565.84C994.351 565.84 1007.04 561.988 1017.84 554.769C1028.63 547.551 1037.05 537.292 1042.02 525.289C1046.98 513.285 1048.28 500.077 1045.75 487.334C1043.22 474.592 1036.97 462.887 1027.79 453.7C1015.46 441.404 998.77 434.5 981.368 434.5C963.966 434.5 947.274 441.404 934.95 453.7ZM1031.38 550.1C1019.83 561.649 1004.64 568.833 988.392 570.428C972.143 572.024 955.843 567.931 942.272 558.848C928.7 549.765 918.696 536.253 913.964 520.616C909.232 504.979 910.065 488.184 916.321 473.092C922.577 458.001 933.869 445.547 948.273 437.854C962.676 430.16 979.3 427.702 995.312 430.9C1011.32 434.097 1025.73 442.751 1036.08 455.388C1046.43 468.025 1052.08 483.862 1052.07 500.2C1052.09 509.473 1050.27 518.658 1046.72 527.224C1043.17 535.789 1037.96 543.565 1031.38 550.1Z" fill="#31313E"/>
<path d="M988.813 534.1L1015.39 507.5L998.306 473.9L961.132 479.8L955.236 517L988.813 534.1ZM1020.19 509.7L991.011 538.9C990.646 539.252 990.179 539.48 989.677 539.552C989.175 539.623 988.663 539.535 988.213 539.3L951.439 520.6C950.962 520.375 950.575 519.997 950.34 519.525C950.104 519.054 950.034 518.516 950.14 518L956.535 477.3C956.622 476.774 956.871 476.289 957.247 475.913C957.624 475.536 958.109 475.287 958.634 475.2L999.306 468.7C999.83 468.636 1000.36 468.736 1000.83 468.986C1001.29 469.237 1001.67 469.626 1001.9 470.1L1020.69 506.8C1020.91 507.277 1020.98 507.81 1020.89 508.328C1020.8 508.845 1020.56 509.324 1020.19 509.7V509.7Z" fill="#563F42"/>
<path d="M935.15 450.1L931.652 453.6L957.235 479.2L960.732 475.7L935.15 450.1Z" fill="#31313E"/>
<path d="M953.739 520.499L923.259 536.099L920.96 531.7L951.539 516.1L953.739 520.499Z" fill="#31313E"/>
<path d="M996.508 566.9L991.611 567.701L986.813 537.401L991.71 536.6L996.508 566.9Z" fill="#31313E"/>
<path d="M1001.61 472.599L997.206 470.299L1012.79 439.801L1017.19 442.101L1001.61 472.599Z" fill="#31313E"/>
<path d="M1047.97 515.299L1017.79 510.501L1018.49 505.7L1048.77 510.399L1047.97 515.299Z" fill="#31313E"/>
<path d="M988.813 534.1L1015.39 507.5L998.306 473.9L961.132 479.8L955.236 517L988.813 534.1ZM1020.19 509.7L991.011 538.9C990.646 539.252 990.179 539.48 989.677 539.552C989.175 539.623 988.663 539.535 988.213 539.3L951.439 520.6C950.962 520.375 950.575 519.997 950.34 519.525C950.104 519.054 950.034 518.516 950.14 518L956.535 477.3C956.622 476.774 956.871 476.289 957.247 475.913C957.624 475.536 958.109 475.287 958.634 475.2L999.306 468.7C999.83 468.636 1000.36 468.736 1000.83 468.986C1001.29 469.237 1001.67 469.626 1001.9 470.1L1020.69 506.8C1020.91 507.277 1020.98 507.81 1020.89 508.328C1020.8 508.845 1020.56 509.324 1020.19 509.7V509.7Z" fill="#31313E"/>
<path d="M1222.45 458.8C1195.77 432.2 1155.7 429.1 1132.91 451.9C1139.24 445.564 1146.76 440.537 1155.03 437.108C1163.31 433.679 1172.17 431.914 1181.13 431.914C1190.08 431.914 1198.95 433.679 1207.22 437.108C1215.5 440.538 1223.01 445.564 1229.35 451.9C1235.68 458.236 1240.7 465.759 1244.13 474.037C1247.55 482.316 1249.32 491.189 1249.32 500.15C1249.32 509.111 1247.55 517.984 1244.13 526.263C1240.7 534.542 1235.68 542.064 1229.35 548.4C1252.13 525.5 1249.03 485.4 1222.45 458.8V458.8Z" fill="#FCF9D3"/>
<path d="M1139.81 541.5C1166.39 568.1 1206.46 571.2 1229.35 548.4C1252.13 525.5 1249.03 485.4 1222.45 458.8C1195.77 432.2 1155.7 429.1 1132.91 451.9C1110.13 474.7 1113.23 514.8 1139.81 541.5Z" fill="#FF9A00"/>
<path d="M1134.71 453.7C1143.89 444.513 1155.59 438.257 1168.32 435.722C1181.06 433.187 1194.26 434.488 1206.25 439.46C1218.25 444.432 1228.5 452.852 1235.71 463.654C1242.92 474.457 1246.77 487.158 1246.77 500.15C1246.77 513.142 1242.92 525.843 1235.71 536.645C1228.5 547.448 1218.25 555.868 1206.25 560.84C1194.26 565.812 1181.06 567.113 1168.32 564.578C1155.59 562.043 1143.89 555.787 1134.71 546.6C1128.61 540.506 1123.76 533.266 1120.46 525.295C1117.15 517.324 1115.45 508.78 1115.45 500.15C1115.45 491.52 1117.15 482.975 1120.46 475.005C1123.76 467.034 1128.61 459.794 1134.71 453.7ZM1231.04 550.1C1242.59 538.543 1249.76 523.339 1251.36 507.079C1252.95 490.818 1248.86 474.508 1239.79 460.927C1230.71 447.346 1217.21 437.335 1201.58 432.6C1185.95 427.864 1169.17 428.698 1154.09 434.958C1139.01 441.219 1126.56 452.519 1118.88 466.932C1111.19 481.346 1108.73 497.981 1111.93 514.004C1115.12 530.026 1123.77 544.444 1136.4 554.801C1149.03 565.157 1164.85 570.811 1181.18 570.8C1190.45 570.831 1199.63 569.016 1208.19 565.462C1216.75 561.909 1224.52 556.687 1231.04 550.1Z" fill="#F5FFFF"/>
<path d="M1249.13 517.3L1245.93 513.5C1242.42 516.93 1238.21 519.555 1233.59 521.196C1228.96 522.836 1224.04 523.452 1219.15 523C1201.46 520.9 1187.37 504.1 1183.98 499.7C1187.19 491.799 1188.76 483.325 1188.59 474.797C1188.42 466.268 1186.51 457.865 1182.98 450.1C1179.76 443.033 1175.18 436.676 1169.49 431.4L1166.29 435.1C1171.42 440.06 1175.58 445.925 1178.58 452.4C1181.9 459.748 1183.64 467.714 1183.67 475.779C1183.71 483.843 1182.04 491.824 1178.78 499.2C1178.63 499.594 1178.58 500.019 1178.63 500.437C1178.68 500.856 1178.84 501.255 1179.08 501.6C1179.78 502.5 1196.17 525.2 1218.55 527.9C1224.11 528.46 1229.73 527.802 1235.01 525.971C1240.29 524.141 1245.11 521.182 1249.13 517.3H1249.13Z" fill="#F5FFFF"/>
<path d="M1180.88 501.8L1179.88 497C1170.6 499.087 1161.63 502.382 1153.2 506.8C1135.21 516.2 1125.62 528.7 1125.32 543.2L1130.21 543.3C1130.51 530.6 1139.01 519.8 1155.4 511.2C1163.48 507.048 1172.04 503.891 1180.88 501.8L1180.88 501.8Z" fill="#F5FFFF"/>
<path d="M1210.26 564.3L1209.96 559.4C1194.27 560.5 1178.98 553.4 1164.69 538.3C1157.97 531.19 1152.23 523.221 1147.6 514.6L1143.21 516.8C1148.03 525.806 1154.01 534.143 1160.99 541.6C1167.08 548.204 1174.21 553.776 1182.08 558.1C1190.7 562.781 1200.47 564.93 1210.26 564.3V564.3Z" fill="white"/>
<path d="M1184.48 462.9L1183.68 458C1173.19 459.911 1162.96 463.032 1153.2 467.3C1144.44 471.003 1136.26 475.954 1128.92 482C1120.99 488.408 1114.83 496.739 1111.03 506.2L1115.62 508C1122.82 489.2 1141.11 478 1155.2 471.9C1164.57 467.761 1174.4 464.74 1184.48 462.9V462.9Z" fill="white"/>
<path d="M1214.46 525.3C1219.48 516.537 1222.81 506.901 1224.25 496.9C1225.76 487.262 1225.45 477.426 1223.35 467.9C1220.54 455.779 1215 444.459 1207.16 434.8L1203.26 437.9C1209.95 445.867 1214.84 455.177 1217.62 465.201C1220.39 475.224 1220.98 485.728 1219.35 496C1217.99 505.386 1214.91 514.438 1210.26 522.7L1214.46 525.3Z" fill="#F5FFFF"/>
<path d="M1181.08 600.1L1281.01 500.101L1181.08 400.202L1081.25 500.101L1181.08 600.1Z" fill="#08E6E7"/>
<path fill-rule="evenodd" clip-rule="evenodd" d="M1231.04 450.2C1242.61 461.769 1249.82 476.994 1251.42 493.281C1253.03 509.568 1248.95 525.909 1239.86 539.519C1230.78 553.13 1217.26 563.168 1201.61 567.922C1185.96 572.677 1169.15 571.853 1154.04 565.593C1138.93 559.333 1126.45 548.022 1118.74 533.59C1111.03 519.157 1108.56 502.495 1111.75 486.443C1114.94 470.391 1123.59 455.942 1136.23 445.558C1148.88 435.175 1164.72 429.5 1181.08 429.5C1199.81 429.523 1217.78 436.965 1231.04 450.2Z" fill="#ED553B"/>
<path d="M1222.45 458.8C1195.77 432.2 1155.7 429.1 1132.91 451.9C1139.24 445.564 1146.76 440.537 1155.03 437.108C1163.31 433.679 1172.17 431.914 1181.13 431.914C1190.08 431.914 1198.95 433.679 1207.22 437.108C1215.5 440.538 1223.01 445.564 1229.35 451.9C1235.68 458.236 1240.7 465.759 1244.13 474.037C1247.55 482.316 1249.32 491.189 1249.32 500.15C1249.32 509.111 1247.55 517.984 1244.13 526.263C1240.7 534.542 1235.68 542.064 1229.35 548.4C1252.13 525.5 1249.03 485.4 1222.45 458.8V458.8Z" fill="#08E6E7"/>
<path d="M1139.81 541.5C1166.39 568.1 1206.46 571.2 1229.35 548.4C1252.13 525.5 1249.03 485.4 1222.45 458.8C1195.77 432.2 1155.7 429.1 1132.91 451.9C1110.13 474.7 1113.23 514.8 1139.81 541.5Z" fill="#FF9A00"/>
<path d="M1134.71 453.7C1143.89 444.513 1155.59 438.257 1168.32 435.722C1181.06 433.187 1194.26 434.488 1206.25 439.46C1218.25 444.432 1228.5 452.852 1235.71 463.654C1242.92 474.457 1246.77 487.158 1246.77 500.15C1246.77 513.142 1242.92 525.843 1235.71 536.645C1228.5 547.448 1218.25 555.868 1206.25 560.84C1194.26 565.812 1181.06 567.113 1168.32 564.578C1155.59 562.043 1143.89 555.787 1134.71 546.6C1128.61 540.506 1123.76 533.266 1120.46 525.295C1117.15 517.324 1115.45 508.78 1115.45 500.15C1115.45 491.52 1117.15 482.975 1120.46 475.005C1123.76 467.034 1128.61 459.794 1134.71 453.7ZM1231.04 550.1C1242.59 538.543 1249.76 523.339 1251.36 507.079C1252.95 490.818 1248.86 474.508 1239.79 460.927C1230.71 447.346 1217.21 437.335 1201.58 432.6C1185.95 427.864 1169.17 428.698 1154.09 434.958C1139.01 441.219 1126.56 452.519 1118.88 466.932C1111.19 481.346 1108.73 497.981 1111.93 514.004C1115.12 530.026 1123.77 544.444 1136.4 554.801C1149.03 565.157 1164.85 570.811 1181.18 570.8C1190.45 570.831 1199.63 569.016 1208.19 565.462C1216.75 561.909 1224.52 556.687 1231.04 550.1Z" fill="white"/>
<path d="M1249.13 517.3L1245.93 513.5C1242.42 516.93 1238.21 519.555 1233.59 521.196C1228.96 522.836 1224.04 523.452 1219.15 523C1201.46 520.9 1187.37 504.1 1183.98 499.7C1187.19 491.799 1188.76 483.325 1188.59 474.797C1188.42 466.268 1186.51 457.865 1182.98 450.1C1179.76 443.033 1175.18 436.676 1169.49 431.4L1166.29 435.1C1171.42 440.06 1175.58 445.925 1178.58 452.4C1181.9 459.748 1183.64 467.714 1183.67 475.779C1183.71 483.843 1182.04 491.824 1178.78 499.2C1178.63 499.594 1178.58 500.019 1178.63 500.437C1178.68 500.856 1178.84 501.255 1179.08 501.6C1179.78 502.5 1196.17 525.2 1218.55 527.9C1224.11 528.46 1229.73 527.802 1235.01 525.971C1240.29 524.141 1245.11 521.182 1249.13 517.3H1249.13Z" fill="#F5FFFF"/>
<path d="M1180.88 501.8L1179.88 497C1170.6 499.087 1161.63 502.382 1153.2 506.8C1135.21 516.2 1125.62 528.7 1125.32 543.2L1130.21 543.3C1130.51 530.6 1139.01 519.8 1155.4 511.2C1163.48 507.048 1172.04 503.891 1180.88 501.8L1180.88 501.8Z" fill="#F5FFFF"/>
<path d="M1210.26 564.3L1209.96 559.4C1194.27 560.5 1178.98 553.4 1164.69 538.3C1157.97 531.19 1152.23 523.221 1147.6 514.6L1143.21 516.8C1148.03 525.806 1154.01 534.143 1160.99 541.6C1167.08 548.204 1174.21 553.776 1182.08 558.1C1190.7 562.781 1200.47 564.93 1210.26 564.3V564.3Z" fill="white"/>
<path d="M1184.48 462.9L1183.68 458C1173.19 459.911 1162.96 463.032 1153.2 467.3C1144.44 471.003 1136.26 475.954 1128.92 482C1120.99 488.408 1114.83 496.739 1111.03 506.2L1115.62 508C1122.82 489.2 1141.11 478 1155.2 471.9C1164.57 467.761 1174.4 464.74 1184.48 462.9V462.9Z" fill="white"/>
<path d="M1214.46 525.3C1219.48 516.537 1222.81 506.901 1224.25 496.9C1225.76 487.262 1225.45 477.426 1223.35 467.9C1220.54 455.779 1215 444.459 1207.16 434.8L1203.26 437.9C1209.95 445.867 1214.84 455.177 1217.62 465.201C1220.39 475.224 1220.98 485.728 1219.35 496C1217.99 505.386 1214.91 514.438 1210.26 522.7L1214.46 525.3Z" fill="white"/>
<path d="M1281.01 500.101L1380.84 400.202L1281.01 300.2L1181.08 400.202L1281.01 500.101Z" fill="#31313E"/>
<path d="M1231.04 350.2C1244.3 363.455 1262.27 370.9 1281.01 370.9C1299.75 370.9 1317.72 363.455 1330.98 350.2L1281.01 300.2L1231.04 350.2Z" fill="#FE9900"/>
<path d="M1231.04 350.2C1244.29 363.464 1251.73 381.448 1251.73 400.2C1251.73 418.951 1244.29 436.936 1231.04 450.2L1181.08 400.2L1231.04 350.2Z" fill="#ED553B"/>
<path d="M1330.97 450.2C1317.73 436.936 1310.29 418.951 1310.29 400.2C1310.29 381.448 1317.73 363.464 1330.97 350.2L1380.84 400.2L1330.97 450.2Z" fill="#08E6E7"/>
<path d="M1330.97 450.2C1317.72 436.946 1299.75 429.5 1281.01 429.5C1262.27 429.5 1244.3 436.946 1231.04 450.2L1281.01 500.1L1330.97 450.2Z" fill="#FEA59C"/>
<path d="M1280.01 301.2H1282.01L1287.71 306.9H1274.31L1280.01 301.2ZM1268.72 312.5H1293.3L1299 318.2H1263.02L1268.72 312.5ZM1257.43 323.8H1304.59L1310.29 329.5H1251.73L1257.43 323.8ZM1246.13 335.2H1315.89L1321.58 340.8H1240.44L1246.13 335.2ZM1234.84 346.5H1327.18L1332.87 352.1H1229.15L1234.84 346.5ZM1223.55 357.8H1338.47L1344.17 363.4H1217.85L1223.55 357.8ZM1212.16 369.1H1349.76L1355.46 374.7H1206.56L1212.16 369.1ZM1200.87 380.4H1361.15L1366.75 386H1195.27L1200.87 380.4ZM1189.57 391.7H1372.45L1378.04 397.3H1183.98L1189.57 391.7ZM1183.98 403H1378.04L1372.45 408.7H1189.57L1183.98 403ZM1195.27 414.3H1366.75L1361.15 420H1200.87L1195.27 414.3ZM1206.56 425.6H1355.46L1349.76 431.3H1212.16L1206.56 425.6ZM1217.85 436.9H1344.17L1338.47 442.6H1223.45L1217.85 436.9ZM1229.15 448.2H1332.87L1327.18 453.9H1234.84L1229.15 448.2ZM1240.44 459.5H1321.58L1315.89 465.2H1246.13L1240.44 459.5ZM1251.73 470.8H1310.29L1304.59 476.5H1257.43L1251.73 470.8ZM1263.02 482.2H1299L1293.3 487.8H1268.72L1263.02 482.2ZM1274.31 493.5H1287.71L1282.01 499.1H1280.01L1274.31 493.5Z" fill="white"/>
<path d="M780.658 401.2H782.656L788.252 406.9H774.961L780.658 401.2ZM769.365 412.5H793.948L799.544 418.2H763.669L769.365 412.5ZM758.073 423.8H805.24L810.936 429.5H752.377L758.073 423.8ZM746.681 435.1H816.533L822.229 440.8H741.085L746.681 435.1ZM735.389 446.4H827.825L833.521 452.1H729.793L735.389 446.4ZM724.097 457.8H839.117L844.813 463.4H718.501L724.097 457.8ZM712.805 469.1H850.409L856.105 474.7H707.209L712.805 469.1ZM701.513 480.4H861.701L867.397 486H695.916L701.513 480.4ZM690.22 491.7H872.993L878.689 497.3H684.624L690.22 491.7ZM684.624 503H878.689L872.993 508.6H690.22L684.624 503ZM695.916 514.3H867.397L861.701 519.9L701.513 520L695.916 514.3ZM707.209 525.6H856.105L850.409 531.3H712.805L707.209 525.6ZM718.501 536.9H844.813L839.117 542.6H724.097L718.501 536.9ZM729.793 548.2H833.521L827.825 553.9H735.389L729.793 548.2ZM741.085 559.5H822.229L816.533 565.2H746.781L741.085 559.5ZM752.377 570.8H810.936L805.24 576.5H758.073L752.377 570.8ZM763.669 582.1H799.544L793.948 587.8H769.365L763.669 582.1ZM774.961 593.5H788.252L782.656 599.1H780.658L774.961 593.5Z" fill="#ED553B"/>
<path d="M881.487 500.2L781.657 600.1V400.202L881.487 500.2Z" fill="#ED553B"/>
<path d="M780.658 401.2H782.656L788.252 406.9H774.961L780.658 401.2ZM769.365 412.5H793.948L799.544 418.2H763.669L769.365 412.5ZM758.073 423.8H805.24L810.936 429.5H752.377L758.073 423.8ZM746.681 435.1H816.533L822.229 440.8H741.085L746.681 435.1ZM735.389 446.4H827.825L833.521 452.1H729.793L735.389 446.4ZM724.097 457.8H839.117L844.813 463.4H718.501L724.097 457.8ZM712.805 469.1H850.409L856.105 474.7H707.209L712.805 469.1ZM701.513 480.4H861.701L867.397 486H695.916L701.513 480.4ZM690.22 491.7H872.993L878.689 497.3H684.624L690.22 491.7ZM684.624 503H878.689L872.993 508.6H690.22L684.624 503ZM695.916 514.3H867.397L861.701 519.9L701.513 520L695.916 514.3ZM707.209 525.6H856.105L850.409 531.3H712.805L707.209 525.6ZM718.501 536.9H844.813L839.117 542.6H724.097L718.501 536.9ZM729.793 548.2H833.521L827.825 553.9H735.389L729.793 548.2ZM741.085 559.5H822.229L816.533 565.2H746.781L741.085 559.5ZM752.377 570.8H810.936L805.24 576.5H758.073L752.377 570.8ZM763.669 582.1H799.544L793.948 587.8H769.365L763.669 582.1ZM774.961 593.5H788.252L782.656 599.1H780.658L774.961 593.5Z" fill="#ED553B"/>
<path d="M881.487 500.2L781.657 600.1V400.202L881.487 500.2Z" fill="#ED553B"/>
<path d="M819.73 442.6C819.483 442.7 819.257 442.848 819.068 443.038C818.88 443.227 818.731 443.452 818.631 443.7L812.535 466.6L807.139 461.2C804.777 458.846 801.579 457.525 798.245 457.525C794.912 457.525 791.714 458.846 789.352 461.2L778.359 472.2C779.777 468.682 780.215 464.846 779.628 461.098C779.041 457.351 777.45 453.833 775.024 450.918C772.599 448.004 769.429 445.801 765.853 444.545C762.276 443.289 758.426 443.026 754.712 443.784C750.998 444.543 747.559 446.294 744.761 448.852C741.962 451.411 739.908 454.68 738.818 458.313C737.728 461.945 737.641 465.806 738.568 469.484C739.496 473.162 741.401 476.519 744.083 479.2C747.026 482.095 750.747 484.072 754.792 484.888C758.837 485.705 763.033 485.327 766.867 483.8L751.978 498.7C753.052 495.422 752.99 491.877 751.804 488.637C750.617 485.398 748.374 482.653 745.436 480.847C742.499 479.04 739.039 478.277 735.615 478.68C732.19 479.083 729.002 480.629 726.564 483.069C724.126 485.509 722.581 488.699 722.178 492.126C721.775 495.553 722.538 499.015 724.343 501.954C726.149 504.894 728.891 507.138 732.128 508.326C735.365 509.514 738.908 509.575 742.184 508.5L734.09 516.5C731.737 518.884 730.417 522.1 730.417 525.45C730.417 528.801 731.737 532.016 734.09 534.4L734.589 534.8L728.194 541.2C727.906 541.494 727.744 541.889 727.744 542.3C727.744 542.712 727.906 543.107 728.194 543.4L754.476 569.7C754.608 569.864 754.776 569.996 754.966 570.087C755.156 570.178 755.364 570.225 755.575 570.225C755.786 570.225 755.994 570.178 756.184 570.087C756.374 569.996 756.542 569.864 756.674 569.7L763.07 563.3L763.569 563.8C765.932 566.154 769.13 567.475 772.463 567.475C775.797 567.475 778.995 566.154 781.357 563.8L836.619 508.5C838.971 506.136 840.291 502.936 840.291 499.6C840.291 496.264 838.971 493.064 836.619 490.7L831.222 485.3L854.106 479.2C854.371 479.132 854.613 478.994 854.806 478.8C854.999 478.607 855.137 478.365 855.206 478.1C855.272 477.837 855.27 477.561 855.2 477.299C855.13 477.036 854.994 476.796 854.806 476.6L821.229 443C821.034 442.812 820.794 442.676 820.531 442.606C820.269 442.536 819.994 442.534 819.73 442.6L819.73 442.6Z" fill="#31313E"/>
<path d="M817.432 441.4C817.912 440.938 818.494 440.595 819.131 440.4H819.231C819.848 440.2 820.512 440.2 821.129 440.4C821.806 440.571 822.426 440.915 822.928 441.4L856.405 474.9C856.889 475.402 857.234 476.023 857.404 476.7C857.604 477.352 857.604 478.048 857.404 478.7C857.313 479.017 857.179 479.32 857.004 479.6C856.681 480.19 856.195 480.676 855.605 481C855.326 481.174 855.023 481.309 854.706 481.4L835.719 486.5L838.217 489V489.1C839.61 490.471 840.716 492.105 841.471 493.908C842.226 495.71 842.614 497.645 842.614 499.6C842.614 501.555 842.226 503.49 841.471 505.292C840.716 507.095 839.61 508.729 838.217 510.1L782.956 565.5C781.577 566.874 779.94 567.962 778.139 568.7C776.338 569.438 774.409 569.812 772.463 569.8C769.047 569.805 765.733 568.641 763.07 566.5L758.273 571.4C757.531 572.074 756.576 572.463 755.575 572.5C754.54 572.483 753.547 572.092 752.777 571.4L726.495 545.1C725.804 544.33 725.413 543.335 725.396 542.3C725.433 541.299 725.822 540.342 726.495 539.6L731.392 534.8C729.095 531.936 727.929 528.328 728.113 524.66C728.297 520.992 729.819 517.52 732.391 514.9L735.889 511.5C734.974 511.431 734.069 511.263 733.191 511C730.035 510.236 727.139 508.649 724.796 506.4C722.305 503.934 720.603 500.781 719.91 497.344C719.216 493.906 719.561 490.34 720.901 487.1C722.242 483.86 724.516 481.092 727.435 479.151C730.353 477.21 733.783 476.182 737.288 476.2H738.887C736.723 472.609 735.582 468.494 735.589 464.3C735.596 458.517 737.749 452.943 741.63 448.658C745.511 444.373 750.844 441.684 756.594 441.111C762.345 440.538 768.103 442.122 772.752 445.557C777.402 448.992 780.611 454.032 781.757 459.7C782.088 461.48 782.222 463.291 782.156 465.1L787.753 459.6C789.127 458.212 790.761 457.109 792.561 456.354C794.362 455.599 796.293 455.207 798.245 455.2C802.218 455.213 806.024 456.794 808.838 459.6L811.336 462.1L816.433 443.1C816.628 442.463 816.97 441.88 817.432 441.4L817.432 441.4ZM820.53 445.6L813.734 471L805.54 462.8C804.584 461.84 803.447 461.081 802.194 460.566C800.942 460.051 799.599 459.79 798.245 459.8C795.517 459.818 792.903 460.893 790.95 462.8H791.05L735.689 518.2C733.769 520.124 732.691 522.731 732.691 525.45C732.691 528.169 733.769 530.776 735.689 532.7L737.787 534.8L730.292 542.3L755.575 567.6L763.07 560.1L765.168 562.2C767.091 564.121 769.696 565.2 772.413 565.2C775.13 565.2 777.736 564.121 779.658 562.2L835.02 506.9C836.941 504.957 838.018 502.333 838.018 499.6C838.027 498.245 837.767 496.902 837.252 495.648C836.737 494.395 835.978 493.257 835.02 492.3L826.825 484.1L852.208 477.3L820.53 445.6ZM773.263 478.7L776.261 471.4C777.632 467.973 777.979 464.221 777.26 460.6C776.541 456.997 774.767 453.69 772.163 451.1C770.421 449.35 768.349 447.963 766.068 447.019C763.787 446.075 761.341 445.593 758.873 445.6C756.419 445.593 753.989 446.076 751.724 447.021C749.459 447.965 747.405 449.352 745.682 451.1C742.176 454.599 740.2 459.345 740.186 464.3C740.2 469.254 742.176 474.001 745.682 477.5C748.27 480.105 751.575 481.881 755.175 482.6C758.791 483.374 762.556 483.025 765.968 481.6L773.263 478.7ZM754.276 487.1L753.676 487C753.988 487.886 754.255 488.787 754.476 489.7C754.738 490.579 754.906 491.485 754.975 492.4L759.772 487.6C757.926 487.687 756.076 487.518 754.276 487.1ZM747.68 504.2L749.779 498C750.476 495.662 750.579 493.188 750.079 490.8C749.496 488.454 748.287 486.311 746.581 484.6C744.127 482.16 740.806 480.794 737.347 480.8C733.887 480.806 730.571 482.183 728.125 484.631C725.679 487.079 724.302 490.397 724.296 493.859C724.29 497.321 725.656 500.644 728.094 503.1C729.804 504.807 731.945 506.017 734.29 506.6C736.642 507.103 739.083 506.999 741.385 506.3L747.68 504.2Z" fill="white"/>
<path d="M982.417 599.1V601.1L988.113 606.8V593.5L982.417 599.1ZM993.709 587.8V612.5L999.406 618.1V582.2L993.709 587.8ZM1005 576.5V623.8L1010.7 629.4V570.9L1005 576.5ZM1016.29 565.2V635.1L1021.99 640.7V559.6L1016.29 565.2ZM1027.59 553.9V646.4L1033.28 652V548.3L1027.59 553.9ZM1038.88 542.6V657.7L1044.57 663.3V536.9L1038.88 542.6ZM1050.27 531.3V669L1055.87 674.6V525.6L1050.27 531.3ZM1061.56 520V680.3L1067.16 686V514.3L1061.56 520ZM1072.85 508.7V691.6L1078.45 697.3V503L1072.85 508.7ZM1084.15 503V697.3L1089.74 691.6V508.7L1084.15 503ZM1095.44 514.3V686L1101.03 680.3V520L1095.44 514.3ZM1106.73 525.6V674.7L1112.33 669V531.3L1106.73 525.6ZM1118.02 536.9V663.3L1123.72 657.7V542.6L1118.02 536.9ZM1129.32 548.3V652L1135.01 646.4V553.9L1129.32 548.3ZM1140.61 559.6V640.7L1146.3 635.1V565.2L1140.61 559.6ZM1151.9 570.9V629.4L1157.6 623.8V576.5L1151.9 570.9ZM1163.19 582.2V618.1L1168.89 612.5V587.8L1163.19 582.2ZM1174.48 593.5V606.8L1180.18 601.1V599.1L1174.48 593.5Z" fill="#ED553B"/>
<path d="M1081.25 700.102L1181.18 600.1H981.42L1081.25 700.102Z" fill="#ED553B"/>
<path d="M981.42 800.001L1081.25 700.102L981.42 600.1L881.487 700.102L981.42 800.001Z" fill="#FE9900"/>
<path fill-rule="evenodd" clip-rule="evenodd" d="M1031.38 650.1C1044.57 663.371 1051.96 681.336 1051.93 700.052C1051.9 718.769 1044.45 736.71 1031.22 749.938C1017.99 763.166 1000.05 770.602 981.35 770.613C962.646 770.625 944.701 763.212 931.453 750C918.263 736.729 910.873 718.764 910.903 700.047C910.934 681.33 918.382 663.39 931.614 650.162C944.847 636.933 962.782 629.498 981.486 629.486C1000.19 629.475 1018.13 636.888 1031.38 650.1Z" fill="#08E6E7"/>
<path d="M1103.63 0H1151.8C1154.4 15.626 1155.5 31.4643 1155.1 47.3C1154.15 82.8405 1145.88 117.803 1130.81 150L1095.64 114.8C1103.43 93.5348 1107.72 71.1424 1108.33 48.5C1108.72 32.2029 1107.15 15.918 1103.63 0V0ZM1182.88 0H1230.54C1232.54 16.0848 1233.35 32.2961 1232.94 48.4999C1231.4 104.328 1216.02 158.897 1188.17 207.3L1154.3 173.5C1174.04 135.141 1184.9 92.8295 1186.08 49.6999C1186.51 33.0706 1185.44 16.4357 1182.88 0V0ZM1263.22 0H1310.49C1311.59 14.3 1311.99 28.7 1311.69 43.1C1309.56 121.01 1285.52 196.741 1242.34 261.6L1209.26 228.5C1243.88 173.129 1263.07 109.494 1264.82 44.1999C1265.24 29.4475 1264.7 14.6836 1263.22 0V0Z" fill="#ED553B"/>
<path d="M1390.23 113.7L1242.34 261.6L1236.44 255.7L1384.34 107.8L1390.23 113.7ZM1208.16 0H1219.95L1100.44 119.6L1094.54 113.7L1208.16 0ZM1231.74 0H1243.64L1112.23 131.4L1106.33 125.5L1231.74 0ZM1255.43 0H1267.22L1124.12 143.3L1118.12 137.4L1255.43 0ZM1378.34 101.8L1230.54 249.8L1224.65 243.9L1372.45 95.9L1378.34 101.8ZM1366.55 90L1218.75 238L1212.76 232.1L1360.65 84.1L1366.55 90ZM1354.76 78.2L1206.86 226.1L1200.97 220.2L1348.86 72.3L1354.76 78.2ZM1342.87 66.3L1195.07 214.3L1189.17 208.4L1336.97 60.3999L1342.87 66.3ZM1331.07 54.5L1183.18 202.5L1177.28 196.5L1325.18 48.6L1331.07 54.5ZM1319.28 42.7L1171.39 190.6L1165.49 184.7L1313.39 36.8L1319.28 42.7ZM1307.39 30.8L1159.59 178.8L1153.7 172.9L1301.5 24.9L1307.39 30.8ZM1295.6 19L1147.7 166.9L1141.81 161L1289.7 13.1L1295.6 19ZM1283.81 7.19991L1135.91 155.1L1130.01 149.2L1277.81 1.19997L1283.81 7.19991Z" fill="#ED553B"/>
<path d="M1238.64 741.1C1222.63 739.567 1206.55 739.032 1190.47 739.5C1118.3 741.405 1047.89 762.269 986.314 800H1099.04C1128.41 791.579 1158.73 786.909 1189.27 786.1C1210 785.595 1230.73 786.9 1251.23 790L1238.64 741.1ZM1439 576.6V750.7C1427.84 721.174 1422.55 689.754 1423.41 658.2C1424.14 630.333 1429.41 602.772 1439 576.6ZM1429.91 800H1289C1282.44 782.76 1277.62 764.904 1274.61 746.7C1303.09 750.8 1334.37 762.6 1365.85 776.4C1351.54 738.267 1344.75 697.719 1345.86 657C1347.37 601.37 1362.73 546.995 1390.53 498.8L1424.11 532.5C1404.47 570.708 1393.68 612.849 1392.53 655.8C1390.96 706.453 1403.93 756.495 1429.91 800L1429.91 800ZM1269.12 710.6C1267.6 694.581 1267.04 678.486 1267.42 662.4C1269.54 584.782 1293.47 509.332 1336.47 444.7L1369.45 477.7C1334.94 532.852 1315.82 596.25 1314.09 661.3C1313.58 682.007 1314.89 702.72 1317.98 723.2L1269.12 710.6Z" fill="#FF9A00"/>
<path d="M981.418 800L1120.12 661.1L1126.02 667L993.21 800H981.418ZM1252.33 800H1240.64L1249.73 790.8L1255.63 796.7L1252.33 800ZM1228.85 800H1217.05L1237.94 779.1L1243.84 785L1228.85 800ZM1205.26 800H1193.47L1226.25 767.3L1232.04 773.2L1205.26 800ZM1181.68 800H1169.89L1214.46 755.5L1220.35 761.4L1181.68 800ZM1158.1 800H1146.3L1202.66 743.7L1208.56 749.6L1158.1 800ZM1134.51 800H1122.82L1190.87 731.9L1196.77 737.8L1134.51 800ZM1111.03 800H1099.24L1179.08 720.1L1184.98 726L1111.03 800ZM1087.44 800H1075.65L1167.29 708.3L1173.18 714.2L1087.44 800ZM1063.86 800H1052.07L1155.5 696.5L1161.39 702.4L1063.86 800ZM1040.28 800H1028.49L1143.71 684.7L1149.6 690.6L1040.28 800ZM1016.69 800H1005L1131.91 672.9L1137.81 678.8L1016.69 800Z" fill="#FF9A00"/>
<path d="M1439 364C1382.54 353.724 1328.78 332.014 1281.01 300.2L1314.49 266.7C1352.67 290.553 1394.86 307.289 1439 316.1V364ZM1439 154.7V203.4C1423.54 199.372 1408.48 193.916 1394.03 187.1L1429.61 151.5C1432.7 152.6 1435.9 153.7 1439 154.7ZM1439 236.1V284.1C1402.79 276.827 1367.99 263.724 1335.97 245.3L1370.15 211C1391.96 222.223 1415.09 230.656 1439 236.1V236.1Z" fill="#08E6E7"/>
</g>
<defs>
<clipPath id="clip0_195_163">
<rect width="1439" height="800" fill="white"/>
</clipPath>
</defs>
</svg>
