<svg width="480" height="564" viewBox="0 0 480 564" fill="none" xmlns="http://www.w3.org/2000/svg">
<g clip-path="url(#clip0_1_2279)">
<g clip-path="url(#clip1_1_2279)">
<path d="M70.7928 179.132L-13.1686 95.1707L-97.1188 179.121L-13.1574 263.082L70.7928 179.132Z" fill="white"/>
<path d="M-13.1663 95.1703L70.7929 179.134L-97.1186 179.119L-13.1663 95.1703Z" fill="#ED553B"/>
<path d="M28.8165 221.108L-13.1631 179.126L70.7929 179.134L28.8165 221.108Z" fill="#FF9EF6"/>
<path d="M28.8165 221.109L-13.1631 179.126L-13.1599 263.082L28.8165 221.109Z" fill="#FF9955"/>
<path d="M8.06383 260.985C8.54286 261.466 8.86877 262.077 9.00043 262.743C9.1321 263.408 9.0636 264.098 8.80357 264.724C8.54354 265.351 8.10365 265.886 7.53948 266.263C6.9753 266.64 6.31214 266.841 5.63376 266.84C4.95537 266.84 4.29219 266.639 3.72799 266.263C3.16379 265.886 2.72387 265.35 2.46379 264.724C2.20372 264.097 2.13515 263.408 2.26677 262.742C2.39838 262.077 2.72426 261.465 3.20325 260.985C3.5216 260.664 3.90022 260.41 4.31731 260.236C4.7344 260.063 5.18172 259.973 5.6335 259.973C6.08528 259.974 6.53261 260.063 6.94971 260.237C7.36681 260.41 7.74546 260.665 8.06383 260.985ZM-3.59006 272.625C-1.76563 274.449 0.558767 275.692 3.08923 276.195C5.6197 276.699 8.24258 276.441 10.6262 275.454C13.0098 274.467 15.047 272.795 16.4803 270.65C17.9136 268.505 18.6786 265.983 18.6785 263.403C18.6784 260.823 17.9132 258.301 16.4798 256.155C15.0463 254.01 13.0089 252.338 10.6252 251.35C8.24157 250.363 5.61867 250.104 3.08824 250.607C0.557816 251.11 -1.76649 252.352 -3.59077 254.177C-4.80227 255.388 -5.76328 256.826 -6.41893 258.408C-7.07457 259.991 -7.41199 261.687 -7.41193 263.4C-7.41186 265.113 -7.0743 266.81 -6.41854 268.393C-5.76277 269.975 -4.80165 271.413 -3.59006 272.625Z" fill="#39175F"/>
<path d="M29.7717 282.694C30.2507 283.175 30.5767 283.786 30.7083 284.452C30.84 285.117 30.7715 285.807 30.5114 286.434C30.2514 287.06 29.8115 287.595 29.2474 287.972C28.6832 288.349 28.02 288.55 27.3416 288.55C26.6633 288.55 26.0001 288.348 25.4359 287.972C24.8717 287.595 24.4317 287.06 24.1717 286.433C23.9116 285.806 23.843 285.117 23.9746 284.451C24.1062 283.786 24.4321 283.174 24.9111 282.694C25.2295 282.373 25.6081 282.119 26.0252 281.946C26.4423 281.772 26.8896 281.683 27.3414 281.683C27.7931 281.683 28.2405 281.772 28.6576 281.946C29.0747 282.119 29.4533 282.374 29.7717 282.694ZM18.1177 294.334C19.9422 296.158 22.2666 297.401 24.7971 297.905C27.3275 298.408 29.9504 298.15 32.334 297.163C34.7176 296.176 36.7549 294.504 38.1882 292.359C39.6215 290.214 40.3864 287.692 40.3863 285.112C40.3862 282.532 39.6211 280.01 38.1876 277.864C36.7541 275.719 34.7167 274.047 32.333 273.059C29.9494 272.072 27.3265 271.813 24.796 272.316C22.2656 272.819 19.9413 274.062 18.117 275.886C16.9055 277.097 15.9445 278.535 15.2889 280.117C14.6332 281.7 14.2958 283.396 14.2959 285.109C14.2959 286.823 14.6335 288.519 15.2893 290.102C15.945 291.684 16.9061 293.123 18.1177 294.334L18.1177 294.334Z" fill="#39175F"/>
<path d="M51.4796 304.39C51.9602 304.87 52.2876 305.483 52.4202 306.15C52.5529 306.816 52.4849 307.507 52.2247 308.135C51.9646 308.763 51.5241 309.3 50.9589 309.678C50.3937 310.055 49.7292 310.257 49.0495 310.257C48.3697 310.257 47.7052 310.055 47.14 309.677C46.5747 309.3 46.1342 308.763 45.874 308.135C45.6139 307.507 45.5458 306.816 45.6784 306.149C45.811 305.482 46.1383 304.87 46.6189 304.389C47.2641 303.746 48.1381 303.385 49.0492 303.385C49.9603 303.385 50.8343 303.746 51.4796 304.39ZM39.8256 316.043C41.65 317.867 43.9744 319.11 46.5049 319.614C49.0354 320.117 51.6582 319.859 54.0418 318.872C56.4254 317.885 58.4627 316.213 59.896 314.068C61.3293 311.923 62.0942 309.401 62.0941 306.821C62.094 304.241 61.3289 301.719 59.8954 299.573C58.462 297.428 56.4246 295.756 54.0409 294.768C51.6572 293.781 49.0344 293.522 46.5039 294.025C43.9735 294.528 41.6492 295.771 39.8249 297.595C38.6134 298.806 37.6524 300.244 36.9968 301.826C36.3411 303.409 36.0037 305.105 36.0037 306.819C36.0038 308.532 36.3414 310.228 36.9971 311.811C37.6529 313.394 38.614 314.832 39.8256 316.043Z" fill="#39175F"/>
<path d="M73.1874 326.099C73.6681 326.579 73.9954 327.192 74.1281 327.858C74.2607 328.525 74.1927 329.216 73.9326 329.844C73.6725 330.472 73.2319 331.009 72.6668 331.387C72.1016 331.764 71.4371 331.966 70.7573 331.966C70.0776 331.966 69.4131 331.764 68.8478 331.386C68.2826 331.009 67.8421 330.472 67.5819 329.844C67.3217 329.216 67.2537 328.525 67.3863 327.858C67.5189 327.191 67.8462 326.579 68.3268 326.098C68.972 325.455 69.8459 325.094 70.7571 325.094C71.6682 325.094 72.5422 325.455 73.1874 326.099ZM61.5335 337.752C63.3579 339.576 65.6823 340.819 68.2128 341.323C70.7433 341.826 73.3661 341.568 75.7497 340.581C78.1333 339.594 80.1706 337.922 81.6039 335.777C83.0372 333.632 83.8021 331.11 83.802 328.53C83.8019 325.95 83.0368 323.428 81.6033 321.282C80.1698 319.137 78.1325 317.465 75.7488 316.477C73.3651 315.49 70.7422 315.231 68.2118 315.734C65.6814 316.237 63.3571 317.48 61.5328 319.304C59.0922 321.753 57.7219 325.07 57.722 328.528C57.7222 331.985 59.0927 335.302 61.5335 337.752Z" fill="#39175F"/>
<path d="M87.7107 243.622C89.1169 242.522 90.9005 242.021 92.6741 242.228C94.4477 242.435 96.0681 243.333 97.1834 244.727L98.1639 245.984L108.963 259.614C110.063 261.021 110.564 262.804 110.357 264.578C110.15 266.351 109.252 267.971 107.858 269.087C106.452 270.187 104.669 270.688 102.895 270.481C101.121 270.274 99.5011 269.376 98.3857 267.981L86.9241 253.481L86.6064 253.094C85.5063 251.688 85.0053 249.904 85.2121 248.131C85.4188 246.357 86.3167 244.737 87.7107 243.622Z" fill="#FF9EF6"/>
<path d="M-0.884198 256.883C-2.17321 258.172 -3.051 259.815 -3.40658 261.603C-3.76216 263.39 -3.57955 265.244 -2.88185 266.928C-2.18414 268.612 -1.00268 270.052 0.513142 271.065C2.02896 272.078 3.81105 272.619 5.63406 272.619C7.45706 272.619 9.23911 272.079 10.7548 271.066C12.2706 270.053 13.4519 268.614 14.1495 266.93C14.8471 265.246 15.0295 263.392 14.6738 261.604C14.3181 259.816 13.4401 258.174 12.151 256.885C11.2956 256.028 10.2797 255.348 9.16129 254.884C8.0429 254.42 6.84404 254.181 5.63331 254.181C4.42257 254.181 3.22373 254.419 2.10538 254.883C0.987034 255.347 -0.028865 256.027 -0.884198 256.883Z" fill="#FF9EF6"/>
<path d="M20.8236 278.592C19.5346 279.881 18.6568 281.524 18.3012 283.312C17.9456 285.1 18.1282 286.953 18.8259 288.637C19.5236 290.322 20.7051 291.761 22.2209 292.774C23.7367 293.787 25.5188 294.328 27.3418 294.328C29.1649 294.328 30.9469 293.788 32.4626 292.775C33.9784 291.762 35.1597 290.323 35.8573 288.639C36.5549 286.955 36.7373 285.101 36.3816 283.313C36.0259 281.525 35.148 279.883 33.8588 278.594C33.0034 277.737 31.9875 277.057 30.8691 276.593C29.7507 276.129 28.5518 275.89 27.3411 275.89C26.1304 275.89 24.9315 276.129 23.8132 276.592C22.6948 277.056 21.6789 277.736 20.8236 278.592Z" fill="#FF9EF6"/>
<path d="M42.5315 300.301C41.2424 301.59 40.3647 303.233 40.0091 305.021C39.6535 306.809 39.8361 308.662 40.5338 310.346C41.2315 312.031 42.413 313.47 43.9288 314.483C45.4446 315.496 47.2267 316.037 49.0498 316.037C50.8728 316.037 52.6548 315.497 54.1706 314.484C55.6863 313.471 56.8676 312.032 57.5652 310.348C58.2628 308.664 58.4453 306.81 58.0895 305.022C57.7338 303.234 56.8559 301.592 55.5668 300.303C54.7114 299.446 53.6954 298.766 52.577 298.302C51.4586 297.838 50.2598 297.599 49.049 297.599C47.8383 297.599 46.6394 297.838 45.5211 298.301C44.4027 298.765 43.3868 299.445 42.5315 300.301Z" fill="#FF9EF6"/>
<path d="M64.2393 322.011C62.9503 323.299 62.0725 324.942 61.717 326.73C61.3614 328.518 61.544 330.371 62.2417 332.055C62.9394 333.74 64.1209 335.179 65.6367 336.192C67.1525 337.205 68.9346 337.746 70.7576 337.746C72.5806 337.746 74.3627 337.206 75.8784 336.193C77.3941 335.18 78.5755 333.741 79.2731 332.057C79.9706 330.373 80.1531 328.519 79.7974 326.731C79.4416 324.943 78.5637 323.301 77.2746 322.012C76.4192 321.155 75.4032 320.475 74.2848 320.011C73.1665 319.547 71.9676 319.308 70.7569 319.308C69.5461 319.308 68.3473 319.547 67.2289 320.01C66.1106 320.474 65.0947 321.154 64.2393 322.011Z" fill="#FF9EF6"/>
<path d="M70.7928 179.132L-13.1686 95.1707L-97.1188 179.121L-13.1574 263.082L70.7928 179.132Z" fill="white"/>
<path d="M154.752 263.096L70.7905 179.134L-13.1597 263.085L70.8017 347.046L154.752 263.096Z" fill="#08E6E7"/>
<path d="M-13.1663 95.1703L70.7929 179.134L-97.1186 179.119L-13.1663 95.1703Z" fill="#ED553B"/>
<path d="M28.8165 221.108L-13.1631 179.126L70.7929 179.134L28.8165 221.108Z" fill="#FEA59C"/>
<path d="M28.8165 221.109L-13.1631 179.126L-13.1599 263.082L28.8165 221.109Z" fill="#FF9A00"/>
<path d="M8.06383 260.985C8.54286 261.466 8.86877 262.077 9.00043 262.743C9.1321 263.408 9.0636 264.098 8.80357 264.724C8.54354 265.351 8.10365 265.886 7.53948 266.263C6.9753 266.64 6.31214 266.841 5.63376 266.84C4.95537 266.84 4.29219 266.639 3.72799 266.263C3.16379 265.886 2.72387 265.35 2.46379 264.724C2.20372 264.097 2.13515 263.408 2.26677 262.742C2.39838 262.077 2.72426 261.465 3.20325 260.985C3.5216 260.664 3.90022 260.41 4.31731 260.236C4.7344 260.063 5.18172 259.973 5.6335 259.973C6.08528 259.974 6.53261 260.063 6.94971 260.237C7.36681 260.41 7.74546 260.665 8.06383 260.985ZM-3.59006 272.625C-1.76563 274.449 0.558767 275.692 3.08923 276.195C5.6197 276.699 8.24258 276.441 10.6262 275.454C13.0098 274.467 15.047 272.795 16.4803 270.65C17.9136 268.505 18.6786 265.983 18.6785 263.403C18.6784 260.823 17.9132 258.301 16.4798 256.155C15.0463 254.01 13.0089 252.338 10.6252 251.35C8.24157 250.363 5.61867 250.104 3.08824 250.607C0.557816 251.11 -1.76649 252.352 -3.59077 254.177C-4.80227 255.388 -5.76328 256.826 -6.41893 258.408C-7.07457 259.991 -7.41199 261.687 -7.41193 263.4C-7.41186 265.113 -7.0743 266.81 -6.41854 268.393C-5.76277 269.975 -4.80165 271.413 -3.59006 272.625Z" fill="#31313E"/>
<path d="M29.7717 282.694C30.2507 283.175 30.5767 283.786 30.7083 284.452C30.84 285.117 30.7715 285.807 30.5114 286.434C30.2514 287.06 29.8115 287.595 29.2474 287.972C28.6832 288.349 28.02 288.55 27.3416 288.55C26.6633 288.55 26.0001 288.348 25.4359 287.972C24.8717 287.595 24.4317 287.06 24.1717 286.433C23.9116 285.806 23.843 285.117 23.9746 284.451C24.1062 283.786 24.4321 283.174 24.9111 282.694C25.2295 282.373 25.6081 282.119 26.0252 281.946C26.4423 281.772 26.8896 281.683 27.3414 281.683C27.7931 281.683 28.2405 281.772 28.6576 281.946C29.0747 282.119 29.4533 282.374 29.7717 282.694ZM18.1177 294.334C19.9422 296.158 22.2666 297.401 24.7971 297.905C27.3275 298.408 29.9504 298.15 32.334 297.163C34.7176 296.176 36.7549 294.504 38.1882 292.359C39.6215 290.214 40.3864 287.692 40.3863 285.112C40.3862 282.532 39.6211 280.01 38.1876 277.864C36.7541 275.719 34.7167 274.047 32.333 273.059C29.9494 272.072 27.3265 271.813 24.796 272.316C22.2656 272.819 19.9413 274.062 18.117 275.886C16.9055 277.097 15.9445 278.535 15.2889 280.117C14.6332 281.7 14.2958 283.396 14.2959 285.109C14.2959 286.823 14.6335 288.519 15.2893 290.102C15.945 291.684 16.9061 293.123 18.1177 294.334L18.1177 294.334Z" fill="#31313E"/>
<path d="M51.4796 304.39C51.9602 304.87 52.2876 305.483 52.4202 306.15C52.5529 306.816 52.4849 307.507 52.2247 308.135C51.9646 308.763 51.5241 309.3 50.9589 309.678C50.3937 310.055 49.7292 310.257 49.0495 310.257C48.3697 310.257 47.7052 310.055 47.14 309.677C46.5747 309.3 46.1342 308.763 45.874 308.135C45.6139 307.507 45.5458 306.816 45.6784 306.149C45.811 305.482 46.1383 304.87 46.6189 304.389C47.2641 303.746 48.1381 303.385 49.0492 303.385C49.9603 303.385 50.8343 303.746 51.4796 304.39ZM39.8256 316.043C41.65 317.867 43.9744 319.11 46.5049 319.614C49.0354 320.117 51.6582 319.859 54.0418 318.872C56.4254 317.885 58.4627 316.213 59.896 314.068C61.3293 311.923 62.0942 309.401 62.0941 306.821C62.094 304.241 61.3289 301.719 59.8954 299.573C58.462 297.428 56.4246 295.756 54.0409 294.768C51.6572 293.781 49.0344 293.522 46.5039 294.025C43.9735 294.528 41.6492 295.771 39.8249 297.595C38.6134 298.806 37.6524 300.244 36.9968 301.826C36.3411 303.409 36.0037 305.105 36.0037 306.819C36.0038 308.532 36.3414 310.228 36.9971 311.811C37.6529 313.394 38.614 314.832 39.8256 316.043Z" fill="#31313E"/>
<path d="M73.1874 326.099C73.6681 326.579 73.9954 327.192 74.1281 327.858C74.2607 328.525 74.1927 329.216 73.9326 329.844C73.6725 330.472 73.2319 331.009 72.6668 331.387C72.1016 331.764 71.4371 331.966 70.7573 331.966C70.0776 331.966 69.4131 331.764 68.8478 331.386C68.2826 331.009 67.8421 330.472 67.5819 329.844C67.3217 329.216 67.2537 328.525 67.3863 327.858C67.5189 327.191 67.8462 326.579 68.3268 326.098C68.972 325.455 69.8459 325.094 70.7571 325.094C71.6682 325.094 72.5422 325.455 73.1874 326.099ZM61.5335 337.752C63.3579 339.576 65.6823 340.819 68.2128 341.323C70.7433 341.826 73.3661 341.568 75.7497 340.581C78.1333 339.594 80.1706 337.922 81.6039 335.777C83.0372 333.632 83.8021 331.11 83.802 328.53C83.8019 325.95 83.0368 323.428 81.6033 321.282C80.1698 319.137 78.1325 317.465 75.7488 316.477C73.3651 315.49 70.7422 315.231 68.2118 315.734C65.6814 316.237 63.3571 317.48 61.5328 319.304C59.0922 321.753 57.7219 325.07 57.722 328.528C57.7222 331.985 59.0927 335.302 61.5335 337.752Z" fill="#31313E"/>
<path d="M35.8184 246.365C48.191 250.522 78.3353 259.211 78.3353 259.211L84.7837 254.917L96.204 269.348C99.3111 273.284 105 274.278 109.074 271.365C110.1 270.634 110.966 269.701 111.62 268.624C112.275 267.548 112.703 266.349 112.88 265.102C113.057 263.854 112.979 262.584 112.649 261.367C112.32 260.151 111.747 259.014 110.965 258.026L100.304 244.548L112.096 234.317C112.865 233.804 113.748 233.488 114.668 233.397C115.588 233.306 116.516 233.442 117.371 233.793C131.359 239.428 138.582 250.379 141.344 255.599C141.789 256.439 141.996 257.385 141.943 258.334C141.889 259.283 141.577 260.2 141.04 260.984C136.138 268.219 112.913 297.491 102.889 308.054C97.269 313.977 93.1679 316.849 90.3649 318.216C89.2005 318.781 87.8991 319.003 86.6129 318.857C85.3266 318.71 84.1088 318.2 83.1016 317.386C77.3985 312.801 20.6571 256.609 20.6433 256.526C19.7731 252.038 21.9548 249.277 24.6474 247.579C26.3036 246.563 28.1647 245.927 30.0964 245.717C32.0281 245.507 33.9824 245.728 35.8184 246.365L35.8184 246.365Z" fill="white"/>
<path d="M36.2326 244.639C47.2519 248.34 72.5494 255.675 77.7277 257.181L84.9632 252.349L97.5986 268.299C98.7872 269.813 100.503 270.824 102.404 271.13C104.227 271.428 106.094 270.991 107.596 269.915C107.699 269.855 107.796 269.786 107.886 269.708C109.333 268.557 110.286 266.896 110.547 265.066C110.809 263.235 110.361 261.373 109.294 259.863C109.239 259.794 109.17 259.697 109.073 259.573L97.1696 244.534L110.481 232.991L110.688 232.826C111.735 232.124 112.94 231.692 114.195 231.569C115.453 231.447 116.722 231.627 117.896 232.095C123.178 234.233 128.036 237.296 132.243 241.14C136.557 245.087 140.175 249.732 142.945 254.881C143.563 256.059 143.849 257.382 143.774 258.71C143.698 260.038 143.264 261.32 142.517 262.42C139.784 266.438 131.471 277.181 122.883 287.785C115.896 296.401 108.702 304.947 104.145 309.752C101.808 312.258 99.2926 314.593 96.6201 316.739C94.8892 318.128 93.0199 319.336 91.0416 320.342C89.5191 321.083 87.8173 321.375 86.135 321.184C84.4527 320.993 82.8594 320.327 81.5413 319.264C79.539 317.662 71.4192 309.874 61.6701 300.359C43.0555 282.226 18.351 257.286 18.3372 257.175C17.8093 254.847 18.1171 252.408 19.2069 250.285C20.1657 248.544 21.5718 247.09 23.2802 246.074C25.1751 244.878 27.3205 244.136 29.5492 243.906C31.8037 243.66 34.0848 243.91 36.2326 244.639L36.2326 244.639ZM77.4932 261.475C77.4103 261.448 47.3488 252.787 34.8933 248.602C33.318 248.067 31.645 247.883 29.9913 248.063C28.3998 248.222 26.8677 248.752 25.5174 249.609C24.4308 250.237 23.5303 251.142 22.9076 252.232C22.2712 253.515 22.1051 254.981 22.4384 256.375C22.4384 256.389 46.3832 279.644 64.5835 297.376C74.2361 306.767 82.2315 314.459 84.1648 316.02C84.8698 316.576 85.7163 316.926 86.6089 317.028C87.4943 317.137 88.3922 316.983 89.1911 316.586C90.9094 315.717 92.5297 314.667 94.024 313.452C96.5485 311.434 98.9207 309.233 101.121 306.866C105.567 302.185 112.679 293.708 119.638 285.147C128.157 274.626 136.387 264.008 139.065 260.059C139.388 259.589 139.574 259.04 139.604 258.471C139.642 257.905 139.518 257.339 139.245 256.841C136.711 252.108 133.391 247.84 129.426 244.22C125.585 240.719 121.152 237.927 116.336 235.975C115.794 235.753 115.205 235.673 114.623 235.74C114.083 235.783 113.561 235.959 113.104 236.25L102.942 245.073L112.359 256.977C112.478 257.118 112.588 257.266 112.691 257.419L112.691 257.433C114.392 259.811 115.112 262.752 114.704 265.646C114.295 268.541 112.788 271.167 110.496 272.981C110.358 273.091 110.206 273.202 110.04 273.326C107.637 275.027 104.662 275.716 101.755 275.245C98.8192 274.781 96.1634 273.234 94.3123 270.908L84.0797 257.982L78.4321 261.738L77.4932 261.475Z" fill="#31313E"/>
<path d="M87.3793 243.967C88.7832 242.861 90.5683 242.356 92.3438 242.563C94.1193 242.77 95.7404 243.673 96.8521 245.073L97.8325 246.315L108.617 259.945C109.724 261.349 110.23 263.135 110.023 264.91C109.816 266.686 108.913 268.307 107.513 269.418C106.109 270.518 104.328 271.019 102.556 270.812C100.785 270.605 99.1667 269.707 98.0543 268.312L86.5788 253.812L86.2751 253.426C85.1682 252.024 84.6629 250.241 84.8699 248.468C85.077 246.694 85.9795 245.075 87.3793 243.967L87.3793 243.967Z" fill="#FEA49C"/>
<path d="M-0.884198 256.883C-2.17321 258.172 -3.051 259.815 -3.40658 261.603C-3.76216 263.39 -3.57955 265.244 -2.88185 266.928C-2.18414 268.612 -1.00268 270.052 0.513142 271.065C2.02896 272.078 3.81105 272.619 5.63406 272.619C7.45706 272.619 9.23911 272.079 10.7548 271.066C12.2706 270.053 13.4519 268.614 14.1495 266.93C14.8471 265.246 15.0295 263.392 14.6738 261.604C14.3181 259.816 13.4401 258.174 12.151 256.885C11.2956 256.028 10.2797 255.348 9.16129 254.884C8.0429 254.42 6.84404 254.181 5.63331 254.181C4.42257 254.181 3.22373 254.419 2.10538 254.883C0.987034 255.347 -0.028865 256.027 -0.884198 256.883Z" fill="#FEA49C"/>
<path d="M20.8236 278.592C19.5346 279.881 18.6568 281.524 18.3012 283.312C17.9456 285.1 18.1282 286.953 18.8259 288.637C19.5236 290.322 20.7051 291.761 22.2209 292.774C23.7367 293.787 25.5188 294.328 27.3418 294.328C29.1649 294.328 30.9469 293.788 32.4626 292.775C33.9784 291.762 35.1597 290.323 35.8573 288.639C36.5549 286.955 36.7373 285.101 36.3816 283.313C36.0259 281.525 35.148 279.883 33.8588 278.594C33.0034 277.737 31.9875 277.057 30.8691 276.593C29.7507 276.129 28.5518 275.89 27.3411 275.89C26.1304 275.89 24.9315 276.129 23.8132 276.592C22.6948 277.056 21.6789 277.736 20.8236 278.592Z" fill="#FEA49C"/>
<path d="M42.5315 300.301C41.2424 301.59 40.3647 303.233 40.0091 305.021C39.6535 306.809 39.8361 308.662 40.5338 310.346C41.2315 312.031 42.413 313.47 43.9288 314.483C45.4446 315.496 47.2267 316.037 49.0498 316.037C50.8728 316.037 52.6548 315.497 54.1706 314.484C55.6863 313.471 56.8676 312.032 57.5652 310.348C58.2628 308.664 58.4453 306.81 58.0895 305.022C57.7338 303.234 56.8559 301.592 55.5668 300.303C54.7114 299.446 53.6954 298.766 52.577 298.302C51.4586 297.838 50.2598 297.599 49.049 297.599C47.8383 297.599 46.6394 297.838 45.5211 298.301C44.4027 298.765 43.3868 299.445 42.5315 300.301Z" fill="#FEA49C"/>
<path d="M64.2393 322.011C62.9503 323.299 62.0725 324.942 61.717 326.73C61.3614 328.518 61.544 330.371 62.2417 332.055C62.9394 333.74 64.1209 335.179 65.6367 336.192C67.1525 337.205 68.9346 337.746 70.7576 337.746C72.5806 337.746 74.3627 337.206 75.8784 336.193C77.3941 335.18 78.5755 333.741 79.2731 332.057C79.9706 330.373 80.1531 328.519 79.7974 326.731C79.4416 324.943 78.5637 323.301 77.2746 322.012C76.4192 321.155 75.4032 320.475 74.2848 320.011C73.1665 319.547 71.9676 319.308 70.7569 319.308C69.5461 319.308 68.3473 319.547 67.2289 320.01C66.1106 320.474 65.0947 321.154 64.2393 322.011Z" fill="#FEA49C"/>
<path d="M70.7994 347.044L-13.1621 263.082L-97.1123 347.032L-13.1508 430.994L70.7994 347.044Z" fill="white"/>
<path fill-rule="evenodd" clip-rule="evenodd" d="M49.5626 368.323C44.7266 373.149 38.3666 376.149 31.5662 376.812C24.7657 377.475 17.9455 375.759 12.2674 371.958C6.58934 368.156 2.40461 362.504 0.426107 355.964C-1.55239 349.423 -1.20227 342.4 1.41686 336.089C4.03599 329.779 8.76209 324.572 14.79 321.356C20.818 318.139 27.7749 317.112 34.4756 318.45C41.1763 319.788 47.2063 323.407 51.5383 328.692C55.8704 333.976 58.2365 340.599 58.2336 347.431C58.2345 351.313 57.469 355.157 55.981 358.742C54.4931 362.327 52.3119 365.583 49.5626 368.323Z" fill="#08E6E7"/>
<path fill-rule="evenodd" clip-rule="evenodd" d="M8.17686 326.935C4.04253 331.065 -1.22365 333.876 -6.95587 335.013C-12.6881 336.149 -18.6289 335.561 -24.0272 333.322C-29.4255 331.083 -34.0389 327.293 -37.284 322.432C-40.5291 317.572 -42.2602 311.858 -42.2585 306.014C-42.2568 300.17 -40.5224 294.458 -37.2744 289.6C-34.0265 284.742 -29.4109 280.957 -24.0113 278.722C-18.6117 276.487 -12.6705 275.904 -6.93899 277.046C-1.20743 278.188 4.05713 281.003 8.18906 285.136C10.9331 287.882 13.1096 291.141 14.5941 294.728C16.0785 298.314 16.842 302.158 16.8409 306.039C16.8398 309.921 16.074 313.764 14.5875 317.349C13.1009 320.934 10.9225 324.192 8.17688 326.935L8.17686 326.935Z" fill="#ED553B"/>
<path fill-rule="evenodd" clip-rule="evenodd" d="M49.2036 367.964C44.3689 372.797 38.0078 375.805 31.2039 376.474C24.4001 377.143 17.5743 375.432 11.8897 371.633C6.20501 367.834 2.01308 362.182 0.0280588 355.639C-1.95696 349.097 -1.61228 342.069 1.00339 335.752C3.61905 329.436 8.3439 324.222 14.3729 321C20.402 317.777 27.3622 316.744 34.0679 318.077C40.7736 319.411 46.8098 323.028 51.1482 328.312C55.4867 333.597 57.8589 340.222 57.8608 347.059C57.8574 354.899 54.7439 362.417 49.2036 367.964Z" fill="#08E6E7"/>
<path d="M28.6441 389.198L-55.3173 305.236L-97.1129 347.032L-13.1515 430.993L28.6441 389.198Z" fill="#FEA49C"/>
<path fill-rule="evenodd" clip-rule="evenodd" d="M7.40356 326.148C3.27018 330.281 -1.99631 333.096 -7.72987 334.236C-13.4634 335.376 -19.4065 334.791 -24.8076 332.553C-30.2087 330.315 -34.8252 326.527 -38.0733 321.666C-41.3214 316.805 -43.0552 311.09 -43.0554 305.244C-43.0557 299.398 -41.3223 293.683 -38.0746 288.823C-34.8269 283.963 -30.2107 280.175 -24.8098 277.938C-19.4088 275.701 -13.4658 275.117 -7.73212 276.258C-1.99847 277.399 3.2682 280.215 7.40191 284.349C12.9426 289.894 16.0552 297.411 16.0555 305.249C16.0558 313.087 12.9438 320.604 7.40356 326.148Z" fill="#ED553B"/>
<path d="M28.6436 389.2C17.5556 378.111 2.51759 371.881 -13.1624 371.88C-28.8423 371.878 -43.8798 378.105 -54.967 389.192L-13.1531 430.994L28.6436 389.2Z" fill="#31313E"/>
<path opacity="0.6" d="M154.996 262.83L-96.8181 11.0156L-432.984 347.182L-181.17 598.996L154.996 262.83Z" fill="white"/>
</g>
</g>
<defs>
<clipPath id="clip0_1_2279">
<rect width="480" height="564" fill="white"/>
</clipPath>
<clipPath id="clip1_1_2279">
<rect width="356.183" height="475.411" fill="white" transform="translate(-96.8337 11) rotate(45)"/>
</clipPath>
</defs>
</svg>
