<svg width="1440" height="812" viewBox="0 0 1440 812" fill="none" xmlns="http://www.w3.org/2000/svg">
<g clip-path="url(#clip0_1_415)">
<g clip-path="url(#clip1_1_415)">
<path d="M-61.0127 133.518C-108.368 180.871 -179.871 186.155 -220.71 145.313C-261.521 104.501 -256.233 32.9978 -208.877 -14.3547C-161.522 -61.7072 -90.0194 -66.9915 -49.209 -26.1788C-8.3693 14.6632 -13.6575 86.1658 -61.0127 133.518Z" fill="#FF9EF6"/>
<path d="M-52.3074 -23.0512C-68.6529 -39.3976 -89.4779 -50.5305 -112.149 -55.0422C-134.82 -59.5539 -158.319 -57.2416 -179.674 -48.3979C-201.029 -39.5542 -219.282 -24.5762 -232.123 -5.35791C-244.964 13.8604 -251.818 36.4557 -251.817 59.5707C-251.816 82.6858 -244.961 105.282 -232.118 124.503C-219.275 143.724 -201.022 158.705 -179.666 167.553C-158.31 176.401 -134.811 178.717 -112.14 174.21C-89.4693 169.703 -68.6451 158.574 -52.301 142.23C-30.4141 120.299 -18.1227 90.5793 -18.1239 59.5929C-18.1251 28.6065 -30.4188 -1.11553 -52.3074 -23.0512ZM-223.809 148.441C-241.387 130.864 -253.358 108.469 -258.209 84.0898C-263.06 59.7103 -260.572 34.4409 -251.06 11.4773C-241.549 -11.4863 -225.441 -31.1126 -204.773 -44.9194C-184.105 -58.7263 -159.807 -66.0936 -134.95 -66.0895C-118.446 -66.0891 -102.103 -62.8378 -86.8546 -56.5213C-71.6063 -50.2048 -57.751 -40.9468 -46.0799 -29.2759C-34.4089 -17.605 -25.1507 -3.74983 -18.834 11.4985C-12.5173 26.7468 -9.2658 43.0896 -9.26516 59.5937C-9.26451 76.0978 -12.5147 92.44 -18.8303 107.687C-25.1458 122.934 -34.4029 136.788 -46.073 148.456C-57.7431 160.125 -71.5977 169.38 -86.8456 175.694C-102.093 182.008 -118.436 185.256 -134.94 185.253C-151.451 185.297 -167.806 182.066 -183.06 175.747C-198.314 169.428 -212.165 160.147 -223.809 148.441L-223.809 148.441Z" fill="#39175F"/>
<path d="M-61.0127 133.518C-108.368 180.871 -179.871 186.155 -220.71 145.313C-261.521 104.501 -256.233 32.9978 -208.877 -14.3547C-161.522 -61.7072 -90.0194 -66.9915 -49.209 -26.1788C-8.3693 14.6632 -13.6575 86.1658 -61.0127 133.518Z" fill="#FEA49C"/>
<path d="M220.531 236.936L42.7848 59.1895L-134.938 236.912L42.8086 414.659L220.531 236.936Z" fill="white"/>
<path d="M42.7898 59.1888L220.532 236.941L-134.938 236.908L42.7898 59.1888Z" fill="#ED553B"/>
<path d="M131.667 325.801L42.7965 236.924L220.532 236.941L131.667 325.801Z" fill="#FF9EF6"/>
<path d="M131.667 325.801L42.7965 236.924L42.8033 414.659L131.667 325.801Z" fill="#FF9955"/>
<path d="M87.7339 410.22C88.748 411.237 89.438 412.532 89.7167 413.941C89.9954 415.349 89.8504 416.809 89.3 418.136C88.7495 419.462 87.8182 420.595 86.6239 421.393C85.4295 422.19 84.0256 422.616 82.5894 422.615C81.1533 422.615 79.7493 422.19 78.5549 421.392C77.3605 420.594 76.4292 419.461 75.8786 418.134C75.328 416.808 75.1829 415.348 75.4615 413.939C75.7401 412.53 76.43 411.236 77.444 410.219C78.118 409.54 78.9195 409.002 79.8025 408.634C80.6855 408.267 81.6325 408.078 82.5889 408.078C83.5453 408.078 84.4923 408.267 85.3753 408.635C86.2583 409.003 87.0599 409.541 87.7339 410.22ZM63.0626 434.861C66.9249 438.723 71.8457 441.354 77.2027 442.42C82.5597 443.486 88.1123 442.94 93.1584 440.85C98.2045 438.76 102.517 435.221 105.552 430.68C108.586 426.139 110.205 420.8 110.205 415.338C110.205 409.876 108.585 404.536 105.55 399.995C102.516 395.453 98.2027 391.913 93.1564 389.822C88.1102 387.732 82.5575 387.184 77.2006 388.249C71.8437 389.314 66.9231 391.944 63.0611 395.806C60.4963 398.37 58.4619 401.414 57.0739 404.764C55.6859 408.115 54.9715 411.706 54.9717 415.333C54.9718 418.959 55.6864 422.551 57.0747 425.901C58.4629 429.252 60.4976 432.296 63.0626 434.861Z" fill="#39175F"/>
<path d="M133.69 456.178C134.704 457.195 135.394 458.49 135.672 459.899C135.951 461.308 135.806 462.767 135.256 464.094C134.705 465.42 133.774 466.554 132.58 467.351C131.385 468.148 129.981 468.574 128.545 468.574C127.109 468.574 125.705 468.148 124.511 467.35C123.316 466.553 122.385 465.419 121.834 464.093C121.284 462.766 121.139 461.306 121.417 459.897C121.696 458.489 122.386 457.194 123.4 456.177C124.074 455.499 124.875 454.96 125.758 454.593C126.641 454.225 127.588 454.036 128.545 454.036C129.501 454.036 130.448 454.226 131.331 454.593C132.214 454.961 133.016 455.499 133.69 456.178ZM109.018 480.819C112.88 484.681 117.801 487.312 123.158 488.378C128.515 489.444 134.068 488.898 139.114 486.808C144.16 484.718 148.473 481.179 151.507 476.638C154.542 472.097 156.161 466.758 156.161 461.296C156.161 455.834 154.541 450.495 151.506 445.953C148.471 441.411 144.158 437.871 139.112 435.78C134.066 433.69 128.513 433.142 123.156 434.207C117.799 435.273 112.879 437.902 109.017 441.764C106.452 444.328 104.417 447.372 103.029 450.722C101.641 454.073 100.927 457.664 100.927 461.291C100.927 464.917 101.642 468.509 103.03 471.859C104.418 475.21 106.453 478.255 109.018 480.819L109.018 480.819Z" fill="#39175F"/>
<path d="M179.645 502.107C180.663 503.125 181.356 504.421 181.637 505.833C181.917 507.244 181.773 508.707 181.223 510.037C180.672 511.366 179.74 512.502 178.543 513.302C177.347 514.101 175.94 514.528 174.501 514.528C173.062 514.527 171.655 514.101 170.458 513.301C169.262 512.501 168.329 511.365 167.778 510.035C167.227 508.706 167.083 507.243 167.364 505.831C167.645 504.42 168.338 503.123 169.355 502.106C170.721 500.744 172.571 499.98 174.5 499.98C176.429 499.98 178.279 500.745 179.645 502.107ZM154.974 526.777C158.836 530.64 163.757 533.27 169.114 534.336C174.471 535.402 180.024 534.856 185.07 532.766C190.116 530.677 194.429 527.137 197.463 522.596C200.497 518.055 202.117 512.716 202.116 507.254C202.116 501.792 200.496 496.453 197.462 491.911C194.427 487.369 190.114 483.829 185.068 481.739C180.021 479.648 174.469 479.101 169.112 480.166C163.755 481.231 158.834 483.86 154.972 487.722C152.407 490.286 150.373 493.33 148.985 496.681C147.597 500.031 146.883 503.622 146.883 507.249C146.883 510.876 147.598 514.467 148.986 517.818C150.374 521.168 152.409 524.213 154.974 526.777Z" fill="#39175F"/>
<path d="M225.601 548.065C226.618 549.083 227.311 550.379 227.592 551.791C227.873 553.202 227.729 554.665 227.178 555.995C226.628 557.324 225.695 558.46 224.499 559.26C223.302 560.059 221.895 560.486 220.456 560.486C219.017 560.486 217.611 560.059 216.414 559.259C215.217 558.459 214.285 557.323 213.734 555.993C213.183 554.664 213.039 553.201 213.32 551.79C213.601 550.378 214.293 549.082 215.311 548.064C216.677 546.702 218.527 545.938 220.456 545.938C222.385 545.938 224.235 546.703 225.601 548.065ZM200.93 572.735C204.792 576.598 209.713 579.228 215.07 580.295C220.427 581.361 225.979 580.814 231.025 578.725C236.071 576.635 240.384 573.096 243.419 568.554C246.453 564.013 248.072 558.674 248.072 553.212C248.072 547.75 246.452 542.411 243.417 537.869C240.383 533.328 236.07 529.788 231.023 527.697C225.977 525.606 220.424 525.059 215.068 526.124C209.711 527.189 204.79 529.819 200.928 533.68C195.761 538.865 192.86 545.887 192.861 553.207C192.861 560.527 195.762 567.549 200.93 572.735Z" fill="#39175F"/>
<path d="M256.347 373.461C259.324 371.132 263.099 370.071 266.854 370.509C270.609 370.948 274.039 372.849 276.4 375.802L278.476 378.462L301.337 407.317C303.666 410.295 304.727 414.07 304.289 417.825C303.851 421.579 301.951 425.009 298.999 427.37C296.022 429.7 292.247 430.76 288.492 430.322C284.737 429.884 281.307 427.982 278.946 425.03L254.681 394.333L254.009 393.515C251.68 390.537 250.619 386.761 251.057 383.007C251.495 379.253 253.396 375.822 256.347 373.461Z" fill="#FF9EF6"/>
<path d="M68.791 401.536C66.0621 404.265 64.2038 407.742 63.4511 411.527C62.6983 415.312 63.0849 419.235 64.5619 422.801C66.039 426.367 68.5401 429.414 71.7491 431.559C74.9581 433.703 78.7308 434.848 82.5901 434.848C86.4494 434.849 90.222 433.705 93.4309 431.561C96.6397 429.417 99.1406 426.37 100.617 422.804C102.094 419.239 102.48 415.315 101.727 411.53C100.974 407.745 99.1157 404.268 96.3866 401.539C94.5757 399.725 92.4249 398.285 90.0573 397.303C87.6897 396.321 85.1517 395.815 82.5886 395.815C80.0254 395.815 77.4875 396.32 75.1199 397.302C72.7524 398.283 70.6017 399.722 68.791 401.536Z" fill="#FF9EF6"/>
<path d="M114.746 447.494C112.018 450.223 110.159 453.7 109.407 457.485C108.654 461.27 109.04 465.193 110.517 468.759C111.994 472.325 114.496 475.372 117.705 477.517C120.914 479.661 124.686 480.806 128.546 480.806C132.405 480.807 136.178 479.663 139.386 477.519C142.595 475.375 145.096 472.328 146.573 468.762C148.05 465.197 148.436 461.274 147.683 457.488C146.93 453.703 145.071 450.226 142.342 447.497C140.531 445.683 138.38 444.243 136.013 443.261C133.645 442.279 131.107 441.773 128.544 441.773C125.981 441.773 123.443 442.278 121.075 443.26C118.708 444.241 116.557 445.68 114.746 447.494Z" fill="#FF9EF6"/>
<path d="M160.702 493.452C157.973 496.181 156.115 499.658 155.362 503.443C154.609 507.228 154.996 511.151 156.473 514.717C157.95 518.283 160.451 521.331 163.66 523.475C166.869 525.619 170.642 526.764 174.501 526.765C178.361 526.765 182.133 525.621 185.342 523.477C188.551 521.333 191.052 518.286 192.529 514.721C194.005 511.155 194.392 507.232 193.639 503.447C192.886 499.661 191.027 496.184 188.298 493.455C186.487 491.641 184.336 490.201 181.969 489.219C179.601 488.237 177.063 487.732 174.5 487.731C171.937 487.731 169.399 488.236 167.031 489.218C164.664 490.2 162.513 491.639 160.702 493.452Z" fill="#FF9EF6"/>
<path d="M206.658 539.411C203.929 542.139 202.071 545.616 201.318 549.401C200.565 553.186 200.952 557.11 202.429 560.675C203.906 564.241 206.407 567.289 209.616 569.433C212.825 571.578 216.598 572.722 220.457 572.723C224.316 572.723 228.089 571.579 231.298 569.435C234.507 567.291 237.007 564.244 238.484 560.679C239.961 557.113 240.347 553.19 239.594 549.405C238.841 545.619 236.983 542.142 234.253 539.413C232.443 537.599 230.292 536.16 227.924 535.178C225.557 534.195 223.019 533.69 220.455 533.69C217.892 533.689 215.354 534.194 212.987 535.176C210.619 536.158 208.469 537.597 206.658 539.411Z" fill="#FF9EF6"/>
<path d="M220.531 236.936L42.7848 59.1895L-134.938 236.912L42.8086 414.659L220.531 236.936Z" fill="white"/>
<path d="M398.273 414.688L220.526 236.941L42.8036 414.664L220.55 592.411L398.273 414.688Z" fill="#08E6E7"/>
<path d="M42.7898 59.1888L220.532 236.941L-134.938 236.908L42.7898 59.1888Z" fill="#ED553B"/>
<path d="M131.667 325.801L42.7965 236.924L220.532 236.941L131.667 325.801Z" fill="#FEA59C"/>
<path d="M131.667 325.801L42.7965 236.924L42.8033 414.659L131.667 325.801Z" fill="#FF9A00"/>
<path d="M87.7339 410.22C88.748 411.237 89.438 412.532 89.7167 413.941C89.9954 415.349 89.8504 416.809 89.3 418.136C88.7495 419.462 87.8182 420.595 86.6239 421.393C85.4295 422.19 84.0256 422.616 82.5894 422.615C81.1533 422.615 79.7493 422.19 78.5549 421.392C77.3605 420.594 76.4292 419.461 75.8786 418.134C75.328 416.808 75.1829 415.348 75.4615 413.939C75.7401 412.53 76.43 411.236 77.444 410.219C78.118 409.54 78.9195 409.002 79.8025 408.634C80.6855 408.267 81.6325 408.078 82.5889 408.078C83.5453 408.078 84.4923 408.267 85.3753 408.635C86.2583 409.003 87.0599 409.541 87.7339 410.22ZM63.0626 434.861C66.9249 438.723 71.8457 441.354 77.2027 442.42C82.5597 443.486 88.1123 442.94 93.1584 440.85C98.2045 438.76 102.517 435.221 105.552 430.68C108.586 426.139 110.205 420.8 110.205 415.338C110.205 409.876 108.585 404.536 105.55 399.995C102.516 395.453 98.2027 391.913 93.1564 389.822C88.1102 387.732 82.5575 387.184 77.2006 388.249C71.8437 389.314 66.9231 391.944 63.0611 395.806C60.4963 398.37 58.4619 401.414 57.0739 404.764C55.6859 408.115 54.9715 411.706 54.9717 415.333C54.9718 418.959 55.6864 422.551 57.0747 425.901C58.4629 429.252 60.4976 432.296 63.0626 434.861Z" fill="#31313E"/>
<path d="M133.69 456.178C134.704 457.195 135.394 458.49 135.672 459.899C135.951 461.308 135.806 462.767 135.256 464.094C134.705 465.42 133.774 466.554 132.58 467.351C131.385 468.148 129.981 468.574 128.545 468.574C127.109 468.574 125.705 468.148 124.511 467.35C123.316 466.553 122.385 465.419 121.834 464.093C121.284 462.766 121.139 461.306 121.417 459.897C121.696 458.489 122.386 457.194 123.4 456.177C124.074 455.499 124.875 454.96 125.758 454.593C126.641 454.225 127.588 454.036 128.545 454.036C129.501 454.036 130.448 454.226 131.331 454.593C132.214 454.961 133.016 455.499 133.69 456.178ZM109.018 480.819C112.88 484.681 117.801 487.312 123.158 488.378C128.515 489.444 134.068 488.898 139.114 486.808C144.16 484.718 148.473 481.179 151.507 476.638C154.542 472.097 156.161 466.758 156.161 461.296C156.161 455.834 154.541 450.495 151.506 445.953C148.471 441.411 144.158 437.871 139.112 435.78C134.066 433.69 128.513 433.142 123.156 434.207C117.799 435.273 112.879 437.902 109.017 441.764C106.452 444.328 104.417 447.372 103.029 450.722C101.641 454.073 100.927 457.664 100.927 461.291C100.927 464.917 101.642 468.509 103.03 471.859C104.418 475.21 106.453 478.255 109.018 480.819L109.018 480.819Z" fill="#31313E"/>
<path d="M179.645 502.107C180.663 503.125 181.356 504.421 181.637 505.833C181.917 507.244 181.773 508.707 181.223 510.037C180.672 511.366 179.74 512.502 178.543 513.302C177.347 514.101 175.94 514.528 174.501 514.528C173.062 514.527 171.655 514.101 170.458 513.301C169.262 512.501 168.329 511.365 167.778 510.035C167.227 508.706 167.083 507.243 167.364 505.831C167.645 504.42 168.338 503.123 169.355 502.106C170.721 500.744 172.571 499.98 174.5 499.98C176.429 499.98 178.279 500.745 179.645 502.107ZM154.974 526.777C158.836 530.64 163.757 533.27 169.114 534.336C174.471 535.402 180.024 534.856 185.07 532.766C190.116 530.677 194.429 527.137 197.463 522.596C200.497 518.055 202.117 512.716 202.116 507.254C202.116 501.792 200.496 496.453 197.462 491.911C194.427 487.369 190.114 483.829 185.068 481.739C180.021 479.648 174.469 479.101 169.112 480.166C163.755 481.231 158.834 483.86 154.972 487.722C152.407 490.286 150.373 493.33 148.985 496.681C147.597 500.031 146.883 503.622 146.883 507.249C146.883 510.876 147.598 514.467 148.986 517.818C150.374 521.168 152.409 524.213 154.974 526.777Z" fill="#31313E"/>
<path d="M225.601 548.065C226.618 549.083 227.311 550.379 227.592 551.791C227.873 553.202 227.729 554.665 227.178 555.995C226.628 557.324 225.695 558.46 224.499 559.26C223.302 560.059 221.895 560.486 220.456 560.486C219.017 560.486 217.611 560.059 216.414 559.259C215.217 558.459 214.285 557.323 213.734 555.993C213.183 554.664 213.039 553.201 213.32 551.79C213.601 550.378 214.293 549.082 215.311 548.064C216.677 546.702 218.527 545.938 220.456 545.938C222.385 545.938 224.235 546.703 225.601 548.065ZM200.93 572.735C204.792 576.598 209.713 579.228 215.07 580.295C220.427 581.361 225.979 580.814 231.025 578.725C236.071 576.635 240.384 573.096 243.419 568.554C246.453 564.013 248.072 558.674 248.072 553.212C248.072 547.75 246.452 542.411 243.417 537.869C240.383 533.328 236.07 529.788 231.023 527.697C225.977 525.606 220.424 525.059 215.068 526.124C209.711 527.189 204.79 529.819 200.928 533.68C195.761 538.865 192.86 545.887 192.861 553.207C192.861 560.527 195.762 567.549 200.93 572.735Z" fill="#31313E"/>
<path d="M146.491 379.268C172.683 388.07 236.499 406.463 236.499 406.463L250.15 397.373L274.327 427.923C280.905 436.255 292.949 438.361 301.572 432.194C303.744 430.645 305.578 428.672 306.964 426.392C308.349 424.113 309.256 421.575 309.631 418.934C310.005 416.293 309.839 413.604 309.142 411.029C308.445 408.454 307.232 406.047 305.576 403.956L283.007 375.422L307.971 353.763C309.599 352.678 311.469 352.009 313.416 351.816C315.363 351.622 317.328 351.91 319.138 352.653C348.751 364.583 364.041 387.766 369.888 398.817C370.831 400.595 371.269 402.597 371.156 404.607C371.042 406.616 370.382 408.557 369.245 410.217C358.868 425.534 309.701 487.503 288.479 509.864C276.582 522.404 267.9 528.483 261.966 531.377C259.501 532.574 256.746 533.045 254.023 532.734C251.3 532.423 248.721 531.343 246.589 529.621C234.516 519.915 114.394 400.956 114.365 400.78C112.523 391.279 117.141 385.433 122.841 381.838C126.348 379.688 130.288 378.342 134.377 377.897C138.466 377.453 142.604 377.921 146.491 379.268L146.491 379.268Z" fill="white"/>
<path d="M147.367 375.614C170.695 383.451 224.25 398.978 235.213 402.166L250.53 391.936L277.279 425.702C279.796 428.909 283.428 431.049 287.453 431.696C291.313 432.327 295.265 431.403 298.444 429.124C298.662 428.998 298.868 428.851 299.058 428.686C302.122 426.249 304.138 422.733 304.692 418.858C305.246 414.982 304.297 411.042 302.039 407.843C301.922 407.697 301.776 407.492 301.571 407.229L276.371 375.393L304.551 350.957L304.989 350.606C307.207 349.12 309.757 348.207 312.414 347.946C315.077 347.687 317.763 348.068 320.248 349.058C331.43 353.585 341.716 360.07 350.622 368.208C359.755 376.562 367.415 386.396 373.278 397.297C374.586 399.791 375.192 402.592 375.032 405.403C374.873 408.214 373.954 410.928 372.373 413.258C366.585 421.764 348.988 444.505 330.806 466.954C316.015 485.194 300.786 503.288 291.139 513.46C286.19 518.765 280.866 523.708 275.208 528.25C271.544 531.192 267.586 533.748 263.398 535.879C260.175 537.446 256.572 538.064 253.011 537.66C249.449 537.256 246.076 535.846 243.286 533.597C239.047 530.205 221.858 513.716 201.219 493.573C161.811 455.187 109.512 402.388 109.483 402.154C108.365 397.226 109.017 392.062 111.324 387.567C113.354 383.881 116.33 380.803 119.947 378.652C123.959 376.121 128.5 374.551 133.219 374.063C137.991 373.542 142.82 374.072 147.367 375.614L147.367 375.614ZM234.716 411.257C234.541 411.199 170.9 392.864 144.532 384.004C141.197 382.872 137.655 382.483 134.154 382.863C130.785 383.201 127.542 384.321 124.683 386.136C122.383 387.466 120.477 389.382 119.158 391.689C117.811 394.406 117.459 397.51 118.165 400.459C118.165 400.488 168.856 449.721 207.386 487.259C227.821 507.14 244.747 523.424 248.84 526.728C250.333 527.907 252.124 528.646 254.014 528.862C255.889 529.092 257.789 528.767 259.481 527.927C263.118 526.087 266.548 523.863 269.712 521.292C275.056 517.021 280.078 512.36 284.737 507.35C294.149 497.441 309.204 479.493 323.936 461.37C341.972 439.097 359.394 416.618 365.064 408.258C365.748 407.265 366.142 406.101 366.204 404.897C366.286 403.698 366.022 402.501 365.444 401.447C360.08 391.427 353.051 382.391 344.659 374.727C336.526 367.315 327.143 361.405 316.946 357.272C315.798 356.804 314.552 356.633 313.321 356.775C312.177 356.867 311.072 357.238 310.105 357.856L288.591 376.534L308.528 401.734C308.778 402.033 309.013 402.346 309.23 402.67L309.23 402.699C312.83 407.733 314.356 413.959 313.491 420.087C312.626 426.215 309.436 431.775 304.583 435.614C304.291 435.848 303.969 436.082 303.618 436.345C298.531 439.947 292.232 441.406 286.079 440.407C279.863 439.426 274.241 436.15 270.322 431.226L248.66 403.862L236.704 411.813L234.716 411.257Z" fill="#31313E"/>
<path d="M255.645 374.192C258.617 371.85 262.396 370.781 266.155 371.22C269.914 371.659 273.346 373.569 275.699 376.532L277.775 379.164L300.606 408.018C302.95 410.99 304.019 414.77 303.581 418.529C303.143 422.288 301.233 425.719 298.269 428.072C295.297 430.401 291.526 431.462 287.775 431.024C284.025 430.585 280.599 428.683 278.244 425.731L253.95 395.035L253.307 394.216C250.964 391.25 249.894 387.474 250.333 383.72C250.771 379.965 252.682 376.538 255.645 374.192L255.645 374.192Z" fill="#FEA49C"/>
<path d="M68.791 401.536C66.0621 404.265 64.2038 407.742 63.4511 411.527C62.6983 415.312 63.0849 419.235 64.5619 422.801C66.039 426.367 68.5401 429.414 71.7491 431.559C74.9581 433.703 78.7308 434.848 82.5901 434.848C86.4494 434.849 90.222 433.705 93.4309 431.561C96.6397 429.417 99.1406 426.37 100.617 422.804C102.094 419.239 102.48 415.315 101.727 411.53C100.974 407.745 99.1157 404.268 96.3866 401.539C94.5757 399.725 92.4249 398.285 90.0573 397.303C87.6897 396.321 85.1517 395.815 82.5886 395.815C80.0254 395.815 77.4875 396.32 75.1199 397.302C72.7524 398.283 70.6017 399.722 68.791 401.536Z" fill="#FEA49C"/>
<path d="M114.746 447.494C112.018 450.223 110.159 453.7 109.407 457.485C108.654 461.27 109.04 465.193 110.517 468.759C111.994 472.325 114.496 475.372 117.705 477.517C120.914 479.661 124.686 480.806 128.546 480.806C132.405 480.807 136.178 479.663 139.386 477.519C142.595 475.375 145.096 472.328 146.573 468.762C148.05 465.197 148.436 461.274 147.683 457.488C146.93 453.703 145.071 450.226 142.342 447.497C140.531 445.683 138.38 444.243 136.013 443.261C133.645 442.279 131.107 441.773 128.544 441.773C125.981 441.773 123.443 442.278 121.075 443.26C118.708 444.241 116.557 445.68 114.746 447.494Z" fill="#FEA49C"/>
<path d="M160.702 493.452C157.973 496.181 156.115 499.658 155.362 503.443C154.609 507.228 154.996 511.151 156.473 514.717C157.95 518.283 160.451 521.331 163.66 523.475C166.869 525.619 170.642 526.764 174.501 526.765C178.361 526.765 182.133 525.621 185.342 523.477C188.551 521.333 191.052 518.286 192.529 514.721C194.005 511.155 194.392 507.232 193.639 503.447C192.886 499.661 191.027 496.184 188.298 493.455C186.487 491.641 184.336 490.201 181.969 489.219C179.601 488.237 177.063 487.732 174.5 487.731C171.937 487.731 169.399 488.236 167.031 489.218C164.664 490.2 162.513 491.639 160.702 493.452Z" fill="#FEA49C"/>
<path d="M206.658 539.411C203.929 542.139 202.071 545.616 201.318 549.401C200.565 553.186 200.952 557.11 202.429 560.675C203.906 564.241 206.407 567.289 209.616 569.433C212.825 571.578 216.598 572.722 220.457 572.723C224.316 572.723 228.089 571.579 231.298 569.435C234.507 567.291 237.007 564.244 238.484 560.679C239.961 557.113 240.347 553.19 239.594 549.405C238.841 545.619 236.983 542.142 234.253 539.413C232.443 537.599 230.292 536.16 227.924 535.178C225.557 534.195 223.019 533.69 220.455 533.69C217.892 533.689 215.354 534.194 212.987 535.176C210.619 536.158 208.469 537.597 206.658 539.411Z" fill="#FEA49C"/>
<path d="M220.545 592.406L42.7986 414.659L-134.924 592.382L42.8224 770.129L220.545 592.406Z" fill="white"/>
<path fill-rule="evenodd" clip-rule="evenodd" d="M175.587 637.454C165.349 647.671 151.885 654.022 137.489 655.425C123.092 656.829 108.654 653.197 96.633 645.149C84.6125 637.101 75.7534 625.135 71.5649 611.289C67.3764 597.444 68.1176 582.575 73.6623 569.215C79.2071 555.856 89.2122 544.833 101.973 538.024C114.735 531.215 129.462 529.041 143.648 531.873C157.833 534.705 170.599 542.367 179.77 553.554C188.941 564.741 193.95 578.762 193.943 593.227C193.945 601.444 192.325 609.581 189.175 617.171C186.025 624.761 181.407 631.653 175.587 637.454Z" fill="#08E6E7"/>
<path fill-rule="evenodd" clip-rule="evenodd" d="M87.9733 549.835C79.2209 558.578 68.0723 564.529 55.9372 566.936C43.8021 569.342 31.2253 568.097 19.7971 563.356C8.36885 558.616 -1.3976 550.594 -8.26752 540.304C-15.1374 530.014 -18.8023 517.918 -18.7987 505.546C-18.7951 493.174 -15.1232 481.082 -8.2473 470.798C-1.3714 460.514 8.39978 452.499 19.8308 447.769C31.2617 443.038 43.8392 441.803 55.9729 444.22C68.1067 446.637 79.2518 452.598 87.9991 461.348C93.8083 467.16 98.4158 474.06 101.558 481.652C104.701 489.245 106.317 497.382 106.315 505.599C106.313 513.816 104.692 521.952 101.545 529.542C98.3974 537.132 93.7859 544.028 87.9733 549.835L87.9733 549.835Z" fill="#ED553B"/>
<path fill-rule="evenodd" clip-rule="evenodd" d="M174.827 636.694C164.592 646.926 151.126 653.293 136.722 654.709C122.318 656.126 107.868 652.504 95.8333 644.462C83.7989 636.419 74.9245 624.454 70.7222 610.603C66.5199 596.752 67.2496 581.874 72.787 568.502C78.3244 555.131 88.3269 544.093 101.09 537.27C113.854 530.447 128.589 528.261 142.785 531.084C156.981 533.907 169.759 541.564 178.944 552.751C188.128 563.939 193.15 577.964 193.154 592.437C193.147 609.035 186.556 624.952 174.827 636.694Z" fill="#08E6E7"/>
<path d="M131.303 681.646L-46.4441 503.899L-134.926 592.381L42.8212 770.127L131.303 681.646Z" fill="#FEA49C"/>
<path fill-rule="evenodd" clip-rule="evenodd" d="M86.3362 548.169C77.5858 556.92 66.4366 562.879 54.2986 565.292C42.1607 567.706 29.5791 566.466 18.1449 561.729C6.71077 556.992 -3.06235 548.971 -9.93856 538.68C-16.8148 528.39 -20.4852 516.291 -20.4857 503.915C-20.4862 491.539 -16.8167 479.442 -9.94128 469.152C-3.06587 458.863 6.70664 450.843 18.1404 446.109C29.5742 441.374 42.1557 440.136 54.2939 442.552C66.432 444.968 77.5816 450.929 86.3327 459.682C98.0623 471.419 104.652 487.334 104.652 503.927C104.653 520.52 98.0649 536.433 86.3362 548.169Z" fill="#ED553B"/>
<path d="M-117.356 571.097C-122.94 576.68 -131.446 577.995 -140.742 575.655L-138.843 568.347C-132.148 570.043 -126.243 569.313 -122.706 565.776L-117.356 571.097ZM-140.742 575.655C-149.337 573.491 -158.721 568.082 -166.848 559.926L-161.498 554.606C-154.365 561.739 -146.238 566.476 -138.843 568.347L-140.742 575.655ZM-166.848 559.955L-161.498 554.606L-166.848 559.955ZM-166.848 559.955L-161.498 554.606L-166.848 559.955ZM-166.848 559.955C-174.975 551.827 -180.383 542.443 -182.547 533.849L-175.239 531.949C-173.397 539.316 -168.661 547.443 -161.498 554.606L-166.848 559.955ZM-182.547 533.849C-184.886 524.552 -183.571 516.017 -178.017 510.463L-172.667 515.784C-176.204 519.35 -176.934 525.255 -175.239 531.949L-182.547 533.849ZM-178.017 510.463L-79.0678 411.52L-73.7179 416.87L-172.667 515.784L-178.017 510.463ZM-79.0678 411.52C-73.4846 405.966 -64.9778 404.622 -55.6817 406.991L-57.5816 414.27C-64.2759 412.603 -70.1809 413.304 -73.7179 416.87L-79.0678 411.52ZM-55.6817 406.991C-47.0872 409.155 -37.7034 414.564 -29.5763 422.691L-34.9257 428.04C-42.088 420.878 -50.2149 416.141 -57.5816 414.27L-55.6817 406.991ZM-29.5763 422.691C-21.4494 430.819 -16.0409 440.203 -13.8774 448.798L-21.1855 450.697C-23.0566 443.301 -27.7634 435.174 -34.9257 428.011L-29.5763 422.691ZM-13.8774 448.798C-11.5384 458.065 -12.8535 466.6 -18.4075 472.154L-23.7572 466.833C-20.2202 463.296 -19.4897 457.391 -21.1855 450.697L-13.8774 448.798ZM-18.4075 472.154L-117.356 571.097L-122.706 565.776L-23.7572 466.833L-18.4075 472.154Z" fill="#39175F"/>
<path d="M-76.2905 414.297C-67.1702 405.207 -47.4089 410.207 -32.1488 425.468C-16.8595 440.758 -11.8599 460.52 -20.9801 469.61C-30.0712 478.73 -49.8326 473.73 -65.1219 458.439C-80.382 443.179 -85.3816 423.417 -76.2905 414.297Z" fill="#FF9EF6" stroke="#39175F" stroke-width="6.51968" stroke-miterlimit="10"/>
<path d="M-157.005 331.444C-166.185 322.293 -161.304 302.562 -146.132 287.362C-130.932 272.192 -111.2 267.312 -102.05 276.492L-2.50857 376.038C6.6707 385.189 1.7897 404.921 -13.3815 420.12C-28.582 435.291 -48.3138 440.171 -57.464 430.991L-157.005 331.444Z" fill="#F5FFFF"/>
<path d="M-159.694 334.133C-165.278 328.549 -166.623 320.042 -164.343 310.776L-157.035 312.56C-158.701 319.254 -157.941 325.188 -154.345 328.784L-159.694 334.133ZM-164.343 310.776C-162.21 302.152 -156.86 292.769 -148.793 284.702L-143.472 290.022C-150.575 297.155 -155.252 305.222 -157.035 312.56L-164.343 310.776ZM-148.793 284.702C-140.725 276.634 -131.341 271.285 -122.718 269.152L-120.934 276.461C-128.271 278.243 -136.339 282.92 -143.472 290.022L-148.793 284.702ZM-122.718 269.152C-113.451 266.873 -104.944 268.218 -99.3605 273.802L-104.71 279.152C-108.306 275.556 -114.24 274.795 -120.934 276.461L-122.718 269.152ZM-99.3605 273.802L0.180689 373.349L-5.16866 378.698L-104.71 279.152L-99.3605 273.802ZM0.180689 373.349C5.76437 378.933 7.10944 387.44 4.82961 396.707L-2.44937 394.923C-0.812598 388.229 -1.57294 382.294 -5.16866 378.698L0.180689 373.349ZM4.82961 396.706C2.69605 405.33 -2.65328 414.713 -10.7212 422.781L-16.0418 417.46C-8.9385 410.328 -4.2616 402.26 -2.44937 394.923L4.82961 396.706ZM-10.7212 422.781C-18.7891 430.848 -28.1725 436.197 -36.7961 438.33L-38.5796 431.051C-31.2423 429.239 -23.1743 424.563 -16.0418 417.46L-10.7212 422.781ZM-36.7961 438.33C-46.0628 440.609 -54.5696 439.264 -60.1532 433.68L-54.8039 428.331C-51.2081 431.927 -45.2738 432.687 -38.5796 431.051L-36.7961 438.33ZM-60.1532 433.68L-159.694 334.133L-154.345 328.784L-54.8039 428.331L-60.1532 433.68Z" fill="#39175F"/>
<path d="M-2.59646 376.155C6.55385 385.306 1.67275 405.038 -13.4984 420.237C-28.6696 435.408 -48.4307 440.288 -57.5809 431.108C-66.7311 421.957 -61.8793 402.225 -46.6789 387.055C-31.5077 371.855 -11.7757 366.975 -2.59648 376.155L-2.59646 376.155Z" fill="#08E6E7" stroke="#39175F" stroke-width="6.51968" stroke-miterlimit="10"/>
<path d="M42.8036 414.654L-134.943 236.907L-312.666 414.63L-134.919 592.377L42.8036 414.654Z" fill="#31313E"/>
<path d="M-117.356 571.097C-122.94 576.68 -131.446 577.995 -140.742 575.655L-138.843 568.347C-132.148 570.043 -126.243 569.313 -122.706 565.776L-117.356 571.097ZM-140.742 575.655C-149.337 573.491 -158.721 568.082 -166.848 559.926L-161.498 554.606C-154.365 561.739 -146.238 566.476 -138.843 568.347L-140.742 575.655ZM-166.848 559.955L-161.498 554.606L-166.848 559.955ZM-166.848 559.955L-161.498 554.606L-166.848 559.955ZM-166.848 559.955C-174.975 551.827 -180.383 542.443 -182.547 533.849L-175.239 531.949C-173.397 539.316 -168.661 547.443 -161.498 554.606L-166.848 559.955ZM-182.547 533.849C-184.886 524.552 -183.571 516.017 -178.017 510.463L-172.667 515.784C-176.204 519.35 -176.934 525.255 -175.239 531.949L-182.547 533.849ZM-178.017 510.463L-79.0678 411.52L-73.7179 416.87L-172.667 515.784L-178.017 510.463ZM-79.0678 411.52C-73.4846 405.966 -64.9778 404.622 -55.6817 406.991L-57.5816 414.27C-64.2759 412.603 -70.1809 413.304 -73.7179 416.87L-79.0678 411.52ZM-55.6817 406.991C-47.0872 409.155 -37.7034 414.564 -29.5763 422.691L-34.9257 428.04C-42.088 420.878 -50.2149 416.141 -57.5816 414.27L-55.6817 406.991ZM-29.5763 422.691C-21.4494 430.819 -16.0409 440.203 -13.8774 448.798L-21.1855 450.697C-23.0566 443.301 -27.7634 435.174 -34.9257 428.011L-29.5763 422.691ZM-13.8774 448.798C-11.5384 458.065 -12.8535 466.6 -18.4075 472.154L-23.7572 466.833C-20.2202 463.296 -19.4897 457.391 -21.1855 450.697L-13.8774 448.798ZM-18.4075 472.154L-117.356 571.097L-122.706 565.776L-23.7572 466.833L-18.4075 472.154Z" fill="#31313E"/>
<path d="M-76.2905 414.297C-67.1702 405.206 -47.4088 410.207 -32.1195 425.468C-16.8594 440.758 -11.8598 460.52 -20.9801 469.61C-30.0711 478.73 -49.8325 473.73 -65.1218 458.439C-80.3819 443.179 -85.3815 423.417 -76.2905 414.297Z" fill="#FEA49C" stroke="#31313E" stroke-width="11.3953" stroke-miterlimit="10"/>
<path d="M-157.005 331.444C-166.185 322.293 -161.304 302.562 -146.132 287.362C-130.932 272.192 -111.2 267.312 -102.05 276.492L-2.50857 376.038C6.6707 385.189 1.7897 404.921 -13.3815 420.12C-28.582 435.291 -48.3138 440.171 -57.464 430.991L-157.005 331.444Z" fill="#F5FFFF"/>
<path d="M-159.694 334.133C-165.278 328.549 -166.623 320.042 -164.343 310.776L-157.035 312.56C-158.701 319.254 -157.941 325.188 -154.345 328.784L-159.694 334.133ZM-164.343 310.776C-162.21 302.152 -156.86 292.769 -148.793 284.702L-143.472 290.022C-150.575 297.155 -155.252 305.222 -157.035 312.56L-164.343 310.776ZM-148.793 284.702C-140.725 276.634 -131.341 271.285 -122.718 269.152L-120.934 276.461C-128.271 278.243 -136.339 282.92 -143.472 290.022L-148.793 284.702ZM-122.718 269.152C-113.451 266.873 -104.944 268.218 -99.3605 273.802L-104.71 279.152C-108.306 275.556 -114.24 274.795 -120.934 276.461L-122.718 269.152ZM-99.3605 273.802L0.180689 373.349L-5.16866 378.698L-104.71 279.152L-99.3605 273.802ZM0.180689 373.349C5.76437 378.933 7.10944 387.44 4.82961 396.707L-2.44937 394.923C-0.812598 388.229 -1.57294 382.294 -5.16866 378.698L0.180689 373.349ZM4.82961 396.706C2.69605 405.33 -2.65328 414.713 -10.7212 422.781L-16.0418 417.46C-8.9385 410.328 -4.2616 402.26 -2.44937 394.923L4.82961 396.706ZM-10.7212 422.781C-18.7891 430.848 -28.1725 436.197 -36.7961 438.33L-38.5796 431.051C-31.2423 429.239 -23.1743 424.563 -16.0418 417.46L-10.7212 422.781ZM-36.7961 438.33C-46.0628 440.609 -54.5696 439.264 -60.1532 433.68L-54.8039 428.331C-51.2081 431.927 -45.2738 432.687 -38.5796 431.051L-36.7961 438.33ZM-60.1532 433.68L-159.694 334.133L-154.345 328.784L-54.8039 428.331L-60.1532 433.68Z" fill="#31313E"/>
<path d="M-2.59646 376.155C6.55385 385.306 1.67275 405.038 -13.4984 420.237C-28.6696 435.408 -48.4307 440.288 -57.5809 431.108C-66.7311 421.957 -61.8793 402.225 -46.6789 387.055C-31.5077 371.855 -11.7757 366.975 -2.59648 376.155L-2.59646 376.155Z" fill="#08E6E7" stroke="#31313E" stroke-width="11.3953" stroke-miterlimit="10"/>
<path d="M-61.8313 132.7C-14.4762 85.3472 -9.18795 13.8446 -49.9983 -26.9681C-27.254 -4.22252 -14.4756 26.6254 -14.4744 58.7894C-14.4731 90.9535 -27.249 121.799 -49.9915 144.54C-72.7341 167.281 -103.58 180.056 -135.744 180.053C-167.908 180.05 -198.756 167.269 -221.5 144.524C-180.689 185.337 -109.186 180.052 -61.8313 132.7L-61.8313 132.7Z" fill="#ED553B"/>
<path d="M-52.3074 -23.0512C-68.6529 -39.3976 -89.4779 -50.5305 -112.149 -55.0422C-134.82 -59.5539 -158.319 -57.2416 -179.674 -48.3979C-201.029 -39.5542 -219.282 -24.5762 -232.123 -5.35791C-244.964 13.8604 -251.818 36.4557 -251.817 59.5707C-251.816 82.6858 -244.961 105.282 -232.118 124.503C-219.275 143.724 -201.022 158.705 -179.666 167.553C-158.31 176.401 -134.811 178.717 -112.14 174.21C-89.4693 169.703 -68.6451 158.574 -52.301 142.23C-30.4141 120.299 -18.1227 90.5793 -18.1239 59.5929C-18.1251 28.6065 -30.4188 -1.11553 -52.3074 -23.0512ZM-223.809 148.441C-241.387 130.864 -253.358 108.469 -258.209 84.0898C-263.06 59.7103 -260.572 34.4409 -251.06 11.4773C-241.549 -11.4863 -225.441 -31.1126 -204.773 -44.9194C-184.105 -58.7263 -159.807 -66.0936 -134.95 -66.0895C-118.446 -66.0891 -102.103 -62.8378 -86.8546 -56.5213C-71.6063 -50.2048 -57.751 -40.9468 -46.0799 -29.2759C-34.4089 -17.605 -25.1507 -3.74983 -18.834 11.4985C-12.5173 26.7468 -9.2658 43.0896 -9.26516 59.5937C-9.26451 76.0978 -12.5147 92.44 -18.8303 107.687C-25.1458 122.934 -34.4029 136.788 -46.073 148.456C-57.7431 160.125 -71.5977 169.38 -86.8456 175.694C-102.093 182.008 -118.436 185.256 -134.94 185.253C-151.451 185.297 -167.806 182.066 -183.06 175.747C-198.314 169.428 -212.165 160.147 -223.809 148.441L-223.809 148.441Z" fill="#31313E"/>
<path d="M42.8176 770.124L-134.929 592.377L-312.652 770.1L-134.905 947.847L42.8176 770.124Z" fill="#39175F"/>
<path d="M-214.895 858.153C-212.761 856.048 -208.025 851.284 -208.025 851.284L-200.892 854.208L-173.706 841.26L-163.417 842.051L-102.731 788.765L-99.9256 773.623L-90.3373 774.793L-84.9296 769.123L-70.7531 734.717L-54.002 751.469L-44.9695 742.466L-54.7043 732.731L-45.8471 723.874L-36.1123 733.58L-28.3367 725.834L-19.4788 734.693L-27.2252 742.468L-17.5195 752.174L-26.3768 761.06L-36.1116 751.325L-45.1442 760.357L-28.8609 776.641L-62.4779 791.546L-67.9734 796.866L-67.6516 805.928L-82.8524 808.996L-135.937 869.971L-135.498 879.881L-146.283 907.768L-145.202 914.637L-151.808 921.214C-151.808 921.214 -165.811 907.239 -214.895 858.153Z" fill="#FF9EF6"/>
<path fill-rule="evenodd" clip-rule="evenodd" d="M-219.397 853.622L-212.557 846.782L-209.546 843.771L-205.599 845.379L-201.126 847.192L-176.484 835.501L-174.934 834.741L-173.21 834.888L-165.638 835.473L-108.637 785.403L-106.24 772.453L-105.129 766.548L-99.166 767.28L-92.7347 768.04L-90.3962 765.585L-76.6873 732.29L-73.0043 723.375L-66.2222 730.186L-63.708 732.701L-59.2356 728.199L-50.3492 719.343L-45.8183 714.812L-41.2871 719.314L-36.1127 724.518L-32.8971 721.303L-28.3663 716.772L-23.835 721.304L-14.948 730.191L-10.446 734.694L-14.9476 739.224L-18.1924 742.44L-12.9595 747.643L-8.45738 752.175L-12.9884 756.706L-21.8455 765.562L-26.3472 770.064L-24.3008 772.081L-17.7231 778.688L-26.259 782.488L-58.8529 796.955L-61.4545 799.469L-61.2496 805.695L-61.0448 811.132L-66.3651 812.184L-79.4319 814.843L-129.418 872.281L-129.096 879.618L-129.037 880.992L-129.505 882.22L-139.677 908.499L-138.887 913.644L-138.39 916.889L-140.67 919.169L-147.277 925.775L-151.808 930.305L-156.339 925.774L-219.426 862.684L-223.957 858.181L-219.397 853.622ZM-214.895 858.153C-212.761 856.049 -208.025 851.284 -208.025 851.284L-200.892 854.208L-173.706 841.261L-163.417 842.051L-102.732 788.765L-99.9257 773.623L-90.3374 774.793L-84.9296 769.123L-70.7531 734.717L-54.0021 751.469L-44.9695 742.466L-54.7044 732.731L-45.8472 723.874L-36.1124 733.58L-28.3368 725.834L-19.4789 734.693L-27.2252 742.468L-17.5195 752.174L-26.3768 761.06L-36.1117 751.325L-45.1442 760.357L-28.861 776.641L-62.478 791.546L-67.9735 796.866L-67.6517 805.928L-82.8524 808.996L-135.937 869.971L-135.498 879.881L-146.284 907.768L-145.202 914.637L-151.808 921.214C-151.808 921.214 -165.811 907.239 -214.895 858.153Z" fill="#173F5F"/>
<path d="M42.8176 770.124L-134.929 592.377L-312.652 770.1L-134.905 947.847L42.8176 770.124Z" fill="#31313E"/>
<path d="M-214.895 858.153C-212.761 856.048 -208.025 851.284 -208.025 851.284L-200.892 854.208L-173.706 841.26L-163.417 842.051L-102.731 788.765L-99.9256 773.623L-90.3373 774.793L-84.9296 769.123L-70.7531 734.717L-54.002 751.469L-44.9695 742.466L-54.7043 732.731L-45.8471 723.874L-36.1123 733.58L-28.3367 725.834L-19.4788 734.693L-27.2252 742.468L-17.5195 752.174L-26.3768 761.06L-36.1116 751.325L-45.1442 760.357L-28.8609 776.641L-62.4779 791.546L-67.9734 796.866L-67.6516 805.928L-82.8524 808.996L-135.937 869.971L-135.498 879.881L-146.283 907.768L-145.202 914.637L-151.808 921.214C-151.808 921.214 -165.811 907.239 -214.895 858.153Z" fill="#FEA49C"/>
<path fill-rule="evenodd" clip-rule="evenodd" d="M-219.543 853.505L-212.673 846.636L-209.575 843.537L-205.541 845.204L-201.126 846.988L-176.571 835.326L-174.964 834.566L-173.21 834.683L-165.697 835.269L-108.812 785.315L-106.415 772.424L-105.305 766.344L-99.1366 767.075L-92.8223 767.836L-90.5715 765.468L-76.8627 732.202L-73.092 723.053L-66.0758 730.04L-63.7079 732.408L-59.3525 728.082L-50.4953 719.196L-45.8182 714.52L-41.1701 719.197L-36.1126 724.226L-33.0141 721.157L-28.3662 716.509L-23.6889 721.187L-14.831 730.045L-10.1536 734.693L-14.8306 739.37L-17.9 742.439L-12.8424 747.497L-8.16506 752.175L-12.8421 756.852L-21.7286 765.708L-26.0549 770.064L-24.1839 771.964L-17.3724 778.747L-26.1712 782.663L-58.7359 797.101L-61.2498 799.556L-61.045 805.695L-60.84 811.278L-66.3357 812.389L-79.3443 815.019L-129.242 872.339L-128.891 879.589L-128.833 881.051L-129.33 882.278L-139.472 908.528L-138.683 913.615L-138.186 916.947L-140.524 919.315L-147.131 925.892L-151.808 930.568L-156.485 925.891L-219.572 862.83L-224.22 858.181L-219.543 853.505ZM-214.895 858.153C-212.761 856.049 -208.025 851.284 -208.025 851.284L-200.892 854.208L-173.706 841.261L-163.416 842.051L-102.731 788.765L-99.9256 773.623L-90.3373 774.793L-84.9295 769.123L-70.753 734.717L-54.002 751.469L-44.9694 742.466L-54.7043 732.731L-45.8471 723.874L-36.1123 733.58L-28.3367 725.834L-19.4788 734.693L-27.2251 742.468L-17.5194 752.174L-26.3767 761.06L-36.1116 751.325L-45.1441 760.357L-28.8608 776.641L-62.4779 791.546L-67.9734 796.866L-67.6515 805.928L-82.8523 808.996L-135.937 869.971L-135.498 879.881L-146.283 907.768L-145.202 914.637L-151.808 921.214C-151.808 921.214 -165.811 907.239 -214.895 858.153Z" fill="#31313E"/>
<path d="M131.301 681.65C107.828 658.176 75.9925 644.987 42.798 644.983C9.60347 644.98 -22.231 658.164 -45.7026 681.633L42.8175 770.129L131.301 681.65Z" fill="#31313E"/>
<path opacity="0.6" d="M398.79 414.124L-134.302 -118.967L-845.967 592.699L-312.876 1125.79L398.79 414.124Z" fill="white"/>
</g>
</g>
<defs>
<clipPath id="clip0_1_415">
<rect width="1440" height="812" fill="white"/>
</clipPath>
<clipPath id="clip1_1_415">
<rect width="754.042" height="1006.45" fill="white" transform="translate(-134.334 -119) rotate(45)"/>
</clipPath>
</defs>
</svg>
