<svg id="Слой_1" data-name="Слой 1" xmlns="http://www.w3.org/2000/svg" viewBox="0 0 1438.45 96">
  <defs>
    <style>
      .cls-1, .cls-19 {
        fill: #fff;
      }

      .cls-10, .cls-2 {
        fill: #ed553b;
      }

      .cls-24, .cls-3 {
        fill: #ff9ef6;
      }

      .cls-4 {
        fill: #f95;
      }

      .cls-21, .cls-5 {
        fill: #08e6e7;
      }

      .cls-22, .cls-6 {
        fill: #fea59c;
      }

      .cls-20, .cls-7 {
        fill: #ff9a00;
      }

      .cls-8 {
        fill: #fcf9d3;
      }

      .cls-23, .cls-9 {
        fill: #f5ffff;
      }

      .cls-10, .cls-15, .cls-16, .cls-19, .cls-20, .cls-21, .cls-22, .cls-23, .cls-24, .cls-25, .cls-27 {
        fill-rule: evenodd;
      }

      .cls-11, .cls-16 {
        fill: #31313e;
      }

      .cls-12 {
        fill: #39175f;
      }

      .cls-13, .cls-25 {
        fill: #fea49c;
      }

      .cls-14 {
        fill: #fe9900;
      }

      .cls-15 {
        fill: #173f5f;
      }

      .cls-17 {
        fill: #fffef8;
      }

      .cls-18 {
        fill: #563f42;
      }

      .cls-26, .cls-27 {
        fill: #32323e;
      }
    </style>
  </defs>
  <g>
    <rect class="cls-1" x="685.08832" y="14.05082" width="67.84336" height="67.84336" transform="translate(176.72093 522.52419) rotate(-45.00597)"/>
    <polygon class="cls-2" points="671.04 47.97 719.01 0 719.01 95.95 671.04 47.97"/>
    <polygon class="cls-3" points="742.99 23.99 719.01 47.97 719.01 0 742.99 23.99"/>
    <polygon class="cls-4" points="742.99 23.99 719.01 47.97 766.98 47.97 742.99 23.99"/>
    <rect class="cls-5" x="685.08832" y="14.05082" width="67.84336" height="67.84336" transform="translate(176.72093 522.52419) rotate(-45.00597)"/>
    <polygon class="cls-2" points="671.04 47.97 719.01 0 719.01 95.95 671.04 47.97"/>
    <polygon class="cls-6" points="742.99 23.99 719.01 47.97 719.01 0 742.99 23.99"/>
    <polygon class="cls-7" points="742.99 23.99 719.01 47.97 766.98 47.97 742.99 23.99"/>
    <rect class="cls-5" x="397.27186" y="14.05436" width="67.83629" height="67.83629" transform="translate(92.37095 318.94819) rotate(-45)"/>
    <path class="cls-8" d="M451.03,28.14C438.25,15.36,419,13.87,408.05,24.83a32.732,32.732,0,0,1,46.29,46.29c10.95-10.96,9.47-30.2-3.31-42.98Z"/>
    <path class="cls-7" d="M411.36,67.81c12.78,12.78,32.02,14.26,42.98,3.31,10.95-10.96,9.47-30.2-3.31-42.98S419,13.87,408.05,24.83c-10.96,10.95-9.47,30.2,3.31,42.98Z"/>
    <path class="cls-9" d="M408.89,25.67a31.544,31.544,0,1,1,.01,44.6,31.56589,31.56589,0,0,1-.01-44.6Zm46.29,46.29a33.90763,33.90763,0,1,0-23.98,9.93,33.71549,33.71549,0,0,0,23.98-9.93Z"/>
    <path class="cls-9" d="M463.87,56.2l-1.56-1.79c-4.05,3.53-8.37,5.05-12.84,4.52-8.49-1-15.28-9.04-16.93-11.14,3.93-10.36,1.93-18.65-.48-23.81a28.328,28.328,0,0,0-6.47-9.01l-1.55,1.8a26.50756,26.50756,0,0,1,5.91,8.3c3.24,7.03,3.29,14.58.14,22.46a1.1972,1.1972,0,0,0,.13,1.13c.33.46,8.18,11.35,18.96,12.63,5.17.61,10.12-1.1,14.69-5.09Z"/>
    <path class="cls-9" d="M431.07,48.78l-.49-2.32a55.04589,55.04589,0,0,0-12.81,4.7c-8.61,4.51-13.24,10.55-13.38,17.46l2.38.05c.12-6.07,4.18-11.24,12.06-15.38a54.39284,54.39284,0,0,1,12.24-4.51Z"/>
    <path class="cls-1" d="M445.2,78.79l-.17-2.37c-7.55.54-14.86-2.87-21.73-10.15a55.13169,55.13169,0,0,1-8.22-11.36l-2.12,1.08a57.04491,57.04491,0,0,0,8.57,11.87,39.13428,39.13428,0,0,0,10.1,7.91,24.94544,24.94544,0,0,0,13.57,3.02Z"/>
    <path class="cls-1" d="M432.81,30.12l-.37-2.35a65.55767,65.55767,0,0,0-14.67,4.46,47.53289,47.53289,0,0,0-11.64,7.02,28.71919,28.71919,0,0,0-8.6,11.65l2.22.85c3.46-9.01,12.22-14.4,18.97-17.34a64.1999,64.1999,0,0,1,14.09-4.29Z"/>
    <path class="cls-9" d="M447.21,60.07a39.15211,39.15211,0,0,0,4.68-13.64,37.39364,37.39364,0,0,0-.42-13.93,39.393,39.393,0,0,0-7.79-15.89l-1.86,1.48c6.66,8.38,9.27,17.77,7.74,27.88a37.10179,37.10179,0,0,1-4.37,12.84Z"/>
    <path class="cls-10" d="M455.16,24.01a33.90763,33.90763,0,1,1-23.98-9.94,33.969,33.969,0,0,1,23.98,9.94Z"/>
    <path class="cls-5" d="M451.03,28.14C438.25,15.36,419,13.87,408.05,24.83a32.732,32.732,0,0,1,46.29,46.29c10.95-10.96,9.47-30.2-3.31-42.98Z"/>
    <path class="cls-7" d="M411.36,67.81c12.78,12.78,32.02,14.26,42.98,3.31,10.95-10.96,9.47-30.2-3.31-42.98S419,13.87,408.05,24.83c-10.96,10.95-9.47,30.2,3.31,42.98Z"/>
    <path class="cls-1" d="M408.89,25.67a31.544,31.544,0,1,1,.01,44.6,31.56589,31.56589,0,0,1-.01-44.6Zm46.29,46.29a33.90763,33.90763,0,1,0-23.98,9.93,33.71549,33.71549,0,0,0,23.98-9.93Z"/>
    <path class="cls-9" d="M463.87,56.2l-1.56-1.79c-4.05,3.53-8.37,5.05-12.84,4.52-8.49-1-15.28-9.04-16.93-11.14,3.93-10.36,1.93-18.65-.48-23.81a28.328,28.328,0,0,0-6.47-9.01l-1.55,1.8a26.50756,26.50756,0,0,1,5.91,8.3c3.24,7.03,3.29,14.58.14,22.46a1.1972,1.1972,0,0,0,.13,1.13c.33.46,8.18,11.35,18.96,12.63,5.17.61,10.12-1.1,14.69-5.09Z"/>
    <path class="cls-9" d="M431.07,48.78l-.49-2.32a55.04589,55.04589,0,0,0-12.81,4.7c-8.61,4.51-13.24,10.55-13.38,17.46l2.38.05c.12-6.07,4.18-11.24,12.06-15.38a54.39284,54.39284,0,0,1,12.24-4.51Z"/>
    <path class="cls-1" d="M445.2,78.79l-.17-2.37c-7.55.54-14.86-2.87-21.73-10.15a55.13169,55.13169,0,0,1-8.22-11.36l-2.12,1.08a57.04491,57.04491,0,0,0,8.57,11.87,39.13428,39.13428,0,0,0,10.1,7.91,24.94544,24.94544,0,0,0,13.57,3.02Z"/>
    <path class="cls-1" d="M432.81,30.12l-.37-2.35a65.55767,65.55767,0,0,0-14.67,4.46,47.53289,47.53289,0,0,0-11.64,7.02,28.71919,28.71919,0,0,0-8.6,11.65l2.22.85c3.46-9.01,12.22-14.4,18.97-17.34a64.1999,64.1999,0,0,1,14.09-4.29Z"/>
    <path class="cls-1" d="M447.21,60.07a39.15211,39.15211,0,0,0,4.68-13.64,37.39364,37.39364,0,0,0-.42-13.93,39.393,39.393,0,0,0-7.79-15.89l-1.86,1.48c6.66,8.38,9.27,17.77,7.74,27.88a37.10179,37.10179,0,0,1-4.37,12.84Z"/>
    <rect class="cls-11" x="589.14832" y="14.05082" width="67.84336" height="67.84336" transform="translate(148.61368 454.67729) rotate(-45.00597)"/>
    <path class="cls-8" d="M603.12,67.93c-12.79-12.79-14.22-32.08-3.2-43.1a32.732,32.732,0,0,0,46.29,46.29c-11.02,11.02-30.31,9.59-43.09-3.19Z"/>
    <path class="cls-3" d="M643.02,28.02c12.78,12.78,14.21,32.08,3.19,43.1s-30.31,9.59-43.09-3.19c-12.79-12.79-14.22-32.08-3.2-43.1s30.32-9.59,43.1,3.19Z"/>
    <path class="cls-12" d="M600.76,25.67a31.544,31.544,0,1,0,44.61,0,31.59617,31.59617,0,0,0-44.61,0Zm46.29,46.29a33.91991,33.91991,0,0,1-47.97-47.97,33.91991,33.91991,0,1,1,47.97,47.97Z"/>
    <path class="cls-1" d="M633.49,37.56a14.73257,14.73257,0,1,1-20.84,0,14.73274,14.73274,0,0,1,20.84,0Z"/>
    <path class="cls-12" d="M613.49,38.4a13.54463,13.54463,0,1,0,19.16,0,13.55584,13.55584,0,0,0-19.16,0Zm20.84,20.83a15.92051,15.92051,0,1,1,0-22.51,15.93987,15.93987,0,0,1,0,22.51Z"/>
    <path class="cls-1" d="M603.12,67.93c-12.79-12.79-14.22-32.08-3.2-43.1a32.732,32.732,0,0,0,46.29,46.29c-11.02,11.02-30.31,9.59-43.09-3.19Z"/>
    <path class="cls-13" d="M643.02,28.02c12.78,12.78,14.21,32.08,3.19,43.1s-30.31,9.59-43.09-3.19c-12.79-12.79-14.22-32.08-3.2-43.1s30.32-9.59,43.1,3.19Z"/>
    <path class="cls-1" d="M633.49,37.56a14.73257,14.73257,0,1,1-20.84,0,14.73274,14.73274,0,0,1,20.84,0Z"/>
    <path class="cls-11" d="M613.49,38.4a13.54463,13.54463,0,1,0,19.16,0,13.55584,13.55584,0,0,0-19.16,0Zm20.84,20.83a15.92051,15.92051,0,1,1,0-22.51,15.93987,15.93987,0,0,1,0,22.51Z"/>
    <path class="cls-2" d="M642.8,28.24c-12.78-12.78-32.08-14.21-43.1-3.19a32.732,32.732,0,0,1,46.29,46.29c11.02-11.02,9.59-30.32-3.19-43.1Z"/>
    <path class="cls-11" d="M600.76,25.67a31.544,31.544,0,1,0,44.61,0,31.59617,31.59617,0,0,0-44.61,0Zm46.29,46.29a33.91991,33.91991,0,0,1-47.97-47.97,33.91991,33.91991,0,1,1,47.97,47.97Z"/>
    <rect class="cls-11" x="493.20832" y="14.05082" width="67.84336" height="67.84336" transform="translate(120.50644 386.8304) rotate(-45.00597)"/>
    <path class="cls-14" d="M503.14,23.99a33.923,33.923,0,0,0,23.99,9.93,33.91723,33.91723,0,0,0,23.98-9.93L527.13,0Z"/>
    <path class="cls-2" d="M503.14,23.99a33.90764,33.90764,0,0,1,0,47.97L479.16,47.97Z"/>
    <path class="cls-5" d="M551.11,71.96a33.93178,33.93178,0,0,1,0-47.97L575.1,47.97Z"/>
    <path class="cls-6" d="M551.11,71.96a33.93178,33.93178,0,0,0-47.97,0l23.99,23.99Z"/>
    <path class="cls-1" d="M526.65.48l.96.01,2.71,2.71h-6.39Zm-5.43,5.43h11.82l2.71,2.72H518.5Zm-5.43,5.43h22.67l2.72,2.71h-28.1Zm-5.43,5.43h33.53l2.71,2.71H507.65Zm-5.42,5.42h44.38l2.71,2.72H502.22Zm-5.43,5.43h55.24l2.71,2.72H496.8Zm-5.43,5.43h66.09l2.72,2.71H491.37Zm-5.43,5.43H565.6l2.71,2.71H485.94Zm-5.42,5.42h87.8l2.71,2.72H480.51Zm-2.72,5.43h93.23l-2.71,2.72h-87.8Zm5.43,5.43h82.37l-2.71,2.71H488.65Zm5.43,5.43h71.52l-2.72,2.71H494.08Zm5.43,5.42h60.66l-2.71,2.72H499.51Zm5.42,5.43h49.81l-2.71,2.71H504.94Zm5.43,5.43H546.6l-2.71,2.71H510.36Zm5.43,5.42h28.1l-2.72,2.72H515.79Zm5.42,5.43h17.25l-2.71,2.72H521.22Zm5.43,5.43h6.39l-2.71,2.71h-.97Z"/>
    <rect class="cls-12" x="1164.67003" y="14.05009" width="67.83982" height="67.83982" transform="translate(317.13793 861.58005) rotate(-44.99993)"/>
    <path class="cls-2" d="M1174.61,23.99a33.932,33.932,0,0,1,0,47.97l-23.99-23.99Z"/>
    <path class="cls-2" d="M1183.13,46.45a5.0011,5.0011,0,0,0-5.12-.06,1.782,1.782,0,1,0-1.8,1.8,4.97418,4.97418,0,0,0,.08,5.13,1.66823,1.66823,0,0,1-.57.23,1.57877,1.57877,0,0,1-1.06-.14.91544.91544,0,0,0-.89.07c-.19.11-.39012.23-.59012.34a.30911.30911,0,0,0,.05012.56c2.51.98,8.59,3.56,8.59,3.56l1.52,1.45-.31,2.58,4.05988.75L1198.08,75.69l-.22,2.76,3.47,7.29-.78012,1.91,1.84012,1.84,16.92988-16.92-1.77-1.77-1.83988.29-7.48-2.9-2.66.12-13.05012-10.92L1191.69,53.3l-2.43012.09-1.42-1.47L1184.09,43.47a.31385.31385,0,0,0-.56-.03c-.08012.15-.19.32-.31.52a.92051.92051,0,0,0-.06.92,1.73118,1.73118,0,0,1,.16,1.04,1.5988,1.5988,0,0,1-.19.53Z"/>
    <path class="cls-15" d="M1178.01,46.39a1.782,1.782,0,1,0-1.8,1.8,4.97418,4.97418,0,0,0,.08,5.13,1.66823,1.66823,0,0,1-.57.23,1.57877,1.57877,0,0,1-1.06-.14.91544.91544,0,0,0-.89.07c-.19.11-.39012.23-.59012.34a.30911.30911,0,0,0,.05012.56c2.51.98,8.59,3.56,8.59,3.56l1.52,1.45-.31,2.58,4.05988.75L1198.08,75.69l-.22,2.76,3.47,7.29-.78012,1.91,1.84012,1.84,16.92988-16.92-1.77-1.77-1.83988.29-7.48-2.9-2.66.12-13.05012-10.92L1191.69,53.3l-2.43012.09-1.42-1.47L1184.09,43.47a.31385.31385,0,0,0-.56-.03c-.08012.15-.19.32-.31.52a.92051.92051,0,0,0-.06.92,1.73118,1.73118,0,0,1,.16,1.04,1.5988,1.5988,0,0,1-.19.53,5.0011,5.0011,0,0,0-5.12-.06ZM1180.6,44a6.809,6.809,0,0,1,.78.05,2.83581,2.83581,0,0,1,.38-1c.06-.09.10988-.18.15-.25l.13988-.23a2.09729,2.09729,0,0,1,.74012-.74c.06-.03.11988-.06.19-.09a2.02219,2.02219,0,0,1,.93-.17,2.13195,2.13195,0,0,1,.92.27,1.93514,1.93514,0,0,1,.74.76q.04482.09.09.18l3.63,8.17.67.7,1.64-.06a1.71859,1.71859,0,0,1,1.78,1.37l.7,3.49,12.09,10.12,1.83988-.09a1.76423,1.76423,0,0,1,.84.11L1215.9,69.32l1.26988-.2a1.7234,1.7234,0,0,1,1.59.46l1.78,1.77a1.732,1.732,0,0,1,0,2.44L1203.61,90.71a1.70228,1.70228,0,0,1-2.43,0l-1.84012-1.84h0a1.74,1.74,0,0,1-.38-1.86l.50012-1.21-3.15-6.61h0a1.80585,1.80585,0,0,1-.16012-.87l.16012-2.06L1186.16988,64.3l-3.45-.64h0a1.71984,1.71984,0,0,1-1.4-1.9l.21012-1.72-.66-.63c-1.23012-.52-6.19012-2.62-8.27-3.43a2.01882,2.01882,0,0,1-1.03-.89,2.20114,2.20114,0,0,1-.26012-.86,2.13243,2.13243,0,0,1,.14012-.89,1.99535,1.99535,0,0,1,.88988-1.02c.11-.06.21012-.12.27012-.16.01988-.01.11988-.07.27-.16h0a2.7776,2.7776,0,0,1,1.01-.36,8.05083,8.05083,0,0,1-.07-.85,6.74126,6.74126,0,0,1,.19-1.67,1.551,1.551,0,0,1-.27012-.24A3.50389,3.50389,0,0,1,1176.05,42.9a.915.915,0,0,1,.17-.01,3.46524,3.46524,0,0,1,2.47988,1.03,1.94772,1.94772,0,0,1,.24012.26,6.652,6.652,0,0,1,1.66-.18Zm-5.19,7.87h0Z"/>
    <path class="cls-3" d="M1222.36,69.56l-1.86-1.86.78988-1.92L1217.8,58.44l.20988-2.77-14.39-16.38-4.07988-.76.31-2.59-1.53-1.46-9.28-3.83,4.52-4.52-2.43-2.43-2.63012,2.62L1186.11,23.93l2.62-2.63-2.09012-2.09,2.39012-2.39,2.1,2.09,2.62-2.63,2.39,2.4-2.62,2.62,2.43,2.44,4.39988-4.4,4.03,9.08L1205.81,29.9l2.44-.09.84,4.11,16.46,14.32,2.67-.11,7.52988,2.91,1.85012-.29,1.78,1.78s-3.78,3.78-17.02,17.03Z"/>
    <path class="cls-15" d="M1221.13,70.78l-1.85-1.85-.81012-.81.44012-1.07.49-1.21-3.16012-6.65-.2-.42.04012-.46.14988-2.05L1202.72,40.88l-3.49012-.65-1.59988-.29.19-1.62.20988-1.73-.66-.63L1188.38,32.25l-2.40012-.99,1.83012-1.83.68-.67-1.22-1.21-2.39-2.4-1.22-1.22,1.22-1.23,1.41-1.4-.87012-.87L1184.19,19.2l1.21988-1.22,2.40012-2.39,1.22-1.22,1.23,1.22.87.87,1.4-1.4,1.22-1.22,1.22,1.22,2.39,2.4,1.21988,1.21.54012-.55,1.78-1.78,1.03,2.31,3.9,8.79.68.71,1.68-.06,1.47-.06.29,1.44.71,3.53,15.51,13.49,1.98-.09.37-.01.32988.12,7.09,2.75,1.39012-.22.88-.13.61.62,1.77988,1.78,1.22,1.22-1.22,1.22L1223.58,70.78,1222.35,72Zm1.23-1.22-1.86-1.86.78988-1.92L1217.8,58.44l.20988-2.77-14.39-16.38-4.07988-.76.31-2.59-1.53-1.46-9.28-3.83,4.52-4.52-2.43-2.43-2.63012,2.62L1186.11,23.93l2.62-2.63-2.09012-2.09,2.39012-2.39,2.1,2.09,2.62-2.63,2.39,2.4-2.62,2.62,2.43,2.44,4.39988-4.4,4.03,9.08L1205.81,29.9l2.44-.09.84,4.11,16.46,14.32,2.67-.11,7.52988,2.91,1.85012-.29,1.78,1.78s-3.78,3.78-17.02,17.03Z"/>
    <rect class="cls-11" x="1164.67003" y="14.05009" width="67.83982" height="67.83982" transform="translate(317.13793 861.58005) rotate(-44.99993)"/>
    <path class="cls-2" d="M1174.61,23.99a33.932,33.932,0,0,1,0,47.97l-23.99-23.99Z"/>
    <path class="cls-2" d="M1183.13,46.45a5.0011,5.0011,0,0,0-5.12-.06,1.782,1.782,0,1,0-1.8,1.8,4.97418,4.97418,0,0,0,.08,5.13,1.66823,1.66823,0,0,1-.57.23,1.57877,1.57877,0,0,1-1.06-.14.91544.91544,0,0,0-.89.07c-.19.11-.39012.23-.59012.34a.30911.30911,0,0,0,.05012.56c2.51.98,8.59,3.56,8.59,3.56l1.52,1.45-.31,2.58,4.05988.75L1198.08,75.69l-.22,2.76,3.47,7.29-.78012,1.91,1.84012,1.84,16.92988-16.92-1.77-1.77-1.83988.29-7.48-2.9-2.66.12-13.05012-10.92L1191.69,53.3l-2.43012.09-1.42-1.47L1184.09,43.47a.31385.31385,0,0,0-.56-.03c-.08012.15-.19.32-.31.52a.92051.92051,0,0,0-.06.92,1.73118,1.73118,0,0,1,.16,1.04,1.5988,1.5988,0,0,1-.19.53Z"/>
    <path class="cls-16" d="M1178.01,46.39a1.782,1.782,0,1,0-1.8,1.8,4.97418,4.97418,0,0,0,.08,5.13,1.66823,1.66823,0,0,1-.57.23,1.57877,1.57877,0,0,1-1.06-.14.91544.91544,0,0,0-.89.07c-.19.11-.39012.23-.59012.34a.30911.30911,0,0,0,.05012.56c2.51.98,8.59,3.56,8.59,3.56l1.52,1.45-.31,2.58,4.05988.75L1198.08,75.69l-.22,2.76,3.47,7.29-.78012,1.91,1.84012,1.84,16.92988-16.92-1.77-1.77-1.83988.29-7.48-2.9-2.66.12-13.05012-10.92L1191.69,53.3l-2.43012.09-1.42-1.47L1184.09,43.47a.31385.31385,0,0,0-.56-.03c-.08012.15-.19.32-.31.52a.92051.92051,0,0,0-.06.92,1.73118,1.73118,0,0,1,.16,1.04,1.5988,1.5988,0,0,1-.19.53,5.0011,5.0011,0,0,0-5.12-.06Zm2.59-2.45c.23988,0,.49.02.73.04a2.89684,2.89684,0,0,1,.37-.96c.06-.1.12-.18.15988-.26l.13012-.22a2.15392,2.15392,0,0,1,.77-.76c.06-.03.12988-.07.19-.1a2.16608,2.16608,0,0,1,.96988-.17,2.09508,2.09508,0,0,1,.94.28,2.03791,2.03791,0,0,1,.76012.78,1.63755,1.63755,0,0,1,.1.18l3.61988,8.16.65.67,1.61012-.06a1.78971,1.78971,0,0,1,1.83988,1.43l.70012,3.47,12.05,10.08,1.81-.08a1.76332,1.76332,0,0,1,.86988.11l7.04012,2.72,1.24988-.19a1.7774,1.7774,0,0,1,1.65012.48l1.77,1.77a1.7747,1.7747,0,0,1,0,2.52l-16.92,16.93a1.80486,1.80486,0,0,1-2.53,0l-1.84-1.84.01-.01a1.77546,1.77546,0,0,1-.39-1.93l.48-1.18-3.13012-6.58h0a1.766,1.766,0,0,1-.16988-.91l.15-2.02-10.1-11.94-3.43012-.63h0a1.79207,1.79207,0,0,1-1.44988-1.97l.21-1.69-.64-.6c-1.24-.53-6.18-2.61-8.25-3.42a2.07955,2.07955,0,0,1-1.07012-.92,2.134,2.134,0,0,1-.25988-.88,2.24233,2.24233,0,0,1,.14-.92,2.0538,2.0538,0,0,1,.92-1.06c.11-.06.21-.11.27-.15.02-.01.12-.07.27-.16h0a2.84629,2.84629,0,0,1,.97-.36,5.38583,5.38583,0,0,1-.06-.8,6.4953,6.4953,0,0,1,.17988-1.64,2.61187,2.61187,0,0,1-.23988-.22,3.573,3.573,0,0,1,0-5.06,3.48868,3.48868,0,0,1,2.34-1.03,1.08687,1.08687,0,0,1,.18-.01,3.59006,3.59006,0,0,1,2.53,1.04c.08.08.15.16.21988.24a6.84089,6.84089,0,0,1,1.63012-.17Zm-5.18012,7.87h0Z"/>
    <path class="cls-13" d="M1222.36,69.56l-1.86-1.86.78988-1.92L1217.8,58.44l.20988-2.77-14.39-16.38-4.07988-.76.31-2.59-1.53-1.46-9.28-3.83,4.52-4.52-2.43-2.43-2.63012,2.62L1186.11,23.93l2.62-2.63-2.09012-2.09,2.39012-2.39,2.1,2.09,2.62-2.63,2.39,2.4-2.62,2.62,2.43,2.44,4.39988-4.4,4.03,9.08L1205.81,29.9l2.44-.09.84,4.11,16.46,14.32,2.67-.11,7.52988,2.91,1.85012-.29,1.78,1.78s-3.78,3.78-17.02,17.03Z"/>
    <path class="cls-16" d="M1221.08988,70.82,1219.24,68.97l-.83-.84.44988-1.1.48012-1.19-3.15-6.63-.2-.43.03-.47.16-2.03-13.49012-15.36-3.46988-.64-1.65012-.3.20012-1.67.21-1.7-.64-.61-8.98-3.7-2.47012-1.02,1.89012-1.89.62988-.63L1187.24,27.58l-2.4-2.39-1.26-1.26,1.26-1.26,1.37-1.37-.83-.83-1.26012-1.27,1.26012-1.25,2.39-2.4,1.26-1.26,1.26,1.26.84.84,1.36-1.36,1.26-1.26,1.26,1.26,2.39,2.39,1.17988,1.17.51012-.51,1.82988-1.83,1.06012,2.37,3.89988,8.79.65.68,1.66012-.06,1.50988-.05L1210,29.46l.71,3.51,15.47,13.47,1.96-.09.39-.02.34.13,7.07988,2.74,1.38012-.21.89-.14.64.64,1.78,1.78,1.26,1.26-1.26,1.26-17.03012,17.02L1222.35,72.08Zm1.27012-1.26-1.86-1.86.78988-1.92L1217.8,58.44l.20988-2.77-14.39-16.38-4.07988-.76.31-2.59-1.53-1.46-9.28-3.83,4.52-4.52-2.43-2.43-2.63012,2.62L1186.11,23.93l2.62-2.63-2.09012-2.09,2.39012-2.39,2.1,2.09,2.62-2.63,2.39,2.4-2.62,2.62,2.43,2.44,4.39988-4.4,4.03,9.08L1205.81,29.9l2.44-.09.84,4.11,16.46,14.32,2.67-.11,7.52988,2.91,1.85012-.29,1.78,1.78s-3.78,3.78-17.02,17.03Z"/>
    <rect class="cls-14" x="972.79008" y="14.05011" width="67.83978" height="67.83978" transform="translate(260.93944 725.90244) rotate(-45.00007)"/>
    <path class="cls-2" d="M978.56988,47.97c0-18.07,12.6-32.73,28.14012-32.73a32.735,32.735,0,0,0,0,65.47c-15.54012,0-28.14012-14.66-28.14012-32.74Z"/>
    <path class="cls-5" d="M1034.85,47.97c0,18.08-12.6,32.74-28.14,32.74-15.54012,0-28.14012-14.66-28.14012-32.74,0-18.07,12.6-32.73,28.14012-32.73,15.54,0,28.14,14.66,28.14,32.73Z"/>
    <polygon class="cls-17" points="1006.71 34.16 1006.71 32.74 990.69 44.38 996.81 63.21 1001.09 63.21 994.97 44.38 1006.71 34.16"/>
    <path class="cls-11" d="M1006.71,16.43a31.545,31.545,0,1,0,31.53988,31.54A31.57728,31.57728,0,0,0,1006.71,16.43Zm0,65.46a33.91284,33.91284,0,0,1-23.98-57.9,33.91991,33.91991,0,1,1,23.98,57.9Z"/>
    <path class="cls-18" d="M997.67,62.03h18.08l5.58988-17.2L1006.71,34.2,992.09,44.83Zm18.94,2.37h-19.8a1.18255,1.18255,0,0,1-1.13-.82l-6.12-18.84a1.16687,1.16687,0,0,1,.43-1.32l16.02-11.65a1.20139,1.20139,0,0,1,1.4,0l16.02,11.65a1.16681,1.16681,0,0,1,.42988,1.32L1017.74,63.58a1.17362,1.17362,0,0,1-1.13.82Z"/>
    <rect class="cls-11" x="1005.58" y="15.3" width="2.38" height="17.38"/>
    <polygon class="cls-11" points="990.38 45.5 974.74 40.42 975.47 38.16 991.11 43.24 990.38 45.5"/>
    <polygon class="cls-11" points="989.14 75.75 987.22 74.35 995.86 62.46 997.78 63.86 989.14 75.75"/>
    <polygon class="cls-11" points="1022.91 45.5 1022.17 43.24 1037.82 38.16 1038.55 40.42 1022.91 45.5"/>
    <polygon class="cls-11" points="1024.14 75.75 1015.5 63.86 1017.42 62.46 1026.07 74.35 1024.14 75.75"/>
    <path class="cls-11" d="M997.67,62.03h18.08l5.58988-17.2L1006.71,34.2,992.09,44.83Zm18.94,2.37h-19.8a1.18255,1.18255,0,0,1-1.13-.82l-6.12-18.84a1.16687,1.16687,0,0,1,.43-1.32l16.02-11.65a1.20139,1.20139,0,0,1,1.4,0l16.02,11.65a1.16681,1.16681,0,0,1,.42988,1.32L1017.74,63.58a1.17362,1.17362,0,0,1-1.13.82Z"/>
    <path class="cls-19" d="M896.45,42.99a6.78,6.78,0,1,1-9.6,0,6.79,6.79,0,0,1,9.6,0Z"/>
    <path class="cls-19" d="M915.64,23.81a6.78394,6.78394,0,1,1-4.8-1.99,6.77791,6.77791,0,0,1,4.8,1.99Z"/>
    <path class="cls-19" d="M915.64,62.18a6.78,6.78,0,1,1-9.6,0,6.79,6.79,0,0,1,9.6,0Z"/>
    <path class="cls-19" d="M934.83,42.99a6.80818,6.80818,0,1,1-4.8-1.98,6.80589,6.80589,0,0,1,4.8,1.98Z"/>
    <polygon class="cls-13" points="910.9 95.82 958.74 47.97 910.77 0 862.92 47.97 910.9 95.82"/>
    <path class="cls-19" d="M896.45,42.99a6.78,6.78,0,1,1-9.6,0,6.79,6.79,0,0,1,9.6,0Z"/>
    <path class="cls-19" d="M915.64,23.81a6.78394,6.78394,0,1,1-4.8-1.99,6.77791,6.77791,0,0,1,4.8,1.99Z"/>
    <path class="cls-19" d="M915.64,62.18a6.78,6.78,0,1,1-9.6,0,6.79,6.79,0,0,1,9.6,0Z"/>
    <path class="cls-19" d="M934.83,42.99a6.80818,6.80818,0,1,1-4.8-1.98,6.80589,6.80589,0,0,1,4.8,1.98Z"/>
    <rect class="cls-11" x="1068.73004" y="14.05007" width="67.83987" height="67.83987" transform="translate(289.03879 793.74136) rotate(-45)"/>
    <path class="cls-10" d="M1114.63988,12A16.96006,16.96006,0,1,1,1090.66,12a16.94177,16.94177,0,0,1,23.97988,0Z"/>
    <path class="cls-20" d="M1090.66,35.98a16.95985,16.95985,0,1,1-11.99012-4.97A16.97215,16.97215,0,0,1,1090.66,35.98Z"/>
    <path class="cls-21" d="M1114.63988,59.97A16.94764,16.94764,0,1,1,1102.65,55a16.91242,16.91242,0,0,1,11.98988,4.97Z"/>
    <path class="cls-22" d="M1138.62988,35.98a16.955,16.955,0,1,1-23.99,0,16.97171,16.97171,0,0,1,23.99,0Z"/>
    <path class="cls-12" d="M813.75,83.82a1.95869,1.95869,0,1,1,0,2.77,1.94954,1.94954,0,0,1,0-2.77Zm6.65,6.65a7.45291,7.45291,0,1,0-10.54,0,7.45388,7.45388,0,0,0,10.54,0Z"/>
    <path class="cls-12" d="M826.15,71.41a1.96222,1.96222,0,1,1,0,2.78,1.96765,1.96765,0,0,1,0-2.78Zm6.66,6.66a7.45644,7.45644,0,1,0-10.55,0,7.47207,7.47207,0,0,0,10.55,0Z"/>
    <path class="cls-12" d="M838.55,59.01a1.95869,1.95869,0,1,1,0,2.77,1.96764,1.96764,0,0,1,0-2.77Zm6.65989,6.66a7.45287,7.45287,0,1,0-10.53989,0,7.47187,7.47187,0,0,0,10.53989,0Z"/>
    <path class="cls-12" d="M850.95,46.61a1.96222,1.96222,0,1,1,0,2.77,1.96156,1.96156,0,0,1,0-2.77Zm6.66,6.66a7.45291,7.45291,0,1,0-10.54,0,7.45388,7.45388,0,0,0,10.54,0Z"/>
    <path class="cls-3" d="M803.83,38.31h0a3.8702,3.8702,0,0,1,.63-5.42l.71-.56,7.79-6.16a3.85922,3.85922,0,0,1,5.41.63h0a3.86832,3.86832,0,0,1-.63,5.41l-8.28,6.55-.22.18a3.86725,3.86725,0,0,1-5.41-.63Z"/>
    <path class="cls-3" d="M811.41,88.93a5.26795,5.26795,0,1,0,0-7.45,5.263,5.263,0,0,0,0,7.45Z"/>
    <path class="cls-3" d="M823.81,76.53a5.26795,5.26795,0,1,0,0-7.45,5.28115,5.28115,0,0,0,0,7.45Z"/>
    <path class="cls-3" d="M836.21,64.12a5.26795,5.26795,0,1,0,0-7.45,5.263,5.263,0,0,0,0,7.45Z"/>
    <path class="cls-3" d="M848.61,51.72a5.26795,5.26795,0,1,0,0-7.45,5.263,5.263,0,0,0,0,7.45Z"/>
    <rect class="cls-5" x="781.02826" y="14.05082" width="67.84336" height="67.84336" transform="translate(204.82753 590.37034) rotate(-45.00591)"/>
    <path class="cls-11" d="M813.75,83.82a1.95869,1.95869,0,1,1,0,2.77,1.94954,1.94954,0,0,1,0-2.77Zm6.65,6.65a7.45291,7.45291,0,1,0-10.54,0,7.45388,7.45388,0,0,0,10.54,0Z"/>
    <path class="cls-11" d="M826.15,71.41a1.96222,1.96222,0,1,1,0,2.78,1.96765,1.96765,0,0,1,0-2.78Zm6.66,6.66a7.45644,7.45644,0,1,0-10.55,0,7.47207,7.47207,0,0,0,10.55,0Z"/>
    <path class="cls-11" d="M838.55,59.01a1.95869,1.95869,0,1,1,0,2.77,1.96764,1.96764,0,0,1,0-2.77Zm6.65989,6.66a7.45287,7.45287,0,1,0-10.53989,0,7.47187,7.47187,0,0,0,10.53989,0Z"/>
    <path class="cls-11" d="M850.95,46.61a1.96222,1.96222,0,1,1,0,2.77,1.96156,1.96156,0,0,1,0-2.77Zm6.66,6.66a7.45291,7.45291,0,1,0-10.54,0,7.45388,7.45388,0,0,0,10.54,0Z"/>
    <path class="cls-1" d="M805.39,67.96c2.38-7.07,7.34-24.29,7.34-24.29l-2.46-3.69,8.26-6.53a5.4213,5.4213,0,0,0,1.15-7.35,5.33229,5.33229,0,0,0-7.63-1.08l-7.7,6.09-5.85-6.74a3.25182,3.25182,0,0,1-.3-3.01,27.39883,27.39883,0,0,1,12.47-13.7,2.97305,2.97305,0,0,1,3.06989.17C817.87,10.64,834.6,23.91,840.64,29.64c3.38,3.21,5.02,5.55,5.8,7.15a3.87509,3.87509,0,0,1-.47,4.15c-2.62,3.26-34.72,35.68-34.77,35.69a4.62253,4.62253,0,0,1-5.11-2.29,7.53356,7.53356,0,0,1-.7-6.38Z"/>
    <path class="cls-11" d="M804.41,67.72c2.11-6.3,6.31-20.75,7.16-23.71l-2.76-4.14,9.12-7.21a4.41537,4.41537,0,0,0,1.61-2.75,4.03852,4.03852,0,0,0-.69-2.97c-.03-.05-.08-.1-.12-.16a4.14866,4.14866,0,0,0-2.67-1.53,4.08776,4.08776,0,0,0-2.96.73c-.04.02-.09.07-.16.12l-8.6,6.8-6.6-7.6-.09-.12a4.478,4.478,0,0,1-.72011-2.01,4.39058,4.39058,0,0,1,.31011-2.11,27.29058,27.29058,0,0,1,5.16-8.2,29.68551,29.68551,0,0,1,7.85-6.11,4.176,4.176,0,0,1,4.31.24c2.3,1.56,8.44,6.31,14.49,11.22,4.93,4,9.80989,8.11,12.56,10.71a40.56147,40.56147,0,0,1,3.99,4.3,18.69453,18.69453,0,0,1,2.06,3.18,5.11536,5.11536,0,0,1-.61,5.43c-.92,1.15-5.37,5.78-10.81,11.36-10.35,10.63-24.6,24.74-24.67,24.76a5.87307,5.87307,0,0,1-3.94-.5,6.474,6.474,0,0,1-2.4-2.33,8.33507,8.33507,0,0,1-1.24-3.58,8.89681,8.89681,0,0,1,.42-3.82Zm9.60989-23.58C814.01,44.19,809.06,61.37,806.67,68.49a6.47109,6.47109,0,0,0-.31011,2.79,6.06236,6.06236,0,0,0,.88011,2.57,4.22556,4.22556,0,0,0,1.51,1.49,3.50367,3.50367,0,0,0,2.36.26c.01,0,13.3-13.68,23.43-24.08,5.37-5.51,9.76-10.08,10.65-11.19a2.7085,2.7085,0,0,0,.33-2.87,16.62226,16.62226,0,0,0-1.8-2.76,38.42953,38.42953,0,0,0-3.76-4.05c-2.68-2.54-7.52-6.61-12.42-10.58-6-4.87-12.07-9.57-14.33-11.11a1.86923,1.86923,0,0,0-.9-.31,1.84773,1.84773,0,0,0-.94.21,27.18412,27.18412,0,0,0-7.2,5.61,24.982,24.982,0,0,0-4.72011,7.48,2.05189,2.05189,0,0,0-.12989.98,2.08553,2.08553,0,0,0,.29.87l5.04,5.81,6.8-5.38c.07-.06.15-.12.26-.2h0a6.53317,6.53317,0,0,1,8.89,1.26c.06.08.12.16.19.26a6.33522,6.33522,0,0,1,1.1,4.73,6.71729,6.71729,0,0,1-2.48,4.25l-7.38,5.85,2.15,3.23Z"/>
    <path class="cls-13" d="M804.02,38.5h0a3.85817,3.85817,0,0,1,.63-5.41l.71-.57,7.79-6.16a3.86725,3.86725,0,0,1,5.41.63h0a3.86725,3.86725,0,0,1-.63,5.41l-8.28,6.55-.22.18a3.86725,3.86725,0,0,1-5.41-.63Z"/>
    <path class="cls-13" d="M811.41,88.93a5.26795,5.26795,0,1,0,0-7.45,5.263,5.263,0,0,0,0,7.45Z"/>
    <path class="cls-13" d="M823.81,76.53a5.26795,5.26795,0,1,0,0-7.45,5.28115,5.28115,0,0,0,0,7.45Z"/>
    <path class="cls-13" d="M836.21,64.12a5.26795,5.26795,0,1,0,0-7.45,5.263,5.263,0,0,0,0,7.45Z"/>
    <path class="cls-13" d="M848.61,51.72a5.26795,5.26795,0,1,0,0-7.45,5.263,5.263,0,0,0,0,7.45Z"/>
    <path class="cls-14" d="M383.22,47.97,335.25,95.95l-1.92-1.92L381.3,46.06Zm-3.84-3.83L331.41,92.11l-1.92-1.92,47.97-47.97Zm-3.84-3.84L327.57,88.27l-1.91-1.92,47.97-47.97Zm-3.83-3.84L323.74,84.43l-1.92-1.92,47.97-47.97Zm-3.84-3.84L319.9,80.59l-1.92-1.91,47.97-47.97Zm-3.84-3.83L316.06,76.76l-1.92-1.92,47.97-47.97Zm-3.84-3.84L312.22,72.92,310.3,71l47.98-47.97Zm-3.83-3.84L308.39,69.08l-1.92-1.92,47.97-47.97Zm-3.84-3.84L304.55,65.24l-1.92-1.91L350.6,15.35Zm-3.84-3.83L300.71,61.41l-1.92-1.92,47.97-47.97ZM344.84,9.6,296.87,57.57l-1.92-1.92L342.92,7.68Zm-3.83-3.84L293.04,53.73l-1.92-1.92L339.09,3.84Zm-3.84-3.84L289.2,49.89l-1.92-1.92L335.25,0Z"/>
    <polygon class="cls-14" points="335.25 95.95 383.22 47.97 287.28 47.97 335.25 95.95"/>
    <path class="cls-2" d="M238.82.49h.97L242.5,3.2h-6.39ZM233.4,5.91h11.82l2.71,2.72H230.69Zm-5.43,5.43h22.67l2.72,2.71-28.1.01Zm-5.43,5.43h33.53l2.72,2.71H219.83Zm-5.42,5.42H261.5l2.71,2.72H214.4Zm-5.43,5.43h55.24l2.71,2.72H208.98Zm-5.43,5.43h66.09l2.72,2.71H203.55Zm-5.43,5.43h76.95l2.71,2.71H198.12Zm-5.42,5.42h87.8l2.71,2.72H192.69Zm-2.72,5.43h93.23l-2.71,2.72h-87.8Zm5.43,5.43h82.37l-2.71,2.71H200.84Zm5.43,5.43,71.52-.01-2.72,2.72H206.26Zm5.43,5.42h60.66l-2.71,2.72H211.69Zm5.42,5.43h49.81l-2.71,2.72-44.38-.01Zm5.43,5.43h38.95l-2.71,2.71H222.54Zm5.43,5.42h28.1l-2.71,2.72H227.97Zm5.42,5.43h17.25l-2.71,2.72H233.4Zm5.43,5.43h6.39l-2.71,2.71h-.96Z"/>
    <polygon class="cls-2" points="287.28 47.97 239.31 95.95 239.31 0 287.28 47.97"/>
    <path class="cls-2" d="M238.82.49h.97L242.5,3.2h-6.39ZM233.4,5.91h11.82l2.71,2.72H230.69Zm-5.43,5.43h22.67l2.72,2.71-28.1.01Zm-5.43,5.43h33.53l2.72,2.71H219.83Zm-5.42,5.42H261.5l2.71,2.72H214.4Zm-5.43,5.43h55.24l2.71,2.72H208.98Zm-5.43,5.43h66.09l2.72,2.71H203.55Zm-5.43,5.43h76.95l2.71,2.71H198.12Zm-5.42,5.42h87.8l2.71,2.72H192.69Zm-2.72,5.43h93.23l-2.71,2.72h-87.8Zm5.43,5.43h82.37l-2.71,2.71H200.84Zm5.43,5.43,71.52-.01-2.72,2.72H206.26Zm5.43,5.42h60.66l-2.71,2.72H211.69Zm5.42,5.43h49.81l-2.71,2.72-44.38-.01Zm5.43,5.43h38.95l-2.71,2.71H222.54Zm5.43,5.42h28.1l-2.71,2.72H227.97Zm5.42,5.43h17.25l-2.71,2.72H233.4Zm5.43,5.43h6.39l-2.71,2.71h-.96Z"/>
    <polygon class="cls-2" points="287.28 47.97 239.31 95.95 239.31 0 287.28 47.97"/>
    <path class="cls-11" d="M257.64,20.34a.74732.74732,0,0,0-.53.53l-2.94,10.96-2.58-2.58a6.0476,6.0476,0,0,0-8.55,0l-5.3,5.3a10.09041,10.09041,0,1,0-5.54,5.54l-7.16,7.15a7.37168,7.37168,0,1,0-4.7,4.71l-3.88,3.88a6.04761,6.04761,0,0,0,0,8.55l.23.24-3.07,3.07a.74237.74237,0,0,0,0,1.05l12.63,12.64a.75447.75447,0,0,0,1.06,0l3.07-3.08.23.24a6.078,6.078,0,0,0,8.56,0l26.57-26.58a6.05969,6.05969,0,0,0,0-8.56l-2.58-2.58,10.97-2.94a.68514.68514,0,0,0,.33-.19.73386.73386,0,0,0,.2-.34.74814.74814,0,0,0-.2-.72l-16.1-16.1a.737.737,0,0,0-.72-.19Z"/>
    <path class="cls-1" d="M256.52,19.75a1.87432,1.87432,0,0,1,.83-.48,1.85093,1.85093,0,0,1,1.79.48l16.11,16.1a1.81634,1.81634,0,0,1,.47.83,1.74032,1.74032,0,0,1,0,.96,1.8042,1.8042,0,0,1-.47.83,1.65047,1.65047,0,0,1-.39.29,1.73375,1.73375,0,0,1-.45.19l-9.11,2.44,1.23,1.23a7.17026,7.17026,0,0,1,0,10.12L239.95,79.32a7.17329,7.17329,0,0,1-9.54.52l-2.32,2.32a1.859,1.859,0,0,1-2.62,0h0L212.84,69.53a1.84138,1.84138,0,0,1-.55-1.31,1.80816,1.80816,0,0,1,.55-1.31l2.32-2.32a7.17329,7.17329,0,0,1,.52-9.54l1.65-1.66a7.8059,7.8059,0,0,1-1.27-.2,8.49048,8.49048,0,0,1,1.97-16.75q.375,0,.75.03a11.19086,11.19086,0,1,1,20.58-7.95,11.0465,11.0465,0,0,1,.22,2.63l2.67-2.68a7.17026,7.17026,0,0,1,10.12,0l1.23,1.23,2.44-9.12a1.91457,1.91457,0,0,1,.48-.83Zm1.5,2-3.28,12.22-3.93-3.94a4.96132,4.96132,0,0,0-6.99,0L217.24,56.61a4.93707,4.93707,0,0,0,0,6.99l1.01,1.02-3.6,3.6,12.13,12.12,3.6-3.6,1.01,1.01a4.93707,4.93707,0,0,0,6.99,0l26.58-26.57a4.93707,4.93707,0,0,0,0-6.99l-3.94-3.94,12.22-3.27ZM235.29,37.64l1.43-3.51a8.98469,8.98469,0,1,0-17.31-3.39,8.97144,8.97144,0,0,0,12.37,8.32Zm-9.12,4.07c-.1-.02-.21-.04-.31-.07a8.844,8.844,0,0,1,.43,1.32,7.8059,7.8059,0,0,1,.2,1.27l2.31-2.3a11.63834,11.63834,0,0,1-2.63-.22Zm-3.16,8.2.98-3.01a6.27333,6.27333,0,1,0-7.42,4.14A6.35047,6.35047,0,0,0,220,50.9Z"/>
    <rect class="cls-2" x="1260.61008" y="14.05011" width="67.83978" height="67.83978" transform="translate(345.24028 929.42224) rotate(-45.00007)"/>
    <path class="cls-11" d="M1318.52,71.96a33.91367,33.91367,0,0,1,0-47.97l23.97988,23.98Z"/>
    <path class="cls-23" d="M1402.2599,73.67c2.4601,2.46,1.11,7.79-3.0099,11.92-4.12,4.12-9.45,5.47-11.91,3.01l-26.71012-26.71C1358.17,59.43,1359.52,54.1,1363.64,49.98c4.13-4.12,9.46-5.47,11.91987-3.02Z"/>
    <path class="cls-12" d="M1403.2099,72.73c1.58,1.58,1.9701,3.99,1.31,6.6A17.35029,17.35029,0,0,1,1392.99,90.85c-2.6001.66-5.0101.28-6.6001-1.31l-26.7-26.71c-1.59-1.58-1.97-3.99-1.31-6.59A17.29813,17.29813,0,0,1,1369.9,44.71c2.61-.66,5.02-.27,6.59987,1.31Zm-1.2799,5.95c.4299-1.7.26-3.19-.6101-4.07l-26.7-26.7c-.87987-.88-2.36987-1.05-4.06987-.61a14.73634,14.73634,0,0,0-9.59,9.58c-.43012,1.71-.26012,3.2.61,4.07l26.71,26.7c.87.88,2.36,1.05,4.0699.62a14.73621,14.73621,0,0,0,9.5801-9.59Z"/>
    <path class="cls-10" d="M1360.66,61.86c-2.46012-2.46-1.11-7.79,3.01-11.91,4.12988-4.13,9.45987-5.47,11.92-3.02,2.46,2.46,1.11,7.8-3.01013,11.92-4.13,4.12-9.45987,5.47-11.91987,3.01Z"/>
    <path class="cls-12" d="M1359.72,62.8c-1.59-1.58-1.97-3.99-1.31-6.6a17.31,17.31,0,0,1,11.52-11.52c2.61-.66,5.02-.27,6.6,1.31,1.59,1.59,1.97,3.99,1.31,6.6a17.30983,17.30983,0,0,1-11.52012,11.52c-2.61.66-5.01988.28-6.59988-1.31Zm1.26988-5.95c-.42988,1.7-.25988,3.19.61012,4.07.87988.87,2.36988,1.04,4.06988.61a14.72338,14.72338,0,0,0,9.59012-9.59c.43-1.7.26-3.19-.61-4.06-.88013-.88-2.37013-1.05-4.07-.62a14.77882,14.77882,0,0,0-9.59012,9.59Z"/>
    <path class="cls-23" d="M1431.98,43.95c2.46,2.46,1.1099,7.79-3.0101,11.92-4.12,4.12-9.4599,5.47-11.9099,3.01l-26.71-26.71c-2.4601-2.46-1.11-7.79,3.01-11.91s9.4599-5.47,11.92-3.01Z"/>
    <path class="cls-12" d="M1432.93,43.01c1.58,1.58,1.96,3.99,1.31,6.6a17.35111,17.35111,0,0,1-11.5301,11.52c-2.61.66-5.0099.28-6.5999-1.31l-26.7-26.7c-1.59-1.59-1.97-4-1.31-6.6a16.14861,16.14861,0,0,1,4.32-7.2,16.08442,16.08442,0,0,1,7.2-4.33c2.61-.66,5.01-.27,6.6,1.31Zm-1.8901,1.89-26.71-26.71c-.8699-.87-2.36-1.04-4.0599-.61a13.44443,13.44443,0,0,0-5.97,3.62,13.566,13.566,0,0,0-3.6201,5.96c-.4299,1.71-.26,3.2.6101,4.07L1418,57.94c.87.87,2.36,1.04,4.0699.61a14.73677,14.73677,0,0,0,9.5801-9.59c.43-1.7.26-3.19-.6101-4.06Z"/>
    <path class="cls-24" d="M1390.38,32.14c-2.46-2.46-1.1101-7.79,3.0099-11.91s9.4601-5.47,11.9201-3.01c2.4599,2.45,1.11,7.79-3.01,11.91-4.1301,4.12-9.4601,5.47-11.92,3.01Z"/>
    <path class="cls-12" d="M1389.44,33.08c-1.59-1.58-1.97-3.99-1.31-6.59a16.22863,16.22863,0,0,1,4.3199-7.21,16.14967,16.14967,0,0,1,7.2-4.32c2.61-.66,5.0201-.27,6.6001,1.31,1.59,1.59,1.97,3.99,1.31,6.6a16.14861,16.14861,0,0,1-4.32,7.2,16.14914,16.14914,0,0,1-7.2,4.32c-2.61.66-5.02.28-6.6-1.31Zm1.27-5.95c-.43,1.71-.26,3.2.61,4.07.88.87,2.3699,1.04,4.07.61a13.47277,13.47277,0,0,0,5.96-3.62,13.49911,13.49911,0,0,0,3.6299-5.96c.4301-1.71.26-3.2-.6199-4.07-.8701-.88-2.3601-1.05-4.0601-.61a13.276,13.276,0,0,0-5.96,3.62,13.5,13.5,0,0,0-3.6299,5.96Z"/>
    <path class="cls-23" d="M1368.02,53.93c-2.47012,2.48-7.8,1.16-11.90012-2.94-4.09-4.1-5.41-9.42-2.93988-11.89l26.86987-26.87c2.47013-2.48,7.80013-1.16,11.90013,2.94,4.09,4.1,5.41,9.42,2.9399,11.89Z"/>
    <path class="cls-12" d="M1368.96,54.88c-1.59,1.58-3.99,1.98-6.6,1.34a15.87039,15.87039,0,0,1-7.18-4.29,15.84439,15.84439,0,0,1-4.28012-7.18c-.65-2.6-.24988-5.01,1.34012-6.6l26.86987-26.86c1.59-1.59,3.99013-1.99,6.60013-1.35a15.934,15.934,0,0,1,7.18,4.28,16.01433,16.01433,0,0,1,4.28,7.19c.65,2.6.2499,5.01-1.3401,6.6ZM1363,53.63c1.7.42,3.19.24,4.08-.64l26.8599-26.87c.8901-.88,1.0701-2.38.6501-4.08a13.30459,13.30459,0,0,0-3.59-5.93,13.08293,13.08293,0,0,0-5.9301-3.58c-1.6999-.42-3.1899-.24-4.0799.64l-26.87,26.87c-.88012.88-1.06012,2.38-.64,4.08a13.30425,13.30425,0,0,0,3.58988,5.93A13.08288,13.08288,0,0,0,1363,53.63Z"/>
    <path class="cls-21" d="M1380.08,12.26c2.4699-2.47,7.7999-1.16,11.8999,2.94,4.0901,4.1,5.4101,9.42,2.9401,11.9-2.48,2.47-7.8,1.15-11.9001-2.95-4.1-4.09-5.41-9.42-2.9399-11.89Z"/>
    <path class="cls-12" d="M1379.14,11.32c1.59-1.59,3.9899-1.99,6.5999-1.35a15.95947,15.95947,0,0,1,7.18,4.29,15.84345,15.84345,0,0,1,4.2801,7.18c.65,2.6.25,5.01-1.34,6.6s-4,1.98-6.6,1.34a15.93456,15.93456,0,0,1-7.18013-4.28,15.89644,15.89644,0,0,1-4.28-7.18c-.65-2.61-.24987-5.01,1.34013-6.6Zm5.96,1.24c-1.7001-.42-3.19013-.24-4.08.64-.88013.88-1.06013,2.38-.64,4.08a13.26161,13.26161,0,0,0,3.5799,5.93A13.2789,13.2789,0,0,0,1389.9,26.8c1.7.42,3.19.24,4.08-.65.88-.88,1.06-2.37.6399-4.08a13.3043,13.3043,0,0,0-3.5899-5.93,13.17256,13.17256,0,0,0-5.93-3.58Z"/>
    <rect class="cls-11" x="1356.55077" y="14.0483" width="67.8434" height="67.8434" transform="translate(373.24111 997.15659) rotate(-44.99403)"/>
    <path class="cls-23" d="M1402.2599,73.67c2.4601,2.46,1.11,7.79-3.0099,11.92-4.12,4.12-9.45,5.47-11.91,3.01l-26.71012-26.71C1358.17,59.43,1359.52,54.1,1363.64,49.98c4.13-4.12,9.46-5.47,11.91987-3.02Z"/>
    <path class="cls-11" d="M1403.2099,72.73c1.58,1.58,1.9701,3.99,1.31,6.6A17.35029,17.35029,0,0,1,1392.99,90.85c-2.6001.66-5.0101.28-6.6001-1.31l-26.7-26.71c-1.59-1.58-1.97-3.99-1.31-6.59A17.29813,17.29813,0,0,1,1369.9,44.71c2.61-.66,5.02-.27,6.59987,1.31Zm-1.2799,5.95c.4299-1.7.26-3.19-.6101-4.07l-26.7-26.7c-.87987-.88-2.36987-1.05-4.06987-.61a14.73634,14.73634,0,0,0-9.59,9.58c-.43012,1.71-.26012,3.2.61,4.07l26.71,26.7c.87.88,2.36,1.05,4.0699.62a14.73621,14.73621,0,0,0,9.5801-9.59Z"/>
    <path class="cls-10" d="M1360.66,61.86c-2.46012-2.46-1.11-7.79,3.01-11.91,4.12988-4.13,9.45987-5.47,11.92-3.02,2.46,2.46,1.11,7.8-3.01013,11.92-4.13,4.12-9.45987,5.47-11.91987,3.01Z"/>
    <path class="cls-11" d="M1359.72,62.8c-1.59-1.58-1.97-3.99-1.31-6.6a17.31,17.31,0,0,1,11.52-11.52c2.61-.66,5.02-.27,6.6,1.31,1.59,1.59,1.97,3.99,1.31,6.6a17.30983,17.30983,0,0,1-11.52012,11.52c-2.61.66-5.01988.28-6.59988-1.31Zm1.26988-5.95c-.42988,1.7-.25988,3.19.61012,4.07.87988.87,2.36988,1.04,4.06988.61a14.72338,14.72338,0,0,0,9.59012-9.59c.43-1.7.26-3.19-.61-4.06-.88013-.88-2.37013-1.05-4.07-.62a14.77882,14.77882,0,0,0-9.59012,9.59Z"/>
    <path class="cls-23" d="M1431.98,43.95c2.46,2.46,1.1099,7.79-3.0101,11.92-4.12,4.12-9.4599,5.47-11.9099,3.01l-26.71-26.71c-2.4601-2.46-1.11-7.79,3.01-11.91s9.4599-5.47,11.92-3.01Z"/>
    <path class="cls-11" d="M1432.93,43.01c1.58,1.58,1.96,3.99,1.31,6.6a17.35111,17.35111,0,0,1-11.5301,11.52c-2.61.66-5.0099.28-6.5999-1.31l-26.7-26.7c-1.59-1.59-1.97-4-1.31-6.6a16.14861,16.14861,0,0,1,4.32-7.2,16.08442,16.08442,0,0,1,7.2-4.33c2.61-.66,5.01-.27,6.6,1.31Zm-1.8901,1.89-26.71-26.71c-.8699-.87-2.36-1.04-4.0599-.61a13.44443,13.44443,0,0,0-5.97,3.62,13.566,13.566,0,0,0-3.6201,5.96c-.4299,1.71-.26,3.2.6101,4.07L1418,57.94c.87.87,2.36,1.04,4.0699.61a14.73677,14.73677,0,0,0,9.5801-9.59c.43-1.7.26-3.19-.6101-4.06Z"/>
    <path class="cls-25" d="M1390.38,32.14c-2.46-2.46-1.1101-7.79,3.0099-11.91s9.4601-5.47,11.9201-3.01c2.4599,2.45,1.11,7.79-3.01,11.91-4.1301,4.12-9.4601,5.47-11.92,3.01Z"/>
    <path class="cls-11" d="M1389.44,33.08c-1.59-1.58-1.97-3.99-1.31-6.59a16.14742,16.14742,0,0,1,4.3199-7.2,16.08546,16.08546,0,0,1,7.2-4.33c2.61-.66,5.0101-.27,6.6001,1.31,1.59,1.59,1.97,3.99,1.31,6.6a16.14861,16.14861,0,0,1-4.32,7.2,16.14914,16.14914,0,0,1-7.2,4.32c-2.61.66-5.02.28-6.6-1.31Zm1.88-1.88c.88.87,2.3699,1.04,4.07.61a13.47277,13.47277,0,0,0,5.96-3.62,13.49911,13.49911,0,0,0,3.6299-5.96c.4301-1.71.26-3.2-.6199-4.07-.8701-.88-2.3601-1.05-4.0601-.61a13.276,13.276,0,0,0-5.96,3.62,13.5,13.5,0,0,0-3.6299,5.96c-.43,1.71-.26,3.2.61,4.07Z"/>
    <path class="cls-23" d="M1368.02,53.93c-2.47012,2.48-7.8,1.16-11.90012-2.94-4.09-4.1-5.41-9.42-2.93988-11.89l26.86987-26.87c2.47013-2.48,7.80013-1.16,11.90013,2.94,4.09,4.1,5.41,9.42,2.9399,11.89Z"/>
    <path class="cls-11" d="M1368.96,54.88c-1.59,1.58-3.99,1.98-6.6,1.34a15.87039,15.87039,0,0,1-7.18-4.29,15.84439,15.84439,0,0,1-4.28012-7.18c-.65-2.6-.24988-5.01,1.34012-6.6l26.86987-26.86c1.59-1.59,3.99013-1.99,6.60013-1.35a15.934,15.934,0,0,1,7.18,4.28,16.01433,16.01433,0,0,1,4.28,7.19c.65,2.6.2499,5.01-1.3401,6.6ZM1363,53.63c1.7.42,3.19.24,4.08-.64l26.8599-26.87c.8901-.88,1.0701-2.38.6501-4.08a13.30459,13.30459,0,0,0-3.59-5.93,13.08293,13.08293,0,0,0-5.9301-3.58c-1.6999-.42-3.1899-.24-4.0799.64l-26.87,26.87c-.88012.88-1.06012,2.38-.64,4.08a13.30425,13.30425,0,0,0,3.58988,5.93A13.08288,13.08288,0,0,0,1363,53.63Z"/>
    <path class="cls-21" d="M1380.08,12.26c2.4699-2.47,7.7999-1.16,11.8999,2.94,4.0901,4.1,5.4101,9.42,2.9401,11.9-2.48,2.47-7.8,1.15-11.9001-2.95-4.1-4.09-5.41-9.42-2.9399-11.89Z"/>
    <path class="cls-11" d="M1379.14,11.32c1.59-1.59,3.9899-1.99,6.5999-1.35a15.95947,15.95947,0,0,1,7.18,4.29,15.84345,15.84345,0,0,1,4.2801,7.18c.65,2.6.25,5.01-1.34,6.6s-4,1.98-6.6,1.34a15.93456,15.93456,0,0,1-7.18013-4.28,15.89644,15.89644,0,0,1-4.28-7.18c-.65-2.61-.24987-5.01,1.34013-6.6Zm5.96,1.24c-1.7001-.42-3.19013-.24-4.08.64-.88013.88-1.06013,2.38-.64,4.08a13.26161,13.26161,0,0,0,3.5799,5.93A13.2789,13.2789,0,0,0,1389.9,26.8c1.7.42,3.19.24,4.0699-.65.8901-.88,1.0701-2.37.65-4.08a13.3043,13.3043,0,0,0-3.5899-5.93,13.17256,13.17256,0,0,0-5.93-3.58Z"/>
    <polygon class="cls-7" points="95.57 48.03 47.79 95.82 0 48.03 47.79 0.25 95.57 48.03"/>
    <path class="cls-1" d="M69.8,57.76l6.46,9.58L55.88,87.72l-9.64-6.4L41.65,83.5l-9.28-4.82s3.57-4.28,3.79-4.5a16.14467,16.14467,0,0,0,.89-2.42L28.18,61.02s-1.52-6.07-1.48-6.38c.05-.31,2.68-5.36,2.68-5.36l-5.31-1.02-7.18-7.9L18,32.65l4.37-3.63,6.83.09,4.42,3.72,2.36,3.16.9,3.12,1.11,1.65,6.17-1.32a58.86119,58.86119,0,0,1,5.79,1.23c.27.27,10.51,8.58,10.51,8.58l4.21-2.78,3.09-1.01,2.8,5.38,1.38,4.6Z"/>
    <path class="cls-13" d="M40.33,18.76c.46-.64,11.32-10.68,11.32-10.68l3.41,1.75,4.59,5.24.98,3.37L50.46,29.62a19.46331,19.46331,0,0,1-1.15,3.09,6.77213,6.77213,0,0,1-2.26.41l-1.98-2.81s-2.76-4.32-2.99-4.65c-.23-.32-3.4-4.41-3.4-4.41Z"/>
    <path class="cls-26" d="M58.53,15.76l-4.9-4.9a2.1366,2.1366,0,0,0-3.03,0l-9.26,9.25a2.167,2.167,0,0,0,0,3.04l5.04,5.03,1.11,3.42a.25448.25448,0,0,0,.27.19.26413.26413,0,0,0,.27-.19l1.11-3.42,9.39-9.39a2.13661,2.13661,0,0,0,0-3.03ZM51.08,32.59a3.49422,3.49422,0,0,1-6.65,0l-.87-2.68-4.49-4.49a5.3656,5.3656,0,0,1,0-7.58l9.25-9.25a5.3777,5.3777,0,0,1,7.59,0l4.89,4.89a5.3777,5.3777,0,0,1,0,7.59l-8.84,8.84Z"/>
    <path class="cls-26" d="M51.65,16.95l-4.22,4.22a1.60867,1.60867,0,0,1-2.27-2.28l4.22-4.21a1.60513,1.60513,0,0,1,2.27,2.27Z"/>
    <path class="cls-26" d="M54.71,20.01,50.5,24.23a1.60867,1.60867,0,0,1-2.28-2.27l4.22-4.22a1.60513,1.60513,0,1,1,2.27,2.27Z"/>
    <polygon class="cls-21" points="67.69 45.53 71.97 53.86 69.73 57.83 76.19 67.41 55.8 87.8 46.17 81.39 42.09 84.43 32.3 78.75 64.6 46.54 67.69 45.53"/>
    <path class="cls-25" d="M41.45,53.58a3.09713,3.09713,0,1,0,4.38,0,3.09623,3.09623,0,0,0-4.38,0Z"/>
    <path class="cls-26" d="M34.88,78.75l6.26,3.83a1.31976,1.31976,0,0,0,1.63-.2l.76-.76L56.54,68.61l13-13,.77-.77a1.31566,1.31566,0,0,0,.19-1.62l-3.83-6.26a.24525.24525,0,0,0-.18-.11.2018.2018,0,0,0-.19.07l-3.47,3.47L38.31,74.91l-3.47,3.46a.2283.2283,0,0,0-.07.2.24525.24525,0,0,0,.11.18ZM77.09,66.51l-2.24,2.24-5.74-8.3L58.74,70.82,48.37,81.18l8.3,5.75-2.24,2.24-8.3-5.75-1.16,1.17a4.447,4.447,0,0,1-5.46.65L33.57,81.6l-1.58-1.58a3.39263,3.39263,0,0,1,.65-3.85L36.1,72.7l-7.02-7.02a12.07191,12.07191,0,0,1-1.46-15.29,10.29447,10.29447,0,0,1-6.97-3.02l-2.69-2.69a10.37064,10.37064,0,0,1-.47-14.14l.97-.96a10.34987,10.34987,0,0,1,14.14.46l2.69,2.68a10.33745,10.33745,0,0,1,3.02,6.98A12.07191,12.07191,0,0,1,53.6,41.16l7.02,7.02,3.47-3.47a3.37021,3.37021,0,0,1,5.24.63l3.83,6.25a4.447,4.447,0,0,1-.65,5.46l-1.16,1.16ZM45.02,57.09a1.81726,1.81726,0,0,0-2.57-2.57,1.81726,1.81726,0,1,0,2.57,2.57ZM51.4,43.36a8.967,8.967,0,0,0-11.37-1.05A7.33475,7.33475,0,0,1,30.02,52.43a8.96017,8.96017,0,0,0,1.26,11.05l7.03,7.02,8.95-8.96-1.32-1.32a4.93561,4.93561,0,1,1,2.2-2.2l1.33,1.32,8.95-8.95ZM31.6,49.74a4.213,4.213,0,0,0,5.88-5.61,10.20122,10.20122,0,0,1-2.19,3.24,10.3154,10.3154,0,0,1-3.69,2.37Zm-1.2-17.5A7.24077,7.24077,0,0,0,20.16,42.48l2.69,2.69A7.24077,7.24077,0,0,0,33.09,34.93Z"/>
    <rect class="cls-13" x="138.59883" y="2.07509" width="33.96234" height="67.83982" transform="translate(20.13363 120.58257) rotate(-45.01193)"/>
    <path class="cls-27" d="M167.94,23.64a33.86334,33.86334,0,1,0-1.72,49.5l3.34-3.34a33.8688,33.8688,0,0,0-1.62-46.16Z"/>
    <rect class="cls-5" x="114.58383" y="26.09009" width="33.96234" height="67.83982" transform="translate(-3.90951 110.57882) rotate(-44.98807)"/>
  </g>
</svg>
