<svg id="Слой_1" data-name="Слой 1" xmlns="http://www.w3.org/2000/svg" viewBox="0 0 574.5 72">
  <defs>
    <style>
      .cls-1 {
        fill: #ff9a00;
      }

      .cls-2 {
        fill: #fff;
      }

      .cls-3, .cls-6 {
        fill: #fea49c;
      }

      .cls-4 {
        fill: #32323e;
      }

      .cls-5, .cls-9 {
        fill: #08e6e7;
      }

      .cls-12, .cls-15, .cls-16, .cls-20, .cls-5, .cls-6 {
        fill-rule: evenodd;
      }

      .cls-12, .cls-7 {
        fill: #ed553b;
      }

      .cls-16, .cls-8 {
        fill: #31313e;
      }

      .cls-10 {
        fill: #fcf9d3;
      }

      .cls-11, .cls-20 {
        fill: #f5ffff;
      }

      .cls-13 {
        fill: #ff9ef6;
      }

      .cls-14 {
        fill: #39175f;
      }

      .cls-15 {
        fill: #173f5f;
      }

      .cls-17 {
        fill: #fe9900;
      }

      .cls-18 {
        fill: #fffef8;
      }

      .cls-19 {
        fill: #563f42;
      }
    </style>
  </defs>
  <g>
    <polygon class="cls-1" points="71.542 35.767 35.767 71.542 0 35.767 35.767 0 71.542 35.767"/>
    <path class="cls-2" d="M52.2525,43.0575l4.83,7.17-15.255,15.255L34.62,60.69l-3.4425,1.635-6.945-3.6075s2.67-3.21,2.835-3.375a11.762,11.762,0,0,0,.6675-1.8075l-6.645-8.04s-1.1325-4.545-1.1025-4.7775c.0375-.2325,2.0025-4.005,2.0025-4.005L18.0225,35.94,12.645,30.03l.8325-5.775,3.27-2.715,5.1075.0675L25.17,24.39l1.77,2.37.6675,2.3325L28.44,30.33l4.62-.99a43.90382,43.90382,0,0,1,4.3275.9225c.2025.2025,7.875,6.42,7.875,6.42l3.15-2.0775,2.31-.7575,2.1,4.0275L53.85,41.3175Z"/>
    <path class="cls-3" d="M30.195,13.86c.345-.48,8.475-7.995,8.475-7.995l2.55,1.3125L44.655,11.1l.7275,2.52L37.77,21.99a14.28483,14.28483,0,0,1-.8625,2.31,5.04088,5.04088,0,0,1-1.6875.3075l-1.4775-2.1s-2.07-3.24-2.2425-3.48S28.95,15.72,28.95,15.72Z"/>
    <path class="cls-4" d="M43.815,11.61,40.1475,7.95a1.60245,1.60245,0,0,0-2.2725,0l-6.93,6.9225a1.6161,1.6161,0,0,0,0,2.2725l3.7725,3.765.8325,2.5575a.18863.18863,0,0,0,.2025.15.19521.19521,0,0,0,.2025-.15l.8325-2.5575,7.0275-7.0275a1.6161,1.6161,0,0,0,0-2.2725ZM38.2425,24.2175a2.63744,2.63744,0,0,1-.645,1.05,2.6213,2.6213,0,0,1-4.335-1.05l-.6525-2.01-3.36-3.36a4.01514,4.01514,0,0,1,0-5.6775l6.9225-6.9225a4.01514,4.01514,0,0,1,5.6775,0l3.6675,3.66a4.0288,4.0288,0,0,1,0,5.6775L38.895,22.2075Z"/>
    <path class="cls-4" d="M38.6625,12.5025,35.505,15.66a1.19958,1.19958,0,0,1-1.7025,0,1.21326,1.21326,0,0,1,0-1.7025L36.96,10.8a1.21326,1.21326,0,0,1,1.7025,0,1.19958,1.19958,0,0,1,0,1.7025Z"/>
    <path class="cls-4" d="M40.9575,14.7975,37.8,17.955a1.21327,1.21327,0,0,1-1.7025,0,1.19959,1.19959,0,0,1,0-1.7025L39.255,13.095a1.19959,1.19959,0,0,1,1.7025,0,1.21327,1.21327,0,0,1,0,1.7025Z"/>
    <polygon class="cls-5" points="50.67 33.9 53.872 40.132 52.2 43.11 57.03 50.28 41.775 65.542 34.568 60.743 31.507 63.023 24.18 58.77 48.36 34.657 50.67 33.9"/>
    <path class="cls-6" d="M31.0275,39.9225a2.31754,2.31754,0,1,0,3.2775,0,2.31313,2.31313,0,0,0-3.2775,0Z"/>
    <path class="cls-4" d="M26.115,58.77l4.68,2.865a.978.978,0,0,0,1.215-.15l.5775-.57,9.735-9.735,9.735-9.735.57-.57a.9975.9975,0,0,0,.1425-1.2225l-2.865-4.68a.163.163,0,0,0-.1275-.0825.174.174,0,0,0-.15.045l-2.595,2.6025L28.6725,55.89l-2.595,2.595a.18.18,0,0,0,.0375.285Zm31.5975-9.165-1.68,1.6725-4.305-6.21L43.9725,52.83,36.21,60.5925,42.42,64.89l-1.68,1.68-6.21-4.305-.87.87a3.30366,3.30366,0,0,1-4.08.4875L25.125,60.9l-1.1775-1.1775a2.5152,2.5152,0,0,1-.2325-.81,2.48186,2.48186,0,0,1,.7125-2.0775L27.03,54.24l-5.2575-5.2575a9.02272,9.02272,0,0,1-1.095-11.445,7.68874,7.68874,0,0,1-5.22-2.265l-2.01-2.01A7.74948,7.74948,0,0,1,13.095,22.68l.72-.72a7.75887,7.75887,0,0,1,10.59.345l2.01,2.01a7.73739,7.73739,0,0,1,2.265,5.22A9.02272,9.02272,0,0,1,40.125,30.63l5.2575,5.2575,2.595-2.595a2.51367,2.51367,0,0,1,3.9225.465l2.865,4.68a3.32573,3.32573,0,0,1-.4875,4.0875l-.87.87Zm-24.015-7.05a1.36031,1.36031,0,1,0-1.92,0,1.35348,1.35348,0,0,0,1.92,0ZM38.475,32.28a6.70551,6.70551,0,0,0-8.5125-.795A5.49175,5.49175,0,0,1,22.47,39.0675a6.69951,6.69951,0,0,0,.9525,8.265l5.25,5.2575,6.705-6.705-.99-.99a3.6911,3.6911,0,1,1,1.65-1.65l.99.99,6.705-6.6975Zm-14.82,4.77a3.15473,3.15473,0,0,0,4.4025-4.2,7.53843,7.53843,0,0,1-1.6425,2.4225,7.70861,7.70861,0,0,1-2.76,1.7775Zm-.9-13.095a5.41732,5.41732,0,1,0-7.665,7.6575l2.0175,2.01A5.41467,5.41467,0,0,0,24.765,25.965Z"/>
    <path class="cls-7" d="M107.325.5475l.72-.0075,2.0325,2.0325h-4.785ZM103.26,4.605h8.85l2.0325,2.0325h-12.915ZM99.195,8.67h16.9725L118.2,10.7025H97.1625Zm-4.0575,4.065h25.095l2.0325,2.025H93.105Zm-4.065,4.0575h33.225L126.33,18.825H89.04Zm-4.065,4.065H128.355l2.0325,2.0325H84.975ZM82.95,24.9225h49.47l2.0325,2.025-53.535.0075ZM78.885,28.98h57.6l2.0325,2.0325H76.8525ZM74.82,33.045h65.7225l2.0325,2.0325H72.7875ZM72.7875,37.11H142.575l-2.0325,2.0325L74.82,39.135Zm4.065,4.0575h61.665L136.485,43.2h-57.6Zm4.065,4.065h53.535L132.42,47.265H82.95Zm4.0575,4.065h45.4125L128.355,51.33H87.0075ZM89.04,53.355h37.29l-2.0325,2.0325H91.0725Zm4.065,4.065h29.16l-2.0325,2.0325H95.1375Zm4.065,4.065H118.2l-2.0325,2.0325H99.195Zm4.0575,4.0575h12.915L112.11,67.575h-8.85Zm4.065,4.065h4.785L108.045,71.64h-.72Z"/>
    <polygon class="cls-7" points="143.595 36.09 107.685 72 107.685 0.18 143.595 36.09"/>
    <path class="cls-7" d="M107.325.5475l.72-.0075,2.0325,2.0325h-4.785ZM103.26,4.605h8.85l2.0325,2.0325h-12.915ZM99.195,8.67h16.9725L118.2,10.7025H97.1625Zm-4.0575,4.065h25.095l2.0325,2.025H93.105Zm-4.065,4.0575h33.225L126.33,18.825H89.04Zm-4.065,4.065H128.355l2.0325,2.0325H84.975ZM82.95,24.9225h49.47l2.0325,2.025-53.535.0075ZM78.885,28.98h57.6l2.0325,2.0325H76.8525ZM74.82,33.045h65.7225l2.0325,2.0325H72.7875ZM72.7875,37.11H142.575l-2.0325,2.0325L74.82,39.135Zm4.065,4.0575h61.665L136.485,43.2h-57.6Zm4.065,4.065h53.535L132.42,47.265H82.95Zm4.0575,4.065h45.4125L128.355,51.33H87.0075ZM89.04,53.355h37.29l-2.0325,2.0325H91.0725Zm4.065,4.065h29.16l-2.0325,2.0325H95.1375Zm4.065,4.065H118.2l-2.0325,2.0325H99.195Zm4.0575,4.0575h12.915L112.11,67.575h-8.85Zm4.065,4.065h4.785L108.045,71.64h-.72Z"/>
    <polygon class="cls-7" points="143.595 36.09 107.685 72 107.685 0.18 143.595 36.09"/>
    <path class="cls-8" d="M121.41,15.405a.56369.56369,0,0,0-.3975.39l-2.205,8.2125-1.9275-1.935a4.54028,4.54028,0,0,0-6.405,0L106.5075,26.04a7.5466,7.5466,0,1,0-4.1475,4.1475l-5.355,5.355a5.52344,5.52344,0,1,0-3.5175,3.525l-2.91,2.9025a4.54028,4.54028,0,0,0,0,6.405l.1725.1725L88.455,50.85a.55678.55678,0,0,0,0,.7875l9.45,9.4575a.56586.56586,0,0,0,.795,0l2.3025-2.3025.1725.18a4.54028,4.54028,0,0,0,6.405,0L127.47,39.075a4.52665,4.52665,0,0,0,0-6.405l-1.9275-1.935,8.205-2.1975a.53634.53634,0,0,0,.3975-.3975.55271.55271,0,0,0-.1425-.54L121.95,15.5475a.55725.55725,0,0,0-.54-.1425Z"/>
    <path class="cls-2" d="M120.57,14.9625a1.43593,1.43593,0,0,1,.6225-.36,1.46241,1.46241,0,0,1,.72,0,1.4929,1.4929,0,0,1,.6225.36L134.5875,27.015a1.38819,1.38819,0,0,1,.36,1.3425,1.48037,1.48037,0,0,1-.36.6225,1.853,1.853,0,0,1-.2925.2175,1.82705,1.82705,0,0,1-.33.1425l-6.825,1.8225.915.9225a5.35956,5.35956,0,0,1,0,7.575l-19.89,19.8975a5.37019,5.37019,0,0,1-7.14.3825l-1.74,1.74a1.38514,1.38514,0,0,1-1.9575,0H97.32l-9.45-9.4575a1.38514,1.38514,0,0,1,0-1.9575l1.7325-1.74a5.38253,5.38253,0,0,1,.39-7.14L91.23,40.1475a6.98009,6.98009,0,0,1-.9525-.15,6.35713,6.35713,0,0,1,1.4775-12.54q.28125,0,.5625.0225a8.37441,8.37441,0,1,1,15.57-3.9825l2.0025-2.01a5.35956,5.35956,0,0,1,7.575,0l.915.9225,1.83-6.825a1.43593,1.43593,0,0,1,.36-.6225Zm1.1175,1.5L119.235,25.605l-2.94-2.9475a3.7119,3.7119,0,0,0-5.235,0L91.1625,42.555a3.7119,3.7119,0,0,0,0,5.235l.765.7575-2.7,2.7,9.075,9.075,2.7-2.7.7575.765a3.7119,3.7119,0,0,0,5.235,0L126.885,38.49a3.7119,3.7119,0,0,0,0-5.235l-2.9475-2.9475,9.15-2.445Zm-17.01,11.895,1.065-2.625a6.763,6.763,0,0,0,.36-3.885,6.60618,6.60618,0,0,0-1.8375-3.405,6.71921,6.71921,0,1,0-2.2125,10.98Zm-6.825,3.045c-.0825-.015-.1575-.03-.24-.0525a5.86882,5.86882,0,0,1,.3225.99,6.64092,6.64092,0,0,1,.1575.9525l1.725-1.725a8.62746,8.62746,0,0,1-1.965-.165Zm-2.37,6.135.735-2.25A4.701,4.701,0,1,0,90.66,38.385a4.76285,4.76285,0,0,0,2.5725-.105Z"/>
    <polygon class="cls-9" points="179.497 72 215.407 36.09 179.497 0.188 143.595 36.09 179.497 72"/>
    <path class="cls-10" d="M194.355,21.24c-9.57-9.5625-23.97751-10.6725-32.175-2.475a24.50125,24.50125,0,0,1,34.65,34.65c8.19749-8.1975,7.095-22.605-2.475-32.175Z"/>
    <path class="cls-1" d="M164.655,50.94c9.57,9.57,23.97,10.6725,32.175,2.475,8.19749-8.1975,7.095-22.605-2.475-32.175-9.57-9.5625-23.97751-10.6725-32.175-2.475-8.19751,8.205-7.095,22.605,2.475,32.175Z"/>
    <path class="cls-11" d="M162.81,19.395a23.6103,23.6103,0,1,1,0,33.39,23.62688,23.62688,0,0,1,0-33.39Zm34.65,34.65a25.38547,25.38547,0,1,0-17.955,7.4325A25.21691,25.21691,0,0,0,197.46,54.045Z"/>
    <path class="cls-11" d="M203.97,42.2475,202.8,40.905c-3.03,2.6475-6.26251,3.78-9.615,3.3825-6.35251-.75-11.43751-6.765-12.66751-8.34a22.33605,22.33605,0,0,0-.36749-17.82,21.40326,21.40326,0,0,0-4.83751-6.7425L174.15,12.735a19.97529,19.97529,0,0,1,4.425,6.21c2.43,5.265,2.46,10.92.105,16.815a.90027.90027,0,0,0,.09749.8475c.24751.345,6.12,8.49,14.19,9.45,3.87751.4575,7.575-.825,11.00251-3.81Z"/>
    <path class="cls-11" d="M179.415,36.6975l-.36751-1.74a41.23169,41.23169,0,0,0-9.585,3.5175c-6.45,3.375-9.915,7.8975-10.02,13.0725l1.77751.0375c.09-4.545,3.135-8.415,9.03-11.5125a40.01616,40.01616,0,0,1,9.165-3.375Z"/>
    <path class="cls-2" d="M189.99,59.16l-.12751-1.7775C184.215,57.7875,178.74,55.23,173.595,49.785a41.47057,41.47057,0,0,1-6.15-8.4975l-1.59.8025a42.7341,42.7341,0,0,0,6.41249,8.8875,29.44812,29.44812,0,0,0,7.56751,5.925A18.67772,18.67772,0,0,0,189.99,59.16Z"/>
    <path class="cls-2" d="M180.71249,22.725l-.27749-1.7625a49.87854,49.87854,0,0,0-10.98,3.345,35.65813,35.65813,0,0,0-8.715,5.25,21.50533,21.50533,0,0,0-6.435,8.7225l1.665.6375c2.58-6.7425,9.15-10.7775,14.19749-12.9825a48.24828,48.24828,0,0,1,10.545-3.21Z"/>
    <path class="cls-11" d="M191.49749,45.1425A29.20948,29.20948,0,0,0,195,34.935a28.08236,28.08236,0,0,0-.32251-10.425A29.32952,29.32952,0,0,0,188.85,12.615l-1.395,1.1025A26.19842,26.19842,0,0,1,193.25249,34.59a28.01194,28.01194,0,0,1-3.27,9.615Z"/>
    <path class="cls-12" d="M197.445,18.15a25.37642,25.37642,0,1,1-17.955-7.44,25.42424,25.42424,0,0,1,17.955,7.44Z"/>
    <path class="cls-9" d="M194.355,21.24c-9.57-9.5625-23.97751-10.6725-32.175-2.475a24.50125,24.50125,0,0,1,34.65,34.65c8.19749-8.1975,7.095-22.605-2.475-32.175Z"/>
    <path class="cls-1" d="M164.655,50.94c9.57,9.57,23.97,10.6725,32.175,2.475,8.19749-8.1975,7.095-22.605-2.475-32.175-9.57-9.5625-23.97751-10.6725-32.175-2.475-8.19751,8.205-7.095,22.605,2.475,32.175Z"/>
    <path class="cls-2" d="M162.81,19.395a23.6103,23.6103,0,1,1,0,33.39,23.62688,23.62688,0,0,1,0-33.39Zm34.65,34.65a25.38547,25.38547,0,1,0-17.955,7.4325A25.21691,25.21691,0,0,0,197.46,54.045Z"/>
    <path class="cls-2" d="M203.97,42.2475,202.8,40.905c-3.03,2.6475-6.26251,3.78-9.615,3.3825-6.35251-.75-11.43751-6.765-12.66751-8.34a22.33605,22.33605,0,0,0-.36749-17.82,21.40326,21.40326,0,0,0-4.83751-6.7425L174.15,12.735a19.97529,19.97529,0,0,1,4.425,6.21c2.43,5.265,2.46,10.92.105,16.815a.90027.90027,0,0,0,.09749.8475c.24751.345,6.12,8.49,14.19,9.45,3.87751.4575,7.575-.825,11.00251-3.81Z"/>
    <path class="cls-2" d="M179.415,36.6975l-.36751-1.74a41.23169,41.23169,0,0,0-9.585,3.5175c-6.45,3.375-9.915,7.8975-10.02,13.0725l1.77751.0375c.09-4.545,3.135-8.415,9.03-11.5125a40.01616,40.01616,0,0,1,9.165-3.375Z"/>
    <path class="cls-2" d="M189.99,59.16l-.12751-1.7775C184.215,57.7875,178.74,55.23,173.595,49.785a41.47057,41.47057,0,0,1-6.15-8.4975l-1.59.8025a42.7341,42.7341,0,0,0,6.41249,8.8875,29.44812,29.44812,0,0,0,7.56751,5.925A18.67772,18.67772,0,0,0,189.99,59.16Z"/>
    <path class="cls-2" d="M180.71249,22.725l-.27749-1.7625a49.87854,49.87854,0,0,0-10.98,3.345,35.65813,35.65813,0,0,0-8.715,5.25,21.50533,21.50533,0,0,0-6.435,8.7225l1.665.6375c2.58-6.7425,9.15-10.7775,14.19749-12.9825a48.24828,48.24828,0,0,1,10.545-3.21Z"/>
    <path class="cls-2" d="M191.49749,45.1425A29.20948,29.20948,0,0,0,195,34.935a28.08236,28.08236,0,0,0-.32251-10.425A29.32952,29.32952,0,0,0,188.85,12.615l-1.395,1.1025A26.19842,26.19842,0,0,1,193.25249,34.59a28.01194,28.01194,0,0,1-3.27,9.615Z"/>
    <rect class="cls-8" x="225.92529" y="10.6978" width="50.78441" height="50.78441" transform="translate(48.08971 188.27882) rotate(-45)"/>
    <path class="cls-10" d="M236.385,51.03c-9.57-9.57-10.64251-24.015-2.39251-32.265a24.50125,24.50125,0,0,0,34.65,34.65c-8.25,8.25-22.695,7.1775-32.25749-2.385Z"/>
    <path class="cls-13" d="M266.25,21.1575c9.57,9.57,10.64249,24.0075,2.39249,32.2575s-22.695,7.1775-32.25749-2.385c-9.57-9.57-10.64251-24.015-2.39251-32.265s22.695-7.1775,32.25751,2.3925Z"/>
    <path class="cls-14" d="M234.62249,19.395a23.6103,23.6103,0,1,0,33.39,0,23.62914,23.62914,0,0,0-33.39,0Zm34.65,34.65A25.40355,25.40355,0,1,1,276.705,36.09a25.21025,25.21025,0,0,1-7.43251,17.955Z"/>
    <path class="cls-2" d="M259.11749,28.29a11.03087,11.03087,0,1,1-15.6,0,11.036,11.036,0,0,1,15.6,0Z"/>
    <path class="cls-14" d="M244.14749,28.92a10.13991,10.13991,0,1,0,14.34,0,10.15333,10.15333,0,0,0-14.34,0Zm15.6,15.6a11.91917,11.91917,0,1,1,0-16.8525,11.94591,11.94591,0,0,1,0,16.8525Z"/>
    <path class="cls-2" d="M236.385,51.03c-9.57-9.57-10.64251-24.015-2.39251-32.265a24.50125,24.50125,0,0,0,34.65,34.65c-8.25,8.25-22.695,7.1775-32.25749-2.385Z"/>
    <path class="cls-3" d="M266.25,21.1575c9.57,9.57,10.64249,24.0075,2.39249,32.2575s-22.695,7.1775-32.25749-2.385c-9.57-9.57-10.64251-24.015-2.39251-32.265s22.695-7.1775,32.25751,2.3925Z"/>
    <path class="cls-2" d="M259.11749,28.29a11.03087,11.03087,0,1,1-15.6,0,11.036,11.036,0,0,1,15.6,0Z"/>
    <path class="cls-8" d="M244.14749,28.92a10.13991,10.13991,0,1,0,14.34,0,10.15333,10.15333,0,0,0-14.34,0Zm15.6,15.6a11.91917,11.91917,0,1,1,0-16.8525,11.94591,11.94591,0,0,1,0,16.8525Z"/>
    <path class="cls-7" d="M266.09249,21.3225c-9.57-9.57-24.015-10.6425-32.265-2.3925a24.50125,24.50125,0,1,1,34.65,34.65c8.25-8.25,7.17751-22.695-2.385-32.2575Z"/>
    <path class="cls-8" d="M234.62249,19.395a23.6103,23.6103,0,1,0,33.39,0,23.62914,23.62914,0,0,0-33.39,0Zm34.65,34.65A25.40355,25.40355,0,1,1,276.705,36.09a25.21025,25.21025,0,0,1-7.43251,17.955Z"/>
    <rect class="cls-14" x="369.56099" y="10.69912" width="50.78176" height="50.78176" transform="translate(90.15924 289.84366) rotate(-45)"/>
    <path class="cls-7" d="M377.00249,18.135a25.39451,25.39451,0,0,1,0,35.91l-17.955-17.955Z"/>
    <path class="cls-7" d="M383.37749,34.9575a3.72023,3.72023,0,0,0-3.83249-.0525,1.339,1.339,0,1,0-2.28751.9525,1.32194,1.32194,0,0,0,.945.39,3.74708,3.74708,0,0,0,.05251,3.8475,1.19344,1.19344,0,0,1-.42751.1725,1.265,1.265,0,0,1-.78749-.105.70526.70526,0,0,0-.66751.045c-.14249.09-.29249.1725-.44249.255a.23783.23783,0,0,0,.03749.4275c1.88251.735,6.42751,2.6625,6.42751,2.6625l1.14,1.0875-.23251,1.9275L386.34,47.13l8.22749,9.705-.15749,2.07,2.595,5.46-.585,1.4325L397.8,67.17l12.66749-12.6675-1.32749-1.32-1.38.21-5.595-2.1675-1.995.09-9.765-8.175-.615-3.06-1.82251.0675-1.065-1.1025-2.805-6.3225a.23591.23591,0,0,0-.42-.03c-.06.1125-.14249.2475-.23249.3975a.709.709,0,0,0-.045.69,1.222,1.222,0,0,1,.12.7725,1.30444,1.30444,0,0,1-.14251.405Z"/>
    <path class="cls-15" d="M378.255,40.095a1.19344,1.19344,0,0,1-.42751.1725,1.265,1.265,0,0,1-.78749-.105.70526.70526,0,0,0-.66751.045c-.14249.09-.29249.1725-.44249.255a.23783.23783,0,0,0,.03749.4275c1.88251.735,6.42751,2.6625,6.42751,2.6625l1.14,1.0875-.23251,1.9275L386.34,47.13l8.22749,9.705-.15749,2.07,2.595,5.46-.585,1.4325L397.8,67.17l12.66749-12.6675-1.32749-1.32-1.38.21-5.595-2.1675-1.995.09-9.765-8.175-.615-3.06-1.82251.0675-1.065-1.1025-2.805-6.3225a.23591.23591,0,0,0-.42-.03c-.06.1125-.14249.2475-.23249.3975a.709.709,0,0,0-.045.69,1.222,1.222,0,0,1,.12.7725,1.30444,1.30444,0,0,1-.14251.405,3.72023,3.72023,0,0,0-3.83249-.0525,1.339,1.339,0,1,0-2.28751.9525,1.32194,1.32194,0,0,0,.945.39,3.74708,3.74708,0,0,0,.05251,3.8475Zm3.23249-6.9825q.2925.01125.585.045a1.933,1.933,0,0,1,.27751-.75c.045-.075.08249-.135.12-.195a1.45061,1.45061,0,0,1,.08249-.135c.00751-.015.00751-.0225.015-.03a1.47284,1.47284,0,0,1,.69751-.6225,1.66226,1.66226,0,0,1,.705-.135,1.481,1.481,0,0,1,.675.21,1.52054,1.52054,0,0,1,.56249.57c.02251.0375.045.0825.06751.1275l2.715,6.12.50249.525,1.23-.045A1.281,1.281,0,0,1,391.05,39.825l.525,2.61,9.045,7.575,1.38-.06a1.22175,1.22175,0,0,1,.63.075l5.28,2.04.945-.1425a1.28745,1.28745,0,0,1,1.2.345l1.32,1.3275h0a1.28106,1.28106,0,0,1,0,1.815L398.79,68.0025l-.08251.0825a1.29009,1.29009,0,0,1-1.82249,0l-1.37251-1.38h0a1.2885,1.2885,0,0,1-.27749-1.395l.36749-.9-2.355-4.95h0a1.19885,1.19885,0,0,1-.12-.6525L393.24,57.27l-7.58251-8.9625L383.07,47.835h0a1.2887,1.2887,0,0,1-1.04251-1.425l.15751-1.29-.50251-.4725c-.915-.39-4.62749-1.95-6.18749-2.565a1.48131,1.48131,0,0,1-.77251-.6675,1.46222,1.46222,0,0,1-.18749-.6375,1.57317,1.57317,0,0,1,.09749-.6675,1.5248,1.5248,0,0,1,.57-.705.68479.68479,0,0,1,.09751-.06c.08249-.045.15-.09.20249-.12l.21-.12h0a2.04763,2.04763,0,0,1,.75-.27,6.08364,6.08364,0,0,1-.05249-.6375,5.05593,5.05593,0,0,1,.14249-1.2525,2.18291,2.18291,0,0,1-.20249-.18,2.62514,2.62514,0,0,1,3.71249-3.7125,2.18008,2.18008,0,0,1,.18.2025,5.3749,5.3749,0,0,1,1.245-.1425Z"/>
    <path class="cls-13" d="M412.74,52.245l-1.38751-1.3875.59251-1.44-2.61751-5.49.165-2.0775-10.77-12.2625-3.06-.5625.23251-1.9425-1.14751-1.095-6.945-2.865L391.185,19.74l-1.82251-1.8225-1.965,1.965L385.605,18.09l1.965-1.965-1.56751-1.5675L387.795,12.765l1.56749,1.5675,1.965-1.965L393.12,14.16l-1.965,1.965,1.82249,1.8225,3.29251-3.285,3.015,6.795,1.07249,1.1025,1.83-.06.62251,3.0675,12.32249,10.725,2.00251-.09,5.63249,2.1825,1.38-.21,1.335,1.3275L412.74,52.245Z"/>
    <path class="cls-15" d="M411.825,53.16l-1.38-1.3875-.60751-.6075.32251-.795.36749-.9075L408.165,44.49l-.15-.315.02249-.345.12-1.5375L398.04,30.78l-2.61-.4875-1.2-.2175.15-1.2075.15749-1.2975-.50249-.4725-6.72751-2.775-1.8-.7425,1.38-1.3725.50251-.5025-.90751-.9075L384.69,19.0125l-.915-.9225.915-.915,1.05-1.05-.645-.6525-.92251-.915.915-.915L386.88,11.85l.915-.915.915.915.66.6525,1.04249-1.05.92251-.915.915.915,1.785,1.7925.915.9075.405-.405,1.32749-1.335.765,1.725,2.925,6.585.51.525,1.26-.045,1.095-.0375.21751,1.0725.53249,2.6475L415.59,34.98l1.485-.0675.285-.0075.24.09,5.31,2.055,1.04249-.1575.65251-.0975.465.4575,1.32749,1.335.92251.915-.92251.9225-12.735,12.735-.915.915Zm.915-.915-1.38751-1.3875.59251-1.44-2.61751-5.49.165-2.0775-10.77-12.2625-3.06-.5625.23251-1.9425-1.14751-1.095-6.945-2.865L391.185,19.74l-1.82251-1.8225-1.965,1.965L385.605,18.09l1.965-1.965-1.56751-1.5675L387.795,12.765l1.56749,1.5675,1.965-1.965L393.12,14.16l-1.965,1.965,1.82249,1.8225,3.29251-3.285,3.015,6.795,1.07249,1.1025,1.83-.06.62251,3.0675,12.32249,10.725,2.00251-.09,5.63249,2.1825,1.38-.21,1.335,1.3275L412.74,52.245Z"/>
    <rect class="cls-8" x="369.56099" y="10.69912" width="50.78176" height="50.78176" transform="translate(90.15924 289.84366) rotate(-45)"/>
    <path class="cls-7" d="M377.00249,18.135a25.39451,25.39451,0,0,1,0,35.91l-17.955-17.955Z"/>
    <path class="cls-7" d="M383.37749,34.9575a3.72023,3.72023,0,0,0-3.83249-.0525,1.339,1.339,0,1,0-2.28751.9525,1.32194,1.32194,0,0,0,.945.39,3.74708,3.74708,0,0,0,.05251,3.8475,1.19344,1.19344,0,0,1-.42751.1725,1.265,1.265,0,0,1-.78749-.105.70526.70526,0,0,0-.66751.045c-.14249.09-.29249.1725-.44249.255a.23783.23783,0,0,0,.03749.4275c1.88251.735,6.42751,2.6625,6.42751,2.6625l1.14,1.0875-.23251,1.9275L386.34,47.13l8.22749,9.705-.15749,2.07,2.595,5.46-.585,1.4325L397.8,67.17l12.66749-12.6675-1.32749-1.32-1.38.21-5.595-2.1675-1.995.09-9.765-8.175-.615-3.06-1.82251.0675-1.065-1.1025-2.805-6.3225a.23591.23591,0,0,0-.42-.03c-.06.1125-.14249.2475-.23249.3975a.709.709,0,0,0-.045.69,1.222,1.222,0,0,1,.12.7725,1.30444,1.30444,0,0,1-.14251.405Z"/>
    <path class="cls-16" d="M378.255,40.095a1.19344,1.19344,0,0,1-.42751.1725,1.265,1.265,0,0,1-.78749-.105.70526.70526,0,0,0-.66751.045c-.14249.09-.29249.1725-.44249.255a.23783.23783,0,0,0,.03749.4275c1.88251.735,6.42751,2.6625,6.42751,2.6625l1.14,1.0875-.23251,1.9275L386.34,47.13l8.22749,9.705-.15749,2.07,2.595,5.46-.585,1.4325L397.8,67.17l12.66749-12.6675-1.32749-1.32-1.38.21-5.595-2.1675-1.995.09-9.765-8.175-.615-3.06-1.82251.0675-1.065-1.1025-2.805-6.3225a.23591.23591,0,0,0-.42-.03c-.06.1125-.14249.2475-.23249.3975a.709.709,0,0,0-.045.69,1.222,1.222,0,0,1,.12.7725,1.30444,1.30444,0,0,1-.14251.405,3.72023,3.72023,0,0,0-3.83249-.0525,1.339,1.339,0,1,0-2.28751.9525,1.32194,1.32194,0,0,0,.945.39,3.74708,3.74708,0,0,0,.05251,3.8475Zm3.23249-7.0275c.18.0075.36.015.54751.0375a2.05456,2.05456,0,0,1,.27749-.72c.045-.075.08251-.1425.11251-.195.06-.0975.08249-.1275.09-.1425,0-.0075.00749-.015.015-.0225a1.534,1.534,0,0,1,.71249-.6375,1.48669,1.48669,0,0,1,.72751-.1425,1.64156,1.64156,0,0,1,.705.2175,1.50665,1.50665,0,0,1,.57.5775c.02249.045.045.09.06749.1425l2.715,6.105.48751.5025,1.2-.0375a1.32921,1.32921,0,0,1,1.38,1.065l.525,2.595,9.02249,7.545,1.35-.06a1.39144,1.39144,0,0,1,.65251.0825l5.27249,2.04.93-.1425a1.32759,1.32759,0,0,1,1.23751.36l1.32749,1.32-.00749.0075a1.32189,1.32189,0,0,1,0,1.8825L398.82,68.0325a.39337.39337,0,0,1-.075.0825,1.33087,1.33087,0,0,1-1.89,0l-1.38-1.3725.00749-.0075a1.32231,1.32231,0,0,1-.29249-1.44l.36-.885-2.34751-4.9275h0A1.40585,1.40585,0,0,1,393.075,58.8l.12-1.515-7.56751-8.9325-2.565-.4725h0a1.33237,1.33237,0,0,1-1.08-1.4775l.15-1.26-.47249-.45c-.93-.3975-4.62751-1.9575-6.18-2.565a1.54176,1.54176,0,0,1-.795-.69,1.5667,1.5667,0,0,1-.195-.66,1.52844,1.52844,0,0,1,.09749-.6825,1.5785,1.5785,0,0,1,.57751-.72c.03749-.0225.075-.0525.11249-.075a2.00173,2.00173,0,0,0,.20251-.1125l.20249-.12h0A2.31886,2.31886,0,0,1,376.41,38.79a3.86666,3.86666,0,0,1-.045-.5925A4.96705,4.96705,0,0,1,376.5,36.96c-.06-.045-.12-.105-.18-.1575a2.67287,2.67287,0,1,1,3.78-3.78c.06.06.11249.12.165.18a5.13461,5.13461,0,0,1,1.22249-.135Z"/>
    <path class="cls-3" d="M412.74,52.245l-1.38751-1.3875.59251-1.44-2.61751-5.49.165-2.0775-10.77-12.2625-3.06-.5625.23251-1.9425-1.14751-1.095-6.945-2.865L391.185,19.74l-1.82251-1.8225-1.965,1.965L385.605,18.09l1.965-1.965-1.56751-1.5675L387.795,12.765l1.56749,1.5675,1.965-1.965L393.12,14.16l-1.965,1.965,1.82249,1.8225,3.29251-3.285,3.015,6.795,1.07249,1.1025,1.83-.06.62251,3.0675,12.32249,10.725,2.00251-.09,5.63249,2.1825,1.38-.21,1.335,1.3275L412.74,52.245Z"/>
    <path class="cls-16" d="M411.80249,53.19,410.415,51.8025l-.62251-.6225.33-.825.36751-.8925-2.36251-4.9575-.15749-.3225.03-.36.12-1.515L398.025,30.81l-2.60251-.48-1.23749-.225.15-1.245.15749-1.275-.48-.4575-6.72-2.7675L385.44,23.595l1.41749-1.4175.47251-.4725-.87751-.8775L384.66,19.035l-.945-.945.945-.945,1.02749-1.02-.62249-.6225-.945-.945.93749-.945L386.85,11.82l.945-.945.945.945.63.63,1.02-1.02.945-.945.93749.9375L394.065,13.215l.885.885.375-.3825,1.37249-1.3725.78751,1.7775L400.41,20.7l.48749.51,1.23751-.045,1.13249-.0375.225,1.1025.53251,2.6325,11.58,10.08,1.47-.0675.29249-.015.24751.0975,5.30249,2.055,1.02751-.1575.675-.105.47249.48,1.335,1.3275.945.945-.945.945L413.685,53.19l-.93751.945Zm.93751-.945-1.38751-1.3875.59251-1.44-2.61751-5.49.165-2.0775-10.77-12.2625-3.06-.5625.23251-1.9425-1.14751-1.095-6.945-2.865L391.185,19.74l-1.82251-1.8225-1.965,1.965L385.605,18.09l1.965-1.965-1.56751-1.5675L387.795,12.765l1.56749,1.5675,1.965-1.965L393.12,14.16l-1.965,1.965,1.82249,1.8225,3.29251-3.285,3.015,6.795,1.07249,1.1025,1.83-.06.62251,3.0675,12.32249,10.725,2.00251-.09,5.63249,2.1825,1.38-.21,1.335,1.3275L412.74,52.245Z"/>
    <path class="cls-14" d="M322.23749,62.925a1.46371,1.46371,0,1,1,0,2.07,1.45319,1.45319,0,0,1,0-2.07Zm4.98,4.98a5.57907,5.57907,0,1,0-7.89,0,5.5859,5.5859,0,0,0,7.89,0Z"/>
    <path class="cls-14" d="M331.515,53.64a1.469,1.469,0,1,1,0,2.0775,1.46214,1.46214,0,0,1,0-2.0775Zm4.98749,4.98a5.57907,5.57907,0,1,0-7.89,0,5.5859,5.5859,0,0,0,7.89,0Z"/>
    <path class="cls-14" d="M340.8,44.355a1.469,1.469,0,1,1,0,2.0775,1.46214,1.46214,0,0,1,0-2.0775Zm4.98749,4.98a5.57907,5.57907,0,1,0-7.89,0,5.5859,5.5859,0,0,0,7.89,0Z"/>
    <path class="cls-14" d="M350.085,35.07a1.469,1.469,0,1,1,0,2.0775,1.47573,1.47573,0,0,1,0-2.0775Zm4.98749,4.98a5.57907,5.57907,0,1,0-7.89,0,5.5859,5.5859,0,0,0,7.89,0Z"/>
    <path class="cls-13" d="M314.81249,28.8525h0a2.89037,2.89037,0,0,1,.465-4.05l.54-.42L321.645,19.77a2.88462,2.88462,0,0,1,4.05.4725h0a2.893,2.893,0,0,1-.47251,4.05l-6.195,4.905-.165.1275a2.89141,2.89141,0,0,1-4.05-.4725Z"/>
    <path class="cls-13" d="M320.48249,66.75a3.94566,3.94566,0,1,0,0-5.58,3.95178,3.95178,0,0,0,0,5.58Z"/>
    <path class="cls-13" d="M329.76749,57.465a3.94566,3.94566,0,1,0,0-5.58,3.95178,3.95178,0,0,0,0,5.58Z"/>
    <path class="cls-13" d="M339.05249,48.18a3.943,3.943,0,1,0,0-5.58,3.94273,3.94273,0,0,0,0,5.58Z"/>
    <path class="cls-13" d="M348.33749,38.895a3.94036,3.94036,0,1,0,0-5.5725,3.94273,3.94273,0,0,0,0,5.5725Z"/>
    <rect class="cls-9" x="297.74529" y="10.6978" width="50.78441" height="50.78441" transform="translate(69.1253 239.06323) rotate(-45)"/>
    <path class="cls-8" d="M322.23749,62.925a1.46371,1.46371,0,1,1,0,2.07,1.45319,1.45319,0,0,1,0-2.07Zm4.98,4.98a5.57907,5.57907,0,1,0-7.89,0,5.5859,5.5859,0,0,0,7.89,0Z"/>
    <path class="cls-8" d="M331.515,53.64a1.469,1.469,0,1,1,0,2.0775,1.46214,1.46214,0,0,1,0-2.0775Zm4.98749,4.98a5.57907,5.57907,0,1,0-7.89,0,5.5859,5.5859,0,0,0,7.89,0Z"/>
    <path class="cls-8" d="M340.8,44.355a1.469,1.469,0,1,1,0,2.0775,1.46214,1.46214,0,0,1,0-2.0775Zm4.98749,4.98a5.57907,5.57907,0,1,0-7.89,0,5.5859,5.5859,0,0,0,7.89,0Z"/>
    <path class="cls-8" d="M350.085,35.07a1.469,1.469,0,1,1,0,2.0775,1.47573,1.47573,0,0,1,0-2.0775Zm4.98749,4.98a5.57907,5.57907,0,1,0-7.89,0,5.5859,5.5859,0,0,0,7.89,0Z"/>
    <path class="cls-2" d="M315.98249,51.0525c1.77751-5.295,5.49-18.1875,5.49-18.1875L319.635,30.1125l6.18-4.89a4.07268,4.07268,0,0,0,.86249-5.505,3.99054,3.99054,0,0,0-5.715-.81l-5.76,4.56-4.38-5.0475a2.42379,2.42379,0,0,1-.225-2.25,20.52294,20.52294,0,0,1,9.33-10.2525A2.23,2.23,0,0,1,322.23,6.045c3.09749,2.1,15.615,12.03,20.13749,16.32A20.0438,20.0438,0,0,1,346.71,27.72a2.90688,2.90688,0,0,1-.35251,3.105C344.4,33.2625,320.36249,57.5325,320.325,57.54a3.44209,3.44209,0,0,1-3.81751-1.71,5.61041,5.61041,0,0,1-.525-4.7775Z"/>
    <path class="cls-8" d="M315.24,50.8725c1.58249-4.71,4.725-15.5325,5.37-17.745L318.54,30.03l6.825-5.4a3.31151,3.31151,0,0,0,1.20749-2.0625,3.045,3.045,0,0,0-.51749-2.22c-.03-.0375-.06-.075-.09-.12A3.11311,3.11311,0,0,0,323.97,19.08a3.05738,3.05738,0,0,0-2.22.5475c-.03.015-.06751.0525-.12.09L315.195,24.81l-4.94251-5.6925-.06749-.09a3.33906,3.33906,0,0,1-.30751-3.0825A20.42428,20.42428,0,0,1,313.74,9.81a21.91537,21.91537,0,0,1,5.88-4.575,3.12746,3.12746,0,0,1,1.635-.36,3.0842,3.0842,0,0,1,1.59.54c1.71749,1.17,6.315,4.725,10.845,8.4,3.69,2.985,7.34249,6.0675,9.39749,8.01A29.63251,29.63251,0,0,1,346.08,25.05a13.60542,13.60542,0,0,1,1.53749,2.3775,3.74718,3.74718,0,0,1,.36751,2.1,3.81449,3.81449,0,0,1-.825,1.965c-.69.8625-4.02,4.3275-8.085,8.505-7.755,7.9575-18.42,18.525-18.47251,18.5325a4.38281,4.38281,0,0,1-2.94749-.375,4.83684,4.83684,0,0,1-1.8-1.74,6.241,6.241,0,0,1-.92251-2.685,6.751,6.751,0,0,1,.30751-2.8575Zm7.2-17.6475c-.00751.0375-3.71251,12.8925-5.505,18.225a4.84882,4.84882,0,0,0-.225,2.0925,4.38493,4.38493,0,0,0,.66,1.9125,3.03387,3.03387,0,0,0,1.125,1.1175,2.6213,2.6213,0,0,0,1.77.195S330.21749,46.53,337.8,38.745c4.02-4.125,7.305-7.545,7.97249-8.37a2.12879,2.12879,0,0,0,.435-1.05,2.0752,2.0752,0,0,0-.18749-1.1025,11.99563,11.99563,0,0,0-1.35-2.07,27.88227,27.88227,0,0,0-2.81251-3.03c-2.00249-1.905-5.625-4.95-9.29249-7.92-4.5-3.645-9.045-7.17-10.73251-8.3175a1.31786,1.31786,0,0,0-.675-.225,1.3785,1.3785,0,0,0-.705.15,20.4372,20.4372,0,0,0-5.39249,4.2,18.66854,18.66854,0,0,0-3.525,5.6025,1.64021,1.64021,0,0,0-.105.735,1.44691,1.44691,0,0,0,.225.645l3.77249,4.35,5.085-4.0275c.05251-.0375.12-.09.195-.1425V18.165a4.878,4.878,0,0,1,3.51-.855,4.8284,4.8284,0,0,1,3.14251,1.8c.05249.06.09749.1275.15.195a4.8005,4.8005,0,0,1,.825,3.54,5.07087,5.07087,0,0,1-1.86,3.1875l-5.52751,4.3725L322.56,32.82Z"/>
    <path class="cls-3" d="M314.955,28.995h0a2.88462,2.88462,0,0,1,.47249-4.05l.53251-.42,5.82749-4.6125a2.8914,2.8914,0,0,1,4.05.4725h0a2.89139,2.89139,0,0,1-.47249,4.05L319.17,29.34l-.165.1275a2.8914,2.8914,0,0,1-4.05-.4725Z"/>
    <path class="cls-3" d="M320.48249,66.75a3.94566,3.94566,0,1,0,0-5.58,3.95178,3.95178,0,0,0,0,5.58Z"/>
    <path class="cls-3" d="M329.76749,57.465a3.94566,3.94566,0,1,0,0-5.58,3.95178,3.95178,0,0,0,0,5.58Z"/>
    <path class="cls-3" d="M339.05249,48.18a3.943,3.943,0,1,0,0-5.58,3.94273,3.94273,0,0,0,0,5.58Z"/>
    <path class="cls-3" d="M348.33749,38.895a3.94036,3.94036,0,1,0,0-5.5725,3.94273,3.94273,0,0,0,0,5.5725Z"/>
    <rect class="cls-17" x="441.3778" y="10.6978" width="50.78441" height="50.78441" transform="translate(111.19428 340.62675) rotate(-45)"/>
    <path class="cls-7" d="M445.71,36.09c0-13.53,9.42749-24.5025,21.06-24.5025a24.5025,24.5025,0,1,0,0,49.005c-11.63251,0-21.06-10.965-21.06-24.5025Z"/>
    <path class="cls-9" d="M487.83749,36.09c0,13.5375-9.435,24.5025-21.06749,24.5025S445.71,49.6275,445.71,36.09c0-13.53,9.42749-24.5025,21.06-24.5025S487.83749,22.56,487.83749,36.09Z"/>
    <polygon class="cls-18" points="466.77 25.755 466.77 24.683 454.777 33.398 459.36 47.497 462.562 47.497 457.98 33.398 466.77 25.755"/>
    <path class="cls-8" d="M466.77,12.48a23.61375,23.61375,0,1,0,23.61749,23.61A23.63494,23.63494,0,0,0,466.77,12.48Zm0,49.005a25.40175,25.40175,0,1,1,17.955-7.44,25.22313,25.22313,0,0,1-17.955,7.44Z"/>
    <path class="cls-19" d="M460.005,46.6125h13.53L477.72,33.735l-10.95-7.95-10.95,7.95ZM474.18749,48.39H459.36a.887.887,0,0,1-.84751-.615L453.93,33.675a.89748.89748,0,0,1,.32249-.9975l12-8.715a.88941.88941,0,0,1,1.04251,0l11.99249,8.715a.88614.88614,0,0,1,.32251.9975l-4.58251,14.1a.87772.87772,0,0,1-.84.615Z"/>
    <rect class="cls-8" x="465.92249" y="11.6325" width="1.77751" height="13.0125"/>
    <rect class="cls-8" x="448.07795" y="25.33773" width="1.77409" height="12.30953" transform="matrix(0.30891, -0.95109, 0.95109, 0.30891, 280.32444, 448.77143)"/>
    <polygon class="cls-8" points="453.622 56.888 452.182 55.837 458.647 46.935 460.087 47.985 453.622 56.888"/>
    <rect class="cls-8" x="478.32273" y="30.60545" width="12.30953" height="1.77409" transform="translate(13.928 151.04747) rotate(-17.97496)"/>
    <polygon class="cls-8" points="479.82 56.888 473.355 47.985 474.795 46.935 481.26 55.837 479.82 56.888"/>
    <path class="cls-8" d="M460.005,46.6125h13.53L477.72,33.735l-10.95-7.95-10.95,7.95ZM474.18749,48.39H459.36a.887.887,0,0,1-.84751-.615L453.93,33.675a.89748.89748,0,0,1,.32249-.9975l12-8.715a.88941.88941,0,0,1,1.04251,0l11.99249,8.715a.88614.88614,0,0,1,.32251.9975l-4.58251,14.1a.87772.87772,0,0,1-.84.615Z"/>
    <path class="cls-20" d="M547.41748,55.3275c1.83752,1.8375.825,5.835-2.25748,8.9175-3.08251,3.09-7.08,4.095-8.91751,2.2575l-19.995-19.995C514.41,44.67,515.42249,40.68,518.505,37.59c3.08249-3.0825,7.08-4.095,8.91749-2.2575Z"/>
    <path class="cls-14" d="M547.95,54.7875a4.81693,4.81693,0,0,1,.92248,4.725L547.395,59.13a3.35829,3.35829,0,0,0-.51752-3.2625Zm.92248,4.725A11.81716,11.81716,0,0,1,545.7,64.785l-1.08-1.08a10.31409,10.31409,0,0,0,2.775-4.575ZM545.7,64.785h0l-1.08-1.08h0Zm0,0a11.85711,11.85711,0,0,1-5.27251,3.1725L540.045,66.48a10.314,10.314,0,0,0,4.575-2.775Zm-5.27251,3.1725a4.8336,4.8336,0,0,1-4.725-.915l1.08-1.08a3.35835,3.35835,0,0,0,3.26251.5175Zm-4.725-.915-19.995-19.995,1.08-1.08,19.995,19.995Zm-19.995-19.995a4.82953,4.82953,0,0,1-.915-4.725l1.47751.3825a3.35836,3.35836,0,0,0,.51749,3.2625Zm-.915-4.725A11.897,11.897,0,0,1,517.965,37.05l1.08,1.08a10.31382,10.31382,0,0,0-2.775,4.575ZM517.965,37.05a11.85689,11.85689,0,0,1,5.27249-3.1725L523.62,35.355a10.31386,10.31386,0,0,0-4.575,2.775Zm5.27249-3.1725a4.817,4.817,0,0,1,4.725.9225L526.89,35.8725a3.377,3.377,0,0,0-3.27-.5175Zm4.725.9225L547.95,54.7875,546.87748,55.86,526.89,35.8725Z"/>
    <path class="cls-7" d="M516.27,46.485c-1.83751-1.8375-.825-5.835,2.25749-8.9175s7.08-4.095,8.91751-2.2575c1.845,1.845.83249,5.835-2.25,8.925-3.09,3.0825-7.08,4.095-8.925,2.25Z"/>
    <path class="cls-14" d="M515.67749,47.085a4.87634,4.87634,0,0,1-.945-4.7925,12.80217,12.80217,0,0,1,8.52-8.52,4.87633,4.87633,0,0,1,4.79251.945,4.85328,4.85328,0,0,1,.93749,4.7925A12.82083,12.82083,0,0,1,520.47,48.0225a4.8533,4.8533,0,0,1-4.79251-.9375Zm.69751-4.3875a3.29171,3.29171,0,0,0,.495,3.1875,3.27673,3.27673,0,0,0,3.18749.5025,11.15724,11.15724,0,0,0,7.29-7.29A3.27675,3.27675,0,0,0,526.845,35.91a3.29175,3.29175,0,0,0-3.18751-.495,11.17728,11.17728,0,0,0-7.28249,7.2825Z"/>
    <path class="cls-11" d="M569.66248,33.0825C571.5,34.92,570.495,38.9175,567.405,42c-3.08252,3.0825-7.08,4.095-8.91752,2.2575l-19.995-19.995c-1.83749-1.8375-.825-5.835,2.25751-8.9175,3.09-3.0825,7.08-4.095,8.91748-2.2575Z"/>
    <path class="cls-14" d="M570.26248,32.4825A4.89275,4.89275,0,0,1,571.2,37.275a12.81145,12.81145,0,0,1-8.51252,8.52,4.88625,4.88625,0,0,1-4.8-.945L537.9,24.8625a4.88621,4.88621,0,0,1-.945-4.8,11.93541,11.93541,0,0,1,3.195-5.3175,11.95643,11.95643,0,0,1,5.325-3.195,4.89271,4.89271,0,0,1,4.79248.9375Zm-.705,4.3875a3.27285,3.27285,0,0,0-.495-3.1875l-19.995-19.995a3.2917,3.2917,0,0,0-3.18748-.495,10.19605,10.19605,0,0,0-4.53,2.7525,10.19613,10.19613,0,0,0-2.75251,4.53,3.29176,3.29176,0,0,0,.495,3.1875l19.995,19.995a3.29176,3.29176,0,0,0,3.18752.495,11.17724,11.17724,0,0,0,7.28248-7.2825Z"/>
    <path class="cls-13" d="M538.52249,24.24c-1.845-1.8375-.83249-5.835,2.25-8.9175,3.09-3.09,7.08-4.095,8.91751-2.2575,1.845,1.845.83248,5.835-2.25,8.9175-3.09,3.09-7.08,4.095-8.91751,2.2575Z"/>
    <path class="cls-14" d="M537.92249,24.84a4.88626,4.88626,0,0,1-.945-4.8,11.93559,11.93559,0,0,1,3.195-5.3175,11.99651,11.99651,0,0,1,5.325-3.195,4.89278,4.89278,0,0,1,4.79252.9375,4.88629,4.88629,0,0,1,.945,4.8,12.00462,12.00462,0,0,1-3.195,5.3175,11.99654,11.99654,0,0,1-5.325,3.195,4.875,4.875,0,0,1-4.79251-.9375Zm.69751-4.3875a3.29171,3.29171,0,0,0,.495,3.1875,3.31024,3.31024,0,0,0,3.195.5025,10.26535,10.26535,0,0,0,4.53-2.7525,10.3267,10.3267,0,0,0,2.75248-4.5375,3.29567,3.29567,0,0,0-.495-3.1875,3.29146,3.29146,0,0,0-3.195-.495,10.12794,10.12794,0,0,0-4.53,2.7525,10.26531,10.26531,0,0,0-2.75249,4.53Z"/>
    <path class="cls-11" d="M521.78249,40.5525c-1.85249,1.8525-5.84249.8625-8.91-2.205s-4.05-7.05-2.19749-8.9025L530.78249,9.33c1.85251-1.845,5.84251-.8625,8.91,2.205s4.05,7.05,2.19751,8.9025Z"/>
    <path class="cls-14" d="M522.375,41.1525a4.89693,4.89693,0,0,1-4.79251.96,11.70665,11.70665,0,0,1-5.30249-3.165,11.72658,11.72658,0,0,1-3.17251-5.3025,4.93464,4.93464,0,0,1,.96751-4.8L530.19,8.7375a4.88057,4.88057,0,0,1,4.79249-.9675,11.79476,11.79476,0,0,1,5.31,3.165,11.77374,11.77374,0,0,1,3.165,5.3025,4.9262,4.9262,0,0,1-.96749,4.8Zm-1.19251-1.2,20.115-20.115a3.31,3.31,0,0,0,.51751-3.195,10.05048,10.05048,0,0,0-2.72251-4.5075,10.03188,10.03188,0,0,0-4.515-2.7225,3.31824,3.31824,0,0,0-3.195.5175L511.275,30.045a3.29121,3.29121,0,0,0-.525,3.195,10.96543,10.96543,0,0,0,7.23749,7.2375,3.31828,3.31828,0,0,0,3.195-.525Z"/>
    <path class="cls-9" d="M530.81249,9.3525c1.845-1.845,5.835-.8625,8.90251,2.205s4.05,7.05,2.19749,8.9025c-1.845,1.8525-5.835.87-8.90249-2.1975s-4.05-7.0575-2.19751-8.91Z"/>
    <path class="cls-14" d="M530.21249,8.76a4.88061,4.88061,0,0,1,4.79251-.9675,11.79486,11.79486,0,0,1,5.31,3.165,11.75623,11.75623,0,0,1,3.165,5.31,4.91627,4.91627,0,0,1-.96751,4.7925,4.91627,4.91627,0,0,1-4.79249.9675,11.79476,11.79476,0,0,1-5.31-3.165,11.79472,11.79472,0,0,1-3.165-5.31,4.89836,4.89836,0,0,1,.96749-4.7925Zm4.395.675a3.32886,3.32886,0,0,0-3.20249.5175,3.31821,3.31821,0,0,0-.51751,3.195,10.0319,10.0319,0,0,0,2.72251,4.515,10.05048,10.05048,0,0,0,4.50749,2.7225,3.32889,3.32889,0,0,0,3.20251-.5175,3.3289,3.3289,0,0,0,.51749-3.2025,10.05042,10.05042,0,0,0-2.72249-4.5075,10.05043,10.05043,0,0,0-4.50751-2.7225Z"/>
    <rect class="cls-8" x="513.1978" y="10.6978" width="50.78441" height="50.78441" transform="translate(132.22987 391.41116) rotate(-45)"/>
    <path class="cls-11" d="M547.41748,55.3275c1.83752,1.8375.825,5.835-2.25748,8.9175-3.08251,3.09-7.08,4.095-8.91751,2.2575l-19.995-19.995C514.41,44.67,515.42249,40.68,518.505,37.59c3.08249-3.0825,7.08-4.095,8.91749-2.2575Z"/>
    <path class="cls-8" d="M548.13,54.615a5.03763,5.03763,0,0,1,.98248,4.9575l-1.95748-.51a3.11843,3.11843,0,0,0-.45752-3.0225Zm.98248,4.9575A12.07035,12.07035,0,0,1,545.88,64.965l-1.44-1.44a10.04357,10.04357,0,0,0,2.715-4.4625ZM545.88,64.965h0l-1.44-1.44h0Zm0,0a12.10993,12.10993,0,0,1-5.39251,3.2325l-.51-1.9575A10.04318,10.04318,0,0,0,544.44,63.525Zm-5.39251,3.2325a5.034,5.034,0,0,1-4.965-.9825l1.43251-1.4325a3.11448,3.11448,0,0,0,3.02249.4575Zm-4.965-.9825L515.535,47.2275l1.43249-1.4325L536.955,65.7825ZM515.535,47.2275a5.034,5.034,0,0,1-.98251-4.965l1.95751.51a3.1145,3.1145,0,0,0,.45749,3.0225Zm-.98251-4.965A12.10979,12.10979,0,0,1,517.785,36.87l1.44,1.44a10.043,10.043,0,0,0-2.715,4.4625ZM517.785,36.87a12.07015,12.07015,0,0,1,5.39249-3.2325l.51,1.9575A10.04323,10.04323,0,0,0,519.225,38.31Zm5.39249-3.2325a5.04169,5.04169,0,0,1,4.95751.9825l-1.425,1.425a3.13,3.13,0,0,0-3.02251-.45Zm4.95751.9825L548.13,54.615l-1.425,1.425L526.71,36.045Z"/>
    <path class="cls-7" d="M516.27,46.485c-1.83751-1.8375-.825-5.835,2.25749-8.9175s7.08-4.095,8.91751-2.2575c1.845,1.845.83249,5.835-2.25,8.925-3.09,3.0825-7.08,4.095-8.925,2.25Z"/>
    <path class="cls-8" d="M515.67749,47.085a4.87634,4.87634,0,0,1-.945-4.7925,12.80217,12.80217,0,0,1,8.52-8.52,4.87633,4.87633,0,0,1,4.79251.945,4.85328,4.85328,0,0,1,.93749,4.7925A12.82083,12.82083,0,0,1,520.47,48.0225a4.8533,4.8533,0,0,1-4.79251-.9375Zm.69751-4.3875a3.29171,3.29171,0,0,0,.495,3.1875,3.27673,3.27673,0,0,0,3.18749.5025,11.15724,11.15724,0,0,0,7.29-7.29A3.27675,3.27675,0,0,0,526.845,35.91a3.29175,3.29175,0,0,0-3.18751-.495,11.17728,11.17728,0,0,0-7.28249,7.2825Z"/>
    <path class="cls-11" d="M569.66248,33.0825C571.5,34.92,570.495,38.9175,567.405,42c-3.08252,3.0825-7.08,4.095-8.91752,2.2575l-19.995-19.995c-1.83749-1.8375-.825-5.835,2.25751-8.9175,3.09-3.0825,7.08-4.095,8.91748-2.2575Z"/>
    <path class="cls-8" d="M570.26248,32.4825A4.89275,4.89275,0,0,1,571.2,37.275a12.81145,12.81145,0,0,1-8.51252,8.52,4.88625,4.88625,0,0,1-4.8-.945L537.9,24.8625a4.88621,4.88621,0,0,1-.945-4.8,11.93541,11.93541,0,0,1,3.195-5.3175,11.95643,11.95643,0,0,1,5.325-3.195,4.89271,4.89271,0,0,1,4.79248.9375Zm-.705,4.3875a3.27285,3.27285,0,0,0-.495-3.1875l-19.995-19.995a3.2917,3.2917,0,0,0-3.18748-.495,10.19605,10.19605,0,0,0-4.53,2.7525,10.19613,10.19613,0,0,0-2.75251,4.53,3.29176,3.29176,0,0,0,.495,3.1875l19.995,19.995a3.29176,3.29176,0,0,0,3.18752.495,11.17724,11.17724,0,0,0,7.28248-7.2825Z"/>
    <path class="cls-3" d="M538.52249,24.24c-1.845-1.8375-.83249-5.835,2.25-8.9175,3.09-3.09,7.08-4.095,8.91751-2.2575,1.845,1.845.83248,5.835-2.25,8.9175-3.09,3.09-7.08,4.095-8.91751,2.2575Z"/>
    <path class="cls-8" d="M537.92249,24.84a4.88626,4.88626,0,0,1-.945-4.8,11.93559,11.93559,0,0,1,3.195-5.3175,11.99651,11.99651,0,0,1,5.325-3.195,4.89278,4.89278,0,0,1,4.79252.9375,4.88629,4.88629,0,0,1,.945,4.8,12.00462,12.00462,0,0,1-3.195,5.3175,11.99654,11.99654,0,0,1-5.325,3.195,4.875,4.875,0,0,1-4.79251-.9375Zm.69751-4.3875a3.29171,3.29171,0,0,0,.495,3.1875,3.31024,3.31024,0,0,0,3.195.5025,10.26535,10.26535,0,0,0,4.53-2.7525,10.3267,10.3267,0,0,0,2.75248-4.5375,3.29567,3.29567,0,0,0-.495-3.1875,3.29146,3.29146,0,0,0-3.195-.495,10.12794,10.12794,0,0,0-4.53,2.7525,10.26531,10.26531,0,0,0-2.75249,4.53Z"/>
    <path class="cls-11" d="M521.78249,40.5525c-1.85249,1.8525-5.84249.8625-8.91-2.205s-4.05-7.05-2.19749-8.9025L530.78249,9.33c1.85251-1.845,5.84251-.8625,8.91,2.205s4.05,7.05,2.19751,8.9025Z"/>
    <path class="cls-8" d="M522.375,41.1525a4.89693,4.89693,0,0,1-4.79251.96,11.70665,11.70665,0,0,1-5.30249-3.165,11.72658,11.72658,0,0,1-3.17251-5.3025,4.93464,4.93464,0,0,1,.96751-4.8L530.19,8.7375a4.88057,4.88057,0,0,1,4.79249-.9675,11.79476,11.79476,0,0,1,5.31,3.165,11.77374,11.77374,0,0,1,3.165,5.3025,4.9262,4.9262,0,0,1-.96749,4.8Zm-1.19251-1.2,20.115-20.115a3.31,3.31,0,0,0,.51751-3.195,10.05048,10.05048,0,0,0-2.72251-4.5075,10.03188,10.03188,0,0,0-4.515-2.7225,3.31824,3.31824,0,0,0-3.195.5175L511.275,30.045a3.29121,3.29121,0,0,0-.525,3.195,10.96543,10.96543,0,0,0,7.23749,7.2375,3.31828,3.31828,0,0,0,3.195-.525Z"/>
    <path class="cls-9" d="M530.81249,9.3525c1.845-1.845,5.835-.8625,8.90251,2.205s4.05,7.05,2.19749,8.9025c-1.845,1.8525-5.835.87-8.90249-2.1975s-4.05-7.0575-2.19751-8.91Z"/>
    <path class="cls-8" d="M530.21249,8.76a4.88061,4.88061,0,0,1,4.79251-.9675,11.79486,11.79486,0,0,1,5.31,3.165,11.75623,11.75623,0,0,1,3.165,5.31,4.91627,4.91627,0,0,1-.96751,4.7925,4.91627,4.91627,0,0,1-4.79249.9675,11.79476,11.79476,0,0,1-5.31-3.165,11.79472,11.79472,0,0,1-3.165-5.31,4.89836,4.89836,0,0,1,.96749-4.7925Zm4.395.675a3.32886,3.32886,0,0,0-3.20249.5175,3.31821,3.31821,0,0,0-.51751,3.195,10.0319,10.0319,0,0,0,2.72251,4.515,10.05048,10.05048,0,0,0,4.50749,2.7225,3.32889,3.32889,0,0,0,3.20251-.5175,3.3289,3.3289,0,0,0,.51749-3.2025,10.05042,10.05042,0,0,0-2.72249-4.5075,10.05043,10.05043,0,0,0-4.50751-2.7225Z"/>
  </g>
</svg>
