<svg width="480" height="480" viewBox="0 0 480 480" fill="none" xmlns="http://www.w3.org/2000/svg">
<g clip-path="url(#clip0_411_1801)">
<g clip-path="url(#clip1_411_1801)">
<path d="M13.8291 280.105C21.405 280.811 29.0175 281.072 36.6255 280.888C73.3623 279.901 109.073 268.846 139.672 248.988L124.053 233.749C97.9522 249.69 67.9548 258.526 37.1733 259.34C27.3679 259.584 17.5597 258.979 7.86378 257.533L13.8291 280.105ZM0 179.978V203.385C12.4666 207.328 25.5314 209.167 38.6319 208.821C55.3826 208.39 71.8602 204.578 87.0259 197.626L70.4418 181.446C60.4152 185.034 49.8559 187.002 39.1798 187.274C25.7321 187.643 12.363 185.153 0 179.978ZM0 218.037V240.623C12.824 243.625 25.9965 244.972 39.1798 244.629C65.5122 243.94 91.2531 236.857 114.074 224.022L98.1309 208.475C80.0374 217.562 60.0784 222.557 39.7355 223.089C26.3012 223.439 12.8936 221.734 0 218.037H0ZM0 302.797V320.776C0.0694722 319.338 0.123495 317.892 0.162109 316.454C0.277828 311.892 0.223792 307.339 0 302.797Z" fill="#ED553B" fill-opacity="0.3"/>
<path d="M98.0074 107.226C90.4318 107.936 82.8191 108.197 75.211 108.009C49.2372 107.337 23.6643 101.597 0 91.1297L0 67.6622C23.1085 79.3551 48.6332 85.7853 74.6554 86.4693C84.4633 86.7098 94.2738 86.1051 103.973 84.6624L98.0074 107.226ZM0 48.9679V52.386C22.2713 64.4449 47.1944 71.0874 72.6567 71.7504C91.9265 72.2742 111.118 69.1499 129.169 62.5501C122.617 77.0959 117.061 91.5137 115.078 104.689C128.583 102.754 143.361 97.3335 158.27 90.9415C151.503 108.552 148.298 127.275 148.832 146.076C149.539 171.766 156.798 196.879 169.954 219.143L185.898 203.589C176.577 185.938 171.455 166.465 170.911 146.618C170.07 114.04 181.892 81.7713 206.579 57.6864L265.708 0H233.682L190.566 42.0639C178.582 53.7563 162.561 65.5014 147.999 72.571C155.245 58.364 167.284 42.734 179.269 31.0417L211.086 0H179.06L163.256 15.4191C138.569 39.5041 105.493 51.0308 72.101 50.2177C51.7576 49.6834 31.7986 44.6861 13.7056 35.5966L0 48.9679ZM159.876 0H125.318C109.637 10.0812 91.2163 14.8621 72.6567 14.4028C61.9785 14.1271 51.4174 12.1589 41.3869 8.57541L24.8106 24.755C39.9762 31.7076 56.4538 35.5195 73.2046 35.9504C103.193 36.6883 132.904 26.3135 155.091 4.67548L159.876 0ZM112.469 121.343C111.745 128.734 111.479 136.161 111.674 143.583C112.68 179.424 124.009 214.265 144.364 244.117L159.984 228.878C143.644 203.415 134.588 174.149 133.753 144.118C133.503 134.552 134.123 124.983 135.605 115.523L112.469 121.343ZM233.605 81.2744C215.624 98.8167 207.004 122.329 207.621 146.076C207.899 156.491 209.917 166.793 213.594 176.575L197.01 192.755C189.884 177.959 185.977 161.883 185.535 145.541C184.779 116.284 195.413 87.2975 217.592 65.652L233.003 50.6167L249.016 66.2392L233.605 81.2744Z" fill="#08E6E7" fill-opacity="0.3"/>
<path d="M100.415 500.144C108.711 499.368 117.048 499.082 125.38 499.286C165.606 500.36 204.709 512.465 238.212 534.213L221.103 550.897C192.528 533.44 159.684 523.764 125.982 522.874C115.244 522.605 104.504 523.267 93.8864 524.854L100.415 500.144ZM0 427.709V494.558C3.36963 482.726 4.91456 470.47 4.58399 458.193C4.31378 447.889 2.77474 437.654 0 427.709H0ZM0 531.796V570.6C13.0111 558.094 30.1122 545.649 45.6776 538.09C37.7444 553.645 24.5636 570.765 11.4445 583.564L0 594.73V600H29.6646C56.6205 574.086 92.5283 561.678 128.783 562.566C151.06 563.147 172.916 568.618 192.727 578.573L210.183 561.542C185.195 547.492 157.012 539.74 128.181 538.986C107.08 538.414 86.0654 541.835 66.2978 549.06C73.4669 533.136 79.5558 517.348 81.7243 502.923C66.946 505.038 50.7555 510.978 34.4338 517.98C41.8415 498.695 45.3505 478.193 44.767 457.606C43.9916 429.479 36.0454 401.984 21.6465 377.604L4.19045 394.634C14.3895 413.962 19.997 435.281 20.597 457.011C21.2684 483.272 14.431 509.345 0 531.796ZM52.978 600H170.772L180.565 590.446C163.958 582.833 145.914 578.659 127.572 578.189C101.125 577.541 74.8792 584.777 52.978 600ZM84.5796 484.688C85.375 476.596 85.6688 468.465 85.4593 460.339C84.3507 421.095 71.9446 382.948 49.6596 350.259L32.5585 366.943C50.4451 394.824 60.3597 426.865 61.2739 459.744C61.5489 470.222 60.8723 480.703 59.252 491.064L84.5796 484.688Z" fill="#FE9900" fill-opacity="0.3"/>
<path d="M47.2365 158.333L139.703 248.536L136.006 252.15L43.54 161.939L47.2365 158.333ZM0 204.417V206.058L91.6253 295.449L95.3218 291.842L2.85536 201.631L0 204.417ZM0 213.279V220.491L84.2246 302.669L87.9211 299.055L0 213.279ZM0 227.711V234.932L76.8316 309.882L80.5281 306.275L0 227.711ZM0 242.144V249.364L69.4309 317.102L73.1274 313.488L0 242.144ZM0 256.577V263.797L62.0302 324.315L65.7344 320.708L0 256.577ZM0 271.01V278.23L54.6372 331.535L58.3337 327.928L0 271.01ZM0 285.443V292.663L47.2365 338.747L50.9407 335.141L0 285.443ZM39.8435 165.545L132.31 255.757L128.606 259.363L36.1393 169.152L39.8435 165.545ZM32.4428 172.766L124.909 262.977L121.213 266.583L28.7463 176.372L32.4428 172.766ZM25.0498 179.978L117.516 270.189L113.812 273.796L21.3456 183.585L25.0498 179.978ZM17.649 187.198L110.116 277.41L106.419 281.016L13.9526 190.805L17.649 187.198ZM10.2561 194.411L102.715 284.622L99.0183 288.229L6.55183 198.025L10.2561 194.411Z" fill="#ED553B" fill-opacity="0.3"/>
<path d="M146.062 443.587L238.528 533.798L234.832 537.405L142.365 447.194L146.062 443.587ZM121.46 600H128.853L57.2994 530.192L53.5952 533.798L121.46 600ZM136.253 600H143.646L64.6924 522.972L60.9959 526.578L136.253 600ZM151.047 600H158.44L72.0931 515.752L68.3889 519.366L151.047 600ZM165.841 600H170.672L171.953 598.75L79.4861 508.539L75.7896 512.145L165.841 600ZM138.669 450.8L231.127 541.011L227.431 544.625L134.964 454.414L138.669 450.8ZM131.268 458.02L223.734 548.231L220.038 551.838L127.571 461.626L131.268 458.02ZM123.867 465.24L216.334 555.444L212.637 559.058L120.171 468.847L123.867 465.24ZM116.474 472.453L208.941 562.664L205.244 566.271L112.778 476.059L116.474 472.453ZM109.074 479.673L201.54 569.884L197.843 573.491L105.377 483.28L109.074 479.673ZM101.681 486.886L194.147 577.097L190.443 580.703L97.984 490.492L101.681 486.886ZM94.2798 494.106L186.746 584.317L183.05 587.924L90.5833 497.713L94.2798 494.106ZM86.8868 501.319L179.353 591.53L175.649 595.136L83.1826 504.933L86.8868 501.319Z" fill="#FE9900" fill-opacity="0.3"/>
<path d="M465.466 244L537.475 314.245V321.465L461.77 247.606L465.466 244ZM537.475 350.331V343.11L450.673 258.433L446.976 262.039L537.475 350.331ZM537.475 335.898V328.677L458.073 251.213L454.369 254.819L537.475 335.898ZM443.272 265.646L535.738 355.857L532.042 359.463L439.576 269.252L443.272 265.646ZM435.879 272.866L528.346 363.077L524.649 366.683L432.183 276.472L435.879 272.866ZM428.478 280.078L520.945 370.29L517.248 373.896L424.782 283.692L428.478 280.078ZM421.085 287.299L513.552 377.51L509.848 381.116L417.389 290.905L421.085 287.299ZM413.685 294.511L506.151 384.723L502.455 388.336L409.988 298.125L413.685 294.511ZM406.292 301.732L498.758 391.943L495.054 395.549L402.587 305.338L406.292 301.732ZM398.891 308.952L491.357 399.155L487.661 402.769L395.194 312.558L398.891 308.952ZM391.498 316.164L483.964 406.376L480.26 409.982L387.794 319.771L391.498 316.164ZM384.097 323.385L476.564 413.596L472.867 417.202L380.401 326.991L384.097 323.385ZM376.704 330.597L469.163 420.809L465.466 424.415L373 334.204L376.704 330.597Z" fill="#32323E" fill-opacity="0.3"/>
<path d="M82.604 0L152.367 68.0612L148.662 71.6675L75.2033 0H82.604ZM67.8026 0H60.4096L141.269 78.8877L144.966 75.2814L67.8026 0ZM53.0089 0H45.6159L133.869 86.108L137.573 82.4941L53.0089 0ZM38.2152 0H37.1966L34.0093 3.10944L126.476 93.3206L130.172 89.7143L38.2152 0ZM0 36.2892V42.1016L89.4877 129.407L93.1842 125.8L0.717694 35.5891L0 36.2892ZM0 49.3143V56.5344L82.087 136.619L85.7912 133.013L0 49.3143ZM0 63.7547V70.9673L74.694 143.84L78.3905 140.233L0 63.7547ZM0 78.1875V85.4003L67.2933 151.06L70.9975 147.446L0 78.1875ZM0 92.6204V99.8331L59.9003 158.272L63.5968 154.666L0 92.6204ZM30.3051 6.71581L122.772 96.927L119.075 100.541L26.6087 10.3296L30.3051 6.71581ZM22.9121 13.936L115.379 104.147L111.682 107.754L19.2156 17.5424L22.9121 13.936ZM15.5115 21.1562L107.978 111.367L104.281 114.974L11.8149 24.7625L15.5115 21.1562ZM8.11843 28.3689L100.585 118.58L96.8807 122.186L4.42195 31.9752L8.11843 28.3689Z" fill="#08E6E7" fill-opacity="0.3"/>
</g>
<g clip-path="url(#clip2_411_1801)">
<path d="M282.645 169.826C273.299 160.48 272.256 146.368 280.309 138.315C275.821 142.803 273.299 148.891 273.299 155.238C273.299 161.586 275.82 167.674 280.308 172.162C284.797 176.651 290.884 179.173 297.232 179.173C303.58 179.173 309.667 176.652 314.156 172.163C306.102 180.217 291.991 179.172 282.645 169.826L282.645 169.826Z" fill="#FCF9D3"/>
<path d="M311.826 140.647C321.172 149.993 322.215 164.104 314.156 172.163C306.102 180.217 291.991 179.172 282.645 169.826C273.299 160.48 272.255 146.368 280.309 138.315C288.369 130.256 302.48 131.3 311.826 140.647Z" fill="#FF9EF6"/>
<path d="M280.927 138.926C277.701 142.152 275.504 146.262 274.614 150.736C273.724 155.21 274.181 159.848 275.927 164.062C277.672 168.277 280.628 171.879 284.421 174.414C288.214 176.948 292.673 178.301 297.235 178.301C301.797 178.301 306.256 176.949 310.049 174.414C313.843 171.88 316.799 168.278 318.545 164.063C320.291 159.849 320.747 155.211 319.858 150.737C318.968 146.263 316.771 142.153 313.546 138.927C309.217 134.608 303.352 132.182 297.237 132.181C291.121 132.181 285.256 134.607 280.927 138.926ZM314.774 172.775C311.305 176.244 306.885 178.606 302.074 179.563C297.263 180.52 292.276 180.028 287.744 178.151C283.212 176.274 279.338 173.094 276.613 169.015C273.888 164.936 272.434 160.141 272.434 155.236C272.434 151.978 273.076 148.753 274.322 145.744C275.569 142.735 277.395 140 279.699 137.697C282.002 135.394 284.736 133.567 287.745 132.321C290.754 131.074 293.979 130.433 297.237 130.433C300.494 130.433 303.719 131.075 306.728 132.321C309.737 133.568 312.471 135.395 314.774 137.698C317.077 140.002 318.904 142.736 320.15 145.745C321.396 148.755 322.038 151.98 322.037 155.237C322.046 158.495 321.409 161.723 320.162 164.733C318.915 167.744 317.084 170.477 314.774 172.775L314.774 172.775Z" fill="#39175F"/>
<path d="M304.851 147.621C306.357 149.128 307.381 151.047 307.796 153.136C308.211 155.224 307.997 157.389 307.182 159.357C306.366 161.324 304.986 163.006 303.215 164.189C301.444 165.372 299.362 166.003 297.233 166.003C295.103 166.003 293.021 165.371 291.25 164.188C289.479 163.005 288.099 161.324 287.284 159.356C286.468 157.389 286.255 155.224 286.67 153.135C287.085 151.046 288.11 149.127 289.615 147.621C290.615 146.619 291.802 145.825 293.11 145.283C294.417 144.741 295.818 144.462 297.233 144.462C298.648 144.462 300.05 144.741 301.357 145.283C302.664 145.825 303.851 146.62 304.851 147.621L304.851 147.621Z" fill="white"/>
<path d="M290.232 148.232C288.847 149.617 287.903 151.382 287.521 153.304C287.139 155.225 287.335 157.216 288.085 159.026C288.834 160.836 290.104 162.383 291.733 163.472C293.361 164.56 295.276 165.141 297.235 165.141C299.194 165.141 301.109 164.56 302.738 163.472C304.367 162.384 305.637 160.837 306.386 159.027C307.136 157.217 307.332 155.226 306.95 153.304C306.568 151.383 305.625 149.618 304.239 148.233C302.38 146.379 299.861 145.338 297.236 145.338C294.61 145.338 292.092 146.379 290.232 148.232ZM305.468 163.469C303.84 165.097 301.765 166.206 299.507 166.655C297.248 167.104 294.907 166.874 292.78 165.992C290.652 165.111 288.834 163.619 287.555 161.704C286.276 159.79 285.593 157.539 285.593 155.236C285.593 152.933 286.276 150.682 287.555 148.768C288.835 146.853 290.653 145.361 292.78 144.48C294.908 143.599 297.249 143.368 299.507 143.817C301.766 144.267 303.84 145.376 305.468 147.004C307.649 149.189 308.873 152.15 308.873 155.237C308.873 158.323 307.648 161.284 305.468 163.469Z" fill="#39175F"/>
<path d="M282.645 169.826C273.299 160.48 272.256 146.368 280.309 138.315C275.821 142.803 273.299 148.891 273.299 155.238C273.299 161.586 275.82 167.674 280.308 172.162C284.797 176.651 290.884 179.173 297.232 179.173C303.58 179.173 309.667 176.652 314.156 172.163C306.102 180.217 291.991 179.172 282.645 169.826L282.645 169.826Z" fill="white"/>
<path d="M311.826 140.647C321.172 149.993 322.215 164.104 314.156 172.163C306.102 180.217 291.991 179.172 282.645 169.826C273.299 160.48 272.255 146.368 280.309 138.315C288.369 130.256 302.48 131.3 311.826 140.647Z" fill="#FEA49C"/>
<path d="M304.851 147.621C306.357 149.128 307.381 151.047 307.796 153.136C308.211 155.224 307.997 157.389 307.182 159.357C306.366 161.324 304.986 163.006 303.215 164.189C301.444 165.372 299.362 166.003 297.233 166.003C295.103 166.003 293.021 165.371 291.25 164.188C289.479 163.005 288.099 161.324 287.284 159.356C286.468 157.389 286.255 155.224 286.67 153.135C287.085 151.046 288.11 149.127 289.615 147.621C290.615 146.619 291.802 145.825 293.11 145.283C294.417 144.741 295.818 144.462 297.233 144.462C298.648 144.462 300.05 144.741 301.357 145.283C302.664 145.825 303.851 146.62 304.851 147.621L304.851 147.621Z" fill="white"/>
<path d="M290.232 148.232C288.847 149.617 287.903 151.382 287.521 153.304C287.139 155.225 287.335 157.216 288.085 159.026C288.834 160.836 290.104 162.383 291.733 163.472C293.361 164.56 295.276 165.141 297.235 165.141C299.194 165.141 301.109 164.56 302.738 163.472C304.367 162.384 305.637 160.837 306.386 159.027C307.136 157.217 307.332 155.226 306.95 153.304C306.568 151.383 305.625 149.618 304.239 148.233C302.38 146.379 299.861 145.338 297.236 145.338C294.61 145.338 292.092 146.379 290.232 148.232ZM305.468 163.469C303.84 165.097 301.765 166.206 299.507 166.655C297.248 167.104 294.907 166.874 292.78 165.992C290.652 165.111 288.834 163.619 287.555 161.704C286.276 159.79 285.593 157.539 285.593 155.236C285.593 152.933 286.276 150.682 287.555 148.768C288.835 146.853 290.653 145.361 292.78 144.48C294.908 143.599 297.249 143.368 299.507 143.817C301.766 144.267 303.84 145.376 305.468 147.004C307.649 149.189 308.873 152.15 308.873 155.237C308.873 158.323 307.648 161.284 305.468 163.469Z" fill="#31313E"/>
<path d="M332.232 85.0847L297.156 120.161L332.232 155.237L367.308 120.161L332.232 85.0847Z" fill="white"/>
<path d="M297.156 120.16L332.233 85.0847L332.231 155.237L297.156 120.16Z" fill="#ED553B"/>
<path d="M349.77 102.623L332.232 120.161L332.233 85.0846L349.77 102.623Z" fill="#FF9EF6"/>
<path d="M349.77 102.623L332.232 120.161L367.308 120.162L349.77 102.623Z" fill="#FF9955"/>
<path d="M366.432 111.295C366.633 111.095 366.888 110.958 367.166 110.903C367.444 110.848 367.732 110.877 367.994 110.986C368.256 111.094 368.479 111.278 368.637 111.514C368.794 111.75 368.878 112.027 368.878 112.31C368.878 112.594 368.794 112.871 368.637 113.106C368.479 113.342 368.256 113.526 367.994 113.634C367.732 113.743 367.444 113.772 367.166 113.717C366.888 113.662 366.632 113.526 366.432 113.325C366.298 113.192 366.192 113.034 366.119 112.86C366.047 112.686 366.009 112.499 366.009 112.31C366.009 112.121 366.047 111.934 366.119 111.76C366.192 111.586 366.298 111.428 366.432 111.295ZM371.295 116.164C372.057 115.402 372.576 114.431 372.787 113.373C372.997 112.316 372.889 111.22 372.477 110.225C372.064 109.229 371.366 108.377 370.469 107.779C369.573 107.18 368.519 106.86 367.442 106.86C366.364 106.86 365.31 107.18 364.414 107.778C363.517 108.377 362.819 109.228 362.406 110.224C361.994 111.22 361.886 112.316 362.096 113.373C362.306 114.43 362.825 115.401 363.588 116.164C364.094 116.67 364.694 117.071 365.356 117.345C366.017 117.619 366.726 117.76 367.441 117.76C368.157 117.76 368.866 117.619 369.527 117.346C370.188 117.072 370.789 116.67 371.295 116.164Z" fill="#39175F"/>
<path d="M375.501 102.226C375.702 102.026 375.957 101.89 376.235 101.835C376.513 101.78 376.802 101.808 377.063 101.917C377.325 102.026 377.549 102.209 377.706 102.445C377.864 102.681 377.948 102.958 377.948 103.241C377.948 103.525 377.864 103.802 377.706 104.038C377.549 104.273 377.325 104.457 377.063 104.566C376.802 104.674 376.513 104.703 376.235 104.648C375.957 104.593 375.702 104.457 375.501 104.257C375.367 104.124 375.261 103.965 375.188 103.791C375.116 103.617 375.079 103.43 375.079 103.241C375.079 103.053 375.116 102.866 375.188 102.691C375.261 102.517 375.367 102.359 375.501 102.226ZM380.364 107.095C381.127 106.333 381.646 105.362 381.856 104.305C382.066 103.248 381.958 102.152 381.546 101.156C381.134 100.16 380.435 99.3088 379.539 98.7099C378.643 98.111 377.589 97.7913 376.511 97.7913C375.433 97.7913 374.379 98.1109 373.483 98.7097C372.587 99.3085 371.888 100.16 371.476 101.156C371.063 102.151 370.955 103.247 371.165 104.304C371.376 105.362 371.895 106.333 372.657 107.095C373.163 107.601 373.764 108.003 374.425 108.277C375.086 108.551 375.795 108.692 376.511 108.692C377.226 108.692 377.935 108.551 378.596 108.277C379.258 108.003 379.858 107.601 380.364 107.095Z" fill="#39175F"/>
<path d="M384.564 93.1571C384.765 92.9563 385.021 92.8195 385.3 92.7641C385.578 92.7087 385.867 92.7372 386.129 92.8458C386.392 92.9545 386.616 93.1386 386.774 93.3747C386.931 93.6109 387.016 93.8885 387.016 94.1725C387.016 94.4565 386.931 94.7341 386.774 94.9703C386.616 95.2064 386.391 95.3905 386.129 95.4991C385.867 95.6078 385.578 95.6362 385.299 95.5808C385.021 95.5254 384.765 95.3887 384.564 95.1878C384.295 94.9182 384.145 94.5531 384.145 94.1724C384.145 93.7918 384.295 93.4266 384.564 93.1571ZM389.433 98.0263C390.195 97.2642 390.715 96.2931 390.925 95.2359C391.135 94.1787 391.027 93.0828 390.615 92.087C390.202 91.0911 389.504 90.2399 388.608 89.641C387.711 89.0421 386.658 88.7225 385.58 88.7224C384.502 88.7224 383.448 89.042 382.552 89.6408C381.656 90.2397 380.957 91.0909 380.544 92.0867C380.132 93.0826 380.024 94.1784 380.234 95.2356C380.445 96.2928 380.964 97.2639 381.726 98.0261C382.232 98.5323 382.833 98.9339 383.494 99.2078C384.155 99.4818 384.864 99.6228 385.579 99.6228C386.295 99.6229 387.004 99.4819 387.665 99.208C388.326 98.934 388.927 98.5325 389.433 98.0263Z" fill="#39175F"/>
<path d="M393.634 84.0884C393.834 83.8876 394.09 83.7508 394.369 83.6954C394.647 83.64 394.936 83.6685 395.198 83.7772C395.461 83.8858 395.685 84.0699 395.843 84.306C396.001 84.5422 396.085 84.8198 396.085 85.1038C396.085 85.3878 396.001 85.6654 395.843 85.9016C395.685 86.1377 395.461 86.3217 395.198 86.4304C394.936 86.5391 394.647 86.5675 394.369 86.5121C394.09 86.4567 393.834 86.3199 393.634 86.1191C393.365 85.8495 393.214 85.4844 393.214 85.1037C393.214 84.7231 393.365 84.3579 393.634 84.0884L393.634 84.0884ZM398.503 88.9576C399.265 88.1955 399.784 87.2244 399.994 86.1672C400.205 85.11 400.097 84.0141 399.684 83.0183C399.272 82.0224 398.573 81.1712 397.677 80.5723C396.781 79.9734 395.727 79.6538 394.649 79.6537C393.571 79.6537 392.517 79.9733 391.621 80.5721C390.725 81.171 390.026 82.0221 389.614 83.018C389.201 84.0138 389.093 85.1097 389.304 86.1669C389.514 87.2241 390.033 88.1952 390.795 88.9574C391.818 89.9772 393.204 90.5498 394.649 90.5498C396.093 90.5498 397.479 89.9773 398.503 88.9576Z" fill="#39175F"/>
<path d="M359.175 78.0183C358.715 77.4308 358.506 76.6856 358.592 75.9446C358.679 75.2036 359.054 74.5266 359.637 74.0607L360.161 73.6511L365.856 69.1398C366.443 68.6802 367.188 68.471 367.929 68.5574C368.67 68.6438 369.347 69.019 369.813 69.6015C370.273 70.189 370.482 70.9342 370.396 71.6751C370.31 72.4161 369.934 73.0931 369.352 73.559L363.294 78.3472L363.132 78.48C362.545 78.9395 361.8 79.1488 361.059 79.0623C360.318 78.9759 359.641 78.6008 359.175 78.0183L359.175 78.0183Z" fill="#FF9EF6"/>
<path d="M364.718 115.033C365.257 115.572 365.943 115.938 366.69 116.087C367.437 116.236 368.211 116.159 368.915 115.868C369.618 115.576 370.22 115.083 370.643 114.45C371.066 113.816 371.292 113.072 371.292 112.31C371.292 111.549 371.066 110.804 370.643 110.171C370.22 109.537 369.619 109.044 368.915 108.752C368.211 108.461 367.437 108.385 366.69 108.533C365.943 108.682 365.257 109.048 364.718 109.587C364.36 109.944 364.076 110.369 363.882 110.836C363.689 111.303 363.589 111.804 363.589 112.31C363.589 112.816 363.689 113.317 363.882 113.784C364.076 114.251 364.36 114.676 364.718 115.033Z" fill="#FF9EF6"/>
<path d="M373.787 105.964C374.326 106.503 375.012 106.87 375.759 107.018C376.506 107.167 377.28 107.091 377.984 106.799C378.688 106.508 379.289 106.014 379.712 105.381C380.136 104.748 380.361 104.003 380.361 103.241C380.361 102.48 380.136 101.735 379.712 101.102C379.289 100.469 378.688 99.9751 377.984 99.6836C377.281 99.3921 376.506 99.3158 375.759 99.4644C375.012 99.6129 374.326 99.9797 373.788 100.518C373.43 100.876 373.146 101.3 372.952 101.767C372.758 102.235 372.658 102.735 372.658 103.241C372.658 103.747 372.758 104.248 372.952 104.715C373.145 105.182 373.429 105.607 373.787 105.964Z" fill="#FF9EF6"/>
<path d="M382.857 96.8954C383.395 97.434 384.081 97.8008 384.828 97.9494C385.575 98.098 386.35 98.0218 387.053 97.7303C387.757 97.4389 388.359 96.9453 388.782 96.312C389.205 95.6788 389.431 94.9342 389.431 94.1726C389.431 93.411 389.205 92.6664 388.782 92.0331C388.359 91.3998 387.757 90.9062 387.054 90.6147C386.35 90.3232 385.576 90.2469 384.829 90.3955C384.082 90.5441 383.395 90.9108 382.857 91.4494C382.499 91.8067 382.215 92.2312 382.021 92.6984C381.827 93.1657 381.728 93.6665 381.728 94.1724C381.727 94.6782 381.827 95.1791 382.021 95.6463C382.215 96.1136 382.499 96.5381 382.857 96.8954Z" fill="#FF9EF6"/>
<path d="M391.926 87.8267C392.465 88.3653 393.151 88.7321 393.898 88.8807C394.645 89.0293 395.419 88.953 396.123 88.6616C396.826 88.3701 397.428 87.8766 397.851 87.2433C398.274 86.61 398.5 85.8655 398.5 85.1039C398.5 84.3422 398.274 83.5977 397.851 82.9644C397.428 82.3311 396.827 81.8375 396.123 81.546C395.419 81.2545 394.645 81.1782 393.898 81.3268C393.151 81.4754 392.465 81.8421 391.926 82.3807C391.568 82.738 391.284 83.1625 391.09 83.6297C390.897 84.097 390.797 84.5978 390.797 85.1037C390.797 85.6095 390.897 86.1104 391.09 86.5776C391.284 87.0449 391.568 87.4693 391.926 87.8267Z" fill="#FF9EF6"/>
<path d="M332.232 85.0847L297.156 120.161L332.232 155.237L367.308 120.161L332.232 85.0847Z" fill="white"/>
<path d="M367.309 50.0095L332.233 85.0857L367.309 120.162L402.385 85.0857L367.309 50.0095Z" fill="#08E6E7"/>
<path d="M297.156 120.16L332.233 85.0847L332.231 155.237L297.156 120.16Z" fill="#ED553B"/>
<path d="M349.77 102.623L332.232 120.161L332.233 85.0846L349.77 102.623Z" fill="#FEA59C"/>
<path d="M349.77 102.623L332.232 120.161L367.308 120.162L349.77 102.623Z" fill="#FF9A00"/>
<path d="M366.432 111.295C366.633 111.095 366.888 110.958 367.166 110.903C367.444 110.848 367.732 110.877 367.994 110.986C368.256 111.094 368.479 111.278 368.637 111.514C368.794 111.75 368.878 112.027 368.878 112.31C368.878 112.594 368.794 112.871 368.637 113.106C368.479 113.342 368.256 113.526 367.994 113.634C367.732 113.743 367.444 113.772 367.166 113.717C366.888 113.662 366.632 113.526 366.432 113.325C366.298 113.192 366.192 113.034 366.119 112.86C366.047 112.686 366.009 112.499 366.009 112.31C366.009 112.121 366.047 111.934 366.119 111.76C366.192 111.586 366.298 111.428 366.432 111.295ZM371.295 116.164C372.057 115.402 372.576 114.431 372.787 113.373C372.997 112.316 372.889 111.22 372.477 110.225C372.064 109.229 371.366 108.377 370.469 107.779C369.573 107.18 368.519 106.86 367.442 106.86C366.364 106.86 365.31 107.18 364.414 107.778C363.517 108.377 362.819 109.228 362.406 110.224C361.994 111.22 361.886 112.316 362.096 113.373C362.306 114.43 362.825 115.401 363.588 116.164C364.094 116.67 364.694 117.071 365.356 117.345C366.017 117.619 366.726 117.76 367.441 117.76C368.157 117.76 368.866 117.619 369.527 117.346C370.188 117.072 370.789 116.67 371.295 116.164Z" fill="#31313E"/>
<path d="M375.501 102.226C375.702 102.026 375.957 101.89 376.235 101.835C376.513 101.78 376.802 101.808 377.063 101.917C377.325 102.026 377.549 102.209 377.706 102.445C377.864 102.681 377.948 102.958 377.948 103.241C377.948 103.525 377.864 103.802 377.706 104.038C377.549 104.273 377.325 104.457 377.063 104.566C376.802 104.674 376.513 104.703 376.235 104.648C375.957 104.593 375.702 104.457 375.501 104.257C375.367 104.124 375.261 103.965 375.188 103.791C375.116 103.617 375.079 103.43 375.079 103.241C375.079 103.053 375.116 102.866 375.188 102.691C375.261 102.517 375.367 102.359 375.501 102.226ZM380.364 107.095C381.127 106.333 381.646 105.362 381.856 104.305C382.066 103.248 381.958 102.152 381.546 101.156C381.134 100.16 380.435 99.3088 379.539 98.7099C378.643 98.111 377.589 97.7913 376.511 97.7913C375.433 97.7913 374.379 98.1109 373.483 98.7097C372.587 99.3085 371.888 100.16 371.476 101.156C371.063 102.151 370.955 103.247 371.165 104.304C371.376 105.362 371.895 106.333 372.657 107.095C373.163 107.601 373.764 108.003 374.425 108.277C375.086 108.551 375.795 108.692 376.511 108.692C377.226 108.692 377.935 108.551 378.596 108.277C379.258 108.003 379.858 107.601 380.364 107.095Z" fill="#31313E"/>
<path d="M384.564 93.1571C384.765 92.9563 385.021 92.8195 385.3 92.7641C385.578 92.7087 385.867 92.7372 386.129 92.8458C386.392 92.9545 386.616 93.1386 386.774 93.3747C386.931 93.6109 387.016 93.8885 387.016 94.1725C387.016 94.4565 386.931 94.7341 386.774 94.9703C386.616 95.2064 386.391 95.3905 386.129 95.4991C385.867 95.6078 385.578 95.6362 385.299 95.5808C385.021 95.5254 384.765 95.3887 384.564 95.1878C384.295 94.9182 384.145 94.5531 384.145 94.1724C384.145 93.7918 384.295 93.4266 384.564 93.1571ZM389.433 98.0263C390.195 97.2642 390.715 96.2931 390.925 95.2359C391.135 94.1787 391.027 93.0828 390.615 92.087C390.202 91.0911 389.504 90.2399 388.608 89.641C387.711 89.0421 386.658 88.7225 385.58 88.7224C384.502 88.7224 383.448 89.042 382.552 89.6408C381.656 90.2397 380.957 91.0909 380.544 92.0867C380.132 93.0826 380.024 94.1784 380.234 95.2356C380.445 96.2928 380.964 97.2639 381.726 98.0261C382.232 98.5323 382.833 98.9339 383.494 99.2078C384.155 99.4818 384.864 99.6228 385.579 99.6228C386.295 99.6229 387.004 99.4819 387.665 99.208C388.326 98.934 388.927 98.5325 389.433 98.0263Z" fill="#31313E"/>
<path d="M393.634 84.0884C393.834 83.8876 394.09 83.7508 394.369 83.6954C394.647 83.64 394.936 83.6685 395.198 83.7772C395.461 83.8858 395.685 84.0699 395.843 84.306C396.001 84.5422 396.085 84.8198 396.085 85.1038C396.085 85.3878 396.001 85.6654 395.843 85.9016C395.685 86.1377 395.461 86.3217 395.198 86.4304C394.936 86.5391 394.647 86.5675 394.369 86.5121C394.09 86.4567 393.834 86.3199 393.634 86.1191C393.365 85.8495 393.214 85.4844 393.214 85.1037C393.214 84.7231 393.365 84.3579 393.634 84.0884L393.634 84.0884ZM398.503 88.9576C399.265 88.1955 399.784 87.2244 399.994 86.1672C400.205 85.11 400.097 84.0141 399.684 83.0183C399.272 82.0224 398.573 81.1712 397.677 80.5723C396.781 79.9734 395.727 79.6538 394.649 79.6537C393.571 79.6537 392.517 79.9733 391.621 80.5721C390.725 81.171 390.026 82.0221 389.614 83.018C389.201 84.0138 389.093 85.1097 389.304 86.1669C389.514 87.2241 390.033 88.1952 390.795 88.9574C391.818 89.9772 393.204 90.5498 394.649 90.5498C396.093 90.5498 397.479 89.9773 398.503 88.9576Z" fill="#31313E"/>
<path d="M360.323 99.6985C362.059 94.5295 365.688 81.9356 365.688 81.9356L363.894 79.2414L369.923 74.4704C371.567 73.1724 371.983 70.7956 370.766 69.0937C370.46 68.665 370.07 68.303 369.621 68.0295C369.171 67.7561 368.67 67.577 368.149 67.5031C367.627 67.4291 367.097 67.4619 366.589 67.5995C366.08 67.737 365.605 67.9764 365.193 68.3031L359.562 72.7567L355.287 67.8298C355.073 67.5085 354.941 67.1395 354.903 66.7552C354.864 66.3709 354.921 65.9832 355.068 65.626C357.422 59.7819 361.997 56.7648 364.178 55.611C364.529 55.425 364.924 55.3385 365.32 55.3609C365.717 55.3832 366.1 55.5137 366.428 55.738C369.451 57.7861 381.681 67.4902 386.094 71.6786C388.569 74.0267 389.769 75.7402 390.34 76.9113C390.576 77.3978 390.669 77.9416 390.608 78.4789C390.547 79.0163 390.334 79.5251 389.994 79.9459C388.078 82.3285 364.603 106.033 364.569 106.039C362.694 106.402 361.54 105.491 360.83 104.366C360.406 103.674 360.14 102.896 360.052 102.089C359.964 101.282 360.057 100.466 360.323 99.6985L360.323 99.6985Z" fill="white"/>
<path d="M359.602 99.5255C361.148 94.9219 364.212 84.3529 364.84 82.1895L362.821 79.1664L369.485 73.8879C370.118 73.3913 370.54 72.6745 370.668 71.8803C370.792 71.1185 370.61 70.3384 370.16 69.7111C370.135 69.668 370.106 69.6275 370.073 69.5899C369.593 68.9852 368.899 68.5873 368.134 68.4779C367.369 68.3684 366.591 68.5557 365.96 69.0014C365.931 69.0244 365.891 69.0533 365.839 69.0937L359.556 74.0665L354.733 68.5049L354.664 68.4184C354.371 67.9807 354.191 67.4773 354.139 66.953C354.088 66.4275 354.163 65.8974 354.358 65.4069C355.252 63.2001 356.531 61.1704 358.137 59.4129C359.786 57.6106 361.727 56.0991 363.878 54.942C364.37 54.684 364.923 54.5644 365.477 54.5959C366.032 54.6274 366.568 54.8089 367.028 55.1209C368.706 56.2632 373.195 59.7364 377.625 63.3249C381.225 66.2441 384.796 69.2499 386.804 71.1538C387.851 72.1307 388.826 73.1814 389.723 74.2981C390.303 75.0212 390.808 75.8023 391.229 76.6288C391.538 77.2649 391.66 77.9759 391.58 78.6788C391.5 79.3816 391.222 80.0473 390.778 80.598C390.109 81.4345 386.855 84.8266 382.88 88.8995C375.305 96.6761 364.886 106.997 364.84 107.002C363.867 107.223 362.848 107.094 361.961 106.639C361.233 106.238 360.626 105.651 360.201 104.937C359.702 104.145 359.392 103.249 359.296 102.318C359.193 101.376 359.297 100.423 359.602 99.5255L359.602 99.5255ZM366.635 82.2876C366.623 82.3223 363.005 94.8815 361.257 100.085C361.034 100.743 360.957 101.442 361.032 102.133C361.099 102.798 361.32 103.438 361.678 104.002C361.941 104.456 362.319 104.833 362.774 105.093C363.311 105.359 363.923 105.428 364.505 105.289C364.511 105.289 374.226 95.2857 381.634 87.6822C385.557 83.6497 388.771 80.3094 389.423 79.5018C389.655 79.2072 389.801 78.8536 389.844 78.4807C389.889 78.1108 389.825 77.7356 389.659 77.4018C389.296 76.6839 388.857 76.007 388.35 75.3826C387.507 74.3278 386.587 73.3367 385.598 72.4172C383.642 70.5595 380.1 67.5883 376.523 64.6806C372.127 61.1209 367.691 57.6824 366.041 56.5631C365.845 56.4283 365.615 56.3504 365.378 56.3381C365.141 56.322 364.905 56.374 364.697 56.4881C362.719 57.5466 360.936 58.9336 359.424 60.5898C357.961 62.1947 356.795 64.0464 355.98 66.0588C355.887 66.2852 355.853 66.5313 355.881 66.7742C355.9 67 355.973 67.2179 356.095 67.4088L359.781 71.655L364.754 67.7206C364.813 67.6712 364.875 67.625 364.939 67.5821L364.945 67.5821C365.938 66.8716 367.167 66.5706 368.376 66.7414C369.586 66.9122 370.683 67.5418 371.441 68.4996C371.487 68.5573 371.533 68.6208 371.585 68.69C372.296 69.694 372.584 70.9371 372.387 72.1515C372.193 73.3781 371.547 74.4876 370.575 75.261L365.175 79.5357L366.744 81.8953L366.635 82.2876Z" fill="#31313E"/>
<path d="M359.319 78.1566C358.857 77.5701 358.646 76.8242 358.733 76.0825C358.819 75.3407 359.196 74.6634 359.781 74.199L360.3 73.7894L365.994 69.2839C366.581 68.8215 367.327 68.6105 368.069 68.697C368.81 68.7835 369.488 69.1606 369.952 69.7455C370.412 70.332 370.621 71.0764 370.535 71.8165C370.448 72.5566 370.073 73.2326 369.49 73.6974L363.433 78.4914L363.271 78.6183C362.686 79.0806 361.941 79.2917 361.2 79.2052C360.459 79.1186 359.782 78.7415 359.319 78.1566L359.319 78.1566Z" fill="#FEA49C"/>
<path d="M364.718 115.033C365.257 115.572 365.943 115.938 366.69 116.087C367.437 116.236 368.211 116.159 368.915 115.868C369.618 115.576 370.22 115.083 370.643 114.45C371.066 113.816 371.292 113.072 371.292 112.31C371.292 111.549 371.066 110.804 370.643 110.171C370.22 109.537 369.619 109.044 368.915 108.752C368.211 108.461 367.437 108.385 366.69 108.533C365.943 108.682 365.257 109.048 364.718 109.587C364.36 109.944 364.076 110.369 363.882 110.836C363.689 111.303 363.589 111.804 363.589 112.31C363.589 112.816 363.689 113.317 363.882 113.784C364.076 114.251 364.36 114.676 364.718 115.033Z" fill="#FEA49C"/>
<path d="M373.787 105.964C374.326 106.503 375.012 106.87 375.759 107.018C376.506 107.167 377.28 107.091 377.984 106.799C378.688 106.508 379.289 106.014 379.712 105.381C380.136 104.748 380.361 104.003 380.361 103.241C380.361 102.48 380.136 101.735 379.712 101.102C379.289 100.469 378.688 99.9751 377.984 99.6836C377.281 99.3921 376.506 99.3158 375.759 99.4644C375.012 99.6129 374.326 99.9797 373.788 100.518C373.43 100.876 373.146 101.3 372.952 101.767C372.758 102.235 372.658 102.735 372.658 103.241C372.658 103.747 372.758 104.248 372.952 104.715C373.145 105.182 373.429 105.607 373.787 105.964Z" fill="#FEA49C"/>
<path d="M382.857 96.8954C383.395 97.434 384.081 97.8008 384.828 97.9494C385.575 98.098 386.35 98.0218 387.053 97.7303C387.757 97.4389 388.359 96.9453 388.782 96.312C389.205 95.6788 389.431 94.9342 389.431 94.1726C389.431 93.411 389.205 92.6664 388.782 92.0331C388.359 91.3998 387.757 90.9062 387.054 90.6147C386.35 90.3232 385.576 90.2469 384.829 90.3955C384.082 90.5441 383.395 90.9108 382.857 91.4494C382.499 91.8067 382.215 92.2312 382.021 92.6984C381.827 93.1657 381.728 93.6665 381.728 94.1724C381.727 94.6782 381.827 95.1791 382.021 95.6463C382.215 96.1136 382.499 96.5381 382.857 96.8954Z" fill="#FEA49C"/>
<path d="M391.926 87.8267C392.465 88.3653 393.151 88.7321 393.898 88.8807C394.645 89.0293 395.419 88.953 396.123 88.6616C396.826 88.3701 397.428 87.8766 397.851 87.2433C398.274 86.61 398.5 85.8655 398.5 85.1039C398.5 84.3422 398.274 83.5977 397.851 82.9644C397.428 82.3311 396.827 81.8375 396.123 81.546C395.419 81.2545 394.645 81.1782 393.898 81.3268C393.151 81.4754 392.465 81.8421 391.926 82.3807C391.568 82.738 391.284 83.1625 391.09 83.6297C390.897 84.097 390.797 84.5978 390.797 85.1037C390.797 85.6095 390.897 86.1104 391.09 86.5776C391.284 87.0449 391.568 87.4693 391.926 87.8267Z" fill="#FEA49C"/>
<path d="M402.384 85.0866L367.308 120.163L402.384 155.239L437.461 120.163L402.384 85.0866Z" fill="white"/>
<path fill-rule="evenodd" clip-rule="evenodd" d="M411.276 93.9598C413.292 95.9804 414.546 98.6376 414.823 101.479C415.1 104.32 414.383 107.169 412.795 109.542C411.207 111.914 408.846 113.662 406.113 114.488C403.381 115.315 400.447 115.168 397.81 114.074C395.173 112.979 392.998 111.005 391.654 108.486C390.31 105.968 389.881 103.061 390.439 100.262C390.998 97.4622 392.51 94.943 394.718 93.1332C396.926 91.3235 399.692 90.3351 402.547 90.3365C404.169 90.3362 405.775 90.6562 407.273 91.2779C408.77 91.8997 410.131 92.8111 411.276 93.9598Z" fill="#08E6E7"/>
<path fill-rule="evenodd" clip-rule="evenodd" d="M393.985 111.249C395.711 112.977 396.885 115.177 397.36 117.572C397.835 119.967 397.59 122.449 396.654 124.704C395.719 126.96 394.136 128.887 392.105 130.243C390.075 131.598 387.687 132.321 385.246 132.32C382.804 132.32 380.418 131.595 378.388 130.238C376.358 128.881 374.777 126.952 373.843 124.696C372.909 122.44 372.665 119.958 373.142 117.563C373.619 115.169 374.795 112.969 376.522 111.243C377.669 110.097 379.03 109.188 380.529 108.567C382.027 107.947 383.633 107.628 385.255 107.629C386.876 107.63 388.482 107.95 389.98 108.571C391.478 109.192 392.839 110.102 393.985 111.249Z" fill="#ED553B"/>
<path fill-rule="evenodd" clip-rule="evenodd" d="M411.125 94.1097C413.145 96.1297 414.401 98.7875 414.681 101.63C414.961 104.473 414.246 107.324 412.659 109.699C411.072 112.074 408.711 113.825 405.978 114.655C403.244 115.484 400.308 115.34 397.669 114.247C395.03 113.154 392.852 111.179 391.505 108.66C390.158 106.141 389.726 103.233 390.283 100.432C390.84 97.6304 392.351 95.1086 394.559 93.2962C396.767 91.4837 399.535 90.4928 402.391 90.4922C405.667 90.4939 408.808 91.7948 411.125 94.1097Z" fill="#08E6E7"/>
<path d="M419.998 102.7L384.921 137.776L402.384 155.239L437.461 120.163L419.998 102.7Z" fill="#FEA49C"/>
<path fill-rule="evenodd" clip-rule="evenodd" d="M393.656 111.572C395.383 113.299 396.559 115.5 397.036 117.895C397.512 120.291 397.268 122.774 396.333 125.03C395.398 127.287 393.816 129.215 391.785 130.572C389.754 131.929 387.366 132.653 384.924 132.653C382.482 132.653 380.094 131.929 378.063 130.572C376.033 129.215 374.45 127.286 373.515 125.03C372.581 122.773 372.336 120.29 372.813 117.895C373.29 115.499 374.466 113.299 376.193 111.572C378.509 109.257 381.65 107.957 384.925 107.957C388.199 107.957 391.34 109.258 393.656 111.572Z" fill="#ED553B"/>
<path fill-rule="evenodd" clip-rule="evenodd" d="M375.926 174.028C377.726 175.828 376.739 179.728 373.727 182.74C370.71 185.757 366.81 186.743 365.016 184.943L345.488 165.414C343.688 163.62 344.675 159.72 347.686 156.703C350.704 153.691 354.604 152.705 356.403 154.499L375.926 174.028Z" fill="#F5FFFF"/>
<path d="M376.457 173.503C377.553 174.6 377.812 176.284 377.351 178.113L375.908 177.744C376.243 176.423 376.099 175.251 375.401 174.553L376.457 173.503ZM377.351 178.113C376.924 179.815 375.856 181.667 374.252 183.27L373.197 182.215C374.61 180.801 375.545 179.197 375.908 177.744L377.351 178.113ZM374.252 183.27C372.649 184.868 370.797 185.936 369.101 186.368L368.726 184.926C370.179 184.557 371.783 183.622 373.197 182.215L374.252 183.27ZM369.101 186.368C367.266 186.83 365.587 186.57 364.485 185.468L365.541 184.418C366.239 185.116 367.404 185.261 368.726 184.926L369.101 186.368ZM364.485 185.468L344.963 165.939L346.013 164.889L365.541 184.418L364.485 185.468ZM344.963 165.939L346.013 164.889L344.963 165.939ZM344.963 165.939C343.861 164.843 343.602 163.158 344.063 161.33L345.506 161.705C345.171 163.026 345.315 164.191 346.013 164.889L344.963 165.939ZM344.063 161.33C344.49 159.634 345.558 157.782 347.161 156.178L348.217 157.228C346.804 158.641 345.875 160.245 345.506 161.705L344.063 161.33ZM347.161 156.178L348.217 157.234L347.161 156.178ZM347.161 156.178L348.217 157.234L347.161 156.178ZM347.161 156.178C348.765 154.574 350.617 153.507 352.313 153.074L352.688 154.517C351.234 154.886 349.631 155.82 348.217 157.234L347.161 156.178ZM352.313 153.074C354.148 152.613 355.827 152.878 356.929 153.974L355.873 155.024C355.175 154.326 354.009 154.188 352.688 154.517L352.313 153.074ZM356.929 153.974L376.457 173.503L375.401 174.553L355.873 155.024L356.929 153.974Z" fill="#39175F"/>
<path d="M345.511 165.391C343.711 163.597 344.698 159.697 347.71 156.68C350.727 153.668 354.627 152.682 356.421 154.476C358.221 156.276 357.234 160.176 354.223 163.188C351.205 166.205 347.306 167.191 345.511 165.391Z" fill="#ED553B" stroke="#39175F" stroke-width="6.51968" stroke-miterlimit="10"/>
<path d="M397.659 152.297C399.459 154.097 398.472 157.997 395.455 161.014C392.443 164.025 388.543 165.012 386.743 163.212L367.216 143.688C365.421 141.888 366.408 137.988 369.42 134.971C372.437 131.96 376.337 130.973 378.131 132.773L397.659 152.297Z" fill="#F5FFFF"/>
<path d="M398.184 151.772C399.285 152.874 399.545 154.552 399.083 156.387L397.641 156.012C397.976 154.691 397.832 153.526 397.134 152.827L398.184 151.772ZM399.083 156.387C398.657 158.083 397.589 159.935 395.98 161.539L394.93 160.483C396.337 159.075 397.272 157.472 397.641 156.012L399.083 156.387ZM395.985 161.539L394.93 160.483L395.985 161.539ZM395.985 161.539L394.93 160.483L395.985 161.539ZM395.985 161.539C394.381 163.143 392.53 164.21 390.833 164.637L390.458 163.194C391.912 162.831 393.516 161.896 394.93 160.483L395.985 161.539ZM390.833 164.637C388.999 165.098 387.314 164.838 386.218 163.742L387.268 162.687C387.972 163.385 389.137 163.529 390.458 163.194L390.833 164.637ZM386.218 163.742L366.69 144.213L367.746 143.158L387.268 162.687L386.218 163.742ZM366.69 144.213C365.594 143.111 365.329 141.433 365.796 139.598L367.233 139.973C366.904 141.294 367.042 142.459 367.746 143.158L366.69 144.213ZM365.796 139.598C366.223 137.902 367.29 136.05 368.894 134.446L369.95 135.502C368.537 136.915 367.602 138.519 367.233 139.973L365.796 139.598ZM368.894 134.446C370.498 132.842 372.35 131.775 374.046 131.348L374.421 132.791C372.962 133.16 371.358 134.089 369.944 135.502L368.894 134.446ZM374.046 131.348C375.875 130.887 377.56 131.147 378.656 132.243L377.606 133.298C376.908 132.6 375.742 132.456 374.421 132.791L374.046 131.348ZM378.656 132.243L398.184 151.772L397.134 152.827L377.606 133.298L378.656 132.243Z" fill="#39175F"/>
<path d="M367.238 143.665C365.444 141.865 366.431 137.965 369.443 134.954C372.46 131.937 376.36 130.95 378.154 132.75C379.954 134.545 378.967 138.445 375.95 141.462C372.938 144.473 369.038 145.46 367.238 143.665Z" fill="#FF9EF6" stroke="#39175F" stroke-width="6.51968" stroke-miterlimit="10"/>
<path d="M350.888 159.593C349.082 161.405 345.188 160.441 342.189 157.447C339.194 154.447 338.231 150.553 340.043 148.747L359.687 129.104C361.493 127.292 365.387 128.256 368.387 131.25C371.381 134.25 372.344 138.144 370.533 139.95L350.888 159.593Z" fill="#F5FFFF"/>
<path d="M351.419 160.124C350.317 161.226 348.638 161.491 346.81 161.041L347.161 159.599C348.483 159.928 349.654 159.778 350.363 159.068L351.419 160.124ZM346.81 161.041C345.108 160.62 343.256 159.564 341.664 157.972L342.714 156.922C344.121 158.324 345.713 159.247 347.161 159.599L346.81 161.041ZM341.664 157.972C340.071 156.38 339.016 154.528 338.595 152.826L340.037 152.474C340.389 153.922 341.312 155.514 342.714 156.922L341.664 157.972ZM338.595 152.826C338.145 150.997 338.41 149.318 339.512 148.216L340.568 149.272C339.858 149.982 339.708 151.153 340.037 152.474L338.595 152.826ZM339.512 148.216L359.156 128.573L360.212 129.629L340.568 149.272L339.512 148.216ZM359.156 128.573C360.258 127.471 361.937 127.206 363.766 127.656L363.414 129.092C362.093 128.769 360.922 128.919 360.212 129.629L359.156 128.573ZM363.766 127.656C365.468 128.077 367.32 129.133 368.912 130.725L367.862 131.775C366.454 130.373 364.862 129.45 363.414 129.092L363.766 127.656ZM368.912 130.725C370.504 132.317 371.56 134.169 371.981 135.871L370.544 136.223C370.187 134.775 369.264 133.183 367.862 131.775L368.912 130.725ZM371.981 135.871C372.431 137.7 372.165 139.379 371.063 140.481L370.008 139.425C370.717 138.715 370.867 137.544 370.544 136.223L371.981 135.871ZM371.063 140.481L351.419 160.124L350.363 159.068L370.008 139.425L371.063 140.481Z" fill="#39175F"/>
<path d="M359.71 129.121C361.516 127.315 365.41 128.279 368.41 131.273C371.404 134.267 372.367 138.167 370.556 139.973C368.75 141.779 364.856 140.821 361.862 137.821C358.862 134.827 357.899 130.933 359.71 129.121L359.71 129.121Z" fill="#08E6E7" stroke="#39175F" stroke-width="6.51968" stroke-miterlimit="10"/>
<path d="M367.307 120.162L332.231 155.238L367.307 190.314L402.383 155.238L367.307 120.162Z" fill="#31313E"/>
<path d="M375.926 174.028C377.726 175.828 376.739 179.728 373.727 182.74C370.71 185.757 366.81 186.743 365.016 184.943L345.488 165.414C343.688 163.62 344.675 159.72 347.686 156.703C350.704 153.691 354.604 152.705 356.403 154.499L375.926 174.028Z" fill="#F5FFFF"/>
<path d="M376.457 173.503C377.553 174.6 377.812 176.284 377.351 178.113L375.908 177.744C376.243 176.423 376.099 175.251 375.401 174.553L376.457 173.503ZM377.351 178.113C376.924 179.815 375.856 181.667 374.252 183.27L373.197 182.215C374.61 180.801 375.545 179.197 375.908 177.744L377.351 178.113ZM374.252 183.27C372.649 184.868 370.797 185.936 369.101 186.368L368.726 184.926C370.179 184.557 371.783 183.622 373.197 182.215L374.252 183.27ZM369.101 186.368C367.266 186.83 365.587 186.57 364.485 185.468L365.541 184.418C366.239 185.116 367.404 185.261 368.726 184.926L369.101 186.368ZM364.485 185.468L344.963 165.939L346.013 164.889L365.541 184.418L364.485 185.468ZM344.963 165.939L346.013 164.889L344.963 165.939ZM344.963 165.939C343.861 164.843 343.602 163.158 344.063 161.33L345.506 161.705C345.171 163.026 345.315 164.191 346.013 164.889L344.963 165.939ZM344.063 161.33C344.49 159.634 345.558 157.782 347.161 156.178L348.217 157.228C346.804 158.641 345.875 160.245 345.506 161.705L344.063 161.33ZM347.161 156.178L348.217 157.234L347.161 156.178ZM347.161 156.178L348.217 157.234L347.161 156.178ZM347.161 156.178C348.765 154.574 350.617 153.507 352.313 153.074L352.688 154.517C351.234 154.886 349.631 155.82 348.217 157.234L347.161 156.178ZM352.313 153.074C354.148 152.613 355.827 152.878 356.929 153.974L355.873 155.024C355.175 154.326 354.009 154.188 352.688 154.517L352.313 153.074ZM356.929 153.974L376.457 173.503L375.401 174.553L355.873 155.024L356.929 153.974Z" fill="#31313E"/>
<path d="M345.511 165.391C343.711 163.597 344.698 159.697 347.71 156.68C350.727 153.668 354.627 152.682 356.421 154.476C358.221 156.276 357.234 160.176 354.223 163.188C351.205 166.205 347.306 167.191 345.511 165.391Z" fill="#ED553B" stroke="#31313E" stroke-width="11.3953" stroke-miterlimit="10"/>
<path d="M397.659 152.297C399.459 154.097 398.472 157.997 395.455 161.014C392.443 164.025 388.543 165.012 386.743 163.212L367.216 143.688C365.421 141.888 366.408 137.988 369.42 134.971C372.437 131.96 376.337 130.973 378.131 132.773L397.659 152.297Z" fill="#F5FFFF"/>
<path d="M398.184 151.772C399.285 152.874 399.545 154.552 399.083 156.387L397.641 156.012C397.976 154.691 397.832 153.526 397.134 152.827L398.184 151.772ZM399.083 156.387C398.657 158.083 397.589 159.935 395.98 161.539L394.93 160.483C396.337 159.075 397.272 157.472 397.641 156.012L399.083 156.387ZM395.985 161.539L394.93 160.483L395.985 161.539ZM395.985 161.539L394.93 160.483L395.985 161.539ZM395.985 161.539C394.381 163.143 392.53 164.21 390.833 164.637L390.458 163.194C391.912 162.831 393.516 161.896 394.93 160.483L395.985 161.539ZM390.833 164.637C388.999 165.098 387.314 164.838 386.218 163.742L387.268 162.687C387.972 163.385 389.137 163.529 390.458 163.194L390.833 164.637ZM386.218 163.742L366.69 144.213L367.746 143.158L387.268 162.687L386.218 163.742ZM366.69 144.213C365.594 143.111 365.329 141.433 365.796 139.598L367.233 139.973C366.904 141.294 367.042 142.459 367.746 143.158L366.69 144.213ZM365.796 139.598C366.223 137.902 367.29 136.05 368.894 134.446L369.95 135.502C368.537 136.915 367.602 138.519 367.233 139.973L365.796 139.598ZM368.894 134.446C370.498 132.842 372.35 131.775 374.046 131.348L374.421 132.791C372.962 133.16 371.358 134.089 369.944 135.502L368.894 134.446ZM374.046 131.348C375.875 130.887 377.56 131.147 378.656 132.243L377.606 133.298C376.908 132.6 375.742 132.456 374.421 132.791L374.046 131.348ZM378.656 132.243L398.184 151.772L397.134 152.827L377.606 133.298L378.656 132.243Z" fill="#31313E"/>
<path d="M367.238 143.665C365.444 141.865 366.431 137.965 369.442 134.948C372.46 131.937 376.36 130.95 378.154 132.75C379.954 134.545 378.967 138.444 375.95 141.462C372.938 144.473 369.038 145.459 367.238 143.665Z" fill="#FEA49C" stroke="#31313E" stroke-width="11.3953" stroke-miterlimit="10"/>
<path d="M350.888 159.593C349.082 161.405 345.188 160.441 342.189 157.447C339.194 154.447 338.231 150.553 340.043 148.747L359.687 129.104C361.493 127.292 365.387 128.256 368.387 131.25C371.381 134.25 372.344 138.144 370.533 139.95L350.888 159.593Z" fill="#F5FFFF"/>
<path d="M351.419 160.124C350.317 161.226 348.638 161.491 346.81 161.041L347.161 159.599C348.483 159.928 349.654 159.778 350.363 159.068L351.419 160.124ZM346.81 161.041C345.108 160.62 343.256 159.564 341.664 157.972L342.714 156.922C344.121 158.324 345.713 159.247 347.161 159.599L346.81 161.041ZM341.664 157.972C340.071 156.38 339.016 154.528 338.595 152.826L340.037 152.474C340.389 153.922 341.312 155.514 342.714 156.922L341.664 157.972ZM338.595 152.826C338.145 150.997 338.41 149.318 339.512 148.216L340.568 149.272C339.858 149.982 339.708 151.153 340.037 152.474L338.595 152.826ZM339.512 148.216L359.156 128.573L360.212 129.629L340.568 149.272L339.512 148.216ZM359.156 128.573C360.258 127.471 361.937 127.206 363.766 127.656L363.414 129.092C362.093 128.769 360.922 128.919 360.212 129.629L359.156 128.573ZM363.766 127.656C365.468 128.077 367.32 129.133 368.912 130.725L367.862 131.775C366.454 130.373 364.862 129.45 363.414 129.092L363.766 127.656ZM368.912 130.725C370.504 132.317 371.56 134.169 371.981 135.871L370.544 136.223C370.187 134.775 369.264 133.183 367.862 131.775L368.912 130.725ZM371.981 135.871C372.431 137.7 372.165 139.379 371.063 140.481L370.008 139.425C370.717 138.715 370.867 137.544 370.544 136.223L371.981 135.871ZM371.063 140.481L351.419 160.124L350.363 159.068L370.008 139.425L371.063 140.481Z" fill="#31313E"/>
<path d="M359.71 129.121C361.516 127.315 365.41 128.279 368.41 131.273C371.404 134.267 372.367 138.167 370.556 139.973C368.75 141.779 364.856 140.821 361.862 137.821C358.862 134.827 357.899 130.933 359.71 129.121L359.71 129.121Z" fill="#08E6E7" stroke="#31313E" stroke-width="11.3953" stroke-miterlimit="10"/>
<path d="M297.523 189.972L297.523 190.682L299.508 192.666L299.508 187.993L297.523 189.972ZM301.493 186.009L301.492 194.651L303.477 196.636L303.477 184.024L301.493 186.009ZM305.462 182.04L305.456 198.614L307.44 200.599L307.446 180.055L305.462 182.04ZM309.431 178.071L309.425 202.584L311.409 204.568L311.41 176.086L309.431 178.071ZM313.395 174.102L313.394 206.553L315.378 208.538L315.379 172.117L313.395 174.102ZM317.364 170.133L317.363 210.522L319.347 212.507L319.348 168.148L317.364 170.133ZM321.333 166.164L321.332 214.491L323.316 216.476L323.318 164.179L321.333 166.164ZM325.302 162.194L325.301 218.461L327.285 220.445L327.287 160.216L325.302 162.194ZM329.272 158.231L329.27 222.43L331.254 224.415L331.256 156.247L329.272 158.231ZM333.241 156.247L333.239 224.415L335.224 222.43L335.225 158.231L333.241 156.247ZM337.204 160.21L337.208 220.446L339.187 218.461L339.189 162.195L337.204 160.21ZM341.173 164.18L341.172 216.477L343.156 214.492L343.158 166.164L341.173 164.18ZM345.142 168.149L345.141 212.508L347.126 210.523L347.127 170.133L345.142 168.149ZM349.111 172.118L349.11 208.538L351.095 206.554L351.096 174.103L349.111 172.118ZM353.08 176.087L353.079 204.569L355.064 202.591L355.065 178.072L353.08 176.087ZM357.049 180.057L357.049 200.606L359.033 198.622L359.034 182.041L357.049 180.057ZM361.018 184.026L361.018 196.637L363.003 194.653L363.003 186.01L361.018 184.026ZM364.987 187.995L364.987 192.668L366.972 190.684L366.966 189.974L364.987 187.995Z" fill="#08E6E7"/>
<path d="M332.247 225.407L367.324 190.332L297.171 190.33L332.247 225.407Z" fill="#08E6E7"/>
<path d="M311.665 140.808C302.319 131.462 288.208 130.417 280.154 138.471C284.642 133.982 290.73 131.461 297.078 131.461C303.425 131.461 309.513 133.983 314.001 138.472C318.49 142.96 321.011 149.048 321.011 155.395C321.011 161.743 318.489 167.831 314 172.319C322.054 164.266 321.01 150.154 311.665 140.808L311.665 140.808Z" fill="#ED553B"/>
<path d="M280.927 138.926C277.701 142.152 275.504 146.262 274.614 150.736C273.724 155.21 274.181 159.848 275.927 164.062C277.672 168.277 280.628 171.879 284.421 174.414C288.214 176.948 292.673 178.301 297.235 178.301C301.797 178.301 306.256 176.949 310.049 174.414C313.843 171.88 316.799 168.278 318.545 164.063C320.291 159.849 320.747 155.211 319.858 150.737C318.968 146.263 316.771 142.153 313.546 138.927C309.217 134.608 303.352 132.182 297.237 132.181C291.121 132.181 285.256 134.607 280.927 138.926ZM314.774 172.775C311.305 176.244 306.885 178.606 302.074 179.563C297.263 180.52 292.276 180.028 287.744 178.151C283.212 176.274 279.338 173.094 276.613 169.015C273.888 164.936 272.434 160.141 272.434 155.236C272.434 151.978 273.076 148.753 274.322 145.744C275.569 142.735 277.395 140 279.699 137.697C282.002 135.394 284.736 133.567 287.745 132.321C290.754 131.074 293.979 130.433 297.237 130.433C300.494 130.433 303.719 131.075 306.728 132.321C309.737 133.568 312.471 135.395 314.774 137.698C317.077 140.002 318.904 142.736 320.15 145.745C321.396 148.755 322.038 151.98 322.037 155.237C322.046 158.495 321.409 161.723 320.162 164.733C318.915 167.744 317.084 170.477 314.774 172.775L314.774 172.775Z" fill="#31313E"/>
<path d="M437.46 120.164L402.384 155.24L437.46 190.316L472.536 155.24L437.46 120.164Z" fill="#39175F"/>
<path d="M419.922 137.702C422.226 140.005 424.052 142.739 425.299 145.748C426.545 148.757 427.187 151.983 427.187 155.24C427.187 158.497 426.545 161.722 425.298 164.731C424.052 167.741 422.225 170.475 419.921 172.778L402.384 155.239L419.922 137.702Z" fill="#ED553B"/>
<path d="M426.152 154.132C425.591 153.787 424.946 153.6 424.287 153.592C423.627 153.584 422.978 153.754 422.408 154.086C422.408 153.871 422.354 153.66 422.252 153.47C422.151 153.281 422.004 153.12 421.825 153.001C421.646 152.882 421.441 152.809 421.227 152.789C421.013 152.768 420.798 152.801 420.599 152.883C420.401 152.966 420.226 153.096 420.091 153.263C419.955 153.429 419.862 153.626 419.821 153.837C419.779 154.048 419.791 154.266 419.853 154.471C419.916 154.676 420.029 154.863 420.181 155.015C420.301 155.136 420.444 155.232 420.602 155.297C420.759 155.362 420.928 155.396 421.098 155.395C420.767 155.967 420.596 156.619 420.605 157.28C420.614 157.942 420.803 158.588 421.15 159.151C421.024 159.233 420.883 159.289 420.735 159.318C420.473 159.374 420.2 159.337 419.962 159.214C419.858 159.167 419.743 159.147 419.629 159.156C419.515 159.165 419.405 159.203 419.31 159.266C419.171 159.347 419.027 159.434 418.883 159.514C418.845 159.535 418.815 159.567 418.794 159.605C418.774 159.643 418.765 159.685 418.768 159.728C418.771 159.771 418.786 159.812 418.811 159.847C418.837 159.882 418.872 159.908 418.912 159.924C420.752 160.645 425.194 162.526 425.194 162.526L426.308 163.588L426.077 165.474L429.048 166.022L437.084 175.507L436.928 177.526L439.461 182.857L438.895 184.253L440.24 185.603L452.615 173.229L451.317 171.936L449.972 172.138L444.503 170.026L442.559 170.113L433.017 162.122L432.417 159.14L430.635 159.203L429.596 158.124L426.856 151.946C426.839 151.907 426.811 151.874 426.776 151.851C426.741 151.827 426.7 151.813 426.658 151.811C426.616 151.808 426.574 151.817 426.537 151.837C426.5 151.857 426.468 151.886 426.447 151.922C426.383 152.032 426.308 152.159 426.216 152.309C426.151 152.409 426.114 152.523 426.107 152.641C426.1 152.759 426.123 152.878 426.175 152.984C426.266 153.162 426.312 153.361 426.308 153.561C426.304 153.761 426.25 153.957 426.152 154.132Z" fill="#ED553B"/>
<path fill-rule="evenodd" clip-rule="evenodd" d="M426.152 154.132C425.591 153.787 424.946 153.6 424.287 153.592C423.627 153.584 422.978 153.754 422.408 154.086C422.408 153.871 422.354 153.66 422.252 153.47C422.151 153.281 422.004 153.12 421.825 153.001C421.646 152.882 421.441 152.809 421.227 152.789C421.013 152.768 420.798 152.801 420.599 152.883C420.401 152.966 420.226 153.096 420.091 153.263C419.955 153.429 419.862 153.626 419.821 153.837C419.779 154.048 419.791 154.266 419.853 154.471C419.916 154.676 420.029 154.863 420.181 155.015C420.301 155.136 420.444 155.232 420.602 155.297C420.759 155.362 420.928 155.396 421.098 155.395C420.767 155.967 420.596 156.619 420.605 157.28C420.614 157.942 420.803 158.588 421.15 159.151C421.024 159.233 420.883 159.289 420.735 159.318C420.473 159.374 420.2 159.337 419.962 159.214C419.858 159.167 419.743 159.147 419.629 159.156C419.515 159.165 419.405 159.203 419.31 159.266C419.171 159.347 419.027 159.434 418.883 159.514C418.845 159.535 418.815 159.567 418.794 159.605C418.774 159.643 418.765 159.685 418.768 159.728C418.771 159.771 418.786 159.812 418.811 159.847C418.837 159.882 418.872 159.908 418.912 159.924C420.752 160.645 425.194 162.526 425.194 162.526L426.308 163.588L426.077 165.474L429.048 166.022L437.084 175.507L436.928 177.526L439.461 182.857L438.895 184.253L440.24 185.603L452.615 173.229L451.317 171.936L449.972 172.138L444.503 170.026L442.559 170.113L433.017 162.122L432.417 159.14L430.635 159.203L429.596 158.124L426.856 151.946C426.839 151.907 426.811 151.874 426.776 151.851C426.741 151.827 426.7 151.813 426.658 151.811C426.616 151.808 426.574 151.817 426.537 151.837C426.5 151.857 426.468 151.886 426.447 151.922C426.383 152.032 426.308 152.159 426.216 152.309C426.151 152.409 426.114 152.523 426.107 152.641C426.1 152.759 426.123 152.878 426.175 152.984C426.266 153.162 426.312 153.361 426.308 153.561C426.304 153.761 426.25 153.957 426.152 154.132ZM424.306 152.332C424.497 152.338 424.687 152.349 424.872 152.372C424.917 152.115 425.011 151.868 425.148 151.646C425.195 151.571 425.235 151.507 425.264 151.455L425.362 151.288C425.52 151.02 425.758 150.808 426.043 150.682C426.257 150.586 426.492 150.542 426.727 150.555C426.962 150.568 427.19 150.637 427.393 150.757C427.621 150.888 427.809 151.08 427.935 151.311C427.96 151.352 427.983 151.394 428.004 151.438L430.658 157.415L431.148 157.928L432.348 157.882C432.649 157.866 432.945 157.959 433.183 158.143C433.422 158.327 433.586 158.591 433.646 158.886L434.165 161.436L442.998 168.838L444.342 168.775C444.551 168.751 444.762 168.777 444.959 168.85L450.117 170.846L451.126 170.69L451.126 170.696C451.321 170.664 451.521 170.68 451.708 170.741C451.896 170.802 452.066 170.907 452.205 171.048L453.503 172.34C453.739 172.576 453.871 172.895 453.871 173.229C453.871 173.562 453.739 173.881 453.503 174.117L441.203 186.411C441.181 186.44 441.156 186.467 441.128 186.491C440.892 186.727 440.573 186.859 440.239 186.859C439.906 186.859 439.587 186.727 439.351 186.491L438.001 185.147L438.007 185.141C437.832 184.967 437.712 184.745 437.663 184.502C437.614 184.26 437.637 184.009 437.73 183.78L438.093 182.897L435.792 178.068C435.696 177.869 435.656 177.648 435.676 177.428L435.792 175.928L428.379 167.176L425.852 166.709C425.537 166.653 425.255 166.478 425.065 166.22C424.875 165.962 424.791 165.642 424.831 165.324L424.987 164.066L424.502 163.599C423.602 163.218 419.979 161.695 418.456 161.095C418.194 160.995 417.965 160.822 417.799 160.596C417.632 160.37 417.534 160.1 417.516 159.82C417.499 159.598 417.533 159.375 417.614 159.168C417.735 158.849 417.966 158.583 418.266 158.418C418.346 158.372 418.416 158.332 418.462 158.303C418.479 158.297 418.548 158.251 418.664 158.188C418.889 158.053 419.137 157.963 419.396 157.922C419.367 157.716 419.351 157.508 419.35 157.299C419.342 156.889 419.387 156.48 419.483 156.082C419.414 156.024 419.35 155.966 419.287 155.903L419.293 155.903C419.054 155.665 418.864 155.383 418.734 155.072C418.604 154.761 418.537 154.427 418.537 154.09C418.537 153.753 418.603 153.419 418.731 153.107C418.86 152.796 419.049 152.513 419.287 152.275C419.526 152.036 419.809 151.847 420.12 151.719C420.432 151.59 420.766 151.524 421.103 151.524C421.44 151.525 421.773 151.592 422.085 151.722C422.396 151.851 422.678 152.041 422.916 152.28L422.916 152.274C422.979 152.338 423.037 152.401 423.095 152.47C423.491 152.375 423.898 152.329 424.306 152.332L424.306 152.332Z" fill="#173F5F"/>
<path d="M454.836 171.025C454.421 170.604 453.48 169.669 453.48 169.669L454.057 168.261L451.502 162.896L451.658 160.865L441.141 148.888L438.153 148.334L438.383 146.442L437.264 145.375L430.474 142.577L433.78 139.271L432.003 137.488L430.082 139.409L428.334 137.661L430.249 135.74L428.72 134.206L430.468 132.458L432.003 133.986L433.918 132.071L435.672 133.819L433.751 135.74L435.534 137.523L438.747 134.31L441.689 140.944L442.739 142.029L444.528 141.966L445.133 144.965L457.167 155.443L459.123 155.356L464.627 157.485L465.982 157.272L467.28 158.575C467.28 158.575 464.523 161.339 454.836 171.025L454.836 171.025Z" fill="#FF9EF6"/>
<path fill-rule="evenodd" clip-rule="evenodd" d="M453.942 171.913L452.592 170.563L451.998 169.969L452.315 169.19L452.673 168.308L450.365 163.444L450.215 163.138L450.244 162.798L450.36 161.304L440.477 150.054L437.922 149.581L436.756 149.361L436.901 148.184L437.051 146.915L436.566 146.454L429.995 143.748L428.236 143.021L429.58 141.682L430.076 141.186L429.188 140.304L427.44 138.55L426.545 137.656L427.434 136.761L428.461 135.74L427.826 135.106L426.932 134.211L427.826 133.317L429.58 131.563L430.469 130.675L431.363 131.563L431.997 132.204L433.024 131.171L433.918 130.283L434.813 131.177L436.561 132.925L437.449 133.814L437.847 133.41L439.151 132.112L439.901 133.796L442.756 140.229L443.253 140.742L444.481 140.702L445.554 140.662L445.762 141.712L446.287 144.291L457.623 154.156L459.071 154.093L459.342 154.081L459.585 154.173L464.771 156.181L465.786 156.025L466.427 155.927L466.877 156.377L468.18 157.681L469.075 158.576L468.18 159.47L455.73 171.919L454.842 172.813L453.942 171.913ZM454.836 171.025C454.421 170.604 453.48 169.669 453.48 169.669L454.057 168.261L451.502 162.896L451.658 160.865L441.141 148.888L438.153 148.334L438.383 146.442L437.264 145.375L430.474 142.577L433.78 139.271L432.003 137.488L430.082 139.409L428.334 137.661L430.249 135.74L428.72 134.206L430.468 132.458L432.003 133.986L433.918 132.071L435.672 133.819L433.751 135.74L435.534 137.523L438.747 134.31L441.689 140.944L442.739 142.029L444.528 141.966L445.133 144.965L457.167 155.443L459.123 155.356L464.627 157.485L465.982 157.272L467.28 158.575C467.28 158.575 464.523 161.339 454.836 171.025L454.836 171.025Z" fill="#173F5F"/>
<path d="M437.46 120.164L402.384 155.24L437.46 190.316L472.536 155.24L437.46 120.164Z" fill="#31313E"/>
<path d="M419.922 137.702C422.226 140.005 424.052 142.739 425.299 145.748C426.545 148.757 427.187 151.983 427.187 155.24C427.187 158.497 426.545 161.722 425.298 164.731C424.052 167.741 422.225 170.475 419.921 172.778L402.384 155.239L419.922 137.702Z" fill="#ED553B"/>
<path d="M426.152 154.132C425.591 153.787 424.946 153.6 424.287 153.592C423.627 153.584 422.978 153.754 422.408 154.086C422.408 153.871 422.354 153.66 422.252 153.47C422.151 153.281 422.004 153.12 421.825 153.001C421.646 152.882 421.441 152.809 421.227 152.789C421.013 152.768 420.798 152.801 420.599 152.883C420.401 152.966 420.226 153.096 420.091 153.263C419.955 153.429 419.862 153.626 419.821 153.837C419.779 154.048 419.791 154.266 419.853 154.471C419.916 154.676 420.029 154.863 420.181 155.015C420.301 155.136 420.444 155.232 420.602 155.297C420.759 155.362 420.928 155.396 421.098 155.395C420.767 155.967 420.596 156.619 420.605 157.28C420.614 157.942 420.803 158.588 421.15 159.151C421.024 159.233 420.883 159.289 420.735 159.318C420.473 159.374 420.2 159.337 419.962 159.214C419.858 159.167 419.743 159.147 419.629 159.156C419.515 159.165 419.405 159.203 419.31 159.266C419.171 159.347 419.027 159.434 418.883 159.514C418.845 159.535 418.815 159.567 418.794 159.605C418.774 159.643 418.765 159.685 418.768 159.728C418.771 159.771 418.786 159.812 418.811 159.847C418.837 159.882 418.872 159.908 418.912 159.924C420.752 160.645 425.194 162.526 425.194 162.526L426.308 163.588L426.077 165.474L429.048 166.022L437.084 175.507L436.928 177.526L439.461 182.857L438.895 184.253L440.24 185.603L452.615 173.229L451.317 171.936L449.972 172.138L444.503 170.026L442.559 170.113L433.017 162.122L432.417 159.14L430.635 159.203L429.596 158.124L426.856 151.946C426.839 151.907 426.811 151.874 426.776 151.851C426.741 151.827 426.7 151.813 426.658 151.811C426.616 151.808 426.574 151.817 426.537 151.837C426.5 151.857 426.468 151.886 426.447 151.922C426.383 152.032 426.308 152.159 426.216 152.309C426.151 152.409 426.114 152.523 426.107 152.641C426.1 152.759 426.123 152.878 426.175 152.984C426.266 153.162 426.312 153.361 426.308 153.561C426.304 153.761 426.25 153.957 426.152 154.132Z" fill="#ED553B"/>
<path fill-rule="evenodd" clip-rule="evenodd" d="M426.152 154.132C425.591 153.787 424.946 153.6 424.287 153.592C423.627 153.584 422.978 153.754 422.408 154.086C422.408 153.871 422.354 153.66 422.253 153.47C422.151 153.281 422.004 153.12 421.825 153.001C421.646 152.882 421.441 152.809 421.227 152.789C421.013 152.768 420.798 152.801 420.6 152.883C420.401 152.966 420.226 153.096 420.091 153.263C419.955 153.429 419.862 153.626 419.821 153.837C419.779 154.048 419.791 154.266 419.853 154.471C419.916 154.676 420.029 154.863 420.181 155.015C420.301 155.136 420.444 155.232 420.602 155.297C420.759 155.362 420.928 155.396 421.099 155.395C420.767 155.967 420.596 156.619 420.605 157.28C420.614 157.942 420.803 158.588 421.15 159.151C421.024 159.233 420.883 159.289 420.735 159.318C420.473 159.374 420.2 159.337 419.962 159.214C419.858 159.167 419.743 159.147 419.629 159.156C419.515 159.165 419.405 159.203 419.31 159.266C419.172 159.347 419.027 159.434 418.883 159.514C418.846 159.536 418.815 159.567 418.794 159.605C418.774 159.643 418.765 159.685 418.768 159.728C418.771 159.771 418.786 159.812 418.811 159.847C418.837 159.882 418.872 159.908 418.912 159.924C420.752 160.645 425.194 162.526 425.194 162.526L426.308 163.588L426.077 165.474L429.048 166.022L437.084 175.507L436.928 177.526L439.461 182.857L438.895 184.253L440.24 185.603L452.615 173.229L451.317 171.936L449.972 172.138L444.503 170.026L442.559 170.113L433.017 162.122L432.417 159.14L430.635 159.203L429.596 158.124L426.856 151.946C426.839 151.907 426.811 151.874 426.776 151.851C426.741 151.827 426.7 151.813 426.658 151.811C426.616 151.808 426.574 151.817 426.537 151.837C426.5 151.857 426.468 151.886 426.447 151.922C426.383 152.032 426.308 152.159 426.216 152.309C426.152 152.409 426.114 152.523 426.107 152.641C426.1 152.759 426.123 152.878 426.175 152.984C426.266 153.163 426.312 153.361 426.308 153.561C426.304 153.761 426.25 153.957 426.152 154.132ZM424.306 152.292C424.484 152.292 424.661 152.303 424.837 152.326C424.884 152.075 424.976 151.835 425.108 151.617C425.154 151.547 425.195 151.484 425.224 151.432L425.322 151.265C425.485 150.988 425.731 150.77 426.025 150.642C426.247 150.545 426.488 150.502 426.73 150.515C426.971 150.528 427.206 150.597 427.416 150.717C427.651 150.852 427.845 151.05 427.975 151.288C428.004 151.329 428.027 151.374 428.045 151.421L430.693 157.386L431.166 157.876L432.348 157.836C432.66 157.821 432.967 157.917 433.214 158.109C433.46 158.301 433.63 158.574 433.692 158.88L434.206 161.413L443.015 168.792L444.336 168.728C444.553 168.703 444.773 168.731 444.977 168.809L450.122 170.8L451.121 170.644V170.65C451.323 170.617 451.53 170.633 451.724 170.696C451.919 170.759 452.096 170.868 452.24 171.013L453.532 172.311C453.653 172.432 453.748 172.575 453.814 172.732C453.879 172.889 453.913 173.058 453.913 173.229C453.913 173.399 453.879 173.568 453.814 173.725C453.748 173.883 453.653 174.026 453.532 174.146L441.243 186.44C441.215 186.468 441.191 186.497 441.163 186.526C440.917 186.77 440.585 186.907 440.24 186.907C439.894 186.907 439.562 186.77 439.317 186.526L437.972 185.176C437.792 184.994 437.669 184.763 437.619 184.512C437.569 184.26 437.593 184 437.69 183.763L438.042 182.903L435.751 178.086C435.65 177.88 435.608 177.65 435.63 177.422L435.74 175.945L428.35 167.216L425.846 166.755C425.52 166.695 425.228 166.514 425.031 166.247C424.834 165.98 424.746 165.648 424.785 165.318L424.935 164.078L424.473 163.64C423.567 163.253 419.956 161.73 418.439 161.136C418.109 161.009 417.834 160.773 417.66 160.466C417.552 160.267 417.487 160.047 417.47 159.82C417.453 159.593 417.487 159.364 417.568 159.151C417.697 158.823 417.936 158.55 418.243 158.378C418.323 158.332 418.393 158.291 418.439 158.263C418.456 158.257 418.525 158.216 418.641 158.147C418.858 158.018 419.096 157.928 419.345 157.882C419.32 157.689 419.306 157.494 419.304 157.299C419.297 156.895 419.34 156.492 419.431 156.099C419.371 156.048 419.313 155.994 419.258 155.938L419.258 155.932C419.015 155.69 418.822 155.403 418.691 155.086C418.559 154.77 418.491 154.43 418.491 154.087C418.49 153.745 418.558 153.405 418.689 153.088C418.82 152.772 419.012 152.484 419.254 152.241C419.497 151.999 419.784 151.807 420.101 151.676C420.418 151.545 420.758 151.478 421.1 151.478C421.443 151.478 421.782 151.546 422.099 151.678C422.415 151.81 422.703 152.003 422.945 152.245L422.95 152.24C423.007 152.297 423.061 152.356 423.112 152.419C423.503 152.327 423.904 152.285 424.306 152.292V152.292Z" fill="#31313E"/>
<path d="M454.836 171.025C454.421 170.604 453.48 169.669 453.48 169.669L454.057 168.261L451.502 162.896L451.658 160.865L441.141 148.888L438.153 148.334L438.383 146.442L437.264 145.375L430.474 142.577L433.78 139.271L432.003 137.488L430.082 139.409L428.334 137.661L430.249 135.74L428.72 134.206L430.468 132.458L432.003 133.986L433.918 132.071L435.672 133.819L433.751 135.74L435.534 137.523L438.747 134.31L441.689 140.944L442.739 142.029L444.528 141.966L445.133 144.965L457.167 155.443L459.123 155.356L464.627 157.485L465.982 157.272L467.28 158.575C467.28 158.575 464.523 161.339 454.836 171.025L454.836 171.025Z" fill="#FEA49C"/>
<path fill-rule="evenodd" clip-rule="evenodd" d="M453.919 171.942L452.563 170.586L451.952 169.975L452.28 169.179L452.632 168.308L450.331 163.461L450.181 163.144L450.204 162.798L450.319 161.315L440.46 150.088L437.916 149.615L436.716 149.396L436.86 148.179L437.01 146.933L436.543 146.488L429.978 143.782L428.172 143.038L429.551 141.654L430.018 141.186L429.164 140.327L427.411 138.579L426.488 137.655L427.411 136.738L428.403 135.74L427.797 135.129L426.88 134.211L427.803 133.288L429.551 131.54L430.469 130.617L431.392 131.54L431.997 132.146L432.995 131.148L433.918 130.225L434.842 131.148L436.59 132.902L437.449 133.756L437.824 133.387L439.163 132.042L439.936 133.779L442.785 140.206L443.27 140.702L444.481 140.662L445.583 140.621L445.803 141.706L446.322 144.273L457.635 154.121L459.065 154.052L459.354 154.041L459.596 154.139L464.777 156.141L465.781 155.985L466.438 155.887L466.906 156.349L468.204 157.652L469.127 158.575L468.204 159.499L455.759 171.948L454.842 172.865L453.919 171.942ZM454.836 171.025C454.421 170.604 453.48 169.669 453.48 169.669L454.057 168.261L451.502 162.896L451.658 160.865L441.141 148.888L438.153 148.334L438.383 146.442L437.264 145.375L430.474 142.577L433.78 139.271L432.003 137.488L430.082 139.409L428.334 137.661L430.249 135.74L428.72 134.206L430.468 132.458L432.003 133.986L433.918 132.071L435.672 133.819L433.751 135.74L435.534 137.523L438.747 134.31L441.689 140.944L442.739 142.029L444.528 141.966L445.133 144.965L457.167 155.443L459.123 155.356L464.627 157.485L465.982 157.272L467.28 158.575C467.28 158.575 464.523 161.339 454.836 171.025Z" fill="#31313E"/>
<path d="M332.246 225.407L297.169 260.483L332.246 295.559L367.322 260.483L332.246 225.407Z" fill="#31313E"/>
<path d="M341.015 234.176C342.75 235.911 343.932 238.121 344.411 240.527C344.89 242.933 344.644 245.427 343.706 247.694C342.767 249.961 341.177 251.898 339.137 253.261C337.097 254.624 334.699 255.352 332.246 255.352C329.792 255.352 327.394 254.624 325.354 253.261C323.314 251.898 321.725 249.96 320.786 247.694C319.847 245.427 319.602 242.933 320.081 240.526C320.56 238.12 321.742 235.91 323.477 234.176C325.804 231.851 328.958 230.546 332.246 230.546C335.535 230.546 338.689 231.852 341.015 234.176Z" fill="#ED553B"/>
<path d="M323.476 251.714C325.503 253.742 326.764 256.411 327.044 259.265C327.324 262.119 326.606 264.982 325.012 267.365C323.418 269.749 321.046 271.506 318.302 272.338C315.558 273.17 312.61 273.024 309.961 271.926C307.312 270.828 305.125 268.845 303.774 266.316C302.423 263.787 301.99 260.867 302.55 258.055C303.11 255.242 304.627 252.711 306.844 250.892C309.061 249.073 311.84 248.079 314.708 248.079C316.336 248.079 317.949 248.4 319.454 249.023C320.959 249.647 322.325 250.561 323.476 251.714Z" fill="#FF9A00"/>
<path d="M341.014 269.252C343.041 271.281 344.302 273.95 344.582 276.804C344.862 279.657 344.143 282.52 342.549 284.904C340.955 287.288 338.584 289.045 335.84 289.877C333.095 290.708 330.148 290.563 327.499 289.464C324.85 288.366 322.663 286.384 321.312 283.855C319.961 281.325 319.528 278.406 320.088 275.593C320.648 272.781 322.165 270.25 324.382 268.431C326.599 266.612 329.378 265.618 332.246 265.618C333.874 265.617 335.487 265.938 336.992 266.562C338.497 267.186 339.863 268.1 341.014 269.252Z" fill="#08E6E7"/>
<path d="M358.553 251.715C360.288 253.449 361.47 255.659 361.949 258.066C362.427 260.472 362.182 262.966 361.243 265.233C360.305 267.499 358.715 269.437 356.675 270.8C354.635 272.163 352.237 272.89 349.783 272.89C347.33 272.89 344.932 272.163 342.892 270.8C340.852 269.436 339.262 267.499 338.324 265.232C337.385 262.965 337.14 260.471 337.619 258.065C338.098 255.659 339.28 253.449 341.015 251.714C343.341 249.39 346.495 248.084 349.784 248.084C353.073 248.084 356.227 249.39 358.553 251.715Z" fill="#FEA59C"/>
<path d="M262.095 155.253L227.019 190.329L262.095 225.405L297.171 190.329L262.095 155.253Z" fill="#FE9900"/>
<path d="M251.572 186.821C252.266 187.515 252.739 188.399 252.93 189.361C253.122 190.324 253.024 191.321 252.648 192.228C252.273 193.135 251.637 193.91 250.821 194.455C250.005 195 249.046 195.291 248.064 195.291C247.083 195.291 246.124 195 245.308 194.455C244.492 193.909 243.856 193.134 243.48 192.228C243.105 191.321 243.007 190.323 243.198 189.361C243.39 188.398 243.863 187.514 244.557 186.821C245.488 185.891 246.749 185.369 248.065 185.369C249.38 185.369 250.641 185.891 251.572 186.821Z" fill="white"/>
<path d="M265.603 172.791C266.414 173.602 266.918 174.67 267.03 175.811C267.142 176.953 266.855 178.098 266.217 179.051C265.58 180.005 264.631 180.708 263.534 181.04C262.436 181.373 261.257 181.315 260.197 180.876C259.137 180.436 258.263 179.643 257.722 178.632C257.182 177.62 257.009 176.452 257.233 175.327C257.457 174.202 258.064 173.19 258.95 172.462C259.837 171.734 260.949 171.337 262.096 171.337C263.411 171.337 264.673 171.86 265.603 172.791Z" fill="white"/>
<path d="M265.602 200.852C266.296 201.545 266.769 202.43 266.961 203.392C267.152 204.354 267.054 205.352 266.679 206.259C266.303 207.166 265.667 207.94 264.851 208.486C264.035 209.031 263.076 209.322 262.095 209.322C261.113 209.322 260.154 209.031 259.338 208.486C258.522 207.94 257.886 207.165 257.511 206.259C257.135 205.352 257.037 204.354 257.229 203.392C257.42 202.429 257.893 201.545 258.587 200.851C259.518 199.922 260.779 199.4 262.095 199.4C263.41 199.4 264.672 199.922 265.602 200.852Z" fill="white"/>
<path d="M279.633 186.822C280.444 187.633 280.948 188.7 281.06 189.842C281.172 190.984 280.885 192.129 280.247 193.082C279.609 194.036 278.661 194.739 277.563 195.071C276.466 195.404 275.286 195.346 274.227 194.906C273.167 194.467 272.293 193.674 271.752 192.662C271.212 191.651 271.039 190.483 271.262 189.358C271.486 188.233 272.093 187.22 272.98 186.493C273.867 185.765 274.979 185.368 276.126 185.368C276.777 185.366 277.423 185.493 278.025 185.743C278.627 185.993 279.174 186.359 279.633 186.822Z" fill="white"/>
<path d="M402.382 155.239L367.306 190.315L402.382 225.392L437.459 190.315L402.382 155.239Z" fill="#ED553B"/>
<path d="M419.92 207.854C417.617 205.551 415.79 202.816 414.544 199.807C413.298 196.798 412.656 193.573 412.656 190.316C412.656 187.058 413.298 183.833 414.544 180.824C415.791 177.815 417.618 175.081 419.921 172.778L437.459 190.316L419.92 207.854Z" fill="#31313E"/>
<path d="M352.784 239.928C343.438 230.582 342.377 216.494 350.408 208.458C348.186 210.68 346.423 213.319 345.22 216.222C344.017 219.126 343.398 222.238 343.398 225.381C343.397 228.524 344.016 231.637 345.219 234.54C346.422 237.444 348.185 240.083 350.407 242.305C352.63 244.528 355.268 246.291 358.172 247.494C361.075 248.696 364.188 249.316 367.331 249.316C370.474 249.316 373.586 248.697 376.49 247.494C379.394 246.291 382.032 244.529 384.255 242.306C376.224 250.342 362.13 249.275 352.784 239.928L352.784 239.928Z" fill="#ED553B"/>
<path d="M381.884 210.835C391.23 220.182 392.291 234.27 384.255 242.306C376.224 250.342 362.13 249.275 352.784 239.928C343.438 230.582 342.377 216.494 350.408 208.458C358.445 200.422 372.533 201.489 381.884 210.835Z" fill="#08E6E7"/>
<path d="M360.192 218.243L359.454 217.504L357.186 231.806L370.091 238.383L372.301 236.167L359.401 229.596L360.192 218.243Z" fill="#FFFEF8"/>
<path d="M351.026 209.069C347.799 212.294 345.602 216.404 344.711 220.878C343.82 225.352 344.276 229.989 346.021 234.204C347.765 238.419 350.721 242.022 354.513 244.557C358.306 247.092 362.765 248.446 367.327 248.447C371.889 248.448 376.348 247.096 380.142 244.562C383.935 242.029 386.892 238.427 388.639 234.213C390.385 229.999 390.843 225.361 389.954 220.887C389.065 216.413 386.869 212.302 383.644 209.076C379.316 204.756 373.451 202.328 367.336 202.327C361.221 202.326 355.355 204.751 351.026 209.069ZM384.872 242.918C380.815 246.974 375.477 249.499 369.768 250.061C364.058 250.623 358.33 249.189 353.56 246.001C348.79 242.814 345.272 238.071 343.607 232.581C341.941 227.091 342.231 221.193 344.426 215.893C346.621 210.592 350.587 206.217 355.646 203.512C360.706 200.807 366.547 199.941 372.174 201.06C377.801 202.178 382.866 205.214 386.506 209.648C390.146 214.083 392.135 219.643 392.136 225.38C392.144 228.638 391.507 231.866 390.26 234.876C389.013 237.886 387.182 240.62 384.872 242.918Z" fill="#31313E"/>
<path d="M369.924 237.321L379.27 227.975L373.271 216.195L360.215 218.26L358.144 231.321L369.924 237.321ZM380.949 228.754L370.709 238.994C370.578 239.123 370.411 239.208 370.23 239.237C370.049 239.266 369.863 239.237 369.699 239.156L356.794 232.579C356.63 232.497 356.497 232.365 356.414 232.202C356.331 232.039 356.302 231.853 356.332 231.673L358.594 217.365C358.624 217.184 358.711 217.017 358.841 216.888C358.972 216.758 359.14 216.673 359.321 216.644L373.623 214.377C373.804 214.35 373.99 214.381 374.154 214.465C374.317 214.549 374.45 214.682 374.534 214.845L381.105 227.745C381.189 227.908 381.22 228.094 381.192 228.275C381.164 228.456 381.079 228.624 380.949 228.754L380.949 228.754Z" fill="#563F42"/>
<path d="M351.083 207.841L349.854 209.069L358.842 218.058L360.071 216.829L351.083 207.841Z" fill="#31313E"/>
<path d="M357.607 232.55L346.894 238.007L346.103 236.461L356.823 230.998L357.607 232.55Z" fill="#31313E"/>
<path d="M372.612 248.825L370.893 249.096L369.214 238.481L370.928 238.21L372.612 248.825Z" fill="#31313E"/>
<path d="M374.431 215.728L372.879 214.937L378.342 204.224L379.888 205.014L374.431 215.728Z" fill="#31313E"/>
<path d="M390.711 230.733L380.09 229.049L380.361 227.335L390.982 229.014L390.711 230.733Z" fill="#31313E"/>
<path d="M369.924 237.321L379.27 227.975L373.271 216.195L360.215 218.26L358.144 231.321L369.924 237.321ZM380.949 228.754L370.709 238.994C370.578 239.123 370.411 239.208 370.23 239.237C370.049 239.266 369.863 239.237 369.699 239.156L356.794 232.579C356.63 232.497 356.497 232.365 356.414 232.202C356.331 232.039 356.302 231.853 356.332 231.673L358.594 217.365C358.624 217.184 358.711 217.017 358.841 216.888C358.972 216.758 359.14 216.673 359.321 216.644L373.623 214.377C373.804 214.35 373.99 214.381 374.154 214.465C374.317 214.549 374.45 214.682 374.534 214.845L381.105 227.745C381.189 227.908 381.22 228.094 381.192 228.275C381.164 228.456 381.079 228.624 380.949 228.754L380.949 228.754Z" fill="#31313E"/>
<path d="M451.968 210.889C442.622 201.543 428.551 200.458 420.538 208.471C425.026 203.983 431.114 201.461 437.461 201.462C443.809 201.462 449.897 203.984 454.385 208.472C458.873 212.961 461.395 219.048 461.395 225.396C461.394 231.744 458.873 237.831 454.384 242.32C462.398 234.306 461.313 220.236 451.968 210.889L451.968 210.889Z" fill="#FCF9D3"/>
<path d="M422.96 239.901C432.306 249.248 446.376 250.333 454.384 242.32C462.398 234.306 461.313 220.236 451.968 210.889C442.622 201.543 428.551 200.458 420.538 208.471C412.53 216.484 413.608 230.555 422.96 239.901Z" fill="#FF9A00"/>
<path d="M421.155 209.083C424.38 205.857 428.489 203.659 432.963 202.769C437.437 201.878 442.075 202.334 446.29 204.079C450.505 205.824 454.107 208.78 456.642 212.573C459.177 216.365 460.531 220.824 460.531 225.386C460.532 229.948 459.18 234.408 456.646 238.201C454.112 241.994 450.511 244.951 446.296 246.697C442.082 248.444 437.444 248.901 432.97 248.012C428.496 247.123 424.386 244.927 421.16 241.701C416.839 237.374 414.412 231.508 414.411 225.393C414.41 219.278 416.835 213.412 421.155 209.083ZM455.001 242.931C459.058 238.874 461.583 233.537 462.146 227.827C462.708 222.118 461.274 216.39 458.087 211.619C454.899 206.849 450.157 203.331 444.667 201.665C439.177 199.999 433.279 200.289 427.978 202.484C422.678 204.679 418.302 208.644 415.597 213.703C412.892 218.763 412.025 224.603 413.144 230.231C414.262 235.858 417.298 240.923 421.732 244.563C426.166 248.203 431.726 250.193 437.463 250.194C440.722 250.205 443.95 249.568 446.96 248.321C449.971 247.074 452.704 245.242 455.001 242.931Z" fill="#F5FFFF"/>
<path d="M461.359 231.41L460.217 230.101C457.257 232.679 454.096 233.793 450.824 233.406C444.617 232.673 439.65 226.794 438.45 225.26C441.323 217.685 439.858 211.627 438.099 207.849C436.149 203.672 433.478 201.358 433.368 201.26L432.237 202.581C432.26 202.599 434.77 204.791 436.552 208.65C438.923 213.785 438.958 219.312 436.656 225.069C436.601 225.205 436.582 225.352 436.599 225.497C436.616 225.642 436.669 225.781 436.754 225.9C436.996 226.235 442.73 234.196 450.617 235.131C454.395 235.581 458.013 234.329 461.359 231.41L461.359 231.41Z" fill="#F5FFFF"/>
<path d="M437.371 225.987L437.014 224.285C433.762 225.039 430.617 226.194 427.65 227.723C421.35 231.023 417.97 235.436 417.86 240.496L419.596 240.53C419.689 236.094 422.66 232.309 428.423 229.281C431.262 227.826 434.267 226.72 437.371 225.987Z" fill="#F5FFFF"/>
<path d="M447.703 247.927L447.582 246.196C442.061 246.594 436.713 244.096 431.688 238.777C429.342 236.272 427.323 233.481 425.677 230.469L424.131 231.254C425.834 234.407 427.94 237.326 430.396 239.936C432.744 242.429 435.23 244.379 437.78 245.723C441.011 247.425 444.351 248.169 447.703 247.927Z" fill="white"/>
<path d="M438.641 212.337L438.375 210.618C434.686 211.288 431.087 212.383 427.65 213.883C424.333 215.325 421.472 217.056 419.135 219.017C416.181 221.498 414.064 224.365 412.847 227.532L414.468 228.155C416.995 221.573 423.41 217.627 428.343 215.475C431.644 214.039 435.099 212.986 438.641 212.337L438.641 212.337Z" fill="white"/>
<path d="M449.174 234.243C449.278 234.075 451.69 230.152 452.596 224.268C453.13 220.882 453.024 217.426 452.285 214.08C451.367 209.966 449.446 206.055 446.591 202.461L445.229 203.545C450.104 209.678 452.008 216.537 450.888 223.933C450.046 229.489 447.721 233.285 447.698 233.32L449.174 234.243Z" fill="#F5FFFF"/>
<path d="M437.458 190.322L402.382 225.398L437.458 260.475L472.534 225.398L437.458 190.322Z" fill="#08E6E7"/>
<path d="M454.985 207.872C459.039 211.93 461.56 217.267 462.12 222.975C462.679 228.683 461.242 234.409 458.054 239.176C454.866 243.944 450.123 247.458 444.634 249.121C439.145 250.784 433.249 250.492 427.951 248.295C422.653 246.098 418.28 242.133 415.578 237.073C412.876 232.014 412.012 226.175 413.133 220.55C414.253 214.925 417.29 209.863 421.724 206.226C426.159 202.588 431.717 200.601 437.453 200.603C444.029 200.609 450.334 203.224 454.985 207.872Z" fill="#ED553B"/>
<path d="M451.968 210.889C442.622 201.543 428.551 200.458 420.538 208.471C425.026 203.983 431.114 201.461 437.461 201.462C443.809 201.462 449.897 203.984 454.385 208.472C458.873 212.961 461.395 219.048 461.395 225.396C461.394 231.744 458.873 237.831 454.384 242.32C462.398 234.306 461.313 220.236 451.968 210.889L451.968 210.889Z" fill="#08E6E7"/>
<path d="M422.96 239.901C432.306 249.248 446.376 250.333 454.384 242.32C462.398 234.306 461.313 220.236 451.968 210.889C442.622 201.543 428.551 200.458 420.538 208.471C412.53 216.484 413.608 230.555 422.96 239.901Z" fill="#FF9A00"/>
<path d="M421.155 209.083C424.38 205.857 428.489 203.659 432.963 202.769C437.437 201.878 442.075 202.334 446.29 204.079C450.505 205.824 454.107 208.78 456.642 212.573C459.177 216.365 460.531 220.824 460.531 225.386C460.532 229.948 459.18 234.408 456.646 238.201C454.112 241.994 450.511 244.951 446.296 246.697C442.082 248.444 437.444 248.901 432.97 248.012C428.496 247.123 424.386 244.927 421.16 241.701C416.839 237.374 414.412 231.508 414.411 225.393C414.41 219.278 416.835 213.412 421.155 209.083ZM455.001 242.931C459.058 238.874 461.583 233.537 462.146 227.827C462.708 222.118 461.274 216.39 458.087 211.619C454.899 206.849 450.157 203.331 444.667 201.665C439.177 199.999 433.279 200.289 427.978 202.484C422.678 204.679 418.302 208.644 415.597 213.703C412.892 218.763 412.025 224.603 413.144 230.231C414.262 235.858 417.298 240.923 421.732 244.563C426.166 248.203 431.726 250.193 437.463 250.194C440.722 250.205 443.95 249.568 446.96 248.321C449.971 247.074 452.704 245.242 455.001 242.931Z" fill="white"/>
<path d="M461.359 231.41L460.217 230.101C457.257 232.679 454.096 233.793 450.824 233.406C444.617 232.673 439.65 226.794 438.45 225.26C441.323 217.685 439.858 211.627 438.099 207.849C436.149 203.672 433.478 201.358 433.368 201.26L432.237 202.581C432.26 202.599 434.77 204.791 436.552 208.65C438.923 213.785 438.958 219.312 436.656 225.069C436.601 225.205 436.582 225.352 436.599 225.497C436.616 225.642 436.669 225.781 436.754 225.9C436.996 226.235 442.73 234.196 450.617 235.131C454.395 235.581 458.013 234.329 461.359 231.41L461.359 231.41Z" fill="#F5FFFF"/>
<path d="M437.371 225.987L437.014 224.285C433.762 225.039 430.617 226.194 427.65 227.723C421.35 231.023 417.97 235.436 417.86 240.496L419.596 240.53C419.689 236.094 422.66 232.309 428.423 229.281C431.262 227.826 434.267 226.72 437.371 225.987Z" fill="#F5FFFF"/>
<path d="M447.703 247.927L447.582 246.196C442.061 246.594 436.713 244.096 431.688 238.777C429.342 236.272 427.323 233.481 425.677 230.469L424.131 231.254C425.834 234.407 427.94 237.326 430.396 239.936C432.744 242.429 435.23 244.379 437.78 245.723C441.011 247.425 444.351 248.169 447.703 247.927Z" fill="white"/>
<path d="M438.641 212.337L438.375 210.618C434.686 211.288 431.087 212.383 427.65 213.883C424.333 215.325 421.472 217.056 419.135 219.017C416.181 221.498 414.064 224.365 412.847 227.532L414.468 228.155C416.995 221.573 423.41 217.627 428.343 215.475C431.644 214.039 435.099 212.986 438.641 212.337L438.641 212.337Z" fill="white"/>
<path d="M449.174 234.243C449.278 234.075 451.69 230.152 452.596 224.268C453.13 220.882 453.024 217.426 452.285 214.08C451.367 209.966 449.446 206.055 446.591 202.461L445.229 203.545C450.104 209.678 452.008 216.537 450.888 223.933C450.046 229.489 447.721 233.285 447.698 233.32L449.174 234.243Z" fill="white"/>
<path d="M472.541 155.241L437.464 190.317L472.541 225.393L507.617 190.317L472.541 155.241Z" fill="#31313E"/>
<path d="M455.003 172.779C459.655 177.43 465.963 180.042 472.541 180.042C479.119 180.043 485.427 177.43 490.079 172.78L472.542 155.241L455.003 172.779Z" fill="#FE9900"/>
<path d="M455.003 172.779C459.653 177.431 462.266 183.739 462.266 190.317C462.266 196.895 459.653 203.203 455.002 207.855L437.464 190.316L455.003 172.779Z" fill="#ED553B"/>
<path d="M490.079 207.856C487.775 205.553 485.949 202.818 484.702 199.809C483.456 196.8 482.814 193.575 482.814 190.318C482.814 187.06 483.456 183.835 484.703 180.826C485.949 177.817 487.776 175.083 490.08 172.78L507.617 190.318L490.079 207.856Z" fill="#08E6E7"/>
<path d="M490.078 207.856C485.427 203.205 479.118 200.592 472.54 200.592C465.962 200.592 459.654 203.204 455.002 207.855L472.54 225.393L490.078 207.856Z" fill="#FEA59C"/>
<path d="M472.19 155.593L472.894 155.593L474.878 157.578L470.205 157.578L472.19 155.593ZM468.221 159.562L476.863 159.562L478.847 161.547L466.236 161.547L468.221 159.562ZM464.251 163.531L480.826 163.532L482.811 165.516L462.267 165.516L464.251 163.531ZM460.282 167.5L484.795 167.501L486.78 169.485L458.298 169.485L460.282 167.5ZM456.313 171.469L488.764 171.47L490.749 173.455L454.328 173.454L456.313 171.469ZM452.344 175.438L492.733 175.439L494.718 177.424L450.359 177.423L452.344 175.438ZM448.374 179.407L496.702 179.409L498.687 181.387L446.39 181.386L448.374 179.407ZM444.405 183.37L500.671 183.372L502.656 185.357L442.426 185.355L444.405 183.37ZM440.442 187.34L504.64 187.341L506.625 189.326L438.457 189.324L440.442 187.34ZM438.457 191.309L506.625 191.311L504.64 193.295L440.441 193.293L438.457 191.309ZM442.42 195.278L502.656 195.28L500.671 197.264L444.405 197.263L442.42 195.278ZM446.389 199.247L498.686 199.249L496.702 201.233L448.374 201.232L446.389 199.247ZM450.358 203.216L494.717 203.218L492.732 205.202L452.343 205.201L450.358 203.216ZM454.327 207.186L490.748 207.187L488.763 209.171L456.312 209.17L454.327 207.186ZM458.296 211.155L486.779 211.156L484.794 213.14L460.281 213.14L458.296 211.155ZM462.265 215.118L482.809 215.119L480.825 217.104L464.25 217.103L462.265 215.118ZM466.234 219.088L478.846 219.088L476.861 221.073L468.219 221.072L466.234 219.088ZM470.204 223.057L474.877 223.057L472.892 225.042L472.188 225.042L470.204 223.057Z" fill="white"/>
<path d="M296.813 190.682L297.523 190.682L299.508 192.666L294.835 192.666L296.813 190.682ZM292.85 194.651L301.492 194.651L303.477 196.636L290.865 196.635L292.85 194.651ZM288.881 198.62L305.455 198.614L307.44 200.599L286.896 200.598L288.881 198.62ZM284.911 202.583L309.424 202.584L311.409 204.568L282.927 204.568L284.911 202.583ZM280.942 206.552L313.393 206.553L315.378 208.538L278.958 208.537L280.942 206.552ZM276.973 210.521L317.362 210.522L319.347 212.507L274.988 212.506L276.973 210.521ZM273.004 214.49L321.332 214.491L323.316 216.476L271.019 216.475L273.004 214.49ZM269.034 218.459L325.301 218.461L327.285 220.445L267.056 220.444L269.034 218.459ZM265.071 222.428L329.27 222.43L331.254 224.415L263.086 224.413L265.071 222.428ZM263.086 226.397L331.254 226.399L329.269 228.384L265.071 228.376L263.086 226.397ZM267.055 230.361L327.285 230.368L325.3 232.347L269.034 232.345L267.055 230.361ZM271.019 234.33L323.316 234.332L321.331 236.316L273.003 236.315L271.019 234.33ZM274.988 238.299L319.346 238.301L317.362 240.285L276.972 240.284L274.988 238.299ZM278.957 242.269L315.377 242.27L313.392 244.254L280.941 244.253L278.957 242.269ZM282.926 246.238L311.408 246.239L309.429 248.223L284.91 248.222L282.926 246.238ZM286.895 250.207L307.444 250.208L305.46 252.192L288.879 252.192L286.895 250.207ZM290.864 254.176L303.475 254.177L301.49 256.161L292.848 256.161L290.864 254.176ZM294.833 258.146L299.506 258.146L297.521 260.13L296.817 260.124L294.833 258.146Z" fill="#ED553B"/>
<path d="M332.246 225.407L297.169 260.482L297.171 190.33L332.246 225.407Z" fill="#ED553B"/>
<path d="M296.813 190.682L297.523 190.682L299.508 192.666L294.835 192.666L296.813 190.682ZM292.85 194.651L301.492 194.651L303.477 196.636L290.865 196.635L292.85 194.651ZM288.881 198.62L305.455 198.614L307.44 200.599L286.896 200.598L288.881 198.62ZM284.911 202.583L309.424 202.584L311.409 204.568L282.927 204.568L284.911 202.583ZM280.942 206.552L313.393 206.553L315.378 208.538L278.958 208.537L280.942 206.552ZM276.973 210.521L317.362 210.522L319.347 212.507L274.988 212.506L276.973 210.521ZM273.004 214.49L321.332 214.491L323.316 216.476L271.019 216.475L273.004 214.49ZM269.034 218.459L325.301 218.461L327.285 220.445L267.056 220.444L269.034 218.459ZM265.071 222.428L329.27 222.43L331.254 224.415L263.086 224.413L265.071 222.428ZM263.086 226.397L331.254 226.399L329.269 228.384L265.071 228.376L263.086 226.397ZM267.055 230.361L327.285 230.368L325.3 232.347L269.034 232.345L267.055 230.361ZM271.019 234.33L323.316 234.332L321.331 236.316L273.003 236.315L271.019 234.33ZM274.988 238.299L319.346 238.301L317.362 240.285L276.972 240.284L274.988 238.299ZM278.957 242.269L315.377 242.27L313.392 244.254L280.941 244.253L278.957 242.269ZM282.926 246.238L311.408 246.239L309.429 248.223L284.91 248.222L282.926 246.238ZM286.895 250.207L307.444 250.208L305.46 252.192L288.879 252.192L286.895 250.207ZM290.864 254.176L303.475 254.177L301.49 256.161L292.848 256.161L290.864 254.176ZM294.833 258.146L299.506 258.146L297.521 260.13L296.817 260.124L294.833 258.146Z" fill="#ED553B"/>
<path d="M332.246 225.407L297.169 260.482L297.171 190.33L332.246 225.407Z" fill="#ED553B"/>
<path d="M310.452 205.376C310.359 205.401 310.274 205.449 310.206 205.517C310.138 205.585 310.09 205.67 310.065 205.762L307.93 213.741L306.05 211.86C305.224 211.037 304.106 210.575 302.94 210.575C301.774 210.575 300.656 211.037 299.83 211.86L295.977 215.714C296.615 214.146 296.692 212.405 296.193 210.787C295.694 209.169 294.651 207.773 293.24 206.837C291.83 205.9 290.139 205.481 288.454 205.649C286.769 205.817 285.195 206.564 283.997 207.761C282.8 208.958 282.054 210.533 281.885 212.217C281.717 213.902 282.136 215.593 283.073 217.004C284.009 218.415 285.405 219.458 287.023 219.957C288.641 220.455 290.381 220.379 291.95 219.741L286.746 224.944C287.124 223.796 287.104 222.554 286.689 221.419C286.275 220.284 285.489 219.321 284.46 218.688C283.431 218.054 282.218 217.786 281.017 217.927C279.817 218.067 278.699 218.609 277.844 219.463C276.99 220.318 276.448 221.436 276.307 222.636C276.166 223.837 276.434 225.05 277.068 226.079C277.702 227.108 278.664 227.894 279.799 228.309C280.935 228.724 282.177 228.743 283.325 228.365L280.498 231.186C279.675 232.013 279.212 233.132 279.212 234.299C279.212 235.465 279.674 236.584 280.497 237.411L280.67 237.578L278.438 239.811C278.387 239.861 278.347 239.921 278.319 239.987C278.292 240.053 278.278 240.123 278.278 240.195C278.278 240.266 278.292 240.337 278.319 240.402C278.347 240.468 278.387 240.528 278.438 240.578L287.622 249.769C287.725 249.869 287.862 249.924 288.006 249.924C288.149 249.924 288.286 249.869 288.389 249.769L290.622 247.53L290.795 247.703C291.621 248.526 292.739 248.989 293.904 248.989C295.07 248.989 296.188 248.527 297.014 247.704L316.341 228.372C317.164 227.546 317.626 226.428 317.626 225.262C317.626 224.097 317.164 222.978 316.341 222.153L314.466 220.278L322.439 218.138C322.531 218.114 322.615 218.066 322.682 217.999C322.75 217.93 322.8 217.845 322.826 217.751C322.85 217.659 322.85 217.561 322.825 217.469C322.799 217.377 322.75 217.293 322.682 217.226L310.977 205.52C310.909 205.453 310.825 205.405 310.733 205.379C310.641 205.354 310.544 205.353 310.452 205.376L310.452 205.376Z" fill="#31313E" stroke="white" stroke-width="7.5685" stroke-miterlimit="10"/>
<path d="M367.679 260.138L367.679 260.842L369.664 262.826L369.664 258.153L367.679 260.138ZM371.649 256.169L371.648 264.811L373.633 266.796L373.633 254.184L371.649 256.169ZM375.618 252.2L375.617 268.78L377.602 270.765L377.602 250.215L375.618 252.2ZM379.587 248.231L379.586 272.75L381.571 274.734L381.566 246.252L379.587 248.231ZM383.551 244.268L383.55 276.719L385.534 278.703L385.535 242.283L383.551 244.268ZM387.52 240.299L387.519 280.688L389.503 282.673L389.504 238.314L387.52 240.299ZM391.489 236.329L391.488 284.657L393.472 286.642L393.474 234.345L391.489 236.329ZM395.458 232.36L395.457 288.627L397.441 290.605L397.443 230.376L395.458 232.36ZM399.428 228.391L399.426 292.59L401.41 294.575L401.412 226.407L399.428 228.391ZM403.397 226.407L403.395 294.575L405.38 292.59L405.381 228.392L403.397 226.407ZM407.366 230.376L407.364 290.606L409.343 288.627L409.35 232.361L407.366 230.376ZM411.335 234.345L411.328 286.642L413.312 284.658L413.314 236.33L411.335 234.345ZM415.298 238.315L415.297 282.673L417.282 280.689L417.283 240.299L415.298 238.315ZM419.267 242.284L419.266 278.704L421.251 276.72L421.252 244.269L419.267 242.284ZM423.236 246.253L423.235 274.735L425.22 272.751L425.221 248.238L423.236 246.253ZM427.205 250.222L427.205 270.766L429.189 268.782L429.19 252.207L427.205 250.222ZM431.174 254.186L431.174 266.797L433.159 264.813L433.159 256.171L431.174 254.186ZM435.143 258.155L435.143 262.828L437.128 260.844L437.128 260.14L435.143 258.155Z" fill="#ED553B"/>
<path d="M402.403 295.567L437.48 260.492L367.328 260.49L402.403 295.567Z" fill="#ED553B"/>
<path d="M367.32 330.631L402.397 295.561L367.322 260.484L332.245 295.559L367.32 330.631Z" fill="#FE9900"/>
<path d="M384.86 278.023C388.913 282.08 391.434 287.417 391.994 293.125C392.554 298.833 391.117 304.558 387.929 309.326C384.741 314.093 379.999 317.608 374.51 319.271C369.022 320.934 363.126 320.643 357.828 318.447C352.53 316.251 348.157 312.286 345.454 307.227C342.752 302.169 341.887 296.33 343.006 290.705C344.126 285.08 347.161 280.017 351.595 276.379C356.029 272.741 361.586 270.753 367.322 270.753C370.579 270.753 373.805 271.395 376.814 272.643C379.823 273.89 382.557 275.718 384.86 278.023Z" fill="#08E6E7"/>
<path d="M419.998 102.7C415.366 107.332 412.763 113.615 412.763 120.166C412.763 126.717 415.365 133 419.997 137.632L437.461 120.164L419.998 102.7Z" fill="#31313E"/>
</g>
<rect x="226.725" y="190.953" width="199.078" height="198.788" transform="rotate(-45 226.725 190.953)" fill="white" fill-opacity="0.78"/>
</g>
<defs>
<clipPath id="clip0_411_1801">
<rect width="480" height="480" fill="white"/>
</clipPath>
<clipPath id="clip1_411_1801">
<rect width="615" height="600" fill="white"/>
</clipPath>
<clipPath id="clip2_411_1801">
<rect width="198.436" height="198.454" fill="white" transform="translate(227 190.316) rotate(-45)"/>
</clipPath>
</defs>
</svg>
