<svg width="1440" height="800" viewBox="0 0 1440 800" fill="none" xmlns="http://www.w3.org/2000/svg">
<g clip-path="url(#clip0_411_3336)">
<rect x="826.002" y="124.952" width="91.0131" height="3.04762" fill="#08E6E7"/>
<g clip-path="url(#clip1_411_3336)">
<path d="M-154.877 -81.3547C-107.522 -128.707 -36.0194 -133.991 4.79105 -93.1788C-17.9533 -115.924 -48.8005 -128.704 -80.9645 -128.707C-113.129 -128.71 -143.975 -115.936 -166.717 -93.195C-189.46 -70.4537 -202.236 -39.6083 -202.234 -7.44422C-202.233 24.7198 -189.455 55.5677 -166.71 78.3133C-207.521 37.5006 -202.233 -34.0021 -154.877 -81.3546L-154.877 -81.3547Z" fill="#FCF9D3"/>
<path d="M-7.01265 66.5183C-54.3678 113.871 -125.871 119.155 -166.71 78.3132C-207.521 37.5005 -202.233 -34.0022 -154.877 -81.3547C-107.522 -128.707 -36.0194 -133.991 4.79105 -93.1788C45.6307 -52.3368 40.3425 19.1658 -7.01265 66.5183Z" fill="#FF9EF6"/>
<path d="M1.6926 -90.0512C-14.6529 -106.398 -35.4779 -117.531 -58.1489 -122.042C-80.82 -126.554 -104.319 -124.242 -125.674 -115.398C-147.029 -106.554 -165.282 -91.5762 -178.123 -72.3579C-190.964 -53.1396 -197.818 -30.5443 -197.817 -7.42926C-197.816 15.6858 -190.961 38.2824 -178.118 57.5031C-165.275 76.7238 -147.022 91.7053 -125.666 100.553C-104.31 109.401 -80.8107 111.717 -58.14 107.21C-35.4693 102.703 -14.6451 91.5737 1.69904 75.2305C23.5859 53.2989 35.8773 23.5793 35.8761 -7.40713C35.8749 -38.3935 23.5812 -68.1155 1.6926 -90.0512ZM-169.809 81.4408C-187.387 63.8637 -199.358 41.4693 -204.209 17.0898C-209.06 -7.28965 -206.572 -32.5591 -197.06 -55.5227C-187.549 -78.4863 -171.441 -98.1126 -150.773 -111.919C-130.105 -125.726 -105.807 -133.094 -80.95 -133.09C-64.4459 -133.089 -48.103 -129.838 -32.8546 -123.521C-17.6063 -117.205 -3.75097 -107.947 7.92005 -96.2759C19.5911 -84.605 28.8493 -70.7498 35.166 -55.5015C41.4827 -40.2532 44.7342 -23.9104 44.7348 -7.40629C44.7355 9.09783 41.4853 25.44 35.1697 40.6871C28.8542 55.9342 19.5971 69.7877 7.92698 81.4563C-3.74313 93.125 -17.5977 102.38 -32.8456 108.694C-48.0935 115.008 -64.4361 118.256 -80.9402 118.253C-97.4505 118.297 -113.806 115.066 -129.06 108.747C-144.314 102.428 -158.165 93.1471 -169.809 81.4409L-169.809 81.4408Z" fill="#39175F"/>
<path d="M-45.4581 -42.9032C-52.4773 -49.9229 -61.4202 -54.7037 -71.1558 -56.6411C-80.8915 -58.5786 -90.9827 -57.5856 -100.153 -53.7879C-109.324 -49.9901 -117.162 -43.5581 -122.676 -35.3052C-128.191 -27.0523 -131.134 -17.3492 -131.133 -7.42285C-131.133 2.50346 -128.189 12.2071 -122.674 20.4611C-117.159 28.715 -109.32 35.1485 -100.15 38.948C-90.9787 42.7476 -80.8875 43.7424 -71.152 41.8068C-61.4165 39.8712 -52.474 35.0921 -45.4553 28.0738C-36.0626 18.6524 -30.7886 5.89111 -30.7891 -7.41333C-30.7897 -20.7178 -36.0647 -33.4801 -45.4581 -42.9032ZM-122.658 34.2929C-130.909 26.0417 -136.528 15.5295 -138.805 4.08553C-141.082 -7.3584 -139.914 -19.22 -135.449 -29.9993C-130.985 -40.7786 -123.424 -49.9915 -113.722 -56.4729C-104.021 -62.9544 -92.6153 -66.4132 -80.9474 -66.4121C-69.2795 -66.411 -57.8735 -62.95 -48.1717 -56.4667C-38.4699 -49.9835 -30.9082 -40.7691 -26.4426 -29.989C-21.9771 -19.2088 -20.8084 -7.34698 -23.0842 4.09652C-25.3601 15.54 -30.9783 26.0512 -39.2284 34.3009C-50.2991 45.349 -65.3013 51.553 -80.9428 51.5516C-96.5842 51.5501 -111.587 45.3431 -122.658 34.2929Z" fill="#39175F"/>
<path d="M-154.877 -81.3547C-107.522 -128.707 -36.0194 -133.991 4.79105 -93.1788C-17.9533 -115.924 -48.8005 -128.704 -80.9645 -128.707C-113.129 -128.71 -143.975 -115.936 -166.717 -93.195C-189.46 -70.4537 -202.236 -39.6083 -202.234 -7.44422C-202.233 24.7198 -189.455 55.5677 -166.71 78.3133C-207.521 37.5006 -202.233 -34.0021 -154.877 -81.3546L-154.877 -81.3547Z" fill="white"/>
<path d="M-7.01265 66.5183C-54.3678 113.871 -125.871 119.155 -166.71 78.3132C-207.521 37.5005 -202.233 -34.0022 -154.877 -81.3547C-107.522 -128.707 -36.0194 -133.991 4.79105 -93.1788C45.6307 -52.3368 40.3425 19.1658 -7.01265 66.5183Z" fill="#FEA49C"/>
<path d="M-45.4581 -42.9032C-52.4773 -49.9229 -61.4202 -54.7037 -71.1558 -56.6411C-80.8915 -58.5786 -90.9827 -57.5856 -100.153 -53.7879C-109.324 -49.9901 -117.162 -43.5581 -122.676 -35.3052C-128.191 -27.0523 -131.134 -17.3492 -131.133 -7.42285C-131.133 2.50346 -128.189 12.2071 -122.674 20.4611C-117.159 28.715 -109.32 35.1485 -100.15 38.948C-90.9787 42.7476 -80.8875 43.7424 -71.152 41.8068C-61.4165 39.8712 -52.474 35.0921 -45.4553 28.0738C-36.0626 18.6524 -30.7886 5.89111 -30.7891 -7.41333C-30.7897 -20.7178 -36.0647 -33.4801 -45.4581 -42.9032ZM-122.658 34.2929C-130.909 26.0417 -136.528 15.5295 -138.805 4.08553C-141.082 -7.3584 -139.914 -19.22 -135.449 -29.9993C-130.985 -40.7786 -123.424 -49.9915 -113.722 -56.4729C-104.021 -62.9544 -92.6153 -66.4132 -80.9474 -66.4121C-69.2795 -66.411 -57.8735 -62.95 -48.1717 -56.4667C-38.4699 -49.9835 -30.9082 -40.7691 -26.4426 -29.989C-21.9771 -19.2088 -20.8084 -7.34698 -23.0842 4.09652C-25.3601 15.54 -30.9783 26.0512 -39.2284 34.3009C-50.2991 45.349 -65.3013 51.553 -80.9428 51.5516C-96.5842 51.5501 -111.587 45.3431 -122.658 34.2929Z" fill="#31313E"/>
<path d="M274.531 169.936L96.7847 -7.81055L-80.9383 169.912L96.8084 347.659L274.531 169.936Z" fill="white"/>
<path d="M96.7898 -7.81118L274.532 169.941L-80.9377 169.908L96.7898 -7.81118Z" fill="#ED553B"/>
<path d="M185.667 258.801L96.7965 169.924L274.532 169.941L185.667 258.801Z" fill="#FF9EF6"/>
<path d="M185.668 258.801L96.7966 169.924L96.8034 347.659L185.668 258.801Z" fill="#FF9955"/>
<path d="M274.531 169.936L96.7847 -7.81055L-80.9383 169.912L96.8084 347.659L274.531 169.936Z" fill="white"/>
<path d="M96.7898 -7.81118L274.532 169.941L-80.9377 169.908L96.7898 -7.81118Z" fill="#ED553B"/>
<path d="M185.667 258.801L96.7965 169.924L274.532 169.941L185.667 258.801Z" fill="#FEA59C"/>
<path d="M185.668 258.801L96.7966 169.924L96.8034 347.659L185.668 258.801Z" fill="#FF9A00"/>
<path d="M274.545 525.406L96.7986 347.659L-80.9243 525.382L96.8224 703.129L274.545 525.406Z" fill="white"/>
<path fill-rule="evenodd" clip-rule="evenodd" d="M229.587 570.454C219.349 580.671 205.885 587.022 191.489 588.425C177.092 589.829 162.654 586.197 150.633 578.149C138.612 570.101 129.753 558.135 125.565 544.289C121.376 530.444 122.118 515.575 127.662 502.215C133.207 488.856 143.212 477.833 155.973 471.024C168.735 464.215 183.462 462.041 197.648 464.873C211.833 467.705 224.599 475.367 233.77 486.554C242.941 497.741 247.95 511.762 247.943 526.227C247.945 534.444 246.325 542.581 243.175 550.171C240.025 557.761 235.407 564.653 229.587 570.454Z" fill="#08E6E7"/>
<path fill-rule="evenodd" clip-rule="evenodd" d="M141.973 482.835C133.221 491.578 122.072 497.529 109.937 499.936C97.8021 502.342 85.2253 501.097 73.7971 496.356C62.3688 491.616 52.6024 483.594 45.7325 473.304C38.8626 463.014 35.1977 450.918 35.2013 438.546C35.2049 426.174 38.8768 414.082 45.7527 403.798C52.6286 393.514 62.3998 385.499 73.8308 380.769C85.2617 376.038 97.8392 374.803 109.973 377.22C122.107 379.637 133.252 385.598 141.999 394.348C147.808 400.16 152.416 407.06 155.558 414.652C158.701 422.245 160.317 430.382 160.315 438.599C160.313 446.816 158.692 454.952 155.545 462.542C152.397 470.132 147.786 477.028 141.973 482.835L141.973 482.835Z" fill="#ED553B"/>
<path fill-rule="evenodd" clip-rule="evenodd" d="M228.827 569.694C218.592 579.926 205.126 586.293 190.722 587.709C176.318 589.126 161.868 585.504 149.833 577.462C137.799 569.419 128.925 557.454 124.722 543.603C120.52 529.752 121.25 514.874 126.787 501.502C132.324 488.131 142.327 477.093 155.09 470.27C167.854 463.447 182.589 461.261 196.785 464.084C210.981 466.907 223.759 474.564 232.944 485.751C242.128 496.939 247.15 510.964 247.154 525.437C247.147 542.035 240.556 557.952 228.827 569.694Z" fill="#08E6E7"/>
<path d="M185.303 614.646L7.55591 436.899L-80.9255 525.381L96.8212 703.127L185.303 614.646Z" fill="#FEA49C"/>
<path fill-rule="evenodd" clip-rule="evenodd" d="M140.336 481.169C131.586 489.92 120.437 495.879 108.299 498.292C96.1607 500.706 83.5791 499.466 72.1449 494.729C60.7108 489.992 50.9376 481.971 44.0614 471.68C37.1852 461.39 33.5148 449.291 33.5143 436.915C33.5138 424.539 37.1833 412.442 44.0587 402.152C50.9341 391.863 60.7066 383.843 72.1404 379.109C83.5742 374.374 96.1557 373.136 108.294 375.552C120.432 377.968 131.582 383.929 140.333 392.682C152.062 404.419 158.652 420.334 158.652 436.927C158.653 453.52 152.065 469.433 140.336 481.169Z" fill="#ED553B"/>
<path d="M-66.0167 501.437C-75.1368 510.557 -94.8984 505.556 -110.188 490.266C-125.448 475.005 -130.447 455.243 -121.327 446.123L-22.4075 347.18C-13.2872 338.09 6.47436 343.09 21.7636 358.351C37.0237 373.641 42.0232 393.403 32.9029 402.493L-66.0167 501.437Z" fill="#F5FFFF"/>
<path d="M-63.3563 504.097C-68.9395 509.68 -77.4461 510.995 -86.7422 508.655L-84.8425 501.347C-78.1482 503.043 -72.2431 502.313 -68.706 498.776L-63.3563 504.097ZM-86.7422 508.655C-95.3367 506.491 -104.721 501.082 -112.848 492.926L-107.498 487.606C-100.365 494.739 -92.2385 499.476 -84.8425 501.347L-86.7422 508.655ZM-112.848 492.955L-107.498 487.606L-112.848 492.955ZM-112.848 492.955L-107.498 487.606L-112.848 492.955ZM-112.848 492.955C-120.975 484.827 -126.383 475.443 -128.547 466.849L-121.239 464.949C-119.397 472.316 -114.661 480.443 -107.498 487.606L-112.848 492.955ZM-128.547 466.849C-130.886 457.552 -129.571 449.017 -124.017 443.463L-118.667 448.784C-122.204 452.35 -122.934 458.255 -121.239 464.949L-128.547 466.849ZM-124.017 443.463L-25.0678 344.52L-19.7179 349.87L-118.667 448.784L-124.017 443.463ZM-25.0678 344.52C-19.4846 338.966 -10.9778 337.622 -1.68172 339.991L-3.58158 347.27C-10.2759 345.603 -16.1809 346.304 -19.7179 349.87L-25.0678 344.52ZM-1.68172 339.991C6.91278 342.155 16.2966 347.564 24.4237 355.691L19.0743 361.04C11.912 353.878 3.78514 349.141 -3.5816 347.27L-1.68172 339.991ZM24.4237 355.691C32.5506 363.819 37.9591 373.203 40.1226 381.798L32.8145 383.697C30.9434 376.301 26.2366 368.174 19.0743 361.011L24.4237 355.691ZM40.1226 381.798C42.4616 391.065 41.1465 399.6 35.5925 405.154L30.2428 399.833C33.7798 396.296 34.5103 390.391 32.8145 383.697L40.1226 381.798ZM35.5925 405.154L-63.3563 504.097L-68.706 498.776L30.2428 399.833L35.5925 405.154Z" fill="#39175F"/>
<path d="M-22.2905 347.297C-13.1702 338.207 6.59115 343.207 21.8512 358.468C37.1405 373.758 42.1401 393.52 33.0199 402.61C23.9288 411.73 4.16744 406.73 -11.1219 391.439C-26.382 376.179 -31.3816 356.417 -22.2905 347.297Z" fill="#FF9EF6" stroke="#39175F" stroke-width="6.51968" stroke-miterlimit="10"/>
<path d="M-103.005 264.444C-112.185 255.293 -107.304 235.562 -92.1324 220.362C-76.9321 205.192 -57.2001 200.312 -48.0499 209.492L51.4914 309.038C60.6707 318.189 55.7897 337.921 40.6185 353.12C25.418 368.291 5.68624 373.171 -3.46398 363.991L-103.005 264.444Z" fill="#F5FFFF"/>
<path d="M-105.694 267.133C-111.278 261.549 -112.623 253.042 -110.343 243.776L-103.035 245.56C-104.701 252.254 -103.941 258.188 -100.345 261.784L-105.694 267.133ZM-110.343 243.776C-108.21 235.152 -102.86 225.769 -94.7925 217.702L-89.472 223.022C-96.5752 230.155 -101.252 238.222 -103.035 245.56L-110.343 243.776ZM-94.7925 217.702C-86.7246 209.634 -77.3412 204.285 -68.7176 202.152L-66.9341 209.461C-74.2715 211.243 -82.3395 215.92 -89.472 223.022L-94.7925 217.702ZM-68.7176 202.152C-59.4509 199.873 -50.9442 201.218 -45.3605 206.802L-50.7098 212.152C-54.3057 208.556 -60.2399 207.795 -66.9341 209.461L-68.7176 202.152ZM-45.3605 206.802L54.1807 306.349L48.8313 311.698L-50.7098 212.152L-45.3605 206.802ZM54.1807 306.349C59.7644 311.933 61.1094 320.44 58.8296 329.707L51.5506 327.923C53.1874 321.229 52.4271 315.294 48.8313 311.698L54.1807 306.349ZM58.8296 329.706C56.696 338.33 51.3467 347.713 43.2788 355.781L37.9582 350.46C45.0615 343.328 49.7384 335.26 51.5506 327.923L58.8296 329.706ZM43.2788 355.781C35.2109 363.848 25.8275 369.197 17.2039 371.33L15.4204 364.051C22.7577 362.239 30.8257 357.563 37.9582 350.46L43.2788 355.781ZM17.2039 371.33C7.93718 373.609 -0.569571 372.264 -6.15325 366.68L-0.803888 361.331C2.79194 364.927 8.72615 365.687 15.4204 364.051L17.2039 371.33ZM-6.15325 366.68L-105.694 267.133L-100.345 261.784L-0.803888 361.331L-6.15325 366.68Z" fill="#39175F"/>
<path d="M51.4037 309.155C60.554 318.306 55.6729 338.038 40.5017 353.237C25.3306 368.408 5.56941 373.288 -3.5808 364.108C-12.731 354.957 -7.87922 335.225 7.32126 320.055C22.4924 304.855 42.2244 299.975 51.4036 309.155L51.4037 309.155Z" fill="#08E6E7" stroke="#39175F" stroke-width="6.51968" stroke-miterlimit="10"/>
<path d="M96.8036 347.654L-80.9431 169.907L-258.666 347.63L-80.9193 525.377L96.8036 347.654Z" fill="#31313E"/>
<path d="M-66.0167 501.437C-75.1368 510.557 -94.8984 505.556 -110.188 490.266C-125.448 475.005 -130.447 455.243 -121.327 446.123L-22.4075 347.18C-13.2872 338.09 6.47436 343.09 21.7636 358.351C37.0237 373.641 42.0232 393.403 32.9029 402.493L-66.0167 501.437Z" fill="#F5FFFF"/>
<path d="M-63.3563 504.097C-68.9395 509.68 -77.4461 510.995 -86.7422 508.655L-84.8425 501.347C-78.1482 503.043 -72.2431 502.313 -68.706 498.776L-63.3563 504.097ZM-86.7422 508.655C-95.3367 506.491 -104.721 501.082 -112.848 492.926L-107.498 487.606C-100.365 494.739 -92.2385 499.476 -84.8425 501.347L-86.7422 508.655ZM-112.848 492.955L-107.498 487.606L-112.848 492.955ZM-112.848 492.955L-107.498 487.606L-112.848 492.955ZM-112.848 492.955C-120.975 484.827 -126.383 475.443 -128.547 466.849L-121.239 464.949C-119.397 472.316 -114.661 480.443 -107.498 487.606L-112.848 492.955ZM-128.547 466.849C-130.886 457.552 -129.571 449.017 -124.017 443.463L-118.667 448.784C-122.204 452.35 -122.934 458.255 -121.239 464.949L-128.547 466.849ZM-124.017 443.463L-25.0678 344.52L-19.7179 349.87L-118.667 448.784L-124.017 443.463ZM-25.0678 344.52C-19.4846 338.966 -10.9778 337.622 -1.68172 339.991L-3.58158 347.27C-10.2759 345.603 -16.1809 346.304 -19.7179 349.87L-25.0678 344.52ZM-1.68172 339.991C6.91278 342.155 16.2966 347.564 24.4237 355.691L19.0743 361.04C11.912 353.878 3.78514 349.141 -3.5816 347.27L-1.68172 339.991ZM24.4237 355.691C32.5506 363.819 37.9591 373.203 40.1226 381.798L32.8145 383.697C30.9434 376.301 26.2366 368.174 19.0743 361.011L24.4237 355.691ZM40.1226 381.798C42.4616 391.065 41.1465 399.6 35.5925 405.154L30.2428 399.833C33.7798 396.296 34.5103 390.391 32.8145 383.697L40.1226 381.798ZM35.5925 405.154L-63.3563 504.097L-68.706 498.776L30.2428 399.833L35.5925 405.154Z" fill="#31313E"/>
<path d="M-22.2905 347.297C-13.1702 338.206 6.5912 343.207 21.8805 358.468C37.1406 373.758 42.1402 393.52 33.0199 402.61C23.9289 411.73 4.16748 406.73 -11.1218 391.439C-26.3819 376.179 -31.3815 356.417 -22.2905 347.297Z" fill="#FEA49C" stroke="#31313E" stroke-width="11.3953" stroke-miterlimit="10"/>
<path d="M-103.005 264.444C-112.185 255.293 -107.304 235.562 -92.1324 220.362C-76.9321 205.192 -57.2001 200.312 -48.0499 209.492L51.4914 309.038C60.6707 318.189 55.7897 337.921 40.6185 353.12C25.418 368.291 5.68624 373.171 -3.46398 363.991L-103.005 264.444Z" fill="#F5FFFF"/>
<path d="M-105.694 267.133C-111.278 261.549 -112.623 253.042 -110.343 243.776L-103.035 245.56C-104.701 252.254 -103.941 258.188 -100.345 261.784L-105.694 267.133ZM-110.343 243.776C-108.21 235.152 -102.86 225.769 -94.7925 217.702L-89.472 223.022C-96.5752 230.155 -101.252 238.222 -103.035 245.56L-110.343 243.776ZM-94.7925 217.702C-86.7246 209.634 -77.3412 204.285 -68.7176 202.152L-66.9341 209.461C-74.2715 211.243 -82.3395 215.92 -89.472 223.022L-94.7925 217.702ZM-68.7176 202.152C-59.4509 199.873 -50.9442 201.218 -45.3605 206.802L-50.7098 212.152C-54.3057 208.556 -60.2399 207.795 -66.9341 209.461L-68.7176 202.152ZM-45.3605 206.802L54.1807 306.349L48.8313 311.698L-50.7098 212.152L-45.3605 206.802ZM54.1807 306.349C59.7644 311.933 61.1094 320.44 58.8296 329.707L51.5506 327.923C53.1874 321.229 52.4271 315.294 48.8313 311.698L54.1807 306.349ZM58.8296 329.706C56.696 338.33 51.3467 347.713 43.2788 355.781L37.9582 350.46C45.0615 343.328 49.7384 335.26 51.5506 327.923L58.8296 329.706ZM43.2788 355.781C35.2109 363.848 25.8275 369.197 17.2039 371.33L15.4204 364.051C22.7577 362.239 30.8257 357.563 37.9582 350.46L43.2788 355.781ZM17.2039 371.33C7.93718 373.609 -0.569571 372.264 -6.15325 366.68L-0.803888 361.331C2.79194 364.927 8.72615 365.687 15.4204 364.051L17.2039 371.33ZM-6.15325 366.68L-105.694 267.133L-100.345 261.784L-0.803888 361.331L-6.15325 366.68Z" fill="#31313E"/>
<path d="M51.4037 309.155C60.554 318.306 55.6729 338.038 40.5017 353.237C25.3306 368.408 5.56941 373.288 -3.5808 364.108C-12.731 354.957 -7.87922 335.225 7.32126 320.055C22.4924 304.855 42.2244 299.975 51.4036 309.155L51.4037 309.155Z" fill="#08E6E7" stroke="#31313E" stroke-width="11.3953" stroke-miterlimit="10"/>
<path d="M-7.83141 65.6997C39.5237 18.3472 44.8119 -53.1554 4.00163 -93.9681C26.7459 -71.2225 39.5243 -40.3746 39.5255 -8.21058C39.5268 23.9535 26.7509 54.7989 4.00834 77.5402C-18.7342 100.281 -49.5804 113.056 -81.7444 113.053C-113.908 113.05 -144.756 100.269 -167.5 77.5239C-126.689 118.337 -55.1865 113.052 -7.83137 65.6998L-7.83141 65.6997Z" fill="#ED553B"/>
<path d="M1.6926 -90.0512C-14.6529 -106.398 -35.4779 -117.531 -58.1489 -122.042C-80.82 -126.554 -104.319 -124.242 -125.674 -115.398C-147.029 -106.554 -165.282 -91.5762 -178.123 -72.3579C-190.964 -53.1396 -197.818 -30.5443 -197.817 -7.42926C-197.816 15.6858 -190.961 38.2824 -178.118 57.5031C-165.275 76.7238 -147.022 91.7053 -125.666 100.553C-104.31 109.401 -80.8107 111.717 -58.14 107.21C-35.4693 102.703 -14.6451 91.5737 1.69904 75.2305C23.5859 53.2989 35.8773 23.5793 35.8761 -7.40713C35.8749 -38.3935 23.5812 -68.1155 1.6926 -90.0512ZM-169.809 81.4408C-187.387 63.8637 -199.358 41.4693 -204.209 17.0898C-209.06 -7.28965 -206.572 -32.5591 -197.06 -55.5227C-187.549 -78.4863 -171.441 -98.1126 -150.773 -111.919C-130.105 -125.726 -105.807 -133.094 -80.95 -133.09C-64.4459 -133.089 -48.103 -129.838 -32.8546 -123.521C-17.6063 -117.205 -3.75097 -107.947 7.92005 -96.2759C19.5911 -84.605 28.8493 -70.7498 35.166 -55.5015C41.4827 -40.2532 44.7342 -23.9104 44.7348 -7.40629C44.7355 9.09783 41.4853 25.44 35.1697 40.6871C28.8542 55.9342 19.5971 69.7877 7.92698 81.4563C-3.74313 93.125 -17.5977 102.38 -32.8456 108.694C-48.0935 115.008 -64.4361 118.256 -80.9402 118.253C-97.4505 118.297 -113.806 115.066 -129.06 108.747C-144.314 102.428 -158.165 93.1471 -169.809 81.4409L-169.809 81.4408Z" fill="#31313E"/>
<path d="M96.8176 703.124L-80.9292 525.377L-258.652 703.1L-80.9054 880.847L96.8176 703.124Z" fill="#39175F"/>
<path d="M7.9466 614.253C-3.723 625.922 -17.5772 635.179 -32.8249 641.493C-48.0725 647.808 -64.415 651.057 -80.9193 651.056C-97.4237 651.054 -113.767 647.802 -129.015 641.484C-144.263 635.167 -158.118 625.908 -169.788 614.236L-80.9243 525.377L7.9466 614.253Z" fill="#ED553B"/>
<path d="M-160.895 791.153C-158.761 789.048 -154.025 784.284 -154.025 784.284L-146.892 787.208L-119.706 774.26L-109.417 775.051L-48.7315 721.765L-45.9256 706.623L-36.3373 707.793L-30.9296 702.123L-16.7531 667.717L-0.00202083 684.469L9.03053 675.466L-0.704322 665.731L8.15287 656.874L17.8877 666.58L25.6633 658.834L34.5212 667.693L26.7748 675.468L36.4805 685.174L27.6232 694.06L17.8884 684.325L8.85584 693.357L25.1391 709.641L-8.47791 724.546L-13.9734 729.866L-13.6516 738.928L-28.8524 741.996L-81.9366 802.971L-81.4977 812.881L-92.2835 840.768L-91.2016 847.637L-97.808 854.214C-97.808 854.214 -111.811 840.239 -160.895 791.153Z" fill="#FF9EF6"/>
<path fill-rule="evenodd" clip-rule="evenodd" d="M-165.397 786.622L-158.556 779.782L-155.546 776.771L-151.599 778.379L-147.126 780.192L-122.484 768.501L-120.934 767.741L-119.21 767.888L-111.638 768.473L-54.6365 718.403L-52.24 705.453L-51.1294 699.548L-45.1659 700.28L-38.7346 701.04L-36.3961 698.585L-22.6872 665.29L-19.0042 656.375L-12.222 663.186L-9.7079 665.701L-5.23544 661.199L3.65095 652.343L8.18184 647.812L12.7131 652.314L17.8874 657.518L21.103 654.303L25.6338 649.772L30.1651 654.304L39.0522 663.191L43.5541 667.694L39.0525 672.224L35.8077 675.44L41.0406 680.643L45.5427 685.175L41.0118 689.706L32.1547 698.562L27.6529 703.064L29.6993 705.081L36.277 711.688L27.7411 715.488L-4.85283 729.955L-7.4544 732.469L-7.24947 738.695L-7.04468 744.132L-12.365 745.184L-25.4318 747.843L-75.4176 805.281L-75.0957 812.618L-75.0372 813.992L-75.5048 815.22L-85.6768 841.499L-84.8873 846.644L-84.3902 849.889L-86.6703 852.169L-93.2766 858.775L-97.8075 863.305L-102.339 858.774L-165.425 795.684L-169.957 791.181L-165.397 786.622ZM-160.895 791.153C-158.761 789.049 -154.025 784.284 -154.025 784.284L-146.892 787.208L-119.706 774.261L-109.416 775.051L-48.7314 721.765L-45.9256 706.623L-36.3372 707.793L-30.9295 702.123L-16.753 667.717L-0.00195615 684.469L9.03059 675.466L-0.704255 665.731L8.15294 656.874L17.8877 666.58L25.6633 658.834L34.5212 667.693L26.7749 675.468L36.4806 685.174L27.6233 694.06L17.8884 684.325L8.8559 693.357L25.1392 709.641L-8.47785 724.546L-13.9734 729.866L-13.6515 738.928L-28.8523 741.996L-81.9365 802.971L-81.4977 812.881L-92.2834 840.768L-91.2015 847.637L-97.808 854.214C-97.808 854.214 -111.811 840.239 -160.895 791.153Z" fill="#173F5F"/>
<path d="M96.8176 703.124L-80.9292 525.377L-258.652 703.1L-80.9054 880.847L96.8176 703.124Z" fill="#31313E"/>
<path d="M7.9466 614.253C-3.723 625.922 -17.5772 635.179 -32.8249 641.493C-48.0725 647.808 -64.415 651.057 -80.9193 651.056C-97.4237 651.054 -113.767 647.802 -129.015 641.484C-144.263 635.167 -158.118 625.908 -169.788 614.236L-80.9243 525.377L7.9466 614.253Z" fill="#ED553B"/>
<path d="M-160.895 791.153C-158.761 789.048 -154.025 784.284 -154.025 784.284L-146.892 787.208L-119.706 774.26L-109.417 775.051L-48.7315 721.765L-45.9256 706.623L-36.3373 707.793L-30.9296 702.123L-16.7531 667.717L-0.00202083 684.469L9.03053 675.466L-0.704322 665.731L8.15287 656.874L17.8877 666.58L25.6633 658.834L34.5212 667.693L26.7748 675.468L36.4805 685.174L27.6232 694.06L17.8884 684.325L8.85584 693.357L25.1391 709.641L-8.47791 724.546L-13.9734 729.866L-13.6516 738.928L-28.8524 741.996L-81.9366 802.971L-81.4977 812.881L-92.2835 840.768L-91.2016 847.637L-97.808 854.214C-97.808 854.214 -111.811 840.239 -160.895 791.153Z" fill="#FEA49C"/>
<path fill-rule="evenodd" clip-rule="evenodd" d="M-165.543 786.505L-158.673 779.636L-155.575 776.537L-151.54 778.204L-147.126 779.988L-122.571 768.326L-120.963 767.566L-119.21 767.683L-111.697 768.269L-54.8119 718.315L-52.4153 705.424L-51.3047 699.344L-45.1365 700.075L-38.8221 700.836L-36.5714 698.468L-22.8626 665.202L-19.0919 656.053L-12.0757 663.04L-9.70779 665.408L-5.35234 661.082L3.50486 652.196L8.18189 647.52L12.8301 652.197L17.8875 657.226L20.9861 654.157L25.6339 649.509L30.3113 654.187L39.1691 663.045L43.8465 667.693L39.1695 672.37L36.1001 675.439L41.1577 680.497L45.8351 685.175L41.1581 689.852L32.2715 698.708L27.9453 703.064L29.8162 704.964L36.6277 711.747L27.8289 715.663L-4.73578 730.101L-7.24968 732.556L-7.04485 738.695L-6.83992 744.278L-12.3356 745.389L-25.3441 748.019L-75.2421 805.339L-74.8911 812.589L-74.8325 814.051L-75.3294 815.278L-85.4721 841.528L-84.6826 846.615L-84.1856 849.947L-86.5241 852.315L-93.1304 858.892L-97.8075 863.568L-102.485 858.891L-165.571 795.83L-170.22 791.181L-165.543 786.505ZM-160.894 791.153C-158.761 789.049 -154.025 784.284 -154.025 784.284L-146.892 787.208L-119.706 774.261L-109.416 775.051L-48.7313 721.765L-45.9255 706.623L-36.3371 707.793L-30.9294 702.123L-16.7529 667.717L-0.00183325 684.469L9.03071 675.466L-0.704129 665.731L8.15307 656.874L17.8879 666.58L25.6635 658.834L34.5213 667.693L26.775 675.468L36.4807 685.174L27.6234 694.06L17.8886 684.325L8.85602 693.357L25.1393 709.641L-8.47774 724.546L-13.9732 729.866L-13.6514 738.928L-28.8522 741.996L-81.9364 802.971L-81.4976 812.881L-92.2833 840.768L-91.2014 847.637L-97.8079 854.214C-97.8079 854.214 -111.811 840.239 -160.894 791.153Z" fill="#31313E"/>
<path d="M185.301 614.65C161.828 591.176 129.993 577.987 96.798 577.983C63.6035 577.98 31.769 591.164 8.29741 614.633L96.8175 703.129L185.301 614.65Z" fill="#31313E"/>
<path d="M348.168 421.644C395.523 374.292 401.016 302.993 360.41 262.385C383.154 285.131 395.933 315.979 395.934 348.143C395.935 380.307 383.159 411.153 360.417 433.894C337.674 456.635 306.828 469.409 274.664 469.406C242.5 469.403 211.653 456.623 188.908 433.877C229.514 474.486 300.813 468.996 348.168 421.644L348.168 421.644Z" fill="#FCF9D3"/>
<path d="M201.151 274.648C153.796 322.001 148.303 393.299 188.909 433.877C229.514 474.485 300.813 468.996 348.168 421.644C395.523 374.292 401.016 302.993 360.41 262.385C319.804 221.806 248.506 227.266 201.151 274.648Z" fill="#FF9A00"/>
<path d="M357.312 265.513C373.66 281.857 384.795 302.68 389.31 325.351C393.824 348.021 391.515 371.521 382.674 392.877C373.833 414.233 358.857 432.487 339.64 445.331C320.423 458.174 297.829 465.031 274.714 465.033C251.599 465.034 229.001 458.182 209.779 445.341C190.557 432.501 175.573 414.249 166.723 392.894C157.872 371.54 155.553 348.041 160.057 325.37C164.562 302.698 175.689 281.873 192.03 265.527C213.958 243.635 243.676 231.338 274.663 231.336C305.651 231.333 335.374 243.625 357.312 265.513ZM185.81 437.005C206.367 457.563 233.415 470.358 262.346 473.211C291.277 476.064 320.3 468.797 344.472 452.649C368.643 436.501 386.467 412.471 394.905 384.654C403.344 356.836 401.877 326.951 390.752 300.092C379.628 273.232 359.535 251.059 333.897 237.351C308.26 223.643 278.663 219.248 250.151 224.914C221.639 230.58 195.974 245.957 177.53 268.426C159.087 290.894 149.005 319.063 149.003 348.134C148.95 364.646 152.177 381.004 158.495 396.259C164.813 411.515 174.098 425.365 185.81 437.005Z" fill="#F5FFFF"/>
<path d="M244.189 469.225L250.825 463.437C237.757 448.44 232.115 432.42 234.072 415.845C237.784 384.391 267.571 359.224 275.347 353.145C313.73 367.706 344.424 360.284 363.571 351.37C384.735 341.491 396.457 327.958 396.954 327.402L390.259 321.672C390.171 321.789 379.064 334.504 359.507 343.535C333.491 355.547 305.486 355.72 276.311 344.053C275.624 343.777 274.878 343.678 274.143 343.764C273.407 343.851 272.705 344.121 272.101 344.55C270.406 345.778 230.066 374.831 225.332 414.792C223.053 433.939 229.397 452.268 244.189 469.225L244.189 469.225Z" fill="#F5FFFF"/>
<path d="M271.663 347.678L280.287 345.866C276.463 329.391 270.61 313.454 262.862 298.42C246.14 266.496 223.776 249.364 198.139 248.806L197.964 257.605C220.444 258.075 239.621 273.132 254.969 302.336C262.342 316.722 267.947 331.946 271.663 347.678L271.663 347.678Z" fill="#F5FFFF"/>
<path d="M160.493 400.023L169.263 399.41C167.245 371.434 179.901 344.337 206.853 318.878C219.544 306.992 233.688 296.758 248.947 288.421L244.971 280.586C228.992 289.215 214.204 299.886 200.977 312.329C188.349 324.225 178.469 336.824 171.658 349.744C163.035 366.114 159.265 383.039 160.493 400.023Z" fill="white"/>
<path d="M340.828 354.116L349.539 352.772C346.144 334.078 340.591 315.841 332.992 298.427C325.683 281.617 316.912 267.117 306.973 255.277C294.402 240.308 279.873 229.579 263.824 223.409L260.667 231.623C294.022 244.43 314.019 276.939 324.923 301.934C332.2 318.664 337.536 336.172 340.828 354.116Z" fill="white"/>
<path d="M229.833 407.484C230.681 408.01 250.56 420.231 280.378 424.824C297.533 427.53 315.044 426.996 332.002 423.25C352.845 418.604 372.665 408.872 390.876 394.403L385.38 387.504C354.306 412.202 319.549 421.846 282.073 416.171C253.921 411.9 234.686 400.118 234.51 400.001L229.833 407.484Z" fill="#F5FFFF"/>
<path d="M452.38 348.129L274.633 170.382L96.9102 348.105L274.657 525.852L452.38 348.129Z" fill="#08E6E7"/>
<path d="M363.457 436.934C342.899 457.473 315.854 470.247 286.931 473.081C258.008 475.915 228.996 468.632 204.837 452.475C180.679 436.317 162.869 412.283 154.441 384.469C146.014 356.654 147.491 326.78 158.621 299.935C169.751 273.09 189.844 250.935 215.478 237.246C241.113 223.557 270.701 219.179 299.204 224.86C327.706 230.541 353.358 245.928 371.79 268.399C390.222 290.871 400.293 319.037 400.287 348.099C400.255 381.421 387.011 413.367 363.457 436.934Z" fill="#ED553B"/>
<path d="M348.168 421.644C395.523 374.292 401.016 302.993 360.41 262.385C383.154 285.131 395.933 315.979 395.934 348.143C395.935 380.307 383.159 411.153 360.417 433.894C337.674 456.635 306.828 469.409 274.664 469.406C242.5 469.403 211.653 456.623 188.908 433.877C229.514 474.486 300.813 468.996 348.168 421.644L348.168 421.644Z" fill="#08E6E7"/>
<path d="M201.151 274.648C153.796 322.001 148.303 393.299 188.909 433.877C229.514 474.485 300.813 468.996 348.168 421.644C395.523 374.292 401.016 302.993 360.41 262.385C319.804 221.806 248.506 227.266 201.151 274.648Z" fill="#FF9A00"/>
<path d="M357.312 265.513C373.66 281.857 384.795 302.68 389.31 325.351C393.824 348.021 391.515 371.521 382.674 392.877C373.833 414.233 358.857 432.487 339.64 445.331C320.423 458.174 297.829 465.031 274.714 465.033C251.599 465.034 229.001 458.182 209.779 445.341C190.557 432.501 175.573 414.249 166.723 392.894C157.872 371.54 155.553 348.041 160.057 325.37C164.562 302.698 175.689 281.873 192.03 265.527C213.958 243.635 243.676 231.338 274.663 231.336C305.651 231.333 335.374 243.625 357.312 265.513ZM185.81 437.005C206.367 457.563 233.415 470.358 262.346 473.211C291.277 476.064 320.3 468.797 344.472 452.649C368.643 436.501 386.467 412.471 394.905 384.654C403.344 356.836 401.877 326.951 390.752 300.092C379.628 273.232 359.535 251.059 333.897 237.351C308.26 223.643 278.663 219.248 250.151 224.914C221.639 230.58 195.974 245.957 177.53 268.426C159.087 290.894 149.005 319.063 149.003 348.134C148.95 364.646 152.177 381.004 158.495 396.259C164.813 411.515 174.098 425.365 185.81 437.005Z" fill="white"/>
<path d="M244.189 469.225L250.825 463.437C237.757 448.44 232.115 432.42 234.072 415.845C237.784 384.391 267.571 359.224 275.347 353.145C313.73 367.706 344.424 360.284 363.571 351.37C384.735 341.491 396.457 327.958 396.954 327.402L390.259 321.672C390.171 321.789 379.064 334.504 359.507 343.535C333.491 355.547 305.486 355.72 276.311 344.053C275.624 343.777 274.878 343.678 274.143 343.764C273.407 343.851 272.705 344.121 272.101 344.55C270.406 345.778 230.066 374.831 225.332 414.792C223.053 433.939 229.397 452.268 244.189 469.225L244.189 469.225Z" fill="#F5FFFF"/>
<path d="M271.663 347.678L280.287 345.866C276.463 329.391 270.61 313.454 262.862 298.42C246.14 266.496 223.776 249.364 198.139 248.806L197.964 257.605C220.444 258.075 239.621 273.132 254.969 302.336C262.342 316.722 267.947 331.946 271.663 347.678L271.663 347.678Z" fill="#F5FFFF"/>
<path d="M160.493 400.023L169.263 399.41C167.245 371.434 179.901 344.337 206.853 318.878C219.544 306.992 233.688 296.758 248.947 288.421L244.971 280.586C228.992 289.215 214.204 299.886 200.977 312.329C188.349 324.225 178.469 336.824 171.658 349.744C163.035 366.114 159.265 383.039 160.493 400.023Z" fill="white"/>
<path d="M340.828 354.116L349.539 352.772C346.144 334.078 340.591 315.841 332.992 298.427C325.683 281.617 316.912 267.117 306.973 255.277C294.402 240.308 279.873 229.579 263.824 223.409L260.667 231.623C294.022 244.43 314.019 276.939 324.923 301.934C332.2 318.664 337.536 336.172 340.828 354.116Z" fill="white"/>
<path d="M229.833 407.484C230.681 408.01 250.56 420.231 280.378 424.824C297.533 427.53 315.044 426.996 332.002 423.25C352.845 418.604 372.665 408.872 390.876 394.403L385.38 387.504C354.306 412.202 319.549 421.846 282.073 416.171C253.921 411.9 234.686 400.118 234.51 400.001L229.833 407.484Z" fill="white"/>
<path opacity="0.6" d="M452.757 347.091L-80.3345 -186L-792 525.665L-258.909 1058.76L452.757 347.091Z" fill="white"/>
</g>
</g>
<defs>
<clipPath id="clip0_411_3336">
<rect width="1440" height="800" fill="white"/>
</clipPath>
<clipPath id="clip1_411_3336">
<rect width="754.042" height="1006.45" fill="white" transform="translate(-80.3345 -186) rotate(45)"/>
</clipPath>
</defs>
</svg>
