<svg width="1440" height="800" viewBox="0 0 1440 800" fill="none" xmlns="http://www.w3.org/2000/svg">
<g clip-path="url(#clip0_297_1081)">
<g clip-path="url(#clip1_297_1081)">
<path d="M257.934 380.062L80.187 202.315L-97.5359 380.038L80.2108 557.785L257.934 380.062Z" fill="#39175F"/>
<path d="M169.063 291.191C157.393 302.861 143.539 312.117 128.291 318.432C113.044 324.746 96.7012 327.996 80.1969 327.994C63.6926 327.992 47.3497 324.74 32.1015 318.423C16.8534 312.105 2.99851 302.846 -8.672 291.174L80.1919 202.315L169.063 291.191Z" fill="#ED553B"/>
<path d="M85.8092 322.755C87.5589 319.909 88.5045 316.642 88.5456 313.301C88.5866 309.96 87.7215 306.671 86.0423 303.783C87.1307 303.78 88.2017 303.51 89.1603 302.994C90.119 302.479 90.9358 301.736 91.5383 300.829C92.1408 299.923 92.5104 298.882 92.6145 297.799C92.7185 296.715 92.5538 295.623 92.1348 294.618C91.7157 293.614 91.0555 292.728 90.2124 292.04C89.3693 291.351 88.3695 290.882 87.3014 290.672C86.2334 290.462 85.1303 290.519 84.0896 290.838C83.0489 291.156 82.1029 291.727 81.3354 292.498C80.7223 293.107 80.2361 293.831 79.9049 294.629C79.5737 295.427 79.4042 296.282 79.4062 297.146C76.507 295.464 73.2059 294.6 69.8545 294.646C66.5032 294.692 63.2272 295.646 60.3758 297.407C59.9622 296.766 59.6745 296.052 59.528 295.303C59.2476 293.975 59.4334 292.592 60.0541 291.386C60.2935 290.858 60.395 290.278 60.349 289.7C60.3029 289.122 60.1109 288.565 59.7908 288.082C59.3815 287.381 58.9429 286.65 58.5336 285.919C58.4269 285.729 58.2683 285.573 58.0764 285.469C57.8844 285.366 57.6671 285.319 57.4495 285.334C57.232 285.35 57.0234 285.426 56.8479 285.556C56.6723 285.685 56.5372 285.862 56.4581 286.065C52.8044 295.39 43.2755 317.898 43.2755 317.898L37.8968 323.539L28.3377 322.369L25.5612 337.424L-22.4957 378.14L-32.7273 377.35L-59.7378 390.181L-66.8122 387.315L-73.6524 394.126L-10.9458 456.836L-4.39795 450.259L-5.42127 443.448L5.27679 415.736L4.83791 405.885L45.3233 357.538L60.4364 354.499L60.1146 345.466L65.5809 340.205L96.8885 326.322C97.0829 326.233 97.2493 326.092 97.3698 325.916C97.4903 325.739 97.5603 325.533 97.5723 325.32C97.5843 325.106 97.5379 324.893 97.438 324.704C97.3381 324.515 97.1885 324.357 97.0053 324.246C96.4499 323.925 95.8069 323.545 95.0468 323.077C94.5425 322.751 93.9627 322.561 93.3635 322.525C92.7643 322.489 92.166 322.609 91.6265 322.872C90.722 323.332 89.718 323.562 88.7033 323.542C87.6886 323.521 86.6945 323.251 85.8092 322.755L85.8092 322.755Z" fill="#ED553B"/>
<path fill-rule="evenodd" clip-rule="evenodd" d="M85.8088 322.755C87.5585 319.909 88.5041 316.642 88.5452 313.301C88.5862 309.96 87.7211 306.671 86.0419 303.783C87.1303 303.78 88.2013 303.51 89.1599 302.994C90.1186 302.479 90.9354 301.736 91.5379 300.829C92.1404 299.923 92.5101 298.882 92.6141 297.799C92.7181 296.715 92.5534 295.623 92.1344 294.618C91.7154 293.614 91.0551 292.728 90.212 292.04C89.3689 291.351 88.3691 290.881 87.3011 290.672C86.233 290.462 85.1299 290.519 84.0892 290.838C83.0486 291.156 82.1025 291.727 81.3351 292.498C80.7219 293.107 80.2357 293.831 79.9045 294.629C79.5733 295.427 79.4038 296.282 79.4058 297.146C76.5066 295.464 73.2055 294.6 69.8541 294.646C66.5028 294.692 63.2268 295.646 60.3754 297.407C59.9618 296.766 59.6741 296.052 59.5276 295.303C59.2472 293.975 59.433 292.592 60.0537 291.386C60.2931 290.858 60.3946 290.278 60.3486 289.7C60.3025 289.122 60.1105 288.565 59.7904 288.082C59.3812 287.381 58.9425 286.65 58.5332 285.919C58.4265 285.729 58.2679 285.573 58.076 285.469C57.884 285.366 57.6667 285.319 57.4492 285.334C57.2317 285.35 57.023 285.426 56.8475 285.556C56.6719 285.685 56.5368 285.862 56.4578 286.065C52.804 295.39 43.2751 317.898 43.2751 317.898L37.8964 323.539L28.3373 322.369L25.5608 337.424L-22.4962 378.14L-32.7277 377.35L-59.7382 390.181L-66.8126 387.315L-73.6528 394.126L-10.9462 456.836L-4.3984 450.259L-5.42172 443.448L5.27635 415.736L4.83746 405.885L45.3229 357.538L60.436 354.499L60.1142 345.466L65.5805 340.205L96.8881 326.322C97.0825 326.233 97.2489 326.092 97.3694 325.916C97.4899 325.739 97.5599 325.533 97.5719 325.32C97.5839 325.106 97.5375 324.893 97.4376 324.704C97.3377 324.515 97.1881 324.357 97.0049 324.246C96.4495 323.925 95.8065 323.545 95.0464 323.077C94.5421 322.751 93.9623 322.561 93.3631 322.525C92.7639 322.489 92.1656 322.609 91.6261 322.872C90.7216 323.332 89.7176 323.562 88.7029 323.542C87.6882 323.521 86.6941 323.251 85.8088 322.755L85.8088 322.755ZM94.929 313.401C94.8998 314.366 94.8413 315.33 94.7246 316.266C96.0302 316.496 97.2801 316.972 98.4079 317.669C98.7879 317.903 99.1095 318.108 99.3726 318.254L100.22 318.751C101.578 319.553 102.651 320.759 103.29 322.201C103.779 323.288 104 324.477 103.934 325.667C103.868 326.858 103.517 328.015 102.91 329.041C102.245 330.198 101.274 331.149 100.104 331.789C99.8958 331.917 99.6811 332.034 99.4607 332.14L69.1762 345.584L66.5746 348.068L66.8087 354.149C66.8891 355.672 66.4199 357.174 65.4865 358.381C64.5531 359.588 63.2174 360.42 61.7225 360.725L48.8017 363.355L11.2978 408.107L11.6197 414.918C11.7398 415.976 11.6097 417.048 11.2398 418.046L1.12634 444.179L1.91584 449.295L1.88652 449.295C2.04654 450.282 1.96818 451.294 1.65804 452.244C1.34788 453.195 0.81489 454.058 0.1035 454.761L-6.44435 461.338C-7.63859 462.531 -9.25782 463.201 -10.9461 463.201C-12.6344 463.201 -14.2537 462.531 -15.448 461.337L-77.7453 399.007C-77.8954 398.896 -78.0326 398.769 -78.1546 398.627C-79.3479 397.433 -80.0182 395.813 -80.0183 394.125C-80.0183 392.437 -79.3481 390.818 -78.1549 389.623L-71.3439 382.784L-71.3147 382.813C-70.4305 381.926 -69.3043 381.32 -68.0771 381.07C-66.8498 380.821 -65.5762 380.939 -64.4158 381.41L-59.9432 383.252L-35.4758 371.591C-34.4678 371.104 -33.3458 370.902 -32.2311 371.007L-24.6306 371.592L19.714 334.032L22.0813 321.228C22.3657 319.632 23.2519 318.205 24.5572 317.242C25.8625 316.28 27.4874 315.855 29.097 316.055L35.4697 316.845L37.8375 314.389C39.7667 309.829 47.4833 291.472 50.5233 283.755C51.0303 282.425 51.9088 281.269 53.0541 280.424C54.1994 279.58 55.5633 279.082 56.9835 278.99C58.1079 278.907 59.2368 279.077 60.2868 279.488C61.9055 280.103 63.2525 281.274 64.0872 282.791C64.3211 283.201 64.5257 283.551 64.6719 283.785C64.7012 283.873 64.9349 284.224 65.2566 284.809C65.9402 285.948 66.3969 287.208 66.6015 288.521C67.6473 288.371 68.7022 288.293 69.7587 288.288C71.835 288.248 73.9078 288.474 75.9267 288.961C76.219 288.61 76.5114 288.288 76.833 287.967L76.833 287.996C78.0371 286.785 79.4684 285.823 81.0448 285.166C82.6213 284.509 84.3119 284.17 86.0199 284.167C87.7278 284.165 89.4195 284.5 90.9979 285.152C92.5764 285.805 94.0106 286.763 95.2183 287.971C96.426 289.178 97.3836 290.613 98.0361 292.191C98.6886 293.769 99.0232 295.461 99.0207 297.169C99.0183 298.877 98.6788 300.568 98.0218 302.144C97.3647 303.721 96.403 305.152 95.1918 306.356L95.221 306.356C94.8995 306.677 94.5779 306.969 94.2271 307.262C94.7088 309.272 94.9445 311.334 94.9289 313.401L94.929 313.401Z" fill="#173F5F"/>
<path d="M0.221291 468.091C2.35525 465.987 7.09082 461.222 7.09082 461.222L14.2237 464.146L41.4096 451.199L51.6994 451.989L112.385 398.703L115.19 383.561L124.779 384.731L130.186 379.061L144.363 344.655L161.114 361.407L170.146 352.404L160.412 342.669L169.269 333.812L179.004 343.518L186.779 335.772L195.637 344.631L187.891 352.406L197.596 362.112L188.739 370.998L179.004 361.263L169.972 370.295L186.255 386.579L152.638 401.484L147.143 406.804L147.464 415.866L132.264 418.934L79.1794 479.909L79.6182 489.819L68.8325 517.706L69.9144 524.576L63.3079 531.152C63.3079 531.152 49.305 517.178 0.221291 468.091Z" fill="#FF9EF6"/>
<path fill-rule="evenodd" clip-rule="evenodd" d="M-4.28061 463.56L2.55954 456.72L5.57042 453.709L9.5169 455.318L13.9896 457.13L38.6324 445.44L40.1816 444.68L41.9064 444.826L49.4776 445.412L106.48 395.341L108.876 382.391L109.987 376.487L115.95 377.218L122.381 377.979L124.72 375.523L138.429 342.229L142.112 333.313L148.894 340.125L151.408 342.639L155.881 338.138L164.767 329.281L169.298 324.75L173.829 329.253L179.003 334.456L182.219 331.241L186.75 326.711L191.281 331.242L200.168 340.13L204.67 344.632L200.168 349.163L196.924 352.378L202.157 357.582L206.659 362.113L202.128 366.644L193.271 375.5L188.769 380.002L190.815 382.019L197.393 388.626L188.857 392.426L156.263 406.893L153.662 409.407L153.867 415.633L154.071 421.071L148.751 422.122L135.684 424.781L85.6984 482.219L86.0203 489.556L86.0787 490.93L85.6112 492.158L75.4391 518.437L76.2287 523.582L76.7258 526.827L74.4457 529.107L67.8394 535.713L63.3084 540.244L58.7772 535.712L-4.30946 472.622L-8.84065 468.12L-4.28061 463.56ZM0.221384 468.091C2.35534 465.987 7.09091 461.222 7.09091 461.222L14.2238 464.146L41.4096 451.199L51.6995 451.989L112.385 398.704L115.19 383.561L124.779 384.732L130.186 379.061L144.363 344.655L161.114 361.407L170.147 352.404L160.412 342.669L169.269 333.812L179.004 343.519L186.779 335.773L195.637 344.631L187.891 352.406L197.597 362.112L188.739 370.998L179.004 361.263L169.972 370.295L186.255 386.579L152.638 401.485L147.143 406.804L147.464 415.866L132.264 418.935L79.1794 479.909L79.6183 489.819L68.8326 517.706L69.9145 524.576L63.308 531.152C63.308 531.152 49.3051 517.178 0.221384 468.091Z" fill="#173F5F"/>
<path d="M257.934 380.062L80.187 202.315L-97.5359 380.038L80.2108 557.785L257.934 380.062Z" fill="#31313E"/>
<path d="M169.063 291.191C157.393 302.861 143.539 312.117 128.291 318.432C113.044 324.746 96.7012 327.996 80.1969 327.994C63.6926 327.992 47.3497 324.74 32.1015 318.423C16.8534 312.105 2.99851 302.846 -8.672 291.174L80.1919 202.315L169.063 291.191Z" fill="#ED553B"/>
<path d="M85.8092 322.755C87.5589 319.909 88.5045 316.642 88.5456 313.301C88.5866 309.96 87.7215 306.671 86.0423 303.783C87.1307 303.78 88.2017 303.51 89.1603 302.994C90.119 302.479 90.9358 301.736 91.5383 300.829C92.1408 299.923 92.5104 298.882 92.6145 297.799C92.7185 296.715 92.5538 295.623 92.1348 294.618C91.7157 293.614 91.0555 292.728 90.2124 292.04C89.3693 291.351 88.3695 290.882 87.3014 290.672C86.2334 290.462 85.1303 290.519 84.0896 290.838C83.0489 291.156 82.1029 291.727 81.3354 292.498C80.7223 293.107 80.2361 293.831 79.9049 294.629C79.5737 295.427 79.4042 296.282 79.4062 297.146C76.507 295.464 73.2059 294.6 69.8545 294.646C66.5032 294.692 63.2272 295.646 60.3758 297.407C59.9622 296.766 59.6745 296.052 59.528 295.303C59.2476 293.975 59.4334 292.592 60.0541 291.386C60.2935 290.858 60.395 290.278 60.349 289.7C60.3029 289.122 60.1109 288.565 59.7908 288.082C59.3815 287.381 58.9429 286.65 58.5336 285.919C58.4269 285.729 58.2683 285.573 58.0764 285.469C57.8844 285.366 57.6671 285.319 57.4495 285.334C57.232 285.35 57.0234 285.426 56.8479 285.556C56.6723 285.685 56.5372 285.862 56.4581 286.065C52.8044 295.39 43.2755 317.898 43.2755 317.898L37.8968 323.539L28.3377 322.369L25.5612 337.424L-22.4957 378.14L-32.7273 377.35L-59.7378 390.181L-66.8122 387.315L-73.6524 394.126L-10.9458 456.836L-4.39795 450.259L-5.42127 443.448L5.27679 415.736L4.83791 405.885L45.3233 357.538L60.4364 354.499L60.1146 345.466L65.5809 340.205L96.8885 326.322C97.0829 326.233 97.2493 326.092 97.3698 325.916C97.4903 325.739 97.5603 325.533 97.5723 325.32C97.5843 325.106 97.5379 324.893 97.438 324.704C97.3381 324.515 97.1885 324.357 97.0053 324.246C96.4499 323.925 95.8069 323.545 95.0468 323.077C94.5425 322.751 93.9627 322.561 93.3635 322.525C92.7643 322.489 92.166 322.609 91.6265 322.872C90.722 323.332 89.718 323.562 88.7033 323.542C87.6886 323.521 86.6945 323.251 85.8092 322.755L85.8092 322.755Z" fill="#ED553B"/>
<path fill-rule="evenodd" clip-rule="evenodd" d="M85.8091 322.754C87.5588 319.909 88.5044 316.642 88.5455 313.301C88.5865 309.96 87.7215 306.671 86.0422 303.782C87.1306 303.78 88.2016 303.509 89.1602 302.994C90.1189 302.479 90.9357 301.735 91.5382 300.829C92.1407 299.923 92.5104 298.882 92.6144 297.799C92.7184 296.715 92.5537 295.623 92.1347 294.618C91.7157 293.614 91.0554 292.728 90.2123 292.04C89.3692 291.351 88.3694 290.881 87.3014 290.672C86.2333 290.462 85.1302 290.519 84.0895 290.838C83.0489 291.156 82.1028 291.727 81.3354 292.498C80.7222 293.107 80.236 293.831 79.9048 294.629C79.5736 295.427 79.4041 296.282 79.4061 297.146C76.5069 295.464 73.2058 294.6 69.8544 294.646C66.5031 294.692 63.2271 295.646 60.3757 297.407C59.9621 296.766 59.6744 296.051 59.5279 295.302C59.2475 293.975 59.4333 292.592 60.054 291.385C60.2934 290.858 60.3949 290.278 60.3489 289.7C60.3029 289.122 60.1108 288.565 59.7907 288.082C59.3815 287.38 58.9428 286.65 58.5335 285.919C58.4268 285.729 58.2682 285.573 58.0763 285.469C57.8843 285.366 57.667 285.319 57.4495 285.334C57.232 285.349 57.0233 285.426 56.8478 285.556C56.6722 285.685 56.5371 285.861 56.4581 286.065C52.8043 295.39 43.2754 317.898 43.2754 317.898L37.8968 323.539L28.3376 322.369L25.5611 337.424L-22.4958 378.14L-32.7274 377.35L-59.7379 390.18L-66.8123 387.315L-73.6524 394.126L-10.9459 456.836L-4.39804 450.259L-5.42137 443.448L5.27669 415.736L4.83781 405.885L45.3232 357.538L60.4363 354.499L60.1145 345.466L65.5808 340.204L96.8884 326.322C97.0828 326.233 97.2492 326.092 97.3697 325.916C97.4902 325.739 97.5602 325.533 97.5722 325.319C97.5842 325.106 97.5378 324.893 97.4379 324.704C97.338 324.515 97.1884 324.357 97.0053 324.246C96.4498 323.925 95.8068 323.545 95.0467 323.077C94.5424 322.751 93.9626 322.561 93.3634 322.525C92.7642 322.489 92.1659 322.609 91.6265 322.872C90.7219 323.332 89.7179 323.562 88.7032 323.542C87.6885 323.521 86.6944 323.251 85.8091 322.754L85.8091 322.754ZM95.134 313.401C95.1338 314.3 95.0753 315.199 94.9586 316.09C96.2299 316.329 97.4479 316.794 98.5544 317.465C98.9051 317.698 99.2268 317.903 99.4899 318.049L100.338 318.546C101.739 319.373 102.844 320.621 103.495 322.113C103.984 323.236 104.204 324.458 104.138 325.681C104.072 326.904 103.722 328.094 103.115 329.158C102.429 330.351 101.428 331.332 100.221 331.993C100.013 332.139 99.7872 332.257 99.5489 332.344L69.3227 345.759L66.8381 348.156L67.043 354.149C67.121 355.729 66.6302 357.285 65.6596 358.534C64.6889 359.784 63.3026 360.644 61.752 360.959L48.919 363.56L11.5321 408.195L11.8539 414.889C11.9804 415.988 11.84 417.101 11.4448 418.134L1.36063 444.208L2.15004 449.266H2.12085C2.28709 450.289 2.20675 451.338 1.8865 452.324C1.56625 453.31 1.01535 454.206 0.279496 454.937L-6.29772 461.484C-6.90743 462.096 -7.63183 462.581 -8.42941 462.912C-9.22699 463.243 -10.082 463.413 -10.9456 463.413C-11.8092 463.413 -12.6643 463.242 -13.4619 462.911C-14.2595 462.58 -14.9839 462.095 -15.5937 461.483L-77.891 399.212C-78.0371 399.065 -78.1833 398.949 -78.3294 398.802C-79.5652 397.559 -80.2589 395.878 -80.259 394.125C-80.259 392.372 -79.5655 390.691 -78.3298 389.448L-71.4896 382.637C-70.5674 381.723 -69.397 381.101 -68.1238 380.846C-66.8506 380.592 -65.5306 380.717 -64.3277 381.206L-59.972 382.989L-35.5631 371.386C-34.5222 370.87 -33.3573 370.658 -32.2013 370.773L-24.7178 371.329L19.5099 333.886L21.848 321.199C22.1486 319.545 23.069 318.067 24.4215 317.068C25.7739 316.068 27.4567 315.622 29.1267 315.821L35.4117 316.582L37.6333 314.243C39.5918 309.654 47.3084 291.355 50.3191 283.667C50.9576 281.998 52.1563 280.603 53.7099 279.721C54.721 279.172 55.8368 278.843 56.984 278.757C58.137 278.673 59.2945 278.843 60.375 279.254C62.0349 279.91 63.4182 281.118 64.2923 282.674C64.5261 283.084 64.7309 283.435 64.877 283.668C64.9062 283.756 65.1109 284.107 65.4617 284.692C66.1146 285.793 66.5698 287 66.8065 288.258C67.7857 288.131 68.7717 288.063 69.7591 288.054C71.8046 288.019 73.8466 288.235 75.8395 288.698C76.097 288.391 76.3701 288.099 76.6579 287.82L76.6871 287.82C77.9126 286.59 79.3689 285.613 80.9725 284.946C82.5762 284.278 84.2957 283.934 86.0327 283.932C87.7697 283.931 89.49 284.272 91.0952 284.936C92.7003 285.6 94.1588 286.574 95.387 287.802C96.6153 289.03 97.5893 290.489 98.2532 292.094C98.9171 293.699 99.2579 295.42 99.2561 297.157C99.2543 298.894 98.9099 300.613 98.2426 302.217C97.5754 303.82 96.5984 305.277 95.3675 306.502L95.3969 306.531C95.1088 306.819 94.8064 307.092 94.4907 307.35C94.9531 309.333 95.1691 311.365 95.134 313.401L95.134 313.401Z" fill="#31313E"/>
<path d="M0.221291 468.091C2.35525 465.987 7.09082 461.222 7.09082 461.222L14.2237 464.146L41.4096 451.199L51.6994 451.989L112.385 398.703L115.19 383.561L124.779 384.731L130.186 379.061L144.363 344.655L161.114 361.407L170.146 352.404L160.412 342.669L169.269 333.812L179.004 343.518L186.779 335.772L195.637 344.631L187.891 352.406L197.596 362.112L188.739 370.998L179.004 361.263L169.972 370.295L186.255 386.579L152.638 401.484L147.143 406.804L147.464 415.866L132.264 418.934L79.1794 479.909L79.6182 489.819L68.8325 517.706L69.9144 524.576L63.3079 531.152C63.3079 531.152 49.305 517.178 0.221291 468.091Z" fill="#FEA49C"/>
<path fill-rule="evenodd" clip-rule="evenodd" d="M-4.42716 463.443L2.44219 456.574L5.54078 453.475L9.57503 455.142L13.9892 456.925L38.5442 445.264L40.152 444.504L41.906 444.621L49.4188 445.206L106.304 395.253L108.7 382.362L109.811 376.282L115.979 377.013L122.293 377.773L124.544 375.406L138.253 342.14L142.024 332.991L149.04 339.978L151.408 342.346L155.763 338.02L164.62 329.134L169.297 324.458L173.946 329.135L179.003 334.164L182.102 331.095L186.749 326.447L191.427 331.125L200.285 339.983L204.962 344.631L200.285 349.308L197.216 352.377L202.273 357.435L206.951 362.113L202.274 366.79L193.387 375.646L189.061 380.001L190.932 381.902L197.743 388.684L188.944 392.601L156.38 407.039L153.866 409.494L154.071 415.633L154.276 421.216L148.78 422.327L135.771 424.957L85.8734 482.277L86.2244 489.527L86.283 490.988L85.7861 492.216L75.6433 518.466L76.4329 523.553L76.9299 526.885L74.5914 529.253L67.9851 535.83L63.308 540.506L58.6306 535.829L-4.45601 472.768L-9.10421 468.119L-4.42716 463.443ZM0.220991 468.091C2.35495 465.986 7.09053 461.222 7.09053 461.222L14.2234 464.146L41.4093 451.198L51.6991 451.989L112.384 398.703L115.19 383.561L124.778 384.731L130.186 379.061L144.363 344.655L161.114 361.407L170.146 352.404L160.411 342.669L169.269 333.812L179.003 343.518L186.779 335.772L195.637 344.631L187.89 352.406L197.596 362.112L188.739 370.998L179.004 361.263L169.971 370.295L186.255 386.579L152.638 401.484L147.142 406.804L147.464 415.866L132.263 418.934L79.179 479.908L79.6179 489.818L68.8321 517.705L69.9141 524.575L63.3076 531.152C63.3076 531.152 49.3047 517.177 0.220991 468.091Z" fill="#31313E"/>
<path d="M80.9205 203.04L-96.8262 25.2928L-274.549 203.016L-96.8024 380.762L80.9205 203.04Z" fill="#ED553B"/>
<path d="M80.2057 557.809L-97.541 380.063L-275.264 557.786L-97.5172 735.532L80.2057 557.809Z" fill="#31313E"/>
<path d="M-8.66504 468.939C-32.2296 492.507 -45.4669 524.472 -45.4655 557.802C-45.4642 591.133 -32.2244 623.1 -8.65799 646.673L80.2058 557.814L-8.66504 468.939Z" fill="#FE9900"/>
<path d="M78.4221 556.031L78.4222 559.597L68.3665 569.652L68.3656 545.974L78.4221 556.031ZM58.3093 535.917L58.311 579.707L48.2552 589.762L48.2528 525.86L58.3093 535.917ZM38.1963 515.803L38.1996 599.788L28.144 609.843L28.1399 505.746L38.1963 515.803ZM18.0835 495.689L18.0883 619.898L8.03264 629.954L8.02699 485.632L18.0835 495.689ZM-2.02934 475.575L-2.02295 640.009L-12.0787 650.064L-12.0859 465.518L-2.02934 475.575ZM-22.1423 455.461L-22.1344 660.119L-32.1899 670.174L-32.1987 445.404L-22.1423 455.461ZM-42.2552 435.347L-42.2456 680.229L-52.272 690.284L-52.2823 425.29L-42.2552 435.347ZM-62.3388 415.233L-62.3277 700.339L-72.3834 710.394L-72.3952 405.205L-62.3388 415.233ZM-82.4517 395.148L-82.4391 720.449L-92.4946 730.504L-92.5081 385.091L-82.4517 395.148ZM-102.564 385.09L-102.551 730.503L-112.607 720.447L-112.62 395.145L-102.564 385.09ZM-122.675 405.171L-122.664 710.39L-132.72 700.332L-132.731 415.226L-122.675 405.171ZM-142.787 425.281L-142.777 690.276L-152.833 680.219L-152.842 435.336L-142.787 425.281ZM-162.898 445.391L-162.889 670.162L-172.946 660.105L-172.954 455.446L-162.898 445.391ZM-183.009 465.502L-183.002 650.048L-193.059 639.991L-193.065 475.557L-183.009 465.502ZM-203.121 485.612L-203.115 629.934L-213.172 619.877L-213.176 495.667L-203.121 485.612ZM-223.203 505.722L-223.199 609.819L-233.255 599.763L-233.258 515.777L-223.203 505.722ZM-243.314 525.832L-243.312 589.735L-253.368 579.678L-253.37 535.887L-243.314 525.832ZM-263.425 545.942L-263.424 569.621L-273.481 559.564L-273.481 555.997L-263.425 545.942Z" fill="white"/>
<path opacity="0.6" d="M263.901 373.742L-276.588 -166.747L-996 552.666L-455.511 1093.15L263.901 373.742Z" fill="white"/>
</g>
</g>
<defs>
<clipPath id="clip0_297_1081">
<rect width="1440" height="800" fill="white"/>
</clipPath>
<clipPath id="clip1_297_1081">
<rect width="754.042" height="1006.45" fill="white" transform="translate(-274.335 -159) rotate(45)"/>
</clipPath>
</defs>
</svg>
